G04 #@! TF.GenerationSoftware,KiCad,Pcbnew,5.1.5-52549c5~84~ubuntu18.04.1*
G04 #@! TF.CreationDate,2020-07-04T19:59:31-04:00*
G04 #@! TF.ProjectId,kosmo_proto_smd,6b6f736d-6f5f-4707-926f-746f5f736d64,rev?*
G04 #@! TF.SameCoordinates,Original*
G04 #@! TF.FileFunction,Legend,Bot*
G04 #@! TF.FilePolarity,Positive*
%FSLAX46Y46*%
G04 Gerber Fmt 4.6, Leading zero omitted, Abs format (unit mm)*
G04 Created by KiCad (PCBNEW 5.1.5-52549c5~84~ubuntu18.04.1) date 2020-07-04 19:59:31*
%MOMM*%
%LPD*%
G04 APERTURE LIST*
%ADD10C,0.150000*%
%ADD11C,0.120000*%
G04 APERTURE END LIST*
D10*
X91837380Y-47442380D02*
X91265952Y-47442380D01*
X91551666Y-47442380D02*
X91551666Y-46442380D01*
X91456428Y-46585238D01*
X91361190Y-46680476D01*
X91265952Y-46728095D01*
X92456428Y-46442380D02*
X92551666Y-46442380D01*
X92646904Y-46490000D01*
X92694523Y-46537619D01*
X92742142Y-46632857D01*
X92789761Y-46823333D01*
X92789761Y-47061428D01*
X92742142Y-47251904D01*
X92694523Y-47347142D01*
X92646904Y-47394761D01*
X92551666Y-47442380D01*
X92456428Y-47442380D01*
X92361190Y-47394761D01*
X92313571Y-47347142D01*
X92265952Y-47251904D01*
X92218333Y-47061428D01*
X92218333Y-46823333D01*
X92265952Y-46632857D01*
X92313571Y-46537619D01*
X92361190Y-46490000D01*
X92456428Y-46442380D01*
X93408809Y-46442380D02*
X93504047Y-46442380D01*
X93599285Y-46490000D01*
X93646904Y-46537619D01*
X93694523Y-46632857D01*
X93742142Y-46823333D01*
X93742142Y-47061428D01*
X93694523Y-47251904D01*
X93646904Y-47347142D01*
X93599285Y-47394761D01*
X93504047Y-47442380D01*
X93408809Y-47442380D01*
X93313571Y-47394761D01*
X93265952Y-47347142D01*
X93218333Y-47251904D01*
X93170714Y-47061428D01*
X93170714Y-46823333D01*
X93218333Y-46632857D01*
X93265952Y-46537619D01*
X93313571Y-46490000D01*
X93408809Y-46442380D01*
X94170714Y-47347142D02*
X94218333Y-47394761D01*
X94170714Y-47442380D01*
X94123095Y-47394761D01*
X94170714Y-47347142D01*
X94170714Y-47442380D01*
X94551666Y-46442380D02*
X95170714Y-46442380D01*
X94837380Y-46823333D01*
X94980238Y-46823333D01*
X95075476Y-46870952D01*
X95123095Y-46918571D01*
X95170714Y-47013809D01*
X95170714Y-47251904D01*
X95123095Y-47347142D01*
X95075476Y-47394761D01*
X94980238Y-47442380D01*
X94694523Y-47442380D01*
X94599285Y-47394761D01*
X94551666Y-47347142D01*
X95504047Y-46442380D02*
X96123095Y-46442380D01*
X95789761Y-46823333D01*
X95932619Y-46823333D01*
X96027857Y-46870952D01*
X96075476Y-46918571D01*
X96123095Y-47013809D01*
X96123095Y-47251904D01*
X96075476Y-47347142D01*
X96027857Y-47394761D01*
X95932619Y-47442380D01*
X95646904Y-47442380D01*
X95551666Y-47394761D01*
X95504047Y-47347142D01*
X96742142Y-46442380D02*
X96837380Y-46442380D01*
X96932619Y-46490000D01*
X96980238Y-46537619D01*
X97027857Y-46632857D01*
X97075476Y-46823333D01*
X97075476Y-47061428D01*
X97027857Y-47251904D01*
X96980238Y-47347142D01*
X96932619Y-47394761D01*
X96837380Y-47442380D01*
X96742142Y-47442380D01*
X96646904Y-47394761D01*
X96599285Y-47347142D01*
X96551666Y-47251904D01*
X96504047Y-47061428D01*
X96504047Y-46823333D01*
X96551666Y-46632857D01*
X96599285Y-46537619D01*
X96646904Y-46490000D01*
X96742142Y-46442380D01*
X98265952Y-47442380D02*
X98265952Y-46775714D01*
X98265952Y-46870952D02*
X98313571Y-46823333D01*
X98408809Y-46775714D01*
X98551666Y-46775714D01*
X98646904Y-46823333D01*
X98694523Y-46918571D01*
X98694523Y-47442380D01*
X98694523Y-46918571D02*
X98742142Y-46823333D01*
X98837380Y-46775714D01*
X98980238Y-46775714D01*
X99075476Y-46823333D01*
X99123095Y-46918571D01*
X99123095Y-47442380D01*
X99599285Y-47442380D02*
X99599285Y-46775714D01*
X99599285Y-46870952D02*
X99646904Y-46823333D01*
X99742142Y-46775714D01*
X99885000Y-46775714D01*
X99980238Y-46823333D01*
X100027857Y-46918571D01*
X100027857Y-47442380D01*
X100027857Y-46918571D02*
X100075476Y-46823333D01*
X100170714Y-46775714D01*
X100313571Y-46775714D01*
X100408809Y-46823333D01*
X100456428Y-46918571D01*
X100456428Y-47442380D01*
D11*
X45720000Y-48260000D02*
X146050000Y-48260000D01*
X45720000Y-53340000D02*
X45720000Y-47673579D01*
X146050000Y-53340000D02*
X146050000Y-47673579D01*
X146050000Y-48260000D02*
X144923496Y-48846421D01*
X146050000Y-48260000D02*
X144923496Y-47673579D01*
X45720000Y-48260000D02*
X46846504Y-48846421D01*
X45720000Y-48260000D02*
X46846504Y-47673579D01*
D10*
X152947619Y-78137142D02*
X152947619Y-77660952D01*
X152471428Y-77613333D01*
X152519047Y-77660952D01*
X152566666Y-77756190D01*
X152566666Y-77994285D01*
X152519047Y-78089523D01*
X152471428Y-78137142D01*
X152376190Y-78184761D01*
X152138095Y-78184761D01*
X152042857Y-78137142D01*
X151995238Y-78089523D01*
X151947619Y-77994285D01*
X151947619Y-77756190D01*
X151995238Y-77660952D01*
X152042857Y-77613333D01*
X152947619Y-79089523D02*
X152947619Y-78613333D01*
X152471428Y-78565714D01*
X152519047Y-78613333D01*
X152566666Y-78708571D01*
X152566666Y-78946666D01*
X152519047Y-79041904D01*
X152471428Y-79089523D01*
X152376190Y-79137142D01*
X152138095Y-79137142D01*
X152042857Y-79089523D01*
X151995238Y-79041904D01*
X151947619Y-78946666D01*
X151947619Y-78708571D01*
X151995238Y-78613333D01*
X152042857Y-78565714D01*
X152042857Y-79565714D02*
X151995238Y-79613333D01*
X151947619Y-79565714D01*
X151995238Y-79518095D01*
X152042857Y-79565714D01*
X151947619Y-79565714D01*
X152519047Y-80184761D02*
X152566666Y-80089523D01*
X152614285Y-80041904D01*
X152709523Y-79994285D01*
X152757142Y-79994285D01*
X152852380Y-80041904D01*
X152900000Y-80089523D01*
X152947619Y-80184761D01*
X152947619Y-80375238D01*
X152900000Y-80470476D01*
X152852380Y-80518095D01*
X152757142Y-80565714D01*
X152709523Y-80565714D01*
X152614285Y-80518095D01*
X152566666Y-80470476D01*
X152519047Y-80375238D01*
X152519047Y-80184761D01*
X152471428Y-80089523D01*
X152423809Y-80041904D01*
X152328571Y-79994285D01*
X152138095Y-79994285D01*
X152042857Y-80041904D01*
X151995238Y-80089523D01*
X151947619Y-80184761D01*
X151947619Y-80375238D01*
X151995238Y-80470476D01*
X152042857Y-80518095D01*
X152138095Y-80565714D01*
X152328571Y-80565714D01*
X152423809Y-80518095D01*
X152471428Y-80470476D01*
X152519047Y-80375238D01*
X152519047Y-81137142D02*
X152566666Y-81041904D01*
X152614285Y-80994285D01*
X152709523Y-80946666D01*
X152757142Y-80946666D01*
X152852380Y-80994285D01*
X152900000Y-81041904D01*
X152947619Y-81137142D01*
X152947619Y-81327619D01*
X152900000Y-81422857D01*
X152852380Y-81470476D01*
X152757142Y-81518095D01*
X152709523Y-81518095D01*
X152614285Y-81470476D01*
X152566666Y-81422857D01*
X152519047Y-81327619D01*
X152519047Y-81137142D01*
X152471428Y-81041904D01*
X152423809Y-80994285D01*
X152328571Y-80946666D01*
X152138095Y-80946666D01*
X152042857Y-80994285D01*
X151995238Y-81041904D01*
X151947619Y-81137142D01*
X151947619Y-81327619D01*
X151995238Y-81422857D01*
X152042857Y-81470476D01*
X152138095Y-81518095D01*
X152328571Y-81518095D01*
X152423809Y-81470476D01*
X152471428Y-81422857D01*
X152519047Y-81327619D01*
X151947619Y-82708571D02*
X152614285Y-82708571D01*
X152519047Y-82708571D02*
X152566666Y-82756190D01*
X152614285Y-82851428D01*
X152614285Y-82994285D01*
X152566666Y-83089523D01*
X152471428Y-83137142D01*
X151947619Y-83137142D01*
X152471428Y-83137142D02*
X152566666Y-83184761D01*
X152614285Y-83280000D01*
X152614285Y-83422857D01*
X152566666Y-83518095D01*
X152471428Y-83565714D01*
X151947619Y-83565714D01*
X151947619Y-84041904D02*
X152614285Y-84041904D01*
X152519047Y-84041904D02*
X152566666Y-84089523D01*
X152614285Y-84184761D01*
X152614285Y-84327619D01*
X152566666Y-84422857D01*
X152471428Y-84470476D01*
X151947619Y-84470476D01*
X152471428Y-84470476D02*
X152566666Y-84518095D01*
X152614285Y-84613333D01*
X152614285Y-84756190D01*
X152566666Y-84851428D01*
X152471428Y-84899047D01*
X151947619Y-84899047D01*
D11*
X151130000Y-53340000D02*
X151130000Y-109220000D01*
X146050000Y-53340000D02*
X151716421Y-53340000D01*
X146050000Y-109220000D02*
X151716421Y-109220000D01*
X151130000Y-109220000D02*
X150543579Y-108093496D01*
X151130000Y-109220000D02*
X151716421Y-108093496D01*
X151130000Y-53340000D02*
X150543579Y-54466504D01*
X151130000Y-53340000D02*
X151716421Y-54466504D01*
M02*
