G04 #@! TF.GenerationSoftware,KiCad,Pcbnew,5.1.5-52549c5~84~ubuntu18.04.1*
G04 #@! TF.CreationDate,2020-07-04T19:59:31-04:00*
G04 #@! TF.ProjectId,kosmo_proto_smd,6b6f736d-6f5f-4707-926f-746f5f736d64,rev?*
G04 #@! TF.SameCoordinates,Original*
G04 #@! TF.FileFunction,Paste,Top*
G04 #@! TF.FilePolarity,Positive*
%FSLAX46Y46*%
G04 Gerber Fmt 4.6, Leading zero omitted, Abs format (unit mm)*
G04 Created by KiCad (PCBNEW 5.1.5-52549c5~84~ubuntu18.04.1) date 2020-07-04 19:59:31*
%MOMM*%
%LPD*%
G04 APERTURE LIST*
%ADD10C,0.100000*%
G04 APERTURE END LIST*
D10*
G36*
X57227004Y-97094204D02*
G01*
X57251273Y-97097804D01*
X57275071Y-97103765D01*
X57298171Y-97112030D01*
X57320349Y-97122520D01*
X57341393Y-97135133D01*
X57361098Y-97149747D01*
X57379277Y-97166223D01*
X57395753Y-97184402D01*
X57410367Y-97204107D01*
X57422980Y-97225151D01*
X57433470Y-97247329D01*
X57441735Y-97270429D01*
X57447696Y-97294227D01*
X57451296Y-97318496D01*
X57452500Y-97343000D01*
X57452500Y-98593000D01*
X57451296Y-98617504D01*
X57447696Y-98641773D01*
X57441735Y-98665571D01*
X57433470Y-98688671D01*
X57422980Y-98710849D01*
X57410367Y-98731893D01*
X57395753Y-98751598D01*
X57379277Y-98769777D01*
X57361098Y-98786253D01*
X57341393Y-98800867D01*
X57320349Y-98813480D01*
X57298171Y-98823970D01*
X57275071Y-98832235D01*
X57251273Y-98838196D01*
X57227004Y-98841796D01*
X57202500Y-98843000D01*
X56277500Y-98843000D01*
X56252996Y-98841796D01*
X56228727Y-98838196D01*
X56204929Y-98832235D01*
X56181829Y-98823970D01*
X56159651Y-98813480D01*
X56138607Y-98800867D01*
X56118902Y-98786253D01*
X56100723Y-98769777D01*
X56084247Y-98751598D01*
X56069633Y-98731893D01*
X56057020Y-98710849D01*
X56046530Y-98688671D01*
X56038265Y-98665571D01*
X56032304Y-98641773D01*
X56028704Y-98617504D01*
X56027500Y-98593000D01*
X56027500Y-97343000D01*
X56028704Y-97318496D01*
X56032304Y-97294227D01*
X56038265Y-97270429D01*
X56046530Y-97247329D01*
X56057020Y-97225151D01*
X56069633Y-97204107D01*
X56084247Y-97184402D01*
X56100723Y-97166223D01*
X56118902Y-97149747D01*
X56138607Y-97135133D01*
X56159651Y-97122520D01*
X56181829Y-97112030D01*
X56204929Y-97103765D01*
X56228727Y-97097804D01*
X56252996Y-97094204D01*
X56277500Y-97093000D01*
X57202500Y-97093000D01*
X57227004Y-97094204D01*
G37*
G36*
X60202004Y-97094204D02*
G01*
X60226273Y-97097804D01*
X60250071Y-97103765D01*
X60273171Y-97112030D01*
X60295349Y-97122520D01*
X60316393Y-97135133D01*
X60336098Y-97149747D01*
X60354277Y-97166223D01*
X60370753Y-97184402D01*
X60385367Y-97204107D01*
X60397980Y-97225151D01*
X60408470Y-97247329D01*
X60416735Y-97270429D01*
X60422696Y-97294227D01*
X60426296Y-97318496D01*
X60427500Y-97343000D01*
X60427500Y-98593000D01*
X60426296Y-98617504D01*
X60422696Y-98641773D01*
X60416735Y-98665571D01*
X60408470Y-98688671D01*
X60397980Y-98710849D01*
X60385367Y-98731893D01*
X60370753Y-98751598D01*
X60354277Y-98769777D01*
X60336098Y-98786253D01*
X60316393Y-98800867D01*
X60295349Y-98813480D01*
X60273171Y-98823970D01*
X60250071Y-98832235D01*
X60226273Y-98838196D01*
X60202004Y-98841796D01*
X60177500Y-98843000D01*
X59252500Y-98843000D01*
X59227996Y-98841796D01*
X59203727Y-98838196D01*
X59179929Y-98832235D01*
X59156829Y-98823970D01*
X59134651Y-98813480D01*
X59113607Y-98800867D01*
X59093902Y-98786253D01*
X59075723Y-98769777D01*
X59059247Y-98751598D01*
X59044633Y-98731893D01*
X59032020Y-98710849D01*
X59021530Y-98688671D01*
X59013265Y-98665571D01*
X59007304Y-98641773D01*
X59003704Y-98617504D01*
X59002500Y-98593000D01*
X59002500Y-97343000D01*
X59003704Y-97318496D01*
X59007304Y-97294227D01*
X59013265Y-97270429D01*
X59021530Y-97247329D01*
X59032020Y-97225151D01*
X59044633Y-97204107D01*
X59059247Y-97184402D01*
X59075723Y-97166223D01*
X59093902Y-97149747D01*
X59113607Y-97135133D01*
X59134651Y-97122520D01*
X59156829Y-97112030D01*
X59179929Y-97103765D01*
X59203727Y-97097804D01*
X59227996Y-97094204D01*
X59252500Y-97093000D01*
X60177500Y-97093000D01*
X60202004Y-97094204D01*
G37*
G36*
X50756004Y-97094204D02*
G01*
X50780273Y-97097804D01*
X50804071Y-97103765D01*
X50827171Y-97112030D01*
X50849349Y-97122520D01*
X50870393Y-97135133D01*
X50890098Y-97149747D01*
X50908277Y-97166223D01*
X50924753Y-97184402D01*
X50939367Y-97204107D01*
X50951980Y-97225151D01*
X50962470Y-97247329D01*
X50970735Y-97270429D01*
X50976696Y-97294227D01*
X50980296Y-97318496D01*
X50981500Y-97343000D01*
X50981500Y-98593000D01*
X50980296Y-98617504D01*
X50976696Y-98641773D01*
X50970735Y-98665571D01*
X50962470Y-98688671D01*
X50951980Y-98710849D01*
X50939367Y-98731893D01*
X50924753Y-98751598D01*
X50908277Y-98769777D01*
X50890098Y-98786253D01*
X50870393Y-98800867D01*
X50849349Y-98813480D01*
X50827171Y-98823970D01*
X50804071Y-98832235D01*
X50780273Y-98838196D01*
X50756004Y-98841796D01*
X50731500Y-98843000D01*
X49806500Y-98843000D01*
X49781996Y-98841796D01*
X49757727Y-98838196D01*
X49733929Y-98832235D01*
X49710829Y-98823970D01*
X49688651Y-98813480D01*
X49667607Y-98800867D01*
X49647902Y-98786253D01*
X49629723Y-98769777D01*
X49613247Y-98751598D01*
X49598633Y-98731893D01*
X49586020Y-98710849D01*
X49575530Y-98688671D01*
X49567265Y-98665571D01*
X49561304Y-98641773D01*
X49557704Y-98617504D01*
X49556500Y-98593000D01*
X49556500Y-97343000D01*
X49557704Y-97318496D01*
X49561304Y-97294227D01*
X49567265Y-97270429D01*
X49575530Y-97247329D01*
X49586020Y-97225151D01*
X49598633Y-97204107D01*
X49613247Y-97184402D01*
X49629723Y-97166223D01*
X49647902Y-97149747D01*
X49667607Y-97135133D01*
X49688651Y-97122520D01*
X49710829Y-97112030D01*
X49733929Y-97103765D01*
X49757727Y-97097804D01*
X49781996Y-97094204D01*
X49806500Y-97093000D01*
X50731500Y-97093000D01*
X50756004Y-97094204D01*
G37*
G36*
X53731004Y-97094204D02*
G01*
X53755273Y-97097804D01*
X53779071Y-97103765D01*
X53802171Y-97112030D01*
X53824349Y-97122520D01*
X53845393Y-97135133D01*
X53865098Y-97149747D01*
X53883277Y-97166223D01*
X53899753Y-97184402D01*
X53914367Y-97204107D01*
X53926980Y-97225151D01*
X53937470Y-97247329D01*
X53945735Y-97270429D01*
X53951696Y-97294227D01*
X53955296Y-97318496D01*
X53956500Y-97343000D01*
X53956500Y-98593000D01*
X53955296Y-98617504D01*
X53951696Y-98641773D01*
X53945735Y-98665571D01*
X53937470Y-98688671D01*
X53926980Y-98710849D01*
X53914367Y-98731893D01*
X53899753Y-98751598D01*
X53883277Y-98769777D01*
X53865098Y-98786253D01*
X53845393Y-98800867D01*
X53824349Y-98813480D01*
X53802171Y-98823970D01*
X53779071Y-98832235D01*
X53755273Y-98838196D01*
X53731004Y-98841796D01*
X53706500Y-98843000D01*
X52781500Y-98843000D01*
X52756996Y-98841796D01*
X52732727Y-98838196D01*
X52708929Y-98832235D01*
X52685829Y-98823970D01*
X52663651Y-98813480D01*
X52642607Y-98800867D01*
X52622902Y-98786253D01*
X52604723Y-98769777D01*
X52588247Y-98751598D01*
X52573633Y-98731893D01*
X52561020Y-98710849D01*
X52550530Y-98688671D01*
X52542265Y-98665571D01*
X52536304Y-98641773D01*
X52532704Y-98617504D01*
X52531500Y-98593000D01*
X52531500Y-97343000D01*
X52532704Y-97318496D01*
X52536304Y-97294227D01*
X52542265Y-97270429D01*
X52550530Y-97247329D01*
X52561020Y-97225151D01*
X52573633Y-97204107D01*
X52588247Y-97184402D01*
X52604723Y-97166223D01*
X52622902Y-97149747D01*
X52642607Y-97135133D01*
X52663651Y-97122520D01*
X52685829Y-97112030D01*
X52708929Y-97103765D01*
X52732727Y-97097804D01*
X52756996Y-97094204D01*
X52781500Y-97093000D01*
X53706500Y-97093000D01*
X53731004Y-97094204D01*
G37*
G36*
X57227004Y-100980204D02*
G01*
X57251273Y-100983804D01*
X57275071Y-100989765D01*
X57298171Y-100998030D01*
X57320349Y-101008520D01*
X57341393Y-101021133D01*
X57361098Y-101035747D01*
X57379277Y-101052223D01*
X57395753Y-101070402D01*
X57410367Y-101090107D01*
X57422980Y-101111151D01*
X57433470Y-101133329D01*
X57441735Y-101156429D01*
X57447696Y-101180227D01*
X57451296Y-101204496D01*
X57452500Y-101229000D01*
X57452500Y-102479000D01*
X57451296Y-102503504D01*
X57447696Y-102527773D01*
X57441735Y-102551571D01*
X57433470Y-102574671D01*
X57422980Y-102596849D01*
X57410367Y-102617893D01*
X57395753Y-102637598D01*
X57379277Y-102655777D01*
X57361098Y-102672253D01*
X57341393Y-102686867D01*
X57320349Y-102699480D01*
X57298171Y-102709970D01*
X57275071Y-102718235D01*
X57251273Y-102724196D01*
X57227004Y-102727796D01*
X57202500Y-102729000D01*
X56277500Y-102729000D01*
X56252996Y-102727796D01*
X56228727Y-102724196D01*
X56204929Y-102718235D01*
X56181829Y-102709970D01*
X56159651Y-102699480D01*
X56138607Y-102686867D01*
X56118902Y-102672253D01*
X56100723Y-102655777D01*
X56084247Y-102637598D01*
X56069633Y-102617893D01*
X56057020Y-102596849D01*
X56046530Y-102574671D01*
X56038265Y-102551571D01*
X56032304Y-102527773D01*
X56028704Y-102503504D01*
X56027500Y-102479000D01*
X56027500Y-101229000D01*
X56028704Y-101204496D01*
X56032304Y-101180227D01*
X56038265Y-101156429D01*
X56046530Y-101133329D01*
X56057020Y-101111151D01*
X56069633Y-101090107D01*
X56084247Y-101070402D01*
X56100723Y-101052223D01*
X56118902Y-101035747D01*
X56138607Y-101021133D01*
X56159651Y-101008520D01*
X56181829Y-100998030D01*
X56204929Y-100989765D01*
X56228727Y-100983804D01*
X56252996Y-100980204D01*
X56277500Y-100979000D01*
X57202500Y-100979000D01*
X57227004Y-100980204D01*
G37*
G36*
X60202004Y-100980204D02*
G01*
X60226273Y-100983804D01*
X60250071Y-100989765D01*
X60273171Y-100998030D01*
X60295349Y-101008520D01*
X60316393Y-101021133D01*
X60336098Y-101035747D01*
X60354277Y-101052223D01*
X60370753Y-101070402D01*
X60385367Y-101090107D01*
X60397980Y-101111151D01*
X60408470Y-101133329D01*
X60416735Y-101156429D01*
X60422696Y-101180227D01*
X60426296Y-101204496D01*
X60427500Y-101229000D01*
X60427500Y-102479000D01*
X60426296Y-102503504D01*
X60422696Y-102527773D01*
X60416735Y-102551571D01*
X60408470Y-102574671D01*
X60397980Y-102596849D01*
X60385367Y-102617893D01*
X60370753Y-102637598D01*
X60354277Y-102655777D01*
X60336098Y-102672253D01*
X60316393Y-102686867D01*
X60295349Y-102699480D01*
X60273171Y-102709970D01*
X60250071Y-102718235D01*
X60226273Y-102724196D01*
X60202004Y-102727796D01*
X60177500Y-102729000D01*
X59252500Y-102729000D01*
X59227996Y-102727796D01*
X59203727Y-102724196D01*
X59179929Y-102718235D01*
X59156829Y-102709970D01*
X59134651Y-102699480D01*
X59113607Y-102686867D01*
X59093902Y-102672253D01*
X59075723Y-102655777D01*
X59059247Y-102637598D01*
X59044633Y-102617893D01*
X59032020Y-102596849D01*
X59021530Y-102574671D01*
X59013265Y-102551571D01*
X59007304Y-102527773D01*
X59003704Y-102503504D01*
X59002500Y-102479000D01*
X59002500Y-101229000D01*
X59003704Y-101204496D01*
X59007304Y-101180227D01*
X59013265Y-101156429D01*
X59021530Y-101133329D01*
X59032020Y-101111151D01*
X59044633Y-101090107D01*
X59059247Y-101070402D01*
X59075723Y-101052223D01*
X59093902Y-101035747D01*
X59113607Y-101021133D01*
X59134651Y-101008520D01*
X59156829Y-100998030D01*
X59179929Y-100989765D01*
X59203727Y-100983804D01*
X59227996Y-100980204D01*
X59252500Y-100979000D01*
X60177500Y-100979000D01*
X60202004Y-100980204D01*
G37*
G36*
X53731004Y-100980204D02*
G01*
X53755273Y-100983804D01*
X53779071Y-100989765D01*
X53802171Y-100998030D01*
X53824349Y-101008520D01*
X53845393Y-101021133D01*
X53865098Y-101035747D01*
X53883277Y-101052223D01*
X53899753Y-101070402D01*
X53914367Y-101090107D01*
X53926980Y-101111151D01*
X53937470Y-101133329D01*
X53945735Y-101156429D01*
X53951696Y-101180227D01*
X53955296Y-101204496D01*
X53956500Y-101229000D01*
X53956500Y-102479000D01*
X53955296Y-102503504D01*
X53951696Y-102527773D01*
X53945735Y-102551571D01*
X53937470Y-102574671D01*
X53926980Y-102596849D01*
X53914367Y-102617893D01*
X53899753Y-102637598D01*
X53883277Y-102655777D01*
X53865098Y-102672253D01*
X53845393Y-102686867D01*
X53824349Y-102699480D01*
X53802171Y-102709970D01*
X53779071Y-102718235D01*
X53755273Y-102724196D01*
X53731004Y-102727796D01*
X53706500Y-102729000D01*
X52781500Y-102729000D01*
X52756996Y-102727796D01*
X52732727Y-102724196D01*
X52708929Y-102718235D01*
X52685829Y-102709970D01*
X52663651Y-102699480D01*
X52642607Y-102686867D01*
X52622902Y-102672253D01*
X52604723Y-102655777D01*
X52588247Y-102637598D01*
X52573633Y-102617893D01*
X52561020Y-102596849D01*
X52550530Y-102574671D01*
X52542265Y-102551571D01*
X52536304Y-102527773D01*
X52532704Y-102503504D01*
X52531500Y-102479000D01*
X52531500Y-101229000D01*
X52532704Y-101204496D01*
X52536304Y-101180227D01*
X52542265Y-101156429D01*
X52550530Y-101133329D01*
X52561020Y-101111151D01*
X52573633Y-101090107D01*
X52588247Y-101070402D01*
X52604723Y-101052223D01*
X52622902Y-101035747D01*
X52642607Y-101021133D01*
X52663651Y-101008520D01*
X52685829Y-100998030D01*
X52708929Y-100989765D01*
X52732727Y-100983804D01*
X52756996Y-100980204D01*
X52781500Y-100979000D01*
X53706500Y-100979000D01*
X53731004Y-100980204D01*
G37*
G36*
X50756004Y-100980204D02*
G01*
X50780273Y-100983804D01*
X50804071Y-100989765D01*
X50827171Y-100998030D01*
X50849349Y-101008520D01*
X50870393Y-101021133D01*
X50890098Y-101035747D01*
X50908277Y-101052223D01*
X50924753Y-101070402D01*
X50939367Y-101090107D01*
X50951980Y-101111151D01*
X50962470Y-101133329D01*
X50970735Y-101156429D01*
X50976696Y-101180227D01*
X50980296Y-101204496D01*
X50981500Y-101229000D01*
X50981500Y-102479000D01*
X50980296Y-102503504D01*
X50976696Y-102527773D01*
X50970735Y-102551571D01*
X50962470Y-102574671D01*
X50951980Y-102596849D01*
X50939367Y-102617893D01*
X50924753Y-102637598D01*
X50908277Y-102655777D01*
X50890098Y-102672253D01*
X50870393Y-102686867D01*
X50849349Y-102699480D01*
X50827171Y-102709970D01*
X50804071Y-102718235D01*
X50780273Y-102724196D01*
X50756004Y-102727796D01*
X50731500Y-102729000D01*
X49806500Y-102729000D01*
X49781996Y-102727796D01*
X49757727Y-102724196D01*
X49733929Y-102718235D01*
X49710829Y-102709970D01*
X49688651Y-102699480D01*
X49667607Y-102686867D01*
X49647902Y-102672253D01*
X49629723Y-102655777D01*
X49613247Y-102637598D01*
X49598633Y-102617893D01*
X49586020Y-102596849D01*
X49575530Y-102574671D01*
X49567265Y-102551571D01*
X49561304Y-102527773D01*
X49557704Y-102503504D01*
X49556500Y-102479000D01*
X49556500Y-101229000D01*
X49557704Y-101204496D01*
X49561304Y-101180227D01*
X49567265Y-101156429D01*
X49575530Y-101133329D01*
X49586020Y-101111151D01*
X49598633Y-101090107D01*
X49613247Y-101070402D01*
X49629723Y-101052223D01*
X49647902Y-101035747D01*
X49667607Y-101021133D01*
X49688651Y-101008520D01*
X49710829Y-100998030D01*
X49733929Y-100989765D01*
X49757727Y-100983804D01*
X49781996Y-100980204D01*
X49806500Y-100979000D01*
X50731500Y-100979000D01*
X50756004Y-100980204D01*
G37*
G36*
X53843504Y-92644204D02*
G01*
X53867773Y-92647804D01*
X53891571Y-92653765D01*
X53914671Y-92662030D01*
X53936849Y-92672520D01*
X53957893Y-92685133D01*
X53977598Y-92699747D01*
X53995777Y-92716223D01*
X54012253Y-92734402D01*
X54026867Y-92754107D01*
X54039480Y-92775151D01*
X54049970Y-92797329D01*
X54058235Y-92820429D01*
X54064196Y-92844227D01*
X54067796Y-92868496D01*
X54069000Y-92893000D01*
X54069000Y-95168000D01*
X54067796Y-95192504D01*
X54064196Y-95216773D01*
X54058235Y-95240571D01*
X54049970Y-95263671D01*
X54039480Y-95285849D01*
X54026867Y-95306893D01*
X54012253Y-95326598D01*
X53995777Y-95344777D01*
X53977598Y-95361253D01*
X53957893Y-95375867D01*
X53936849Y-95388480D01*
X53914671Y-95398970D01*
X53891571Y-95407235D01*
X53867773Y-95413196D01*
X53843504Y-95416796D01*
X53819000Y-95418000D01*
X52719000Y-95418000D01*
X52694496Y-95416796D01*
X52670227Y-95413196D01*
X52646429Y-95407235D01*
X52623329Y-95398970D01*
X52601151Y-95388480D01*
X52580107Y-95375867D01*
X52560402Y-95361253D01*
X52542223Y-95344777D01*
X52525747Y-95326598D01*
X52511133Y-95306893D01*
X52498520Y-95285849D01*
X52488030Y-95263671D01*
X52479765Y-95240571D01*
X52473804Y-95216773D01*
X52470204Y-95192504D01*
X52469000Y-95168000D01*
X52469000Y-92893000D01*
X52470204Y-92868496D01*
X52473804Y-92844227D01*
X52479765Y-92820429D01*
X52488030Y-92797329D01*
X52498520Y-92775151D01*
X52511133Y-92754107D01*
X52525747Y-92734402D01*
X52542223Y-92716223D01*
X52560402Y-92699747D01*
X52580107Y-92685133D01*
X52601151Y-92672520D01*
X52623329Y-92662030D01*
X52646429Y-92653765D01*
X52670227Y-92647804D01*
X52694496Y-92644204D01*
X52719000Y-92643000D01*
X53819000Y-92643000D01*
X53843504Y-92644204D01*
G37*
G36*
X53843504Y-88519204D02*
G01*
X53867773Y-88522804D01*
X53891571Y-88528765D01*
X53914671Y-88537030D01*
X53936849Y-88547520D01*
X53957893Y-88560133D01*
X53977598Y-88574747D01*
X53995777Y-88591223D01*
X54012253Y-88609402D01*
X54026867Y-88629107D01*
X54039480Y-88650151D01*
X54049970Y-88672329D01*
X54058235Y-88695429D01*
X54064196Y-88719227D01*
X54067796Y-88743496D01*
X54069000Y-88768000D01*
X54069000Y-91043000D01*
X54067796Y-91067504D01*
X54064196Y-91091773D01*
X54058235Y-91115571D01*
X54049970Y-91138671D01*
X54039480Y-91160849D01*
X54026867Y-91181893D01*
X54012253Y-91201598D01*
X53995777Y-91219777D01*
X53977598Y-91236253D01*
X53957893Y-91250867D01*
X53936849Y-91263480D01*
X53914671Y-91273970D01*
X53891571Y-91282235D01*
X53867773Y-91288196D01*
X53843504Y-91291796D01*
X53819000Y-91293000D01*
X52719000Y-91293000D01*
X52694496Y-91291796D01*
X52670227Y-91288196D01*
X52646429Y-91282235D01*
X52623329Y-91273970D01*
X52601151Y-91263480D01*
X52580107Y-91250867D01*
X52560402Y-91236253D01*
X52542223Y-91219777D01*
X52525747Y-91201598D01*
X52511133Y-91181893D01*
X52498520Y-91160849D01*
X52488030Y-91138671D01*
X52479765Y-91115571D01*
X52473804Y-91091773D01*
X52470204Y-91067504D01*
X52469000Y-91043000D01*
X52469000Y-88768000D01*
X52470204Y-88743496D01*
X52473804Y-88719227D01*
X52479765Y-88695429D01*
X52488030Y-88672329D01*
X52498520Y-88650151D01*
X52511133Y-88629107D01*
X52525747Y-88609402D01*
X52542223Y-88591223D01*
X52560402Y-88574747D01*
X52580107Y-88560133D01*
X52601151Y-88547520D01*
X52623329Y-88537030D01*
X52646429Y-88528765D01*
X52670227Y-88522804D01*
X52694496Y-88519204D01*
X52719000Y-88518000D01*
X53819000Y-88518000D01*
X53843504Y-88519204D01*
G37*
G36*
X60289504Y-88519204D02*
G01*
X60313773Y-88522804D01*
X60337571Y-88528765D01*
X60360671Y-88537030D01*
X60382849Y-88547520D01*
X60403893Y-88560133D01*
X60423598Y-88574747D01*
X60441777Y-88591223D01*
X60458253Y-88609402D01*
X60472867Y-88629107D01*
X60485480Y-88650151D01*
X60495970Y-88672329D01*
X60504235Y-88695429D01*
X60510196Y-88719227D01*
X60513796Y-88743496D01*
X60515000Y-88768000D01*
X60515000Y-91043000D01*
X60513796Y-91067504D01*
X60510196Y-91091773D01*
X60504235Y-91115571D01*
X60495970Y-91138671D01*
X60485480Y-91160849D01*
X60472867Y-91181893D01*
X60458253Y-91201598D01*
X60441777Y-91219777D01*
X60423598Y-91236253D01*
X60403893Y-91250867D01*
X60382849Y-91263480D01*
X60360671Y-91273970D01*
X60337571Y-91282235D01*
X60313773Y-91288196D01*
X60289504Y-91291796D01*
X60265000Y-91293000D01*
X59165000Y-91293000D01*
X59140496Y-91291796D01*
X59116227Y-91288196D01*
X59092429Y-91282235D01*
X59069329Y-91273970D01*
X59047151Y-91263480D01*
X59026107Y-91250867D01*
X59006402Y-91236253D01*
X58988223Y-91219777D01*
X58971747Y-91201598D01*
X58957133Y-91181893D01*
X58944520Y-91160849D01*
X58934030Y-91138671D01*
X58925765Y-91115571D01*
X58919804Y-91091773D01*
X58916204Y-91067504D01*
X58915000Y-91043000D01*
X58915000Y-88768000D01*
X58916204Y-88743496D01*
X58919804Y-88719227D01*
X58925765Y-88695429D01*
X58934030Y-88672329D01*
X58944520Y-88650151D01*
X58957133Y-88629107D01*
X58971747Y-88609402D01*
X58988223Y-88591223D01*
X59006402Y-88574747D01*
X59026107Y-88560133D01*
X59047151Y-88547520D01*
X59069329Y-88537030D01*
X59092429Y-88528765D01*
X59116227Y-88522804D01*
X59140496Y-88519204D01*
X59165000Y-88518000D01*
X60265000Y-88518000D01*
X60289504Y-88519204D01*
G37*
G36*
X60289504Y-92644204D02*
G01*
X60313773Y-92647804D01*
X60337571Y-92653765D01*
X60360671Y-92662030D01*
X60382849Y-92672520D01*
X60403893Y-92685133D01*
X60423598Y-92699747D01*
X60441777Y-92716223D01*
X60458253Y-92734402D01*
X60472867Y-92754107D01*
X60485480Y-92775151D01*
X60495970Y-92797329D01*
X60504235Y-92820429D01*
X60510196Y-92844227D01*
X60513796Y-92868496D01*
X60515000Y-92893000D01*
X60515000Y-95168000D01*
X60513796Y-95192504D01*
X60510196Y-95216773D01*
X60504235Y-95240571D01*
X60495970Y-95263671D01*
X60485480Y-95285849D01*
X60472867Y-95306893D01*
X60458253Y-95326598D01*
X60441777Y-95344777D01*
X60423598Y-95361253D01*
X60403893Y-95375867D01*
X60382849Y-95388480D01*
X60360671Y-95398970D01*
X60337571Y-95407235D01*
X60313773Y-95413196D01*
X60289504Y-95416796D01*
X60265000Y-95418000D01*
X59165000Y-95418000D01*
X59140496Y-95416796D01*
X59116227Y-95413196D01*
X59092429Y-95407235D01*
X59069329Y-95398970D01*
X59047151Y-95388480D01*
X59026107Y-95375867D01*
X59006402Y-95361253D01*
X58988223Y-95344777D01*
X58971747Y-95326598D01*
X58957133Y-95306893D01*
X58944520Y-95285849D01*
X58934030Y-95263671D01*
X58925765Y-95240571D01*
X58919804Y-95216773D01*
X58916204Y-95192504D01*
X58915000Y-95168000D01*
X58915000Y-92893000D01*
X58916204Y-92868496D01*
X58919804Y-92844227D01*
X58925765Y-92820429D01*
X58934030Y-92797329D01*
X58944520Y-92775151D01*
X58957133Y-92754107D01*
X58971747Y-92734402D01*
X58988223Y-92716223D01*
X59006402Y-92699747D01*
X59026107Y-92685133D01*
X59047151Y-92672520D01*
X59069329Y-92662030D01*
X59092429Y-92653765D01*
X59116227Y-92647804D01*
X59140496Y-92644204D01*
X59165000Y-92643000D01*
X60265000Y-92643000D01*
X60289504Y-92644204D01*
G37*
M02*
