G04 #@! TF.GenerationSoftware,KiCad,Pcbnew,5.1.5-52549c5~84~ubuntu18.04.1*
G04 #@! TF.CreationDate,2020-07-04T19:59:31-04:00*
G04 #@! TF.ProjectId,kosmo_proto_smd,6b6f736d-6f5f-4707-926f-746f5f736d64,rev?*
G04 #@! TF.SameCoordinates,Original*
G04 #@! TF.FileFunction,Copper,L1,Top*
G04 #@! TF.FilePolarity,Positive*
%FSLAX46Y46*%
G04 Gerber Fmt 4.6, Leading zero omitted, Abs format (unit mm)*
G04 Created by KiCad (PCBNEW 5.1.5-52549c5~84~ubuntu18.04.1) date 2020-07-04 19:59:31*
%MOMM*%
%LPD*%
G04 APERTURE LIST*
%ADD10C,1.905000*%
%ADD11O,1.727200X1.727200*%
%ADD12R,1.727200X1.727200*%
%ADD13C,0.100000*%
%ADD14C,2.000000*%
%ADD15C,0.250000*%
%ADD16C,0.750000*%
%ADD17C,0.254000*%
G04 APERTURE END LIST*
D10*
X140970000Y-100330000D03*
X140970000Y-97790000D03*
X140957300Y-82524600D03*
X140957300Y-79984600D03*
X140957300Y-87604600D03*
X140957300Y-92684600D03*
X140957300Y-90144600D03*
X140957300Y-95224600D03*
X140957300Y-85064600D03*
X140957300Y-67284600D03*
X140957300Y-77444600D03*
X140957300Y-69824600D03*
X140957300Y-72364600D03*
X140957300Y-74904600D03*
X140995000Y-64773000D03*
X140970000Y-62230000D03*
X110477300Y-82524600D03*
X118110000Y-59690000D03*
X130797300Y-74904600D03*
X107937300Y-90144600D03*
X138455000Y-64773000D03*
X130797300Y-77444600D03*
X120637300Y-90144600D03*
X120637300Y-72364600D03*
X128257300Y-72364600D03*
X133337300Y-85064600D03*
X125717300Y-69824600D03*
X107937300Y-74904600D03*
X105397300Y-72364600D03*
X135877300Y-77444600D03*
X107950000Y-62230000D03*
X107937300Y-87604600D03*
X135877300Y-72364600D03*
X138417300Y-87604600D03*
X118097300Y-90144600D03*
X138417300Y-77444600D03*
X125717300Y-82524600D03*
X138430000Y-100330000D03*
X110477300Y-92684600D03*
X105397300Y-74904600D03*
X133337300Y-72364600D03*
X135877300Y-82524600D03*
X128257300Y-82524600D03*
X118110000Y-102870000D03*
X123177300Y-87604600D03*
X115557300Y-77444600D03*
X125755000Y-64773000D03*
X113017300Y-79984600D03*
X120650000Y-59690000D03*
X130810000Y-62230000D03*
X125730000Y-102870000D03*
X135877300Y-67284600D03*
X118097300Y-92684600D03*
X123177300Y-79984600D03*
X133350000Y-59690000D03*
X138417300Y-79984600D03*
X125717300Y-90144600D03*
X123177300Y-67284600D03*
X125717300Y-79984600D03*
X118097300Y-87604600D03*
X105435000Y-64773000D03*
X118097300Y-74904600D03*
X123190000Y-97790000D03*
X133337300Y-79984600D03*
X128295000Y-64773000D03*
X130797300Y-90144600D03*
X113030000Y-95250000D03*
X110490000Y-97790000D03*
X120637300Y-69824600D03*
X133337300Y-82524600D03*
X115557300Y-79984600D03*
X113017300Y-67284600D03*
X133337300Y-69824600D03*
X128257300Y-87604600D03*
X125717300Y-85064600D03*
X110477300Y-79984600D03*
X115570000Y-95250000D03*
X113017300Y-90144600D03*
X115557300Y-82524600D03*
X130835000Y-64773000D03*
X105397300Y-79984600D03*
X120650000Y-97790000D03*
X138417300Y-67284600D03*
X105397300Y-82524600D03*
X130797300Y-85064600D03*
X123190000Y-95250000D03*
X118097300Y-82524600D03*
X107937300Y-67284600D03*
X123177300Y-77444600D03*
X125730000Y-95250000D03*
X138417300Y-85064600D03*
X133350000Y-102870000D03*
X113017300Y-87604600D03*
X130797300Y-79984600D03*
X135877300Y-90144600D03*
X125730000Y-97790000D03*
X107950000Y-102870000D03*
X115557300Y-90144600D03*
X118110000Y-97790000D03*
X123190000Y-100330000D03*
X118097300Y-79984600D03*
X115595000Y-64773000D03*
X107950000Y-97790000D03*
X123177300Y-90144600D03*
X138417300Y-72364600D03*
X113017300Y-92684600D03*
X113030000Y-59690000D03*
X118097300Y-67284600D03*
X138417300Y-74904600D03*
X107937300Y-69824600D03*
X107937300Y-82524600D03*
X128257300Y-79984600D03*
X125717300Y-74904600D03*
X110490000Y-100330000D03*
X105397300Y-77444600D03*
X110490000Y-62230000D03*
X110515000Y-64773000D03*
X138430000Y-62230000D03*
X120637300Y-92684600D03*
X105410000Y-102870000D03*
X130810000Y-100330000D03*
X120650000Y-100330000D03*
X110490000Y-95250000D03*
X133350000Y-62230000D03*
X128270000Y-100330000D03*
X115570000Y-97790000D03*
X133337300Y-90144600D03*
X135890000Y-102870000D03*
X130797300Y-69824600D03*
X107937300Y-77444600D03*
X133337300Y-92684600D03*
X113017300Y-74904600D03*
X123177300Y-82524600D03*
X123177300Y-72364600D03*
X130797300Y-82524600D03*
X105410000Y-100330000D03*
X130797300Y-72364600D03*
X123215000Y-64773000D03*
X115570000Y-59690000D03*
X138430000Y-95250000D03*
X110477300Y-90144600D03*
X130797300Y-87604600D03*
X130810000Y-95250000D03*
X113017300Y-69824600D03*
X135890000Y-62230000D03*
X130810000Y-102870000D03*
X115557300Y-69824600D03*
X107937300Y-85064600D03*
X133337300Y-74904600D03*
X105397300Y-67284600D03*
X118110000Y-62230000D03*
X107950000Y-59690000D03*
X128270000Y-97790000D03*
X128270000Y-59690000D03*
X138430000Y-102870000D03*
X110477300Y-77444600D03*
X138417300Y-82524600D03*
X125717300Y-87604600D03*
X105397300Y-92684600D03*
X113017300Y-72364600D03*
X138417300Y-90144600D03*
X107950000Y-100330000D03*
X110477300Y-74904600D03*
X107937300Y-92684600D03*
X128257300Y-90144600D03*
X115557300Y-74904600D03*
X125717300Y-72364600D03*
X113017300Y-77444600D03*
X138417300Y-69824600D03*
X120637300Y-74904600D03*
X107950000Y-95250000D03*
X105397300Y-85064600D03*
X128257300Y-77444600D03*
X123190000Y-62230000D03*
X135890000Y-97790000D03*
X135877300Y-69824600D03*
X123177300Y-85064600D03*
X118097300Y-85064600D03*
X128270000Y-62230000D03*
X128257300Y-85064600D03*
X135890000Y-100330000D03*
X113017300Y-82524600D03*
X107937300Y-79984600D03*
X133375000Y-64773000D03*
X113030000Y-62230000D03*
X135915000Y-64773000D03*
X123177300Y-69824600D03*
X128270000Y-95250000D03*
X113030000Y-102870000D03*
X110477300Y-87604600D03*
X133350000Y-95250000D03*
X105397300Y-69824600D03*
X110477300Y-69824600D03*
X115570000Y-62230000D03*
X115557300Y-72364600D03*
X123190000Y-102870000D03*
X138430000Y-97790000D03*
X115557300Y-92684600D03*
X135877300Y-74904600D03*
X130810000Y-97790000D03*
X107975000Y-64773000D03*
X115557300Y-87604600D03*
X123177300Y-92684600D03*
X128257300Y-67284600D03*
X128270000Y-102870000D03*
X115570000Y-102870000D03*
X105397300Y-87604600D03*
X118110000Y-100330000D03*
X128257300Y-69824600D03*
X130797300Y-67284600D03*
X120650000Y-62230000D03*
X118097300Y-72364600D03*
X115557300Y-85064600D03*
X120637300Y-77444600D03*
X113030000Y-97790000D03*
X120650000Y-102870000D03*
X125730000Y-62230000D03*
X125717300Y-92684600D03*
X125717300Y-77444600D03*
X118097300Y-69824600D03*
X135877300Y-92684600D03*
X133350000Y-97790000D03*
X118097300Y-77444600D03*
X130810000Y-59690000D03*
X105410000Y-59690000D03*
X105410000Y-95250000D03*
X120637300Y-82524600D03*
X110477300Y-85064600D03*
X135877300Y-85064600D03*
X120637300Y-79984600D03*
X128257300Y-92684600D03*
X110477300Y-67284600D03*
X135890000Y-59690000D03*
X118110000Y-95250000D03*
X123190000Y-59690000D03*
X118135000Y-64773000D03*
X123177300Y-74904600D03*
X125717300Y-67284600D03*
X133337300Y-87604600D03*
X120637300Y-85064600D03*
X130797300Y-92684600D03*
X105397300Y-90144600D03*
X105410000Y-62230000D03*
X125730000Y-100330000D03*
X113055000Y-64773000D03*
X120650000Y-95250000D03*
X133350000Y-100330000D03*
X110490000Y-102870000D03*
X113030000Y-100330000D03*
X113017300Y-85064600D03*
X135877300Y-79984600D03*
X138430000Y-59690000D03*
X133337300Y-67284600D03*
X110490000Y-59690000D03*
X135877300Y-87604600D03*
X133337300Y-77444600D03*
X115570000Y-100330000D03*
X138417300Y-92684600D03*
X120637300Y-67284600D03*
X120675000Y-64773000D03*
X107937300Y-72364600D03*
X120637300Y-87604600D03*
X128257300Y-74904600D03*
X105410000Y-97790000D03*
X135890000Y-95250000D03*
X125730000Y-59690000D03*
X115557300Y-67284600D03*
X110477300Y-72364600D03*
X100317300Y-74904600D03*
X100317300Y-77444600D03*
X97777300Y-72364600D03*
X102857300Y-85064600D03*
X95237300Y-69824600D03*
X95237300Y-82524600D03*
X102857300Y-72364600D03*
X97777300Y-82524600D03*
X95275000Y-64773000D03*
X100330000Y-62230000D03*
X95250000Y-102870000D03*
X102870000Y-59690000D03*
X95237300Y-90144600D03*
X95237300Y-79984600D03*
X102857300Y-79984600D03*
X97815000Y-64773000D03*
X100317300Y-90144600D03*
X102857300Y-82524600D03*
X102857300Y-69824600D03*
X97777300Y-87604600D03*
X95237300Y-85064600D03*
X100355000Y-64773000D03*
X100317300Y-85064600D03*
X95250000Y-95250000D03*
X102870000Y-102870000D03*
X100317300Y-79984600D03*
X95250000Y-97790000D03*
X97777300Y-79984600D03*
X95237300Y-74904600D03*
X100330000Y-100330000D03*
X102870000Y-62230000D03*
X97790000Y-100330000D03*
X102857300Y-90144600D03*
X100317300Y-69824600D03*
X102857300Y-92684600D03*
X100317300Y-82524600D03*
X100317300Y-72364600D03*
X100317300Y-87604600D03*
X100330000Y-95250000D03*
X100330000Y-102870000D03*
X102857300Y-74904600D03*
X97790000Y-97790000D03*
X97790000Y-59690000D03*
X95237300Y-87604600D03*
X97777300Y-90144600D03*
X95237300Y-72364600D03*
X97777300Y-77444600D03*
X97790000Y-62230000D03*
X97777300Y-85064600D03*
X102895000Y-64773000D03*
X97790000Y-95250000D03*
X102870000Y-95250000D03*
X100330000Y-97790000D03*
X97777300Y-67284600D03*
X97790000Y-102870000D03*
X97777300Y-69824600D03*
X100317300Y-67284600D03*
X95250000Y-62230000D03*
X95237300Y-92684600D03*
X95237300Y-77444600D03*
X102870000Y-97790000D03*
X100330000Y-59690000D03*
X97777300Y-92684600D03*
X95237300Y-67284600D03*
X102857300Y-87604600D03*
X100317300Y-92684600D03*
X95250000Y-100330000D03*
X102870000Y-100330000D03*
X102857300Y-67284600D03*
X102857300Y-77444600D03*
X97777300Y-74904600D03*
X95250000Y-59690000D03*
X87630000Y-59690000D03*
X90157300Y-90144600D03*
X90157300Y-72364600D03*
X87617300Y-90144600D03*
X87630000Y-102870000D03*
X92697300Y-87604600D03*
X85077300Y-77444600D03*
X90170000Y-59690000D03*
X87617300Y-92684600D03*
X92697300Y-79984600D03*
X92697300Y-67284600D03*
X87617300Y-87604600D03*
X87617300Y-74904600D03*
X92710000Y-97790000D03*
X90157300Y-69824600D03*
X85077300Y-79984600D03*
X85090000Y-95250000D03*
X85077300Y-82524600D03*
X90170000Y-97790000D03*
X92710000Y-95250000D03*
X87617300Y-82524600D03*
X92697300Y-77444600D03*
X85077300Y-90144600D03*
X87630000Y-97790000D03*
X92710000Y-100330000D03*
X87617300Y-79984600D03*
X85115000Y-64773000D03*
X92697300Y-90144600D03*
X87617300Y-67284600D03*
X90157300Y-92684600D03*
X90170000Y-100330000D03*
X85090000Y-97790000D03*
X92697300Y-82524600D03*
X92697300Y-72364600D03*
X92735000Y-64773000D03*
X85090000Y-59690000D03*
X85077300Y-69824600D03*
X87630000Y-62230000D03*
X85077300Y-74904600D03*
X90157300Y-74904600D03*
X92710000Y-62230000D03*
X92697300Y-85064600D03*
X87617300Y-85064600D03*
X92697300Y-69824600D03*
X85090000Y-62230000D03*
X85077300Y-72364600D03*
X92710000Y-102870000D03*
X85077300Y-92684600D03*
X85077300Y-87604600D03*
X92697300Y-92684600D03*
X85090000Y-102870000D03*
X87630000Y-100330000D03*
X90170000Y-62230000D03*
X87617300Y-72364600D03*
X85077300Y-85064600D03*
X90157300Y-77444600D03*
X90170000Y-102870000D03*
X87617300Y-69824600D03*
X87617300Y-77444600D03*
X90157300Y-82524600D03*
X90157300Y-79984600D03*
X87630000Y-95250000D03*
X92710000Y-59690000D03*
X87655000Y-64773000D03*
X92697300Y-74904600D03*
X90157300Y-85064600D03*
X90170000Y-95250000D03*
X85090000Y-100330000D03*
X90157300Y-67284600D03*
X90195000Y-64773000D03*
X90157300Y-87604600D03*
X85077300Y-67284600D03*
X79997300Y-82524600D03*
X77457300Y-90144600D03*
X77457300Y-74904600D03*
X74917300Y-72364600D03*
X77470000Y-62230000D03*
X77457300Y-87604600D03*
X79997300Y-92684600D03*
X74917300Y-74904600D03*
X82537300Y-79984600D03*
X74955000Y-64773000D03*
X82550000Y-95250000D03*
X80010000Y-97790000D03*
X82537300Y-67284600D03*
X79997300Y-79984600D03*
X82537300Y-90144600D03*
X74917300Y-79984600D03*
X74917300Y-82524600D03*
X77457300Y-67284600D03*
X82537300Y-87604600D03*
X77470000Y-102870000D03*
X77470000Y-97790000D03*
X82537300Y-92684600D03*
X82550000Y-59690000D03*
X77457300Y-69824600D03*
X77457300Y-82524600D03*
X80010000Y-100330000D03*
X74917300Y-77444600D03*
X80010000Y-62230000D03*
X80035000Y-64773000D03*
X74930000Y-102870000D03*
X80010000Y-95250000D03*
X77457300Y-77444600D03*
X82537300Y-74904600D03*
X74930000Y-100330000D03*
X79997300Y-90144600D03*
X82537300Y-69824600D03*
X77457300Y-85064600D03*
X74917300Y-67284600D03*
X77470000Y-59690000D03*
X79997300Y-77444600D03*
X74917300Y-92684600D03*
X82537300Y-72364600D03*
X77470000Y-100330000D03*
X79997300Y-74904600D03*
X77457300Y-92684600D03*
X82537300Y-77444600D03*
X77470000Y-95250000D03*
X74917300Y-85064600D03*
X82537300Y-82524600D03*
X77457300Y-79984600D03*
X82550000Y-62230000D03*
X82550000Y-102870000D03*
X79997300Y-87604600D03*
X74917300Y-69824600D03*
X79997300Y-69824600D03*
X77495000Y-64773000D03*
X74917300Y-87604600D03*
X82550000Y-97790000D03*
X74930000Y-59690000D03*
X74930000Y-95250000D03*
X79997300Y-85064600D03*
X79997300Y-67284600D03*
X74917300Y-90144600D03*
X74930000Y-62230000D03*
X82575000Y-64773000D03*
X80010000Y-102870000D03*
X82550000Y-100330000D03*
X82537300Y-85064600D03*
X80010000Y-59690000D03*
X77457300Y-72364600D03*
X74930000Y-97790000D03*
X79997300Y-72364600D03*
X72377300Y-82524600D03*
X72377300Y-92684600D03*
X72390000Y-97790000D03*
X72377300Y-79984600D03*
X72390000Y-100330000D03*
X72390000Y-62230000D03*
X72415000Y-64773000D03*
X72390000Y-95250000D03*
X72377300Y-90144600D03*
X72377300Y-77444600D03*
X72377300Y-74904600D03*
X72377300Y-87604600D03*
X72377300Y-69824600D03*
X72377300Y-85064600D03*
X72377300Y-67284600D03*
X72390000Y-102870000D03*
X72390000Y-59690000D03*
X72377300Y-72364600D03*
X69837300Y-90144600D03*
X69837300Y-74904600D03*
X69850000Y-62230000D03*
X69837300Y-87604600D03*
X69837300Y-67284600D03*
X69850000Y-102870000D03*
X69850000Y-97790000D03*
X69837300Y-69824600D03*
X69837300Y-82524600D03*
X69837300Y-77444600D03*
X69837300Y-85064600D03*
X69850000Y-59690000D03*
X69850000Y-100330000D03*
X69837300Y-92684600D03*
X69850000Y-95250000D03*
X69837300Y-79984600D03*
X69875000Y-64773000D03*
X69837300Y-72364600D03*
X67297300Y-72364600D03*
X67297300Y-74904600D03*
X67335000Y-64773000D03*
X67297300Y-79984600D03*
X67297300Y-82524600D03*
X67297300Y-77444600D03*
X67310000Y-102870000D03*
X67310000Y-100330000D03*
X67297300Y-67284600D03*
X67297300Y-92684600D03*
X67297300Y-85064600D03*
X67297300Y-69824600D03*
X67297300Y-87604600D03*
X67310000Y-59690000D03*
X67310000Y-95250000D03*
X67297300Y-90144600D03*
X67310000Y-62230000D03*
X67310000Y-97790000D03*
X64757300Y-67284600D03*
X64757300Y-69824600D03*
X64757300Y-72364600D03*
X64757300Y-74904600D03*
X64757300Y-77444600D03*
X64757300Y-79984600D03*
X64757300Y-82524600D03*
X64757300Y-85064600D03*
X64757300Y-87604600D03*
X64757300Y-90144600D03*
X64757300Y-92684600D03*
D11*
X55245000Y-62230000D03*
X57785000Y-62230000D03*
X55245000Y-64770000D03*
X57785000Y-64770000D03*
X55245000Y-67310000D03*
X57785000Y-67310000D03*
X55245000Y-69850000D03*
X57785000Y-69850000D03*
X55245000Y-72390000D03*
D12*
X57785000Y-72390000D03*
G04 #@! TA.AperFunction,SMDPad,CuDef*
D13*
G36*
X57227004Y-97094204D02*
G01*
X57251273Y-97097804D01*
X57275071Y-97103765D01*
X57298171Y-97112030D01*
X57320349Y-97122520D01*
X57341393Y-97135133D01*
X57361098Y-97149747D01*
X57379277Y-97166223D01*
X57395753Y-97184402D01*
X57410367Y-97204107D01*
X57422980Y-97225151D01*
X57433470Y-97247329D01*
X57441735Y-97270429D01*
X57447696Y-97294227D01*
X57451296Y-97318496D01*
X57452500Y-97343000D01*
X57452500Y-98593000D01*
X57451296Y-98617504D01*
X57447696Y-98641773D01*
X57441735Y-98665571D01*
X57433470Y-98688671D01*
X57422980Y-98710849D01*
X57410367Y-98731893D01*
X57395753Y-98751598D01*
X57379277Y-98769777D01*
X57361098Y-98786253D01*
X57341393Y-98800867D01*
X57320349Y-98813480D01*
X57298171Y-98823970D01*
X57275071Y-98832235D01*
X57251273Y-98838196D01*
X57227004Y-98841796D01*
X57202500Y-98843000D01*
X56277500Y-98843000D01*
X56252996Y-98841796D01*
X56228727Y-98838196D01*
X56204929Y-98832235D01*
X56181829Y-98823970D01*
X56159651Y-98813480D01*
X56138607Y-98800867D01*
X56118902Y-98786253D01*
X56100723Y-98769777D01*
X56084247Y-98751598D01*
X56069633Y-98731893D01*
X56057020Y-98710849D01*
X56046530Y-98688671D01*
X56038265Y-98665571D01*
X56032304Y-98641773D01*
X56028704Y-98617504D01*
X56027500Y-98593000D01*
X56027500Y-97343000D01*
X56028704Y-97318496D01*
X56032304Y-97294227D01*
X56038265Y-97270429D01*
X56046530Y-97247329D01*
X56057020Y-97225151D01*
X56069633Y-97204107D01*
X56084247Y-97184402D01*
X56100723Y-97166223D01*
X56118902Y-97149747D01*
X56138607Y-97135133D01*
X56159651Y-97122520D01*
X56181829Y-97112030D01*
X56204929Y-97103765D01*
X56228727Y-97097804D01*
X56252996Y-97094204D01*
X56277500Y-97093000D01*
X57202500Y-97093000D01*
X57227004Y-97094204D01*
G37*
G04 #@! TD.AperFunction*
G04 #@! TA.AperFunction,SMDPad,CuDef*
G36*
X60202004Y-97094204D02*
G01*
X60226273Y-97097804D01*
X60250071Y-97103765D01*
X60273171Y-97112030D01*
X60295349Y-97122520D01*
X60316393Y-97135133D01*
X60336098Y-97149747D01*
X60354277Y-97166223D01*
X60370753Y-97184402D01*
X60385367Y-97204107D01*
X60397980Y-97225151D01*
X60408470Y-97247329D01*
X60416735Y-97270429D01*
X60422696Y-97294227D01*
X60426296Y-97318496D01*
X60427500Y-97343000D01*
X60427500Y-98593000D01*
X60426296Y-98617504D01*
X60422696Y-98641773D01*
X60416735Y-98665571D01*
X60408470Y-98688671D01*
X60397980Y-98710849D01*
X60385367Y-98731893D01*
X60370753Y-98751598D01*
X60354277Y-98769777D01*
X60336098Y-98786253D01*
X60316393Y-98800867D01*
X60295349Y-98813480D01*
X60273171Y-98823970D01*
X60250071Y-98832235D01*
X60226273Y-98838196D01*
X60202004Y-98841796D01*
X60177500Y-98843000D01*
X59252500Y-98843000D01*
X59227996Y-98841796D01*
X59203727Y-98838196D01*
X59179929Y-98832235D01*
X59156829Y-98823970D01*
X59134651Y-98813480D01*
X59113607Y-98800867D01*
X59093902Y-98786253D01*
X59075723Y-98769777D01*
X59059247Y-98751598D01*
X59044633Y-98731893D01*
X59032020Y-98710849D01*
X59021530Y-98688671D01*
X59013265Y-98665571D01*
X59007304Y-98641773D01*
X59003704Y-98617504D01*
X59002500Y-98593000D01*
X59002500Y-97343000D01*
X59003704Y-97318496D01*
X59007304Y-97294227D01*
X59013265Y-97270429D01*
X59021530Y-97247329D01*
X59032020Y-97225151D01*
X59044633Y-97204107D01*
X59059247Y-97184402D01*
X59075723Y-97166223D01*
X59093902Y-97149747D01*
X59113607Y-97135133D01*
X59134651Y-97122520D01*
X59156829Y-97112030D01*
X59179929Y-97103765D01*
X59203727Y-97097804D01*
X59227996Y-97094204D01*
X59252500Y-97093000D01*
X60177500Y-97093000D01*
X60202004Y-97094204D01*
G37*
G04 #@! TD.AperFunction*
G04 #@! TA.AperFunction,SMDPad,CuDef*
G36*
X50756004Y-97094204D02*
G01*
X50780273Y-97097804D01*
X50804071Y-97103765D01*
X50827171Y-97112030D01*
X50849349Y-97122520D01*
X50870393Y-97135133D01*
X50890098Y-97149747D01*
X50908277Y-97166223D01*
X50924753Y-97184402D01*
X50939367Y-97204107D01*
X50951980Y-97225151D01*
X50962470Y-97247329D01*
X50970735Y-97270429D01*
X50976696Y-97294227D01*
X50980296Y-97318496D01*
X50981500Y-97343000D01*
X50981500Y-98593000D01*
X50980296Y-98617504D01*
X50976696Y-98641773D01*
X50970735Y-98665571D01*
X50962470Y-98688671D01*
X50951980Y-98710849D01*
X50939367Y-98731893D01*
X50924753Y-98751598D01*
X50908277Y-98769777D01*
X50890098Y-98786253D01*
X50870393Y-98800867D01*
X50849349Y-98813480D01*
X50827171Y-98823970D01*
X50804071Y-98832235D01*
X50780273Y-98838196D01*
X50756004Y-98841796D01*
X50731500Y-98843000D01*
X49806500Y-98843000D01*
X49781996Y-98841796D01*
X49757727Y-98838196D01*
X49733929Y-98832235D01*
X49710829Y-98823970D01*
X49688651Y-98813480D01*
X49667607Y-98800867D01*
X49647902Y-98786253D01*
X49629723Y-98769777D01*
X49613247Y-98751598D01*
X49598633Y-98731893D01*
X49586020Y-98710849D01*
X49575530Y-98688671D01*
X49567265Y-98665571D01*
X49561304Y-98641773D01*
X49557704Y-98617504D01*
X49556500Y-98593000D01*
X49556500Y-97343000D01*
X49557704Y-97318496D01*
X49561304Y-97294227D01*
X49567265Y-97270429D01*
X49575530Y-97247329D01*
X49586020Y-97225151D01*
X49598633Y-97204107D01*
X49613247Y-97184402D01*
X49629723Y-97166223D01*
X49647902Y-97149747D01*
X49667607Y-97135133D01*
X49688651Y-97122520D01*
X49710829Y-97112030D01*
X49733929Y-97103765D01*
X49757727Y-97097804D01*
X49781996Y-97094204D01*
X49806500Y-97093000D01*
X50731500Y-97093000D01*
X50756004Y-97094204D01*
G37*
G04 #@! TD.AperFunction*
G04 #@! TA.AperFunction,SMDPad,CuDef*
G36*
X53731004Y-97094204D02*
G01*
X53755273Y-97097804D01*
X53779071Y-97103765D01*
X53802171Y-97112030D01*
X53824349Y-97122520D01*
X53845393Y-97135133D01*
X53865098Y-97149747D01*
X53883277Y-97166223D01*
X53899753Y-97184402D01*
X53914367Y-97204107D01*
X53926980Y-97225151D01*
X53937470Y-97247329D01*
X53945735Y-97270429D01*
X53951696Y-97294227D01*
X53955296Y-97318496D01*
X53956500Y-97343000D01*
X53956500Y-98593000D01*
X53955296Y-98617504D01*
X53951696Y-98641773D01*
X53945735Y-98665571D01*
X53937470Y-98688671D01*
X53926980Y-98710849D01*
X53914367Y-98731893D01*
X53899753Y-98751598D01*
X53883277Y-98769777D01*
X53865098Y-98786253D01*
X53845393Y-98800867D01*
X53824349Y-98813480D01*
X53802171Y-98823970D01*
X53779071Y-98832235D01*
X53755273Y-98838196D01*
X53731004Y-98841796D01*
X53706500Y-98843000D01*
X52781500Y-98843000D01*
X52756996Y-98841796D01*
X52732727Y-98838196D01*
X52708929Y-98832235D01*
X52685829Y-98823970D01*
X52663651Y-98813480D01*
X52642607Y-98800867D01*
X52622902Y-98786253D01*
X52604723Y-98769777D01*
X52588247Y-98751598D01*
X52573633Y-98731893D01*
X52561020Y-98710849D01*
X52550530Y-98688671D01*
X52542265Y-98665571D01*
X52536304Y-98641773D01*
X52532704Y-98617504D01*
X52531500Y-98593000D01*
X52531500Y-97343000D01*
X52532704Y-97318496D01*
X52536304Y-97294227D01*
X52542265Y-97270429D01*
X52550530Y-97247329D01*
X52561020Y-97225151D01*
X52573633Y-97204107D01*
X52588247Y-97184402D01*
X52604723Y-97166223D01*
X52622902Y-97149747D01*
X52642607Y-97135133D01*
X52663651Y-97122520D01*
X52685829Y-97112030D01*
X52708929Y-97103765D01*
X52732727Y-97097804D01*
X52756996Y-97094204D01*
X52781500Y-97093000D01*
X53706500Y-97093000D01*
X53731004Y-97094204D01*
G37*
G04 #@! TD.AperFunction*
D10*
X64770000Y-59690000D03*
X64770000Y-102870000D03*
X64795000Y-64773000D03*
X64770000Y-97790000D03*
X64770000Y-62230000D03*
X64770000Y-100330000D03*
D14*
X53269000Y-81468000D03*
X53269000Y-86468000D03*
X59715000Y-81468000D03*
X59715000Y-86468000D03*
G04 #@! TA.AperFunction,SMDPad,CuDef*
D13*
G36*
X57227004Y-100980204D02*
G01*
X57251273Y-100983804D01*
X57275071Y-100989765D01*
X57298171Y-100998030D01*
X57320349Y-101008520D01*
X57341393Y-101021133D01*
X57361098Y-101035747D01*
X57379277Y-101052223D01*
X57395753Y-101070402D01*
X57410367Y-101090107D01*
X57422980Y-101111151D01*
X57433470Y-101133329D01*
X57441735Y-101156429D01*
X57447696Y-101180227D01*
X57451296Y-101204496D01*
X57452500Y-101229000D01*
X57452500Y-102479000D01*
X57451296Y-102503504D01*
X57447696Y-102527773D01*
X57441735Y-102551571D01*
X57433470Y-102574671D01*
X57422980Y-102596849D01*
X57410367Y-102617893D01*
X57395753Y-102637598D01*
X57379277Y-102655777D01*
X57361098Y-102672253D01*
X57341393Y-102686867D01*
X57320349Y-102699480D01*
X57298171Y-102709970D01*
X57275071Y-102718235D01*
X57251273Y-102724196D01*
X57227004Y-102727796D01*
X57202500Y-102729000D01*
X56277500Y-102729000D01*
X56252996Y-102727796D01*
X56228727Y-102724196D01*
X56204929Y-102718235D01*
X56181829Y-102709970D01*
X56159651Y-102699480D01*
X56138607Y-102686867D01*
X56118902Y-102672253D01*
X56100723Y-102655777D01*
X56084247Y-102637598D01*
X56069633Y-102617893D01*
X56057020Y-102596849D01*
X56046530Y-102574671D01*
X56038265Y-102551571D01*
X56032304Y-102527773D01*
X56028704Y-102503504D01*
X56027500Y-102479000D01*
X56027500Y-101229000D01*
X56028704Y-101204496D01*
X56032304Y-101180227D01*
X56038265Y-101156429D01*
X56046530Y-101133329D01*
X56057020Y-101111151D01*
X56069633Y-101090107D01*
X56084247Y-101070402D01*
X56100723Y-101052223D01*
X56118902Y-101035747D01*
X56138607Y-101021133D01*
X56159651Y-101008520D01*
X56181829Y-100998030D01*
X56204929Y-100989765D01*
X56228727Y-100983804D01*
X56252996Y-100980204D01*
X56277500Y-100979000D01*
X57202500Y-100979000D01*
X57227004Y-100980204D01*
G37*
G04 #@! TD.AperFunction*
G04 #@! TA.AperFunction,SMDPad,CuDef*
G36*
X60202004Y-100980204D02*
G01*
X60226273Y-100983804D01*
X60250071Y-100989765D01*
X60273171Y-100998030D01*
X60295349Y-101008520D01*
X60316393Y-101021133D01*
X60336098Y-101035747D01*
X60354277Y-101052223D01*
X60370753Y-101070402D01*
X60385367Y-101090107D01*
X60397980Y-101111151D01*
X60408470Y-101133329D01*
X60416735Y-101156429D01*
X60422696Y-101180227D01*
X60426296Y-101204496D01*
X60427500Y-101229000D01*
X60427500Y-102479000D01*
X60426296Y-102503504D01*
X60422696Y-102527773D01*
X60416735Y-102551571D01*
X60408470Y-102574671D01*
X60397980Y-102596849D01*
X60385367Y-102617893D01*
X60370753Y-102637598D01*
X60354277Y-102655777D01*
X60336098Y-102672253D01*
X60316393Y-102686867D01*
X60295349Y-102699480D01*
X60273171Y-102709970D01*
X60250071Y-102718235D01*
X60226273Y-102724196D01*
X60202004Y-102727796D01*
X60177500Y-102729000D01*
X59252500Y-102729000D01*
X59227996Y-102727796D01*
X59203727Y-102724196D01*
X59179929Y-102718235D01*
X59156829Y-102709970D01*
X59134651Y-102699480D01*
X59113607Y-102686867D01*
X59093902Y-102672253D01*
X59075723Y-102655777D01*
X59059247Y-102637598D01*
X59044633Y-102617893D01*
X59032020Y-102596849D01*
X59021530Y-102574671D01*
X59013265Y-102551571D01*
X59007304Y-102527773D01*
X59003704Y-102503504D01*
X59002500Y-102479000D01*
X59002500Y-101229000D01*
X59003704Y-101204496D01*
X59007304Y-101180227D01*
X59013265Y-101156429D01*
X59021530Y-101133329D01*
X59032020Y-101111151D01*
X59044633Y-101090107D01*
X59059247Y-101070402D01*
X59075723Y-101052223D01*
X59093902Y-101035747D01*
X59113607Y-101021133D01*
X59134651Y-101008520D01*
X59156829Y-100998030D01*
X59179929Y-100989765D01*
X59203727Y-100983804D01*
X59227996Y-100980204D01*
X59252500Y-100979000D01*
X60177500Y-100979000D01*
X60202004Y-100980204D01*
G37*
G04 #@! TD.AperFunction*
G04 #@! TA.AperFunction,SMDPad,CuDef*
G36*
X53731004Y-100980204D02*
G01*
X53755273Y-100983804D01*
X53779071Y-100989765D01*
X53802171Y-100998030D01*
X53824349Y-101008520D01*
X53845393Y-101021133D01*
X53865098Y-101035747D01*
X53883277Y-101052223D01*
X53899753Y-101070402D01*
X53914367Y-101090107D01*
X53926980Y-101111151D01*
X53937470Y-101133329D01*
X53945735Y-101156429D01*
X53951696Y-101180227D01*
X53955296Y-101204496D01*
X53956500Y-101229000D01*
X53956500Y-102479000D01*
X53955296Y-102503504D01*
X53951696Y-102527773D01*
X53945735Y-102551571D01*
X53937470Y-102574671D01*
X53926980Y-102596849D01*
X53914367Y-102617893D01*
X53899753Y-102637598D01*
X53883277Y-102655777D01*
X53865098Y-102672253D01*
X53845393Y-102686867D01*
X53824349Y-102699480D01*
X53802171Y-102709970D01*
X53779071Y-102718235D01*
X53755273Y-102724196D01*
X53731004Y-102727796D01*
X53706500Y-102729000D01*
X52781500Y-102729000D01*
X52756996Y-102727796D01*
X52732727Y-102724196D01*
X52708929Y-102718235D01*
X52685829Y-102709970D01*
X52663651Y-102699480D01*
X52642607Y-102686867D01*
X52622902Y-102672253D01*
X52604723Y-102655777D01*
X52588247Y-102637598D01*
X52573633Y-102617893D01*
X52561020Y-102596849D01*
X52550530Y-102574671D01*
X52542265Y-102551571D01*
X52536304Y-102527773D01*
X52532704Y-102503504D01*
X52531500Y-102479000D01*
X52531500Y-101229000D01*
X52532704Y-101204496D01*
X52536304Y-101180227D01*
X52542265Y-101156429D01*
X52550530Y-101133329D01*
X52561020Y-101111151D01*
X52573633Y-101090107D01*
X52588247Y-101070402D01*
X52604723Y-101052223D01*
X52622902Y-101035747D01*
X52642607Y-101021133D01*
X52663651Y-101008520D01*
X52685829Y-100998030D01*
X52708929Y-100989765D01*
X52732727Y-100983804D01*
X52756996Y-100980204D01*
X52781500Y-100979000D01*
X53706500Y-100979000D01*
X53731004Y-100980204D01*
G37*
G04 #@! TD.AperFunction*
G04 #@! TA.AperFunction,SMDPad,CuDef*
G36*
X50756004Y-100980204D02*
G01*
X50780273Y-100983804D01*
X50804071Y-100989765D01*
X50827171Y-100998030D01*
X50849349Y-101008520D01*
X50870393Y-101021133D01*
X50890098Y-101035747D01*
X50908277Y-101052223D01*
X50924753Y-101070402D01*
X50939367Y-101090107D01*
X50951980Y-101111151D01*
X50962470Y-101133329D01*
X50970735Y-101156429D01*
X50976696Y-101180227D01*
X50980296Y-101204496D01*
X50981500Y-101229000D01*
X50981500Y-102479000D01*
X50980296Y-102503504D01*
X50976696Y-102527773D01*
X50970735Y-102551571D01*
X50962470Y-102574671D01*
X50951980Y-102596849D01*
X50939367Y-102617893D01*
X50924753Y-102637598D01*
X50908277Y-102655777D01*
X50890098Y-102672253D01*
X50870393Y-102686867D01*
X50849349Y-102699480D01*
X50827171Y-102709970D01*
X50804071Y-102718235D01*
X50780273Y-102724196D01*
X50756004Y-102727796D01*
X50731500Y-102729000D01*
X49806500Y-102729000D01*
X49781996Y-102727796D01*
X49757727Y-102724196D01*
X49733929Y-102718235D01*
X49710829Y-102709970D01*
X49688651Y-102699480D01*
X49667607Y-102686867D01*
X49647902Y-102672253D01*
X49629723Y-102655777D01*
X49613247Y-102637598D01*
X49598633Y-102617893D01*
X49586020Y-102596849D01*
X49575530Y-102574671D01*
X49567265Y-102551571D01*
X49561304Y-102527773D01*
X49557704Y-102503504D01*
X49556500Y-102479000D01*
X49556500Y-101229000D01*
X49557704Y-101204496D01*
X49561304Y-101180227D01*
X49567265Y-101156429D01*
X49575530Y-101133329D01*
X49586020Y-101111151D01*
X49598633Y-101090107D01*
X49613247Y-101070402D01*
X49629723Y-101052223D01*
X49647902Y-101035747D01*
X49667607Y-101021133D01*
X49688651Y-101008520D01*
X49710829Y-100998030D01*
X49733929Y-100989765D01*
X49757727Y-100983804D01*
X49781996Y-100980204D01*
X49806500Y-100979000D01*
X50731500Y-100979000D01*
X50756004Y-100980204D01*
G37*
G04 #@! TD.AperFunction*
G04 #@! TA.AperFunction,SMDPad,CuDef*
G36*
X53843504Y-92644204D02*
G01*
X53867773Y-92647804D01*
X53891571Y-92653765D01*
X53914671Y-92662030D01*
X53936849Y-92672520D01*
X53957893Y-92685133D01*
X53977598Y-92699747D01*
X53995777Y-92716223D01*
X54012253Y-92734402D01*
X54026867Y-92754107D01*
X54039480Y-92775151D01*
X54049970Y-92797329D01*
X54058235Y-92820429D01*
X54064196Y-92844227D01*
X54067796Y-92868496D01*
X54069000Y-92893000D01*
X54069000Y-95168000D01*
X54067796Y-95192504D01*
X54064196Y-95216773D01*
X54058235Y-95240571D01*
X54049970Y-95263671D01*
X54039480Y-95285849D01*
X54026867Y-95306893D01*
X54012253Y-95326598D01*
X53995777Y-95344777D01*
X53977598Y-95361253D01*
X53957893Y-95375867D01*
X53936849Y-95388480D01*
X53914671Y-95398970D01*
X53891571Y-95407235D01*
X53867773Y-95413196D01*
X53843504Y-95416796D01*
X53819000Y-95418000D01*
X52719000Y-95418000D01*
X52694496Y-95416796D01*
X52670227Y-95413196D01*
X52646429Y-95407235D01*
X52623329Y-95398970D01*
X52601151Y-95388480D01*
X52580107Y-95375867D01*
X52560402Y-95361253D01*
X52542223Y-95344777D01*
X52525747Y-95326598D01*
X52511133Y-95306893D01*
X52498520Y-95285849D01*
X52488030Y-95263671D01*
X52479765Y-95240571D01*
X52473804Y-95216773D01*
X52470204Y-95192504D01*
X52469000Y-95168000D01*
X52469000Y-92893000D01*
X52470204Y-92868496D01*
X52473804Y-92844227D01*
X52479765Y-92820429D01*
X52488030Y-92797329D01*
X52498520Y-92775151D01*
X52511133Y-92754107D01*
X52525747Y-92734402D01*
X52542223Y-92716223D01*
X52560402Y-92699747D01*
X52580107Y-92685133D01*
X52601151Y-92672520D01*
X52623329Y-92662030D01*
X52646429Y-92653765D01*
X52670227Y-92647804D01*
X52694496Y-92644204D01*
X52719000Y-92643000D01*
X53819000Y-92643000D01*
X53843504Y-92644204D01*
G37*
G04 #@! TD.AperFunction*
G04 #@! TA.AperFunction,SMDPad,CuDef*
G36*
X53843504Y-88519204D02*
G01*
X53867773Y-88522804D01*
X53891571Y-88528765D01*
X53914671Y-88537030D01*
X53936849Y-88547520D01*
X53957893Y-88560133D01*
X53977598Y-88574747D01*
X53995777Y-88591223D01*
X54012253Y-88609402D01*
X54026867Y-88629107D01*
X54039480Y-88650151D01*
X54049970Y-88672329D01*
X54058235Y-88695429D01*
X54064196Y-88719227D01*
X54067796Y-88743496D01*
X54069000Y-88768000D01*
X54069000Y-91043000D01*
X54067796Y-91067504D01*
X54064196Y-91091773D01*
X54058235Y-91115571D01*
X54049970Y-91138671D01*
X54039480Y-91160849D01*
X54026867Y-91181893D01*
X54012253Y-91201598D01*
X53995777Y-91219777D01*
X53977598Y-91236253D01*
X53957893Y-91250867D01*
X53936849Y-91263480D01*
X53914671Y-91273970D01*
X53891571Y-91282235D01*
X53867773Y-91288196D01*
X53843504Y-91291796D01*
X53819000Y-91293000D01*
X52719000Y-91293000D01*
X52694496Y-91291796D01*
X52670227Y-91288196D01*
X52646429Y-91282235D01*
X52623329Y-91273970D01*
X52601151Y-91263480D01*
X52580107Y-91250867D01*
X52560402Y-91236253D01*
X52542223Y-91219777D01*
X52525747Y-91201598D01*
X52511133Y-91181893D01*
X52498520Y-91160849D01*
X52488030Y-91138671D01*
X52479765Y-91115571D01*
X52473804Y-91091773D01*
X52470204Y-91067504D01*
X52469000Y-91043000D01*
X52469000Y-88768000D01*
X52470204Y-88743496D01*
X52473804Y-88719227D01*
X52479765Y-88695429D01*
X52488030Y-88672329D01*
X52498520Y-88650151D01*
X52511133Y-88629107D01*
X52525747Y-88609402D01*
X52542223Y-88591223D01*
X52560402Y-88574747D01*
X52580107Y-88560133D01*
X52601151Y-88547520D01*
X52623329Y-88537030D01*
X52646429Y-88528765D01*
X52670227Y-88522804D01*
X52694496Y-88519204D01*
X52719000Y-88518000D01*
X53819000Y-88518000D01*
X53843504Y-88519204D01*
G37*
G04 #@! TD.AperFunction*
G04 #@! TA.AperFunction,SMDPad,CuDef*
G36*
X60289504Y-88519204D02*
G01*
X60313773Y-88522804D01*
X60337571Y-88528765D01*
X60360671Y-88537030D01*
X60382849Y-88547520D01*
X60403893Y-88560133D01*
X60423598Y-88574747D01*
X60441777Y-88591223D01*
X60458253Y-88609402D01*
X60472867Y-88629107D01*
X60485480Y-88650151D01*
X60495970Y-88672329D01*
X60504235Y-88695429D01*
X60510196Y-88719227D01*
X60513796Y-88743496D01*
X60515000Y-88768000D01*
X60515000Y-91043000D01*
X60513796Y-91067504D01*
X60510196Y-91091773D01*
X60504235Y-91115571D01*
X60495970Y-91138671D01*
X60485480Y-91160849D01*
X60472867Y-91181893D01*
X60458253Y-91201598D01*
X60441777Y-91219777D01*
X60423598Y-91236253D01*
X60403893Y-91250867D01*
X60382849Y-91263480D01*
X60360671Y-91273970D01*
X60337571Y-91282235D01*
X60313773Y-91288196D01*
X60289504Y-91291796D01*
X60265000Y-91293000D01*
X59165000Y-91293000D01*
X59140496Y-91291796D01*
X59116227Y-91288196D01*
X59092429Y-91282235D01*
X59069329Y-91273970D01*
X59047151Y-91263480D01*
X59026107Y-91250867D01*
X59006402Y-91236253D01*
X58988223Y-91219777D01*
X58971747Y-91201598D01*
X58957133Y-91181893D01*
X58944520Y-91160849D01*
X58934030Y-91138671D01*
X58925765Y-91115571D01*
X58919804Y-91091773D01*
X58916204Y-91067504D01*
X58915000Y-91043000D01*
X58915000Y-88768000D01*
X58916204Y-88743496D01*
X58919804Y-88719227D01*
X58925765Y-88695429D01*
X58934030Y-88672329D01*
X58944520Y-88650151D01*
X58957133Y-88629107D01*
X58971747Y-88609402D01*
X58988223Y-88591223D01*
X59006402Y-88574747D01*
X59026107Y-88560133D01*
X59047151Y-88547520D01*
X59069329Y-88537030D01*
X59092429Y-88528765D01*
X59116227Y-88522804D01*
X59140496Y-88519204D01*
X59165000Y-88518000D01*
X60265000Y-88518000D01*
X60289504Y-88519204D01*
G37*
G04 #@! TD.AperFunction*
G04 #@! TA.AperFunction,SMDPad,CuDef*
G36*
X60289504Y-92644204D02*
G01*
X60313773Y-92647804D01*
X60337571Y-92653765D01*
X60360671Y-92662030D01*
X60382849Y-92672520D01*
X60403893Y-92685133D01*
X60423598Y-92699747D01*
X60441777Y-92716223D01*
X60458253Y-92734402D01*
X60472867Y-92754107D01*
X60485480Y-92775151D01*
X60495970Y-92797329D01*
X60504235Y-92820429D01*
X60510196Y-92844227D01*
X60513796Y-92868496D01*
X60515000Y-92893000D01*
X60515000Y-95168000D01*
X60513796Y-95192504D01*
X60510196Y-95216773D01*
X60504235Y-95240571D01*
X60495970Y-95263671D01*
X60485480Y-95285849D01*
X60472867Y-95306893D01*
X60458253Y-95326598D01*
X60441777Y-95344777D01*
X60423598Y-95361253D01*
X60403893Y-95375867D01*
X60382849Y-95388480D01*
X60360671Y-95398970D01*
X60337571Y-95407235D01*
X60313773Y-95413196D01*
X60289504Y-95416796D01*
X60265000Y-95418000D01*
X59165000Y-95418000D01*
X59140496Y-95416796D01*
X59116227Y-95413196D01*
X59092429Y-95407235D01*
X59069329Y-95398970D01*
X59047151Y-95388480D01*
X59026107Y-95375867D01*
X59006402Y-95361253D01*
X58988223Y-95344777D01*
X58971747Y-95326598D01*
X58957133Y-95306893D01*
X58944520Y-95285849D01*
X58934030Y-95263671D01*
X58925765Y-95240571D01*
X58919804Y-95216773D01*
X58916204Y-95192504D01*
X58915000Y-95168000D01*
X58915000Y-92893000D01*
X58916204Y-92868496D01*
X58919804Y-92844227D01*
X58925765Y-92820429D01*
X58934030Y-92797329D01*
X58944520Y-92775151D01*
X58957133Y-92754107D01*
X58971747Y-92734402D01*
X58988223Y-92716223D01*
X59006402Y-92699747D01*
X59026107Y-92685133D01*
X59047151Y-92672520D01*
X59069329Y-92662030D01*
X59092429Y-92653765D01*
X59116227Y-92647804D01*
X59140496Y-92644204D01*
X59165000Y-92643000D01*
X60265000Y-92643000D01*
X60289504Y-92644204D01*
G37*
G04 #@! TD.AperFunction*
D10*
X64770000Y-95250000D03*
D15*
X59715000Y-94030500D02*
X59715000Y-97968000D01*
D16*
X60274500Y-94030500D02*
X59715000Y-94030500D01*
X59715000Y-86468000D02*
X61090010Y-87843010D01*
X61090010Y-93214990D02*
X60274500Y-94030500D01*
X61090010Y-87843010D02*
X61090010Y-93214990D01*
X64770000Y-100330000D02*
X60515000Y-96075000D01*
X60515000Y-94830500D02*
X59715000Y-94030500D01*
X60515000Y-96075000D02*
X60515000Y-94830500D01*
X53269000Y-97943000D02*
X53244000Y-97968000D01*
D15*
X53269000Y-94030500D02*
X53269000Y-97943000D01*
D16*
X54069000Y-93230500D02*
X53269000Y-94030500D01*
X54644010Y-92655490D02*
X54069000Y-93230500D01*
X54644010Y-87843010D02*
X54644010Y-92655490D01*
X53269000Y-86468000D02*
X54644010Y-87843010D01*
X55452490Y-102820734D02*
X56454255Y-103822499D01*
X55452490Y-96213990D02*
X55452490Y-102820734D01*
X53269000Y-94030500D02*
X55452490Y-96213990D01*
X63817501Y-103822499D02*
X64135000Y-103505000D01*
X56454255Y-103822499D02*
X63817501Y-103822499D01*
X64135000Y-103505000D02*
X64770000Y-102870000D01*
D15*
X50269000Y-98843000D02*
X50269000Y-101854000D01*
X50269000Y-97968000D02*
X50269000Y-98843000D01*
X56740000Y-98843000D02*
X56740000Y-101854000D01*
X56740000Y-97968000D02*
X56740000Y-98843000D01*
D16*
X55245000Y-72390000D02*
X57785000Y-72390000D01*
X55245000Y-62230000D02*
X57785000Y-62230000D01*
X59715000Y-64160000D02*
X59715000Y-81468000D01*
X57785000Y-62230000D02*
X59715000Y-64160000D01*
X55245000Y-79492000D02*
X53269000Y-81468000D01*
X55245000Y-72390000D02*
X55245000Y-79492000D01*
D17*
G36*
X46876761Y-54317155D02*
G01*
X48260000Y-55700395D01*
X49643239Y-54317155D01*
X49479656Y-54000000D01*
X142290344Y-54000000D01*
X142126761Y-54317155D01*
X143510000Y-55700395D01*
X144893239Y-54317155D01*
X144729656Y-54000000D01*
X145390000Y-54000000D01*
X145390000Y-54660344D01*
X145072845Y-54496761D01*
X143689605Y-55880000D01*
X145072845Y-57263239D01*
X145390000Y-57099656D01*
X145390001Y-105460345D01*
X145072845Y-105296761D01*
X143689605Y-106680000D01*
X145072845Y-108063239D01*
X145390001Y-107899655D01*
X145390001Y-108560000D01*
X144729656Y-108560000D01*
X144893239Y-108242845D01*
X143510000Y-106859605D01*
X142126761Y-108242845D01*
X142290344Y-108560000D01*
X49479656Y-108560000D01*
X49643239Y-108242845D01*
X48260000Y-106859605D01*
X46876761Y-108242845D01*
X47040344Y-108560000D01*
X46380000Y-108560000D01*
X46380000Y-107899656D01*
X46697155Y-108063239D01*
X48080395Y-106680000D01*
X48439605Y-106680000D01*
X49822845Y-108063239D01*
X50148643Y-107895198D01*
X50349426Y-107503393D01*
X50469914Y-107079945D01*
X50499175Y-106718873D01*
X141264524Y-106718873D01*
X141315254Y-107156197D01*
X141450326Y-107575221D01*
X141621357Y-107895198D01*
X141947155Y-108063239D01*
X143330395Y-106680000D01*
X141947155Y-105296761D01*
X141621357Y-105464802D01*
X141420574Y-105856607D01*
X141300086Y-106280055D01*
X141264524Y-106718873D01*
X50499175Y-106718873D01*
X50505476Y-106641127D01*
X50454746Y-106203803D01*
X50319674Y-105784779D01*
X50148643Y-105464802D01*
X49822845Y-105296761D01*
X48439605Y-106680000D01*
X48080395Y-106680000D01*
X46697155Y-105296761D01*
X46380000Y-105460344D01*
X46380000Y-105117155D01*
X46876761Y-105117155D01*
X48260000Y-106500395D01*
X49643239Y-105117155D01*
X142126761Y-105117155D01*
X143510000Y-106500395D01*
X144893239Y-105117155D01*
X144725198Y-104791357D01*
X144333393Y-104590574D01*
X143909945Y-104470086D01*
X143471127Y-104434524D01*
X143033803Y-104485254D01*
X142614779Y-104620326D01*
X142294802Y-104791357D01*
X142126761Y-105117155D01*
X49643239Y-105117155D01*
X49475198Y-104791357D01*
X49083393Y-104590574D01*
X48659945Y-104470086D01*
X48221127Y-104434524D01*
X47783803Y-104485254D01*
X47364779Y-104620326D01*
X47044802Y-104791357D01*
X46876761Y-105117155D01*
X46380000Y-105117155D01*
X46380000Y-97343000D01*
X48918428Y-97343000D01*
X48918428Y-98593000D01*
X48935492Y-98766254D01*
X48986028Y-98932850D01*
X49068095Y-99086386D01*
X49178538Y-99220962D01*
X49313114Y-99331405D01*
X49466650Y-99413472D01*
X49509000Y-99426319D01*
X49509001Y-100395681D01*
X49466650Y-100408528D01*
X49313114Y-100490595D01*
X49178538Y-100601038D01*
X49068095Y-100735614D01*
X48986028Y-100889150D01*
X48935492Y-101055746D01*
X48918428Y-101229000D01*
X48918428Y-102479000D01*
X48935492Y-102652254D01*
X48986028Y-102818850D01*
X49068095Y-102972386D01*
X49178538Y-103106962D01*
X49313114Y-103217405D01*
X49466650Y-103299472D01*
X49633246Y-103350008D01*
X49806500Y-103367072D01*
X50731500Y-103367072D01*
X50904754Y-103350008D01*
X51071350Y-103299472D01*
X51224886Y-103217405D01*
X51359462Y-103106962D01*
X51469905Y-102972386D01*
X51551972Y-102818850D01*
X51579227Y-102729000D01*
X51893428Y-102729000D01*
X51905688Y-102853482D01*
X51941998Y-102973180D01*
X52000963Y-103083494D01*
X52080315Y-103180185D01*
X52177006Y-103259537D01*
X52287320Y-103318502D01*
X52407018Y-103354812D01*
X52531500Y-103367072D01*
X52958250Y-103364000D01*
X53117000Y-103205250D01*
X53117000Y-101981000D01*
X52055250Y-101981000D01*
X51896500Y-102139750D01*
X51893428Y-102729000D01*
X51579227Y-102729000D01*
X51602508Y-102652254D01*
X51619572Y-102479000D01*
X51619572Y-101229000D01*
X51602508Y-101055746D01*
X51579228Y-100979000D01*
X51893428Y-100979000D01*
X51896500Y-101568250D01*
X52055250Y-101727000D01*
X53117000Y-101727000D01*
X53117000Y-100502750D01*
X52958250Y-100344000D01*
X52531500Y-100340928D01*
X52407018Y-100353188D01*
X52287320Y-100389498D01*
X52177006Y-100448463D01*
X52080315Y-100527815D01*
X52000963Y-100624506D01*
X51941998Y-100734820D01*
X51905688Y-100854518D01*
X51893428Y-100979000D01*
X51579228Y-100979000D01*
X51551972Y-100889150D01*
X51469905Y-100735614D01*
X51359462Y-100601038D01*
X51224886Y-100490595D01*
X51071350Y-100408528D01*
X51029000Y-100395681D01*
X51029000Y-99426319D01*
X51071350Y-99413472D01*
X51224886Y-99331405D01*
X51359462Y-99220962D01*
X51469905Y-99086386D01*
X51551972Y-98932850D01*
X51602508Y-98766254D01*
X51619572Y-98593000D01*
X51619572Y-97343000D01*
X51602508Y-97169746D01*
X51551972Y-97003150D01*
X51469905Y-96849614D01*
X51359462Y-96715038D01*
X51224886Y-96604595D01*
X51071350Y-96522528D01*
X50904754Y-96471992D01*
X50731500Y-96454928D01*
X49806500Y-96454928D01*
X49633246Y-96471992D01*
X49466650Y-96522528D01*
X49313114Y-96604595D01*
X49178538Y-96715038D01*
X49068095Y-96849614D01*
X48986028Y-97003150D01*
X48935492Y-97169746D01*
X48918428Y-97343000D01*
X46380000Y-97343000D01*
X46380000Y-91293000D01*
X51830928Y-91293000D01*
X51843188Y-91417482D01*
X51879498Y-91537180D01*
X51938463Y-91647494D01*
X52017815Y-91744185D01*
X52114506Y-91823537D01*
X52224820Y-91882502D01*
X52344518Y-91918812D01*
X52469000Y-91931072D01*
X52983250Y-91928000D01*
X53142000Y-91769250D01*
X53142000Y-90032500D01*
X51992750Y-90032500D01*
X51834000Y-90191250D01*
X51830928Y-91293000D01*
X46380000Y-91293000D01*
X46380000Y-86306967D01*
X51634000Y-86306967D01*
X51634000Y-86629033D01*
X51696832Y-86944912D01*
X51820082Y-87242463D01*
X51999013Y-87510252D01*
X52226748Y-87737987D01*
X52443009Y-87882488D01*
X52344518Y-87892188D01*
X52224820Y-87928498D01*
X52114506Y-87987463D01*
X52017815Y-88066815D01*
X51938463Y-88163506D01*
X51879498Y-88273820D01*
X51843188Y-88393518D01*
X51830928Y-88518000D01*
X51834000Y-89619750D01*
X51992750Y-89778500D01*
X53142000Y-89778500D01*
X53142000Y-89758500D01*
X53396000Y-89758500D01*
X53396000Y-89778500D01*
X53416000Y-89778500D01*
X53416000Y-90032500D01*
X53396000Y-90032500D01*
X53396000Y-91769250D01*
X53554750Y-91928000D01*
X53634011Y-91928473D01*
X53634011Y-92004928D01*
X52719000Y-92004928D01*
X52545746Y-92021992D01*
X52379150Y-92072528D01*
X52225614Y-92154595D01*
X52091038Y-92265038D01*
X51980595Y-92399614D01*
X51898528Y-92553150D01*
X51847992Y-92719746D01*
X51830928Y-92893000D01*
X51830928Y-95168000D01*
X51847992Y-95341254D01*
X51898528Y-95507850D01*
X51980595Y-95661386D01*
X52091038Y-95795962D01*
X52225614Y-95906405D01*
X52379150Y-95988472D01*
X52509001Y-96027861D01*
X52509001Y-96502098D01*
X52441650Y-96522528D01*
X52288114Y-96604595D01*
X52153538Y-96715038D01*
X52043095Y-96849614D01*
X51961028Y-97003150D01*
X51910492Y-97169746D01*
X51893428Y-97343000D01*
X51893428Y-98593000D01*
X51910492Y-98766254D01*
X51961028Y-98932850D01*
X52043095Y-99086386D01*
X52153538Y-99220962D01*
X52288114Y-99331405D01*
X52441650Y-99413472D01*
X52608246Y-99464008D01*
X52781500Y-99481072D01*
X53706500Y-99481072D01*
X53879754Y-99464008D01*
X54046350Y-99413472D01*
X54199886Y-99331405D01*
X54334462Y-99220962D01*
X54442490Y-99089328D01*
X54442491Y-100570226D01*
X54407685Y-100527815D01*
X54310994Y-100448463D01*
X54200680Y-100389498D01*
X54080982Y-100353188D01*
X53956500Y-100340928D01*
X53529750Y-100344000D01*
X53371000Y-100502750D01*
X53371000Y-101727000D01*
X53391000Y-101727000D01*
X53391000Y-101981000D01*
X53371000Y-101981000D01*
X53371000Y-103205250D01*
X53529750Y-103364000D01*
X53956500Y-103367072D01*
X54080982Y-103354812D01*
X54200680Y-103318502D01*
X54310994Y-103259537D01*
X54407685Y-103180185D01*
X54479527Y-103092644D01*
X54514858Y-103209113D01*
X54563156Y-103299472D01*
X54608644Y-103384574D01*
X54734858Y-103538367D01*
X54773391Y-103569990D01*
X55704998Y-104501598D01*
X55736622Y-104540132D01*
X55890415Y-104666346D01*
X56065875Y-104760131D01*
X56256260Y-104817884D01*
X56454255Y-104837385D01*
X56503863Y-104832499D01*
X63767893Y-104832499D01*
X63817501Y-104837385D01*
X64015495Y-104817884D01*
X64205881Y-104760131D01*
X64381341Y-104666346D01*
X64535134Y-104540132D01*
X64566763Y-104501592D01*
X64611318Y-104457037D01*
X64613645Y-104457500D01*
X64926355Y-104457500D01*
X65233057Y-104396493D01*
X65521963Y-104276824D01*
X65536666Y-104267000D01*
X66543334Y-104267000D01*
X66558037Y-104276824D01*
X66846943Y-104396493D01*
X67153645Y-104457500D01*
X67466355Y-104457500D01*
X67773057Y-104396493D01*
X68061963Y-104276824D01*
X68076666Y-104267000D01*
X69083334Y-104267000D01*
X69098037Y-104276824D01*
X69386943Y-104396493D01*
X69693645Y-104457500D01*
X70006355Y-104457500D01*
X70313057Y-104396493D01*
X70601963Y-104276824D01*
X70616666Y-104267000D01*
X71623334Y-104267000D01*
X71638037Y-104276824D01*
X71926943Y-104396493D01*
X72233645Y-104457500D01*
X72546355Y-104457500D01*
X72853057Y-104396493D01*
X73141963Y-104276824D01*
X73156666Y-104267000D01*
X74163334Y-104267000D01*
X74178037Y-104276824D01*
X74466943Y-104396493D01*
X74773645Y-104457500D01*
X75086355Y-104457500D01*
X75393057Y-104396493D01*
X75681963Y-104276824D01*
X75696666Y-104267000D01*
X76703334Y-104267000D01*
X76718037Y-104276824D01*
X77006943Y-104396493D01*
X77313645Y-104457500D01*
X77626355Y-104457500D01*
X77933057Y-104396493D01*
X78221963Y-104276824D01*
X78236666Y-104267000D01*
X79243334Y-104267000D01*
X79258037Y-104276824D01*
X79546943Y-104396493D01*
X79853645Y-104457500D01*
X80166355Y-104457500D01*
X80473057Y-104396493D01*
X80761963Y-104276824D01*
X80776666Y-104267000D01*
X81783334Y-104267000D01*
X81798037Y-104276824D01*
X82086943Y-104396493D01*
X82393645Y-104457500D01*
X82706355Y-104457500D01*
X83013057Y-104396493D01*
X83301963Y-104276824D01*
X83316666Y-104267000D01*
X84323334Y-104267000D01*
X84338037Y-104276824D01*
X84626943Y-104396493D01*
X84933645Y-104457500D01*
X85246355Y-104457500D01*
X85553057Y-104396493D01*
X85841963Y-104276824D01*
X85856666Y-104267000D01*
X86863334Y-104267000D01*
X86878037Y-104276824D01*
X87166943Y-104396493D01*
X87473645Y-104457500D01*
X87786355Y-104457500D01*
X88093057Y-104396493D01*
X88381963Y-104276824D01*
X88396666Y-104267000D01*
X89403334Y-104267000D01*
X89418037Y-104276824D01*
X89706943Y-104396493D01*
X90013645Y-104457500D01*
X90326355Y-104457500D01*
X90633057Y-104396493D01*
X90921963Y-104276824D01*
X90936666Y-104267000D01*
X91943334Y-104267000D01*
X91958037Y-104276824D01*
X92246943Y-104396493D01*
X92553645Y-104457500D01*
X92866355Y-104457500D01*
X93173057Y-104396493D01*
X93461963Y-104276824D01*
X93476666Y-104267000D01*
X94483334Y-104267000D01*
X94498037Y-104276824D01*
X94786943Y-104396493D01*
X95093645Y-104457500D01*
X95406355Y-104457500D01*
X95713057Y-104396493D01*
X96001963Y-104276824D01*
X96016666Y-104267000D01*
X97023334Y-104267000D01*
X97038037Y-104276824D01*
X97326943Y-104396493D01*
X97633645Y-104457500D01*
X97946355Y-104457500D01*
X98253057Y-104396493D01*
X98541963Y-104276824D01*
X98556666Y-104267000D01*
X99563334Y-104267000D01*
X99578037Y-104276824D01*
X99866943Y-104396493D01*
X100173645Y-104457500D01*
X100486355Y-104457500D01*
X100793057Y-104396493D01*
X101081963Y-104276824D01*
X101096666Y-104267000D01*
X102103334Y-104267000D01*
X102118037Y-104276824D01*
X102406943Y-104396493D01*
X102713645Y-104457500D01*
X103026355Y-104457500D01*
X103333057Y-104396493D01*
X103621963Y-104276824D01*
X103636666Y-104267000D01*
X104643334Y-104267000D01*
X104658037Y-104276824D01*
X104946943Y-104396493D01*
X105253645Y-104457500D01*
X105566355Y-104457500D01*
X105873057Y-104396493D01*
X106161963Y-104276824D01*
X106176666Y-104267000D01*
X107183334Y-104267000D01*
X107198037Y-104276824D01*
X107486943Y-104396493D01*
X107793645Y-104457500D01*
X108106355Y-104457500D01*
X108413057Y-104396493D01*
X108701963Y-104276824D01*
X108716666Y-104267000D01*
X109723334Y-104267000D01*
X109738037Y-104276824D01*
X110026943Y-104396493D01*
X110333645Y-104457500D01*
X110646355Y-104457500D01*
X110953057Y-104396493D01*
X111241963Y-104276824D01*
X111256666Y-104267000D01*
X112263334Y-104267000D01*
X112278037Y-104276824D01*
X112566943Y-104396493D01*
X112873645Y-104457500D01*
X113186355Y-104457500D01*
X113493057Y-104396493D01*
X113781963Y-104276824D01*
X113796666Y-104267000D01*
X114803334Y-104267000D01*
X114818037Y-104276824D01*
X115106943Y-104396493D01*
X115413645Y-104457500D01*
X115726355Y-104457500D01*
X116033057Y-104396493D01*
X116321963Y-104276824D01*
X116336666Y-104267000D01*
X117343334Y-104267000D01*
X117358037Y-104276824D01*
X117646943Y-104396493D01*
X117953645Y-104457500D01*
X118266355Y-104457500D01*
X118573057Y-104396493D01*
X118861963Y-104276824D01*
X118876666Y-104267000D01*
X119883334Y-104267000D01*
X119898037Y-104276824D01*
X120186943Y-104396493D01*
X120493645Y-104457500D01*
X120806355Y-104457500D01*
X121113057Y-104396493D01*
X121401963Y-104276824D01*
X121416666Y-104267000D01*
X122423334Y-104267000D01*
X122438037Y-104276824D01*
X122726943Y-104396493D01*
X123033645Y-104457500D01*
X123346355Y-104457500D01*
X123653057Y-104396493D01*
X123941963Y-104276824D01*
X123956666Y-104267000D01*
X124963334Y-104267000D01*
X124978037Y-104276824D01*
X125266943Y-104396493D01*
X125573645Y-104457500D01*
X125886355Y-104457500D01*
X126193057Y-104396493D01*
X126481963Y-104276824D01*
X126496666Y-104267000D01*
X127503334Y-104267000D01*
X127518037Y-104276824D01*
X127806943Y-104396493D01*
X128113645Y-104457500D01*
X128426355Y-104457500D01*
X128733057Y-104396493D01*
X129021963Y-104276824D01*
X129036666Y-104267000D01*
X130043334Y-104267000D01*
X130058037Y-104276824D01*
X130346943Y-104396493D01*
X130653645Y-104457500D01*
X130966355Y-104457500D01*
X131273057Y-104396493D01*
X131561963Y-104276824D01*
X131576666Y-104267000D01*
X132583334Y-104267000D01*
X132598037Y-104276824D01*
X132886943Y-104396493D01*
X133193645Y-104457500D01*
X133506355Y-104457500D01*
X133813057Y-104396493D01*
X134101963Y-104276824D01*
X134116666Y-104267000D01*
X135123334Y-104267000D01*
X135138037Y-104276824D01*
X135426943Y-104396493D01*
X135733645Y-104457500D01*
X136046355Y-104457500D01*
X136353057Y-104396493D01*
X136641963Y-104276824D01*
X136656666Y-104267000D01*
X137663334Y-104267000D01*
X137678037Y-104276824D01*
X137966943Y-104396493D01*
X138273645Y-104457500D01*
X138586355Y-104457500D01*
X138893057Y-104396493D01*
X139181963Y-104276824D01*
X139441972Y-104103092D01*
X139663092Y-103881972D01*
X139836824Y-103621963D01*
X139956493Y-103333057D01*
X140017500Y-103026355D01*
X140017500Y-102713645D01*
X139956493Y-102406943D01*
X139836824Y-102118037D01*
X139663092Y-101858028D01*
X139441972Y-101636908D01*
X139386735Y-101600000D01*
X139441972Y-101563092D01*
X139663092Y-101341972D01*
X139700000Y-101286735D01*
X139736908Y-101341972D01*
X139958028Y-101563092D01*
X140218037Y-101736824D01*
X140506943Y-101856493D01*
X140813645Y-101917500D01*
X141126355Y-101917500D01*
X141433057Y-101856493D01*
X141721963Y-101736824D01*
X141981972Y-101563092D01*
X142203092Y-101341972D01*
X142376824Y-101081963D01*
X142496493Y-100793057D01*
X142557500Y-100486355D01*
X142557500Y-100173645D01*
X142496493Y-99866943D01*
X142376824Y-99578037D01*
X142203092Y-99318028D01*
X141981972Y-99096908D01*
X141851039Y-99009422D01*
X141891930Y-98891535D01*
X140970000Y-97969605D01*
X140048070Y-98891535D01*
X140088961Y-99009422D01*
X139958028Y-99096908D01*
X139736908Y-99318028D01*
X139700000Y-99373265D01*
X139663092Y-99318028D01*
X139441972Y-99096908D01*
X139311039Y-99009422D01*
X139351930Y-98891535D01*
X138557000Y-98096605D01*
X138557000Y-97790000D01*
X138609605Y-97790000D01*
X139531535Y-98711930D01*
X139700000Y-98653495D01*
X139868465Y-98711930D01*
X140790395Y-97790000D01*
X141149605Y-97790000D01*
X142071535Y-98711930D01*
X142331081Y-98621902D01*
X142467224Y-98340384D01*
X142545829Y-98037714D01*
X142563877Y-97725526D01*
X142520672Y-97415815D01*
X142417877Y-97120484D01*
X142331081Y-96958098D01*
X142071535Y-96868070D01*
X141149605Y-97790000D01*
X140790395Y-97790000D01*
X139868465Y-96868070D01*
X139700000Y-96926505D01*
X139531535Y-96868070D01*
X138609605Y-97790000D01*
X138557000Y-97790000D01*
X138557000Y-97483395D01*
X139351930Y-96688465D01*
X139311039Y-96570578D01*
X139441972Y-96483092D01*
X139663092Y-96261972D01*
X139702136Y-96203539D01*
X139724208Y-96236572D01*
X139945328Y-96457692D01*
X140093724Y-96556847D01*
X140048070Y-96688465D01*
X140970000Y-97610395D01*
X141891930Y-96688465D01*
X141841497Y-96543068D01*
X141969272Y-96457692D01*
X142190392Y-96236572D01*
X142364124Y-95976563D01*
X142483793Y-95687657D01*
X142544800Y-95380955D01*
X142544800Y-95068245D01*
X142483793Y-94761543D01*
X142364124Y-94472637D01*
X142190392Y-94212628D01*
X141969272Y-93991508D01*
X141914035Y-93954600D01*
X141969272Y-93917692D01*
X142190392Y-93696572D01*
X142364124Y-93436563D01*
X142483793Y-93147657D01*
X142544800Y-92840955D01*
X142544800Y-92528245D01*
X142483793Y-92221543D01*
X142364124Y-91932637D01*
X142190392Y-91672628D01*
X141969272Y-91451508D01*
X141914035Y-91414600D01*
X141969272Y-91377692D01*
X142190392Y-91156572D01*
X142364124Y-90896563D01*
X142483793Y-90607657D01*
X142544800Y-90300955D01*
X142544800Y-89988245D01*
X142483793Y-89681543D01*
X142364124Y-89392637D01*
X142190392Y-89132628D01*
X141969272Y-88911508D01*
X141914035Y-88874600D01*
X141969272Y-88837692D01*
X142190392Y-88616572D01*
X142364124Y-88356563D01*
X142483793Y-88067657D01*
X142544800Y-87760955D01*
X142544800Y-87448245D01*
X142483793Y-87141543D01*
X142364124Y-86852637D01*
X142190392Y-86592628D01*
X141969272Y-86371508D01*
X141914035Y-86334600D01*
X141969272Y-86297692D01*
X142190392Y-86076572D01*
X142364124Y-85816563D01*
X142483793Y-85527657D01*
X142544800Y-85220955D01*
X142544800Y-84908245D01*
X142483793Y-84601543D01*
X142364124Y-84312637D01*
X142190392Y-84052628D01*
X141969272Y-83831508D01*
X141914035Y-83794600D01*
X141969272Y-83757692D01*
X142190392Y-83536572D01*
X142364124Y-83276563D01*
X142483793Y-82987657D01*
X142544800Y-82680955D01*
X142544800Y-82368245D01*
X142483793Y-82061543D01*
X142364124Y-81772637D01*
X142190392Y-81512628D01*
X141969272Y-81291508D01*
X141914035Y-81254600D01*
X141969272Y-81217692D01*
X142190392Y-80996572D01*
X142364124Y-80736563D01*
X142483793Y-80447657D01*
X142544800Y-80140955D01*
X142544800Y-79828245D01*
X142483793Y-79521543D01*
X142364124Y-79232637D01*
X142190392Y-78972628D01*
X141969272Y-78751508D01*
X141914035Y-78714600D01*
X141969272Y-78677692D01*
X142190392Y-78456572D01*
X142364124Y-78196563D01*
X142483793Y-77907657D01*
X142544800Y-77600955D01*
X142544800Y-77288245D01*
X142483793Y-76981543D01*
X142364124Y-76692637D01*
X142190392Y-76432628D01*
X141969272Y-76211508D01*
X141914035Y-76174600D01*
X141969272Y-76137692D01*
X142190392Y-75916572D01*
X142364124Y-75656563D01*
X142483793Y-75367657D01*
X142544800Y-75060955D01*
X142544800Y-74748245D01*
X142483793Y-74441543D01*
X142364124Y-74152637D01*
X142190392Y-73892628D01*
X141969272Y-73671508D01*
X141914035Y-73634600D01*
X141969272Y-73597692D01*
X142190392Y-73376572D01*
X142364124Y-73116563D01*
X142483793Y-72827657D01*
X142544800Y-72520955D01*
X142544800Y-72208245D01*
X142483793Y-71901543D01*
X142364124Y-71612637D01*
X142190392Y-71352628D01*
X141969272Y-71131508D01*
X141914035Y-71094600D01*
X141969272Y-71057692D01*
X142190392Y-70836572D01*
X142364124Y-70576563D01*
X142483793Y-70287657D01*
X142544800Y-69980955D01*
X142544800Y-69668245D01*
X142483793Y-69361543D01*
X142364124Y-69072637D01*
X142190392Y-68812628D01*
X141969272Y-68591508D01*
X141914035Y-68554600D01*
X141969272Y-68517692D01*
X142190392Y-68296572D01*
X142364124Y-68036563D01*
X142483793Y-67747657D01*
X142544800Y-67440955D01*
X142544800Y-67128245D01*
X142483793Y-66821543D01*
X142364124Y-66532637D01*
X142190392Y-66272628D01*
X141969272Y-66051508D01*
X141876943Y-65989816D01*
X141916930Y-65874535D01*
X140995000Y-64952605D01*
X140073070Y-65874535D01*
X140098870Y-65948915D01*
X139945328Y-66051508D01*
X139724208Y-66272628D01*
X139687300Y-66327865D01*
X139650392Y-66272628D01*
X139429272Y-66051508D01*
X139336943Y-65989816D01*
X139376930Y-65874535D01*
X138557000Y-65054605D01*
X138557000Y-64773000D01*
X138634605Y-64773000D01*
X139556535Y-65694930D01*
X139725000Y-65636495D01*
X139893465Y-65694930D01*
X140815395Y-64773000D01*
X141174605Y-64773000D01*
X142096535Y-65694930D01*
X142356081Y-65604902D01*
X142492224Y-65323384D01*
X142570829Y-65020714D01*
X142588877Y-64708526D01*
X142545672Y-64398815D01*
X142442877Y-64103484D01*
X142356081Y-63941098D01*
X142096535Y-63851070D01*
X141174605Y-64773000D01*
X140815395Y-64773000D01*
X139893465Y-63851070D01*
X139725000Y-63909505D01*
X139556535Y-63851070D01*
X138634605Y-64773000D01*
X138557000Y-64773000D01*
X138557000Y-64491395D01*
X139376930Y-63671465D01*
X139330490Y-63537582D01*
X139441972Y-63463092D01*
X139663092Y-63241972D01*
X139700000Y-63186735D01*
X139736908Y-63241972D01*
X139958028Y-63463092D01*
X140110102Y-63564704D01*
X140073070Y-63671465D01*
X140995000Y-64593395D01*
X141916930Y-63671465D01*
X141870490Y-63537582D01*
X141981972Y-63463092D01*
X142203092Y-63241972D01*
X142376824Y-62981963D01*
X142496493Y-62693057D01*
X142557500Y-62386355D01*
X142557500Y-62073645D01*
X142496493Y-61766943D01*
X142376824Y-61478037D01*
X142203092Y-61218028D01*
X141981972Y-60996908D01*
X141721963Y-60823176D01*
X141433057Y-60703507D01*
X141126355Y-60642500D01*
X140813645Y-60642500D01*
X140506943Y-60703507D01*
X140218037Y-60823176D01*
X139958028Y-60996908D01*
X139736908Y-61218028D01*
X139700000Y-61273265D01*
X139663092Y-61218028D01*
X139441972Y-60996908D01*
X139386735Y-60960000D01*
X139441972Y-60923092D01*
X139663092Y-60701972D01*
X139836824Y-60441963D01*
X139956493Y-60153057D01*
X140017500Y-59846355D01*
X140017500Y-59533645D01*
X139956493Y-59226943D01*
X139836824Y-58938037D01*
X139663092Y-58678028D01*
X139441972Y-58456908D01*
X139181963Y-58283176D01*
X138893057Y-58163507D01*
X138586355Y-58102500D01*
X138273645Y-58102500D01*
X137966943Y-58163507D01*
X137678037Y-58283176D01*
X137663334Y-58293000D01*
X136656666Y-58293000D01*
X136641963Y-58283176D01*
X136353057Y-58163507D01*
X136046355Y-58102500D01*
X135733645Y-58102500D01*
X135426943Y-58163507D01*
X135138037Y-58283176D01*
X135123334Y-58293000D01*
X134116666Y-58293000D01*
X134101963Y-58283176D01*
X133813057Y-58163507D01*
X133506355Y-58102500D01*
X133193645Y-58102500D01*
X132886943Y-58163507D01*
X132598037Y-58283176D01*
X132583334Y-58293000D01*
X131576666Y-58293000D01*
X131561963Y-58283176D01*
X131273057Y-58163507D01*
X130966355Y-58102500D01*
X130653645Y-58102500D01*
X130346943Y-58163507D01*
X130058037Y-58283176D01*
X130043334Y-58293000D01*
X129036666Y-58293000D01*
X129021963Y-58283176D01*
X128733057Y-58163507D01*
X128426355Y-58102500D01*
X128113645Y-58102500D01*
X127806943Y-58163507D01*
X127518037Y-58283176D01*
X127503334Y-58293000D01*
X126496666Y-58293000D01*
X126481963Y-58283176D01*
X126193057Y-58163507D01*
X125886355Y-58102500D01*
X125573645Y-58102500D01*
X125266943Y-58163507D01*
X124978037Y-58283176D01*
X124963334Y-58293000D01*
X123956666Y-58293000D01*
X123941963Y-58283176D01*
X123653057Y-58163507D01*
X123346355Y-58102500D01*
X123033645Y-58102500D01*
X122726943Y-58163507D01*
X122438037Y-58283176D01*
X122423334Y-58293000D01*
X121416666Y-58293000D01*
X121401963Y-58283176D01*
X121113057Y-58163507D01*
X120806355Y-58102500D01*
X120493645Y-58102500D01*
X120186943Y-58163507D01*
X119898037Y-58283176D01*
X119883334Y-58293000D01*
X118876666Y-58293000D01*
X118861963Y-58283176D01*
X118573057Y-58163507D01*
X118266355Y-58102500D01*
X117953645Y-58102500D01*
X117646943Y-58163507D01*
X117358037Y-58283176D01*
X117343334Y-58293000D01*
X116336666Y-58293000D01*
X116321963Y-58283176D01*
X116033057Y-58163507D01*
X115726355Y-58102500D01*
X115413645Y-58102500D01*
X115106943Y-58163507D01*
X114818037Y-58283176D01*
X114803334Y-58293000D01*
X113796666Y-58293000D01*
X113781963Y-58283176D01*
X113493057Y-58163507D01*
X113186355Y-58102500D01*
X112873645Y-58102500D01*
X112566943Y-58163507D01*
X112278037Y-58283176D01*
X112263334Y-58293000D01*
X111256666Y-58293000D01*
X111241963Y-58283176D01*
X110953057Y-58163507D01*
X110646355Y-58102500D01*
X110333645Y-58102500D01*
X110026943Y-58163507D01*
X109738037Y-58283176D01*
X109723334Y-58293000D01*
X108716666Y-58293000D01*
X108701963Y-58283176D01*
X108413057Y-58163507D01*
X108106355Y-58102500D01*
X107793645Y-58102500D01*
X107486943Y-58163507D01*
X107198037Y-58283176D01*
X107183334Y-58293000D01*
X106176666Y-58293000D01*
X106161963Y-58283176D01*
X105873057Y-58163507D01*
X105566355Y-58102500D01*
X105253645Y-58102500D01*
X104946943Y-58163507D01*
X104658037Y-58283176D01*
X104643334Y-58293000D01*
X103636666Y-58293000D01*
X103621963Y-58283176D01*
X103333057Y-58163507D01*
X103026355Y-58102500D01*
X102713645Y-58102500D01*
X102406943Y-58163507D01*
X102118037Y-58283176D01*
X102103334Y-58293000D01*
X101096666Y-58293000D01*
X101081963Y-58283176D01*
X100793057Y-58163507D01*
X100486355Y-58102500D01*
X100173645Y-58102500D01*
X99866943Y-58163507D01*
X99578037Y-58283176D01*
X99563334Y-58293000D01*
X98556666Y-58293000D01*
X98541963Y-58283176D01*
X98253057Y-58163507D01*
X97946355Y-58102500D01*
X97633645Y-58102500D01*
X97326943Y-58163507D01*
X97038037Y-58283176D01*
X97023334Y-58293000D01*
X96016666Y-58293000D01*
X96001963Y-58283176D01*
X95713057Y-58163507D01*
X95406355Y-58102500D01*
X95093645Y-58102500D01*
X94786943Y-58163507D01*
X94498037Y-58283176D01*
X94483334Y-58293000D01*
X93476666Y-58293000D01*
X93461963Y-58283176D01*
X93173057Y-58163507D01*
X92866355Y-58102500D01*
X92553645Y-58102500D01*
X92246943Y-58163507D01*
X91958037Y-58283176D01*
X91943334Y-58293000D01*
X90936666Y-58293000D01*
X90921963Y-58283176D01*
X90633057Y-58163507D01*
X90326355Y-58102500D01*
X90013645Y-58102500D01*
X89706943Y-58163507D01*
X89418037Y-58283176D01*
X89403334Y-58293000D01*
X88396666Y-58293000D01*
X88381963Y-58283176D01*
X88093057Y-58163507D01*
X87786355Y-58102500D01*
X87473645Y-58102500D01*
X87166943Y-58163507D01*
X86878037Y-58283176D01*
X86863334Y-58293000D01*
X85856666Y-58293000D01*
X85841963Y-58283176D01*
X85553057Y-58163507D01*
X85246355Y-58102500D01*
X84933645Y-58102500D01*
X84626943Y-58163507D01*
X84338037Y-58283176D01*
X84323334Y-58293000D01*
X83316666Y-58293000D01*
X83301963Y-58283176D01*
X83013057Y-58163507D01*
X82706355Y-58102500D01*
X82393645Y-58102500D01*
X82086943Y-58163507D01*
X81798037Y-58283176D01*
X81783334Y-58293000D01*
X80776666Y-58293000D01*
X80761963Y-58283176D01*
X80473057Y-58163507D01*
X80166355Y-58102500D01*
X79853645Y-58102500D01*
X79546943Y-58163507D01*
X79258037Y-58283176D01*
X79243334Y-58293000D01*
X78236666Y-58293000D01*
X78221963Y-58283176D01*
X77933057Y-58163507D01*
X77626355Y-58102500D01*
X77313645Y-58102500D01*
X77006943Y-58163507D01*
X76718037Y-58283176D01*
X76703334Y-58293000D01*
X75696666Y-58293000D01*
X75681963Y-58283176D01*
X75393057Y-58163507D01*
X75086355Y-58102500D01*
X74773645Y-58102500D01*
X74466943Y-58163507D01*
X74178037Y-58283176D01*
X74163334Y-58293000D01*
X73156666Y-58293000D01*
X73141963Y-58283176D01*
X72853057Y-58163507D01*
X72546355Y-58102500D01*
X72233645Y-58102500D01*
X71926943Y-58163507D01*
X71638037Y-58283176D01*
X71623334Y-58293000D01*
X70616666Y-58293000D01*
X70601963Y-58283176D01*
X70313057Y-58163507D01*
X70006355Y-58102500D01*
X69693645Y-58102500D01*
X69386943Y-58163507D01*
X69098037Y-58283176D01*
X69083334Y-58293000D01*
X68076666Y-58293000D01*
X68061963Y-58283176D01*
X67773057Y-58163507D01*
X67466355Y-58102500D01*
X67153645Y-58102500D01*
X66846943Y-58163507D01*
X66558037Y-58283176D01*
X66543334Y-58293000D01*
X65536666Y-58293000D01*
X65521963Y-58283176D01*
X65233057Y-58163507D01*
X64926355Y-58102500D01*
X64613645Y-58102500D01*
X64306943Y-58163507D01*
X64018037Y-58283176D01*
X63758028Y-58456908D01*
X63536908Y-58678028D01*
X63363176Y-58938037D01*
X63243507Y-59226943D01*
X63182500Y-59533645D01*
X63182500Y-59846355D01*
X63243507Y-60153057D01*
X63363176Y-60441963D01*
X63536908Y-60701972D01*
X63758028Y-60923092D01*
X63813265Y-60960000D01*
X63758028Y-60996908D01*
X63536908Y-61218028D01*
X63363176Y-61478037D01*
X63243507Y-61766943D01*
X63182500Y-62073645D01*
X63182500Y-62386355D01*
X63243507Y-62693057D01*
X63363176Y-62981963D01*
X63536908Y-63241972D01*
X63758028Y-63463092D01*
X63910102Y-63564704D01*
X63873070Y-63671465D01*
X64643000Y-64441395D01*
X64643000Y-65104605D01*
X63873070Y-65874535D01*
X63898870Y-65948915D01*
X63745328Y-66051508D01*
X63524208Y-66272628D01*
X63350476Y-66532637D01*
X63230807Y-66821543D01*
X63169800Y-67128245D01*
X63169800Y-67440955D01*
X63230807Y-67747657D01*
X63350476Y-68036563D01*
X63524208Y-68296572D01*
X63745328Y-68517692D01*
X63800565Y-68554600D01*
X63745328Y-68591508D01*
X63524208Y-68812628D01*
X63350476Y-69072637D01*
X63230807Y-69361543D01*
X63169800Y-69668245D01*
X63169800Y-69980955D01*
X63230807Y-70287657D01*
X63350476Y-70576563D01*
X63524208Y-70836572D01*
X63745328Y-71057692D01*
X63800565Y-71094600D01*
X63745328Y-71131508D01*
X63524208Y-71352628D01*
X63350476Y-71612637D01*
X63230807Y-71901543D01*
X63169800Y-72208245D01*
X63169800Y-72520955D01*
X63230807Y-72827657D01*
X63350476Y-73116563D01*
X63524208Y-73376572D01*
X63745328Y-73597692D01*
X63800565Y-73634600D01*
X63745328Y-73671508D01*
X63524208Y-73892628D01*
X63350476Y-74152637D01*
X63230807Y-74441543D01*
X63169800Y-74748245D01*
X63169800Y-75060955D01*
X63230807Y-75367657D01*
X63350476Y-75656563D01*
X63524208Y-75916572D01*
X63745328Y-76137692D01*
X63800565Y-76174600D01*
X63745328Y-76211508D01*
X63524208Y-76432628D01*
X63350476Y-76692637D01*
X63230807Y-76981543D01*
X63169800Y-77288245D01*
X63169800Y-77600955D01*
X63230807Y-77907657D01*
X63350476Y-78196563D01*
X63524208Y-78456572D01*
X63745328Y-78677692D01*
X63800565Y-78714600D01*
X63745328Y-78751508D01*
X63524208Y-78972628D01*
X63350476Y-79232637D01*
X63230807Y-79521543D01*
X63169800Y-79828245D01*
X63169800Y-80140955D01*
X63230807Y-80447657D01*
X63350476Y-80736563D01*
X63524208Y-80996572D01*
X63745328Y-81217692D01*
X63800565Y-81254600D01*
X63745328Y-81291508D01*
X63524208Y-81512628D01*
X63350476Y-81772637D01*
X63230807Y-82061543D01*
X63169800Y-82368245D01*
X63169800Y-82680955D01*
X63230807Y-82987657D01*
X63350476Y-83276563D01*
X63524208Y-83536572D01*
X63745328Y-83757692D01*
X63800565Y-83794600D01*
X63745328Y-83831508D01*
X63524208Y-84052628D01*
X63350476Y-84312637D01*
X63230807Y-84601543D01*
X63169800Y-84908245D01*
X63169800Y-85220955D01*
X63230807Y-85527657D01*
X63350476Y-85816563D01*
X63524208Y-86076572D01*
X63745328Y-86297692D01*
X63800565Y-86334600D01*
X63745328Y-86371508D01*
X63524208Y-86592628D01*
X63350476Y-86852637D01*
X63230807Y-87141543D01*
X63169800Y-87448245D01*
X63169800Y-87760955D01*
X63230807Y-88067657D01*
X63350476Y-88356563D01*
X63524208Y-88616572D01*
X63745328Y-88837692D01*
X63800565Y-88874600D01*
X63745328Y-88911508D01*
X63524208Y-89132628D01*
X63350476Y-89392637D01*
X63230807Y-89681543D01*
X63169800Y-89988245D01*
X63169800Y-90300955D01*
X63230807Y-90607657D01*
X63350476Y-90896563D01*
X63524208Y-91156572D01*
X63745328Y-91377692D01*
X63800565Y-91414600D01*
X63745328Y-91451508D01*
X63524208Y-91672628D01*
X63350476Y-91932637D01*
X63230807Y-92221543D01*
X63169800Y-92528245D01*
X63169800Y-92840955D01*
X63230807Y-93147657D01*
X63350476Y-93436563D01*
X63524208Y-93696572D01*
X63745328Y-93917692D01*
X63825922Y-93971543D01*
X63758028Y-94016908D01*
X63536908Y-94238028D01*
X63363176Y-94498037D01*
X63243507Y-94786943D01*
X63182500Y-95093645D01*
X63182500Y-95406355D01*
X63243507Y-95713057D01*
X63363176Y-96001963D01*
X63536908Y-96261972D01*
X63758028Y-96483092D01*
X63888961Y-96570578D01*
X63848070Y-96688465D01*
X64643000Y-97483395D01*
X64643000Y-97870890D01*
X64576253Y-97804143D01*
X64590395Y-97790000D01*
X63668465Y-96868070D01*
X63408919Y-96958098D01*
X63272776Y-97239616D01*
X63238799Y-97370444D01*
X61525000Y-95656645D01*
X61525000Y-94880108D01*
X61529886Y-94830500D01*
X61510385Y-94632505D01*
X61452632Y-94442120D01*
X61440209Y-94418879D01*
X61396413Y-94336942D01*
X61769104Y-93964251D01*
X61807643Y-93932623D01*
X61933857Y-93778830D01*
X62027642Y-93603370D01*
X62085395Y-93412984D01*
X62100010Y-93264598D01*
X62100010Y-93264596D01*
X62104896Y-93214991D01*
X62100010Y-93165386D01*
X62100010Y-87892618D01*
X62104896Y-87843010D01*
X62085395Y-87645015D01*
X62027642Y-87454630D01*
X61933856Y-87279169D01*
X61839266Y-87163910D01*
X61807643Y-87125377D01*
X61769109Y-87093753D01*
X61342433Y-86667077D01*
X61350000Y-86629033D01*
X61350000Y-86306967D01*
X61287168Y-85991088D01*
X61163918Y-85693537D01*
X60984987Y-85425748D01*
X60757252Y-85198013D01*
X60489463Y-85019082D01*
X60191912Y-84895832D01*
X59876033Y-84833000D01*
X59553967Y-84833000D01*
X59238088Y-84895832D01*
X58940537Y-85019082D01*
X58672748Y-85198013D01*
X58445013Y-85425748D01*
X58266082Y-85693537D01*
X58142832Y-85991088D01*
X58080000Y-86306967D01*
X58080000Y-86629033D01*
X58142832Y-86944912D01*
X58266082Y-87242463D01*
X58445013Y-87510252D01*
X58672748Y-87737987D01*
X58889009Y-87882488D01*
X58790518Y-87892188D01*
X58670820Y-87928498D01*
X58560506Y-87987463D01*
X58463815Y-88066815D01*
X58384463Y-88163506D01*
X58325498Y-88273820D01*
X58289188Y-88393518D01*
X58276928Y-88518000D01*
X58280000Y-89619750D01*
X58438750Y-89778500D01*
X59588000Y-89778500D01*
X59588000Y-89758500D01*
X59842000Y-89758500D01*
X59842000Y-89778500D01*
X59862000Y-89778500D01*
X59862000Y-90032500D01*
X59842000Y-90032500D01*
X59842000Y-91769250D01*
X60000750Y-91928000D01*
X60080011Y-91928473D01*
X60080011Y-92004928D01*
X59165000Y-92004928D01*
X58991746Y-92021992D01*
X58825150Y-92072528D01*
X58671614Y-92154595D01*
X58537038Y-92265038D01*
X58426595Y-92399614D01*
X58344528Y-92553150D01*
X58293992Y-92719746D01*
X58276928Y-92893000D01*
X58276928Y-95168000D01*
X58293992Y-95341254D01*
X58344528Y-95507850D01*
X58426595Y-95661386D01*
X58537038Y-95795962D01*
X58671614Y-95906405D01*
X58825150Y-95988472D01*
X58955001Y-96027861D01*
X58955001Y-96509681D01*
X58912650Y-96522528D01*
X58759114Y-96604595D01*
X58624538Y-96715038D01*
X58514095Y-96849614D01*
X58432028Y-97003150D01*
X58381492Y-97169746D01*
X58364428Y-97343000D01*
X58364428Y-98593000D01*
X58381492Y-98766254D01*
X58432028Y-98932850D01*
X58514095Y-99086386D01*
X58624538Y-99220962D01*
X58759114Y-99331405D01*
X58912650Y-99413472D01*
X59079246Y-99464008D01*
X59252500Y-99481072D01*
X60177500Y-99481072D01*
X60350754Y-99464008D01*
X60517350Y-99413472D01*
X60670886Y-99331405D01*
X60805462Y-99220962D01*
X60915905Y-99086386D01*
X60997972Y-98932850D01*
X61048508Y-98766254D01*
X61065572Y-98593000D01*
X61065572Y-98053927D01*
X63182963Y-100171319D01*
X63182500Y-100173645D01*
X63182500Y-100486355D01*
X63243507Y-100793057D01*
X63363176Y-101081963D01*
X63536908Y-101341972D01*
X63758028Y-101563092D01*
X63813265Y-101600000D01*
X63758028Y-101636908D01*
X63536908Y-101858028D01*
X63363176Y-102118037D01*
X63243507Y-102406943D01*
X63182500Y-102713645D01*
X63182500Y-102812499D01*
X61057348Y-102812499D01*
X61065572Y-102729000D01*
X61062500Y-102139750D01*
X60903750Y-101981000D01*
X59842000Y-101981000D01*
X59842000Y-102001000D01*
X59588000Y-102001000D01*
X59588000Y-101981000D01*
X58526250Y-101981000D01*
X58367500Y-102139750D01*
X58364428Y-102729000D01*
X58372652Y-102812499D01*
X58024899Y-102812499D01*
X58073508Y-102652254D01*
X58090572Y-102479000D01*
X58090572Y-101229000D01*
X58073508Y-101055746D01*
X58050228Y-100979000D01*
X58364428Y-100979000D01*
X58367500Y-101568250D01*
X58526250Y-101727000D01*
X59588000Y-101727000D01*
X59588000Y-100502750D01*
X59842000Y-100502750D01*
X59842000Y-101727000D01*
X60903750Y-101727000D01*
X61062500Y-101568250D01*
X61065572Y-100979000D01*
X61053312Y-100854518D01*
X61017002Y-100734820D01*
X60958037Y-100624506D01*
X60878685Y-100527815D01*
X60781994Y-100448463D01*
X60671680Y-100389498D01*
X60551982Y-100353188D01*
X60427500Y-100340928D01*
X60000750Y-100344000D01*
X59842000Y-100502750D01*
X59588000Y-100502750D01*
X59429250Y-100344000D01*
X59002500Y-100340928D01*
X58878018Y-100353188D01*
X58758320Y-100389498D01*
X58648006Y-100448463D01*
X58551315Y-100527815D01*
X58471963Y-100624506D01*
X58412998Y-100734820D01*
X58376688Y-100854518D01*
X58364428Y-100979000D01*
X58050228Y-100979000D01*
X58022972Y-100889150D01*
X57940905Y-100735614D01*
X57830462Y-100601038D01*
X57695886Y-100490595D01*
X57542350Y-100408528D01*
X57500000Y-100395681D01*
X57500000Y-99426319D01*
X57542350Y-99413472D01*
X57695886Y-99331405D01*
X57830462Y-99220962D01*
X57940905Y-99086386D01*
X58022972Y-98932850D01*
X58073508Y-98766254D01*
X58090572Y-98593000D01*
X58090572Y-97343000D01*
X58073508Y-97169746D01*
X58022972Y-97003150D01*
X57940905Y-96849614D01*
X57830462Y-96715038D01*
X57695886Y-96604595D01*
X57542350Y-96522528D01*
X57375754Y-96471992D01*
X57202500Y-96454928D01*
X56462490Y-96454928D01*
X56462490Y-96263594D01*
X56467376Y-96213989D01*
X56462490Y-96164382D01*
X56447875Y-96015996D01*
X56390122Y-95825610D01*
X56296337Y-95650150D01*
X56170123Y-95496357D01*
X56131584Y-95464729D01*
X54707072Y-94040217D01*
X54707072Y-94020784D01*
X54818256Y-93909600D01*
X54818261Y-93909594D01*
X55323104Y-93404751D01*
X55361643Y-93373123D01*
X55487857Y-93219330D01*
X55581642Y-93043870D01*
X55639395Y-92853484D01*
X55654010Y-92705098D01*
X55658896Y-92655490D01*
X55654010Y-92605882D01*
X55654010Y-91293000D01*
X58276928Y-91293000D01*
X58289188Y-91417482D01*
X58325498Y-91537180D01*
X58384463Y-91647494D01*
X58463815Y-91744185D01*
X58560506Y-91823537D01*
X58670820Y-91882502D01*
X58790518Y-91918812D01*
X58915000Y-91931072D01*
X59429250Y-91928000D01*
X59588000Y-91769250D01*
X59588000Y-90032500D01*
X58438750Y-90032500D01*
X58280000Y-90191250D01*
X58276928Y-91293000D01*
X55654010Y-91293000D01*
X55654010Y-87892618D01*
X55658896Y-87843010D01*
X55639395Y-87645015D01*
X55581642Y-87454630D01*
X55487856Y-87279169D01*
X55393266Y-87163910D01*
X55361643Y-87125377D01*
X55323109Y-87093753D01*
X54896433Y-86667077D01*
X54904000Y-86629033D01*
X54904000Y-86306967D01*
X54841168Y-85991088D01*
X54717918Y-85693537D01*
X54538987Y-85425748D01*
X54311252Y-85198013D01*
X54043463Y-85019082D01*
X53745912Y-84895832D01*
X53430033Y-84833000D01*
X53107967Y-84833000D01*
X52792088Y-84895832D01*
X52494537Y-85019082D01*
X52226748Y-85198013D01*
X51999013Y-85425748D01*
X51820082Y-85693537D01*
X51696832Y-85991088D01*
X51634000Y-86306967D01*
X46380000Y-86306967D01*
X46380000Y-81306967D01*
X51634000Y-81306967D01*
X51634000Y-81629033D01*
X51696832Y-81944912D01*
X51820082Y-82242463D01*
X51999013Y-82510252D01*
X52226748Y-82737987D01*
X52494537Y-82916918D01*
X52792088Y-83040168D01*
X53107967Y-83103000D01*
X53430033Y-83103000D01*
X53745912Y-83040168D01*
X54043463Y-82916918D01*
X54311252Y-82737987D01*
X54538987Y-82510252D01*
X54717918Y-82242463D01*
X54841168Y-81944912D01*
X54904000Y-81629033D01*
X54904000Y-81306967D01*
X54896433Y-81268923D01*
X55924100Y-80241256D01*
X55962633Y-80209633D01*
X56088847Y-80055840D01*
X56182632Y-79880380D01*
X56240385Y-79689994D01*
X56255000Y-79541608D01*
X56259886Y-79492000D01*
X56255000Y-79442392D01*
X56255000Y-73499341D01*
X56314364Y-73439977D01*
X56331898Y-73497780D01*
X56390863Y-73608094D01*
X56470215Y-73704785D01*
X56566906Y-73784137D01*
X56677220Y-73843102D01*
X56796918Y-73879412D01*
X56921400Y-73891672D01*
X58648600Y-73891672D01*
X58705001Y-73886117D01*
X58705001Y-80176462D01*
X58672748Y-80198013D01*
X58445013Y-80425748D01*
X58266082Y-80693537D01*
X58142832Y-80991088D01*
X58080000Y-81306967D01*
X58080000Y-81629033D01*
X58142832Y-81944912D01*
X58266082Y-82242463D01*
X58445013Y-82510252D01*
X58672748Y-82737987D01*
X58940537Y-82916918D01*
X59238088Y-83040168D01*
X59553967Y-83103000D01*
X59876033Y-83103000D01*
X60191912Y-83040168D01*
X60489463Y-82916918D01*
X60757252Y-82737987D01*
X60984987Y-82510252D01*
X61163918Y-82242463D01*
X61287168Y-81944912D01*
X61350000Y-81629033D01*
X61350000Y-81306967D01*
X61287168Y-80991088D01*
X61163918Y-80693537D01*
X60984987Y-80425748D01*
X60757252Y-80198013D01*
X60725000Y-80176463D01*
X60725000Y-64837474D01*
X63201123Y-64837474D01*
X63244328Y-65147185D01*
X63347123Y-65442516D01*
X63433919Y-65604902D01*
X63693465Y-65694930D01*
X64615395Y-64773000D01*
X63693465Y-63851070D01*
X63433919Y-63941098D01*
X63297776Y-64222616D01*
X63219171Y-64525286D01*
X63201123Y-64837474D01*
X60725000Y-64837474D01*
X60725000Y-64209604D01*
X60729886Y-64159999D01*
X60725000Y-64110392D01*
X60710385Y-63962006D01*
X60652632Y-63771620D01*
X60558847Y-63596160D01*
X60432633Y-63442367D01*
X60394094Y-63410739D01*
X59283600Y-62300245D01*
X59283600Y-62082401D01*
X59226010Y-61792875D01*
X59113042Y-61520147D01*
X58949039Y-61274698D01*
X58740302Y-61065961D01*
X58494853Y-60901958D01*
X58222125Y-60788990D01*
X57932599Y-60731400D01*
X57637401Y-60731400D01*
X57347875Y-60788990D01*
X57075147Y-60901958D01*
X56829698Y-61065961D01*
X56675659Y-61220000D01*
X56354341Y-61220000D01*
X56200302Y-61065961D01*
X55954853Y-60901958D01*
X55682125Y-60788990D01*
X55392599Y-60731400D01*
X55097401Y-60731400D01*
X54807875Y-60788990D01*
X54535147Y-60901958D01*
X54289698Y-61065961D01*
X54080961Y-61274698D01*
X53916958Y-61520147D01*
X53803990Y-61792875D01*
X53746400Y-62082401D01*
X53746400Y-62377599D01*
X53803990Y-62667125D01*
X53916958Y-62939853D01*
X54080961Y-63185302D01*
X54289698Y-63394039D01*
X54455103Y-63504559D01*
X54356512Y-63563183D01*
X54138146Y-63759707D01*
X53962316Y-63995056D01*
X53835778Y-64260186D01*
X53790042Y-64410974D01*
X53911183Y-64643000D01*
X55118000Y-64643000D01*
X55118000Y-64623000D01*
X55372000Y-64623000D01*
X55372000Y-64643000D01*
X57658000Y-64643000D01*
X57658000Y-64623000D01*
X57912000Y-64623000D01*
X57912000Y-64643000D01*
X57932000Y-64643000D01*
X57932000Y-64897000D01*
X57912000Y-64897000D01*
X57912000Y-67183000D01*
X57932000Y-67183000D01*
X57932000Y-67437000D01*
X57912000Y-67437000D01*
X57912000Y-69723000D01*
X57932000Y-69723000D01*
X57932000Y-69977000D01*
X57912000Y-69977000D01*
X57912000Y-69997000D01*
X57658000Y-69997000D01*
X57658000Y-69977000D01*
X55372000Y-69977000D01*
X55372000Y-69997000D01*
X55118000Y-69997000D01*
X55118000Y-69977000D01*
X53911183Y-69977000D01*
X53790042Y-70209026D01*
X53835778Y-70359814D01*
X53962316Y-70624944D01*
X54138146Y-70860293D01*
X54356512Y-71056817D01*
X54455103Y-71115441D01*
X54289698Y-71225961D01*
X54080961Y-71434698D01*
X53916958Y-71680147D01*
X53803990Y-71952875D01*
X53746400Y-72242401D01*
X53746400Y-72537599D01*
X53803990Y-72827125D01*
X53916958Y-73099853D01*
X54080961Y-73345302D01*
X54235000Y-73499341D01*
X54235001Y-79073643D01*
X53468077Y-79840567D01*
X53430033Y-79833000D01*
X53107967Y-79833000D01*
X52792088Y-79895832D01*
X52494537Y-80019082D01*
X52226748Y-80198013D01*
X51999013Y-80425748D01*
X51820082Y-80693537D01*
X51696832Y-80991088D01*
X51634000Y-81306967D01*
X46380000Y-81306967D01*
X46380000Y-67669026D01*
X53790042Y-67669026D01*
X53835778Y-67819814D01*
X53962316Y-68084944D01*
X54138146Y-68320293D01*
X54356512Y-68516817D01*
X54462770Y-68580000D01*
X54356512Y-68643183D01*
X54138146Y-68839707D01*
X53962316Y-69075056D01*
X53835778Y-69340186D01*
X53790042Y-69490974D01*
X53911183Y-69723000D01*
X55118000Y-69723000D01*
X55118000Y-67437000D01*
X55372000Y-67437000D01*
X55372000Y-69723000D01*
X57658000Y-69723000D01*
X57658000Y-67437000D01*
X55372000Y-67437000D01*
X55118000Y-67437000D01*
X53911183Y-67437000D01*
X53790042Y-67669026D01*
X46380000Y-67669026D01*
X46380000Y-65129026D01*
X53790042Y-65129026D01*
X53835778Y-65279814D01*
X53962316Y-65544944D01*
X54138146Y-65780293D01*
X54356512Y-65976817D01*
X54462770Y-66040000D01*
X54356512Y-66103183D01*
X54138146Y-66299707D01*
X53962316Y-66535056D01*
X53835778Y-66800186D01*
X53790042Y-66950974D01*
X53911183Y-67183000D01*
X55118000Y-67183000D01*
X55118000Y-64897000D01*
X55372000Y-64897000D01*
X55372000Y-67183000D01*
X57658000Y-67183000D01*
X57658000Y-64897000D01*
X55372000Y-64897000D01*
X55118000Y-64897000D01*
X53911183Y-64897000D01*
X53790042Y-65129026D01*
X46380000Y-65129026D01*
X46380000Y-57442845D01*
X46876761Y-57442845D01*
X47044802Y-57768643D01*
X47436607Y-57969426D01*
X47860055Y-58089914D01*
X48298873Y-58125476D01*
X48736197Y-58074746D01*
X49155221Y-57939674D01*
X49475198Y-57768643D01*
X49643239Y-57442845D01*
X142126761Y-57442845D01*
X142294802Y-57768643D01*
X142686607Y-57969426D01*
X143110055Y-58089914D01*
X143548873Y-58125476D01*
X143986197Y-58074746D01*
X144405221Y-57939674D01*
X144725198Y-57768643D01*
X144893239Y-57442845D01*
X143510000Y-56059605D01*
X142126761Y-57442845D01*
X49643239Y-57442845D01*
X48260000Y-56059605D01*
X46876761Y-57442845D01*
X46380000Y-57442845D01*
X46380000Y-57099656D01*
X46697155Y-57263239D01*
X48080395Y-55880000D01*
X48439605Y-55880000D01*
X49822845Y-57263239D01*
X50148643Y-57095198D01*
X50349426Y-56703393D01*
X50469914Y-56279945D01*
X50499175Y-55918873D01*
X141264524Y-55918873D01*
X141315254Y-56356197D01*
X141450326Y-56775221D01*
X141621357Y-57095198D01*
X141947155Y-57263239D01*
X143330395Y-55880000D01*
X141947155Y-54496761D01*
X141621357Y-54664802D01*
X141420574Y-55056607D01*
X141300086Y-55480055D01*
X141264524Y-55918873D01*
X50499175Y-55918873D01*
X50505476Y-55841127D01*
X50454746Y-55403803D01*
X50319674Y-54984779D01*
X50148643Y-54664802D01*
X49822845Y-54496761D01*
X48439605Y-55880000D01*
X48080395Y-55880000D01*
X46697155Y-54496761D01*
X46380000Y-54660344D01*
X46380000Y-54000000D01*
X47040344Y-54000000D01*
X46876761Y-54317155D01*
G37*
X46876761Y-54317155D02*
X48260000Y-55700395D01*
X49643239Y-54317155D01*
X49479656Y-54000000D01*
X142290344Y-54000000D01*
X142126761Y-54317155D01*
X143510000Y-55700395D01*
X144893239Y-54317155D01*
X144729656Y-54000000D01*
X145390000Y-54000000D01*
X145390000Y-54660344D01*
X145072845Y-54496761D01*
X143689605Y-55880000D01*
X145072845Y-57263239D01*
X145390000Y-57099656D01*
X145390001Y-105460345D01*
X145072845Y-105296761D01*
X143689605Y-106680000D01*
X145072845Y-108063239D01*
X145390001Y-107899655D01*
X145390001Y-108560000D01*
X144729656Y-108560000D01*
X144893239Y-108242845D01*
X143510000Y-106859605D01*
X142126761Y-108242845D01*
X142290344Y-108560000D01*
X49479656Y-108560000D01*
X49643239Y-108242845D01*
X48260000Y-106859605D01*
X46876761Y-108242845D01*
X47040344Y-108560000D01*
X46380000Y-108560000D01*
X46380000Y-107899656D01*
X46697155Y-108063239D01*
X48080395Y-106680000D01*
X48439605Y-106680000D01*
X49822845Y-108063239D01*
X50148643Y-107895198D01*
X50349426Y-107503393D01*
X50469914Y-107079945D01*
X50499175Y-106718873D01*
X141264524Y-106718873D01*
X141315254Y-107156197D01*
X141450326Y-107575221D01*
X141621357Y-107895198D01*
X141947155Y-108063239D01*
X143330395Y-106680000D01*
X141947155Y-105296761D01*
X141621357Y-105464802D01*
X141420574Y-105856607D01*
X141300086Y-106280055D01*
X141264524Y-106718873D01*
X50499175Y-106718873D01*
X50505476Y-106641127D01*
X50454746Y-106203803D01*
X50319674Y-105784779D01*
X50148643Y-105464802D01*
X49822845Y-105296761D01*
X48439605Y-106680000D01*
X48080395Y-106680000D01*
X46697155Y-105296761D01*
X46380000Y-105460344D01*
X46380000Y-105117155D01*
X46876761Y-105117155D01*
X48260000Y-106500395D01*
X49643239Y-105117155D01*
X142126761Y-105117155D01*
X143510000Y-106500395D01*
X144893239Y-105117155D01*
X144725198Y-104791357D01*
X144333393Y-104590574D01*
X143909945Y-104470086D01*
X143471127Y-104434524D01*
X143033803Y-104485254D01*
X142614779Y-104620326D01*
X142294802Y-104791357D01*
X142126761Y-105117155D01*
X49643239Y-105117155D01*
X49475198Y-104791357D01*
X49083393Y-104590574D01*
X48659945Y-104470086D01*
X48221127Y-104434524D01*
X47783803Y-104485254D01*
X47364779Y-104620326D01*
X47044802Y-104791357D01*
X46876761Y-105117155D01*
X46380000Y-105117155D01*
X46380000Y-97343000D01*
X48918428Y-97343000D01*
X48918428Y-98593000D01*
X48935492Y-98766254D01*
X48986028Y-98932850D01*
X49068095Y-99086386D01*
X49178538Y-99220962D01*
X49313114Y-99331405D01*
X49466650Y-99413472D01*
X49509000Y-99426319D01*
X49509001Y-100395681D01*
X49466650Y-100408528D01*
X49313114Y-100490595D01*
X49178538Y-100601038D01*
X49068095Y-100735614D01*
X48986028Y-100889150D01*
X48935492Y-101055746D01*
X48918428Y-101229000D01*
X48918428Y-102479000D01*
X48935492Y-102652254D01*
X48986028Y-102818850D01*
X49068095Y-102972386D01*
X49178538Y-103106962D01*
X49313114Y-103217405D01*
X49466650Y-103299472D01*
X49633246Y-103350008D01*
X49806500Y-103367072D01*
X50731500Y-103367072D01*
X50904754Y-103350008D01*
X51071350Y-103299472D01*
X51224886Y-103217405D01*
X51359462Y-103106962D01*
X51469905Y-102972386D01*
X51551972Y-102818850D01*
X51579227Y-102729000D01*
X51893428Y-102729000D01*
X51905688Y-102853482D01*
X51941998Y-102973180D01*
X52000963Y-103083494D01*
X52080315Y-103180185D01*
X52177006Y-103259537D01*
X52287320Y-103318502D01*
X52407018Y-103354812D01*
X52531500Y-103367072D01*
X52958250Y-103364000D01*
X53117000Y-103205250D01*
X53117000Y-101981000D01*
X52055250Y-101981000D01*
X51896500Y-102139750D01*
X51893428Y-102729000D01*
X51579227Y-102729000D01*
X51602508Y-102652254D01*
X51619572Y-102479000D01*
X51619572Y-101229000D01*
X51602508Y-101055746D01*
X51579228Y-100979000D01*
X51893428Y-100979000D01*
X51896500Y-101568250D01*
X52055250Y-101727000D01*
X53117000Y-101727000D01*
X53117000Y-100502750D01*
X52958250Y-100344000D01*
X52531500Y-100340928D01*
X52407018Y-100353188D01*
X52287320Y-100389498D01*
X52177006Y-100448463D01*
X52080315Y-100527815D01*
X52000963Y-100624506D01*
X51941998Y-100734820D01*
X51905688Y-100854518D01*
X51893428Y-100979000D01*
X51579228Y-100979000D01*
X51551972Y-100889150D01*
X51469905Y-100735614D01*
X51359462Y-100601038D01*
X51224886Y-100490595D01*
X51071350Y-100408528D01*
X51029000Y-100395681D01*
X51029000Y-99426319D01*
X51071350Y-99413472D01*
X51224886Y-99331405D01*
X51359462Y-99220962D01*
X51469905Y-99086386D01*
X51551972Y-98932850D01*
X51602508Y-98766254D01*
X51619572Y-98593000D01*
X51619572Y-97343000D01*
X51602508Y-97169746D01*
X51551972Y-97003150D01*
X51469905Y-96849614D01*
X51359462Y-96715038D01*
X51224886Y-96604595D01*
X51071350Y-96522528D01*
X50904754Y-96471992D01*
X50731500Y-96454928D01*
X49806500Y-96454928D01*
X49633246Y-96471992D01*
X49466650Y-96522528D01*
X49313114Y-96604595D01*
X49178538Y-96715038D01*
X49068095Y-96849614D01*
X48986028Y-97003150D01*
X48935492Y-97169746D01*
X48918428Y-97343000D01*
X46380000Y-97343000D01*
X46380000Y-91293000D01*
X51830928Y-91293000D01*
X51843188Y-91417482D01*
X51879498Y-91537180D01*
X51938463Y-91647494D01*
X52017815Y-91744185D01*
X52114506Y-91823537D01*
X52224820Y-91882502D01*
X52344518Y-91918812D01*
X52469000Y-91931072D01*
X52983250Y-91928000D01*
X53142000Y-91769250D01*
X53142000Y-90032500D01*
X51992750Y-90032500D01*
X51834000Y-90191250D01*
X51830928Y-91293000D01*
X46380000Y-91293000D01*
X46380000Y-86306967D01*
X51634000Y-86306967D01*
X51634000Y-86629033D01*
X51696832Y-86944912D01*
X51820082Y-87242463D01*
X51999013Y-87510252D01*
X52226748Y-87737987D01*
X52443009Y-87882488D01*
X52344518Y-87892188D01*
X52224820Y-87928498D01*
X52114506Y-87987463D01*
X52017815Y-88066815D01*
X51938463Y-88163506D01*
X51879498Y-88273820D01*
X51843188Y-88393518D01*
X51830928Y-88518000D01*
X51834000Y-89619750D01*
X51992750Y-89778500D01*
X53142000Y-89778500D01*
X53142000Y-89758500D01*
X53396000Y-89758500D01*
X53396000Y-89778500D01*
X53416000Y-89778500D01*
X53416000Y-90032500D01*
X53396000Y-90032500D01*
X53396000Y-91769250D01*
X53554750Y-91928000D01*
X53634011Y-91928473D01*
X53634011Y-92004928D01*
X52719000Y-92004928D01*
X52545746Y-92021992D01*
X52379150Y-92072528D01*
X52225614Y-92154595D01*
X52091038Y-92265038D01*
X51980595Y-92399614D01*
X51898528Y-92553150D01*
X51847992Y-92719746D01*
X51830928Y-92893000D01*
X51830928Y-95168000D01*
X51847992Y-95341254D01*
X51898528Y-95507850D01*
X51980595Y-95661386D01*
X52091038Y-95795962D01*
X52225614Y-95906405D01*
X52379150Y-95988472D01*
X52509001Y-96027861D01*
X52509001Y-96502098D01*
X52441650Y-96522528D01*
X52288114Y-96604595D01*
X52153538Y-96715038D01*
X52043095Y-96849614D01*
X51961028Y-97003150D01*
X51910492Y-97169746D01*
X51893428Y-97343000D01*
X51893428Y-98593000D01*
X51910492Y-98766254D01*
X51961028Y-98932850D01*
X52043095Y-99086386D01*
X52153538Y-99220962D01*
X52288114Y-99331405D01*
X52441650Y-99413472D01*
X52608246Y-99464008D01*
X52781500Y-99481072D01*
X53706500Y-99481072D01*
X53879754Y-99464008D01*
X54046350Y-99413472D01*
X54199886Y-99331405D01*
X54334462Y-99220962D01*
X54442490Y-99089328D01*
X54442491Y-100570226D01*
X54407685Y-100527815D01*
X54310994Y-100448463D01*
X54200680Y-100389498D01*
X54080982Y-100353188D01*
X53956500Y-100340928D01*
X53529750Y-100344000D01*
X53371000Y-100502750D01*
X53371000Y-101727000D01*
X53391000Y-101727000D01*
X53391000Y-101981000D01*
X53371000Y-101981000D01*
X53371000Y-103205250D01*
X53529750Y-103364000D01*
X53956500Y-103367072D01*
X54080982Y-103354812D01*
X54200680Y-103318502D01*
X54310994Y-103259537D01*
X54407685Y-103180185D01*
X54479527Y-103092644D01*
X54514858Y-103209113D01*
X54563156Y-103299472D01*
X54608644Y-103384574D01*
X54734858Y-103538367D01*
X54773391Y-103569990D01*
X55704998Y-104501598D01*
X55736622Y-104540132D01*
X55890415Y-104666346D01*
X56065875Y-104760131D01*
X56256260Y-104817884D01*
X56454255Y-104837385D01*
X56503863Y-104832499D01*
X63767893Y-104832499D01*
X63817501Y-104837385D01*
X64015495Y-104817884D01*
X64205881Y-104760131D01*
X64381341Y-104666346D01*
X64535134Y-104540132D01*
X64566763Y-104501592D01*
X64611318Y-104457037D01*
X64613645Y-104457500D01*
X64926355Y-104457500D01*
X65233057Y-104396493D01*
X65521963Y-104276824D01*
X65536666Y-104267000D01*
X66543334Y-104267000D01*
X66558037Y-104276824D01*
X66846943Y-104396493D01*
X67153645Y-104457500D01*
X67466355Y-104457500D01*
X67773057Y-104396493D01*
X68061963Y-104276824D01*
X68076666Y-104267000D01*
X69083334Y-104267000D01*
X69098037Y-104276824D01*
X69386943Y-104396493D01*
X69693645Y-104457500D01*
X70006355Y-104457500D01*
X70313057Y-104396493D01*
X70601963Y-104276824D01*
X70616666Y-104267000D01*
X71623334Y-104267000D01*
X71638037Y-104276824D01*
X71926943Y-104396493D01*
X72233645Y-104457500D01*
X72546355Y-104457500D01*
X72853057Y-104396493D01*
X73141963Y-104276824D01*
X73156666Y-104267000D01*
X74163334Y-104267000D01*
X74178037Y-104276824D01*
X74466943Y-104396493D01*
X74773645Y-104457500D01*
X75086355Y-104457500D01*
X75393057Y-104396493D01*
X75681963Y-104276824D01*
X75696666Y-104267000D01*
X76703334Y-104267000D01*
X76718037Y-104276824D01*
X77006943Y-104396493D01*
X77313645Y-104457500D01*
X77626355Y-104457500D01*
X77933057Y-104396493D01*
X78221963Y-104276824D01*
X78236666Y-104267000D01*
X79243334Y-104267000D01*
X79258037Y-104276824D01*
X79546943Y-104396493D01*
X79853645Y-104457500D01*
X80166355Y-104457500D01*
X80473057Y-104396493D01*
X80761963Y-104276824D01*
X80776666Y-104267000D01*
X81783334Y-104267000D01*
X81798037Y-104276824D01*
X82086943Y-104396493D01*
X82393645Y-104457500D01*
X82706355Y-104457500D01*
X83013057Y-104396493D01*
X83301963Y-104276824D01*
X83316666Y-104267000D01*
X84323334Y-104267000D01*
X84338037Y-104276824D01*
X84626943Y-104396493D01*
X84933645Y-104457500D01*
X85246355Y-104457500D01*
X85553057Y-104396493D01*
X85841963Y-104276824D01*
X85856666Y-104267000D01*
X86863334Y-104267000D01*
X86878037Y-104276824D01*
X87166943Y-104396493D01*
X87473645Y-104457500D01*
X87786355Y-104457500D01*
X88093057Y-104396493D01*
X88381963Y-104276824D01*
X88396666Y-104267000D01*
X89403334Y-104267000D01*
X89418037Y-104276824D01*
X89706943Y-104396493D01*
X90013645Y-104457500D01*
X90326355Y-104457500D01*
X90633057Y-104396493D01*
X90921963Y-104276824D01*
X90936666Y-104267000D01*
X91943334Y-104267000D01*
X91958037Y-104276824D01*
X92246943Y-104396493D01*
X92553645Y-104457500D01*
X92866355Y-104457500D01*
X93173057Y-104396493D01*
X93461963Y-104276824D01*
X93476666Y-104267000D01*
X94483334Y-104267000D01*
X94498037Y-104276824D01*
X94786943Y-104396493D01*
X95093645Y-104457500D01*
X95406355Y-104457500D01*
X95713057Y-104396493D01*
X96001963Y-104276824D01*
X96016666Y-104267000D01*
X97023334Y-104267000D01*
X97038037Y-104276824D01*
X97326943Y-104396493D01*
X97633645Y-104457500D01*
X97946355Y-104457500D01*
X98253057Y-104396493D01*
X98541963Y-104276824D01*
X98556666Y-104267000D01*
X99563334Y-104267000D01*
X99578037Y-104276824D01*
X99866943Y-104396493D01*
X100173645Y-104457500D01*
X100486355Y-104457500D01*
X100793057Y-104396493D01*
X101081963Y-104276824D01*
X101096666Y-104267000D01*
X102103334Y-104267000D01*
X102118037Y-104276824D01*
X102406943Y-104396493D01*
X102713645Y-104457500D01*
X103026355Y-104457500D01*
X103333057Y-104396493D01*
X103621963Y-104276824D01*
X103636666Y-104267000D01*
X104643334Y-104267000D01*
X104658037Y-104276824D01*
X104946943Y-104396493D01*
X105253645Y-104457500D01*
X105566355Y-104457500D01*
X105873057Y-104396493D01*
X106161963Y-104276824D01*
X106176666Y-104267000D01*
X107183334Y-104267000D01*
X107198037Y-104276824D01*
X107486943Y-104396493D01*
X107793645Y-104457500D01*
X108106355Y-104457500D01*
X108413057Y-104396493D01*
X108701963Y-104276824D01*
X108716666Y-104267000D01*
X109723334Y-104267000D01*
X109738037Y-104276824D01*
X110026943Y-104396493D01*
X110333645Y-104457500D01*
X110646355Y-104457500D01*
X110953057Y-104396493D01*
X111241963Y-104276824D01*
X111256666Y-104267000D01*
X112263334Y-104267000D01*
X112278037Y-104276824D01*
X112566943Y-104396493D01*
X112873645Y-104457500D01*
X113186355Y-104457500D01*
X113493057Y-104396493D01*
X113781963Y-104276824D01*
X113796666Y-104267000D01*
X114803334Y-104267000D01*
X114818037Y-104276824D01*
X115106943Y-104396493D01*
X115413645Y-104457500D01*
X115726355Y-104457500D01*
X116033057Y-104396493D01*
X116321963Y-104276824D01*
X116336666Y-104267000D01*
X117343334Y-104267000D01*
X117358037Y-104276824D01*
X117646943Y-104396493D01*
X117953645Y-104457500D01*
X118266355Y-104457500D01*
X118573057Y-104396493D01*
X118861963Y-104276824D01*
X118876666Y-104267000D01*
X119883334Y-104267000D01*
X119898037Y-104276824D01*
X120186943Y-104396493D01*
X120493645Y-104457500D01*
X120806355Y-104457500D01*
X121113057Y-104396493D01*
X121401963Y-104276824D01*
X121416666Y-104267000D01*
X122423334Y-104267000D01*
X122438037Y-104276824D01*
X122726943Y-104396493D01*
X123033645Y-104457500D01*
X123346355Y-104457500D01*
X123653057Y-104396493D01*
X123941963Y-104276824D01*
X123956666Y-104267000D01*
X124963334Y-104267000D01*
X124978037Y-104276824D01*
X125266943Y-104396493D01*
X125573645Y-104457500D01*
X125886355Y-104457500D01*
X126193057Y-104396493D01*
X126481963Y-104276824D01*
X126496666Y-104267000D01*
X127503334Y-104267000D01*
X127518037Y-104276824D01*
X127806943Y-104396493D01*
X128113645Y-104457500D01*
X128426355Y-104457500D01*
X128733057Y-104396493D01*
X129021963Y-104276824D01*
X129036666Y-104267000D01*
X130043334Y-104267000D01*
X130058037Y-104276824D01*
X130346943Y-104396493D01*
X130653645Y-104457500D01*
X130966355Y-104457500D01*
X131273057Y-104396493D01*
X131561963Y-104276824D01*
X131576666Y-104267000D01*
X132583334Y-104267000D01*
X132598037Y-104276824D01*
X132886943Y-104396493D01*
X133193645Y-104457500D01*
X133506355Y-104457500D01*
X133813057Y-104396493D01*
X134101963Y-104276824D01*
X134116666Y-104267000D01*
X135123334Y-104267000D01*
X135138037Y-104276824D01*
X135426943Y-104396493D01*
X135733645Y-104457500D01*
X136046355Y-104457500D01*
X136353057Y-104396493D01*
X136641963Y-104276824D01*
X136656666Y-104267000D01*
X137663334Y-104267000D01*
X137678037Y-104276824D01*
X137966943Y-104396493D01*
X138273645Y-104457500D01*
X138586355Y-104457500D01*
X138893057Y-104396493D01*
X139181963Y-104276824D01*
X139441972Y-104103092D01*
X139663092Y-103881972D01*
X139836824Y-103621963D01*
X139956493Y-103333057D01*
X140017500Y-103026355D01*
X140017500Y-102713645D01*
X139956493Y-102406943D01*
X139836824Y-102118037D01*
X139663092Y-101858028D01*
X139441972Y-101636908D01*
X139386735Y-101600000D01*
X139441972Y-101563092D01*
X139663092Y-101341972D01*
X139700000Y-101286735D01*
X139736908Y-101341972D01*
X139958028Y-101563092D01*
X140218037Y-101736824D01*
X140506943Y-101856493D01*
X140813645Y-101917500D01*
X141126355Y-101917500D01*
X141433057Y-101856493D01*
X141721963Y-101736824D01*
X141981972Y-101563092D01*
X142203092Y-101341972D01*
X142376824Y-101081963D01*
X142496493Y-100793057D01*
X142557500Y-100486355D01*
X142557500Y-100173645D01*
X142496493Y-99866943D01*
X142376824Y-99578037D01*
X142203092Y-99318028D01*
X141981972Y-99096908D01*
X141851039Y-99009422D01*
X141891930Y-98891535D01*
X140970000Y-97969605D01*
X140048070Y-98891535D01*
X140088961Y-99009422D01*
X139958028Y-99096908D01*
X139736908Y-99318028D01*
X139700000Y-99373265D01*
X139663092Y-99318028D01*
X139441972Y-99096908D01*
X139311039Y-99009422D01*
X139351930Y-98891535D01*
X138557000Y-98096605D01*
X138557000Y-97790000D01*
X138609605Y-97790000D01*
X139531535Y-98711930D01*
X139700000Y-98653495D01*
X139868465Y-98711930D01*
X140790395Y-97790000D01*
X141149605Y-97790000D01*
X142071535Y-98711930D01*
X142331081Y-98621902D01*
X142467224Y-98340384D01*
X142545829Y-98037714D01*
X142563877Y-97725526D01*
X142520672Y-97415815D01*
X142417877Y-97120484D01*
X142331081Y-96958098D01*
X142071535Y-96868070D01*
X141149605Y-97790000D01*
X140790395Y-97790000D01*
X139868465Y-96868070D01*
X139700000Y-96926505D01*
X139531535Y-96868070D01*
X138609605Y-97790000D01*
X138557000Y-97790000D01*
X138557000Y-97483395D01*
X139351930Y-96688465D01*
X139311039Y-96570578D01*
X139441972Y-96483092D01*
X139663092Y-96261972D01*
X139702136Y-96203539D01*
X139724208Y-96236572D01*
X139945328Y-96457692D01*
X140093724Y-96556847D01*
X140048070Y-96688465D01*
X140970000Y-97610395D01*
X141891930Y-96688465D01*
X141841497Y-96543068D01*
X141969272Y-96457692D01*
X142190392Y-96236572D01*
X142364124Y-95976563D01*
X142483793Y-95687657D01*
X142544800Y-95380955D01*
X142544800Y-95068245D01*
X142483793Y-94761543D01*
X142364124Y-94472637D01*
X142190392Y-94212628D01*
X141969272Y-93991508D01*
X141914035Y-93954600D01*
X141969272Y-93917692D01*
X142190392Y-93696572D01*
X142364124Y-93436563D01*
X142483793Y-93147657D01*
X142544800Y-92840955D01*
X142544800Y-92528245D01*
X142483793Y-92221543D01*
X142364124Y-91932637D01*
X142190392Y-91672628D01*
X141969272Y-91451508D01*
X141914035Y-91414600D01*
X141969272Y-91377692D01*
X142190392Y-91156572D01*
X142364124Y-90896563D01*
X142483793Y-90607657D01*
X142544800Y-90300955D01*
X142544800Y-89988245D01*
X142483793Y-89681543D01*
X142364124Y-89392637D01*
X142190392Y-89132628D01*
X141969272Y-88911508D01*
X141914035Y-88874600D01*
X141969272Y-88837692D01*
X142190392Y-88616572D01*
X142364124Y-88356563D01*
X142483793Y-88067657D01*
X142544800Y-87760955D01*
X142544800Y-87448245D01*
X142483793Y-87141543D01*
X142364124Y-86852637D01*
X142190392Y-86592628D01*
X141969272Y-86371508D01*
X141914035Y-86334600D01*
X141969272Y-86297692D01*
X142190392Y-86076572D01*
X142364124Y-85816563D01*
X142483793Y-85527657D01*
X142544800Y-85220955D01*
X142544800Y-84908245D01*
X142483793Y-84601543D01*
X142364124Y-84312637D01*
X142190392Y-84052628D01*
X141969272Y-83831508D01*
X141914035Y-83794600D01*
X141969272Y-83757692D01*
X142190392Y-83536572D01*
X142364124Y-83276563D01*
X142483793Y-82987657D01*
X142544800Y-82680955D01*
X142544800Y-82368245D01*
X142483793Y-82061543D01*
X142364124Y-81772637D01*
X142190392Y-81512628D01*
X141969272Y-81291508D01*
X141914035Y-81254600D01*
X141969272Y-81217692D01*
X142190392Y-80996572D01*
X142364124Y-80736563D01*
X142483793Y-80447657D01*
X142544800Y-80140955D01*
X142544800Y-79828245D01*
X142483793Y-79521543D01*
X142364124Y-79232637D01*
X142190392Y-78972628D01*
X141969272Y-78751508D01*
X141914035Y-78714600D01*
X141969272Y-78677692D01*
X142190392Y-78456572D01*
X142364124Y-78196563D01*
X142483793Y-77907657D01*
X142544800Y-77600955D01*
X142544800Y-77288245D01*
X142483793Y-76981543D01*
X142364124Y-76692637D01*
X142190392Y-76432628D01*
X141969272Y-76211508D01*
X141914035Y-76174600D01*
X141969272Y-76137692D01*
X142190392Y-75916572D01*
X142364124Y-75656563D01*
X142483793Y-75367657D01*
X142544800Y-75060955D01*
X142544800Y-74748245D01*
X142483793Y-74441543D01*
X142364124Y-74152637D01*
X142190392Y-73892628D01*
X141969272Y-73671508D01*
X141914035Y-73634600D01*
X141969272Y-73597692D01*
X142190392Y-73376572D01*
X142364124Y-73116563D01*
X142483793Y-72827657D01*
X142544800Y-72520955D01*
X142544800Y-72208245D01*
X142483793Y-71901543D01*
X142364124Y-71612637D01*
X142190392Y-71352628D01*
X141969272Y-71131508D01*
X141914035Y-71094600D01*
X141969272Y-71057692D01*
X142190392Y-70836572D01*
X142364124Y-70576563D01*
X142483793Y-70287657D01*
X142544800Y-69980955D01*
X142544800Y-69668245D01*
X142483793Y-69361543D01*
X142364124Y-69072637D01*
X142190392Y-68812628D01*
X141969272Y-68591508D01*
X141914035Y-68554600D01*
X141969272Y-68517692D01*
X142190392Y-68296572D01*
X142364124Y-68036563D01*
X142483793Y-67747657D01*
X142544800Y-67440955D01*
X142544800Y-67128245D01*
X142483793Y-66821543D01*
X142364124Y-66532637D01*
X142190392Y-66272628D01*
X141969272Y-66051508D01*
X141876943Y-65989816D01*
X141916930Y-65874535D01*
X140995000Y-64952605D01*
X140073070Y-65874535D01*
X140098870Y-65948915D01*
X139945328Y-66051508D01*
X139724208Y-66272628D01*
X139687300Y-66327865D01*
X139650392Y-66272628D01*
X139429272Y-66051508D01*
X139336943Y-65989816D01*
X139376930Y-65874535D01*
X138557000Y-65054605D01*
X138557000Y-64773000D01*
X138634605Y-64773000D01*
X139556535Y-65694930D01*
X139725000Y-65636495D01*
X139893465Y-65694930D01*
X140815395Y-64773000D01*
X141174605Y-64773000D01*
X142096535Y-65694930D01*
X142356081Y-65604902D01*
X142492224Y-65323384D01*
X142570829Y-65020714D01*
X142588877Y-64708526D01*
X142545672Y-64398815D01*
X142442877Y-64103484D01*
X142356081Y-63941098D01*
X142096535Y-63851070D01*
X141174605Y-64773000D01*
X140815395Y-64773000D01*
X139893465Y-63851070D01*
X139725000Y-63909505D01*
X139556535Y-63851070D01*
X138634605Y-64773000D01*
X138557000Y-64773000D01*
X138557000Y-64491395D01*
X139376930Y-63671465D01*
X139330490Y-63537582D01*
X139441972Y-63463092D01*
X139663092Y-63241972D01*
X139700000Y-63186735D01*
X139736908Y-63241972D01*
X139958028Y-63463092D01*
X140110102Y-63564704D01*
X140073070Y-63671465D01*
X140995000Y-64593395D01*
X141916930Y-63671465D01*
X141870490Y-63537582D01*
X141981972Y-63463092D01*
X142203092Y-63241972D01*
X142376824Y-62981963D01*
X142496493Y-62693057D01*
X142557500Y-62386355D01*
X142557500Y-62073645D01*
X142496493Y-61766943D01*
X142376824Y-61478037D01*
X142203092Y-61218028D01*
X141981972Y-60996908D01*
X141721963Y-60823176D01*
X141433057Y-60703507D01*
X141126355Y-60642500D01*
X140813645Y-60642500D01*
X140506943Y-60703507D01*
X140218037Y-60823176D01*
X139958028Y-60996908D01*
X139736908Y-61218028D01*
X139700000Y-61273265D01*
X139663092Y-61218028D01*
X139441972Y-60996908D01*
X139386735Y-60960000D01*
X139441972Y-60923092D01*
X139663092Y-60701972D01*
X139836824Y-60441963D01*
X139956493Y-60153057D01*
X140017500Y-59846355D01*
X140017500Y-59533645D01*
X139956493Y-59226943D01*
X139836824Y-58938037D01*
X139663092Y-58678028D01*
X139441972Y-58456908D01*
X139181963Y-58283176D01*
X138893057Y-58163507D01*
X138586355Y-58102500D01*
X138273645Y-58102500D01*
X137966943Y-58163507D01*
X137678037Y-58283176D01*
X137663334Y-58293000D01*
X136656666Y-58293000D01*
X136641963Y-58283176D01*
X136353057Y-58163507D01*
X136046355Y-58102500D01*
X135733645Y-58102500D01*
X135426943Y-58163507D01*
X135138037Y-58283176D01*
X135123334Y-58293000D01*
X134116666Y-58293000D01*
X134101963Y-58283176D01*
X133813057Y-58163507D01*
X133506355Y-58102500D01*
X133193645Y-58102500D01*
X132886943Y-58163507D01*
X132598037Y-58283176D01*
X132583334Y-58293000D01*
X131576666Y-58293000D01*
X131561963Y-58283176D01*
X131273057Y-58163507D01*
X130966355Y-58102500D01*
X130653645Y-58102500D01*
X130346943Y-58163507D01*
X130058037Y-58283176D01*
X130043334Y-58293000D01*
X129036666Y-58293000D01*
X129021963Y-58283176D01*
X128733057Y-58163507D01*
X128426355Y-58102500D01*
X128113645Y-58102500D01*
X127806943Y-58163507D01*
X127518037Y-58283176D01*
X127503334Y-58293000D01*
X126496666Y-58293000D01*
X126481963Y-58283176D01*
X126193057Y-58163507D01*
X125886355Y-58102500D01*
X125573645Y-58102500D01*
X125266943Y-58163507D01*
X124978037Y-58283176D01*
X124963334Y-58293000D01*
X123956666Y-58293000D01*
X123941963Y-58283176D01*
X123653057Y-58163507D01*
X123346355Y-58102500D01*
X123033645Y-58102500D01*
X122726943Y-58163507D01*
X122438037Y-58283176D01*
X122423334Y-58293000D01*
X121416666Y-58293000D01*
X121401963Y-58283176D01*
X121113057Y-58163507D01*
X120806355Y-58102500D01*
X120493645Y-58102500D01*
X120186943Y-58163507D01*
X119898037Y-58283176D01*
X119883334Y-58293000D01*
X118876666Y-58293000D01*
X118861963Y-58283176D01*
X118573057Y-58163507D01*
X118266355Y-58102500D01*
X117953645Y-58102500D01*
X117646943Y-58163507D01*
X117358037Y-58283176D01*
X117343334Y-58293000D01*
X116336666Y-58293000D01*
X116321963Y-58283176D01*
X116033057Y-58163507D01*
X115726355Y-58102500D01*
X115413645Y-58102500D01*
X115106943Y-58163507D01*
X114818037Y-58283176D01*
X114803334Y-58293000D01*
X113796666Y-58293000D01*
X113781963Y-58283176D01*
X113493057Y-58163507D01*
X113186355Y-58102500D01*
X112873645Y-58102500D01*
X112566943Y-58163507D01*
X112278037Y-58283176D01*
X112263334Y-58293000D01*
X111256666Y-58293000D01*
X111241963Y-58283176D01*
X110953057Y-58163507D01*
X110646355Y-58102500D01*
X110333645Y-58102500D01*
X110026943Y-58163507D01*
X109738037Y-58283176D01*
X109723334Y-58293000D01*
X108716666Y-58293000D01*
X108701963Y-58283176D01*
X108413057Y-58163507D01*
X108106355Y-58102500D01*
X107793645Y-58102500D01*
X107486943Y-58163507D01*
X107198037Y-58283176D01*
X107183334Y-58293000D01*
X106176666Y-58293000D01*
X106161963Y-58283176D01*
X105873057Y-58163507D01*
X105566355Y-58102500D01*
X105253645Y-58102500D01*
X104946943Y-58163507D01*
X104658037Y-58283176D01*
X104643334Y-58293000D01*
X103636666Y-58293000D01*
X103621963Y-58283176D01*
X103333057Y-58163507D01*
X103026355Y-58102500D01*
X102713645Y-58102500D01*
X102406943Y-58163507D01*
X102118037Y-58283176D01*
X102103334Y-58293000D01*
X101096666Y-58293000D01*
X101081963Y-58283176D01*
X100793057Y-58163507D01*
X100486355Y-58102500D01*
X100173645Y-58102500D01*
X99866943Y-58163507D01*
X99578037Y-58283176D01*
X99563334Y-58293000D01*
X98556666Y-58293000D01*
X98541963Y-58283176D01*
X98253057Y-58163507D01*
X97946355Y-58102500D01*
X97633645Y-58102500D01*
X97326943Y-58163507D01*
X97038037Y-58283176D01*
X97023334Y-58293000D01*
X96016666Y-58293000D01*
X96001963Y-58283176D01*
X95713057Y-58163507D01*
X95406355Y-58102500D01*
X95093645Y-58102500D01*
X94786943Y-58163507D01*
X94498037Y-58283176D01*
X94483334Y-58293000D01*
X93476666Y-58293000D01*
X93461963Y-58283176D01*
X93173057Y-58163507D01*
X92866355Y-58102500D01*
X92553645Y-58102500D01*
X92246943Y-58163507D01*
X91958037Y-58283176D01*
X91943334Y-58293000D01*
X90936666Y-58293000D01*
X90921963Y-58283176D01*
X90633057Y-58163507D01*
X90326355Y-58102500D01*
X90013645Y-58102500D01*
X89706943Y-58163507D01*
X89418037Y-58283176D01*
X89403334Y-58293000D01*
X88396666Y-58293000D01*
X88381963Y-58283176D01*
X88093057Y-58163507D01*
X87786355Y-58102500D01*
X87473645Y-58102500D01*
X87166943Y-58163507D01*
X86878037Y-58283176D01*
X86863334Y-58293000D01*
X85856666Y-58293000D01*
X85841963Y-58283176D01*
X85553057Y-58163507D01*
X85246355Y-58102500D01*
X84933645Y-58102500D01*
X84626943Y-58163507D01*
X84338037Y-58283176D01*
X84323334Y-58293000D01*
X83316666Y-58293000D01*
X83301963Y-58283176D01*
X83013057Y-58163507D01*
X82706355Y-58102500D01*
X82393645Y-58102500D01*
X82086943Y-58163507D01*
X81798037Y-58283176D01*
X81783334Y-58293000D01*
X80776666Y-58293000D01*
X80761963Y-58283176D01*
X80473057Y-58163507D01*
X80166355Y-58102500D01*
X79853645Y-58102500D01*
X79546943Y-58163507D01*
X79258037Y-58283176D01*
X79243334Y-58293000D01*
X78236666Y-58293000D01*
X78221963Y-58283176D01*
X77933057Y-58163507D01*
X77626355Y-58102500D01*
X77313645Y-58102500D01*
X77006943Y-58163507D01*
X76718037Y-58283176D01*
X76703334Y-58293000D01*
X75696666Y-58293000D01*
X75681963Y-58283176D01*
X75393057Y-58163507D01*
X75086355Y-58102500D01*
X74773645Y-58102500D01*
X74466943Y-58163507D01*
X74178037Y-58283176D01*
X74163334Y-58293000D01*
X73156666Y-58293000D01*
X73141963Y-58283176D01*
X72853057Y-58163507D01*
X72546355Y-58102500D01*
X72233645Y-58102500D01*
X71926943Y-58163507D01*
X71638037Y-58283176D01*
X71623334Y-58293000D01*
X70616666Y-58293000D01*
X70601963Y-58283176D01*
X70313057Y-58163507D01*
X70006355Y-58102500D01*
X69693645Y-58102500D01*
X69386943Y-58163507D01*
X69098037Y-58283176D01*
X69083334Y-58293000D01*
X68076666Y-58293000D01*
X68061963Y-58283176D01*
X67773057Y-58163507D01*
X67466355Y-58102500D01*
X67153645Y-58102500D01*
X66846943Y-58163507D01*
X66558037Y-58283176D01*
X66543334Y-58293000D01*
X65536666Y-58293000D01*
X65521963Y-58283176D01*
X65233057Y-58163507D01*
X64926355Y-58102500D01*
X64613645Y-58102500D01*
X64306943Y-58163507D01*
X64018037Y-58283176D01*
X63758028Y-58456908D01*
X63536908Y-58678028D01*
X63363176Y-58938037D01*
X63243507Y-59226943D01*
X63182500Y-59533645D01*
X63182500Y-59846355D01*
X63243507Y-60153057D01*
X63363176Y-60441963D01*
X63536908Y-60701972D01*
X63758028Y-60923092D01*
X63813265Y-60960000D01*
X63758028Y-60996908D01*
X63536908Y-61218028D01*
X63363176Y-61478037D01*
X63243507Y-61766943D01*
X63182500Y-62073645D01*
X63182500Y-62386355D01*
X63243507Y-62693057D01*
X63363176Y-62981963D01*
X63536908Y-63241972D01*
X63758028Y-63463092D01*
X63910102Y-63564704D01*
X63873070Y-63671465D01*
X64643000Y-64441395D01*
X64643000Y-65104605D01*
X63873070Y-65874535D01*
X63898870Y-65948915D01*
X63745328Y-66051508D01*
X63524208Y-66272628D01*
X63350476Y-66532637D01*
X63230807Y-66821543D01*
X63169800Y-67128245D01*
X63169800Y-67440955D01*
X63230807Y-67747657D01*
X63350476Y-68036563D01*
X63524208Y-68296572D01*
X63745328Y-68517692D01*
X63800565Y-68554600D01*
X63745328Y-68591508D01*
X63524208Y-68812628D01*
X63350476Y-69072637D01*
X63230807Y-69361543D01*
X63169800Y-69668245D01*
X63169800Y-69980955D01*
X63230807Y-70287657D01*
X63350476Y-70576563D01*
X63524208Y-70836572D01*
X63745328Y-71057692D01*
X63800565Y-71094600D01*
X63745328Y-71131508D01*
X63524208Y-71352628D01*
X63350476Y-71612637D01*
X63230807Y-71901543D01*
X63169800Y-72208245D01*
X63169800Y-72520955D01*
X63230807Y-72827657D01*
X63350476Y-73116563D01*
X63524208Y-73376572D01*
X63745328Y-73597692D01*
X63800565Y-73634600D01*
X63745328Y-73671508D01*
X63524208Y-73892628D01*
X63350476Y-74152637D01*
X63230807Y-74441543D01*
X63169800Y-74748245D01*
X63169800Y-75060955D01*
X63230807Y-75367657D01*
X63350476Y-75656563D01*
X63524208Y-75916572D01*
X63745328Y-76137692D01*
X63800565Y-76174600D01*
X63745328Y-76211508D01*
X63524208Y-76432628D01*
X63350476Y-76692637D01*
X63230807Y-76981543D01*
X63169800Y-77288245D01*
X63169800Y-77600955D01*
X63230807Y-77907657D01*
X63350476Y-78196563D01*
X63524208Y-78456572D01*
X63745328Y-78677692D01*
X63800565Y-78714600D01*
X63745328Y-78751508D01*
X63524208Y-78972628D01*
X63350476Y-79232637D01*
X63230807Y-79521543D01*
X63169800Y-79828245D01*
X63169800Y-80140955D01*
X63230807Y-80447657D01*
X63350476Y-80736563D01*
X63524208Y-80996572D01*
X63745328Y-81217692D01*
X63800565Y-81254600D01*
X63745328Y-81291508D01*
X63524208Y-81512628D01*
X63350476Y-81772637D01*
X63230807Y-82061543D01*
X63169800Y-82368245D01*
X63169800Y-82680955D01*
X63230807Y-82987657D01*
X63350476Y-83276563D01*
X63524208Y-83536572D01*
X63745328Y-83757692D01*
X63800565Y-83794600D01*
X63745328Y-83831508D01*
X63524208Y-84052628D01*
X63350476Y-84312637D01*
X63230807Y-84601543D01*
X63169800Y-84908245D01*
X63169800Y-85220955D01*
X63230807Y-85527657D01*
X63350476Y-85816563D01*
X63524208Y-86076572D01*
X63745328Y-86297692D01*
X63800565Y-86334600D01*
X63745328Y-86371508D01*
X63524208Y-86592628D01*
X63350476Y-86852637D01*
X63230807Y-87141543D01*
X63169800Y-87448245D01*
X63169800Y-87760955D01*
X63230807Y-88067657D01*
X63350476Y-88356563D01*
X63524208Y-88616572D01*
X63745328Y-88837692D01*
X63800565Y-88874600D01*
X63745328Y-88911508D01*
X63524208Y-89132628D01*
X63350476Y-89392637D01*
X63230807Y-89681543D01*
X63169800Y-89988245D01*
X63169800Y-90300955D01*
X63230807Y-90607657D01*
X63350476Y-90896563D01*
X63524208Y-91156572D01*
X63745328Y-91377692D01*
X63800565Y-91414600D01*
X63745328Y-91451508D01*
X63524208Y-91672628D01*
X63350476Y-91932637D01*
X63230807Y-92221543D01*
X63169800Y-92528245D01*
X63169800Y-92840955D01*
X63230807Y-93147657D01*
X63350476Y-93436563D01*
X63524208Y-93696572D01*
X63745328Y-93917692D01*
X63825922Y-93971543D01*
X63758028Y-94016908D01*
X63536908Y-94238028D01*
X63363176Y-94498037D01*
X63243507Y-94786943D01*
X63182500Y-95093645D01*
X63182500Y-95406355D01*
X63243507Y-95713057D01*
X63363176Y-96001963D01*
X63536908Y-96261972D01*
X63758028Y-96483092D01*
X63888961Y-96570578D01*
X63848070Y-96688465D01*
X64643000Y-97483395D01*
X64643000Y-97870890D01*
X64576253Y-97804143D01*
X64590395Y-97790000D01*
X63668465Y-96868070D01*
X63408919Y-96958098D01*
X63272776Y-97239616D01*
X63238799Y-97370444D01*
X61525000Y-95656645D01*
X61525000Y-94880108D01*
X61529886Y-94830500D01*
X61510385Y-94632505D01*
X61452632Y-94442120D01*
X61440209Y-94418879D01*
X61396413Y-94336942D01*
X61769104Y-93964251D01*
X61807643Y-93932623D01*
X61933857Y-93778830D01*
X62027642Y-93603370D01*
X62085395Y-93412984D01*
X62100010Y-93264598D01*
X62100010Y-93264596D01*
X62104896Y-93214991D01*
X62100010Y-93165386D01*
X62100010Y-87892618D01*
X62104896Y-87843010D01*
X62085395Y-87645015D01*
X62027642Y-87454630D01*
X61933856Y-87279169D01*
X61839266Y-87163910D01*
X61807643Y-87125377D01*
X61769109Y-87093753D01*
X61342433Y-86667077D01*
X61350000Y-86629033D01*
X61350000Y-86306967D01*
X61287168Y-85991088D01*
X61163918Y-85693537D01*
X60984987Y-85425748D01*
X60757252Y-85198013D01*
X60489463Y-85019082D01*
X60191912Y-84895832D01*
X59876033Y-84833000D01*
X59553967Y-84833000D01*
X59238088Y-84895832D01*
X58940537Y-85019082D01*
X58672748Y-85198013D01*
X58445013Y-85425748D01*
X58266082Y-85693537D01*
X58142832Y-85991088D01*
X58080000Y-86306967D01*
X58080000Y-86629033D01*
X58142832Y-86944912D01*
X58266082Y-87242463D01*
X58445013Y-87510252D01*
X58672748Y-87737987D01*
X58889009Y-87882488D01*
X58790518Y-87892188D01*
X58670820Y-87928498D01*
X58560506Y-87987463D01*
X58463815Y-88066815D01*
X58384463Y-88163506D01*
X58325498Y-88273820D01*
X58289188Y-88393518D01*
X58276928Y-88518000D01*
X58280000Y-89619750D01*
X58438750Y-89778500D01*
X59588000Y-89778500D01*
X59588000Y-89758500D01*
X59842000Y-89758500D01*
X59842000Y-89778500D01*
X59862000Y-89778500D01*
X59862000Y-90032500D01*
X59842000Y-90032500D01*
X59842000Y-91769250D01*
X60000750Y-91928000D01*
X60080011Y-91928473D01*
X60080011Y-92004928D01*
X59165000Y-92004928D01*
X58991746Y-92021992D01*
X58825150Y-92072528D01*
X58671614Y-92154595D01*
X58537038Y-92265038D01*
X58426595Y-92399614D01*
X58344528Y-92553150D01*
X58293992Y-92719746D01*
X58276928Y-92893000D01*
X58276928Y-95168000D01*
X58293992Y-95341254D01*
X58344528Y-95507850D01*
X58426595Y-95661386D01*
X58537038Y-95795962D01*
X58671614Y-95906405D01*
X58825150Y-95988472D01*
X58955001Y-96027861D01*
X58955001Y-96509681D01*
X58912650Y-96522528D01*
X58759114Y-96604595D01*
X58624538Y-96715038D01*
X58514095Y-96849614D01*
X58432028Y-97003150D01*
X58381492Y-97169746D01*
X58364428Y-97343000D01*
X58364428Y-98593000D01*
X58381492Y-98766254D01*
X58432028Y-98932850D01*
X58514095Y-99086386D01*
X58624538Y-99220962D01*
X58759114Y-99331405D01*
X58912650Y-99413472D01*
X59079246Y-99464008D01*
X59252500Y-99481072D01*
X60177500Y-99481072D01*
X60350754Y-99464008D01*
X60517350Y-99413472D01*
X60670886Y-99331405D01*
X60805462Y-99220962D01*
X60915905Y-99086386D01*
X60997972Y-98932850D01*
X61048508Y-98766254D01*
X61065572Y-98593000D01*
X61065572Y-98053927D01*
X63182963Y-100171319D01*
X63182500Y-100173645D01*
X63182500Y-100486355D01*
X63243507Y-100793057D01*
X63363176Y-101081963D01*
X63536908Y-101341972D01*
X63758028Y-101563092D01*
X63813265Y-101600000D01*
X63758028Y-101636908D01*
X63536908Y-101858028D01*
X63363176Y-102118037D01*
X63243507Y-102406943D01*
X63182500Y-102713645D01*
X63182500Y-102812499D01*
X61057348Y-102812499D01*
X61065572Y-102729000D01*
X61062500Y-102139750D01*
X60903750Y-101981000D01*
X59842000Y-101981000D01*
X59842000Y-102001000D01*
X59588000Y-102001000D01*
X59588000Y-101981000D01*
X58526250Y-101981000D01*
X58367500Y-102139750D01*
X58364428Y-102729000D01*
X58372652Y-102812499D01*
X58024899Y-102812499D01*
X58073508Y-102652254D01*
X58090572Y-102479000D01*
X58090572Y-101229000D01*
X58073508Y-101055746D01*
X58050228Y-100979000D01*
X58364428Y-100979000D01*
X58367500Y-101568250D01*
X58526250Y-101727000D01*
X59588000Y-101727000D01*
X59588000Y-100502750D01*
X59842000Y-100502750D01*
X59842000Y-101727000D01*
X60903750Y-101727000D01*
X61062500Y-101568250D01*
X61065572Y-100979000D01*
X61053312Y-100854518D01*
X61017002Y-100734820D01*
X60958037Y-100624506D01*
X60878685Y-100527815D01*
X60781994Y-100448463D01*
X60671680Y-100389498D01*
X60551982Y-100353188D01*
X60427500Y-100340928D01*
X60000750Y-100344000D01*
X59842000Y-100502750D01*
X59588000Y-100502750D01*
X59429250Y-100344000D01*
X59002500Y-100340928D01*
X58878018Y-100353188D01*
X58758320Y-100389498D01*
X58648006Y-100448463D01*
X58551315Y-100527815D01*
X58471963Y-100624506D01*
X58412998Y-100734820D01*
X58376688Y-100854518D01*
X58364428Y-100979000D01*
X58050228Y-100979000D01*
X58022972Y-100889150D01*
X57940905Y-100735614D01*
X57830462Y-100601038D01*
X57695886Y-100490595D01*
X57542350Y-100408528D01*
X57500000Y-100395681D01*
X57500000Y-99426319D01*
X57542350Y-99413472D01*
X57695886Y-99331405D01*
X57830462Y-99220962D01*
X57940905Y-99086386D01*
X58022972Y-98932850D01*
X58073508Y-98766254D01*
X58090572Y-98593000D01*
X58090572Y-97343000D01*
X58073508Y-97169746D01*
X58022972Y-97003150D01*
X57940905Y-96849614D01*
X57830462Y-96715038D01*
X57695886Y-96604595D01*
X57542350Y-96522528D01*
X57375754Y-96471992D01*
X57202500Y-96454928D01*
X56462490Y-96454928D01*
X56462490Y-96263594D01*
X56467376Y-96213989D01*
X56462490Y-96164382D01*
X56447875Y-96015996D01*
X56390122Y-95825610D01*
X56296337Y-95650150D01*
X56170123Y-95496357D01*
X56131584Y-95464729D01*
X54707072Y-94040217D01*
X54707072Y-94020784D01*
X54818256Y-93909600D01*
X54818261Y-93909594D01*
X55323104Y-93404751D01*
X55361643Y-93373123D01*
X55487857Y-93219330D01*
X55581642Y-93043870D01*
X55639395Y-92853484D01*
X55654010Y-92705098D01*
X55658896Y-92655490D01*
X55654010Y-92605882D01*
X55654010Y-91293000D01*
X58276928Y-91293000D01*
X58289188Y-91417482D01*
X58325498Y-91537180D01*
X58384463Y-91647494D01*
X58463815Y-91744185D01*
X58560506Y-91823537D01*
X58670820Y-91882502D01*
X58790518Y-91918812D01*
X58915000Y-91931072D01*
X59429250Y-91928000D01*
X59588000Y-91769250D01*
X59588000Y-90032500D01*
X58438750Y-90032500D01*
X58280000Y-90191250D01*
X58276928Y-91293000D01*
X55654010Y-91293000D01*
X55654010Y-87892618D01*
X55658896Y-87843010D01*
X55639395Y-87645015D01*
X55581642Y-87454630D01*
X55487856Y-87279169D01*
X55393266Y-87163910D01*
X55361643Y-87125377D01*
X55323109Y-87093753D01*
X54896433Y-86667077D01*
X54904000Y-86629033D01*
X54904000Y-86306967D01*
X54841168Y-85991088D01*
X54717918Y-85693537D01*
X54538987Y-85425748D01*
X54311252Y-85198013D01*
X54043463Y-85019082D01*
X53745912Y-84895832D01*
X53430033Y-84833000D01*
X53107967Y-84833000D01*
X52792088Y-84895832D01*
X52494537Y-85019082D01*
X52226748Y-85198013D01*
X51999013Y-85425748D01*
X51820082Y-85693537D01*
X51696832Y-85991088D01*
X51634000Y-86306967D01*
X46380000Y-86306967D01*
X46380000Y-81306967D01*
X51634000Y-81306967D01*
X51634000Y-81629033D01*
X51696832Y-81944912D01*
X51820082Y-82242463D01*
X51999013Y-82510252D01*
X52226748Y-82737987D01*
X52494537Y-82916918D01*
X52792088Y-83040168D01*
X53107967Y-83103000D01*
X53430033Y-83103000D01*
X53745912Y-83040168D01*
X54043463Y-82916918D01*
X54311252Y-82737987D01*
X54538987Y-82510252D01*
X54717918Y-82242463D01*
X54841168Y-81944912D01*
X54904000Y-81629033D01*
X54904000Y-81306967D01*
X54896433Y-81268923D01*
X55924100Y-80241256D01*
X55962633Y-80209633D01*
X56088847Y-80055840D01*
X56182632Y-79880380D01*
X56240385Y-79689994D01*
X56255000Y-79541608D01*
X56259886Y-79492000D01*
X56255000Y-79442392D01*
X56255000Y-73499341D01*
X56314364Y-73439977D01*
X56331898Y-73497780D01*
X56390863Y-73608094D01*
X56470215Y-73704785D01*
X56566906Y-73784137D01*
X56677220Y-73843102D01*
X56796918Y-73879412D01*
X56921400Y-73891672D01*
X58648600Y-73891672D01*
X58705001Y-73886117D01*
X58705001Y-80176462D01*
X58672748Y-80198013D01*
X58445013Y-80425748D01*
X58266082Y-80693537D01*
X58142832Y-80991088D01*
X58080000Y-81306967D01*
X58080000Y-81629033D01*
X58142832Y-81944912D01*
X58266082Y-82242463D01*
X58445013Y-82510252D01*
X58672748Y-82737987D01*
X58940537Y-82916918D01*
X59238088Y-83040168D01*
X59553967Y-83103000D01*
X59876033Y-83103000D01*
X60191912Y-83040168D01*
X60489463Y-82916918D01*
X60757252Y-82737987D01*
X60984987Y-82510252D01*
X61163918Y-82242463D01*
X61287168Y-81944912D01*
X61350000Y-81629033D01*
X61350000Y-81306967D01*
X61287168Y-80991088D01*
X61163918Y-80693537D01*
X60984987Y-80425748D01*
X60757252Y-80198013D01*
X60725000Y-80176463D01*
X60725000Y-64837474D01*
X63201123Y-64837474D01*
X63244328Y-65147185D01*
X63347123Y-65442516D01*
X63433919Y-65604902D01*
X63693465Y-65694930D01*
X64615395Y-64773000D01*
X63693465Y-63851070D01*
X63433919Y-63941098D01*
X63297776Y-64222616D01*
X63219171Y-64525286D01*
X63201123Y-64837474D01*
X60725000Y-64837474D01*
X60725000Y-64209604D01*
X60729886Y-64159999D01*
X60725000Y-64110392D01*
X60710385Y-63962006D01*
X60652632Y-63771620D01*
X60558847Y-63596160D01*
X60432633Y-63442367D01*
X60394094Y-63410739D01*
X59283600Y-62300245D01*
X59283600Y-62082401D01*
X59226010Y-61792875D01*
X59113042Y-61520147D01*
X58949039Y-61274698D01*
X58740302Y-61065961D01*
X58494853Y-60901958D01*
X58222125Y-60788990D01*
X57932599Y-60731400D01*
X57637401Y-60731400D01*
X57347875Y-60788990D01*
X57075147Y-60901958D01*
X56829698Y-61065961D01*
X56675659Y-61220000D01*
X56354341Y-61220000D01*
X56200302Y-61065961D01*
X55954853Y-60901958D01*
X55682125Y-60788990D01*
X55392599Y-60731400D01*
X55097401Y-60731400D01*
X54807875Y-60788990D01*
X54535147Y-60901958D01*
X54289698Y-61065961D01*
X54080961Y-61274698D01*
X53916958Y-61520147D01*
X53803990Y-61792875D01*
X53746400Y-62082401D01*
X53746400Y-62377599D01*
X53803990Y-62667125D01*
X53916958Y-62939853D01*
X54080961Y-63185302D01*
X54289698Y-63394039D01*
X54455103Y-63504559D01*
X54356512Y-63563183D01*
X54138146Y-63759707D01*
X53962316Y-63995056D01*
X53835778Y-64260186D01*
X53790042Y-64410974D01*
X53911183Y-64643000D01*
X55118000Y-64643000D01*
X55118000Y-64623000D01*
X55372000Y-64623000D01*
X55372000Y-64643000D01*
X57658000Y-64643000D01*
X57658000Y-64623000D01*
X57912000Y-64623000D01*
X57912000Y-64643000D01*
X57932000Y-64643000D01*
X57932000Y-64897000D01*
X57912000Y-64897000D01*
X57912000Y-67183000D01*
X57932000Y-67183000D01*
X57932000Y-67437000D01*
X57912000Y-67437000D01*
X57912000Y-69723000D01*
X57932000Y-69723000D01*
X57932000Y-69977000D01*
X57912000Y-69977000D01*
X57912000Y-69997000D01*
X57658000Y-69997000D01*
X57658000Y-69977000D01*
X55372000Y-69977000D01*
X55372000Y-69997000D01*
X55118000Y-69997000D01*
X55118000Y-69977000D01*
X53911183Y-69977000D01*
X53790042Y-70209026D01*
X53835778Y-70359814D01*
X53962316Y-70624944D01*
X54138146Y-70860293D01*
X54356512Y-71056817D01*
X54455103Y-71115441D01*
X54289698Y-71225961D01*
X54080961Y-71434698D01*
X53916958Y-71680147D01*
X53803990Y-71952875D01*
X53746400Y-72242401D01*
X53746400Y-72537599D01*
X53803990Y-72827125D01*
X53916958Y-73099853D01*
X54080961Y-73345302D01*
X54235000Y-73499341D01*
X54235001Y-79073643D01*
X53468077Y-79840567D01*
X53430033Y-79833000D01*
X53107967Y-79833000D01*
X52792088Y-79895832D01*
X52494537Y-80019082D01*
X52226748Y-80198013D01*
X51999013Y-80425748D01*
X51820082Y-80693537D01*
X51696832Y-80991088D01*
X51634000Y-81306967D01*
X46380000Y-81306967D01*
X46380000Y-67669026D01*
X53790042Y-67669026D01*
X53835778Y-67819814D01*
X53962316Y-68084944D01*
X54138146Y-68320293D01*
X54356512Y-68516817D01*
X54462770Y-68580000D01*
X54356512Y-68643183D01*
X54138146Y-68839707D01*
X53962316Y-69075056D01*
X53835778Y-69340186D01*
X53790042Y-69490974D01*
X53911183Y-69723000D01*
X55118000Y-69723000D01*
X55118000Y-67437000D01*
X55372000Y-67437000D01*
X55372000Y-69723000D01*
X57658000Y-69723000D01*
X57658000Y-67437000D01*
X55372000Y-67437000D01*
X55118000Y-67437000D01*
X53911183Y-67437000D01*
X53790042Y-67669026D01*
X46380000Y-67669026D01*
X46380000Y-65129026D01*
X53790042Y-65129026D01*
X53835778Y-65279814D01*
X53962316Y-65544944D01*
X54138146Y-65780293D01*
X54356512Y-65976817D01*
X54462770Y-66040000D01*
X54356512Y-66103183D01*
X54138146Y-66299707D01*
X53962316Y-66535056D01*
X53835778Y-66800186D01*
X53790042Y-66950974D01*
X53911183Y-67183000D01*
X55118000Y-67183000D01*
X55118000Y-64897000D01*
X55372000Y-64897000D01*
X55372000Y-67183000D01*
X57658000Y-67183000D01*
X57658000Y-64897000D01*
X55372000Y-64897000D01*
X55118000Y-64897000D01*
X53911183Y-64897000D01*
X53790042Y-65129026D01*
X46380000Y-65129026D01*
X46380000Y-57442845D01*
X46876761Y-57442845D01*
X47044802Y-57768643D01*
X47436607Y-57969426D01*
X47860055Y-58089914D01*
X48298873Y-58125476D01*
X48736197Y-58074746D01*
X49155221Y-57939674D01*
X49475198Y-57768643D01*
X49643239Y-57442845D01*
X142126761Y-57442845D01*
X142294802Y-57768643D01*
X142686607Y-57969426D01*
X143110055Y-58089914D01*
X143548873Y-58125476D01*
X143986197Y-58074746D01*
X144405221Y-57939674D01*
X144725198Y-57768643D01*
X144893239Y-57442845D01*
X143510000Y-56059605D01*
X142126761Y-57442845D01*
X49643239Y-57442845D01*
X48260000Y-56059605D01*
X46876761Y-57442845D01*
X46380000Y-57442845D01*
X46380000Y-57099656D01*
X46697155Y-57263239D01*
X48080395Y-55880000D01*
X48439605Y-55880000D01*
X49822845Y-57263239D01*
X50148643Y-57095198D01*
X50349426Y-56703393D01*
X50469914Y-56279945D01*
X50499175Y-55918873D01*
X141264524Y-55918873D01*
X141315254Y-56356197D01*
X141450326Y-56775221D01*
X141621357Y-57095198D01*
X141947155Y-57263239D01*
X143330395Y-55880000D01*
X141947155Y-54496761D01*
X141621357Y-54664802D01*
X141420574Y-55056607D01*
X141300086Y-55480055D01*
X141264524Y-55918873D01*
X50499175Y-55918873D01*
X50505476Y-55841127D01*
X50454746Y-55403803D01*
X50319674Y-54984779D01*
X50148643Y-54664802D01*
X49822845Y-54496761D01*
X48439605Y-55880000D01*
X48080395Y-55880000D01*
X46697155Y-54496761D01*
X46380000Y-54660344D01*
X46380000Y-54000000D01*
X47040344Y-54000000D01*
X46876761Y-54317155D01*
M02*
