G04 #@! TF.GenerationSoftware,KiCad,Pcbnew,5.1.5-52549c5~84~ubuntu18.04.1*
G04 #@! TF.CreationDate,2020-07-05T07:32:41-04:00*
G04 #@! TF.ProjectId,kosmo_proto,6b6f736d-6f5f-4707-926f-746f2e6b6963,rev?*
G04 #@! TF.SameCoordinates,Original*
G04 #@! TF.FileFunction,Copper,L1,Top*
G04 #@! TF.FilePolarity,Positive*
%FSLAX46Y46*%
G04 Gerber Fmt 4.6, Leading zero omitted, Abs format (unit mm)*
G04 Created by KiCad (PCBNEW 5.1.5-52549c5~84~ubuntu18.04.1) date 2020-07-05 07:32:41*
%MOMM*%
%LPD*%
G04 APERTURE LIST*
%ADD10C,1.600000*%
%ADD11R,1.600000X1.600000*%
%ADD12C,1.905000*%
%ADD13O,1.727200X1.727200*%
%ADD14R,1.727200X1.727200*%
%ADD15C,2.000000*%
%ADD16C,0.750000*%
%ADD17C,0.254000*%
G04 APERTURE END LIST*
D10*
X50269000Y-97968000D03*
D11*
X50269000Y-95968000D03*
D10*
X56715000Y-96000000D03*
D11*
X56715000Y-98000000D03*
D12*
X140970000Y-100330000D03*
X140970000Y-97790000D03*
X140957300Y-82524600D03*
X140957300Y-79984600D03*
X140957300Y-87604600D03*
X140957300Y-92684600D03*
X140957300Y-90144600D03*
X140957300Y-95224600D03*
X140957300Y-85064600D03*
X140957300Y-67284600D03*
X140957300Y-77444600D03*
X140957300Y-69824600D03*
X140957300Y-72364600D03*
X140957300Y-74904600D03*
X140995000Y-64773000D03*
X140970000Y-62230000D03*
X110477300Y-82524600D03*
X118110000Y-59690000D03*
X130797300Y-74904600D03*
X107937300Y-90144600D03*
X138455000Y-64773000D03*
X130797300Y-77444600D03*
X120637300Y-90144600D03*
X120637300Y-72364600D03*
X128257300Y-72364600D03*
X133337300Y-85064600D03*
X125717300Y-69824600D03*
X107937300Y-74904600D03*
X105397300Y-72364600D03*
X135877300Y-77444600D03*
X107950000Y-62230000D03*
X107937300Y-87604600D03*
X135877300Y-72364600D03*
X138417300Y-87604600D03*
X118097300Y-90144600D03*
X138417300Y-77444600D03*
X125717300Y-82524600D03*
X138430000Y-100330000D03*
X110477300Y-92684600D03*
X105397300Y-74904600D03*
X133337300Y-72364600D03*
X135877300Y-82524600D03*
X128257300Y-82524600D03*
X118110000Y-102870000D03*
X123177300Y-87604600D03*
X115557300Y-77444600D03*
X125755000Y-64773000D03*
X113017300Y-79984600D03*
X120650000Y-59690000D03*
X130810000Y-62230000D03*
X125730000Y-102870000D03*
X135877300Y-67284600D03*
X118097300Y-92684600D03*
X123177300Y-79984600D03*
X133350000Y-59690000D03*
X138417300Y-79984600D03*
X125717300Y-90144600D03*
X123177300Y-67284600D03*
X125717300Y-79984600D03*
X118097300Y-87604600D03*
X105435000Y-64773000D03*
X118097300Y-74904600D03*
X123190000Y-97790000D03*
X133337300Y-79984600D03*
X128295000Y-64773000D03*
X130797300Y-90144600D03*
X113030000Y-95250000D03*
X110490000Y-97790000D03*
X120637300Y-69824600D03*
X133337300Y-82524600D03*
X115557300Y-79984600D03*
X113017300Y-67284600D03*
X133337300Y-69824600D03*
X128257300Y-87604600D03*
X125717300Y-85064600D03*
X110477300Y-79984600D03*
X115570000Y-95250000D03*
X113017300Y-90144600D03*
X115557300Y-82524600D03*
X130835000Y-64773000D03*
X105397300Y-79984600D03*
X120650000Y-97790000D03*
X138417300Y-67284600D03*
X105397300Y-82524600D03*
X130797300Y-85064600D03*
X123190000Y-95250000D03*
X118097300Y-82524600D03*
X107937300Y-67284600D03*
X123177300Y-77444600D03*
X125730000Y-95250000D03*
X138417300Y-85064600D03*
X133350000Y-102870000D03*
X113017300Y-87604600D03*
X130797300Y-79984600D03*
X135877300Y-90144600D03*
X125730000Y-97790000D03*
X107950000Y-102870000D03*
X115557300Y-90144600D03*
X118110000Y-97790000D03*
X123190000Y-100330000D03*
X118097300Y-79984600D03*
X115595000Y-64773000D03*
X107950000Y-97790000D03*
X123177300Y-90144600D03*
X138417300Y-72364600D03*
X113017300Y-92684600D03*
X113030000Y-59690000D03*
X118097300Y-67284600D03*
X138417300Y-74904600D03*
X107937300Y-69824600D03*
X107937300Y-82524600D03*
X128257300Y-79984600D03*
X125717300Y-74904600D03*
X110490000Y-100330000D03*
X105397300Y-77444600D03*
X110490000Y-62230000D03*
X110515000Y-64773000D03*
X138430000Y-62230000D03*
X120637300Y-92684600D03*
X105410000Y-102870000D03*
X130810000Y-100330000D03*
X120650000Y-100330000D03*
X110490000Y-95250000D03*
X133350000Y-62230000D03*
X128270000Y-100330000D03*
X115570000Y-97790000D03*
X133337300Y-90144600D03*
X135890000Y-102870000D03*
X130797300Y-69824600D03*
X107937300Y-77444600D03*
X133337300Y-92684600D03*
X113017300Y-74904600D03*
X123177300Y-82524600D03*
X123177300Y-72364600D03*
X130797300Y-82524600D03*
X105410000Y-100330000D03*
X130797300Y-72364600D03*
X123215000Y-64773000D03*
X115570000Y-59690000D03*
X138430000Y-95250000D03*
X110477300Y-90144600D03*
X130797300Y-87604600D03*
X130810000Y-95250000D03*
X113017300Y-69824600D03*
X135890000Y-62230000D03*
X130810000Y-102870000D03*
X115557300Y-69824600D03*
X107937300Y-85064600D03*
X133337300Y-74904600D03*
X105397300Y-67284600D03*
X118110000Y-62230000D03*
X107950000Y-59690000D03*
X128270000Y-97790000D03*
X128270000Y-59690000D03*
X138430000Y-102870000D03*
X110477300Y-77444600D03*
X138417300Y-82524600D03*
X125717300Y-87604600D03*
X105397300Y-92684600D03*
X113017300Y-72364600D03*
X138417300Y-90144600D03*
X107950000Y-100330000D03*
X110477300Y-74904600D03*
X107937300Y-92684600D03*
X128257300Y-90144600D03*
X115557300Y-74904600D03*
X125717300Y-72364600D03*
X113017300Y-77444600D03*
X138417300Y-69824600D03*
X120637300Y-74904600D03*
X107950000Y-95250000D03*
X105397300Y-85064600D03*
X128257300Y-77444600D03*
X123190000Y-62230000D03*
X135890000Y-97790000D03*
X135877300Y-69824600D03*
X123177300Y-85064600D03*
X118097300Y-85064600D03*
X128270000Y-62230000D03*
X128257300Y-85064600D03*
X135890000Y-100330000D03*
X113017300Y-82524600D03*
X107937300Y-79984600D03*
X133375000Y-64773000D03*
X113030000Y-62230000D03*
X135915000Y-64773000D03*
X123177300Y-69824600D03*
X128270000Y-95250000D03*
X113030000Y-102870000D03*
X110477300Y-87604600D03*
X133350000Y-95250000D03*
X105397300Y-69824600D03*
X110477300Y-69824600D03*
X115570000Y-62230000D03*
X115557300Y-72364600D03*
X123190000Y-102870000D03*
X138430000Y-97790000D03*
X115557300Y-92684600D03*
X135877300Y-74904600D03*
X130810000Y-97790000D03*
X107975000Y-64773000D03*
X115557300Y-87604600D03*
X123177300Y-92684600D03*
X128257300Y-67284600D03*
X128270000Y-102870000D03*
X115570000Y-102870000D03*
X105397300Y-87604600D03*
X118110000Y-100330000D03*
X128257300Y-69824600D03*
X130797300Y-67284600D03*
X120650000Y-62230000D03*
X118097300Y-72364600D03*
X115557300Y-85064600D03*
X120637300Y-77444600D03*
X113030000Y-97790000D03*
X120650000Y-102870000D03*
X125730000Y-62230000D03*
X125717300Y-92684600D03*
X125717300Y-77444600D03*
X118097300Y-69824600D03*
X135877300Y-92684600D03*
X133350000Y-97790000D03*
X118097300Y-77444600D03*
X130810000Y-59690000D03*
X105410000Y-59690000D03*
X105410000Y-95250000D03*
X120637300Y-82524600D03*
X110477300Y-85064600D03*
X135877300Y-85064600D03*
X120637300Y-79984600D03*
X128257300Y-92684600D03*
X110477300Y-67284600D03*
X135890000Y-59690000D03*
X118110000Y-95250000D03*
X123190000Y-59690000D03*
X118135000Y-64773000D03*
X123177300Y-74904600D03*
X125717300Y-67284600D03*
X133337300Y-87604600D03*
X120637300Y-85064600D03*
X130797300Y-92684600D03*
X105397300Y-90144600D03*
X105410000Y-62230000D03*
X125730000Y-100330000D03*
X113055000Y-64773000D03*
X120650000Y-95250000D03*
X133350000Y-100330000D03*
X110490000Y-102870000D03*
X113030000Y-100330000D03*
X113017300Y-85064600D03*
X135877300Y-79984600D03*
X138430000Y-59690000D03*
X133337300Y-67284600D03*
X110490000Y-59690000D03*
X135877300Y-87604600D03*
X133337300Y-77444600D03*
X115570000Y-100330000D03*
X138417300Y-92684600D03*
X120637300Y-67284600D03*
X120675000Y-64773000D03*
X107937300Y-72364600D03*
X120637300Y-87604600D03*
X128257300Y-74904600D03*
X105410000Y-97790000D03*
X135890000Y-95250000D03*
X125730000Y-59690000D03*
X115557300Y-67284600D03*
X110477300Y-72364600D03*
X100317300Y-74904600D03*
X100317300Y-77444600D03*
X97777300Y-72364600D03*
X102857300Y-85064600D03*
X95237300Y-69824600D03*
X95237300Y-82524600D03*
X102857300Y-72364600D03*
X97777300Y-82524600D03*
X95275000Y-64773000D03*
X100330000Y-62230000D03*
X95250000Y-102870000D03*
X102870000Y-59690000D03*
X95237300Y-90144600D03*
X95237300Y-79984600D03*
X102857300Y-79984600D03*
X97815000Y-64773000D03*
X100317300Y-90144600D03*
X102857300Y-82524600D03*
X102857300Y-69824600D03*
X97777300Y-87604600D03*
X95237300Y-85064600D03*
X100355000Y-64773000D03*
X100317300Y-85064600D03*
X95250000Y-95250000D03*
X102870000Y-102870000D03*
X100317300Y-79984600D03*
X95250000Y-97790000D03*
X97777300Y-79984600D03*
X95237300Y-74904600D03*
X100330000Y-100330000D03*
X102870000Y-62230000D03*
X97790000Y-100330000D03*
X102857300Y-90144600D03*
X100317300Y-69824600D03*
X102857300Y-92684600D03*
X100317300Y-82524600D03*
X100317300Y-72364600D03*
X100317300Y-87604600D03*
X100330000Y-95250000D03*
X100330000Y-102870000D03*
X102857300Y-74904600D03*
X97790000Y-97790000D03*
X97790000Y-59690000D03*
X95237300Y-87604600D03*
X97777300Y-90144600D03*
X95237300Y-72364600D03*
X97777300Y-77444600D03*
X97790000Y-62230000D03*
X97777300Y-85064600D03*
X102895000Y-64773000D03*
X97790000Y-95250000D03*
X102870000Y-95250000D03*
X100330000Y-97790000D03*
X97777300Y-67284600D03*
X97790000Y-102870000D03*
X97777300Y-69824600D03*
X100317300Y-67284600D03*
X95250000Y-62230000D03*
X95237300Y-92684600D03*
X95237300Y-77444600D03*
X102870000Y-97790000D03*
X100330000Y-59690000D03*
X97777300Y-92684600D03*
X95237300Y-67284600D03*
X102857300Y-87604600D03*
X100317300Y-92684600D03*
X95250000Y-100330000D03*
X102870000Y-100330000D03*
X102857300Y-67284600D03*
X102857300Y-77444600D03*
X97777300Y-74904600D03*
X95250000Y-59690000D03*
X87630000Y-59690000D03*
X90157300Y-90144600D03*
X90157300Y-72364600D03*
X87617300Y-90144600D03*
X87630000Y-102870000D03*
X92697300Y-87604600D03*
X85077300Y-77444600D03*
X90170000Y-59690000D03*
X87617300Y-92684600D03*
X92697300Y-79984600D03*
X92697300Y-67284600D03*
X87617300Y-87604600D03*
X87617300Y-74904600D03*
X92710000Y-97790000D03*
X90157300Y-69824600D03*
X85077300Y-79984600D03*
X85090000Y-95250000D03*
X85077300Y-82524600D03*
X90170000Y-97790000D03*
X92710000Y-95250000D03*
X87617300Y-82524600D03*
X92697300Y-77444600D03*
X85077300Y-90144600D03*
X87630000Y-97790000D03*
X92710000Y-100330000D03*
X87617300Y-79984600D03*
X85115000Y-64773000D03*
X92697300Y-90144600D03*
X87617300Y-67284600D03*
X90157300Y-92684600D03*
X90170000Y-100330000D03*
X85090000Y-97790000D03*
X92697300Y-82524600D03*
X92697300Y-72364600D03*
X92735000Y-64773000D03*
X85090000Y-59690000D03*
X85077300Y-69824600D03*
X87630000Y-62230000D03*
X85077300Y-74904600D03*
X90157300Y-74904600D03*
X92710000Y-62230000D03*
X92697300Y-85064600D03*
X87617300Y-85064600D03*
X92697300Y-69824600D03*
X85090000Y-62230000D03*
X85077300Y-72364600D03*
X92710000Y-102870000D03*
X85077300Y-92684600D03*
X85077300Y-87604600D03*
X92697300Y-92684600D03*
X85090000Y-102870000D03*
X87630000Y-100330000D03*
X90170000Y-62230000D03*
X87617300Y-72364600D03*
X85077300Y-85064600D03*
X90157300Y-77444600D03*
X90170000Y-102870000D03*
X87617300Y-69824600D03*
X87617300Y-77444600D03*
X90157300Y-82524600D03*
X90157300Y-79984600D03*
X87630000Y-95250000D03*
X92710000Y-59690000D03*
X87655000Y-64773000D03*
X92697300Y-74904600D03*
X90157300Y-85064600D03*
X90170000Y-95250000D03*
X85090000Y-100330000D03*
X90157300Y-67284600D03*
X90195000Y-64773000D03*
X90157300Y-87604600D03*
X85077300Y-67284600D03*
X79997300Y-82524600D03*
X77457300Y-90144600D03*
X77457300Y-74904600D03*
X74917300Y-72364600D03*
X77470000Y-62230000D03*
X77457300Y-87604600D03*
X79997300Y-92684600D03*
X74917300Y-74904600D03*
X82537300Y-79984600D03*
X74955000Y-64773000D03*
X82550000Y-95250000D03*
X80010000Y-97790000D03*
X82537300Y-67284600D03*
X79997300Y-79984600D03*
X82537300Y-90144600D03*
X74917300Y-79984600D03*
X74917300Y-82524600D03*
X77457300Y-67284600D03*
X82537300Y-87604600D03*
X77470000Y-102870000D03*
X77470000Y-97790000D03*
X82537300Y-92684600D03*
X82550000Y-59690000D03*
X77457300Y-69824600D03*
X77457300Y-82524600D03*
X80010000Y-100330000D03*
X74917300Y-77444600D03*
X80010000Y-62230000D03*
X80035000Y-64773000D03*
X74930000Y-102870000D03*
X80010000Y-95250000D03*
X77457300Y-77444600D03*
X82537300Y-74904600D03*
X74930000Y-100330000D03*
X79997300Y-90144600D03*
X82537300Y-69824600D03*
X77457300Y-85064600D03*
X74917300Y-67284600D03*
X77470000Y-59690000D03*
X79997300Y-77444600D03*
X74917300Y-92684600D03*
X82537300Y-72364600D03*
X77470000Y-100330000D03*
X79997300Y-74904600D03*
X77457300Y-92684600D03*
X82537300Y-77444600D03*
X77470000Y-95250000D03*
X74917300Y-85064600D03*
X82537300Y-82524600D03*
X77457300Y-79984600D03*
X82550000Y-62230000D03*
X82550000Y-102870000D03*
X79997300Y-87604600D03*
X74917300Y-69824600D03*
X79997300Y-69824600D03*
X77495000Y-64773000D03*
X74917300Y-87604600D03*
X82550000Y-97790000D03*
X74930000Y-59690000D03*
X74930000Y-95250000D03*
X79997300Y-85064600D03*
X79997300Y-67284600D03*
X74917300Y-90144600D03*
X74930000Y-62230000D03*
X82575000Y-64773000D03*
X80010000Y-102870000D03*
X82550000Y-100330000D03*
X82537300Y-85064600D03*
X80010000Y-59690000D03*
X77457300Y-72364600D03*
X74930000Y-97790000D03*
X79997300Y-72364600D03*
X72377300Y-82524600D03*
X72377300Y-92684600D03*
X72390000Y-97790000D03*
X72377300Y-79984600D03*
X72390000Y-100330000D03*
X72390000Y-62230000D03*
X72415000Y-64773000D03*
X72390000Y-95250000D03*
X72377300Y-90144600D03*
X72377300Y-77444600D03*
X72377300Y-74904600D03*
X72377300Y-87604600D03*
X72377300Y-69824600D03*
X72377300Y-85064600D03*
X72377300Y-67284600D03*
X72390000Y-102870000D03*
X72390000Y-59690000D03*
X72377300Y-72364600D03*
X69837300Y-90144600D03*
X69837300Y-74904600D03*
X69850000Y-62230000D03*
X69837300Y-87604600D03*
X69837300Y-67284600D03*
X69850000Y-102870000D03*
X69850000Y-97790000D03*
X69837300Y-69824600D03*
X69837300Y-82524600D03*
X69837300Y-77444600D03*
X69837300Y-85064600D03*
X69850000Y-59690000D03*
X69850000Y-100330000D03*
X69837300Y-92684600D03*
X69850000Y-95250000D03*
X69837300Y-79984600D03*
X69875000Y-64773000D03*
X69837300Y-72364600D03*
X67297300Y-72364600D03*
X67297300Y-74904600D03*
X67335000Y-64773000D03*
X67297300Y-79984600D03*
X67297300Y-82524600D03*
X67297300Y-77444600D03*
X67310000Y-102870000D03*
X67310000Y-100330000D03*
X67297300Y-67284600D03*
X67297300Y-92684600D03*
X67297300Y-85064600D03*
X67297300Y-69824600D03*
X67297300Y-87604600D03*
X67310000Y-59690000D03*
X67310000Y-95250000D03*
X67297300Y-90144600D03*
X67310000Y-62230000D03*
X67310000Y-97790000D03*
X64757300Y-67284600D03*
X64757300Y-69824600D03*
X64757300Y-72364600D03*
X64757300Y-74904600D03*
X64757300Y-77444600D03*
X64757300Y-79984600D03*
X64757300Y-82524600D03*
X64757300Y-85064600D03*
X64757300Y-87604600D03*
X64757300Y-90144600D03*
X64757300Y-92684600D03*
D13*
X52245000Y-66230000D03*
X54785000Y-66230000D03*
X52245000Y-68770000D03*
X54785000Y-68770000D03*
X52245000Y-71310000D03*
X54785000Y-71310000D03*
X52245000Y-73850000D03*
X54785000Y-73850000D03*
X52245000Y-76390000D03*
D14*
X54785000Y-76390000D03*
D12*
X64770000Y-59690000D03*
X64770000Y-102870000D03*
X64795000Y-64773000D03*
X64770000Y-97790000D03*
X64770000Y-62230000D03*
X64770000Y-100330000D03*
D15*
X50269000Y-85468000D03*
X50269000Y-90468000D03*
X57000000Y-85500000D03*
X57000000Y-90500000D03*
D12*
X64770000Y-95250000D03*
D16*
X56715000Y-98030500D02*
X57274500Y-98030500D01*
X56715000Y-98715000D02*
X56715000Y-98000000D01*
X64770000Y-100330000D02*
X58330000Y-100330000D01*
X58330000Y-100330000D02*
X56715000Y-98715000D01*
X58090001Y-97767499D02*
X57857500Y-98000000D01*
X57000000Y-90500000D02*
X58090001Y-91590001D01*
X57857500Y-98000000D02*
X56715000Y-98000000D01*
X58090001Y-91590001D02*
X58090001Y-97767499D01*
X54870000Y-102870000D02*
X64770000Y-102870000D01*
X50269000Y-97968000D02*
X50269000Y-98269000D01*
X50269000Y-98269000D02*
X54870000Y-102870000D01*
X51613501Y-98030500D02*
X50269000Y-98030500D01*
X51644001Y-96655499D02*
X51644001Y-98000000D01*
X51644010Y-96655490D02*
X51644001Y-96655499D01*
X50269000Y-90468000D02*
X51644010Y-91843010D01*
X51644001Y-98000000D02*
X51613501Y-98030500D01*
X51644010Y-91843010D02*
X51644010Y-96655490D01*
X52245000Y-66230000D02*
X54785000Y-66230000D01*
X56715000Y-68160000D02*
X56715000Y-85468000D01*
X54785000Y-66230000D02*
X56715000Y-68160000D01*
X52245000Y-76390000D02*
X54785000Y-76390000D01*
X52245000Y-83492000D02*
X50269000Y-85468000D01*
X52245000Y-76390000D02*
X52245000Y-83492000D01*
D17*
G36*
X46876761Y-54317155D02*
G01*
X48260000Y-55700395D01*
X49643239Y-54317155D01*
X49479656Y-54000000D01*
X142290344Y-54000000D01*
X142126761Y-54317155D01*
X143510000Y-55700395D01*
X144893239Y-54317155D01*
X144729656Y-54000000D01*
X145390000Y-54000000D01*
X145390000Y-54660344D01*
X145072845Y-54496761D01*
X143689605Y-55880000D01*
X145072845Y-57263239D01*
X145390000Y-57099656D01*
X145390001Y-105460345D01*
X145072845Y-105296761D01*
X143689605Y-106680000D01*
X145072845Y-108063239D01*
X145390001Y-107899655D01*
X145390001Y-108560000D01*
X144729656Y-108560000D01*
X144893239Y-108242845D01*
X143510000Y-106859605D01*
X142126761Y-108242845D01*
X142290344Y-108560000D01*
X49479656Y-108560000D01*
X49643239Y-108242845D01*
X48260000Y-106859605D01*
X46876761Y-108242845D01*
X47040344Y-108560000D01*
X46380000Y-108560000D01*
X46380000Y-107899656D01*
X46697155Y-108063239D01*
X48080395Y-106680000D01*
X48439605Y-106680000D01*
X49822845Y-108063239D01*
X50148643Y-107895198D01*
X50349426Y-107503393D01*
X50469914Y-107079945D01*
X50499175Y-106718873D01*
X141264524Y-106718873D01*
X141315254Y-107156197D01*
X141450326Y-107575221D01*
X141621357Y-107895198D01*
X141947155Y-108063239D01*
X143330395Y-106680000D01*
X141947155Y-105296761D01*
X141621357Y-105464802D01*
X141420574Y-105856607D01*
X141300086Y-106280055D01*
X141264524Y-106718873D01*
X50499175Y-106718873D01*
X50505476Y-106641127D01*
X50454746Y-106203803D01*
X50319674Y-105784779D01*
X50148643Y-105464802D01*
X49822845Y-105296761D01*
X48439605Y-106680000D01*
X48080395Y-106680000D01*
X46697155Y-105296761D01*
X46380000Y-105460344D01*
X46380000Y-105117155D01*
X46876761Y-105117155D01*
X48260000Y-106500395D01*
X49643239Y-105117155D01*
X142126761Y-105117155D01*
X143510000Y-106500395D01*
X144893239Y-105117155D01*
X144725198Y-104791357D01*
X144333393Y-104590574D01*
X143909945Y-104470086D01*
X143471127Y-104434524D01*
X143033803Y-104485254D01*
X142614779Y-104620326D01*
X142294802Y-104791357D01*
X142126761Y-105117155D01*
X49643239Y-105117155D01*
X49475198Y-104791357D01*
X49083393Y-104590574D01*
X48659945Y-104470086D01*
X48221127Y-104434524D01*
X47783803Y-104485254D01*
X47364779Y-104620326D01*
X47044802Y-104791357D01*
X46876761Y-105117155D01*
X46380000Y-105117155D01*
X46380000Y-95168000D01*
X48830928Y-95168000D01*
X48834000Y-95682250D01*
X48992750Y-95841000D01*
X50142000Y-95841000D01*
X50142000Y-94691750D01*
X49983250Y-94533000D01*
X49469000Y-94529928D01*
X49344518Y-94542188D01*
X49224820Y-94578498D01*
X49114506Y-94637463D01*
X49017815Y-94716815D01*
X48938463Y-94813506D01*
X48879498Y-94923820D01*
X48843188Y-95043518D01*
X48830928Y-95168000D01*
X46380000Y-95168000D01*
X46380000Y-90306967D01*
X48634000Y-90306967D01*
X48634000Y-90629033D01*
X48696832Y-90944912D01*
X48820082Y-91242463D01*
X48999013Y-91510252D01*
X49226748Y-91737987D01*
X49494537Y-91916918D01*
X49792088Y-92040168D01*
X50107967Y-92103000D01*
X50430033Y-92103000D01*
X50468077Y-92095433D01*
X50634010Y-92261366D01*
X50634011Y-94532527D01*
X50554750Y-94533000D01*
X50396000Y-94691750D01*
X50396000Y-95841000D01*
X50416000Y-95841000D01*
X50416000Y-96095000D01*
X50396000Y-96095000D01*
X50396000Y-96115000D01*
X50142000Y-96115000D01*
X50142000Y-96095000D01*
X48992750Y-96095000D01*
X48834000Y-96253750D01*
X48830928Y-96768000D01*
X48843188Y-96892482D01*
X48879498Y-97012180D01*
X48938463Y-97122494D01*
X49017815Y-97219185D01*
X49034393Y-97232790D01*
X48997320Y-97288273D01*
X48889147Y-97549426D01*
X48834000Y-97826665D01*
X48834000Y-98109335D01*
X48889147Y-98386574D01*
X48997320Y-98647727D01*
X49154363Y-98882759D01*
X49354241Y-99082637D01*
X49589273Y-99239680D01*
X49850426Y-99347853D01*
X49936649Y-99365004D01*
X54120744Y-103549100D01*
X54152367Y-103587633D01*
X54306160Y-103713847D01*
X54481620Y-103807632D01*
X54672005Y-103865385D01*
X54870000Y-103884886D01*
X54919608Y-103880000D01*
X63535590Y-103880000D01*
X63536908Y-103881972D01*
X63758028Y-104103092D01*
X64018037Y-104276824D01*
X64306943Y-104396493D01*
X64613645Y-104457500D01*
X64926355Y-104457500D01*
X65233057Y-104396493D01*
X65521963Y-104276824D01*
X65536666Y-104267000D01*
X66543334Y-104267000D01*
X66558037Y-104276824D01*
X66846943Y-104396493D01*
X67153645Y-104457500D01*
X67466355Y-104457500D01*
X67773057Y-104396493D01*
X68061963Y-104276824D01*
X68076666Y-104267000D01*
X69083334Y-104267000D01*
X69098037Y-104276824D01*
X69386943Y-104396493D01*
X69693645Y-104457500D01*
X70006355Y-104457500D01*
X70313057Y-104396493D01*
X70601963Y-104276824D01*
X70616666Y-104267000D01*
X71623334Y-104267000D01*
X71638037Y-104276824D01*
X71926943Y-104396493D01*
X72233645Y-104457500D01*
X72546355Y-104457500D01*
X72853057Y-104396493D01*
X73141963Y-104276824D01*
X73156666Y-104267000D01*
X74163334Y-104267000D01*
X74178037Y-104276824D01*
X74466943Y-104396493D01*
X74773645Y-104457500D01*
X75086355Y-104457500D01*
X75393057Y-104396493D01*
X75681963Y-104276824D01*
X75696666Y-104267000D01*
X76703334Y-104267000D01*
X76718037Y-104276824D01*
X77006943Y-104396493D01*
X77313645Y-104457500D01*
X77626355Y-104457500D01*
X77933057Y-104396493D01*
X78221963Y-104276824D01*
X78236666Y-104267000D01*
X79243334Y-104267000D01*
X79258037Y-104276824D01*
X79546943Y-104396493D01*
X79853645Y-104457500D01*
X80166355Y-104457500D01*
X80473057Y-104396493D01*
X80761963Y-104276824D01*
X80776666Y-104267000D01*
X81783334Y-104267000D01*
X81798037Y-104276824D01*
X82086943Y-104396493D01*
X82393645Y-104457500D01*
X82706355Y-104457500D01*
X83013057Y-104396493D01*
X83301963Y-104276824D01*
X83316666Y-104267000D01*
X84323334Y-104267000D01*
X84338037Y-104276824D01*
X84626943Y-104396493D01*
X84933645Y-104457500D01*
X85246355Y-104457500D01*
X85553057Y-104396493D01*
X85841963Y-104276824D01*
X85856666Y-104267000D01*
X86863334Y-104267000D01*
X86878037Y-104276824D01*
X87166943Y-104396493D01*
X87473645Y-104457500D01*
X87786355Y-104457500D01*
X88093057Y-104396493D01*
X88381963Y-104276824D01*
X88396666Y-104267000D01*
X89403334Y-104267000D01*
X89418037Y-104276824D01*
X89706943Y-104396493D01*
X90013645Y-104457500D01*
X90326355Y-104457500D01*
X90633057Y-104396493D01*
X90921963Y-104276824D01*
X90936666Y-104267000D01*
X91943334Y-104267000D01*
X91958037Y-104276824D01*
X92246943Y-104396493D01*
X92553645Y-104457500D01*
X92866355Y-104457500D01*
X93173057Y-104396493D01*
X93461963Y-104276824D01*
X93476666Y-104267000D01*
X94483334Y-104267000D01*
X94498037Y-104276824D01*
X94786943Y-104396493D01*
X95093645Y-104457500D01*
X95406355Y-104457500D01*
X95713057Y-104396493D01*
X96001963Y-104276824D01*
X96016666Y-104267000D01*
X97023334Y-104267000D01*
X97038037Y-104276824D01*
X97326943Y-104396493D01*
X97633645Y-104457500D01*
X97946355Y-104457500D01*
X98253057Y-104396493D01*
X98541963Y-104276824D01*
X98556666Y-104267000D01*
X99563334Y-104267000D01*
X99578037Y-104276824D01*
X99866943Y-104396493D01*
X100173645Y-104457500D01*
X100486355Y-104457500D01*
X100793057Y-104396493D01*
X101081963Y-104276824D01*
X101096666Y-104267000D01*
X102103334Y-104267000D01*
X102118037Y-104276824D01*
X102406943Y-104396493D01*
X102713645Y-104457500D01*
X103026355Y-104457500D01*
X103333057Y-104396493D01*
X103621963Y-104276824D01*
X103636666Y-104267000D01*
X104643334Y-104267000D01*
X104658037Y-104276824D01*
X104946943Y-104396493D01*
X105253645Y-104457500D01*
X105566355Y-104457500D01*
X105873057Y-104396493D01*
X106161963Y-104276824D01*
X106176666Y-104267000D01*
X107183334Y-104267000D01*
X107198037Y-104276824D01*
X107486943Y-104396493D01*
X107793645Y-104457500D01*
X108106355Y-104457500D01*
X108413057Y-104396493D01*
X108701963Y-104276824D01*
X108716666Y-104267000D01*
X109723334Y-104267000D01*
X109738037Y-104276824D01*
X110026943Y-104396493D01*
X110333645Y-104457500D01*
X110646355Y-104457500D01*
X110953057Y-104396493D01*
X111241963Y-104276824D01*
X111256666Y-104267000D01*
X112263334Y-104267000D01*
X112278037Y-104276824D01*
X112566943Y-104396493D01*
X112873645Y-104457500D01*
X113186355Y-104457500D01*
X113493057Y-104396493D01*
X113781963Y-104276824D01*
X113796666Y-104267000D01*
X114803334Y-104267000D01*
X114818037Y-104276824D01*
X115106943Y-104396493D01*
X115413645Y-104457500D01*
X115726355Y-104457500D01*
X116033057Y-104396493D01*
X116321963Y-104276824D01*
X116336666Y-104267000D01*
X117343334Y-104267000D01*
X117358037Y-104276824D01*
X117646943Y-104396493D01*
X117953645Y-104457500D01*
X118266355Y-104457500D01*
X118573057Y-104396493D01*
X118861963Y-104276824D01*
X118876666Y-104267000D01*
X119883334Y-104267000D01*
X119898037Y-104276824D01*
X120186943Y-104396493D01*
X120493645Y-104457500D01*
X120806355Y-104457500D01*
X121113057Y-104396493D01*
X121401963Y-104276824D01*
X121416666Y-104267000D01*
X122423334Y-104267000D01*
X122438037Y-104276824D01*
X122726943Y-104396493D01*
X123033645Y-104457500D01*
X123346355Y-104457500D01*
X123653057Y-104396493D01*
X123941963Y-104276824D01*
X123956666Y-104267000D01*
X124963334Y-104267000D01*
X124978037Y-104276824D01*
X125266943Y-104396493D01*
X125573645Y-104457500D01*
X125886355Y-104457500D01*
X126193057Y-104396493D01*
X126481963Y-104276824D01*
X126496666Y-104267000D01*
X127503334Y-104267000D01*
X127518037Y-104276824D01*
X127806943Y-104396493D01*
X128113645Y-104457500D01*
X128426355Y-104457500D01*
X128733057Y-104396493D01*
X129021963Y-104276824D01*
X129036666Y-104267000D01*
X130043334Y-104267000D01*
X130058037Y-104276824D01*
X130346943Y-104396493D01*
X130653645Y-104457500D01*
X130966355Y-104457500D01*
X131273057Y-104396493D01*
X131561963Y-104276824D01*
X131576666Y-104267000D01*
X132583334Y-104267000D01*
X132598037Y-104276824D01*
X132886943Y-104396493D01*
X133193645Y-104457500D01*
X133506355Y-104457500D01*
X133813057Y-104396493D01*
X134101963Y-104276824D01*
X134116666Y-104267000D01*
X135123334Y-104267000D01*
X135138037Y-104276824D01*
X135426943Y-104396493D01*
X135733645Y-104457500D01*
X136046355Y-104457500D01*
X136353057Y-104396493D01*
X136641963Y-104276824D01*
X136656666Y-104267000D01*
X137663334Y-104267000D01*
X137678037Y-104276824D01*
X137966943Y-104396493D01*
X138273645Y-104457500D01*
X138586355Y-104457500D01*
X138893057Y-104396493D01*
X139181963Y-104276824D01*
X139441972Y-104103092D01*
X139663092Y-103881972D01*
X139836824Y-103621963D01*
X139956493Y-103333057D01*
X140017500Y-103026355D01*
X140017500Y-102713645D01*
X139956493Y-102406943D01*
X139836824Y-102118037D01*
X139663092Y-101858028D01*
X139441972Y-101636908D01*
X139386735Y-101600000D01*
X139441972Y-101563092D01*
X139663092Y-101341972D01*
X139700000Y-101286735D01*
X139736908Y-101341972D01*
X139958028Y-101563092D01*
X140218037Y-101736824D01*
X140506943Y-101856493D01*
X140813645Y-101917500D01*
X141126355Y-101917500D01*
X141433057Y-101856493D01*
X141721963Y-101736824D01*
X141981972Y-101563092D01*
X142203092Y-101341972D01*
X142376824Y-101081963D01*
X142496493Y-100793057D01*
X142557500Y-100486355D01*
X142557500Y-100173645D01*
X142496493Y-99866943D01*
X142376824Y-99578037D01*
X142203092Y-99318028D01*
X141981972Y-99096908D01*
X141851039Y-99009422D01*
X141891930Y-98891535D01*
X140970000Y-97969605D01*
X140048070Y-98891535D01*
X140088961Y-99009422D01*
X139958028Y-99096908D01*
X139736908Y-99318028D01*
X139700000Y-99373265D01*
X139663092Y-99318028D01*
X139441972Y-99096908D01*
X139311039Y-99009422D01*
X139351930Y-98891535D01*
X138557000Y-98096605D01*
X138557000Y-97790000D01*
X138609605Y-97790000D01*
X139531535Y-98711930D01*
X139700000Y-98653495D01*
X139868465Y-98711930D01*
X140790395Y-97790000D01*
X141149605Y-97790000D01*
X142071535Y-98711930D01*
X142331081Y-98621902D01*
X142467224Y-98340384D01*
X142545829Y-98037714D01*
X142563877Y-97725526D01*
X142520672Y-97415815D01*
X142417877Y-97120484D01*
X142331081Y-96958098D01*
X142071535Y-96868070D01*
X141149605Y-97790000D01*
X140790395Y-97790000D01*
X139868465Y-96868070D01*
X139700000Y-96926505D01*
X139531535Y-96868070D01*
X138609605Y-97790000D01*
X138557000Y-97790000D01*
X138557000Y-97483395D01*
X139351930Y-96688465D01*
X139311039Y-96570578D01*
X139441972Y-96483092D01*
X139663092Y-96261972D01*
X139702136Y-96203539D01*
X139724208Y-96236572D01*
X139945328Y-96457692D01*
X140093724Y-96556847D01*
X140048070Y-96688465D01*
X140970000Y-97610395D01*
X141891930Y-96688465D01*
X141841497Y-96543068D01*
X141969272Y-96457692D01*
X142190392Y-96236572D01*
X142364124Y-95976563D01*
X142483793Y-95687657D01*
X142544800Y-95380955D01*
X142544800Y-95068245D01*
X142483793Y-94761543D01*
X142364124Y-94472637D01*
X142190392Y-94212628D01*
X141969272Y-93991508D01*
X141914035Y-93954600D01*
X141969272Y-93917692D01*
X142190392Y-93696572D01*
X142364124Y-93436563D01*
X142483793Y-93147657D01*
X142544800Y-92840955D01*
X142544800Y-92528245D01*
X142483793Y-92221543D01*
X142364124Y-91932637D01*
X142190392Y-91672628D01*
X141969272Y-91451508D01*
X141914035Y-91414600D01*
X141969272Y-91377692D01*
X142190392Y-91156572D01*
X142364124Y-90896563D01*
X142483793Y-90607657D01*
X142544800Y-90300955D01*
X142544800Y-89988245D01*
X142483793Y-89681543D01*
X142364124Y-89392637D01*
X142190392Y-89132628D01*
X141969272Y-88911508D01*
X141914035Y-88874600D01*
X141969272Y-88837692D01*
X142190392Y-88616572D01*
X142364124Y-88356563D01*
X142483793Y-88067657D01*
X142544800Y-87760955D01*
X142544800Y-87448245D01*
X142483793Y-87141543D01*
X142364124Y-86852637D01*
X142190392Y-86592628D01*
X141969272Y-86371508D01*
X141914035Y-86334600D01*
X141969272Y-86297692D01*
X142190392Y-86076572D01*
X142364124Y-85816563D01*
X142483793Y-85527657D01*
X142544800Y-85220955D01*
X142544800Y-84908245D01*
X142483793Y-84601543D01*
X142364124Y-84312637D01*
X142190392Y-84052628D01*
X141969272Y-83831508D01*
X141914035Y-83794600D01*
X141969272Y-83757692D01*
X142190392Y-83536572D01*
X142364124Y-83276563D01*
X142483793Y-82987657D01*
X142544800Y-82680955D01*
X142544800Y-82368245D01*
X142483793Y-82061543D01*
X142364124Y-81772637D01*
X142190392Y-81512628D01*
X141969272Y-81291508D01*
X141914035Y-81254600D01*
X141969272Y-81217692D01*
X142190392Y-80996572D01*
X142364124Y-80736563D01*
X142483793Y-80447657D01*
X142544800Y-80140955D01*
X142544800Y-79828245D01*
X142483793Y-79521543D01*
X142364124Y-79232637D01*
X142190392Y-78972628D01*
X141969272Y-78751508D01*
X141914035Y-78714600D01*
X141969272Y-78677692D01*
X142190392Y-78456572D01*
X142364124Y-78196563D01*
X142483793Y-77907657D01*
X142544800Y-77600955D01*
X142544800Y-77288245D01*
X142483793Y-76981543D01*
X142364124Y-76692637D01*
X142190392Y-76432628D01*
X141969272Y-76211508D01*
X141914035Y-76174600D01*
X141969272Y-76137692D01*
X142190392Y-75916572D01*
X142364124Y-75656563D01*
X142483793Y-75367657D01*
X142544800Y-75060955D01*
X142544800Y-74748245D01*
X142483793Y-74441543D01*
X142364124Y-74152637D01*
X142190392Y-73892628D01*
X141969272Y-73671508D01*
X141914035Y-73634600D01*
X141969272Y-73597692D01*
X142190392Y-73376572D01*
X142364124Y-73116563D01*
X142483793Y-72827657D01*
X142544800Y-72520955D01*
X142544800Y-72208245D01*
X142483793Y-71901543D01*
X142364124Y-71612637D01*
X142190392Y-71352628D01*
X141969272Y-71131508D01*
X141914035Y-71094600D01*
X141969272Y-71057692D01*
X142190392Y-70836572D01*
X142364124Y-70576563D01*
X142483793Y-70287657D01*
X142544800Y-69980955D01*
X142544800Y-69668245D01*
X142483793Y-69361543D01*
X142364124Y-69072637D01*
X142190392Y-68812628D01*
X141969272Y-68591508D01*
X141914035Y-68554600D01*
X141969272Y-68517692D01*
X142190392Y-68296572D01*
X142364124Y-68036563D01*
X142483793Y-67747657D01*
X142544800Y-67440955D01*
X142544800Y-67128245D01*
X142483793Y-66821543D01*
X142364124Y-66532637D01*
X142190392Y-66272628D01*
X141969272Y-66051508D01*
X141876943Y-65989816D01*
X141916930Y-65874535D01*
X140995000Y-64952605D01*
X140073070Y-65874535D01*
X140098870Y-65948915D01*
X139945328Y-66051508D01*
X139724208Y-66272628D01*
X139687300Y-66327865D01*
X139650392Y-66272628D01*
X139429272Y-66051508D01*
X139336943Y-65989816D01*
X139376930Y-65874535D01*
X138557000Y-65054605D01*
X138557000Y-64773000D01*
X138634605Y-64773000D01*
X139556535Y-65694930D01*
X139725000Y-65636495D01*
X139893465Y-65694930D01*
X140815395Y-64773000D01*
X141174605Y-64773000D01*
X142096535Y-65694930D01*
X142356081Y-65604902D01*
X142492224Y-65323384D01*
X142570829Y-65020714D01*
X142588877Y-64708526D01*
X142545672Y-64398815D01*
X142442877Y-64103484D01*
X142356081Y-63941098D01*
X142096535Y-63851070D01*
X141174605Y-64773000D01*
X140815395Y-64773000D01*
X139893465Y-63851070D01*
X139725000Y-63909505D01*
X139556535Y-63851070D01*
X138634605Y-64773000D01*
X138557000Y-64773000D01*
X138557000Y-64491395D01*
X139376930Y-63671465D01*
X139330490Y-63537582D01*
X139441972Y-63463092D01*
X139663092Y-63241972D01*
X139700000Y-63186735D01*
X139736908Y-63241972D01*
X139958028Y-63463092D01*
X140110102Y-63564704D01*
X140073070Y-63671465D01*
X140995000Y-64593395D01*
X141916930Y-63671465D01*
X141870490Y-63537582D01*
X141981972Y-63463092D01*
X142203092Y-63241972D01*
X142376824Y-62981963D01*
X142496493Y-62693057D01*
X142557500Y-62386355D01*
X142557500Y-62073645D01*
X142496493Y-61766943D01*
X142376824Y-61478037D01*
X142203092Y-61218028D01*
X141981972Y-60996908D01*
X141721963Y-60823176D01*
X141433057Y-60703507D01*
X141126355Y-60642500D01*
X140813645Y-60642500D01*
X140506943Y-60703507D01*
X140218037Y-60823176D01*
X139958028Y-60996908D01*
X139736908Y-61218028D01*
X139700000Y-61273265D01*
X139663092Y-61218028D01*
X139441972Y-60996908D01*
X139386735Y-60960000D01*
X139441972Y-60923092D01*
X139663092Y-60701972D01*
X139836824Y-60441963D01*
X139956493Y-60153057D01*
X140017500Y-59846355D01*
X140017500Y-59533645D01*
X139956493Y-59226943D01*
X139836824Y-58938037D01*
X139663092Y-58678028D01*
X139441972Y-58456908D01*
X139181963Y-58283176D01*
X138893057Y-58163507D01*
X138586355Y-58102500D01*
X138273645Y-58102500D01*
X137966943Y-58163507D01*
X137678037Y-58283176D01*
X137663334Y-58293000D01*
X136656666Y-58293000D01*
X136641963Y-58283176D01*
X136353057Y-58163507D01*
X136046355Y-58102500D01*
X135733645Y-58102500D01*
X135426943Y-58163507D01*
X135138037Y-58283176D01*
X135123334Y-58293000D01*
X134116666Y-58293000D01*
X134101963Y-58283176D01*
X133813057Y-58163507D01*
X133506355Y-58102500D01*
X133193645Y-58102500D01*
X132886943Y-58163507D01*
X132598037Y-58283176D01*
X132583334Y-58293000D01*
X131576666Y-58293000D01*
X131561963Y-58283176D01*
X131273057Y-58163507D01*
X130966355Y-58102500D01*
X130653645Y-58102500D01*
X130346943Y-58163507D01*
X130058037Y-58283176D01*
X130043334Y-58293000D01*
X129036666Y-58293000D01*
X129021963Y-58283176D01*
X128733057Y-58163507D01*
X128426355Y-58102500D01*
X128113645Y-58102500D01*
X127806943Y-58163507D01*
X127518037Y-58283176D01*
X127503334Y-58293000D01*
X126496666Y-58293000D01*
X126481963Y-58283176D01*
X126193057Y-58163507D01*
X125886355Y-58102500D01*
X125573645Y-58102500D01*
X125266943Y-58163507D01*
X124978037Y-58283176D01*
X124963334Y-58293000D01*
X123956666Y-58293000D01*
X123941963Y-58283176D01*
X123653057Y-58163507D01*
X123346355Y-58102500D01*
X123033645Y-58102500D01*
X122726943Y-58163507D01*
X122438037Y-58283176D01*
X122423334Y-58293000D01*
X121416666Y-58293000D01*
X121401963Y-58283176D01*
X121113057Y-58163507D01*
X120806355Y-58102500D01*
X120493645Y-58102500D01*
X120186943Y-58163507D01*
X119898037Y-58283176D01*
X119883334Y-58293000D01*
X118876666Y-58293000D01*
X118861963Y-58283176D01*
X118573057Y-58163507D01*
X118266355Y-58102500D01*
X117953645Y-58102500D01*
X117646943Y-58163507D01*
X117358037Y-58283176D01*
X117343334Y-58293000D01*
X116336666Y-58293000D01*
X116321963Y-58283176D01*
X116033057Y-58163507D01*
X115726355Y-58102500D01*
X115413645Y-58102500D01*
X115106943Y-58163507D01*
X114818037Y-58283176D01*
X114803334Y-58293000D01*
X113796666Y-58293000D01*
X113781963Y-58283176D01*
X113493057Y-58163507D01*
X113186355Y-58102500D01*
X112873645Y-58102500D01*
X112566943Y-58163507D01*
X112278037Y-58283176D01*
X112263334Y-58293000D01*
X111256666Y-58293000D01*
X111241963Y-58283176D01*
X110953057Y-58163507D01*
X110646355Y-58102500D01*
X110333645Y-58102500D01*
X110026943Y-58163507D01*
X109738037Y-58283176D01*
X109723334Y-58293000D01*
X108716666Y-58293000D01*
X108701963Y-58283176D01*
X108413057Y-58163507D01*
X108106355Y-58102500D01*
X107793645Y-58102500D01*
X107486943Y-58163507D01*
X107198037Y-58283176D01*
X107183334Y-58293000D01*
X106176666Y-58293000D01*
X106161963Y-58283176D01*
X105873057Y-58163507D01*
X105566355Y-58102500D01*
X105253645Y-58102500D01*
X104946943Y-58163507D01*
X104658037Y-58283176D01*
X104643334Y-58293000D01*
X103636666Y-58293000D01*
X103621963Y-58283176D01*
X103333057Y-58163507D01*
X103026355Y-58102500D01*
X102713645Y-58102500D01*
X102406943Y-58163507D01*
X102118037Y-58283176D01*
X102103334Y-58293000D01*
X101096666Y-58293000D01*
X101081963Y-58283176D01*
X100793057Y-58163507D01*
X100486355Y-58102500D01*
X100173645Y-58102500D01*
X99866943Y-58163507D01*
X99578037Y-58283176D01*
X99563334Y-58293000D01*
X98556666Y-58293000D01*
X98541963Y-58283176D01*
X98253057Y-58163507D01*
X97946355Y-58102500D01*
X97633645Y-58102500D01*
X97326943Y-58163507D01*
X97038037Y-58283176D01*
X97023334Y-58293000D01*
X96016666Y-58293000D01*
X96001963Y-58283176D01*
X95713057Y-58163507D01*
X95406355Y-58102500D01*
X95093645Y-58102500D01*
X94786943Y-58163507D01*
X94498037Y-58283176D01*
X94483334Y-58293000D01*
X93476666Y-58293000D01*
X93461963Y-58283176D01*
X93173057Y-58163507D01*
X92866355Y-58102500D01*
X92553645Y-58102500D01*
X92246943Y-58163507D01*
X91958037Y-58283176D01*
X91943334Y-58293000D01*
X90936666Y-58293000D01*
X90921963Y-58283176D01*
X90633057Y-58163507D01*
X90326355Y-58102500D01*
X90013645Y-58102500D01*
X89706943Y-58163507D01*
X89418037Y-58283176D01*
X89403334Y-58293000D01*
X88396666Y-58293000D01*
X88381963Y-58283176D01*
X88093057Y-58163507D01*
X87786355Y-58102500D01*
X87473645Y-58102500D01*
X87166943Y-58163507D01*
X86878037Y-58283176D01*
X86863334Y-58293000D01*
X85856666Y-58293000D01*
X85841963Y-58283176D01*
X85553057Y-58163507D01*
X85246355Y-58102500D01*
X84933645Y-58102500D01*
X84626943Y-58163507D01*
X84338037Y-58283176D01*
X84323334Y-58293000D01*
X83316666Y-58293000D01*
X83301963Y-58283176D01*
X83013057Y-58163507D01*
X82706355Y-58102500D01*
X82393645Y-58102500D01*
X82086943Y-58163507D01*
X81798037Y-58283176D01*
X81783334Y-58293000D01*
X80776666Y-58293000D01*
X80761963Y-58283176D01*
X80473057Y-58163507D01*
X80166355Y-58102500D01*
X79853645Y-58102500D01*
X79546943Y-58163507D01*
X79258037Y-58283176D01*
X79243334Y-58293000D01*
X78236666Y-58293000D01*
X78221963Y-58283176D01*
X77933057Y-58163507D01*
X77626355Y-58102500D01*
X77313645Y-58102500D01*
X77006943Y-58163507D01*
X76718037Y-58283176D01*
X76703334Y-58293000D01*
X75696666Y-58293000D01*
X75681963Y-58283176D01*
X75393057Y-58163507D01*
X75086355Y-58102500D01*
X74773645Y-58102500D01*
X74466943Y-58163507D01*
X74178037Y-58283176D01*
X74163334Y-58293000D01*
X73156666Y-58293000D01*
X73141963Y-58283176D01*
X72853057Y-58163507D01*
X72546355Y-58102500D01*
X72233645Y-58102500D01*
X71926943Y-58163507D01*
X71638037Y-58283176D01*
X71623334Y-58293000D01*
X70616666Y-58293000D01*
X70601963Y-58283176D01*
X70313057Y-58163507D01*
X70006355Y-58102500D01*
X69693645Y-58102500D01*
X69386943Y-58163507D01*
X69098037Y-58283176D01*
X69083334Y-58293000D01*
X68076666Y-58293000D01*
X68061963Y-58283176D01*
X67773057Y-58163507D01*
X67466355Y-58102500D01*
X67153645Y-58102500D01*
X66846943Y-58163507D01*
X66558037Y-58283176D01*
X66543334Y-58293000D01*
X65536666Y-58293000D01*
X65521963Y-58283176D01*
X65233057Y-58163507D01*
X64926355Y-58102500D01*
X64613645Y-58102500D01*
X64306943Y-58163507D01*
X64018037Y-58283176D01*
X63758028Y-58456908D01*
X63536908Y-58678028D01*
X63363176Y-58938037D01*
X63243507Y-59226943D01*
X63182500Y-59533645D01*
X63182500Y-59846355D01*
X63243507Y-60153057D01*
X63363176Y-60441963D01*
X63536908Y-60701972D01*
X63758028Y-60923092D01*
X63813265Y-60960000D01*
X63758028Y-60996908D01*
X63536908Y-61218028D01*
X63363176Y-61478037D01*
X63243507Y-61766943D01*
X63182500Y-62073645D01*
X63182500Y-62386355D01*
X63243507Y-62693057D01*
X63363176Y-62981963D01*
X63536908Y-63241972D01*
X63758028Y-63463092D01*
X63910102Y-63564704D01*
X63873070Y-63671465D01*
X64643000Y-64441395D01*
X64643000Y-65104605D01*
X63873070Y-65874535D01*
X63898870Y-65948915D01*
X63745328Y-66051508D01*
X63524208Y-66272628D01*
X63350476Y-66532637D01*
X63230807Y-66821543D01*
X63169800Y-67128245D01*
X63169800Y-67440955D01*
X63230807Y-67747657D01*
X63350476Y-68036563D01*
X63524208Y-68296572D01*
X63745328Y-68517692D01*
X63800565Y-68554600D01*
X63745328Y-68591508D01*
X63524208Y-68812628D01*
X63350476Y-69072637D01*
X63230807Y-69361543D01*
X63169800Y-69668245D01*
X63169800Y-69980955D01*
X63230807Y-70287657D01*
X63350476Y-70576563D01*
X63524208Y-70836572D01*
X63745328Y-71057692D01*
X63800565Y-71094600D01*
X63745328Y-71131508D01*
X63524208Y-71352628D01*
X63350476Y-71612637D01*
X63230807Y-71901543D01*
X63169800Y-72208245D01*
X63169800Y-72520955D01*
X63230807Y-72827657D01*
X63350476Y-73116563D01*
X63524208Y-73376572D01*
X63745328Y-73597692D01*
X63800565Y-73634600D01*
X63745328Y-73671508D01*
X63524208Y-73892628D01*
X63350476Y-74152637D01*
X63230807Y-74441543D01*
X63169800Y-74748245D01*
X63169800Y-75060955D01*
X63230807Y-75367657D01*
X63350476Y-75656563D01*
X63524208Y-75916572D01*
X63745328Y-76137692D01*
X63800565Y-76174600D01*
X63745328Y-76211508D01*
X63524208Y-76432628D01*
X63350476Y-76692637D01*
X63230807Y-76981543D01*
X63169800Y-77288245D01*
X63169800Y-77600955D01*
X63230807Y-77907657D01*
X63350476Y-78196563D01*
X63524208Y-78456572D01*
X63745328Y-78677692D01*
X63800565Y-78714600D01*
X63745328Y-78751508D01*
X63524208Y-78972628D01*
X63350476Y-79232637D01*
X63230807Y-79521543D01*
X63169800Y-79828245D01*
X63169800Y-80140955D01*
X63230807Y-80447657D01*
X63350476Y-80736563D01*
X63524208Y-80996572D01*
X63745328Y-81217692D01*
X63800565Y-81254600D01*
X63745328Y-81291508D01*
X63524208Y-81512628D01*
X63350476Y-81772637D01*
X63230807Y-82061543D01*
X63169800Y-82368245D01*
X63169800Y-82680955D01*
X63230807Y-82987657D01*
X63350476Y-83276563D01*
X63524208Y-83536572D01*
X63745328Y-83757692D01*
X63800565Y-83794600D01*
X63745328Y-83831508D01*
X63524208Y-84052628D01*
X63350476Y-84312637D01*
X63230807Y-84601543D01*
X63169800Y-84908245D01*
X63169800Y-85220955D01*
X63230807Y-85527657D01*
X63350476Y-85816563D01*
X63524208Y-86076572D01*
X63745328Y-86297692D01*
X63800565Y-86334600D01*
X63745328Y-86371508D01*
X63524208Y-86592628D01*
X63350476Y-86852637D01*
X63230807Y-87141543D01*
X63169800Y-87448245D01*
X63169800Y-87760955D01*
X63230807Y-88067657D01*
X63350476Y-88356563D01*
X63524208Y-88616572D01*
X63745328Y-88837692D01*
X63800565Y-88874600D01*
X63745328Y-88911508D01*
X63524208Y-89132628D01*
X63350476Y-89392637D01*
X63230807Y-89681543D01*
X63169800Y-89988245D01*
X63169800Y-90300955D01*
X63230807Y-90607657D01*
X63350476Y-90896563D01*
X63524208Y-91156572D01*
X63745328Y-91377692D01*
X63800565Y-91414600D01*
X63745328Y-91451508D01*
X63524208Y-91672628D01*
X63350476Y-91932637D01*
X63230807Y-92221543D01*
X63169800Y-92528245D01*
X63169800Y-92840955D01*
X63230807Y-93147657D01*
X63350476Y-93436563D01*
X63524208Y-93696572D01*
X63745328Y-93917692D01*
X63825922Y-93971543D01*
X63758028Y-94016908D01*
X63536908Y-94238028D01*
X63363176Y-94498037D01*
X63243507Y-94786943D01*
X63182500Y-95093645D01*
X63182500Y-95406355D01*
X63243507Y-95713057D01*
X63363176Y-96001963D01*
X63536908Y-96261972D01*
X63758028Y-96483092D01*
X63888961Y-96570578D01*
X63848070Y-96688465D01*
X64643000Y-97483395D01*
X64643000Y-98096605D01*
X63848070Y-98891535D01*
X63888961Y-99009422D01*
X63758028Y-99096908D01*
X63536908Y-99318028D01*
X63535590Y-99320000D01*
X58748356Y-99320000D01*
X58324151Y-98895795D01*
X58421340Y-98843847D01*
X58575133Y-98717633D01*
X58606762Y-98679093D01*
X58769091Y-98516763D01*
X58807634Y-98485132D01*
X58933848Y-98331339D01*
X59027633Y-98155879D01*
X59085386Y-97965493D01*
X59096320Y-97854474D01*
X63176123Y-97854474D01*
X63219328Y-98164185D01*
X63322123Y-98459516D01*
X63408919Y-98621902D01*
X63668465Y-98711930D01*
X64590395Y-97790000D01*
X63668465Y-96868070D01*
X63408919Y-96958098D01*
X63272776Y-97239616D01*
X63194171Y-97542286D01*
X63176123Y-97854474D01*
X59096320Y-97854474D01*
X59100001Y-97817107D01*
X59100001Y-97817105D01*
X59104887Y-97767500D01*
X59100001Y-97717895D01*
X59100001Y-91639605D01*
X59104887Y-91590000D01*
X59097032Y-91510252D01*
X59085386Y-91392007D01*
X59027633Y-91201621D01*
X58933848Y-91026161D01*
X58807634Y-90872368D01*
X58769095Y-90840740D01*
X58627433Y-90699078D01*
X58635000Y-90661033D01*
X58635000Y-90338967D01*
X58572168Y-90023088D01*
X58448918Y-89725537D01*
X58269987Y-89457748D01*
X58042252Y-89230013D01*
X57774463Y-89051082D01*
X57476912Y-88927832D01*
X57161033Y-88865000D01*
X56838967Y-88865000D01*
X56523088Y-88927832D01*
X56225537Y-89051082D01*
X55957748Y-89230013D01*
X55730013Y-89457748D01*
X55551082Y-89725537D01*
X55427832Y-90023088D01*
X55365000Y-90338967D01*
X55365000Y-90661033D01*
X55427832Y-90976912D01*
X55551082Y-91274463D01*
X55730013Y-91542252D01*
X55957748Y-91769987D01*
X56225537Y-91948918D01*
X56523088Y-92072168D01*
X56838967Y-92135000D01*
X57080001Y-92135000D01*
X57080001Y-94612098D01*
X56926816Y-94573700D01*
X56644488Y-94559783D01*
X56364870Y-94601213D01*
X56098708Y-94696397D01*
X55973486Y-94763329D01*
X55901903Y-95007298D01*
X56715000Y-95820395D01*
X56729143Y-95806253D01*
X56908748Y-95985858D01*
X56894605Y-96000000D01*
X56908748Y-96014143D01*
X56729143Y-96193748D01*
X56715000Y-96179605D01*
X56700858Y-96193748D01*
X56521253Y-96014143D01*
X56535395Y-96000000D01*
X55722298Y-95186903D01*
X55478329Y-95258486D01*
X55357429Y-95513996D01*
X55288700Y-95788184D01*
X55274783Y-96070512D01*
X55316213Y-96350130D01*
X55411397Y-96616292D01*
X55476616Y-96738309D01*
X55463815Y-96748815D01*
X55384463Y-96845506D01*
X55325498Y-96955820D01*
X55289188Y-97075518D01*
X55276928Y-97200000D01*
X55276928Y-98800000D01*
X55289188Y-98924482D01*
X55325498Y-99044180D01*
X55384463Y-99154494D01*
X55463815Y-99251185D01*
X55560506Y-99330537D01*
X55670820Y-99389502D01*
X55790518Y-99425812D01*
X55915000Y-99438072D01*
X56003994Y-99438072D01*
X56035906Y-99464261D01*
X57580744Y-101009099D01*
X57612367Y-101047633D01*
X57766160Y-101173847D01*
X57941620Y-101267632D01*
X58132005Y-101325385D01*
X58330000Y-101344886D01*
X58379608Y-101340000D01*
X63535590Y-101340000D01*
X63536908Y-101341972D01*
X63758028Y-101563092D01*
X63813265Y-101600000D01*
X63758028Y-101636908D01*
X63536908Y-101858028D01*
X63535590Y-101860000D01*
X55288356Y-101860000D01*
X52246195Y-98817840D01*
X52331134Y-98748133D01*
X52344882Y-98731381D01*
X52361634Y-98717633D01*
X52487848Y-98563840D01*
X52581633Y-98388380D01*
X52639386Y-98197994D01*
X52654001Y-98049608D01*
X52658887Y-98000000D01*
X52654001Y-97950392D01*
X52654001Y-96705189D01*
X52654010Y-96705098D01*
X52658896Y-96655490D01*
X52654010Y-96605882D01*
X52654010Y-91892618D01*
X52658896Y-91843010D01*
X52639395Y-91645015D01*
X52581642Y-91454630D01*
X52487856Y-91279169D01*
X52424215Y-91201621D01*
X52361643Y-91125377D01*
X52323109Y-91093753D01*
X51896433Y-90667077D01*
X51904000Y-90629033D01*
X51904000Y-90306967D01*
X51841168Y-89991088D01*
X51717918Y-89693537D01*
X51538987Y-89425748D01*
X51311252Y-89198013D01*
X51043463Y-89019082D01*
X50745912Y-88895832D01*
X50430033Y-88833000D01*
X50107967Y-88833000D01*
X49792088Y-88895832D01*
X49494537Y-89019082D01*
X49226748Y-89198013D01*
X48999013Y-89425748D01*
X48820082Y-89693537D01*
X48696832Y-89991088D01*
X48634000Y-90306967D01*
X46380000Y-90306967D01*
X46380000Y-85306967D01*
X48634000Y-85306967D01*
X48634000Y-85629033D01*
X48696832Y-85944912D01*
X48820082Y-86242463D01*
X48999013Y-86510252D01*
X49226748Y-86737987D01*
X49494537Y-86916918D01*
X49792088Y-87040168D01*
X50107967Y-87103000D01*
X50430033Y-87103000D01*
X50745912Y-87040168D01*
X51043463Y-86916918D01*
X51311252Y-86737987D01*
X51538987Y-86510252D01*
X51717918Y-86242463D01*
X51841168Y-85944912D01*
X51904000Y-85629033D01*
X51904000Y-85306967D01*
X51896433Y-85268923D01*
X52924100Y-84241256D01*
X52962633Y-84209633D01*
X53088847Y-84055840D01*
X53182632Y-83880380D01*
X53240385Y-83689994D01*
X53255000Y-83541608D01*
X53259886Y-83492000D01*
X53255000Y-83442392D01*
X53255000Y-77499341D01*
X53314364Y-77439977D01*
X53331898Y-77497780D01*
X53390863Y-77608094D01*
X53470215Y-77704785D01*
X53566906Y-77784137D01*
X53677220Y-77843102D01*
X53796918Y-77879412D01*
X53921400Y-77891672D01*
X55648600Y-77891672D01*
X55705001Y-77886117D01*
X55705001Y-84495181D01*
X55551082Y-84725537D01*
X55427832Y-85023088D01*
X55365000Y-85338967D01*
X55365000Y-85661033D01*
X55427832Y-85976912D01*
X55551082Y-86274463D01*
X55730013Y-86542252D01*
X55957748Y-86769987D01*
X56225537Y-86948918D01*
X56523088Y-87072168D01*
X56838967Y-87135000D01*
X57161033Y-87135000D01*
X57476912Y-87072168D01*
X57774463Y-86948918D01*
X58042252Y-86769987D01*
X58269987Y-86542252D01*
X58448918Y-86274463D01*
X58572168Y-85976912D01*
X58635000Y-85661033D01*
X58635000Y-85338967D01*
X58572168Y-85023088D01*
X58448918Y-84725537D01*
X58269987Y-84457748D01*
X58042252Y-84230013D01*
X57774463Y-84051082D01*
X57725000Y-84030594D01*
X57725000Y-68209604D01*
X57729886Y-68159999D01*
X57717728Y-68036563D01*
X57710385Y-67962006D01*
X57652632Y-67771620D01*
X57558847Y-67596160D01*
X57432633Y-67442367D01*
X57394094Y-67410739D01*
X56283600Y-66300245D01*
X56283600Y-66082401D01*
X56226010Y-65792875D01*
X56113042Y-65520147D01*
X55949039Y-65274698D01*
X55740302Y-65065961D01*
X55494853Y-64901958D01*
X55339176Y-64837474D01*
X63201123Y-64837474D01*
X63244328Y-65147185D01*
X63347123Y-65442516D01*
X63433919Y-65604902D01*
X63693465Y-65694930D01*
X64615395Y-64773000D01*
X63693465Y-63851070D01*
X63433919Y-63941098D01*
X63297776Y-64222616D01*
X63219171Y-64525286D01*
X63201123Y-64837474D01*
X55339176Y-64837474D01*
X55222125Y-64788990D01*
X54932599Y-64731400D01*
X54637401Y-64731400D01*
X54347875Y-64788990D01*
X54075147Y-64901958D01*
X53829698Y-65065961D01*
X53675659Y-65220000D01*
X53354341Y-65220000D01*
X53200302Y-65065961D01*
X52954853Y-64901958D01*
X52682125Y-64788990D01*
X52392599Y-64731400D01*
X52097401Y-64731400D01*
X51807875Y-64788990D01*
X51535147Y-64901958D01*
X51289698Y-65065961D01*
X51080961Y-65274698D01*
X50916958Y-65520147D01*
X50803990Y-65792875D01*
X50746400Y-66082401D01*
X50746400Y-66377599D01*
X50803990Y-66667125D01*
X50916958Y-66939853D01*
X51080961Y-67185302D01*
X51289698Y-67394039D01*
X51455103Y-67504559D01*
X51356512Y-67563183D01*
X51138146Y-67759707D01*
X50962316Y-67995056D01*
X50835778Y-68260186D01*
X50790042Y-68410974D01*
X50911183Y-68643000D01*
X52118000Y-68643000D01*
X52118000Y-68623000D01*
X52372000Y-68623000D01*
X52372000Y-68643000D01*
X54658000Y-68643000D01*
X54658000Y-68623000D01*
X54912000Y-68623000D01*
X54912000Y-68643000D01*
X54932000Y-68643000D01*
X54932000Y-68897000D01*
X54912000Y-68897000D01*
X54912000Y-71183000D01*
X54932000Y-71183000D01*
X54932000Y-71437000D01*
X54912000Y-71437000D01*
X54912000Y-73723000D01*
X54932000Y-73723000D01*
X54932000Y-73977000D01*
X54912000Y-73977000D01*
X54912000Y-73997000D01*
X54658000Y-73997000D01*
X54658000Y-73977000D01*
X52372000Y-73977000D01*
X52372000Y-73997000D01*
X52118000Y-73997000D01*
X52118000Y-73977000D01*
X50911183Y-73977000D01*
X50790042Y-74209026D01*
X50835778Y-74359814D01*
X50962316Y-74624944D01*
X51138146Y-74860293D01*
X51356512Y-75056817D01*
X51455103Y-75115441D01*
X51289698Y-75225961D01*
X51080961Y-75434698D01*
X50916958Y-75680147D01*
X50803990Y-75952875D01*
X50746400Y-76242401D01*
X50746400Y-76537599D01*
X50803990Y-76827125D01*
X50916958Y-77099853D01*
X51080961Y-77345302D01*
X51235000Y-77499341D01*
X51235001Y-83073643D01*
X50468077Y-83840567D01*
X50430033Y-83833000D01*
X50107967Y-83833000D01*
X49792088Y-83895832D01*
X49494537Y-84019082D01*
X49226748Y-84198013D01*
X48999013Y-84425748D01*
X48820082Y-84693537D01*
X48696832Y-84991088D01*
X48634000Y-85306967D01*
X46380000Y-85306967D01*
X46380000Y-71669026D01*
X50790042Y-71669026D01*
X50835778Y-71819814D01*
X50962316Y-72084944D01*
X51138146Y-72320293D01*
X51356512Y-72516817D01*
X51462770Y-72580000D01*
X51356512Y-72643183D01*
X51138146Y-72839707D01*
X50962316Y-73075056D01*
X50835778Y-73340186D01*
X50790042Y-73490974D01*
X50911183Y-73723000D01*
X52118000Y-73723000D01*
X52118000Y-71437000D01*
X52372000Y-71437000D01*
X52372000Y-73723000D01*
X54658000Y-73723000D01*
X54658000Y-71437000D01*
X52372000Y-71437000D01*
X52118000Y-71437000D01*
X50911183Y-71437000D01*
X50790042Y-71669026D01*
X46380000Y-71669026D01*
X46380000Y-69129026D01*
X50790042Y-69129026D01*
X50835778Y-69279814D01*
X50962316Y-69544944D01*
X51138146Y-69780293D01*
X51356512Y-69976817D01*
X51462770Y-70040000D01*
X51356512Y-70103183D01*
X51138146Y-70299707D01*
X50962316Y-70535056D01*
X50835778Y-70800186D01*
X50790042Y-70950974D01*
X50911183Y-71183000D01*
X52118000Y-71183000D01*
X52118000Y-68897000D01*
X52372000Y-68897000D01*
X52372000Y-71183000D01*
X54658000Y-71183000D01*
X54658000Y-68897000D01*
X52372000Y-68897000D01*
X52118000Y-68897000D01*
X50911183Y-68897000D01*
X50790042Y-69129026D01*
X46380000Y-69129026D01*
X46380000Y-57442845D01*
X46876761Y-57442845D01*
X47044802Y-57768643D01*
X47436607Y-57969426D01*
X47860055Y-58089914D01*
X48298873Y-58125476D01*
X48736197Y-58074746D01*
X49155221Y-57939674D01*
X49475198Y-57768643D01*
X49643239Y-57442845D01*
X142126761Y-57442845D01*
X142294802Y-57768643D01*
X142686607Y-57969426D01*
X143110055Y-58089914D01*
X143548873Y-58125476D01*
X143986197Y-58074746D01*
X144405221Y-57939674D01*
X144725198Y-57768643D01*
X144893239Y-57442845D01*
X143510000Y-56059605D01*
X142126761Y-57442845D01*
X49643239Y-57442845D01*
X48260000Y-56059605D01*
X46876761Y-57442845D01*
X46380000Y-57442845D01*
X46380000Y-57099656D01*
X46697155Y-57263239D01*
X48080395Y-55880000D01*
X48439605Y-55880000D01*
X49822845Y-57263239D01*
X50148643Y-57095198D01*
X50349426Y-56703393D01*
X50469914Y-56279945D01*
X50499175Y-55918873D01*
X141264524Y-55918873D01*
X141315254Y-56356197D01*
X141450326Y-56775221D01*
X141621357Y-57095198D01*
X141947155Y-57263239D01*
X143330395Y-55880000D01*
X141947155Y-54496761D01*
X141621357Y-54664802D01*
X141420574Y-55056607D01*
X141300086Y-55480055D01*
X141264524Y-55918873D01*
X50499175Y-55918873D01*
X50505476Y-55841127D01*
X50454746Y-55403803D01*
X50319674Y-54984779D01*
X50148643Y-54664802D01*
X49822845Y-54496761D01*
X48439605Y-55880000D01*
X48080395Y-55880000D01*
X46697155Y-54496761D01*
X46380000Y-54660344D01*
X46380000Y-54000000D01*
X47040344Y-54000000D01*
X46876761Y-54317155D01*
G37*
X46876761Y-54317155D02*
X48260000Y-55700395D01*
X49643239Y-54317155D01*
X49479656Y-54000000D01*
X142290344Y-54000000D01*
X142126761Y-54317155D01*
X143510000Y-55700395D01*
X144893239Y-54317155D01*
X144729656Y-54000000D01*
X145390000Y-54000000D01*
X145390000Y-54660344D01*
X145072845Y-54496761D01*
X143689605Y-55880000D01*
X145072845Y-57263239D01*
X145390000Y-57099656D01*
X145390001Y-105460345D01*
X145072845Y-105296761D01*
X143689605Y-106680000D01*
X145072845Y-108063239D01*
X145390001Y-107899655D01*
X145390001Y-108560000D01*
X144729656Y-108560000D01*
X144893239Y-108242845D01*
X143510000Y-106859605D01*
X142126761Y-108242845D01*
X142290344Y-108560000D01*
X49479656Y-108560000D01*
X49643239Y-108242845D01*
X48260000Y-106859605D01*
X46876761Y-108242845D01*
X47040344Y-108560000D01*
X46380000Y-108560000D01*
X46380000Y-107899656D01*
X46697155Y-108063239D01*
X48080395Y-106680000D01*
X48439605Y-106680000D01*
X49822845Y-108063239D01*
X50148643Y-107895198D01*
X50349426Y-107503393D01*
X50469914Y-107079945D01*
X50499175Y-106718873D01*
X141264524Y-106718873D01*
X141315254Y-107156197D01*
X141450326Y-107575221D01*
X141621357Y-107895198D01*
X141947155Y-108063239D01*
X143330395Y-106680000D01*
X141947155Y-105296761D01*
X141621357Y-105464802D01*
X141420574Y-105856607D01*
X141300086Y-106280055D01*
X141264524Y-106718873D01*
X50499175Y-106718873D01*
X50505476Y-106641127D01*
X50454746Y-106203803D01*
X50319674Y-105784779D01*
X50148643Y-105464802D01*
X49822845Y-105296761D01*
X48439605Y-106680000D01*
X48080395Y-106680000D01*
X46697155Y-105296761D01*
X46380000Y-105460344D01*
X46380000Y-105117155D01*
X46876761Y-105117155D01*
X48260000Y-106500395D01*
X49643239Y-105117155D01*
X142126761Y-105117155D01*
X143510000Y-106500395D01*
X144893239Y-105117155D01*
X144725198Y-104791357D01*
X144333393Y-104590574D01*
X143909945Y-104470086D01*
X143471127Y-104434524D01*
X143033803Y-104485254D01*
X142614779Y-104620326D01*
X142294802Y-104791357D01*
X142126761Y-105117155D01*
X49643239Y-105117155D01*
X49475198Y-104791357D01*
X49083393Y-104590574D01*
X48659945Y-104470086D01*
X48221127Y-104434524D01*
X47783803Y-104485254D01*
X47364779Y-104620326D01*
X47044802Y-104791357D01*
X46876761Y-105117155D01*
X46380000Y-105117155D01*
X46380000Y-95168000D01*
X48830928Y-95168000D01*
X48834000Y-95682250D01*
X48992750Y-95841000D01*
X50142000Y-95841000D01*
X50142000Y-94691750D01*
X49983250Y-94533000D01*
X49469000Y-94529928D01*
X49344518Y-94542188D01*
X49224820Y-94578498D01*
X49114506Y-94637463D01*
X49017815Y-94716815D01*
X48938463Y-94813506D01*
X48879498Y-94923820D01*
X48843188Y-95043518D01*
X48830928Y-95168000D01*
X46380000Y-95168000D01*
X46380000Y-90306967D01*
X48634000Y-90306967D01*
X48634000Y-90629033D01*
X48696832Y-90944912D01*
X48820082Y-91242463D01*
X48999013Y-91510252D01*
X49226748Y-91737987D01*
X49494537Y-91916918D01*
X49792088Y-92040168D01*
X50107967Y-92103000D01*
X50430033Y-92103000D01*
X50468077Y-92095433D01*
X50634010Y-92261366D01*
X50634011Y-94532527D01*
X50554750Y-94533000D01*
X50396000Y-94691750D01*
X50396000Y-95841000D01*
X50416000Y-95841000D01*
X50416000Y-96095000D01*
X50396000Y-96095000D01*
X50396000Y-96115000D01*
X50142000Y-96115000D01*
X50142000Y-96095000D01*
X48992750Y-96095000D01*
X48834000Y-96253750D01*
X48830928Y-96768000D01*
X48843188Y-96892482D01*
X48879498Y-97012180D01*
X48938463Y-97122494D01*
X49017815Y-97219185D01*
X49034393Y-97232790D01*
X48997320Y-97288273D01*
X48889147Y-97549426D01*
X48834000Y-97826665D01*
X48834000Y-98109335D01*
X48889147Y-98386574D01*
X48997320Y-98647727D01*
X49154363Y-98882759D01*
X49354241Y-99082637D01*
X49589273Y-99239680D01*
X49850426Y-99347853D01*
X49936649Y-99365004D01*
X54120744Y-103549100D01*
X54152367Y-103587633D01*
X54306160Y-103713847D01*
X54481620Y-103807632D01*
X54672005Y-103865385D01*
X54870000Y-103884886D01*
X54919608Y-103880000D01*
X63535590Y-103880000D01*
X63536908Y-103881972D01*
X63758028Y-104103092D01*
X64018037Y-104276824D01*
X64306943Y-104396493D01*
X64613645Y-104457500D01*
X64926355Y-104457500D01*
X65233057Y-104396493D01*
X65521963Y-104276824D01*
X65536666Y-104267000D01*
X66543334Y-104267000D01*
X66558037Y-104276824D01*
X66846943Y-104396493D01*
X67153645Y-104457500D01*
X67466355Y-104457500D01*
X67773057Y-104396493D01*
X68061963Y-104276824D01*
X68076666Y-104267000D01*
X69083334Y-104267000D01*
X69098037Y-104276824D01*
X69386943Y-104396493D01*
X69693645Y-104457500D01*
X70006355Y-104457500D01*
X70313057Y-104396493D01*
X70601963Y-104276824D01*
X70616666Y-104267000D01*
X71623334Y-104267000D01*
X71638037Y-104276824D01*
X71926943Y-104396493D01*
X72233645Y-104457500D01*
X72546355Y-104457500D01*
X72853057Y-104396493D01*
X73141963Y-104276824D01*
X73156666Y-104267000D01*
X74163334Y-104267000D01*
X74178037Y-104276824D01*
X74466943Y-104396493D01*
X74773645Y-104457500D01*
X75086355Y-104457500D01*
X75393057Y-104396493D01*
X75681963Y-104276824D01*
X75696666Y-104267000D01*
X76703334Y-104267000D01*
X76718037Y-104276824D01*
X77006943Y-104396493D01*
X77313645Y-104457500D01*
X77626355Y-104457500D01*
X77933057Y-104396493D01*
X78221963Y-104276824D01*
X78236666Y-104267000D01*
X79243334Y-104267000D01*
X79258037Y-104276824D01*
X79546943Y-104396493D01*
X79853645Y-104457500D01*
X80166355Y-104457500D01*
X80473057Y-104396493D01*
X80761963Y-104276824D01*
X80776666Y-104267000D01*
X81783334Y-104267000D01*
X81798037Y-104276824D01*
X82086943Y-104396493D01*
X82393645Y-104457500D01*
X82706355Y-104457500D01*
X83013057Y-104396493D01*
X83301963Y-104276824D01*
X83316666Y-104267000D01*
X84323334Y-104267000D01*
X84338037Y-104276824D01*
X84626943Y-104396493D01*
X84933645Y-104457500D01*
X85246355Y-104457500D01*
X85553057Y-104396493D01*
X85841963Y-104276824D01*
X85856666Y-104267000D01*
X86863334Y-104267000D01*
X86878037Y-104276824D01*
X87166943Y-104396493D01*
X87473645Y-104457500D01*
X87786355Y-104457500D01*
X88093057Y-104396493D01*
X88381963Y-104276824D01*
X88396666Y-104267000D01*
X89403334Y-104267000D01*
X89418037Y-104276824D01*
X89706943Y-104396493D01*
X90013645Y-104457500D01*
X90326355Y-104457500D01*
X90633057Y-104396493D01*
X90921963Y-104276824D01*
X90936666Y-104267000D01*
X91943334Y-104267000D01*
X91958037Y-104276824D01*
X92246943Y-104396493D01*
X92553645Y-104457500D01*
X92866355Y-104457500D01*
X93173057Y-104396493D01*
X93461963Y-104276824D01*
X93476666Y-104267000D01*
X94483334Y-104267000D01*
X94498037Y-104276824D01*
X94786943Y-104396493D01*
X95093645Y-104457500D01*
X95406355Y-104457500D01*
X95713057Y-104396493D01*
X96001963Y-104276824D01*
X96016666Y-104267000D01*
X97023334Y-104267000D01*
X97038037Y-104276824D01*
X97326943Y-104396493D01*
X97633645Y-104457500D01*
X97946355Y-104457500D01*
X98253057Y-104396493D01*
X98541963Y-104276824D01*
X98556666Y-104267000D01*
X99563334Y-104267000D01*
X99578037Y-104276824D01*
X99866943Y-104396493D01*
X100173645Y-104457500D01*
X100486355Y-104457500D01*
X100793057Y-104396493D01*
X101081963Y-104276824D01*
X101096666Y-104267000D01*
X102103334Y-104267000D01*
X102118037Y-104276824D01*
X102406943Y-104396493D01*
X102713645Y-104457500D01*
X103026355Y-104457500D01*
X103333057Y-104396493D01*
X103621963Y-104276824D01*
X103636666Y-104267000D01*
X104643334Y-104267000D01*
X104658037Y-104276824D01*
X104946943Y-104396493D01*
X105253645Y-104457500D01*
X105566355Y-104457500D01*
X105873057Y-104396493D01*
X106161963Y-104276824D01*
X106176666Y-104267000D01*
X107183334Y-104267000D01*
X107198037Y-104276824D01*
X107486943Y-104396493D01*
X107793645Y-104457500D01*
X108106355Y-104457500D01*
X108413057Y-104396493D01*
X108701963Y-104276824D01*
X108716666Y-104267000D01*
X109723334Y-104267000D01*
X109738037Y-104276824D01*
X110026943Y-104396493D01*
X110333645Y-104457500D01*
X110646355Y-104457500D01*
X110953057Y-104396493D01*
X111241963Y-104276824D01*
X111256666Y-104267000D01*
X112263334Y-104267000D01*
X112278037Y-104276824D01*
X112566943Y-104396493D01*
X112873645Y-104457500D01*
X113186355Y-104457500D01*
X113493057Y-104396493D01*
X113781963Y-104276824D01*
X113796666Y-104267000D01*
X114803334Y-104267000D01*
X114818037Y-104276824D01*
X115106943Y-104396493D01*
X115413645Y-104457500D01*
X115726355Y-104457500D01*
X116033057Y-104396493D01*
X116321963Y-104276824D01*
X116336666Y-104267000D01*
X117343334Y-104267000D01*
X117358037Y-104276824D01*
X117646943Y-104396493D01*
X117953645Y-104457500D01*
X118266355Y-104457500D01*
X118573057Y-104396493D01*
X118861963Y-104276824D01*
X118876666Y-104267000D01*
X119883334Y-104267000D01*
X119898037Y-104276824D01*
X120186943Y-104396493D01*
X120493645Y-104457500D01*
X120806355Y-104457500D01*
X121113057Y-104396493D01*
X121401963Y-104276824D01*
X121416666Y-104267000D01*
X122423334Y-104267000D01*
X122438037Y-104276824D01*
X122726943Y-104396493D01*
X123033645Y-104457500D01*
X123346355Y-104457500D01*
X123653057Y-104396493D01*
X123941963Y-104276824D01*
X123956666Y-104267000D01*
X124963334Y-104267000D01*
X124978037Y-104276824D01*
X125266943Y-104396493D01*
X125573645Y-104457500D01*
X125886355Y-104457500D01*
X126193057Y-104396493D01*
X126481963Y-104276824D01*
X126496666Y-104267000D01*
X127503334Y-104267000D01*
X127518037Y-104276824D01*
X127806943Y-104396493D01*
X128113645Y-104457500D01*
X128426355Y-104457500D01*
X128733057Y-104396493D01*
X129021963Y-104276824D01*
X129036666Y-104267000D01*
X130043334Y-104267000D01*
X130058037Y-104276824D01*
X130346943Y-104396493D01*
X130653645Y-104457500D01*
X130966355Y-104457500D01*
X131273057Y-104396493D01*
X131561963Y-104276824D01*
X131576666Y-104267000D01*
X132583334Y-104267000D01*
X132598037Y-104276824D01*
X132886943Y-104396493D01*
X133193645Y-104457500D01*
X133506355Y-104457500D01*
X133813057Y-104396493D01*
X134101963Y-104276824D01*
X134116666Y-104267000D01*
X135123334Y-104267000D01*
X135138037Y-104276824D01*
X135426943Y-104396493D01*
X135733645Y-104457500D01*
X136046355Y-104457500D01*
X136353057Y-104396493D01*
X136641963Y-104276824D01*
X136656666Y-104267000D01*
X137663334Y-104267000D01*
X137678037Y-104276824D01*
X137966943Y-104396493D01*
X138273645Y-104457500D01*
X138586355Y-104457500D01*
X138893057Y-104396493D01*
X139181963Y-104276824D01*
X139441972Y-104103092D01*
X139663092Y-103881972D01*
X139836824Y-103621963D01*
X139956493Y-103333057D01*
X140017500Y-103026355D01*
X140017500Y-102713645D01*
X139956493Y-102406943D01*
X139836824Y-102118037D01*
X139663092Y-101858028D01*
X139441972Y-101636908D01*
X139386735Y-101600000D01*
X139441972Y-101563092D01*
X139663092Y-101341972D01*
X139700000Y-101286735D01*
X139736908Y-101341972D01*
X139958028Y-101563092D01*
X140218037Y-101736824D01*
X140506943Y-101856493D01*
X140813645Y-101917500D01*
X141126355Y-101917500D01*
X141433057Y-101856493D01*
X141721963Y-101736824D01*
X141981972Y-101563092D01*
X142203092Y-101341972D01*
X142376824Y-101081963D01*
X142496493Y-100793057D01*
X142557500Y-100486355D01*
X142557500Y-100173645D01*
X142496493Y-99866943D01*
X142376824Y-99578037D01*
X142203092Y-99318028D01*
X141981972Y-99096908D01*
X141851039Y-99009422D01*
X141891930Y-98891535D01*
X140970000Y-97969605D01*
X140048070Y-98891535D01*
X140088961Y-99009422D01*
X139958028Y-99096908D01*
X139736908Y-99318028D01*
X139700000Y-99373265D01*
X139663092Y-99318028D01*
X139441972Y-99096908D01*
X139311039Y-99009422D01*
X139351930Y-98891535D01*
X138557000Y-98096605D01*
X138557000Y-97790000D01*
X138609605Y-97790000D01*
X139531535Y-98711930D01*
X139700000Y-98653495D01*
X139868465Y-98711930D01*
X140790395Y-97790000D01*
X141149605Y-97790000D01*
X142071535Y-98711930D01*
X142331081Y-98621902D01*
X142467224Y-98340384D01*
X142545829Y-98037714D01*
X142563877Y-97725526D01*
X142520672Y-97415815D01*
X142417877Y-97120484D01*
X142331081Y-96958098D01*
X142071535Y-96868070D01*
X141149605Y-97790000D01*
X140790395Y-97790000D01*
X139868465Y-96868070D01*
X139700000Y-96926505D01*
X139531535Y-96868070D01*
X138609605Y-97790000D01*
X138557000Y-97790000D01*
X138557000Y-97483395D01*
X139351930Y-96688465D01*
X139311039Y-96570578D01*
X139441972Y-96483092D01*
X139663092Y-96261972D01*
X139702136Y-96203539D01*
X139724208Y-96236572D01*
X139945328Y-96457692D01*
X140093724Y-96556847D01*
X140048070Y-96688465D01*
X140970000Y-97610395D01*
X141891930Y-96688465D01*
X141841497Y-96543068D01*
X141969272Y-96457692D01*
X142190392Y-96236572D01*
X142364124Y-95976563D01*
X142483793Y-95687657D01*
X142544800Y-95380955D01*
X142544800Y-95068245D01*
X142483793Y-94761543D01*
X142364124Y-94472637D01*
X142190392Y-94212628D01*
X141969272Y-93991508D01*
X141914035Y-93954600D01*
X141969272Y-93917692D01*
X142190392Y-93696572D01*
X142364124Y-93436563D01*
X142483793Y-93147657D01*
X142544800Y-92840955D01*
X142544800Y-92528245D01*
X142483793Y-92221543D01*
X142364124Y-91932637D01*
X142190392Y-91672628D01*
X141969272Y-91451508D01*
X141914035Y-91414600D01*
X141969272Y-91377692D01*
X142190392Y-91156572D01*
X142364124Y-90896563D01*
X142483793Y-90607657D01*
X142544800Y-90300955D01*
X142544800Y-89988245D01*
X142483793Y-89681543D01*
X142364124Y-89392637D01*
X142190392Y-89132628D01*
X141969272Y-88911508D01*
X141914035Y-88874600D01*
X141969272Y-88837692D01*
X142190392Y-88616572D01*
X142364124Y-88356563D01*
X142483793Y-88067657D01*
X142544800Y-87760955D01*
X142544800Y-87448245D01*
X142483793Y-87141543D01*
X142364124Y-86852637D01*
X142190392Y-86592628D01*
X141969272Y-86371508D01*
X141914035Y-86334600D01*
X141969272Y-86297692D01*
X142190392Y-86076572D01*
X142364124Y-85816563D01*
X142483793Y-85527657D01*
X142544800Y-85220955D01*
X142544800Y-84908245D01*
X142483793Y-84601543D01*
X142364124Y-84312637D01*
X142190392Y-84052628D01*
X141969272Y-83831508D01*
X141914035Y-83794600D01*
X141969272Y-83757692D01*
X142190392Y-83536572D01*
X142364124Y-83276563D01*
X142483793Y-82987657D01*
X142544800Y-82680955D01*
X142544800Y-82368245D01*
X142483793Y-82061543D01*
X142364124Y-81772637D01*
X142190392Y-81512628D01*
X141969272Y-81291508D01*
X141914035Y-81254600D01*
X141969272Y-81217692D01*
X142190392Y-80996572D01*
X142364124Y-80736563D01*
X142483793Y-80447657D01*
X142544800Y-80140955D01*
X142544800Y-79828245D01*
X142483793Y-79521543D01*
X142364124Y-79232637D01*
X142190392Y-78972628D01*
X141969272Y-78751508D01*
X141914035Y-78714600D01*
X141969272Y-78677692D01*
X142190392Y-78456572D01*
X142364124Y-78196563D01*
X142483793Y-77907657D01*
X142544800Y-77600955D01*
X142544800Y-77288245D01*
X142483793Y-76981543D01*
X142364124Y-76692637D01*
X142190392Y-76432628D01*
X141969272Y-76211508D01*
X141914035Y-76174600D01*
X141969272Y-76137692D01*
X142190392Y-75916572D01*
X142364124Y-75656563D01*
X142483793Y-75367657D01*
X142544800Y-75060955D01*
X142544800Y-74748245D01*
X142483793Y-74441543D01*
X142364124Y-74152637D01*
X142190392Y-73892628D01*
X141969272Y-73671508D01*
X141914035Y-73634600D01*
X141969272Y-73597692D01*
X142190392Y-73376572D01*
X142364124Y-73116563D01*
X142483793Y-72827657D01*
X142544800Y-72520955D01*
X142544800Y-72208245D01*
X142483793Y-71901543D01*
X142364124Y-71612637D01*
X142190392Y-71352628D01*
X141969272Y-71131508D01*
X141914035Y-71094600D01*
X141969272Y-71057692D01*
X142190392Y-70836572D01*
X142364124Y-70576563D01*
X142483793Y-70287657D01*
X142544800Y-69980955D01*
X142544800Y-69668245D01*
X142483793Y-69361543D01*
X142364124Y-69072637D01*
X142190392Y-68812628D01*
X141969272Y-68591508D01*
X141914035Y-68554600D01*
X141969272Y-68517692D01*
X142190392Y-68296572D01*
X142364124Y-68036563D01*
X142483793Y-67747657D01*
X142544800Y-67440955D01*
X142544800Y-67128245D01*
X142483793Y-66821543D01*
X142364124Y-66532637D01*
X142190392Y-66272628D01*
X141969272Y-66051508D01*
X141876943Y-65989816D01*
X141916930Y-65874535D01*
X140995000Y-64952605D01*
X140073070Y-65874535D01*
X140098870Y-65948915D01*
X139945328Y-66051508D01*
X139724208Y-66272628D01*
X139687300Y-66327865D01*
X139650392Y-66272628D01*
X139429272Y-66051508D01*
X139336943Y-65989816D01*
X139376930Y-65874535D01*
X138557000Y-65054605D01*
X138557000Y-64773000D01*
X138634605Y-64773000D01*
X139556535Y-65694930D01*
X139725000Y-65636495D01*
X139893465Y-65694930D01*
X140815395Y-64773000D01*
X141174605Y-64773000D01*
X142096535Y-65694930D01*
X142356081Y-65604902D01*
X142492224Y-65323384D01*
X142570829Y-65020714D01*
X142588877Y-64708526D01*
X142545672Y-64398815D01*
X142442877Y-64103484D01*
X142356081Y-63941098D01*
X142096535Y-63851070D01*
X141174605Y-64773000D01*
X140815395Y-64773000D01*
X139893465Y-63851070D01*
X139725000Y-63909505D01*
X139556535Y-63851070D01*
X138634605Y-64773000D01*
X138557000Y-64773000D01*
X138557000Y-64491395D01*
X139376930Y-63671465D01*
X139330490Y-63537582D01*
X139441972Y-63463092D01*
X139663092Y-63241972D01*
X139700000Y-63186735D01*
X139736908Y-63241972D01*
X139958028Y-63463092D01*
X140110102Y-63564704D01*
X140073070Y-63671465D01*
X140995000Y-64593395D01*
X141916930Y-63671465D01*
X141870490Y-63537582D01*
X141981972Y-63463092D01*
X142203092Y-63241972D01*
X142376824Y-62981963D01*
X142496493Y-62693057D01*
X142557500Y-62386355D01*
X142557500Y-62073645D01*
X142496493Y-61766943D01*
X142376824Y-61478037D01*
X142203092Y-61218028D01*
X141981972Y-60996908D01*
X141721963Y-60823176D01*
X141433057Y-60703507D01*
X141126355Y-60642500D01*
X140813645Y-60642500D01*
X140506943Y-60703507D01*
X140218037Y-60823176D01*
X139958028Y-60996908D01*
X139736908Y-61218028D01*
X139700000Y-61273265D01*
X139663092Y-61218028D01*
X139441972Y-60996908D01*
X139386735Y-60960000D01*
X139441972Y-60923092D01*
X139663092Y-60701972D01*
X139836824Y-60441963D01*
X139956493Y-60153057D01*
X140017500Y-59846355D01*
X140017500Y-59533645D01*
X139956493Y-59226943D01*
X139836824Y-58938037D01*
X139663092Y-58678028D01*
X139441972Y-58456908D01*
X139181963Y-58283176D01*
X138893057Y-58163507D01*
X138586355Y-58102500D01*
X138273645Y-58102500D01*
X137966943Y-58163507D01*
X137678037Y-58283176D01*
X137663334Y-58293000D01*
X136656666Y-58293000D01*
X136641963Y-58283176D01*
X136353057Y-58163507D01*
X136046355Y-58102500D01*
X135733645Y-58102500D01*
X135426943Y-58163507D01*
X135138037Y-58283176D01*
X135123334Y-58293000D01*
X134116666Y-58293000D01*
X134101963Y-58283176D01*
X133813057Y-58163507D01*
X133506355Y-58102500D01*
X133193645Y-58102500D01*
X132886943Y-58163507D01*
X132598037Y-58283176D01*
X132583334Y-58293000D01*
X131576666Y-58293000D01*
X131561963Y-58283176D01*
X131273057Y-58163507D01*
X130966355Y-58102500D01*
X130653645Y-58102500D01*
X130346943Y-58163507D01*
X130058037Y-58283176D01*
X130043334Y-58293000D01*
X129036666Y-58293000D01*
X129021963Y-58283176D01*
X128733057Y-58163507D01*
X128426355Y-58102500D01*
X128113645Y-58102500D01*
X127806943Y-58163507D01*
X127518037Y-58283176D01*
X127503334Y-58293000D01*
X126496666Y-58293000D01*
X126481963Y-58283176D01*
X126193057Y-58163507D01*
X125886355Y-58102500D01*
X125573645Y-58102500D01*
X125266943Y-58163507D01*
X124978037Y-58283176D01*
X124963334Y-58293000D01*
X123956666Y-58293000D01*
X123941963Y-58283176D01*
X123653057Y-58163507D01*
X123346355Y-58102500D01*
X123033645Y-58102500D01*
X122726943Y-58163507D01*
X122438037Y-58283176D01*
X122423334Y-58293000D01*
X121416666Y-58293000D01*
X121401963Y-58283176D01*
X121113057Y-58163507D01*
X120806355Y-58102500D01*
X120493645Y-58102500D01*
X120186943Y-58163507D01*
X119898037Y-58283176D01*
X119883334Y-58293000D01*
X118876666Y-58293000D01*
X118861963Y-58283176D01*
X118573057Y-58163507D01*
X118266355Y-58102500D01*
X117953645Y-58102500D01*
X117646943Y-58163507D01*
X117358037Y-58283176D01*
X117343334Y-58293000D01*
X116336666Y-58293000D01*
X116321963Y-58283176D01*
X116033057Y-58163507D01*
X115726355Y-58102500D01*
X115413645Y-58102500D01*
X115106943Y-58163507D01*
X114818037Y-58283176D01*
X114803334Y-58293000D01*
X113796666Y-58293000D01*
X113781963Y-58283176D01*
X113493057Y-58163507D01*
X113186355Y-58102500D01*
X112873645Y-58102500D01*
X112566943Y-58163507D01*
X112278037Y-58283176D01*
X112263334Y-58293000D01*
X111256666Y-58293000D01*
X111241963Y-58283176D01*
X110953057Y-58163507D01*
X110646355Y-58102500D01*
X110333645Y-58102500D01*
X110026943Y-58163507D01*
X109738037Y-58283176D01*
X109723334Y-58293000D01*
X108716666Y-58293000D01*
X108701963Y-58283176D01*
X108413057Y-58163507D01*
X108106355Y-58102500D01*
X107793645Y-58102500D01*
X107486943Y-58163507D01*
X107198037Y-58283176D01*
X107183334Y-58293000D01*
X106176666Y-58293000D01*
X106161963Y-58283176D01*
X105873057Y-58163507D01*
X105566355Y-58102500D01*
X105253645Y-58102500D01*
X104946943Y-58163507D01*
X104658037Y-58283176D01*
X104643334Y-58293000D01*
X103636666Y-58293000D01*
X103621963Y-58283176D01*
X103333057Y-58163507D01*
X103026355Y-58102500D01*
X102713645Y-58102500D01*
X102406943Y-58163507D01*
X102118037Y-58283176D01*
X102103334Y-58293000D01*
X101096666Y-58293000D01*
X101081963Y-58283176D01*
X100793057Y-58163507D01*
X100486355Y-58102500D01*
X100173645Y-58102500D01*
X99866943Y-58163507D01*
X99578037Y-58283176D01*
X99563334Y-58293000D01*
X98556666Y-58293000D01*
X98541963Y-58283176D01*
X98253057Y-58163507D01*
X97946355Y-58102500D01*
X97633645Y-58102500D01*
X97326943Y-58163507D01*
X97038037Y-58283176D01*
X97023334Y-58293000D01*
X96016666Y-58293000D01*
X96001963Y-58283176D01*
X95713057Y-58163507D01*
X95406355Y-58102500D01*
X95093645Y-58102500D01*
X94786943Y-58163507D01*
X94498037Y-58283176D01*
X94483334Y-58293000D01*
X93476666Y-58293000D01*
X93461963Y-58283176D01*
X93173057Y-58163507D01*
X92866355Y-58102500D01*
X92553645Y-58102500D01*
X92246943Y-58163507D01*
X91958037Y-58283176D01*
X91943334Y-58293000D01*
X90936666Y-58293000D01*
X90921963Y-58283176D01*
X90633057Y-58163507D01*
X90326355Y-58102500D01*
X90013645Y-58102500D01*
X89706943Y-58163507D01*
X89418037Y-58283176D01*
X89403334Y-58293000D01*
X88396666Y-58293000D01*
X88381963Y-58283176D01*
X88093057Y-58163507D01*
X87786355Y-58102500D01*
X87473645Y-58102500D01*
X87166943Y-58163507D01*
X86878037Y-58283176D01*
X86863334Y-58293000D01*
X85856666Y-58293000D01*
X85841963Y-58283176D01*
X85553057Y-58163507D01*
X85246355Y-58102500D01*
X84933645Y-58102500D01*
X84626943Y-58163507D01*
X84338037Y-58283176D01*
X84323334Y-58293000D01*
X83316666Y-58293000D01*
X83301963Y-58283176D01*
X83013057Y-58163507D01*
X82706355Y-58102500D01*
X82393645Y-58102500D01*
X82086943Y-58163507D01*
X81798037Y-58283176D01*
X81783334Y-58293000D01*
X80776666Y-58293000D01*
X80761963Y-58283176D01*
X80473057Y-58163507D01*
X80166355Y-58102500D01*
X79853645Y-58102500D01*
X79546943Y-58163507D01*
X79258037Y-58283176D01*
X79243334Y-58293000D01*
X78236666Y-58293000D01*
X78221963Y-58283176D01*
X77933057Y-58163507D01*
X77626355Y-58102500D01*
X77313645Y-58102500D01*
X77006943Y-58163507D01*
X76718037Y-58283176D01*
X76703334Y-58293000D01*
X75696666Y-58293000D01*
X75681963Y-58283176D01*
X75393057Y-58163507D01*
X75086355Y-58102500D01*
X74773645Y-58102500D01*
X74466943Y-58163507D01*
X74178037Y-58283176D01*
X74163334Y-58293000D01*
X73156666Y-58293000D01*
X73141963Y-58283176D01*
X72853057Y-58163507D01*
X72546355Y-58102500D01*
X72233645Y-58102500D01*
X71926943Y-58163507D01*
X71638037Y-58283176D01*
X71623334Y-58293000D01*
X70616666Y-58293000D01*
X70601963Y-58283176D01*
X70313057Y-58163507D01*
X70006355Y-58102500D01*
X69693645Y-58102500D01*
X69386943Y-58163507D01*
X69098037Y-58283176D01*
X69083334Y-58293000D01*
X68076666Y-58293000D01*
X68061963Y-58283176D01*
X67773057Y-58163507D01*
X67466355Y-58102500D01*
X67153645Y-58102500D01*
X66846943Y-58163507D01*
X66558037Y-58283176D01*
X66543334Y-58293000D01*
X65536666Y-58293000D01*
X65521963Y-58283176D01*
X65233057Y-58163507D01*
X64926355Y-58102500D01*
X64613645Y-58102500D01*
X64306943Y-58163507D01*
X64018037Y-58283176D01*
X63758028Y-58456908D01*
X63536908Y-58678028D01*
X63363176Y-58938037D01*
X63243507Y-59226943D01*
X63182500Y-59533645D01*
X63182500Y-59846355D01*
X63243507Y-60153057D01*
X63363176Y-60441963D01*
X63536908Y-60701972D01*
X63758028Y-60923092D01*
X63813265Y-60960000D01*
X63758028Y-60996908D01*
X63536908Y-61218028D01*
X63363176Y-61478037D01*
X63243507Y-61766943D01*
X63182500Y-62073645D01*
X63182500Y-62386355D01*
X63243507Y-62693057D01*
X63363176Y-62981963D01*
X63536908Y-63241972D01*
X63758028Y-63463092D01*
X63910102Y-63564704D01*
X63873070Y-63671465D01*
X64643000Y-64441395D01*
X64643000Y-65104605D01*
X63873070Y-65874535D01*
X63898870Y-65948915D01*
X63745328Y-66051508D01*
X63524208Y-66272628D01*
X63350476Y-66532637D01*
X63230807Y-66821543D01*
X63169800Y-67128245D01*
X63169800Y-67440955D01*
X63230807Y-67747657D01*
X63350476Y-68036563D01*
X63524208Y-68296572D01*
X63745328Y-68517692D01*
X63800565Y-68554600D01*
X63745328Y-68591508D01*
X63524208Y-68812628D01*
X63350476Y-69072637D01*
X63230807Y-69361543D01*
X63169800Y-69668245D01*
X63169800Y-69980955D01*
X63230807Y-70287657D01*
X63350476Y-70576563D01*
X63524208Y-70836572D01*
X63745328Y-71057692D01*
X63800565Y-71094600D01*
X63745328Y-71131508D01*
X63524208Y-71352628D01*
X63350476Y-71612637D01*
X63230807Y-71901543D01*
X63169800Y-72208245D01*
X63169800Y-72520955D01*
X63230807Y-72827657D01*
X63350476Y-73116563D01*
X63524208Y-73376572D01*
X63745328Y-73597692D01*
X63800565Y-73634600D01*
X63745328Y-73671508D01*
X63524208Y-73892628D01*
X63350476Y-74152637D01*
X63230807Y-74441543D01*
X63169800Y-74748245D01*
X63169800Y-75060955D01*
X63230807Y-75367657D01*
X63350476Y-75656563D01*
X63524208Y-75916572D01*
X63745328Y-76137692D01*
X63800565Y-76174600D01*
X63745328Y-76211508D01*
X63524208Y-76432628D01*
X63350476Y-76692637D01*
X63230807Y-76981543D01*
X63169800Y-77288245D01*
X63169800Y-77600955D01*
X63230807Y-77907657D01*
X63350476Y-78196563D01*
X63524208Y-78456572D01*
X63745328Y-78677692D01*
X63800565Y-78714600D01*
X63745328Y-78751508D01*
X63524208Y-78972628D01*
X63350476Y-79232637D01*
X63230807Y-79521543D01*
X63169800Y-79828245D01*
X63169800Y-80140955D01*
X63230807Y-80447657D01*
X63350476Y-80736563D01*
X63524208Y-80996572D01*
X63745328Y-81217692D01*
X63800565Y-81254600D01*
X63745328Y-81291508D01*
X63524208Y-81512628D01*
X63350476Y-81772637D01*
X63230807Y-82061543D01*
X63169800Y-82368245D01*
X63169800Y-82680955D01*
X63230807Y-82987657D01*
X63350476Y-83276563D01*
X63524208Y-83536572D01*
X63745328Y-83757692D01*
X63800565Y-83794600D01*
X63745328Y-83831508D01*
X63524208Y-84052628D01*
X63350476Y-84312637D01*
X63230807Y-84601543D01*
X63169800Y-84908245D01*
X63169800Y-85220955D01*
X63230807Y-85527657D01*
X63350476Y-85816563D01*
X63524208Y-86076572D01*
X63745328Y-86297692D01*
X63800565Y-86334600D01*
X63745328Y-86371508D01*
X63524208Y-86592628D01*
X63350476Y-86852637D01*
X63230807Y-87141543D01*
X63169800Y-87448245D01*
X63169800Y-87760955D01*
X63230807Y-88067657D01*
X63350476Y-88356563D01*
X63524208Y-88616572D01*
X63745328Y-88837692D01*
X63800565Y-88874600D01*
X63745328Y-88911508D01*
X63524208Y-89132628D01*
X63350476Y-89392637D01*
X63230807Y-89681543D01*
X63169800Y-89988245D01*
X63169800Y-90300955D01*
X63230807Y-90607657D01*
X63350476Y-90896563D01*
X63524208Y-91156572D01*
X63745328Y-91377692D01*
X63800565Y-91414600D01*
X63745328Y-91451508D01*
X63524208Y-91672628D01*
X63350476Y-91932637D01*
X63230807Y-92221543D01*
X63169800Y-92528245D01*
X63169800Y-92840955D01*
X63230807Y-93147657D01*
X63350476Y-93436563D01*
X63524208Y-93696572D01*
X63745328Y-93917692D01*
X63825922Y-93971543D01*
X63758028Y-94016908D01*
X63536908Y-94238028D01*
X63363176Y-94498037D01*
X63243507Y-94786943D01*
X63182500Y-95093645D01*
X63182500Y-95406355D01*
X63243507Y-95713057D01*
X63363176Y-96001963D01*
X63536908Y-96261972D01*
X63758028Y-96483092D01*
X63888961Y-96570578D01*
X63848070Y-96688465D01*
X64643000Y-97483395D01*
X64643000Y-98096605D01*
X63848070Y-98891535D01*
X63888961Y-99009422D01*
X63758028Y-99096908D01*
X63536908Y-99318028D01*
X63535590Y-99320000D01*
X58748356Y-99320000D01*
X58324151Y-98895795D01*
X58421340Y-98843847D01*
X58575133Y-98717633D01*
X58606762Y-98679093D01*
X58769091Y-98516763D01*
X58807634Y-98485132D01*
X58933848Y-98331339D01*
X59027633Y-98155879D01*
X59085386Y-97965493D01*
X59096320Y-97854474D01*
X63176123Y-97854474D01*
X63219328Y-98164185D01*
X63322123Y-98459516D01*
X63408919Y-98621902D01*
X63668465Y-98711930D01*
X64590395Y-97790000D01*
X63668465Y-96868070D01*
X63408919Y-96958098D01*
X63272776Y-97239616D01*
X63194171Y-97542286D01*
X63176123Y-97854474D01*
X59096320Y-97854474D01*
X59100001Y-97817107D01*
X59100001Y-97817105D01*
X59104887Y-97767500D01*
X59100001Y-97717895D01*
X59100001Y-91639605D01*
X59104887Y-91590000D01*
X59097032Y-91510252D01*
X59085386Y-91392007D01*
X59027633Y-91201621D01*
X58933848Y-91026161D01*
X58807634Y-90872368D01*
X58769095Y-90840740D01*
X58627433Y-90699078D01*
X58635000Y-90661033D01*
X58635000Y-90338967D01*
X58572168Y-90023088D01*
X58448918Y-89725537D01*
X58269987Y-89457748D01*
X58042252Y-89230013D01*
X57774463Y-89051082D01*
X57476912Y-88927832D01*
X57161033Y-88865000D01*
X56838967Y-88865000D01*
X56523088Y-88927832D01*
X56225537Y-89051082D01*
X55957748Y-89230013D01*
X55730013Y-89457748D01*
X55551082Y-89725537D01*
X55427832Y-90023088D01*
X55365000Y-90338967D01*
X55365000Y-90661033D01*
X55427832Y-90976912D01*
X55551082Y-91274463D01*
X55730013Y-91542252D01*
X55957748Y-91769987D01*
X56225537Y-91948918D01*
X56523088Y-92072168D01*
X56838967Y-92135000D01*
X57080001Y-92135000D01*
X57080001Y-94612098D01*
X56926816Y-94573700D01*
X56644488Y-94559783D01*
X56364870Y-94601213D01*
X56098708Y-94696397D01*
X55973486Y-94763329D01*
X55901903Y-95007298D01*
X56715000Y-95820395D01*
X56729143Y-95806253D01*
X56908748Y-95985858D01*
X56894605Y-96000000D01*
X56908748Y-96014143D01*
X56729143Y-96193748D01*
X56715000Y-96179605D01*
X56700858Y-96193748D01*
X56521253Y-96014143D01*
X56535395Y-96000000D01*
X55722298Y-95186903D01*
X55478329Y-95258486D01*
X55357429Y-95513996D01*
X55288700Y-95788184D01*
X55274783Y-96070512D01*
X55316213Y-96350130D01*
X55411397Y-96616292D01*
X55476616Y-96738309D01*
X55463815Y-96748815D01*
X55384463Y-96845506D01*
X55325498Y-96955820D01*
X55289188Y-97075518D01*
X55276928Y-97200000D01*
X55276928Y-98800000D01*
X55289188Y-98924482D01*
X55325498Y-99044180D01*
X55384463Y-99154494D01*
X55463815Y-99251185D01*
X55560506Y-99330537D01*
X55670820Y-99389502D01*
X55790518Y-99425812D01*
X55915000Y-99438072D01*
X56003994Y-99438072D01*
X56035906Y-99464261D01*
X57580744Y-101009099D01*
X57612367Y-101047633D01*
X57766160Y-101173847D01*
X57941620Y-101267632D01*
X58132005Y-101325385D01*
X58330000Y-101344886D01*
X58379608Y-101340000D01*
X63535590Y-101340000D01*
X63536908Y-101341972D01*
X63758028Y-101563092D01*
X63813265Y-101600000D01*
X63758028Y-101636908D01*
X63536908Y-101858028D01*
X63535590Y-101860000D01*
X55288356Y-101860000D01*
X52246195Y-98817840D01*
X52331134Y-98748133D01*
X52344882Y-98731381D01*
X52361634Y-98717633D01*
X52487848Y-98563840D01*
X52581633Y-98388380D01*
X52639386Y-98197994D01*
X52654001Y-98049608D01*
X52658887Y-98000000D01*
X52654001Y-97950392D01*
X52654001Y-96705189D01*
X52654010Y-96705098D01*
X52658896Y-96655490D01*
X52654010Y-96605882D01*
X52654010Y-91892618D01*
X52658896Y-91843010D01*
X52639395Y-91645015D01*
X52581642Y-91454630D01*
X52487856Y-91279169D01*
X52424215Y-91201621D01*
X52361643Y-91125377D01*
X52323109Y-91093753D01*
X51896433Y-90667077D01*
X51904000Y-90629033D01*
X51904000Y-90306967D01*
X51841168Y-89991088D01*
X51717918Y-89693537D01*
X51538987Y-89425748D01*
X51311252Y-89198013D01*
X51043463Y-89019082D01*
X50745912Y-88895832D01*
X50430033Y-88833000D01*
X50107967Y-88833000D01*
X49792088Y-88895832D01*
X49494537Y-89019082D01*
X49226748Y-89198013D01*
X48999013Y-89425748D01*
X48820082Y-89693537D01*
X48696832Y-89991088D01*
X48634000Y-90306967D01*
X46380000Y-90306967D01*
X46380000Y-85306967D01*
X48634000Y-85306967D01*
X48634000Y-85629033D01*
X48696832Y-85944912D01*
X48820082Y-86242463D01*
X48999013Y-86510252D01*
X49226748Y-86737987D01*
X49494537Y-86916918D01*
X49792088Y-87040168D01*
X50107967Y-87103000D01*
X50430033Y-87103000D01*
X50745912Y-87040168D01*
X51043463Y-86916918D01*
X51311252Y-86737987D01*
X51538987Y-86510252D01*
X51717918Y-86242463D01*
X51841168Y-85944912D01*
X51904000Y-85629033D01*
X51904000Y-85306967D01*
X51896433Y-85268923D01*
X52924100Y-84241256D01*
X52962633Y-84209633D01*
X53088847Y-84055840D01*
X53182632Y-83880380D01*
X53240385Y-83689994D01*
X53255000Y-83541608D01*
X53259886Y-83492000D01*
X53255000Y-83442392D01*
X53255000Y-77499341D01*
X53314364Y-77439977D01*
X53331898Y-77497780D01*
X53390863Y-77608094D01*
X53470215Y-77704785D01*
X53566906Y-77784137D01*
X53677220Y-77843102D01*
X53796918Y-77879412D01*
X53921400Y-77891672D01*
X55648600Y-77891672D01*
X55705001Y-77886117D01*
X55705001Y-84495181D01*
X55551082Y-84725537D01*
X55427832Y-85023088D01*
X55365000Y-85338967D01*
X55365000Y-85661033D01*
X55427832Y-85976912D01*
X55551082Y-86274463D01*
X55730013Y-86542252D01*
X55957748Y-86769987D01*
X56225537Y-86948918D01*
X56523088Y-87072168D01*
X56838967Y-87135000D01*
X57161033Y-87135000D01*
X57476912Y-87072168D01*
X57774463Y-86948918D01*
X58042252Y-86769987D01*
X58269987Y-86542252D01*
X58448918Y-86274463D01*
X58572168Y-85976912D01*
X58635000Y-85661033D01*
X58635000Y-85338967D01*
X58572168Y-85023088D01*
X58448918Y-84725537D01*
X58269987Y-84457748D01*
X58042252Y-84230013D01*
X57774463Y-84051082D01*
X57725000Y-84030594D01*
X57725000Y-68209604D01*
X57729886Y-68159999D01*
X57717728Y-68036563D01*
X57710385Y-67962006D01*
X57652632Y-67771620D01*
X57558847Y-67596160D01*
X57432633Y-67442367D01*
X57394094Y-67410739D01*
X56283600Y-66300245D01*
X56283600Y-66082401D01*
X56226010Y-65792875D01*
X56113042Y-65520147D01*
X55949039Y-65274698D01*
X55740302Y-65065961D01*
X55494853Y-64901958D01*
X55339176Y-64837474D01*
X63201123Y-64837474D01*
X63244328Y-65147185D01*
X63347123Y-65442516D01*
X63433919Y-65604902D01*
X63693465Y-65694930D01*
X64615395Y-64773000D01*
X63693465Y-63851070D01*
X63433919Y-63941098D01*
X63297776Y-64222616D01*
X63219171Y-64525286D01*
X63201123Y-64837474D01*
X55339176Y-64837474D01*
X55222125Y-64788990D01*
X54932599Y-64731400D01*
X54637401Y-64731400D01*
X54347875Y-64788990D01*
X54075147Y-64901958D01*
X53829698Y-65065961D01*
X53675659Y-65220000D01*
X53354341Y-65220000D01*
X53200302Y-65065961D01*
X52954853Y-64901958D01*
X52682125Y-64788990D01*
X52392599Y-64731400D01*
X52097401Y-64731400D01*
X51807875Y-64788990D01*
X51535147Y-64901958D01*
X51289698Y-65065961D01*
X51080961Y-65274698D01*
X50916958Y-65520147D01*
X50803990Y-65792875D01*
X50746400Y-66082401D01*
X50746400Y-66377599D01*
X50803990Y-66667125D01*
X50916958Y-66939853D01*
X51080961Y-67185302D01*
X51289698Y-67394039D01*
X51455103Y-67504559D01*
X51356512Y-67563183D01*
X51138146Y-67759707D01*
X50962316Y-67995056D01*
X50835778Y-68260186D01*
X50790042Y-68410974D01*
X50911183Y-68643000D01*
X52118000Y-68643000D01*
X52118000Y-68623000D01*
X52372000Y-68623000D01*
X52372000Y-68643000D01*
X54658000Y-68643000D01*
X54658000Y-68623000D01*
X54912000Y-68623000D01*
X54912000Y-68643000D01*
X54932000Y-68643000D01*
X54932000Y-68897000D01*
X54912000Y-68897000D01*
X54912000Y-71183000D01*
X54932000Y-71183000D01*
X54932000Y-71437000D01*
X54912000Y-71437000D01*
X54912000Y-73723000D01*
X54932000Y-73723000D01*
X54932000Y-73977000D01*
X54912000Y-73977000D01*
X54912000Y-73997000D01*
X54658000Y-73997000D01*
X54658000Y-73977000D01*
X52372000Y-73977000D01*
X52372000Y-73997000D01*
X52118000Y-73997000D01*
X52118000Y-73977000D01*
X50911183Y-73977000D01*
X50790042Y-74209026D01*
X50835778Y-74359814D01*
X50962316Y-74624944D01*
X51138146Y-74860293D01*
X51356512Y-75056817D01*
X51455103Y-75115441D01*
X51289698Y-75225961D01*
X51080961Y-75434698D01*
X50916958Y-75680147D01*
X50803990Y-75952875D01*
X50746400Y-76242401D01*
X50746400Y-76537599D01*
X50803990Y-76827125D01*
X50916958Y-77099853D01*
X51080961Y-77345302D01*
X51235000Y-77499341D01*
X51235001Y-83073643D01*
X50468077Y-83840567D01*
X50430033Y-83833000D01*
X50107967Y-83833000D01*
X49792088Y-83895832D01*
X49494537Y-84019082D01*
X49226748Y-84198013D01*
X48999013Y-84425748D01*
X48820082Y-84693537D01*
X48696832Y-84991088D01*
X48634000Y-85306967D01*
X46380000Y-85306967D01*
X46380000Y-71669026D01*
X50790042Y-71669026D01*
X50835778Y-71819814D01*
X50962316Y-72084944D01*
X51138146Y-72320293D01*
X51356512Y-72516817D01*
X51462770Y-72580000D01*
X51356512Y-72643183D01*
X51138146Y-72839707D01*
X50962316Y-73075056D01*
X50835778Y-73340186D01*
X50790042Y-73490974D01*
X50911183Y-73723000D01*
X52118000Y-73723000D01*
X52118000Y-71437000D01*
X52372000Y-71437000D01*
X52372000Y-73723000D01*
X54658000Y-73723000D01*
X54658000Y-71437000D01*
X52372000Y-71437000D01*
X52118000Y-71437000D01*
X50911183Y-71437000D01*
X50790042Y-71669026D01*
X46380000Y-71669026D01*
X46380000Y-69129026D01*
X50790042Y-69129026D01*
X50835778Y-69279814D01*
X50962316Y-69544944D01*
X51138146Y-69780293D01*
X51356512Y-69976817D01*
X51462770Y-70040000D01*
X51356512Y-70103183D01*
X51138146Y-70299707D01*
X50962316Y-70535056D01*
X50835778Y-70800186D01*
X50790042Y-70950974D01*
X50911183Y-71183000D01*
X52118000Y-71183000D01*
X52118000Y-68897000D01*
X52372000Y-68897000D01*
X52372000Y-71183000D01*
X54658000Y-71183000D01*
X54658000Y-68897000D01*
X52372000Y-68897000D01*
X52118000Y-68897000D01*
X50911183Y-68897000D01*
X50790042Y-69129026D01*
X46380000Y-69129026D01*
X46380000Y-57442845D01*
X46876761Y-57442845D01*
X47044802Y-57768643D01*
X47436607Y-57969426D01*
X47860055Y-58089914D01*
X48298873Y-58125476D01*
X48736197Y-58074746D01*
X49155221Y-57939674D01*
X49475198Y-57768643D01*
X49643239Y-57442845D01*
X142126761Y-57442845D01*
X142294802Y-57768643D01*
X142686607Y-57969426D01*
X143110055Y-58089914D01*
X143548873Y-58125476D01*
X143986197Y-58074746D01*
X144405221Y-57939674D01*
X144725198Y-57768643D01*
X144893239Y-57442845D01*
X143510000Y-56059605D01*
X142126761Y-57442845D01*
X49643239Y-57442845D01*
X48260000Y-56059605D01*
X46876761Y-57442845D01*
X46380000Y-57442845D01*
X46380000Y-57099656D01*
X46697155Y-57263239D01*
X48080395Y-55880000D01*
X48439605Y-55880000D01*
X49822845Y-57263239D01*
X50148643Y-57095198D01*
X50349426Y-56703393D01*
X50469914Y-56279945D01*
X50499175Y-55918873D01*
X141264524Y-55918873D01*
X141315254Y-56356197D01*
X141450326Y-56775221D01*
X141621357Y-57095198D01*
X141947155Y-57263239D01*
X143330395Y-55880000D01*
X141947155Y-54496761D01*
X141621357Y-54664802D01*
X141420574Y-55056607D01*
X141300086Y-55480055D01*
X141264524Y-55918873D01*
X50499175Y-55918873D01*
X50505476Y-55841127D01*
X50454746Y-55403803D01*
X50319674Y-54984779D01*
X50148643Y-54664802D01*
X49822845Y-54496761D01*
X48439605Y-55880000D01*
X48080395Y-55880000D01*
X46697155Y-54496761D01*
X46380000Y-54660344D01*
X46380000Y-54000000D01*
X47040344Y-54000000D01*
X46876761Y-54317155D01*
M02*
