G04 #@! TF.GenerationSoftware,KiCad,Pcbnew,5.1.5-52549c5~84~ubuntu18.04.1*
G04 #@! TF.CreationDate,2020-07-05T07:32:41-04:00*
G04 #@! TF.ProjectId,kosmo_proto,6b6f736d-6f5f-4707-926f-746f2e6b6963,rev?*
G04 #@! TF.SameCoordinates,Original*
G04 #@! TF.FileFunction,Copper,L2,Bot*
G04 #@! TF.FilePolarity,Positive*
%FSLAX46Y46*%
G04 Gerber Fmt 4.6, Leading zero omitted, Abs format (unit mm)*
G04 Created by KiCad (PCBNEW 5.1.5-52549c5~84~ubuntu18.04.1) date 2020-07-05 07:32:41*
%MOMM*%
%LPD*%
G04 APERTURE LIST*
%ADD10C,1.600000*%
%ADD11R,1.600000X1.600000*%
%ADD12C,1.905000*%
%ADD13O,1.727200X1.727200*%
%ADD14R,1.727200X1.727200*%
%ADD15C,2.000000*%
%ADD16C,2.032000*%
%ADD17C,0.750000*%
%ADD18C,0.254000*%
G04 APERTURE END LIST*
D10*
X50269000Y-97968000D03*
D11*
X50269000Y-95968000D03*
D10*
X56715000Y-96000000D03*
D11*
X56715000Y-98000000D03*
D12*
X140970000Y-100330000D03*
X140970000Y-97790000D03*
X140957300Y-82524600D03*
X140957300Y-79984600D03*
X140957300Y-87604600D03*
X140957300Y-92684600D03*
X140957300Y-90144600D03*
X140957300Y-95224600D03*
X140957300Y-85064600D03*
X140957300Y-67284600D03*
X140957300Y-77444600D03*
X140957300Y-69824600D03*
X140957300Y-72364600D03*
X140957300Y-74904600D03*
X140995000Y-64773000D03*
X140970000Y-62230000D03*
X110477300Y-82524600D03*
X118110000Y-59690000D03*
X130797300Y-74904600D03*
X107937300Y-90144600D03*
X138455000Y-64773000D03*
X130797300Y-77444600D03*
X120637300Y-90144600D03*
X120637300Y-72364600D03*
X128257300Y-72364600D03*
X133337300Y-85064600D03*
X125717300Y-69824600D03*
X107937300Y-74904600D03*
X105397300Y-72364600D03*
X135877300Y-77444600D03*
X107950000Y-62230000D03*
X107937300Y-87604600D03*
X135877300Y-72364600D03*
X138417300Y-87604600D03*
X118097300Y-90144600D03*
X138417300Y-77444600D03*
X125717300Y-82524600D03*
X138430000Y-100330000D03*
X110477300Y-92684600D03*
X105397300Y-74904600D03*
X133337300Y-72364600D03*
X135877300Y-82524600D03*
X128257300Y-82524600D03*
X118110000Y-102870000D03*
X123177300Y-87604600D03*
X115557300Y-77444600D03*
X125755000Y-64773000D03*
X113017300Y-79984600D03*
X120650000Y-59690000D03*
X130810000Y-62230000D03*
X125730000Y-102870000D03*
X135877300Y-67284600D03*
X118097300Y-92684600D03*
X123177300Y-79984600D03*
X133350000Y-59690000D03*
X138417300Y-79984600D03*
X125717300Y-90144600D03*
X123177300Y-67284600D03*
X125717300Y-79984600D03*
X118097300Y-87604600D03*
X105435000Y-64773000D03*
X118097300Y-74904600D03*
X123190000Y-97790000D03*
X133337300Y-79984600D03*
X128295000Y-64773000D03*
X130797300Y-90144600D03*
X113030000Y-95250000D03*
X110490000Y-97790000D03*
X120637300Y-69824600D03*
X133337300Y-82524600D03*
X115557300Y-79984600D03*
X113017300Y-67284600D03*
X133337300Y-69824600D03*
X128257300Y-87604600D03*
X125717300Y-85064600D03*
X110477300Y-79984600D03*
X115570000Y-95250000D03*
X113017300Y-90144600D03*
X115557300Y-82524600D03*
X130835000Y-64773000D03*
X105397300Y-79984600D03*
X120650000Y-97790000D03*
X138417300Y-67284600D03*
X105397300Y-82524600D03*
X130797300Y-85064600D03*
X123190000Y-95250000D03*
X118097300Y-82524600D03*
X107937300Y-67284600D03*
X123177300Y-77444600D03*
X125730000Y-95250000D03*
X138417300Y-85064600D03*
X133350000Y-102870000D03*
X113017300Y-87604600D03*
X130797300Y-79984600D03*
X135877300Y-90144600D03*
X125730000Y-97790000D03*
X107950000Y-102870000D03*
X115557300Y-90144600D03*
X118110000Y-97790000D03*
X123190000Y-100330000D03*
X118097300Y-79984600D03*
X115595000Y-64773000D03*
X107950000Y-97790000D03*
X123177300Y-90144600D03*
X138417300Y-72364600D03*
X113017300Y-92684600D03*
X113030000Y-59690000D03*
X118097300Y-67284600D03*
X138417300Y-74904600D03*
X107937300Y-69824600D03*
X107937300Y-82524600D03*
X128257300Y-79984600D03*
X125717300Y-74904600D03*
X110490000Y-100330000D03*
X105397300Y-77444600D03*
X110490000Y-62230000D03*
X110515000Y-64773000D03*
X138430000Y-62230000D03*
X120637300Y-92684600D03*
X105410000Y-102870000D03*
X130810000Y-100330000D03*
X120650000Y-100330000D03*
X110490000Y-95250000D03*
X133350000Y-62230000D03*
X128270000Y-100330000D03*
X115570000Y-97790000D03*
X133337300Y-90144600D03*
X135890000Y-102870000D03*
X130797300Y-69824600D03*
X107937300Y-77444600D03*
X133337300Y-92684600D03*
X113017300Y-74904600D03*
X123177300Y-82524600D03*
X123177300Y-72364600D03*
X130797300Y-82524600D03*
X105410000Y-100330000D03*
X130797300Y-72364600D03*
X123215000Y-64773000D03*
X115570000Y-59690000D03*
X138430000Y-95250000D03*
X110477300Y-90144600D03*
X130797300Y-87604600D03*
X130810000Y-95250000D03*
X113017300Y-69824600D03*
X135890000Y-62230000D03*
X130810000Y-102870000D03*
X115557300Y-69824600D03*
X107937300Y-85064600D03*
X133337300Y-74904600D03*
X105397300Y-67284600D03*
X118110000Y-62230000D03*
X107950000Y-59690000D03*
X128270000Y-97790000D03*
X128270000Y-59690000D03*
X138430000Y-102870000D03*
X110477300Y-77444600D03*
X138417300Y-82524600D03*
X125717300Y-87604600D03*
X105397300Y-92684600D03*
X113017300Y-72364600D03*
X138417300Y-90144600D03*
X107950000Y-100330000D03*
X110477300Y-74904600D03*
X107937300Y-92684600D03*
X128257300Y-90144600D03*
X115557300Y-74904600D03*
X125717300Y-72364600D03*
X113017300Y-77444600D03*
X138417300Y-69824600D03*
X120637300Y-74904600D03*
X107950000Y-95250000D03*
X105397300Y-85064600D03*
X128257300Y-77444600D03*
X123190000Y-62230000D03*
X135890000Y-97790000D03*
X135877300Y-69824600D03*
X123177300Y-85064600D03*
X118097300Y-85064600D03*
X128270000Y-62230000D03*
X128257300Y-85064600D03*
X135890000Y-100330000D03*
X113017300Y-82524600D03*
X107937300Y-79984600D03*
X133375000Y-64773000D03*
X113030000Y-62230000D03*
X135915000Y-64773000D03*
X123177300Y-69824600D03*
X128270000Y-95250000D03*
X113030000Y-102870000D03*
X110477300Y-87604600D03*
X133350000Y-95250000D03*
X105397300Y-69824600D03*
X110477300Y-69824600D03*
X115570000Y-62230000D03*
X115557300Y-72364600D03*
X123190000Y-102870000D03*
X138430000Y-97790000D03*
X115557300Y-92684600D03*
X135877300Y-74904600D03*
X130810000Y-97790000D03*
X107975000Y-64773000D03*
X115557300Y-87604600D03*
X123177300Y-92684600D03*
X128257300Y-67284600D03*
X128270000Y-102870000D03*
X115570000Y-102870000D03*
X105397300Y-87604600D03*
X118110000Y-100330000D03*
X128257300Y-69824600D03*
X130797300Y-67284600D03*
X120650000Y-62230000D03*
X118097300Y-72364600D03*
X115557300Y-85064600D03*
X120637300Y-77444600D03*
X113030000Y-97790000D03*
X120650000Y-102870000D03*
X125730000Y-62230000D03*
X125717300Y-92684600D03*
X125717300Y-77444600D03*
X118097300Y-69824600D03*
X135877300Y-92684600D03*
X133350000Y-97790000D03*
X118097300Y-77444600D03*
X130810000Y-59690000D03*
X105410000Y-59690000D03*
X105410000Y-95250000D03*
X120637300Y-82524600D03*
X110477300Y-85064600D03*
X135877300Y-85064600D03*
X120637300Y-79984600D03*
X128257300Y-92684600D03*
X110477300Y-67284600D03*
X135890000Y-59690000D03*
X118110000Y-95250000D03*
X123190000Y-59690000D03*
X118135000Y-64773000D03*
X123177300Y-74904600D03*
X125717300Y-67284600D03*
X133337300Y-87604600D03*
X120637300Y-85064600D03*
X130797300Y-92684600D03*
X105397300Y-90144600D03*
X105410000Y-62230000D03*
X125730000Y-100330000D03*
X113055000Y-64773000D03*
X120650000Y-95250000D03*
X133350000Y-100330000D03*
X110490000Y-102870000D03*
X113030000Y-100330000D03*
X113017300Y-85064600D03*
X135877300Y-79984600D03*
X138430000Y-59690000D03*
X133337300Y-67284600D03*
X110490000Y-59690000D03*
X135877300Y-87604600D03*
X133337300Y-77444600D03*
X115570000Y-100330000D03*
X138417300Y-92684600D03*
X120637300Y-67284600D03*
X120675000Y-64773000D03*
X107937300Y-72364600D03*
X120637300Y-87604600D03*
X128257300Y-74904600D03*
X105410000Y-97790000D03*
X135890000Y-95250000D03*
X125730000Y-59690000D03*
X115557300Y-67284600D03*
X110477300Y-72364600D03*
X100317300Y-74904600D03*
X100317300Y-77444600D03*
X97777300Y-72364600D03*
X102857300Y-85064600D03*
X95237300Y-69824600D03*
X95237300Y-82524600D03*
X102857300Y-72364600D03*
X97777300Y-82524600D03*
X95275000Y-64773000D03*
X100330000Y-62230000D03*
X95250000Y-102870000D03*
X102870000Y-59690000D03*
X95237300Y-90144600D03*
X95237300Y-79984600D03*
X102857300Y-79984600D03*
X97815000Y-64773000D03*
X100317300Y-90144600D03*
X102857300Y-82524600D03*
X102857300Y-69824600D03*
X97777300Y-87604600D03*
X95237300Y-85064600D03*
X100355000Y-64773000D03*
X100317300Y-85064600D03*
X95250000Y-95250000D03*
X102870000Y-102870000D03*
X100317300Y-79984600D03*
X95250000Y-97790000D03*
X97777300Y-79984600D03*
X95237300Y-74904600D03*
X100330000Y-100330000D03*
X102870000Y-62230000D03*
X97790000Y-100330000D03*
X102857300Y-90144600D03*
X100317300Y-69824600D03*
X102857300Y-92684600D03*
X100317300Y-82524600D03*
X100317300Y-72364600D03*
X100317300Y-87604600D03*
X100330000Y-95250000D03*
X100330000Y-102870000D03*
X102857300Y-74904600D03*
X97790000Y-97790000D03*
X97790000Y-59690000D03*
X95237300Y-87604600D03*
X97777300Y-90144600D03*
X95237300Y-72364600D03*
X97777300Y-77444600D03*
X97790000Y-62230000D03*
X97777300Y-85064600D03*
X102895000Y-64773000D03*
X97790000Y-95250000D03*
X102870000Y-95250000D03*
X100330000Y-97790000D03*
X97777300Y-67284600D03*
X97790000Y-102870000D03*
X97777300Y-69824600D03*
X100317300Y-67284600D03*
X95250000Y-62230000D03*
X95237300Y-92684600D03*
X95237300Y-77444600D03*
X102870000Y-97790000D03*
X100330000Y-59690000D03*
X97777300Y-92684600D03*
X95237300Y-67284600D03*
X102857300Y-87604600D03*
X100317300Y-92684600D03*
X95250000Y-100330000D03*
X102870000Y-100330000D03*
X102857300Y-67284600D03*
X102857300Y-77444600D03*
X97777300Y-74904600D03*
X95250000Y-59690000D03*
X87630000Y-59690000D03*
X90157300Y-90144600D03*
X90157300Y-72364600D03*
X87617300Y-90144600D03*
X87630000Y-102870000D03*
X92697300Y-87604600D03*
X85077300Y-77444600D03*
X90170000Y-59690000D03*
X87617300Y-92684600D03*
X92697300Y-79984600D03*
X92697300Y-67284600D03*
X87617300Y-87604600D03*
X87617300Y-74904600D03*
X92710000Y-97790000D03*
X90157300Y-69824600D03*
X85077300Y-79984600D03*
X85090000Y-95250000D03*
X85077300Y-82524600D03*
X90170000Y-97790000D03*
X92710000Y-95250000D03*
X87617300Y-82524600D03*
X92697300Y-77444600D03*
X85077300Y-90144600D03*
X87630000Y-97790000D03*
X92710000Y-100330000D03*
X87617300Y-79984600D03*
X85115000Y-64773000D03*
X92697300Y-90144600D03*
X87617300Y-67284600D03*
X90157300Y-92684600D03*
X90170000Y-100330000D03*
X85090000Y-97790000D03*
X92697300Y-82524600D03*
X92697300Y-72364600D03*
X92735000Y-64773000D03*
X85090000Y-59690000D03*
X85077300Y-69824600D03*
X87630000Y-62230000D03*
X85077300Y-74904600D03*
X90157300Y-74904600D03*
X92710000Y-62230000D03*
X92697300Y-85064600D03*
X87617300Y-85064600D03*
X92697300Y-69824600D03*
X85090000Y-62230000D03*
X85077300Y-72364600D03*
X92710000Y-102870000D03*
X85077300Y-92684600D03*
X85077300Y-87604600D03*
X92697300Y-92684600D03*
X85090000Y-102870000D03*
X87630000Y-100330000D03*
X90170000Y-62230000D03*
X87617300Y-72364600D03*
X85077300Y-85064600D03*
X90157300Y-77444600D03*
X90170000Y-102870000D03*
X87617300Y-69824600D03*
X87617300Y-77444600D03*
X90157300Y-82524600D03*
X90157300Y-79984600D03*
X87630000Y-95250000D03*
X92710000Y-59690000D03*
X87655000Y-64773000D03*
X92697300Y-74904600D03*
X90157300Y-85064600D03*
X90170000Y-95250000D03*
X85090000Y-100330000D03*
X90157300Y-67284600D03*
X90195000Y-64773000D03*
X90157300Y-87604600D03*
X85077300Y-67284600D03*
X79997300Y-82524600D03*
X77457300Y-90144600D03*
X77457300Y-74904600D03*
X74917300Y-72364600D03*
X77470000Y-62230000D03*
X77457300Y-87604600D03*
X79997300Y-92684600D03*
X74917300Y-74904600D03*
X82537300Y-79984600D03*
X74955000Y-64773000D03*
X82550000Y-95250000D03*
X80010000Y-97790000D03*
X82537300Y-67284600D03*
X79997300Y-79984600D03*
X82537300Y-90144600D03*
X74917300Y-79984600D03*
X74917300Y-82524600D03*
X77457300Y-67284600D03*
X82537300Y-87604600D03*
X77470000Y-102870000D03*
X77470000Y-97790000D03*
X82537300Y-92684600D03*
X82550000Y-59690000D03*
X77457300Y-69824600D03*
X77457300Y-82524600D03*
X80010000Y-100330000D03*
X74917300Y-77444600D03*
X80010000Y-62230000D03*
X80035000Y-64773000D03*
X74930000Y-102870000D03*
X80010000Y-95250000D03*
X77457300Y-77444600D03*
X82537300Y-74904600D03*
X74930000Y-100330000D03*
X79997300Y-90144600D03*
X82537300Y-69824600D03*
X77457300Y-85064600D03*
X74917300Y-67284600D03*
X77470000Y-59690000D03*
X79997300Y-77444600D03*
X74917300Y-92684600D03*
X82537300Y-72364600D03*
X77470000Y-100330000D03*
X79997300Y-74904600D03*
X77457300Y-92684600D03*
X82537300Y-77444600D03*
X77470000Y-95250000D03*
X74917300Y-85064600D03*
X82537300Y-82524600D03*
X77457300Y-79984600D03*
X82550000Y-62230000D03*
X82550000Y-102870000D03*
X79997300Y-87604600D03*
X74917300Y-69824600D03*
X79997300Y-69824600D03*
X77495000Y-64773000D03*
X74917300Y-87604600D03*
X82550000Y-97790000D03*
X74930000Y-59690000D03*
X74930000Y-95250000D03*
X79997300Y-85064600D03*
X79997300Y-67284600D03*
X74917300Y-90144600D03*
X74930000Y-62230000D03*
X82575000Y-64773000D03*
X80010000Y-102870000D03*
X82550000Y-100330000D03*
X82537300Y-85064600D03*
X80010000Y-59690000D03*
X77457300Y-72364600D03*
X74930000Y-97790000D03*
X79997300Y-72364600D03*
X72377300Y-82524600D03*
X72377300Y-92684600D03*
X72390000Y-97790000D03*
X72377300Y-79984600D03*
X72390000Y-100330000D03*
X72390000Y-62230000D03*
X72415000Y-64773000D03*
X72390000Y-95250000D03*
X72377300Y-90144600D03*
X72377300Y-77444600D03*
X72377300Y-74904600D03*
X72377300Y-87604600D03*
X72377300Y-69824600D03*
X72377300Y-85064600D03*
X72377300Y-67284600D03*
X72390000Y-102870000D03*
X72390000Y-59690000D03*
X72377300Y-72364600D03*
X69837300Y-90144600D03*
X69837300Y-74904600D03*
X69850000Y-62230000D03*
X69837300Y-87604600D03*
X69837300Y-67284600D03*
X69850000Y-102870000D03*
X69850000Y-97790000D03*
X69837300Y-69824600D03*
X69837300Y-82524600D03*
X69837300Y-77444600D03*
X69837300Y-85064600D03*
X69850000Y-59690000D03*
X69850000Y-100330000D03*
X69837300Y-92684600D03*
X69850000Y-95250000D03*
X69837300Y-79984600D03*
X69875000Y-64773000D03*
X69837300Y-72364600D03*
X67297300Y-72364600D03*
X67297300Y-74904600D03*
X67335000Y-64773000D03*
X67297300Y-79984600D03*
X67297300Y-82524600D03*
X67297300Y-77444600D03*
X67310000Y-102870000D03*
X67310000Y-100330000D03*
X67297300Y-67284600D03*
X67297300Y-92684600D03*
X67297300Y-85064600D03*
X67297300Y-69824600D03*
X67297300Y-87604600D03*
X67310000Y-59690000D03*
X67310000Y-95250000D03*
X67297300Y-90144600D03*
X67310000Y-62230000D03*
X67310000Y-97790000D03*
X64757300Y-67284600D03*
X64757300Y-69824600D03*
X64757300Y-72364600D03*
X64757300Y-74904600D03*
X64757300Y-77444600D03*
X64757300Y-79984600D03*
X64757300Y-82524600D03*
X64757300Y-85064600D03*
X64757300Y-87604600D03*
X64757300Y-90144600D03*
X64757300Y-92684600D03*
D13*
X52245000Y-66230000D03*
X54785000Y-66230000D03*
X52245000Y-68770000D03*
X54785000Y-68770000D03*
X52245000Y-71310000D03*
X54785000Y-71310000D03*
X52245000Y-73850000D03*
X54785000Y-73850000D03*
X52245000Y-76390000D03*
D14*
X54785000Y-76390000D03*
D12*
X64770000Y-59690000D03*
X64770000Y-102870000D03*
X64795000Y-64773000D03*
X64770000Y-97790000D03*
X64770000Y-62230000D03*
X64770000Y-100330000D03*
D15*
X50269000Y-85468000D03*
X50269000Y-90468000D03*
X57000000Y-85500000D03*
X57000000Y-90500000D03*
D12*
X64770000Y-95250000D03*
D16*
X67297300Y-79984600D02*
X64820809Y-79984600D01*
X67297300Y-67284600D02*
X67297300Y-77444600D01*
X64770000Y-67310000D02*
X64770000Y-77470000D01*
X69850000Y-67310000D02*
X69850000Y-77470000D01*
X72390000Y-67310000D02*
X72390000Y-77470000D01*
X72390000Y-67310000D02*
X72390000Y-77470000D01*
X64770000Y-67310000D02*
X64770000Y-77470000D01*
X69850000Y-67310000D02*
X69850000Y-77470000D01*
X67297300Y-67284600D02*
X67297300Y-77444600D01*
X74930000Y-67310000D02*
X74930000Y-77470000D01*
X80010000Y-67310000D02*
X80010000Y-77470000D01*
X77457300Y-67284600D02*
X77457300Y-77444600D01*
X82550000Y-67310000D02*
X82550000Y-77470000D01*
X90170000Y-67310000D02*
X90170000Y-77470000D01*
X85090000Y-67310000D02*
X85090000Y-77470000D01*
X92710000Y-67310000D02*
X92710000Y-77470000D01*
X87617300Y-67284600D02*
X87617300Y-77444600D01*
X97777300Y-67284600D02*
X97777300Y-77444600D01*
X100330000Y-67310000D02*
X100330000Y-77470000D01*
X102870000Y-67310000D02*
X102870000Y-77470000D01*
X95250000Y-67310000D02*
X95250000Y-77470000D01*
X110490000Y-67310000D02*
X110490000Y-77470000D01*
X105410000Y-67310000D02*
X105410000Y-77470000D01*
X113030000Y-67310000D02*
X113030000Y-77470000D01*
X107937300Y-67284600D02*
X107937300Y-77444600D01*
X123190000Y-67310000D02*
X123190000Y-77470000D01*
X118097300Y-67284600D02*
X118097300Y-77444600D01*
X115570000Y-67310000D02*
X115570000Y-77470000D01*
X120650000Y-67310000D02*
X120650000Y-77470000D01*
X133350000Y-67310000D02*
X133350000Y-77470000D01*
X125730000Y-67310000D02*
X125730000Y-77470000D01*
X130810000Y-67310000D02*
X130810000Y-77470000D01*
X128257300Y-67284600D02*
X128257300Y-77444600D01*
X133350000Y-85090000D02*
X133350000Y-95250000D01*
X128257300Y-85064600D02*
X128257300Y-95224600D01*
X125730000Y-85090000D02*
X125730000Y-95250000D01*
X130810000Y-85090000D02*
X130810000Y-95250000D01*
X120650000Y-85090000D02*
X120650000Y-95250000D01*
X118097300Y-85064600D02*
X118097300Y-95224600D01*
X115570000Y-85090000D02*
X115570000Y-95250000D01*
X123190000Y-85090000D02*
X123190000Y-95250000D01*
X110490000Y-85090000D02*
X110490000Y-95250000D01*
X105410000Y-85090000D02*
X105410000Y-95250000D01*
X113030000Y-85090000D02*
X113030000Y-95250000D01*
X107937300Y-85064600D02*
X107937300Y-95224600D01*
X102870000Y-85090000D02*
X102870000Y-95250000D01*
X95250000Y-85090000D02*
X95250000Y-95250000D01*
X97777300Y-85064600D02*
X97777300Y-95224600D01*
X100330000Y-85090000D02*
X100330000Y-95250000D01*
X85090000Y-85090000D02*
X85090000Y-95250000D01*
X90170000Y-85090000D02*
X90170000Y-95250000D01*
X87617300Y-85064600D02*
X87617300Y-95224600D01*
X92710000Y-85090000D02*
X92710000Y-95250000D01*
X74930000Y-85090000D02*
X74930000Y-95250000D01*
X82550000Y-85090000D02*
X82550000Y-95250000D01*
X80010000Y-85090000D02*
X80010000Y-95250000D01*
X77457300Y-85064600D02*
X77457300Y-95224600D01*
X72390000Y-85090000D02*
X72390000Y-95250000D01*
X69850000Y-85090000D02*
X69850000Y-95250000D01*
X67297300Y-85064600D02*
X67297300Y-95224600D01*
X64770000Y-85090000D02*
X64770000Y-95250000D01*
X138430000Y-67310000D02*
X138430000Y-77470000D01*
X138417300Y-85064600D02*
X138417300Y-95224600D01*
X135890000Y-85090000D02*
X135890000Y-95250000D01*
X135890000Y-67310000D02*
X135890000Y-77470000D01*
X140970000Y-67310000D02*
X140970000Y-77470000D01*
X140970000Y-85090000D02*
X140970000Y-95250000D01*
X140957300Y-82524600D02*
X64757300Y-82524600D01*
X140957300Y-79984600D02*
X138417300Y-79984600D01*
X67297300Y-79984600D02*
X140957300Y-79984600D01*
X64770000Y-97790000D02*
X140970000Y-97790000D01*
X64795000Y-64773000D02*
X140995000Y-64773000D01*
X64770000Y-100330000D02*
X140970000Y-100330000D01*
X140970000Y-62230000D02*
X64770000Y-62230000D01*
D17*
X62000000Y-62000000D02*
X64540000Y-62000000D01*
X58575001Y-65424999D02*
X62000000Y-62000000D01*
X57000000Y-90500000D02*
X58575001Y-88924999D01*
X64540000Y-62000000D02*
X64770000Y-62230000D01*
X58575001Y-88924999D02*
X58575001Y-65424999D01*
D16*
X64770000Y-59690000D02*
X138430000Y-59690000D01*
X138430000Y-102870000D02*
X64770000Y-102870000D01*
D17*
X61310000Y-59690000D02*
X64770000Y-59690000D01*
X57000000Y-64000000D02*
X61310000Y-59690000D01*
X57000000Y-81160000D02*
X57000000Y-64000000D01*
X50269000Y-90468000D02*
X50269000Y-87891000D01*
X50269000Y-87891000D02*
X57000000Y-81160000D01*
D18*
G36*
X46876761Y-54317155D02*
G01*
X48260000Y-55700395D01*
X49643239Y-54317155D01*
X49479656Y-54000000D01*
X142290344Y-54000000D01*
X142126761Y-54317155D01*
X143510000Y-55700395D01*
X144893239Y-54317155D01*
X144729656Y-54000000D01*
X145390000Y-54000000D01*
X145390000Y-54660344D01*
X145072845Y-54496761D01*
X143689605Y-55880000D01*
X145072845Y-57263239D01*
X145390000Y-57099656D01*
X145390001Y-105460345D01*
X145072845Y-105296761D01*
X143689605Y-106680000D01*
X145072845Y-108063239D01*
X145390001Y-107899655D01*
X145390001Y-108560000D01*
X144729656Y-108560000D01*
X144893239Y-108242845D01*
X143510000Y-106859605D01*
X142126761Y-108242845D01*
X142290344Y-108560000D01*
X49479656Y-108560000D01*
X49643239Y-108242845D01*
X48260000Y-106859605D01*
X46876761Y-108242845D01*
X47040344Y-108560000D01*
X46380000Y-108560000D01*
X46380000Y-107899656D01*
X46697155Y-108063239D01*
X48080395Y-106680000D01*
X48439605Y-106680000D01*
X49822845Y-108063239D01*
X50148643Y-107895198D01*
X50349426Y-107503393D01*
X50469914Y-107079945D01*
X50499175Y-106718873D01*
X141264524Y-106718873D01*
X141315254Y-107156197D01*
X141450326Y-107575221D01*
X141621357Y-107895198D01*
X141947155Y-108063239D01*
X143330395Y-106680000D01*
X141947155Y-105296761D01*
X141621357Y-105464802D01*
X141420574Y-105856607D01*
X141300086Y-106280055D01*
X141264524Y-106718873D01*
X50499175Y-106718873D01*
X50505476Y-106641127D01*
X50454746Y-106203803D01*
X50319674Y-105784779D01*
X50148643Y-105464802D01*
X49822845Y-105296761D01*
X48439605Y-106680000D01*
X48080395Y-106680000D01*
X46697155Y-105296761D01*
X46380000Y-105460344D01*
X46380000Y-105117155D01*
X46876761Y-105117155D01*
X48260000Y-106500395D01*
X49643239Y-105117155D01*
X142126761Y-105117155D01*
X143510000Y-106500395D01*
X144893239Y-105117155D01*
X144725198Y-104791357D01*
X144333393Y-104590574D01*
X143909945Y-104470086D01*
X143471127Y-104434524D01*
X143033803Y-104485254D01*
X142614779Y-104620326D01*
X142294802Y-104791357D01*
X142126761Y-105117155D01*
X49643239Y-105117155D01*
X49475198Y-104791357D01*
X49083393Y-104590574D01*
X48659945Y-104470086D01*
X48221127Y-104434524D01*
X47783803Y-104485254D01*
X47364779Y-104620326D01*
X47044802Y-104791357D01*
X46876761Y-105117155D01*
X46380000Y-105117155D01*
X46380000Y-96768000D01*
X48830928Y-96768000D01*
X48843188Y-96892482D01*
X48879498Y-97012180D01*
X48938463Y-97122494D01*
X49017815Y-97219185D01*
X49034393Y-97232790D01*
X48997320Y-97288273D01*
X48889147Y-97549426D01*
X48834000Y-97826665D01*
X48834000Y-98109335D01*
X48889147Y-98386574D01*
X48997320Y-98647727D01*
X49154363Y-98882759D01*
X49354241Y-99082637D01*
X49589273Y-99239680D01*
X49850426Y-99347853D01*
X50127665Y-99403000D01*
X50410335Y-99403000D01*
X50687574Y-99347853D01*
X50948727Y-99239680D01*
X51183759Y-99082637D01*
X51383637Y-98882759D01*
X51540680Y-98647727D01*
X51648853Y-98386574D01*
X51704000Y-98109335D01*
X51704000Y-97826665D01*
X51648853Y-97549426D01*
X51540680Y-97288273D01*
X51503607Y-97232790D01*
X51520185Y-97219185D01*
X51599537Y-97122494D01*
X51658502Y-97012180D01*
X51694812Y-96892482D01*
X51707072Y-96768000D01*
X51704000Y-96253750D01*
X51545250Y-96095000D01*
X50396000Y-96095000D01*
X50396000Y-96115000D01*
X50142000Y-96115000D01*
X50142000Y-96095000D01*
X48992750Y-96095000D01*
X48834000Y-96253750D01*
X48830928Y-96768000D01*
X46380000Y-96768000D01*
X46380000Y-96070512D01*
X55274783Y-96070512D01*
X55316213Y-96350130D01*
X55411397Y-96616292D01*
X55476616Y-96738309D01*
X55463815Y-96748815D01*
X55384463Y-96845506D01*
X55325498Y-96955820D01*
X55289188Y-97075518D01*
X55276928Y-97200000D01*
X55276928Y-98800000D01*
X55289188Y-98924482D01*
X55325498Y-99044180D01*
X55384463Y-99154494D01*
X55463815Y-99251185D01*
X55560506Y-99330537D01*
X55670820Y-99389502D01*
X55790518Y-99425812D01*
X55915000Y-99438072D01*
X57515000Y-99438072D01*
X57639482Y-99425812D01*
X57759180Y-99389502D01*
X57869494Y-99330537D01*
X57966185Y-99251185D01*
X58045537Y-99154494D01*
X58104502Y-99044180D01*
X58140812Y-98924482D01*
X58153072Y-98800000D01*
X58153072Y-97854474D01*
X63176123Y-97854474D01*
X63219328Y-98164185D01*
X63322123Y-98459516D01*
X63408919Y-98621902D01*
X63668465Y-98711930D01*
X64590395Y-97790000D01*
X63668465Y-96868070D01*
X63408919Y-96958098D01*
X63272776Y-97239616D01*
X63194171Y-97542286D01*
X63176123Y-97854474D01*
X58153072Y-97854474D01*
X58153072Y-97200000D01*
X58140812Y-97075518D01*
X58104502Y-96955820D01*
X58045537Y-96845506D01*
X57966185Y-96748815D01*
X57953242Y-96738193D01*
X58072571Y-96486004D01*
X58141300Y-96211816D01*
X58155217Y-95929488D01*
X58113787Y-95649870D01*
X58018603Y-95383708D01*
X57951671Y-95258486D01*
X57707702Y-95186903D01*
X56894605Y-96000000D01*
X56908748Y-96014143D01*
X56729143Y-96193748D01*
X56715000Y-96179605D01*
X56700858Y-96193748D01*
X56521253Y-96014143D01*
X56535395Y-96000000D01*
X55722298Y-95186903D01*
X55478329Y-95258486D01*
X55357429Y-95513996D01*
X55288700Y-95788184D01*
X55274783Y-96070512D01*
X46380000Y-96070512D01*
X46380000Y-95168000D01*
X48830928Y-95168000D01*
X48834000Y-95682250D01*
X48992750Y-95841000D01*
X50142000Y-95841000D01*
X50142000Y-94691750D01*
X50396000Y-94691750D01*
X50396000Y-95841000D01*
X51545250Y-95841000D01*
X51704000Y-95682250D01*
X51707072Y-95168000D01*
X51694812Y-95043518D01*
X51683825Y-95007298D01*
X55901903Y-95007298D01*
X56715000Y-95820395D01*
X57528097Y-95007298D01*
X57456514Y-94763329D01*
X57201004Y-94642429D01*
X56926816Y-94573700D01*
X56644488Y-94559783D01*
X56364870Y-94601213D01*
X56098708Y-94696397D01*
X55973486Y-94763329D01*
X55901903Y-95007298D01*
X51683825Y-95007298D01*
X51658502Y-94923820D01*
X51599537Y-94813506D01*
X51520185Y-94716815D01*
X51423494Y-94637463D01*
X51313180Y-94578498D01*
X51193482Y-94542188D01*
X51069000Y-94529928D01*
X50554750Y-94533000D01*
X50396000Y-94691750D01*
X50142000Y-94691750D01*
X49983250Y-94533000D01*
X49469000Y-94529928D01*
X49344518Y-94542188D01*
X49224820Y-94578498D01*
X49114506Y-94637463D01*
X49017815Y-94716815D01*
X48938463Y-94813506D01*
X48879498Y-94923820D01*
X48843188Y-95043518D01*
X48830928Y-95168000D01*
X46380000Y-95168000D01*
X46380000Y-85306967D01*
X48634000Y-85306967D01*
X48634000Y-85629033D01*
X48696832Y-85944912D01*
X48820082Y-86242463D01*
X48999013Y-86510252D01*
X49226748Y-86737987D01*
X49494537Y-86916918D01*
X49720945Y-87010700D01*
X49589901Y-87141744D01*
X49551368Y-87173367D01*
X49519745Y-87211900D01*
X49519744Y-87211901D01*
X49425154Y-87327160D01*
X49331368Y-87502621D01*
X49273615Y-87693006D01*
X49254114Y-87891000D01*
X49259001Y-87940617D01*
X49259001Y-89176463D01*
X49226748Y-89198013D01*
X48999013Y-89425748D01*
X48820082Y-89693537D01*
X48696832Y-89991088D01*
X48634000Y-90306967D01*
X48634000Y-90629033D01*
X48696832Y-90944912D01*
X48820082Y-91242463D01*
X48999013Y-91510252D01*
X49226748Y-91737987D01*
X49494537Y-91916918D01*
X49792088Y-92040168D01*
X50107967Y-92103000D01*
X50430033Y-92103000D01*
X50745912Y-92040168D01*
X51043463Y-91916918D01*
X51311252Y-91737987D01*
X51538987Y-91510252D01*
X51717918Y-91242463D01*
X51841168Y-90944912D01*
X51904000Y-90629033D01*
X51904000Y-90306967D01*
X51841168Y-89991088D01*
X51717918Y-89693537D01*
X51538987Y-89425748D01*
X51311252Y-89198013D01*
X51279000Y-89176463D01*
X51279000Y-88309355D01*
X57565001Y-82023355D01*
X57565001Y-83964320D01*
X57476912Y-83927832D01*
X57161033Y-83865000D01*
X56838967Y-83865000D01*
X56523088Y-83927832D01*
X56225537Y-84051082D01*
X55957748Y-84230013D01*
X55730013Y-84457748D01*
X55551082Y-84725537D01*
X55427832Y-85023088D01*
X55365000Y-85338967D01*
X55365000Y-85661033D01*
X55427832Y-85976912D01*
X55551082Y-86274463D01*
X55730013Y-86542252D01*
X55957748Y-86769987D01*
X56225537Y-86948918D01*
X56523088Y-87072168D01*
X56838967Y-87135000D01*
X57161033Y-87135000D01*
X57476912Y-87072168D01*
X57565001Y-87035680D01*
X57565001Y-88506643D01*
X57199077Y-88872567D01*
X57161033Y-88865000D01*
X56838967Y-88865000D01*
X56523088Y-88927832D01*
X56225537Y-89051082D01*
X55957748Y-89230013D01*
X55730013Y-89457748D01*
X55551082Y-89725537D01*
X55427832Y-90023088D01*
X55365000Y-90338967D01*
X55365000Y-90661033D01*
X55427832Y-90976912D01*
X55551082Y-91274463D01*
X55730013Y-91542252D01*
X55957748Y-91769987D01*
X56225537Y-91948918D01*
X56523088Y-92072168D01*
X56838967Y-92135000D01*
X57161033Y-92135000D01*
X57476912Y-92072168D01*
X57774463Y-91948918D01*
X58042252Y-91769987D01*
X58269987Y-91542252D01*
X58448918Y-91274463D01*
X58572168Y-90976912D01*
X58635000Y-90661033D01*
X58635000Y-90338967D01*
X58627433Y-90300923D01*
X59254100Y-89674255D01*
X59292634Y-89642632D01*
X59418848Y-89488839D01*
X59512633Y-89313379D01*
X59549423Y-89192100D01*
X59570386Y-89122994D01*
X59589887Y-88924999D01*
X59585001Y-88875391D01*
X59585001Y-65843354D01*
X60590881Y-64837474D01*
X63201123Y-64837474D01*
X63244328Y-65147185D01*
X63347123Y-65442516D01*
X63433919Y-65604902D01*
X63693465Y-65694930D01*
X64615395Y-64773000D01*
X63693465Y-63851070D01*
X63433919Y-63941098D01*
X63297776Y-64222616D01*
X63219171Y-64525286D01*
X63201123Y-64837474D01*
X60590881Y-64837474D01*
X62418355Y-63010000D01*
X63314870Y-63010000D01*
X63390602Y-63151684D01*
X63596918Y-63403082D01*
X63848316Y-63609398D01*
X63887360Y-63630268D01*
X63873070Y-63671465D01*
X64643000Y-64441395D01*
X64643000Y-65104605D01*
X63873070Y-65874535D01*
X63885604Y-65910671D01*
X63848316Y-65930602D01*
X63596918Y-66136918D01*
X63390602Y-66388317D01*
X63237295Y-66675134D01*
X63142889Y-66986348D01*
X63119000Y-67228897D01*
X63119001Y-77551104D01*
X63142890Y-77793653D01*
X63237296Y-78104867D01*
X63390603Y-78391684D01*
X63596919Y-78643082D01*
X63724943Y-78748148D01*
X63647727Y-78811518D01*
X63441411Y-79062916D01*
X63351562Y-79231012D01*
X63350476Y-79232637D01*
X63349728Y-79234442D01*
X63288104Y-79349733D01*
X63250156Y-79474831D01*
X63230807Y-79521543D01*
X63220943Y-79571133D01*
X63193698Y-79660947D01*
X63184499Y-79754351D01*
X63169800Y-79828245D01*
X63169800Y-79903588D01*
X63161821Y-79984600D01*
X63169800Y-80065612D01*
X63169800Y-80140955D01*
X63184499Y-80214849D01*
X63193698Y-80308253D01*
X63220943Y-80398067D01*
X63230807Y-80447657D01*
X63250156Y-80494369D01*
X63288104Y-80619467D01*
X63349728Y-80734758D01*
X63350476Y-80736563D01*
X63351562Y-80738188D01*
X63441411Y-80906284D01*
X63647727Y-81157682D01*
X63734068Y-81228540D01*
X63584218Y-81351518D01*
X63377902Y-81602916D01*
X63224595Y-81889733D01*
X63130189Y-82200947D01*
X63098312Y-82524600D01*
X63130189Y-82848253D01*
X63224595Y-83159467D01*
X63377902Y-83446284D01*
X63584218Y-83697682D01*
X63724139Y-83812511D01*
X63596918Y-83916918D01*
X63390602Y-84168317D01*
X63237295Y-84455134D01*
X63142889Y-84766348D01*
X63119000Y-85008897D01*
X63119001Y-95331104D01*
X63142890Y-95573653D01*
X63237296Y-95884867D01*
X63390603Y-96171684D01*
X63596919Y-96423082D01*
X63848317Y-96629398D01*
X63865393Y-96638525D01*
X63848070Y-96688465D01*
X64643000Y-97483395D01*
X64643000Y-98096605D01*
X63848070Y-98891535D01*
X63865392Y-98941474D01*
X63848316Y-98950602D01*
X63596918Y-99156918D01*
X63390602Y-99408316D01*
X63237295Y-99695133D01*
X63142889Y-100006347D01*
X63111012Y-100330000D01*
X63142889Y-100653653D01*
X63237295Y-100964867D01*
X63390602Y-101251684D01*
X63596918Y-101503082D01*
X63715014Y-101600000D01*
X63596918Y-101696918D01*
X63390602Y-101948316D01*
X63237295Y-102235133D01*
X63142889Y-102546347D01*
X63111012Y-102870000D01*
X63142889Y-103193653D01*
X63237295Y-103504867D01*
X63390602Y-103791684D01*
X63596918Y-104043082D01*
X63848316Y-104249398D01*
X64135133Y-104402705D01*
X64446347Y-104497111D01*
X64688896Y-104521000D01*
X138511104Y-104521000D01*
X138753653Y-104497111D01*
X139064867Y-104402705D01*
X139318753Y-104267000D01*
X139700000Y-104267000D01*
X139724776Y-104264560D01*
X139748601Y-104257333D01*
X139770557Y-104245597D01*
X139789803Y-104229803D01*
X139805597Y-104210557D01*
X139817333Y-104188601D01*
X139824560Y-104164776D01*
X139827000Y-104140000D01*
X139827000Y-103758753D01*
X139962705Y-103504867D01*
X140057111Y-103193653D01*
X140088988Y-102870000D01*
X140057111Y-102546347D01*
X139962705Y-102235133D01*
X139827000Y-101981247D01*
X139827000Y-101981000D01*
X141051104Y-101981000D01*
X141293653Y-101957111D01*
X141604867Y-101862705D01*
X141891684Y-101709398D01*
X142143082Y-101503082D01*
X142349398Y-101251684D01*
X142502705Y-100964867D01*
X142597111Y-100653653D01*
X142628988Y-100330000D01*
X142597111Y-100006347D01*
X142502705Y-99695133D01*
X142349398Y-99408316D01*
X142143082Y-99156918D01*
X141891684Y-98950602D01*
X141874608Y-98941474D01*
X141891930Y-98891535D01*
X141097000Y-98096605D01*
X141097000Y-97790000D01*
X141149605Y-97790000D01*
X142071535Y-98711930D01*
X142331081Y-98621902D01*
X142467224Y-98340384D01*
X142545829Y-98037714D01*
X142563877Y-97725526D01*
X142520672Y-97415815D01*
X142417877Y-97120484D01*
X142331081Y-96958098D01*
X142071535Y-96868070D01*
X141149605Y-97790000D01*
X141097000Y-97790000D01*
X141097000Y-97483395D01*
X141891930Y-96688465D01*
X141874608Y-96638526D01*
X141891684Y-96629398D01*
X142143082Y-96423082D01*
X142349398Y-96171684D01*
X142502705Y-95884867D01*
X142597111Y-95573653D01*
X142621000Y-95331104D01*
X142621000Y-85008896D01*
X142597111Y-84766347D01*
X142502705Y-84455133D01*
X142349398Y-84168316D01*
X142143082Y-83916918D01*
X142003161Y-83802089D01*
X142130382Y-83697682D01*
X142336698Y-83446284D01*
X142490005Y-83159467D01*
X142584411Y-82848253D01*
X142616288Y-82524600D01*
X142584411Y-82200947D01*
X142490005Y-81889733D01*
X142336698Y-81602916D01*
X142130382Y-81351518D01*
X142012286Y-81254600D01*
X142130382Y-81157682D01*
X142336698Y-80906284D01*
X142490005Y-80619467D01*
X142584411Y-80308253D01*
X142616288Y-79984600D01*
X142584411Y-79660947D01*
X142490005Y-79349733D01*
X142336698Y-79062916D01*
X142130382Y-78811518D01*
X142034112Y-78732511D01*
X142143082Y-78643082D01*
X142349398Y-78391684D01*
X142502705Y-78104867D01*
X142597111Y-77793653D01*
X142621000Y-77551104D01*
X142621000Y-67228896D01*
X142597111Y-66986347D01*
X142502705Y-66675133D01*
X142349398Y-66388316D01*
X142143082Y-66136918D01*
X141896197Y-65934307D01*
X141916930Y-65874535D01*
X141097000Y-65054605D01*
X141097000Y-64773000D01*
X141174605Y-64773000D01*
X142096535Y-65694930D01*
X142356081Y-65604902D01*
X142492224Y-65323384D01*
X142570829Y-65020714D01*
X142588877Y-64708526D01*
X142545672Y-64398815D01*
X142442877Y-64103484D01*
X142356081Y-63941098D01*
X142096535Y-63851070D01*
X141174605Y-64773000D01*
X141097000Y-64773000D01*
X141097000Y-64491395D01*
X141916930Y-63671465D01*
X141894577Y-63607023D01*
X142143082Y-63403082D01*
X142349398Y-63151684D01*
X142502705Y-62864867D01*
X142597111Y-62553653D01*
X142628988Y-62230000D01*
X142597111Y-61906347D01*
X142502705Y-61595133D01*
X142349398Y-61308316D01*
X142143082Y-61056918D01*
X141891684Y-60850602D01*
X141604867Y-60697295D01*
X141293653Y-60602889D01*
X141051104Y-60579000D01*
X139827000Y-60579000D01*
X139827000Y-60578753D01*
X139962705Y-60324867D01*
X140057111Y-60013653D01*
X140088988Y-59690000D01*
X140057111Y-59366347D01*
X139962705Y-59055133D01*
X139827000Y-58801247D01*
X139827000Y-58420000D01*
X139824560Y-58395224D01*
X139817333Y-58371399D01*
X139805597Y-58349443D01*
X139789803Y-58330197D01*
X139770557Y-58314403D01*
X139748601Y-58302667D01*
X139724776Y-58295440D01*
X139700000Y-58293000D01*
X139318753Y-58293000D01*
X139064867Y-58157295D01*
X138753653Y-58062889D01*
X138511104Y-58039000D01*
X64688896Y-58039000D01*
X64446347Y-58062889D01*
X64135133Y-58157295D01*
X63848316Y-58310602D01*
X63596918Y-58516918D01*
X63463081Y-58680000D01*
X61359604Y-58680000D01*
X61309999Y-58675114D01*
X61260394Y-58680000D01*
X61260392Y-58680000D01*
X61112006Y-58694615D01*
X60921620Y-58752368D01*
X60746160Y-58846153D01*
X60592367Y-58972367D01*
X60560744Y-59010900D01*
X56320901Y-63250744D01*
X56282368Y-63282367D01*
X56250745Y-63320900D01*
X56250744Y-63320901D01*
X56156154Y-63436160D01*
X56062368Y-63611621D01*
X56004615Y-63802006D01*
X55985114Y-64000000D01*
X55990001Y-64049618D01*
X55990001Y-65336002D01*
X55949039Y-65274698D01*
X55740302Y-65065961D01*
X55494853Y-64901958D01*
X55222125Y-64788990D01*
X54932599Y-64731400D01*
X54637401Y-64731400D01*
X54347875Y-64788990D01*
X54075147Y-64901958D01*
X53829698Y-65065961D01*
X53620961Y-65274698D01*
X53515000Y-65433281D01*
X53409039Y-65274698D01*
X53200302Y-65065961D01*
X52954853Y-64901958D01*
X52682125Y-64788990D01*
X52392599Y-64731400D01*
X52097401Y-64731400D01*
X51807875Y-64788990D01*
X51535147Y-64901958D01*
X51289698Y-65065961D01*
X51080961Y-65274698D01*
X50916958Y-65520147D01*
X50803990Y-65792875D01*
X50746400Y-66082401D01*
X50746400Y-66377599D01*
X50803990Y-66667125D01*
X50916958Y-66939853D01*
X51080961Y-67185302D01*
X51289698Y-67394039D01*
X51455103Y-67504559D01*
X51356512Y-67563183D01*
X51138146Y-67759707D01*
X50962316Y-67995056D01*
X50835778Y-68260186D01*
X50790042Y-68410974D01*
X50911183Y-68643000D01*
X52118000Y-68643000D01*
X52118000Y-68623000D01*
X52372000Y-68623000D01*
X52372000Y-68643000D01*
X54658000Y-68643000D01*
X54658000Y-68623000D01*
X54912000Y-68623000D01*
X54912000Y-68643000D01*
X54932000Y-68643000D01*
X54932000Y-68897000D01*
X54912000Y-68897000D01*
X54912000Y-71183000D01*
X54932000Y-71183000D01*
X54932000Y-71437000D01*
X54912000Y-71437000D01*
X54912000Y-73723000D01*
X54932000Y-73723000D01*
X54932000Y-73977000D01*
X54912000Y-73977000D01*
X54912000Y-73997000D01*
X54658000Y-73997000D01*
X54658000Y-73977000D01*
X52372000Y-73977000D01*
X52372000Y-73997000D01*
X52118000Y-73997000D01*
X52118000Y-73977000D01*
X50911183Y-73977000D01*
X50790042Y-74209026D01*
X50835778Y-74359814D01*
X50962316Y-74624944D01*
X51138146Y-74860293D01*
X51356512Y-75056817D01*
X51455103Y-75115441D01*
X51289698Y-75225961D01*
X51080961Y-75434698D01*
X50916958Y-75680147D01*
X50803990Y-75952875D01*
X50746400Y-76242401D01*
X50746400Y-76537599D01*
X50803990Y-76827125D01*
X50916958Y-77099853D01*
X51080961Y-77345302D01*
X51289698Y-77554039D01*
X51535147Y-77718042D01*
X51807875Y-77831010D01*
X52097401Y-77888600D01*
X52392599Y-77888600D01*
X52682125Y-77831010D01*
X52954853Y-77718042D01*
X53200302Y-77554039D01*
X53314364Y-77439977D01*
X53331898Y-77497780D01*
X53390863Y-77608094D01*
X53470215Y-77704785D01*
X53566906Y-77784137D01*
X53677220Y-77843102D01*
X53796918Y-77879412D01*
X53921400Y-77891672D01*
X55648600Y-77891672D01*
X55773082Y-77879412D01*
X55892780Y-77843102D01*
X55990000Y-77791136D01*
X55990000Y-80741644D01*
X51811700Y-84919945D01*
X51717918Y-84693537D01*
X51538987Y-84425748D01*
X51311252Y-84198013D01*
X51043463Y-84019082D01*
X50745912Y-83895832D01*
X50430033Y-83833000D01*
X50107967Y-83833000D01*
X49792088Y-83895832D01*
X49494537Y-84019082D01*
X49226748Y-84198013D01*
X48999013Y-84425748D01*
X48820082Y-84693537D01*
X48696832Y-84991088D01*
X48634000Y-85306967D01*
X46380000Y-85306967D01*
X46380000Y-71669026D01*
X50790042Y-71669026D01*
X50835778Y-71819814D01*
X50962316Y-72084944D01*
X51138146Y-72320293D01*
X51356512Y-72516817D01*
X51462770Y-72580000D01*
X51356512Y-72643183D01*
X51138146Y-72839707D01*
X50962316Y-73075056D01*
X50835778Y-73340186D01*
X50790042Y-73490974D01*
X50911183Y-73723000D01*
X52118000Y-73723000D01*
X52118000Y-71437000D01*
X52372000Y-71437000D01*
X52372000Y-73723000D01*
X54658000Y-73723000D01*
X54658000Y-71437000D01*
X52372000Y-71437000D01*
X52118000Y-71437000D01*
X50911183Y-71437000D01*
X50790042Y-71669026D01*
X46380000Y-71669026D01*
X46380000Y-69129026D01*
X50790042Y-69129026D01*
X50835778Y-69279814D01*
X50962316Y-69544944D01*
X51138146Y-69780293D01*
X51356512Y-69976817D01*
X51462770Y-70040000D01*
X51356512Y-70103183D01*
X51138146Y-70299707D01*
X50962316Y-70535056D01*
X50835778Y-70800186D01*
X50790042Y-70950974D01*
X50911183Y-71183000D01*
X52118000Y-71183000D01*
X52118000Y-68897000D01*
X52372000Y-68897000D01*
X52372000Y-71183000D01*
X54658000Y-71183000D01*
X54658000Y-68897000D01*
X52372000Y-68897000D01*
X52118000Y-68897000D01*
X50911183Y-68897000D01*
X50790042Y-69129026D01*
X46380000Y-69129026D01*
X46380000Y-57442845D01*
X46876761Y-57442845D01*
X47044802Y-57768643D01*
X47436607Y-57969426D01*
X47860055Y-58089914D01*
X48298873Y-58125476D01*
X48736197Y-58074746D01*
X49155221Y-57939674D01*
X49475198Y-57768643D01*
X49643239Y-57442845D01*
X142126761Y-57442845D01*
X142294802Y-57768643D01*
X142686607Y-57969426D01*
X143110055Y-58089914D01*
X143548873Y-58125476D01*
X143986197Y-58074746D01*
X144405221Y-57939674D01*
X144725198Y-57768643D01*
X144893239Y-57442845D01*
X143510000Y-56059605D01*
X142126761Y-57442845D01*
X49643239Y-57442845D01*
X48260000Y-56059605D01*
X46876761Y-57442845D01*
X46380000Y-57442845D01*
X46380000Y-57099656D01*
X46697155Y-57263239D01*
X48080395Y-55880000D01*
X48439605Y-55880000D01*
X49822845Y-57263239D01*
X50148643Y-57095198D01*
X50349426Y-56703393D01*
X50469914Y-56279945D01*
X50499175Y-55918873D01*
X141264524Y-55918873D01*
X141315254Y-56356197D01*
X141450326Y-56775221D01*
X141621357Y-57095198D01*
X141947155Y-57263239D01*
X143330395Y-55880000D01*
X141947155Y-54496761D01*
X141621357Y-54664802D01*
X141420574Y-55056607D01*
X141300086Y-55480055D01*
X141264524Y-55918873D01*
X50499175Y-55918873D01*
X50505476Y-55841127D01*
X50454746Y-55403803D01*
X50319674Y-54984779D01*
X50148643Y-54664802D01*
X49822845Y-54496761D01*
X48439605Y-55880000D01*
X48080395Y-55880000D01*
X46697155Y-54496761D01*
X46380000Y-54660344D01*
X46380000Y-54000000D01*
X47040344Y-54000000D01*
X46876761Y-54317155D01*
G37*
X46876761Y-54317155D02*
X48260000Y-55700395D01*
X49643239Y-54317155D01*
X49479656Y-54000000D01*
X142290344Y-54000000D01*
X142126761Y-54317155D01*
X143510000Y-55700395D01*
X144893239Y-54317155D01*
X144729656Y-54000000D01*
X145390000Y-54000000D01*
X145390000Y-54660344D01*
X145072845Y-54496761D01*
X143689605Y-55880000D01*
X145072845Y-57263239D01*
X145390000Y-57099656D01*
X145390001Y-105460345D01*
X145072845Y-105296761D01*
X143689605Y-106680000D01*
X145072845Y-108063239D01*
X145390001Y-107899655D01*
X145390001Y-108560000D01*
X144729656Y-108560000D01*
X144893239Y-108242845D01*
X143510000Y-106859605D01*
X142126761Y-108242845D01*
X142290344Y-108560000D01*
X49479656Y-108560000D01*
X49643239Y-108242845D01*
X48260000Y-106859605D01*
X46876761Y-108242845D01*
X47040344Y-108560000D01*
X46380000Y-108560000D01*
X46380000Y-107899656D01*
X46697155Y-108063239D01*
X48080395Y-106680000D01*
X48439605Y-106680000D01*
X49822845Y-108063239D01*
X50148643Y-107895198D01*
X50349426Y-107503393D01*
X50469914Y-107079945D01*
X50499175Y-106718873D01*
X141264524Y-106718873D01*
X141315254Y-107156197D01*
X141450326Y-107575221D01*
X141621357Y-107895198D01*
X141947155Y-108063239D01*
X143330395Y-106680000D01*
X141947155Y-105296761D01*
X141621357Y-105464802D01*
X141420574Y-105856607D01*
X141300086Y-106280055D01*
X141264524Y-106718873D01*
X50499175Y-106718873D01*
X50505476Y-106641127D01*
X50454746Y-106203803D01*
X50319674Y-105784779D01*
X50148643Y-105464802D01*
X49822845Y-105296761D01*
X48439605Y-106680000D01*
X48080395Y-106680000D01*
X46697155Y-105296761D01*
X46380000Y-105460344D01*
X46380000Y-105117155D01*
X46876761Y-105117155D01*
X48260000Y-106500395D01*
X49643239Y-105117155D01*
X142126761Y-105117155D01*
X143510000Y-106500395D01*
X144893239Y-105117155D01*
X144725198Y-104791357D01*
X144333393Y-104590574D01*
X143909945Y-104470086D01*
X143471127Y-104434524D01*
X143033803Y-104485254D01*
X142614779Y-104620326D01*
X142294802Y-104791357D01*
X142126761Y-105117155D01*
X49643239Y-105117155D01*
X49475198Y-104791357D01*
X49083393Y-104590574D01*
X48659945Y-104470086D01*
X48221127Y-104434524D01*
X47783803Y-104485254D01*
X47364779Y-104620326D01*
X47044802Y-104791357D01*
X46876761Y-105117155D01*
X46380000Y-105117155D01*
X46380000Y-96768000D01*
X48830928Y-96768000D01*
X48843188Y-96892482D01*
X48879498Y-97012180D01*
X48938463Y-97122494D01*
X49017815Y-97219185D01*
X49034393Y-97232790D01*
X48997320Y-97288273D01*
X48889147Y-97549426D01*
X48834000Y-97826665D01*
X48834000Y-98109335D01*
X48889147Y-98386574D01*
X48997320Y-98647727D01*
X49154363Y-98882759D01*
X49354241Y-99082637D01*
X49589273Y-99239680D01*
X49850426Y-99347853D01*
X50127665Y-99403000D01*
X50410335Y-99403000D01*
X50687574Y-99347853D01*
X50948727Y-99239680D01*
X51183759Y-99082637D01*
X51383637Y-98882759D01*
X51540680Y-98647727D01*
X51648853Y-98386574D01*
X51704000Y-98109335D01*
X51704000Y-97826665D01*
X51648853Y-97549426D01*
X51540680Y-97288273D01*
X51503607Y-97232790D01*
X51520185Y-97219185D01*
X51599537Y-97122494D01*
X51658502Y-97012180D01*
X51694812Y-96892482D01*
X51707072Y-96768000D01*
X51704000Y-96253750D01*
X51545250Y-96095000D01*
X50396000Y-96095000D01*
X50396000Y-96115000D01*
X50142000Y-96115000D01*
X50142000Y-96095000D01*
X48992750Y-96095000D01*
X48834000Y-96253750D01*
X48830928Y-96768000D01*
X46380000Y-96768000D01*
X46380000Y-96070512D01*
X55274783Y-96070512D01*
X55316213Y-96350130D01*
X55411397Y-96616292D01*
X55476616Y-96738309D01*
X55463815Y-96748815D01*
X55384463Y-96845506D01*
X55325498Y-96955820D01*
X55289188Y-97075518D01*
X55276928Y-97200000D01*
X55276928Y-98800000D01*
X55289188Y-98924482D01*
X55325498Y-99044180D01*
X55384463Y-99154494D01*
X55463815Y-99251185D01*
X55560506Y-99330537D01*
X55670820Y-99389502D01*
X55790518Y-99425812D01*
X55915000Y-99438072D01*
X57515000Y-99438072D01*
X57639482Y-99425812D01*
X57759180Y-99389502D01*
X57869494Y-99330537D01*
X57966185Y-99251185D01*
X58045537Y-99154494D01*
X58104502Y-99044180D01*
X58140812Y-98924482D01*
X58153072Y-98800000D01*
X58153072Y-97854474D01*
X63176123Y-97854474D01*
X63219328Y-98164185D01*
X63322123Y-98459516D01*
X63408919Y-98621902D01*
X63668465Y-98711930D01*
X64590395Y-97790000D01*
X63668465Y-96868070D01*
X63408919Y-96958098D01*
X63272776Y-97239616D01*
X63194171Y-97542286D01*
X63176123Y-97854474D01*
X58153072Y-97854474D01*
X58153072Y-97200000D01*
X58140812Y-97075518D01*
X58104502Y-96955820D01*
X58045537Y-96845506D01*
X57966185Y-96748815D01*
X57953242Y-96738193D01*
X58072571Y-96486004D01*
X58141300Y-96211816D01*
X58155217Y-95929488D01*
X58113787Y-95649870D01*
X58018603Y-95383708D01*
X57951671Y-95258486D01*
X57707702Y-95186903D01*
X56894605Y-96000000D01*
X56908748Y-96014143D01*
X56729143Y-96193748D01*
X56715000Y-96179605D01*
X56700858Y-96193748D01*
X56521253Y-96014143D01*
X56535395Y-96000000D01*
X55722298Y-95186903D01*
X55478329Y-95258486D01*
X55357429Y-95513996D01*
X55288700Y-95788184D01*
X55274783Y-96070512D01*
X46380000Y-96070512D01*
X46380000Y-95168000D01*
X48830928Y-95168000D01*
X48834000Y-95682250D01*
X48992750Y-95841000D01*
X50142000Y-95841000D01*
X50142000Y-94691750D01*
X50396000Y-94691750D01*
X50396000Y-95841000D01*
X51545250Y-95841000D01*
X51704000Y-95682250D01*
X51707072Y-95168000D01*
X51694812Y-95043518D01*
X51683825Y-95007298D01*
X55901903Y-95007298D01*
X56715000Y-95820395D01*
X57528097Y-95007298D01*
X57456514Y-94763329D01*
X57201004Y-94642429D01*
X56926816Y-94573700D01*
X56644488Y-94559783D01*
X56364870Y-94601213D01*
X56098708Y-94696397D01*
X55973486Y-94763329D01*
X55901903Y-95007298D01*
X51683825Y-95007298D01*
X51658502Y-94923820D01*
X51599537Y-94813506D01*
X51520185Y-94716815D01*
X51423494Y-94637463D01*
X51313180Y-94578498D01*
X51193482Y-94542188D01*
X51069000Y-94529928D01*
X50554750Y-94533000D01*
X50396000Y-94691750D01*
X50142000Y-94691750D01*
X49983250Y-94533000D01*
X49469000Y-94529928D01*
X49344518Y-94542188D01*
X49224820Y-94578498D01*
X49114506Y-94637463D01*
X49017815Y-94716815D01*
X48938463Y-94813506D01*
X48879498Y-94923820D01*
X48843188Y-95043518D01*
X48830928Y-95168000D01*
X46380000Y-95168000D01*
X46380000Y-85306967D01*
X48634000Y-85306967D01*
X48634000Y-85629033D01*
X48696832Y-85944912D01*
X48820082Y-86242463D01*
X48999013Y-86510252D01*
X49226748Y-86737987D01*
X49494537Y-86916918D01*
X49720945Y-87010700D01*
X49589901Y-87141744D01*
X49551368Y-87173367D01*
X49519745Y-87211900D01*
X49519744Y-87211901D01*
X49425154Y-87327160D01*
X49331368Y-87502621D01*
X49273615Y-87693006D01*
X49254114Y-87891000D01*
X49259001Y-87940617D01*
X49259001Y-89176463D01*
X49226748Y-89198013D01*
X48999013Y-89425748D01*
X48820082Y-89693537D01*
X48696832Y-89991088D01*
X48634000Y-90306967D01*
X48634000Y-90629033D01*
X48696832Y-90944912D01*
X48820082Y-91242463D01*
X48999013Y-91510252D01*
X49226748Y-91737987D01*
X49494537Y-91916918D01*
X49792088Y-92040168D01*
X50107967Y-92103000D01*
X50430033Y-92103000D01*
X50745912Y-92040168D01*
X51043463Y-91916918D01*
X51311252Y-91737987D01*
X51538987Y-91510252D01*
X51717918Y-91242463D01*
X51841168Y-90944912D01*
X51904000Y-90629033D01*
X51904000Y-90306967D01*
X51841168Y-89991088D01*
X51717918Y-89693537D01*
X51538987Y-89425748D01*
X51311252Y-89198013D01*
X51279000Y-89176463D01*
X51279000Y-88309355D01*
X57565001Y-82023355D01*
X57565001Y-83964320D01*
X57476912Y-83927832D01*
X57161033Y-83865000D01*
X56838967Y-83865000D01*
X56523088Y-83927832D01*
X56225537Y-84051082D01*
X55957748Y-84230013D01*
X55730013Y-84457748D01*
X55551082Y-84725537D01*
X55427832Y-85023088D01*
X55365000Y-85338967D01*
X55365000Y-85661033D01*
X55427832Y-85976912D01*
X55551082Y-86274463D01*
X55730013Y-86542252D01*
X55957748Y-86769987D01*
X56225537Y-86948918D01*
X56523088Y-87072168D01*
X56838967Y-87135000D01*
X57161033Y-87135000D01*
X57476912Y-87072168D01*
X57565001Y-87035680D01*
X57565001Y-88506643D01*
X57199077Y-88872567D01*
X57161033Y-88865000D01*
X56838967Y-88865000D01*
X56523088Y-88927832D01*
X56225537Y-89051082D01*
X55957748Y-89230013D01*
X55730013Y-89457748D01*
X55551082Y-89725537D01*
X55427832Y-90023088D01*
X55365000Y-90338967D01*
X55365000Y-90661033D01*
X55427832Y-90976912D01*
X55551082Y-91274463D01*
X55730013Y-91542252D01*
X55957748Y-91769987D01*
X56225537Y-91948918D01*
X56523088Y-92072168D01*
X56838967Y-92135000D01*
X57161033Y-92135000D01*
X57476912Y-92072168D01*
X57774463Y-91948918D01*
X58042252Y-91769987D01*
X58269987Y-91542252D01*
X58448918Y-91274463D01*
X58572168Y-90976912D01*
X58635000Y-90661033D01*
X58635000Y-90338967D01*
X58627433Y-90300923D01*
X59254100Y-89674255D01*
X59292634Y-89642632D01*
X59418848Y-89488839D01*
X59512633Y-89313379D01*
X59549423Y-89192100D01*
X59570386Y-89122994D01*
X59589887Y-88924999D01*
X59585001Y-88875391D01*
X59585001Y-65843354D01*
X60590881Y-64837474D01*
X63201123Y-64837474D01*
X63244328Y-65147185D01*
X63347123Y-65442516D01*
X63433919Y-65604902D01*
X63693465Y-65694930D01*
X64615395Y-64773000D01*
X63693465Y-63851070D01*
X63433919Y-63941098D01*
X63297776Y-64222616D01*
X63219171Y-64525286D01*
X63201123Y-64837474D01*
X60590881Y-64837474D01*
X62418355Y-63010000D01*
X63314870Y-63010000D01*
X63390602Y-63151684D01*
X63596918Y-63403082D01*
X63848316Y-63609398D01*
X63887360Y-63630268D01*
X63873070Y-63671465D01*
X64643000Y-64441395D01*
X64643000Y-65104605D01*
X63873070Y-65874535D01*
X63885604Y-65910671D01*
X63848316Y-65930602D01*
X63596918Y-66136918D01*
X63390602Y-66388317D01*
X63237295Y-66675134D01*
X63142889Y-66986348D01*
X63119000Y-67228897D01*
X63119001Y-77551104D01*
X63142890Y-77793653D01*
X63237296Y-78104867D01*
X63390603Y-78391684D01*
X63596919Y-78643082D01*
X63724943Y-78748148D01*
X63647727Y-78811518D01*
X63441411Y-79062916D01*
X63351562Y-79231012D01*
X63350476Y-79232637D01*
X63349728Y-79234442D01*
X63288104Y-79349733D01*
X63250156Y-79474831D01*
X63230807Y-79521543D01*
X63220943Y-79571133D01*
X63193698Y-79660947D01*
X63184499Y-79754351D01*
X63169800Y-79828245D01*
X63169800Y-79903588D01*
X63161821Y-79984600D01*
X63169800Y-80065612D01*
X63169800Y-80140955D01*
X63184499Y-80214849D01*
X63193698Y-80308253D01*
X63220943Y-80398067D01*
X63230807Y-80447657D01*
X63250156Y-80494369D01*
X63288104Y-80619467D01*
X63349728Y-80734758D01*
X63350476Y-80736563D01*
X63351562Y-80738188D01*
X63441411Y-80906284D01*
X63647727Y-81157682D01*
X63734068Y-81228540D01*
X63584218Y-81351518D01*
X63377902Y-81602916D01*
X63224595Y-81889733D01*
X63130189Y-82200947D01*
X63098312Y-82524600D01*
X63130189Y-82848253D01*
X63224595Y-83159467D01*
X63377902Y-83446284D01*
X63584218Y-83697682D01*
X63724139Y-83812511D01*
X63596918Y-83916918D01*
X63390602Y-84168317D01*
X63237295Y-84455134D01*
X63142889Y-84766348D01*
X63119000Y-85008897D01*
X63119001Y-95331104D01*
X63142890Y-95573653D01*
X63237296Y-95884867D01*
X63390603Y-96171684D01*
X63596919Y-96423082D01*
X63848317Y-96629398D01*
X63865393Y-96638525D01*
X63848070Y-96688465D01*
X64643000Y-97483395D01*
X64643000Y-98096605D01*
X63848070Y-98891535D01*
X63865392Y-98941474D01*
X63848316Y-98950602D01*
X63596918Y-99156918D01*
X63390602Y-99408316D01*
X63237295Y-99695133D01*
X63142889Y-100006347D01*
X63111012Y-100330000D01*
X63142889Y-100653653D01*
X63237295Y-100964867D01*
X63390602Y-101251684D01*
X63596918Y-101503082D01*
X63715014Y-101600000D01*
X63596918Y-101696918D01*
X63390602Y-101948316D01*
X63237295Y-102235133D01*
X63142889Y-102546347D01*
X63111012Y-102870000D01*
X63142889Y-103193653D01*
X63237295Y-103504867D01*
X63390602Y-103791684D01*
X63596918Y-104043082D01*
X63848316Y-104249398D01*
X64135133Y-104402705D01*
X64446347Y-104497111D01*
X64688896Y-104521000D01*
X138511104Y-104521000D01*
X138753653Y-104497111D01*
X139064867Y-104402705D01*
X139318753Y-104267000D01*
X139700000Y-104267000D01*
X139724776Y-104264560D01*
X139748601Y-104257333D01*
X139770557Y-104245597D01*
X139789803Y-104229803D01*
X139805597Y-104210557D01*
X139817333Y-104188601D01*
X139824560Y-104164776D01*
X139827000Y-104140000D01*
X139827000Y-103758753D01*
X139962705Y-103504867D01*
X140057111Y-103193653D01*
X140088988Y-102870000D01*
X140057111Y-102546347D01*
X139962705Y-102235133D01*
X139827000Y-101981247D01*
X139827000Y-101981000D01*
X141051104Y-101981000D01*
X141293653Y-101957111D01*
X141604867Y-101862705D01*
X141891684Y-101709398D01*
X142143082Y-101503082D01*
X142349398Y-101251684D01*
X142502705Y-100964867D01*
X142597111Y-100653653D01*
X142628988Y-100330000D01*
X142597111Y-100006347D01*
X142502705Y-99695133D01*
X142349398Y-99408316D01*
X142143082Y-99156918D01*
X141891684Y-98950602D01*
X141874608Y-98941474D01*
X141891930Y-98891535D01*
X141097000Y-98096605D01*
X141097000Y-97790000D01*
X141149605Y-97790000D01*
X142071535Y-98711930D01*
X142331081Y-98621902D01*
X142467224Y-98340384D01*
X142545829Y-98037714D01*
X142563877Y-97725526D01*
X142520672Y-97415815D01*
X142417877Y-97120484D01*
X142331081Y-96958098D01*
X142071535Y-96868070D01*
X141149605Y-97790000D01*
X141097000Y-97790000D01*
X141097000Y-97483395D01*
X141891930Y-96688465D01*
X141874608Y-96638526D01*
X141891684Y-96629398D01*
X142143082Y-96423082D01*
X142349398Y-96171684D01*
X142502705Y-95884867D01*
X142597111Y-95573653D01*
X142621000Y-95331104D01*
X142621000Y-85008896D01*
X142597111Y-84766347D01*
X142502705Y-84455133D01*
X142349398Y-84168316D01*
X142143082Y-83916918D01*
X142003161Y-83802089D01*
X142130382Y-83697682D01*
X142336698Y-83446284D01*
X142490005Y-83159467D01*
X142584411Y-82848253D01*
X142616288Y-82524600D01*
X142584411Y-82200947D01*
X142490005Y-81889733D01*
X142336698Y-81602916D01*
X142130382Y-81351518D01*
X142012286Y-81254600D01*
X142130382Y-81157682D01*
X142336698Y-80906284D01*
X142490005Y-80619467D01*
X142584411Y-80308253D01*
X142616288Y-79984600D01*
X142584411Y-79660947D01*
X142490005Y-79349733D01*
X142336698Y-79062916D01*
X142130382Y-78811518D01*
X142034112Y-78732511D01*
X142143082Y-78643082D01*
X142349398Y-78391684D01*
X142502705Y-78104867D01*
X142597111Y-77793653D01*
X142621000Y-77551104D01*
X142621000Y-67228896D01*
X142597111Y-66986347D01*
X142502705Y-66675133D01*
X142349398Y-66388316D01*
X142143082Y-66136918D01*
X141896197Y-65934307D01*
X141916930Y-65874535D01*
X141097000Y-65054605D01*
X141097000Y-64773000D01*
X141174605Y-64773000D01*
X142096535Y-65694930D01*
X142356081Y-65604902D01*
X142492224Y-65323384D01*
X142570829Y-65020714D01*
X142588877Y-64708526D01*
X142545672Y-64398815D01*
X142442877Y-64103484D01*
X142356081Y-63941098D01*
X142096535Y-63851070D01*
X141174605Y-64773000D01*
X141097000Y-64773000D01*
X141097000Y-64491395D01*
X141916930Y-63671465D01*
X141894577Y-63607023D01*
X142143082Y-63403082D01*
X142349398Y-63151684D01*
X142502705Y-62864867D01*
X142597111Y-62553653D01*
X142628988Y-62230000D01*
X142597111Y-61906347D01*
X142502705Y-61595133D01*
X142349398Y-61308316D01*
X142143082Y-61056918D01*
X141891684Y-60850602D01*
X141604867Y-60697295D01*
X141293653Y-60602889D01*
X141051104Y-60579000D01*
X139827000Y-60579000D01*
X139827000Y-60578753D01*
X139962705Y-60324867D01*
X140057111Y-60013653D01*
X140088988Y-59690000D01*
X140057111Y-59366347D01*
X139962705Y-59055133D01*
X139827000Y-58801247D01*
X139827000Y-58420000D01*
X139824560Y-58395224D01*
X139817333Y-58371399D01*
X139805597Y-58349443D01*
X139789803Y-58330197D01*
X139770557Y-58314403D01*
X139748601Y-58302667D01*
X139724776Y-58295440D01*
X139700000Y-58293000D01*
X139318753Y-58293000D01*
X139064867Y-58157295D01*
X138753653Y-58062889D01*
X138511104Y-58039000D01*
X64688896Y-58039000D01*
X64446347Y-58062889D01*
X64135133Y-58157295D01*
X63848316Y-58310602D01*
X63596918Y-58516918D01*
X63463081Y-58680000D01*
X61359604Y-58680000D01*
X61309999Y-58675114D01*
X61260394Y-58680000D01*
X61260392Y-58680000D01*
X61112006Y-58694615D01*
X60921620Y-58752368D01*
X60746160Y-58846153D01*
X60592367Y-58972367D01*
X60560744Y-59010900D01*
X56320901Y-63250744D01*
X56282368Y-63282367D01*
X56250745Y-63320900D01*
X56250744Y-63320901D01*
X56156154Y-63436160D01*
X56062368Y-63611621D01*
X56004615Y-63802006D01*
X55985114Y-64000000D01*
X55990001Y-64049618D01*
X55990001Y-65336002D01*
X55949039Y-65274698D01*
X55740302Y-65065961D01*
X55494853Y-64901958D01*
X55222125Y-64788990D01*
X54932599Y-64731400D01*
X54637401Y-64731400D01*
X54347875Y-64788990D01*
X54075147Y-64901958D01*
X53829698Y-65065961D01*
X53620961Y-65274698D01*
X53515000Y-65433281D01*
X53409039Y-65274698D01*
X53200302Y-65065961D01*
X52954853Y-64901958D01*
X52682125Y-64788990D01*
X52392599Y-64731400D01*
X52097401Y-64731400D01*
X51807875Y-64788990D01*
X51535147Y-64901958D01*
X51289698Y-65065961D01*
X51080961Y-65274698D01*
X50916958Y-65520147D01*
X50803990Y-65792875D01*
X50746400Y-66082401D01*
X50746400Y-66377599D01*
X50803990Y-66667125D01*
X50916958Y-66939853D01*
X51080961Y-67185302D01*
X51289698Y-67394039D01*
X51455103Y-67504559D01*
X51356512Y-67563183D01*
X51138146Y-67759707D01*
X50962316Y-67995056D01*
X50835778Y-68260186D01*
X50790042Y-68410974D01*
X50911183Y-68643000D01*
X52118000Y-68643000D01*
X52118000Y-68623000D01*
X52372000Y-68623000D01*
X52372000Y-68643000D01*
X54658000Y-68643000D01*
X54658000Y-68623000D01*
X54912000Y-68623000D01*
X54912000Y-68643000D01*
X54932000Y-68643000D01*
X54932000Y-68897000D01*
X54912000Y-68897000D01*
X54912000Y-71183000D01*
X54932000Y-71183000D01*
X54932000Y-71437000D01*
X54912000Y-71437000D01*
X54912000Y-73723000D01*
X54932000Y-73723000D01*
X54932000Y-73977000D01*
X54912000Y-73977000D01*
X54912000Y-73997000D01*
X54658000Y-73997000D01*
X54658000Y-73977000D01*
X52372000Y-73977000D01*
X52372000Y-73997000D01*
X52118000Y-73997000D01*
X52118000Y-73977000D01*
X50911183Y-73977000D01*
X50790042Y-74209026D01*
X50835778Y-74359814D01*
X50962316Y-74624944D01*
X51138146Y-74860293D01*
X51356512Y-75056817D01*
X51455103Y-75115441D01*
X51289698Y-75225961D01*
X51080961Y-75434698D01*
X50916958Y-75680147D01*
X50803990Y-75952875D01*
X50746400Y-76242401D01*
X50746400Y-76537599D01*
X50803990Y-76827125D01*
X50916958Y-77099853D01*
X51080961Y-77345302D01*
X51289698Y-77554039D01*
X51535147Y-77718042D01*
X51807875Y-77831010D01*
X52097401Y-77888600D01*
X52392599Y-77888600D01*
X52682125Y-77831010D01*
X52954853Y-77718042D01*
X53200302Y-77554039D01*
X53314364Y-77439977D01*
X53331898Y-77497780D01*
X53390863Y-77608094D01*
X53470215Y-77704785D01*
X53566906Y-77784137D01*
X53677220Y-77843102D01*
X53796918Y-77879412D01*
X53921400Y-77891672D01*
X55648600Y-77891672D01*
X55773082Y-77879412D01*
X55892780Y-77843102D01*
X55990000Y-77791136D01*
X55990000Y-80741644D01*
X51811700Y-84919945D01*
X51717918Y-84693537D01*
X51538987Y-84425748D01*
X51311252Y-84198013D01*
X51043463Y-84019082D01*
X50745912Y-83895832D01*
X50430033Y-83833000D01*
X50107967Y-83833000D01*
X49792088Y-83895832D01*
X49494537Y-84019082D01*
X49226748Y-84198013D01*
X48999013Y-84425748D01*
X48820082Y-84693537D01*
X48696832Y-84991088D01*
X48634000Y-85306967D01*
X46380000Y-85306967D01*
X46380000Y-71669026D01*
X50790042Y-71669026D01*
X50835778Y-71819814D01*
X50962316Y-72084944D01*
X51138146Y-72320293D01*
X51356512Y-72516817D01*
X51462770Y-72580000D01*
X51356512Y-72643183D01*
X51138146Y-72839707D01*
X50962316Y-73075056D01*
X50835778Y-73340186D01*
X50790042Y-73490974D01*
X50911183Y-73723000D01*
X52118000Y-73723000D01*
X52118000Y-71437000D01*
X52372000Y-71437000D01*
X52372000Y-73723000D01*
X54658000Y-73723000D01*
X54658000Y-71437000D01*
X52372000Y-71437000D01*
X52118000Y-71437000D01*
X50911183Y-71437000D01*
X50790042Y-71669026D01*
X46380000Y-71669026D01*
X46380000Y-69129026D01*
X50790042Y-69129026D01*
X50835778Y-69279814D01*
X50962316Y-69544944D01*
X51138146Y-69780293D01*
X51356512Y-69976817D01*
X51462770Y-70040000D01*
X51356512Y-70103183D01*
X51138146Y-70299707D01*
X50962316Y-70535056D01*
X50835778Y-70800186D01*
X50790042Y-70950974D01*
X50911183Y-71183000D01*
X52118000Y-71183000D01*
X52118000Y-68897000D01*
X52372000Y-68897000D01*
X52372000Y-71183000D01*
X54658000Y-71183000D01*
X54658000Y-68897000D01*
X52372000Y-68897000D01*
X52118000Y-68897000D01*
X50911183Y-68897000D01*
X50790042Y-69129026D01*
X46380000Y-69129026D01*
X46380000Y-57442845D01*
X46876761Y-57442845D01*
X47044802Y-57768643D01*
X47436607Y-57969426D01*
X47860055Y-58089914D01*
X48298873Y-58125476D01*
X48736197Y-58074746D01*
X49155221Y-57939674D01*
X49475198Y-57768643D01*
X49643239Y-57442845D01*
X142126761Y-57442845D01*
X142294802Y-57768643D01*
X142686607Y-57969426D01*
X143110055Y-58089914D01*
X143548873Y-58125476D01*
X143986197Y-58074746D01*
X144405221Y-57939674D01*
X144725198Y-57768643D01*
X144893239Y-57442845D01*
X143510000Y-56059605D01*
X142126761Y-57442845D01*
X49643239Y-57442845D01*
X48260000Y-56059605D01*
X46876761Y-57442845D01*
X46380000Y-57442845D01*
X46380000Y-57099656D01*
X46697155Y-57263239D01*
X48080395Y-55880000D01*
X48439605Y-55880000D01*
X49822845Y-57263239D01*
X50148643Y-57095198D01*
X50349426Y-56703393D01*
X50469914Y-56279945D01*
X50499175Y-55918873D01*
X141264524Y-55918873D01*
X141315254Y-56356197D01*
X141450326Y-56775221D01*
X141621357Y-57095198D01*
X141947155Y-57263239D01*
X143330395Y-55880000D01*
X141947155Y-54496761D01*
X141621357Y-54664802D01*
X141420574Y-55056607D01*
X141300086Y-55480055D01*
X141264524Y-55918873D01*
X50499175Y-55918873D01*
X50505476Y-55841127D01*
X50454746Y-55403803D01*
X50319674Y-54984779D01*
X50148643Y-54664802D01*
X49822845Y-54496761D01*
X48439605Y-55880000D01*
X48080395Y-55880000D01*
X46697155Y-54496761D01*
X46380000Y-54660344D01*
X46380000Y-54000000D01*
X47040344Y-54000000D01*
X46876761Y-54317155D01*
M02*
