G04 #@! TF.GenerationSoftware,KiCad,Pcbnew,5.1.6-c6e7f7d~87~ubuntu20.04.1*
G04 #@! TF.CreationDate,2020-10-18T20:32:00-04:00*
G04 #@! TF.ProjectId,kosmo_proto,6b6f736d-6f5f-4707-926f-746f2e6b6963,rev?*
G04 #@! TF.SameCoordinates,Original*
G04 #@! TF.FileFunction,Copper,L1,Top*
G04 #@! TF.FilePolarity,Positive*
%FSLAX46Y46*%
G04 Gerber Fmt 4.6, Leading zero omitted, Abs format (unit mm)*
G04 Created by KiCad (PCBNEW 5.1.6-c6e7f7d~87~ubuntu20.04.1) date 2020-10-18 20:32:00*
%MOMM*%
%LPD*%
G01*
G04 APERTURE LIST*
G04 #@! TA.AperFunction,ComponentPad*
%ADD10O,2.200000X2.200000*%
G04 #@! TD*
G04 #@! TA.AperFunction,ComponentPad*
%ADD11R,2.200000X2.200000*%
G04 #@! TD*
G04 #@! TA.AperFunction,ComponentPad*
%ADD12O,1.727200X1.727200*%
G04 #@! TD*
G04 #@! TA.AperFunction,ComponentPad*
%ADD13R,1.727200X1.727200*%
G04 #@! TD*
G04 #@! TA.AperFunction,ComponentPad*
%ADD14C,1.905000*%
G04 #@! TD*
G04 #@! TA.AperFunction,ComponentPad*
%ADD15C,1.600000*%
G04 #@! TD*
G04 #@! TA.AperFunction,ComponentPad*
%ADD16R,1.600000X1.600000*%
G04 #@! TD*
G04 #@! TA.AperFunction,Conductor*
%ADD17C,0.750000*%
G04 #@! TD*
G04 #@! TA.AperFunction,Conductor*
%ADD18C,0.254000*%
G04 #@! TD*
G04 APERTURE END LIST*
D10*
X56750000Y-84130000D03*
D11*
X56750000Y-91750000D03*
D10*
X50250000Y-91750000D03*
D11*
X50250000Y-84130000D03*
D12*
X52210000Y-65840000D03*
X54750000Y-65840000D03*
X52210000Y-68380000D03*
X54750000Y-68380000D03*
X52210000Y-70920000D03*
X54750000Y-70920000D03*
X52210000Y-73460000D03*
X54750000Y-73460000D03*
X52210000Y-76000000D03*
D13*
X54750000Y-76000000D03*
D14*
X74917300Y-59664600D03*
X69837300Y-97764600D03*
X74917300Y-102844600D03*
X74917300Y-100304600D03*
X72377300Y-102844600D03*
X74917300Y-97764600D03*
X79997300Y-102844600D03*
X77457300Y-62204600D03*
X67297300Y-97764600D03*
X79997300Y-82524600D03*
X77457300Y-90144600D03*
X77457300Y-74904600D03*
X74917300Y-72364600D03*
X77457300Y-87604600D03*
X79997300Y-92684600D03*
X74917300Y-74904600D03*
X79997300Y-79984600D03*
X74917300Y-79984600D03*
X74917300Y-82524600D03*
X77457300Y-67284600D03*
X77457300Y-69824600D03*
X77457300Y-82524600D03*
X74917300Y-77444600D03*
X80010000Y-95250000D03*
X77457300Y-77444600D03*
X79997300Y-90144600D03*
X77457300Y-85064600D03*
X74917300Y-67284600D03*
X79997300Y-77444600D03*
X74917300Y-92684600D03*
X79997300Y-74904600D03*
X77457300Y-92684600D03*
X77470000Y-95250000D03*
X74917300Y-85064600D03*
X77457300Y-79984600D03*
X79997300Y-87604600D03*
X74917300Y-69824600D03*
X79997300Y-69824600D03*
X74917300Y-87604600D03*
X74930000Y-95250000D03*
X72377300Y-62204600D03*
X67297300Y-59664600D03*
X79997300Y-59664600D03*
X67297300Y-102844600D03*
X72377300Y-100304600D03*
X67297300Y-64744600D03*
X67297300Y-100304600D03*
X69837300Y-102844600D03*
X79997300Y-64744600D03*
X77457300Y-97764600D03*
X77457300Y-59664600D03*
X69837300Y-100304600D03*
X69837300Y-64744600D03*
X69837300Y-69824600D03*
X64757300Y-67284600D03*
X79997300Y-85064600D03*
X79997300Y-67284600D03*
X74917300Y-90144600D03*
X77457300Y-72364600D03*
X79997300Y-72364600D03*
X72377300Y-82524600D03*
X72377300Y-92684600D03*
X72377300Y-79984600D03*
X72390000Y-95250000D03*
X72377300Y-90144600D03*
X72377300Y-77444600D03*
X72377300Y-74904600D03*
X72377300Y-87604600D03*
X72377300Y-69824600D03*
X72377300Y-85064600D03*
X72377300Y-67284600D03*
X72377300Y-72364600D03*
X69837300Y-90144600D03*
X69837300Y-74904600D03*
X69837300Y-87604600D03*
X69837300Y-67284600D03*
X69837300Y-82524600D03*
X69837300Y-77444600D03*
X69837300Y-85064600D03*
X69837300Y-92684600D03*
X69850000Y-95250000D03*
X69837300Y-79984600D03*
X69837300Y-72364600D03*
X67297300Y-72364600D03*
X67297300Y-74904600D03*
X67297300Y-79984600D03*
X67297300Y-82524600D03*
X67297300Y-77444600D03*
X67297300Y-67284600D03*
X67297300Y-92684600D03*
X67297300Y-85064600D03*
X67297300Y-69824600D03*
X67297300Y-87604600D03*
X67310000Y-95250000D03*
X67297300Y-90144600D03*
X64757300Y-69824600D03*
X64757300Y-72364600D03*
X64757300Y-74904600D03*
X64757300Y-77444600D03*
X64757300Y-79984600D03*
X64757300Y-82524600D03*
X64757300Y-85064600D03*
X64757300Y-87604600D03*
X64757300Y-90144600D03*
X64757300Y-92684600D03*
X64770000Y-59690000D03*
X64770000Y-102870000D03*
X64770000Y-64770000D03*
X64770000Y-97790000D03*
X64770000Y-62230000D03*
X64770000Y-100330000D03*
X64770000Y-95250000D03*
X69837300Y-62204600D03*
X77457300Y-102844600D03*
X74917300Y-62204600D03*
X79997300Y-97764600D03*
X79997300Y-100304600D03*
X72377300Y-59664600D03*
D15*
X56715000Y-98000000D03*
D16*
X56715000Y-96000000D03*
D14*
X77457300Y-64744600D03*
D15*
X50269000Y-96000000D03*
D16*
X50269000Y-98000000D03*
D14*
X67297300Y-62204600D03*
X79997300Y-62204600D03*
X74917300Y-64744600D03*
X69837300Y-59664600D03*
X72377300Y-64744600D03*
X72377300Y-97764600D03*
X77457300Y-100304600D03*
X110477300Y-102844600D03*
X125717300Y-102844600D03*
X138417300Y-102844600D03*
X128257300Y-102844600D03*
X133337300Y-102844600D03*
X85077300Y-102844600D03*
X92697300Y-102844600D03*
X97777300Y-102844600D03*
X100317300Y-102844600D03*
X102857300Y-102844600D03*
X95237300Y-102844600D03*
X118097300Y-102844600D03*
X113017300Y-102844600D03*
X115557300Y-102844600D03*
X130797300Y-102844600D03*
X105397300Y-102844600D03*
X123177300Y-102844600D03*
X82537300Y-102844600D03*
X90157300Y-102844600D03*
X87617300Y-102844600D03*
X135877300Y-102844600D03*
X120637300Y-102844600D03*
X107937300Y-102844600D03*
X110477300Y-100304600D03*
X125717300Y-100304600D03*
X138417300Y-100304600D03*
X128257300Y-100304600D03*
X133337300Y-100304600D03*
X140957300Y-100304600D03*
X85077300Y-100304600D03*
X92697300Y-100304600D03*
X97777300Y-100304600D03*
X100317300Y-100304600D03*
X102857300Y-100304600D03*
X95237300Y-100304600D03*
X118097300Y-100304600D03*
X113017300Y-100304600D03*
X115557300Y-100304600D03*
X130797300Y-100304600D03*
X105397300Y-100304600D03*
X123177300Y-100304600D03*
X82537300Y-100304600D03*
X90157300Y-100304600D03*
X87617300Y-100304600D03*
X135877300Y-100304600D03*
X120637300Y-100304600D03*
X107937300Y-100304600D03*
X110477300Y-97764600D03*
X125717300Y-97764600D03*
X138417300Y-97764600D03*
X128257300Y-97764600D03*
X133337300Y-97764600D03*
X140957300Y-97764600D03*
X85077300Y-97764600D03*
X92697300Y-97764600D03*
X97777300Y-97764600D03*
X100317300Y-97764600D03*
X102857300Y-97764600D03*
X95237300Y-97764600D03*
X118097300Y-97764600D03*
X113017300Y-97764600D03*
X115557300Y-97764600D03*
X130797300Y-97764600D03*
X105397300Y-97764600D03*
X123177300Y-97764600D03*
X82537300Y-97764600D03*
X90157300Y-97764600D03*
X87617300Y-97764600D03*
X135877300Y-97764600D03*
X120637300Y-97764600D03*
X107937300Y-97764600D03*
X110477300Y-59664600D03*
X125717300Y-59664600D03*
X138417300Y-59664600D03*
X128257300Y-59664600D03*
X133337300Y-59664600D03*
X85077300Y-59664600D03*
X92697300Y-59664600D03*
X97777300Y-59664600D03*
X100317300Y-59664600D03*
X102857300Y-59664600D03*
X95237300Y-59664600D03*
X118097300Y-59664600D03*
X113017300Y-59664600D03*
X115557300Y-59664600D03*
X130797300Y-59664600D03*
X105397300Y-59664600D03*
X123177300Y-59664600D03*
X82537300Y-59664600D03*
X90157300Y-59664600D03*
X87617300Y-59664600D03*
X135877300Y-59664600D03*
X120637300Y-59664600D03*
X107937300Y-59664600D03*
X110477300Y-62204600D03*
X125717300Y-62204600D03*
X138417300Y-62204600D03*
X128257300Y-62204600D03*
X133337300Y-62204600D03*
X140957300Y-62204600D03*
X85077300Y-62204600D03*
X92697300Y-62204600D03*
X97777300Y-62204600D03*
X100317300Y-62204600D03*
X102857300Y-62204600D03*
X95237300Y-62204600D03*
X118097300Y-62204600D03*
X113017300Y-62204600D03*
X115557300Y-62204600D03*
X130797300Y-62204600D03*
X105397300Y-62204600D03*
X123177300Y-62204600D03*
X82537300Y-62204600D03*
X90157300Y-62204600D03*
X87617300Y-62204600D03*
X135877300Y-62204600D03*
X120637300Y-62204600D03*
X107937300Y-62204600D03*
X110477300Y-64744600D03*
X125717300Y-64744600D03*
X138417300Y-64744600D03*
X128257300Y-64744600D03*
X133337300Y-64744600D03*
X140957300Y-64744600D03*
X85077300Y-64744600D03*
X92697300Y-64744600D03*
X97777300Y-64744600D03*
X100317300Y-64744600D03*
X102857300Y-64744600D03*
X95237300Y-64744600D03*
X118097300Y-64744600D03*
X113017300Y-64744600D03*
X115557300Y-64744600D03*
X130797300Y-64744600D03*
X105397300Y-64744600D03*
X123177300Y-64744600D03*
X82537300Y-64744600D03*
X90157300Y-64744600D03*
X87617300Y-64744600D03*
X135877300Y-64744600D03*
X120637300Y-64744600D03*
X107937300Y-64744600D03*
X140957300Y-82524600D03*
X140957300Y-79984600D03*
X140957300Y-87604600D03*
X140957300Y-92684600D03*
X140957300Y-90144600D03*
X140957300Y-95224600D03*
X140957300Y-85064600D03*
X140957300Y-67284600D03*
X140957300Y-77444600D03*
X140957300Y-69824600D03*
X140957300Y-72364600D03*
X140957300Y-74904600D03*
X110477300Y-82524600D03*
X130797300Y-74904600D03*
X107937300Y-90144600D03*
X130797300Y-77444600D03*
X120637300Y-90144600D03*
X120637300Y-72364600D03*
X128257300Y-72364600D03*
X133337300Y-85064600D03*
X125717300Y-69824600D03*
X107937300Y-74904600D03*
X105397300Y-72364600D03*
X135877300Y-77444600D03*
X107937300Y-87604600D03*
X135877300Y-72364600D03*
X138417300Y-87604600D03*
X118097300Y-90144600D03*
X138417300Y-77444600D03*
X125717300Y-82524600D03*
X110477300Y-92684600D03*
X105397300Y-74904600D03*
X133337300Y-72364600D03*
X135877300Y-82524600D03*
X128257300Y-82524600D03*
X123177300Y-87604600D03*
X115557300Y-77444600D03*
X113017300Y-79984600D03*
X135877300Y-67284600D03*
X118097300Y-92684600D03*
X123177300Y-79984600D03*
X138417300Y-79984600D03*
X125717300Y-90144600D03*
X123177300Y-67284600D03*
X125717300Y-79984600D03*
X118097300Y-87604600D03*
X118097300Y-74904600D03*
X133337300Y-79984600D03*
X130797300Y-90144600D03*
X113030000Y-95250000D03*
X120637300Y-69824600D03*
X133337300Y-82524600D03*
X115557300Y-79984600D03*
X113017300Y-67284600D03*
X133337300Y-69824600D03*
X128257300Y-87604600D03*
X125717300Y-85064600D03*
X110477300Y-79984600D03*
X115570000Y-95250000D03*
X113017300Y-90144600D03*
X115557300Y-82524600D03*
X105397300Y-79984600D03*
X138417300Y-67284600D03*
X105397300Y-82524600D03*
X130797300Y-85064600D03*
X123190000Y-95250000D03*
X118097300Y-82524600D03*
X107937300Y-67284600D03*
X123177300Y-77444600D03*
X125730000Y-95250000D03*
X138417300Y-85064600D03*
X113017300Y-87604600D03*
X130797300Y-79984600D03*
X135877300Y-90144600D03*
X115557300Y-90144600D03*
X118097300Y-79984600D03*
X123177300Y-90144600D03*
X138417300Y-72364600D03*
X113017300Y-92684600D03*
X118097300Y-67284600D03*
X138417300Y-74904600D03*
X107937300Y-69824600D03*
X107937300Y-82524600D03*
X128257300Y-79984600D03*
X125717300Y-74904600D03*
X105397300Y-77444600D03*
X120637300Y-92684600D03*
X110490000Y-95250000D03*
X133337300Y-90144600D03*
X130797300Y-69824600D03*
X107937300Y-77444600D03*
X133337300Y-92684600D03*
X113017300Y-74904600D03*
X123177300Y-82524600D03*
X123177300Y-72364600D03*
X130797300Y-82524600D03*
X130797300Y-72364600D03*
X138430000Y-95250000D03*
X110477300Y-90144600D03*
X130797300Y-87604600D03*
X130810000Y-95250000D03*
X113017300Y-69824600D03*
X115557300Y-69824600D03*
X107937300Y-85064600D03*
X133337300Y-74904600D03*
X105397300Y-67284600D03*
X110477300Y-77444600D03*
X138417300Y-82524600D03*
X125717300Y-87604600D03*
X105397300Y-92684600D03*
X113017300Y-72364600D03*
X138417300Y-90144600D03*
X110477300Y-74904600D03*
X107937300Y-92684600D03*
X128257300Y-90144600D03*
X115557300Y-74904600D03*
X125717300Y-72364600D03*
X113017300Y-77444600D03*
X138417300Y-69824600D03*
X120637300Y-74904600D03*
X107950000Y-95250000D03*
X105397300Y-85064600D03*
X128257300Y-77444600D03*
X135877300Y-69824600D03*
X123177300Y-85064600D03*
X118097300Y-85064600D03*
X128257300Y-85064600D03*
X113017300Y-82524600D03*
X107937300Y-79984600D03*
X123177300Y-69824600D03*
X128270000Y-95250000D03*
X110477300Y-87604600D03*
X133350000Y-95250000D03*
X105397300Y-69824600D03*
X110477300Y-69824600D03*
X115557300Y-72364600D03*
X115557300Y-92684600D03*
X135877300Y-74904600D03*
X115557300Y-87604600D03*
X123177300Y-92684600D03*
X128257300Y-67284600D03*
X105397300Y-87604600D03*
X128257300Y-69824600D03*
X130797300Y-67284600D03*
X118097300Y-72364600D03*
X115557300Y-85064600D03*
X120637300Y-77444600D03*
X125717300Y-92684600D03*
X125717300Y-77444600D03*
X118097300Y-69824600D03*
X135877300Y-92684600D03*
X118097300Y-77444600D03*
X105410000Y-95250000D03*
X120637300Y-82524600D03*
X110477300Y-85064600D03*
X135877300Y-85064600D03*
X120637300Y-79984600D03*
X128257300Y-92684600D03*
X110477300Y-67284600D03*
X118110000Y-95250000D03*
X123177300Y-74904600D03*
X125717300Y-67284600D03*
X133337300Y-87604600D03*
X120637300Y-85064600D03*
X130797300Y-92684600D03*
X105397300Y-90144600D03*
X120650000Y-95250000D03*
X113017300Y-85064600D03*
X135877300Y-79984600D03*
X133337300Y-67284600D03*
X135877300Y-87604600D03*
X133337300Y-77444600D03*
X138417300Y-92684600D03*
X120637300Y-67284600D03*
X107937300Y-72364600D03*
X120637300Y-87604600D03*
X128257300Y-74904600D03*
X135890000Y-95250000D03*
X115557300Y-67284600D03*
X110477300Y-72364600D03*
X100317300Y-74904600D03*
X100317300Y-77444600D03*
X97777300Y-72364600D03*
X102857300Y-85064600D03*
X95237300Y-69824600D03*
X95237300Y-82524600D03*
X102857300Y-72364600D03*
X97777300Y-82524600D03*
X95237300Y-90144600D03*
X95237300Y-79984600D03*
X102857300Y-79984600D03*
X100317300Y-90144600D03*
X102857300Y-82524600D03*
X102857300Y-69824600D03*
X97777300Y-87604600D03*
X95237300Y-85064600D03*
X100317300Y-85064600D03*
X95250000Y-95250000D03*
X100317300Y-79984600D03*
X97777300Y-79984600D03*
X95237300Y-74904600D03*
X102857300Y-90144600D03*
X100317300Y-69824600D03*
X102857300Y-92684600D03*
X100317300Y-82524600D03*
X100317300Y-72364600D03*
X100317300Y-87604600D03*
X100330000Y-95250000D03*
X102857300Y-74904600D03*
X95237300Y-87604600D03*
X97777300Y-90144600D03*
X95237300Y-72364600D03*
X97777300Y-77444600D03*
X97777300Y-85064600D03*
X97790000Y-95250000D03*
X102870000Y-95250000D03*
X97777300Y-67284600D03*
X97777300Y-69824600D03*
X100317300Y-67284600D03*
X95237300Y-92684600D03*
X95237300Y-77444600D03*
X97777300Y-92684600D03*
X95237300Y-67284600D03*
X102857300Y-87604600D03*
X100317300Y-92684600D03*
X102857300Y-67284600D03*
X102857300Y-77444600D03*
X97777300Y-74904600D03*
X90157300Y-90144600D03*
X90157300Y-72364600D03*
X87617300Y-90144600D03*
X92697300Y-87604600D03*
X85077300Y-77444600D03*
X87617300Y-92684600D03*
X92697300Y-79984600D03*
X92697300Y-67284600D03*
X87617300Y-87604600D03*
X87617300Y-74904600D03*
X90157300Y-69824600D03*
X85077300Y-79984600D03*
X85090000Y-95250000D03*
X85077300Y-82524600D03*
X92710000Y-95250000D03*
X87617300Y-82524600D03*
X92697300Y-77444600D03*
X85077300Y-90144600D03*
X87617300Y-79984600D03*
X92697300Y-90144600D03*
X87617300Y-67284600D03*
X90157300Y-92684600D03*
X92697300Y-82524600D03*
X92697300Y-72364600D03*
X85077300Y-69824600D03*
X85077300Y-74904600D03*
X90157300Y-74904600D03*
X92697300Y-85064600D03*
X87617300Y-85064600D03*
X92697300Y-69824600D03*
X85077300Y-72364600D03*
X85077300Y-92684600D03*
X85077300Y-87604600D03*
X92697300Y-92684600D03*
X87617300Y-72364600D03*
X85077300Y-85064600D03*
X90157300Y-77444600D03*
X87617300Y-69824600D03*
X87617300Y-77444600D03*
X90157300Y-82524600D03*
X90157300Y-79984600D03*
X87630000Y-95250000D03*
X92697300Y-74904600D03*
X90157300Y-85064600D03*
X90170000Y-95250000D03*
X90157300Y-67284600D03*
X90157300Y-87604600D03*
X85077300Y-67284600D03*
X82537300Y-79984600D03*
X82550000Y-95250000D03*
X82537300Y-67284600D03*
X82537300Y-90144600D03*
X82537300Y-87604600D03*
X82537300Y-92684600D03*
X82537300Y-74904600D03*
X82537300Y-69824600D03*
X82537300Y-72364600D03*
X82537300Y-77444600D03*
X82537300Y-82524600D03*
X82537300Y-85064600D03*
D17*
X61045000Y-100330000D02*
X56715000Y-96000000D01*
X64770000Y-100330000D02*
X61045000Y-100330000D01*
X56715000Y-91785000D02*
X56750000Y-91750000D01*
X56715000Y-96000000D02*
X56715000Y-91785000D01*
X50250000Y-95981000D02*
X50269000Y-96000000D01*
X50250000Y-91750000D02*
X50250000Y-95981000D01*
X52000000Y-96599630D02*
X51400370Y-96000000D01*
X52000000Y-100000000D02*
X52000000Y-96599630D01*
X54870000Y-102870000D02*
X52000000Y-100000000D01*
X51400370Y-96000000D02*
X50269000Y-96000000D01*
X64770000Y-102870000D02*
X54870000Y-102870000D01*
X52210000Y-65840000D02*
X54750000Y-65840000D01*
X56715000Y-84095000D02*
X56750000Y-84130000D01*
X56715000Y-67812500D02*
X56715000Y-84095000D01*
X54750000Y-65847500D02*
X56715000Y-67812500D01*
X54750000Y-65840000D02*
X54750000Y-65847500D01*
X52210000Y-82170000D02*
X50250000Y-84130000D01*
X52210000Y-76000000D02*
X52210000Y-82170000D01*
X54785000Y-76390000D02*
X54750000Y-76355000D01*
X54750000Y-76000000D02*
X52210000Y-76000000D01*
D18*
G36*
X46876761Y-54317155D02*
G01*
X48260000Y-55700395D01*
X49643239Y-54317155D01*
X49479656Y-54000000D01*
X142290344Y-54000000D01*
X142126761Y-54317155D01*
X143510000Y-55700395D01*
X144893239Y-54317155D01*
X144729656Y-54000000D01*
X145390000Y-54000000D01*
X145390000Y-54660344D01*
X145072845Y-54496761D01*
X143689605Y-55880000D01*
X145072845Y-57263239D01*
X145390000Y-57099656D01*
X145390001Y-105460345D01*
X145072845Y-105296761D01*
X143689605Y-106680000D01*
X145072845Y-108063239D01*
X145390001Y-107899655D01*
X145390001Y-108560000D01*
X144729656Y-108560000D01*
X144893239Y-108242845D01*
X143510000Y-106859605D01*
X142126761Y-108242845D01*
X142290344Y-108560000D01*
X49479656Y-108560000D01*
X49643239Y-108242845D01*
X48260000Y-106859605D01*
X46876761Y-108242845D01*
X47040344Y-108560000D01*
X46380000Y-108560000D01*
X46380000Y-107899656D01*
X46697155Y-108063239D01*
X48080395Y-106680000D01*
X48439605Y-106680000D01*
X49822845Y-108063239D01*
X50148643Y-107895198D01*
X50349426Y-107503393D01*
X50469914Y-107079945D01*
X50499175Y-106718873D01*
X141264524Y-106718873D01*
X141315254Y-107156197D01*
X141450326Y-107575221D01*
X141621357Y-107895198D01*
X141947155Y-108063239D01*
X143330395Y-106680000D01*
X141947155Y-105296761D01*
X141621357Y-105464802D01*
X141420574Y-105856607D01*
X141300086Y-106280055D01*
X141264524Y-106718873D01*
X50499175Y-106718873D01*
X50505476Y-106641127D01*
X50454746Y-106203803D01*
X50319674Y-105784779D01*
X50148643Y-105464802D01*
X49822845Y-105296761D01*
X48439605Y-106680000D01*
X48080395Y-106680000D01*
X46697155Y-105296761D01*
X46380000Y-105460344D01*
X46380000Y-105117155D01*
X46876761Y-105117155D01*
X48260000Y-106500395D01*
X49643239Y-105117155D01*
X142126761Y-105117155D01*
X143510000Y-106500395D01*
X144893239Y-105117155D01*
X144725198Y-104791357D01*
X144333393Y-104590574D01*
X143909945Y-104470086D01*
X143471127Y-104434524D01*
X143033803Y-104485254D01*
X142614779Y-104620326D01*
X142294802Y-104791357D01*
X142126761Y-105117155D01*
X49643239Y-105117155D01*
X49475198Y-104791357D01*
X49083393Y-104590574D01*
X48659945Y-104470086D01*
X48221127Y-104434524D01*
X47783803Y-104485254D01*
X47364779Y-104620326D01*
X47044802Y-104791357D01*
X46876761Y-105117155D01*
X46380000Y-105117155D01*
X46380000Y-98800000D01*
X48830928Y-98800000D01*
X48843188Y-98924482D01*
X48879498Y-99044180D01*
X48938463Y-99154494D01*
X49017815Y-99251185D01*
X49114506Y-99330537D01*
X49224820Y-99389502D01*
X49344518Y-99425812D01*
X49469000Y-99438072D01*
X49983250Y-99435000D01*
X50142000Y-99276250D01*
X50142000Y-98127000D01*
X48992750Y-98127000D01*
X48834000Y-98285750D01*
X48830928Y-98800000D01*
X46380000Y-98800000D01*
X46380000Y-91579117D01*
X48515000Y-91579117D01*
X48515000Y-91920883D01*
X48581675Y-92256081D01*
X48712463Y-92571831D01*
X48902337Y-92855998D01*
X49144002Y-93097663D01*
X49240000Y-93161807D01*
X49240001Y-94999603D01*
X49154363Y-95085241D01*
X48997320Y-95320273D01*
X48889147Y-95581426D01*
X48834000Y-95858665D01*
X48834000Y-96141335D01*
X48889147Y-96418574D01*
X48997320Y-96679727D01*
X49034393Y-96735210D01*
X49017815Y-96748815D01*
X48938463Y-96845506D01*
X48879498Y-96955820D01*
X48843188Y-97075518D01*
X48830928Y-97200000D01*
X48834000Y-97714250D01*
X48992750Y-97873000D01*
X50142000Y-97873000D01*
X50142000Y-97853000D01*
X50396000Y-97853000D01*
X50396000Y-97873000D01*
X50416000Y-97873000D01*
X50416000Y-98127000D01*
X50396000Y-98127000D01*
X50396000Y-99276250D01*
X50554750Y-99435000D01*
X50990000Y-99437600D01*
X50990000Y-99950392D01*
X50985114Y-100000000D01*
X50990000Y-100049607D01*
X51004615Y-100197993D01*
X51062368Y-100388379D01*
X51156153Y-100563840D01*
X51282367Y-100717633D01*
X51320906Y-100749261D01*
X54120744Y-103549100D01*
X54152367Y-103587633D01*
X54306160Y-103713847D01*
X54481620Y-103807632D01*
X54672005Y-103865385D01*
X54870000Y-103884886D01*
X54919608Y-103880000D01*
X63535590Y-103880000D01*
X63536908Y-103881972D01*
X63758028Y-104103092D01*
X64018037Y-104276824D01*
X64306943Y-104396493D01*
X64613645Y-104457500D01*
X64926355Y-104457500D01*
X65233057Y-104396493D01*
X65521963Y-104276824D01*
X65781972Y-104103092D01*
X66003092Y-103881972D01*
X66042136Y-103823539D01*
X66064208Y-103856572D01*
X66285328Y-104077692D01*
X66545337Y-104251424D01*
X66834243Y-104371093D01*
X67140945Y-104432100D01*
X67453655Y-104432100D01*
X67760357Y-104371093D01*
X68049263Y-104251424D01*
X68309272Y-104077692D01*
X68530392Y-103856572D01*
X68567300Y-103801335D01*
X68604208Y-103856572D01*
X68825328Y-104077692D01*
X69085337Y-104251424D01*
X69374243Y-104371093D01*
X69680945Y-104432100D01*
X69993655Y-104432100D01*
X70300357Y-104371093D01*
X70589263Y-104251424D01*
X70849272Y-104077692D01*
X71070392Y-103856572D01*
X71107300Y-103801335D01*
X71144208Y-103856572D01*
X71365328Y-104077692D01*
X71625337Y-104251424D01*
X71914243Y-104371093D01*
X72220945Y-104432100D01*
X72533655Y-104432100D01*
X72840357Y-104371093D01*
X73129263Y-104251424D01*
X73389272Y-104077692D01*
X73610392Y-103856572D01*
X73647300Y-103801335D01*
X73684208Y-103856572D01*
X73905328Y-104077692D01*
X74165337Y-104251424D01*
X74454243Y-104371093D01*
X74760945Y-104432100D01*
X75073655Y-104432100D01*
X75380357Y-104371093D01*
X75669263Y-104251424D01*
X75929272Y-104077692D01*
X76150392Y-103856572D01*
X76187300Y-103801335D01*
X76224208Y-103856572D01*
X76445328Y-104077692D01*
X76705337Y-104251424D01*
X76994243Y-104371093D01*
X77300945Y-104432100D01*
X77613655Y-104432100D01*
X77920357Y-104371093D01*
X78209263Y-104251424D01*
X78469272Y-104077692D01*
X78690392Y-103856572D01*
X78727300Y-103801335D01*
X78764208Y-103856572D01*
X78985328Y-104077692D01*
X79245337Y-104251424D01*
X79534243Y-104371093D01*
X79840945Y-104432100D01*
X80153655Y-104432100D01*
X80460357Y-104371093D01*
X80749263Y-104251424D01*
X81009272Y-104077692D01*
X81230392Y-103856572D01*
X81267300Y-103801335D01*
X81304208Y-103856572D01*
X81525328Y-104077692D01*
X81785337Y-104251424D01*
X82074243Y-104371093D01*
X82380945Y-104432100D01*
X82693655Y-104432100D01*
X83000357Y-104371093D01*
X83289263Y-104251424D01*
X83549272Y-104077692D01*
X83770392Y-103856572D01*
X83807300Y-103801335D01*
X83844208Y-103856572D01*
X84065328Y-104077692D01*
X84325337Y-104251424D01*
X84614243Y-104371093D01*
X84920945Y-104432100D01*
X85233655Y-104432100D01*
X85540357Y-104371093D01*
X85829263Y-104251424D01*
X86089272Y-104077692D01*
X86310392Y-103856572D01*
X86347300Y-103801335D01*
X86384208Y-103856572D01*
X86605328Y-104077692D01*
X86865337Y-104251424D01*
X87154243Y-104371093D01*
X87460945Y-104432100D01*
X87773655Y-104432100D01*
X88080357Y-104371093D01*
X88369263Y-104251424D01*
X88629272Y-104077692D01*
X88850392Y-103856572D01*
X88887300Y-103801335D01*
X88924208Y-103856572D01*
X89145328Y-104077692D01*
X89405337Y-104251424D01*
X89694243Y-104371093D01*
X90000945Y-104432100D01*
X90313655Y-104432100D01*
X90620357Y-104371093D01*
X90909263Y-104251424D01*
X91169272Y-104077692D01*
X91390392Y-103856572D01*
X91427300Y-103801335D01*
X91464208Y-103856572D01*
X91685328Y-104077692D01*
X91945337Y-104251424D01*
X92234243Y-104371093D01*
X92540945Y-104432100D01*
X92853655Y-104432100D01*
X93160357Y-104371093D01*
X93449263Y-104251424D01*
X93709272Y-104077692D01*
X93930392Y-103856572D01*
X93967300Y-103801335D01*
X94004208Y-103856572D01*
X94225328Y-104077692D01*
X94485337Y-104251424D01*
X94774243Y-104371093D01*
X95080945Y-104432100D01*
X95393655Y-104432100D01*
X95700357Y-104371093D01*
X95989263Y-104251424D01*
X96249272Y-104077692D01*
X96470392Y-103856572D01*
X96507300Y-103801335D01*
X96544208Y-103856572D01*
X96765328Y-104077692D01*
X97025337Y-104251424D01*
X97314243Y-104371093D01*
X97620945Y-104432100D01*
X97933655Y-104432100D01*
X98240357Y-104371093D01*
X98529263Y-104251424D01*
X98789272Y-104077692D01*
X99010392Y-103856572D01*
X99047300Y-103801335D01*
X99084208Y-103856572D01*
X99305328Y-104077692D01*
X99565337Y-104251424D01*
X99854243Y-104371093D01*
X100160945Y-104432100D01*
X100473655Y-104432100D01*
X100780357Y-104371093D01*
X101069263Y-104251424D01*
X101329272Y-104077692D01*
X101550392Y-103856572D01*
X101587300Y-103801335D01*
X101624208Y-103856572D01*
X101845328Y-104077692D01*
X102105337Y-104251424D01*
X102394243Y-104371093D01*
X102700945Y-104432100D01*
X103013655Y-104432100D01*
X103320357Y-104371093D01*
X103609263Y-104251424D01*
X103869272Y-104077692D01*
X104090392Y-103856572D01*
X104127300Y-103801335D01*
X104164208Y-103856572D01*
X104385328Y-104077692D01*
X104645337Y-104251424D01*
X104934243Y-104371093D01*
X105240945Y-104432100D01*
X105553655Y-104432100D01*
X105860357Y-104371093D01*
X106149263Y-104251424D01*
X106409272Y-104077692D01*
X106630392Y-103856572D01*
X106667300Y-103801335D01*
X106704208Y-103856572D01*
X106925328Y-104077692D01*
X107185337Y-104251424D01*
X107474243Y-104371093D01*
X107780945Y-104432100D01*
X108093655Y-104432100D01*
X108400357Y-104371093D01*
X108689263Y-104251424D01*
X108949272Y-104077692D01*
X109170392Y-103856572D01*
X109207300Y-103801335D01*
X109244208Y-103856572D01*
X109465328Y-104077692D01*
X109725337Y-104251424D01*
X110014243Y-104371093D01*
X110320945Y-104432100D01*
X110633655Y-104432100D01*
X110940357Y-104371093D01*
X111229263Y-104251424D01*
X111489272Y-104077692D01*
X111710392Y-103856572D01*
X111747300Y-103801335D01*
X111784208Y-103856572D01*
X112005328Y-104077692D01*
X112265337Y-104251424D01*
X112554243Y-104371093D01*
X112860945Y-104432100D01*
X113173655Y-104432100D01*
X113480357Y-104371093D01*
X113769263Y-104251424D01*
X114029272Y-104077692D01*
X114250392Y-103856572D01*
X114287300Y-103801335D01*
X114324208Y-103856572D01*
X114545328Y-104077692D01*
X114805337Y-104251424D01*
X115094243Y-104371093D01*
X115400945Y-104432100D01*
X115713655Y-104432100D01*
X116020357Y-104371093D01*
X116309263Y-104251424D01*
X116569272Y-104077692D01*
X116790392Y-103856572D01*
X116827300Y-103801335D01*
X116864208Y-103856572D01*
X117085328Y-104077692D01*
X117345337Y-104251424D01*
X117634243Y-104371093D01*
X117940945Y-104432100D01*
X118253655Y-104432100D01*
X118560357Y-104371093D01*
X118849263Y-104251424D01*
X119109272Y-104077692D01*
X119330392Y-103856572D01*
X119367300Y-103801335D01*
X119404208Y-103856572D01*
X119625328Y-104077692D01*
X119885337Y-104251424D01*
X120174243Y-104371093D01*
X120480945Y-104432100D01*
X120793655Y-104432100D01*
X121100357Y-104371093D01*
X121389263Y-104251424D01*
X121649272Y-104077692D01*
X121870392Y-103856572D01*
X121907300Y-103801335D01*
X121944208Y-103856572D01*
X122165328Y-104077692D01*
X122425337Y-104251424D01*
X122714243Y-104371093D01*
X123020945Y-104432100D01*
X123333655Y-104432100D01*
X123640357Y-104371093D01*
X123929263Y-104251424D01*
X124189272Y-104077692D01*
X124410392Y-103856572D01*
X124447300Y-103801335D01*
X124484208Y-103856572D01*
X124705328Y-104077692D01*
X124965337Y-104251424D01*
X125254243Y-104371093D01*
X125560945Y-104432100D01*
X125873655Y-104432100D01*
X126180357Y-104371093D01*
X126469263Y-104251424D01*
X126729272Y-104077692D01*
X126950392Y-103856572D01*
X126987300Y-103801335D01*
X127024208Y-103856572D01*
X127245328Y-104077692D01*
X127505337Y-104251424D01*
X127794243Y-104371093D01*
X128100945Y-104432100D01*
X128413655Y-104432100D01*
X128720357Y-104371093D01*
X129009263Y-104251424D01*
X129269272Y-104077692D01*
X129490392Y-103856572D01*
X129527300Y-103801335D01*
X129564208Y-103856572D01*
X129785328Y-104077692D01*
X130045337Y-104251424D01*
X130334243Y-104371093D01*
X130640945Y-104432100D01*
X130953655Y-104432100D01*
X131260357Y-104371093D01*
X131549263Y-104251424D01*
X131809272Y-104077692D01*
X132030392Y-103856572D01*
X132067300Y-103801335D01*
X132104208Y-103856572D01*
X132325328Y-104077692D01*
X132585337Y-104251424D01*
X132874243Y-104371093D01*
X133180945Y-104432100D01*
X133493655Y-104432100D01*
X133800357Y-104371093D01*
X134089263Y-104251424D01*
X134349272Y-104077692D01*
X134570392Y-103856572D01*
X134607300Y-103801335D01*
X134644208Y-103856572D01*
X134865328Y-104077692D01*
X135125337Y-104251424D01*
X135414243Y-104371093D01*
X135720945Y-104432100D01*
X136033655Y-104432100D01*
X136340357Y-104371093D01*
X136629263Y-104251424D01*
X136889272Y-104077692D01*
X137110392Y-103856572D01*
X137147300Y-103801335D01*
X137184208Y-103856572D01*
X137405328Y-104077692D01*
X137665337Y-104251424D01*
X137954243Y-104371093D01*
X138260945Y-104432100D01*
X138573655Y-104432100D01*
X138880357Y-104371093D01*
X139169263Y-104251424D01*
X139429272Y-104077692D01*
X139650392Y-103856572D01*
X139824124Y-103596563D01*
X139943793Y-103307657D01*
X140004800Y-103000955D01*
X140004800Y-102688245D01*
X139943793Y-102381543D01*
X139824124Y-102092637D01*
X139650392Y-101832628D01*
X139429272Y-101611508D01*
X139374035Y-101574600D01*
X139429272Y-101537692D01*
X139650392Y-101316572D01*
X139687300Y-101261335D01*
X139724208Y-101316572D01*
X139945328Y-101537692D01*
X140205337Y-101711424D01*
X140494243Y-101831093D01*
X140800945Y-101892100D01*
X141113655Y-101892100D01*
X141420357Y-101831093D01*
X141709263Y-101711424D01*
X141969272Y-101537692D01*
X142190392Y-101316572D01*
X142364124Y-101056563D01*
X142483793Y-100767657D01*
X142544800Y-100460955D01*
X142544800Y-100148245D01*
X142483793Y-99841543D01*
X142364124Y-99552637D01*
X142190392Y-99292628D01*
X141969272Y-99071508D01*
X141914035Y-99034600D01*
X141969272Y-98997692D01*
X142190392Y-98776572D01*
X142364124Y-98516563D01*
X142483793Y-98227657D01*
X142544800Y-97920955D01*
X142544800Y-97608245D01*
X142483793Y-97301543D01*
X142364124Y-97012637D01*
X142190392Y-96752628D01*
X141969272Y-96531508D01*
X141914035Y-96494600D01*
X141969272Y-96457692D01*
X142190392Y-96236572D01*
X142364124Y-95976563D01*
X142483793Y-95687657D01*
X142544800Y-95380955D01*
X142544800Y-95068245D01*
X142483793Y-94761543D01*
X142364124Y-94472637D01*
X142190392Y-94212628D01*
X141969272Y-93991508D01*
X141914035Y-93954600D01*
X141969272Y-93917692D01*
X142190392Y-93696572D01*
X142364124Y-93436563D01*
X142483793Y-93147657D01*
X142544800Y-92840955D01*
X142544800Y-92528245D01*
X142483793Y-92221543D01*
X142364124Y-91932637D01*
X142190392Y-91672628D01*
X141969272Y-91451508D01*
X141914035Y-91414600D01*
X141969272Y-91377692D01*
X142190392Y-91156572D01*
X142364124Y-90896563D01*
X142483793Y-90607657D01*
X142544800Y-90300955D01*
X142544800Y-89988245D01*
X142483793Y-89681543D01*
X142364124Y-89392637D01*
X142190392Y-89132628D01*
X141969272Y-88911508D01*
X141914035Y-88874600D01*
X141969272Y-88837692D01*
X142190392Y-88616572D01*
X142364124Y-88356563D01*
X142483793Y-88067657D01*
X142544800Y-87760955D01*
X142544800Y-87448245D01*
X142483793Y-87141543D01*
X142364124Y-86852637D01*
X142190392Y-86592628D01*
X141969272Y-86371508D01*
X141914035Y-86334600D01*
X141969272Y-86297692D01*
X142190392Y-86076572D01*
X142364124Y-85816563D01*
X142483793Y-85527657D01*
X142544800Y-85220955D01*
X142544800Y-84908245D01*
X142483793Y-84601543D01*
X142364124Y-84312637D01*
X142190392Y-84052628D01*
X141969272Y-83831508D01*
X141914035Y-83794600D01*
X141969272Y-83757692D01*
X142190392Y-83536572D01*
X142364124Y-83276563D01*
X142483793Y-82987657D01*
X142544800Y-82680955D01*
X142544800Y-82368245D01*
X142483793Y-82061543D01*
X142364124Y-81772637D01*
X142190392Y-81512628D01*
X141969272Y-81291508D01*
X141914035Y-81254600D01*
X141969272Y-81217692D01*
X142190392Y-80996572D01*
X142364124Y-80736563D01*
X142483793Y-80447657D01*
X142544800Y-80140955D01*
X142544800Y-79828245D01*
X142483793Y-79521543D01*
X142364124Y-79232637D01*
X142190392Y-78972628D01*
X141969272Y-78751508D01*
X141914035Y-78714600D01*
X141969272Y-78677692D01*
X142190392Y-78456572D01*
X142364124Y-78196563D01*
X142483793Y-77907657D01*
X142544800Y-77600955D01*
X142544800Y-77288245D01*
X142483793Y-76981543D01*
X142364124Y-76692637D01*
X142190392Y-76432628D01*
X141969272Y-76211508D01*
X141914035Y-76174600D01*
X141969272Y-76137692D01*
X142190392Y-75916572D01*
X142364124Y-75656563D01*
X142483793Y-75367657D01*
X142544800Y-75060955D01*
X142544800Y-74748245D01*
X142483793Y-74441543D01*
X142364124Y-74152637D01*
X142190392Y-73892628D01*
X141969272Y-73671508D01*
X141914035Y-73634600D01*
X141969272Y-73597692D01*
X142190392Y-73376572D01*
X142364124Y-73116563D01*
X142483793Y-72827657D01*
X142544800Y-72520955D01*
X142544800Y-72208245D01*
X142483793Y-71901543D01*
X142364124Y-71612637D01*
X142190392Y-71352628D01*
X141969272Y-71131508D01*
X141914035Y-71094600D01*
X141969272Y-71057692D01*
X142190392Y-70836572D01*
X142364124Y-70576563D01*
X142483793Y-70287657D01*
X142544800Y-69980955D01*
X142544800Y-69668245D01*
X142483793Y-69361543D01*
X142364124Y-69072637D01*
X142190392Y-68812628D01*
X141969272Y-68591508D01*
X141914035Y-68554600D01*
X141969272Y-68517692D01*
X142190392Y-68296572D01*
X142364124Y-68036563D01*
X142483793Y-67747657D01*
X142544800Y-67440955D01*
X142544800Y-67128245D01*
X142483793Y-66821543D01*
X142364124Y-66532637D01*
X142190392Y-66272628D01*
X141969272Y-66051508D01*
X141914035Y-66014600D01*
X141969272Y-65977692D01*
X142190392Y-65756572D01*
X142364124Y-65496563D01*
X142483793Y-65207657D01*
X142544800Y-64900955D01*
X142544800Y-64588245D01*
X142483793Y-64281543D01*
X142364124Y-63992637D01*
X142190392Y-63732628D01*
X141969272Y-63511508D01*
X141914035Y-63474600D01*
X141969272Y-63437692D01*
X142190392Y-63216572D01*
X142364124Y-62956563D01*
X142483793Y-62667657D01*
X142544800Y-62360955D01*
X142544800Y-62048245D01*
X142483793Y-61741543D01*
X142364124Y-61452637D01*
X142190392Y-61192628D01*
X141969272Y-60971508D01*
X141709263Y-60797776D01*
X141420357Y-60678107D01*
X141113655Y-60617100D01*
X140800945Y-60617100D01*
X140494243Y-60678107D01*
X140205337Y-60797776D01*
X139945328Y-60971508D01*
X139724208Y-61192628D01*
X139687300Y-61247865D01*
X139650392Y-61192628D01*
X139429272Y-60971508D01*
X139374035Y-60934600D01*
X139429272Y-60897692D01*
X139650392Y-60676572D01*
X139824124Y-60416563D01*
X139943793Y-60127657D01*
X140004800Y-59820955D01*
X140004800Y-59508245D01*
X139943793Y-59201543D01*
X139824124Y-58912637D01*
X139650392Y-58652628D01*
X139429272Y-58431508D01*
X139169263Y-58257776D01*
X138880357Y-58138107D01*
X138573655Y-58077100D01*
X138260945Y-58077100D01*
X137954243Y-58138107D01*
X137665337Y-58257776D01*
X137405328Y-58431508D01*
X137184208Y-58652628D01*
X137147300Y-58707865D01*
X137110392Y-58652628D01*
X136889272Y-58431508D01*
X136629263Y-58257776D01*
X136340357Y-58138107D01*
X136033655Y-58077100D01*
X135720945Y-58077100D01*
X135414243Y-58138107D01*
X135125337Y-58257776D01*
X134865328Y-58431508D01*
X134644208Y-58652628D01*
X134607300Y-58707865D01*
X134570392Y-58652628D01*
X134349272Y-58431508D01*
X134089263Y-58257776D01*
X133800357Y-58138107D01*
X133493655Y-58077100D01*
X133180945Y-58077100D01*
X132874243Y-58138107D01*
X132585337Y-58257776D01*
X132325328Y-58431508D01*
X132104208Y-58652628D01*
X132067300Y-58707865D01*
X132030392Y-58652628D01*
X131809272Y-58431508D01*
X131549263Y-58257776D01*
X131260357Y-58138107D01*
X130953655Y-58077100D01*
X130640945Y-58077100D01*
X130334243Y-58138107D01*
X130045337Y-58257776D01*
X129785328Y-58431508D01*
X129564208Y-58652628D01*
X129527300Y-58707865D01*
X129490392Y-58652628D01*
X129269272Y-58431508D01*
X129009263Y-58257776D01*
X128720357Y-58138107D01*
X128413655Y-58077100D01*
X128100945Y-58077100D01*
X127794243Y-58138107D01*
X127505337Y-58257776D01*
X127245328Y-58431508D01*
X127024208Y-58652628D01*
X126987300Y-58707865D01*
X126950392Y-58652628D01*
X126729272Y-58431508D01*
X126469263Y-58257776D01*
X126180357Y-58138107D01*
X125873655Y-58077100D01*
X125560945Y-58077100D01*
X125254243Y-58138107D01*
X124965337Y-58257776D01*
X124705328Y-58431508D01*
X124484208Y-58652628D01*
X124447300Y-58707865D01*
X124410392Y-58652628D01*
X124189272Y-58431508D01*
X123929263Y-58257776D01*
X123640357Y-58138107D01*
X123333655Y-58077100D01*
X123020945Y-58077100D01*
X122714243Y-58138107D01*
X122425337Y-58257776D01*
X122165328Y-58431508D01*
X121944208Y-58652628D01*
X121907300Y-58707865D01*
X121870392Y-58652628D01*
X121649272Y-58431508D01*
X121389263Y-58257776D01*
X121100357Y-58138107D01*
X120793655Y-58077100D01*
X120480945Y-58077100D01*
X120174243Y-58138107D01*
X119885337Y-58257776D01*
X119625328Y-58431508D01*
X119404208Y-58652628D01*
X119367300Y-58707865D01*
X119330392Y-58652628D01*
X119109272Y-58431508D01*
X118849263Y-58257776D01*
X118560357Y-58138107D01*
X118253655Y-58077100D01*
X117940945Y-58077100D01*
X117634243Y-58138107D01*
X117345337Y-58257776D01*
X117085328Y-58431508D01*
X116864208Y-58652628D01*
X116827300Y-58707865D01*
X116790392Y-58652628D01*
X116569272Y-58431508D01*
X116309263Y-58257776D01*
X116020357Y-58138107D01*
X115713655Y-58077100D01*
X115400945Y-58077100D01*
X115094243Y-58138107D01*
X114805337Y-58257776D01*
X114545328Y-58431508D01*
X114324208Y-58652628D01*
X114287300Y-58707865D01*
X114250392Y-58652628D01*
X114029272Y-58431508D01*
X113769263Y-58257776D01*
X113480357Y-58138107D01*
X113173655Y-58077100D01*
X112860945Y-58077100D01*
X112554243Y-58138107D01*
X112265337Y-58257776D01*
X112005328Y-58431508D01*
X111784208Y-58652628D01*
X111747300Y-58707865D01*
X111710392Y-58652628D01*
X111489272Y-58431508D01*
X111229263Y-58257776D01*
X110940357Y-58138107D01*
X110633655Y-58077100D01*
X110320945Y-58077100D01*
X110014243Y-58138107D01*
X109725337Y-58257776D01*
X109465328Y-58431508D01*
X109244208Y-58652628D01*
X109207300Y-58707865D01*
X109170392Y-58652628D01*
X108949272Y-58431508D01*
X108689263Y-58257776D01*
X108400357Y-58138107D01*
X108093655Y-58077100D01*
X107780945Y-58077100D01*
X107474243Y-58138107D01*
X107185337Y-58257776D01*
X106925328Y-58431508D01*
X106704208Y-58652628D01*
X106667300Y-58707865D01*
X106630392Y-58652628D01*
X106409272Y-58431508D01*
X106149263Y-58257776D01*
X105860357Y-58138107D01*
X105553655Y-58077100D01*
X105240945Y-58077100D01*
X104934243Y-58138107D01*
X104645337Y-58257776D01*
X104385328Y-58431508D01*
X104164208Y-58652628D01*
X104127300Y-58707865D01*
X104090392Y-58652628D01*
X103869272Y-58431508D01*
X103609263Y-58257776D01*
X103320357Y-58138107D01*
X103013655Y-58077100D01*
X102700945Y-58077100D01*
X102394243Y-58138107D01*
X102105337Y-58257776D01*
X101845328Y-58431508D01*
X101624208Y-58652628D01*
X101587300Y-58707865D01*
X101550392Y-58652628D01*
X101329272Y-58431508D01*
X101069263Y-58257776D01*
X100780357Y-58138107D01*
X100473655Y-58077100D01*
X100160945Y-58077100D01*
X99854243Y-58138107D01*
X99565337Y-58257776D01*
X99305328Y-58431508D01*
X99084208Y-58652628D01*
X99047300Y-58707865D01*
X99010392Y-58652628D01*
X98789272Y-58431508D01*
X98529263Y-58257776D01*
X98240357Y-58138107D01*
X97933655Y-58077100D01*
X97620945Y-58077100D01*
X97314243Y-58138107D01*
X97025337Y-58257776D01*
X96765328Y-58431508D01*
X96544208Y-58652628D01*
X96507300Y-58707865D01*
X96470392Y-58652628D01*
X96249272Y-58431508D01*
X95989263Y-58257776D01*
X95700357Y-58138107D01*
X95393655Y-58077100D01*
X95080945Y-58077100D01*
X94774243Y-58138107D01*
X94485337Y-58257776D01*
X94225328Y-58431508D01*
X94004208Y-58652628D01*
X93967300Y-58707865D01*
X93930392Y-58652628D01*
X93709272Y-58431508D01*
X93449263Y-58257776D01*
X93160357Y-58138107D01*
X92853655Y-58077100D01*
X92540945Y-58077100D01*
X92234243Y-58138107D01*
X91945337Y-58257776D01*
X91685328Y-58431508D01*
X91464208Y-58652628D01*
X91427300Y-58707865D01*
X91390392Y-58652628D01*
X91169272Y-58431508D01*
X90909263Y-58257776D01*
X90620357Y-58138107D01*
X90313655Y-58077100D01*
X90000945Y-58077100D01*
X89694243Y-58138107D01*
X89405337Y-58257776D01*
X89145328Y-58431508D01*
X88924208Y-58652628D01*
X88887300Y-58707865D01*
X88850392Y-58652628D01*
X88629272Y-58431508D01*
X88369263Y-58257776D01*
X88080357Y-58138107D01*
X87773655Y-58077100D01*
X87460945Y-58077100D01*
X87154243Y-58138107D01*
X86865337Y-58257776D01*
X86605328Y-58431508D01*
X86384208Y-58652628D01*
X86347300Y-58707865D01*
X86310392Y-58652628D01*
X86089272Y-58431508D01*
X85829263Y-58257776D01*
X85540357Y-58138107D01*
X85233655Y-58077100D01*
X84920945Y-58077100D01*
X84614243Y-58138107D01*
X84325337Y-58257776D01*
X84065328Y-58431508D01*
X83844208Y-58652628D01*
X83807300Y-58707865D01*
X83770392Y-58652628D01*
X83549272Y-58431508D01*
X83289263Y-58257776D01*
X83000357Y-58138107D01*
X82693655Y-58077100D01*
X82380945Y-58077100D01*
X82074243Y-58138107D01*
X81785337Y-58257776D01*
X81525328Y-58431508D01*
X81304208Y-58652628D01*
X81267300Y-58707865D01*
X81230392Y-58652628D01*
X81009272Y-58431508D01*
X80749263Y-58257776D01*
X80460357Y-58138107D01*
X80153655Y-58077100D01*
X79840945Y-58077100D01*
X79534243Y-58138107D01*
X79245337Y-58257776D01*
X78985328Y-58431508D01*
X78764208Y-58652628D01*
X78727300Y-58707865D01*
X78690392Y-58652628D01*
X78469272Y-58431508D01*
X78209263Y-58257776D01*
X77920357Y-58138107D01*
X77613655Y-58077100D01*
X77300945Y-58077100D01*
X76994243Y-58138107D01*
X76705337Y-58257776D01*
X76445328Y-58431508D01*
X76224208Y-58652628D01*
X76187300Y-58707865D01*
X76150392Y-58652628D01*
X75929272Y-58431508D01*
X75669263Y-58257776D01*
X75380357Y-58138107D01*
X75073655Y-58077100D01*
X74760945Y-58077100D01*
X74454243Y-58138107D01*
X74165337Y-58257776D01*
X73905328Y-58431508D01*
X73684208Y-58652628D01*
X73647300Y-58707865D01*
X73610392Y-58652628D01*
X73389272Y-58431508D01*
X73129263Y-58257776D01*
X72840357Y-58138107D01*
X72533655Y-58077100D01*
X72220945Y-58077100D01*
X71914243Y-58138107D01*
X71625337Y-58257776D01*
X71365328Y-58431508D01*
X71144208Y-58652628D01*
X71107300Y-58707865D01*
X71070392Y-58652628D01*
X70849272Y-58431508D01*
X70589263Y-58257776D01*
X70300357Y-58138107D01*
X69993655Y-58077100D01*
X69680945Y-58077100D01*
X69374243Y-58138107D01*
X69085337Y-58257776D01*
X68825328Y-58431508D01*
X68604208Y-58652628D01*
X68567300Y-58707865D01*
X68530392Y-58652628D01*
X68309272Y-58431508D01*
X68049263Y-58257776D01*
X67760357Y-58138107D01*
X67453655Y-58077100D01*
X67140945Y-58077100D01*
X66834243Y-58138107D01*
X66545337Y-58257776D01*
X66285328Y-58431508D01*
X66064208Y-58652628D01*
X66025164Y-58711061D01*
X66003092Y-58678028D01*
X65781972Y-58456908D01*
X65521963Y-58283176D01*
X65233057Y-58163507D01*
X64926355Y-58102500D01*
X64613645Y-58102500D01*
X64306943Y-58163507D01*
X64018037Y-58283176D01*
X63758028Y-58456908D01*
X63536908Y-58678028D01*
X63363176Y-58938037D01*
X63243507Y-59226943D01*
X63182500Y-59533645D01*
X63182500Y-59846355D01*
X63243507Y-60153057D01*
X63363176Y-60441963D01*
X63536908Y-60701972D01*
X63758028Y-60923092D01*
X63813265Y-60960000D01*
X63758028Y-60996908D01*
X63536908Y-61218028D01*
X63363176Y-61478037D01*
X63243507Y-61766943D01*
X63182500Y-62073645D01*
X63182500Y-62386355D01*
X63243507Y-62693057D01*
X63363176Y-62981963D01*
X63536908Y-63241972D01*
X63758028Y-63463092D01*
X63888961Y-63550578D01*
X63848070Y-63668465D01*
X64770000Y-64590395D01*
X65691930Y-63668465D01*
X65651039Y-63550578D01*
X65781972Y-63463092D01*
X66003092Y-63241972D01*
X66042136Y-63183539D01*
X66064208Y-63216572D01*
X66285328Y-63437692D01*
X66340565Y-63474600D01*
X66285328Y-63511508D01*
X66064208Y-63732628D01*
X65965333Y-63880605D01*
X65871535Y-63848070D01*
X64949605Y-64770000D01*
X65871535Y-65691930D01*
X65992890Y-65649836D01*
X66064208Y-65756572D01*
X66285328Y-65977692D01*
X66340565Y-66014600D01*
X66285328Y-66051508D01*
X66064208Y-66272628D01*
X66027300Y-66327865D01*
X65990392Y-66272628D01*
X65769272Y-66051508D01*
X65655802Y-65975690D01*
X65691930Y-65871535D01*
X64770000Y-64949605D01*
X63848070Y-65871535D01*
X63879419Y-65961912D01*
X63745328Y-66051508D01*
X63524208Y-66272628D01*
X63350476Y-66532637D01*
X63230807Y-66821543D01*
X63169800Y-67128245D01*
X63169800Y-67440955D01*
X63230807Y-67747657D01*
X63350476Y-68036563D01*
X63524208Y-68296572D01*
X63745328Y-68517692D01*
X63800565Y-68554600D01*
X63745328Y-68591508D01*
X63524208Y-68812628D01*
X63350476Y-69072637D01*
X63230807Y-69361543D01*
X63169800Y-69668245D01*
X63169800Y-69980955D01*
X63230807Y-70287657D01*
X63350476Y-70576563D01*
X63524208Y-70836572D01*
X63745328Y-71057692D01*
X63800565Y-71094600D01*
X63745328Y-71131508D01*
X63524208Y-71352628D01*
X63350476Y-71612637D01*
X63230807Y-71901543D01*
X63169800Y-72208245D01*
X63169800Y-72520955D01*
X63230807Y-72827657D01*
X63350476Y-73116563D01*
X63524208Y-73376572D01*
X63745328Y-73597692D01*
X63800565Y-73634600D01*
X63745328Y-73671508D01*
X63524208Y-73892628D01*
X63350476Y-74152637D01*
X63230807Y-74441543D01*
X63169800Y-74748245D01*
X63169800Y-75060955D01*
X63230807Y-75367657D01*
X63350476Y-75656563D01*
X63524208Y-75916572D01*
X63745328Y-76137692D01*
X63800565Y-76174600D01*
X63745328Y-76211508D01*
X63524208Y-76432628D01*
X63350476Y-76692637D01*
X63230807Y-76981543D01*
X63169800Y-77288245D01*
X63169800Y-77600955D01*
X63230807Y-77907657D01*
X63350476Y-78196563D01*
X63524208Y-78456572D01*
X63745328Y-78677692D01*
X63800565Y-78714600D01*
X63745328Y-78751508D01*
X63524208Y-78972628D01*
X63350476Y-79232637D01*
X63230807Y-79521543D01*
X63169800Y-79828245D01*
X63169800Y-80140955D01*
X63230807Y-80447657D01*
X63350476Y-80736563D01*
X63524208Y-80996572D01*
X63745328Y-81217692D01*
X63800565Y-81254600D01*
X63745328Y-81291508D01*
X63524208Y-81512628D01*
X63350476Y-81772637D01*
X63230807Y-82061543D01*
X63169800Y-82368245D01*
X63169800Y-82680955D01*
X63230807Y-82987657D01*
X63350476Y-83276563D01*
X63524208Y-83536572D01*
X63745328Y-83757692D01*
X63800565Y-83794600D01*
X63745328Y-83831508D01*
X63524208Y-84052628D01*
X63350476Y-84312637D01*
X63230807Y-84601543D01*
X63169800Y-84908245D01*
X63169800Y-85220955D01*
X63230807Y-85527657D01*
X63350476Y-85816563D01*
X63524208Y-86076572D01*
X63745328Y-86297692D01*
X63800565Y-86334600D01*
X63745328Y-86371508D01*
X63524208Y-86592628D01*
X63350476Y-86852637D01*
X63230807Y-87141543D01*
X63169800Y-87448245D01*
X63169800Y-87760955D01*
X63230807Y-88067657D01*
X63350476Y-88356563D01*
X63524208Y-88616572D01*
X63745328Y-88837692D01*
X63800565Y-88874600D01*
X63745328Y-88911508D01*
X63524208Y-89132628D01*
X63350476Y-89392637D01*
X63230807Y-89681543D01*
X63169800Y-89988245D01*
X63169800Y-90300955D01*
X63230807Y-90607657D01*
X63350476Y-90896563D01*
X63524208Y-91156572D01*
X63745328Y-91377692D01*
X63800565Y-91414600D01*
X63745328Y-91451508D01*
X63524208Y-91672628D01*
X63350476Y-91932637D01*
X63230807Y-92221543D01*
X63169800Y-92528245D01*
X63169800Y-92840955D01*
X63230807Y-93147657D01*
X63350476Y-93436563D01*
X63524208Y-93696572D01*
X63745328Y-93917692D01*
X63825922Y-93971543D01*
X63758028Y-94016908D01*
X63536908Y-94238028D01*
X63363176Y-94498037D01*
X63243507Y-94786943D01*
X63182500Y-95093645D01*
X63182500Y-95406355D01*
X63243507Y-95713057D01*
X63363176Y-96001963D01*
X63536908Y-96261972D01*
X63758028Y-96483092D01*
X63888961Y-96570578D01*
X63848070Y-96688465D01*
X64770000Y-97610395D01*
X65691930Y-96688465D01*
X65651039Y-96570578D01*
X65781972Y-96483092D01*
X66003092Y-96261972D01*
X66040000Y-96206735D01*
X66076908Y-96261972D01*
X66298028Y-96483092D01*
X66327908Y-96503057D01*
X66285328Y-96531508D01*
X66064208Y-96752628D01*
X65965333Y-96900605D01*
X65871535Y-96868070D01*
X64949605Y-97790000D01*
X65871535Y-98711930D01*
X65992890Y-98669836D01*
X66064208Y-98776572D01*
X66285328Y-98997692D01*
X66340565Y-99034600D01*
X66285328Y-99071508D01*
X66064208Y-99292628D01*
X66025164Y-99351061D01*
X66003092Y-99318028D01*
X65781972Y-99096908D01*
X65651039Y-99009422D01*
X65691930Y-98891535D01*
X64770000Y-97969605D01*
X63848070Y-98891535D01*
X63888961Y-99009422D01*
X63758028Y-99096908D01*
X63536908Y-99318028D01*
X63535590Y-99320000D01*
X61463356Y-99320000D01*
X59997830Y-97854474D01*
X63176123Y-97854474D01*
X63219328Y-98164185D01*
X63322123Y-98459516D01*
X63408919Y-98621902D01*
X63668465Y-98711930D01*
X64590395Y-97790000D01*
X63668465Y-96868070D01*
X63408919Y-96958098D01*
X63272776Y-97239616D01*
X63194171Y-97542286D01*
X63176123Y-97854474D01*
X59997830Y-97854474D01*
X58153072Y-96009717D01*
X58153072Y-95200000D01*
X58140812Y-95075518D01*
X58104502Y-94955820D01*
X58045537Y-94845506D01*
X57966185Y-94748815D01*
X57869494Y-94669463D01*
X57759180Y-94610498D01*
X57725000Y-94600130D01*
X57725000Y-93488072D01*
X57850000Y-93488072D01*
X57974482Y-93475812D01*
X58094180Y-93439502D01*
X58204494Y-93380537D01*
X58301185Y-93301185D01*
X58380537Y-93204494D01*
X58439502Y-93094180D01*
X58475812Y-92974482D01*
X58488072Y-92850000D01*
X58488072Y-90650000D01*
X58475812Y-90525518D01*
X58439502Y-90405820D01*
X58380537Y-90295506D01*
X58301185Y-90198815D01*
X58204494Y-90119463D01*
X58094180Y-90060498D01*
X57974482Y-90024188D01*
X57850000Y-90011928D01*
X55650000Y-90011928D01*
X55525518Y-90024188D01*
X55405820Y-90060498D01*
X55295506Y-90119463D01*
X55198815Y-90198815D01*
X55119463Y-90295506D01*
X55060498Y-90405820D01*
X55024188Y-90525518D01*
X55011928Y-90650000D01*
X55011928Y-92850000D01*
X55024188Y-92974482D01*
X55060498Y-93094180D01*
X55119463Y-93204494D01*
X55198815Y-93301185D01*
X55295506Y-93380537D01*
X55405820Y-93439502D01*
X55525518Y-93475812D01*
X55650000Y-93488072D01*
X55705001Y-93488072D01*
X55705000Y-94600130D01*
X55670820Y-94610498D01*
X55560506Y-94669463D01*
X55463815Y-94748815D01*
X55384463Y-94845506D01*
X55325498Y-94955820D01*
X55289188Y-95075518D01*
X55276928Y-95200000D01*
X55276928Y-96800000D01*
X55289188Y-96924482D01*
X55325498Y-97044180D01*
X55384463Y-97154494D01*
X55463815Y-97251185D01*
X55476758Y-97261807D01*
X55357429Y-97513996D01*
X55288700Y-97788184D01*
X55274783Y-98070512D01*
X55316213Y-98350130D01*
X55411397Y-98616292D01*
X55478329Y-98741514D01*
X55722298Y-98813097D01*
X56535395Y-98000000D01*
X56521253Y-97985858D01*
X56700858Y-97806253D01*
X56715000Y-97820395D01*
X56729143Y-97806253D01*
X56908748Y-97985858D01*
X56894605Y-98000000D01*
X57707702Y-98813097D01*
X57951671Y-98741514D01*
X57976238Y-98689594D01*
X60295744Y-101009100D01*
X60327367Y-101047633D01*
X60481160Y-101173847D01*
X60636916Y-101257100D01*
X60656620Y-101267632D01*
X60847005Y-101325385D01*
X61045000Y-101344886D01*
X61094608Y-101340000D01*
X63535590Y-101340000D01*
X63536908Y-101341972D01*
X63758028Y-101563092D01*
X63813265Y-101600000D01*
X63758028Y-101636908D01*
X63536908Y-101858028D01*
X63535590Y-101860000D01*
X55288356Y-101860000D01*
X53010000Y-99581645D01*
X53010000Y-98992702D01*
X55901903Y-98992702D01*
X55973486Y-99236671D01*
X56228996Y-99357571D01*
X56503184Y-99426300D01*
X56785512Y-99440217D01*
X57065130Y-99398787D01*
X57331292Y-99303603D01*
X57456514Y-99236671D01*
X57528097Y-98992702D01*
X56715000Y-98179605D01*
X55901903Y-98992702D01*
X53010000Y-98992702D01*
X53010000Y-96649238D01*
X53014886Y-96599630D01*
X52995385Y-96401635D01*
X52937632Y-96211250D01*
X52920391Y-96178994D01*
X52843847Y-96035790D01*
X52717633Y-95881997D01*
X52679094Y-95850369D01*
X52149631Y-95320906D01*
X52118003Y-95282367D01*
X51964210Y-95156153D01*
X51788750Y-95062368D01*
X51598364Y-95004615D01*
X51449978Y-94990000D01*
X51400370Y-94985114D01*
X51350762Y-94990000D01*
X51288396Y-94990000D01*
X51260000Y-94961604D01*
X51260000Y-93161807D01*
X51355998Y-93097663D01*
X51597663Y-92855998D01*
X51787537Y-92571831D01*
X51918325Y-92256081D01*
X51985000Y-91920883D01*
X51985000Y-91579117D01*
X51918325Y-91243919D01*
X51787537Y-90928169D01*
X51597663Y-90644002D01*
X51355998Y-90402337D01*
X51071831Y-90212463D01*
X50756081Y-90081675D01*
X50420883Y-90015000D01*
X50079117Y-90015000D01*
X49743919Y-90081675D01*
X49428169Y-90212463D01*
X49144002Y-90402337D01*
X48902337Y-90644002D01*
X48712463Y-90928169D01*
X48581675Y-91243919D01*
X48515000Y-91579117D01*
X46380000Y-91579117D01*
X46380000Y-83030000D01*
X48511928Y-83030000D01*
X48511928Y-85230000D01*
X48524188Y-85354482D01*
X48560498Y-85474180D01*
X48619463Y-85584494D01*
X48698815Y-85681185D01*
X48795506Y-85760537D01*
X48905820Y-85819502D01*
X49025518Y-85855812D01*
X49150000Y-85868072D01*
X51350000Y-85868072D01*
X51474482Y-85855812D01*
X51594180Y-85819502D01*
X51704494Y-85760537D01*
X51801185Y-85681185D01*
X51880537Y-85584494D01*
X51939502Y-85474180D01*
X51975812Y-85354482D01*
X51988072Y-85230000D01*
X51988072Y-83820284D01*
X52889100Y-82919256D01*
X52927633Y-82887633D01*
X53053847Y-82733840D01*
X53147632Y-82558380D01*
X53205385Y-82367994D01*
X53220000Y-82219608D01*
X53224886Y-82170000D01*
X53220000Y-82120392D01*
X53220000Y-77109341D01*
X53279364Y-77049977D01*
X53296898Y-77107780D01*
X53355863Y-77218094D01*
X53435215Y-77314785D01*
X53531906Y-77394137D01*
X53642220Y-77453102D01*
X53761918Y-77489412D01*
X53886400Y-77501672D01*
X55613600Y-77501672D01*
X55705001Y-77492670D01*
X55705001Y-82741579D01*
X55644002Y-82782337D01*
X55402337Y-83024002D01*
X55212463Y-83308169D01*
X55081675Y-83623919D01*
X55015000Y-83959117D01*
X55015000Y-84300883D01*
X55081675Y-84636081D01*
X55212463Y-84951831D01*
X55402337Y-85235998D01*
X55644002Y-85477663D01*
X55928169Y-85667537D01*
X56243919Y-85798325D01*
X56579117Y-85865000D01*
X56920883Y-85865000D01*
X57256081Y-85798325D01*
X57571831Y-85667537D01*
X57855998Y-85477663D01*
X58097663Y-85235998D01*
X58287537Y-84951831D01*
X58418325Y-84636081D01*
X58485000Y-84300883D01*
X58485000Y-83959117D01*
X58418325Y-83623919D01*
X58287537Y-83308169D01*
X58097663Y-83024002D01*
X57855998Y-82782337D01*
X57725000Y-82694807D01*
X57725000Y-67862108D01*
X57729886Y-67812500D01*
X57710385Y-67614505D01*
X57652632Y-67424120D01*
X57558846Y-67248659D01*
X57464256Y-67133400D01*
X57432633Y-67094867D01*
X57394100Y-67063244D01*
X56248600Y-65917745D01*
X56248600Y-65692401D01*
X56191010Y-65402875D01*
X56078042Y-65130147D01*
X55914039Y-64884698D01*
X55863815Y-64834474D01*
X63176123Y-64834474D01*
X63219328Y-65144185D01*
X63322123Y-65439516D01*
X63408919Y-65601902D01*
X63668465Y-65691930D01*
X64590395Y-64770000D01*
X63668465Y-63848070D01*
X63408919Y-63938098D01*
X63272776Y-64219616D01*
X63194171Y-64522286D01*
X63176123Y-64834474D01*
X55863815Y-64834474D01*
X55705302Y-64675961D01*
X55459853Y-64511958D01*
X55187125Y-64398990D01*
X54897599Y-64341400D01*
X54602401Y-64341400D01*
X54312875Y-64398990D01*
X54040147Y-64511958D01*
X53794698Y-64675961D01*
X53640659Y-64830000D01*
X53319341Y-64830000D01*
X53165302Y-64675961D01*
X52919853Y-64511958D01*
X52647125Y-64398990D01*
X52357599Y-64341400D01*
X52062401Y-64341400D01*
X51772875Y-64398990D01*
X51500147Y-64511958D01*
X51254698Y-64675961D01*
X51045961Y-64884698D01*
X50881958Y-65130147D01*
X50768990Y-65402875D01*
X50711400Y-65692401D01*
X50711400Y-65987599D01*
X50768990Y-66277125D01*
X50881958Y-66549853D01*
X51045961Y-66795302D01*
X51254698Y-67004039D01*
X51420103Y-67114559D01*
X51321512Y-67173183D01*
X51103146Y-67369707D01*
X50927316Y-67605056D01*
X50800778Y-67870186D01*
X50755042Y-68020974D01*
X50876183Y-68253000D01*
X52083000Y-68253000D01*
X52083000Y-68233000D01*
X52337000Y-68233000D01*
X52337000Y-68253000D01*
X54623000Y-68253000D01*
X54623000Y-68233000D01*
X54877000Y-68233000D01*
X54877000Y-68253000D01*
X54897000Y-68253000D01*
X54897000Y-68507000D01*
X54877000Y-68507000D01*
X54877000Y-70793000D01*
X54897000Y-70793000D01*
X54897000Y-71047000D01*
X54877000Y-71047000D01*
X54877000Y-73333000D01*
X54897000Y-73333000D01*
X54897000Y-73587000D01*
X54877000Y-73587000D01*
X54877000Y-73607000D01*
X54623000Y-73607000D01*
X54623000Y-73587000D01*
X52337000Y-73587000D01*
X52337000Y-73607000D01*
X52083000Y-73607000D01*
X52083000Y-73587000D01*
X50876183Y-73587000D01*
X50755042Y-73819026D01*
X50800778Y-73969814D01*
X50927316Y-74234944D01*
X51103146Y-74470293D01*
X51321512Y-74666817D01*
X51420103Y-74725441D01*
X51254698Y-74835961D01*
X51045961Y-75044698D01*
X50881958Y-75290147D01*
X50768990Y-75562875D01*
X50711400Y-75852401D01*
X50711400Y-76147599D01*
X50768990Y-76437125D01*
X50881958Y-76709853D01*
X51045961Y-76955302D01*
X51200000Y-77109341D01*
X51200001Y-81751643D01*
X50559716Y-82391928D01*
X49150000Y-82391928D01*
X49025518Y-82404188D01*
X48905820Y-82440498D01*
X48795506Y-82499463D01*
X48698815Y-82578815D01*
X48619463Y-82675506D01*
X48560498Y-82785820D01*
X48524188Y-82905518D01*
X48511928Y-83030000D01*
X46380000Y-83030000D01*
X46380000Y-71279026D01*
X50755042Y-71279026D01*
X50800778Y-71429814D01*
X50927316Y-71694944D01*
X51103146Y-71930293D01*
X51321512Y-72126817D01*
X51427770Y-72190000D01*
X51321512Y-72253183D01*
X51103146Y-72449707D01*
X50927316Y-72685056D01*
X50800778Y-72950186D01*
X50755042Y-73100974D01*
X50876183Y-73333000D01*
X52083000Y-73333000D01*
X52083000Y-71047000D01*
X52337000Y-71047000D01*
X52337000Y-73333000D01*
X54623000Y-73333000D01*
X54623000Y-71047000D01*
X52337000Y-71047000D01*
X52083000Y-71047000D01*
X50876183Y-71047000D01*
X50755042Y-71279026D01*
X46380000Y-71279026D01*
X46380000Y-68739026D01*
X50755042Y-68739026D01*
X50800778Y-68889814D01*
X50927316Y-69154944D01*
X51103146Y-69390293D01*
X51321512Y-69586817D01*
X51427770Y-69650000D01*
X51321512Y-69713183D01*
X51103146Y-69909707D01*
X50927316Y-70145056D01*
X50800778Y-70410186D01*
X50755042Y-70560974D01*
X50876183Y-70793000D01*
X52083000Y-70793000D01*
X52083000Y-68507000D01*
X52337000Y-68507000D01*
X52337000Y-70793000D01*
X54623000Y-70793000D01*
X54623000Y-68507000D01*
X52337000Y-68507000D01*
X52083000Y-68507000D01*
X50876183Y-68507000D01*
X50755042Y-68739026D01*
X46380000Y-68739026D01*
X46380000Y-57442845D01*
X46876761Y-57442845D01*
X47044802Y-57768643D01*
X47436607Y-57969426D01*
X47860055Y-58089914D01*
X48298873Y-58125476D01*
X48736197Y-58074746D01*
X49155221Y-57939674D01*
X49475198Y-57768643D01*
X49643239Y-57442845D01*
X142126761Y-57442845D01*
X142294802Y-57768643D01*
X142686607Y-57969426D01*
X143110055Y-58089914D01*
X143548873Y-58125476D01*
X143986197Y-58074746D01*
X144405221Y-57939674D01*
X144725198Y-57768643D01*
X144893239Y-57442845D01*
X143510000Y-56059605D01*
X142126761Y-57442845D01*
X49643239Y-57442845D01*
X48260000Y-56059605D01*
X46876761Y-57442845D01*
X46380000Y-57442845D01*
X46380000Y-57099656D01*
X46697155Y-57263239D01*
X48080395Y-55880000D01*
X48439605Y-55880000D01*
X49822845Y-57263239D01*
X50148643Y-57095198D01*
X50349426Y-56703393D01*
X50469914Y-56279945D01*
X50499175Y-55918873D01*
X141264524Y-55918873D01*
X141315254Y-56356197D01*
X141450326Y-56775221D01*
X141621357Y-57095198D01*
X141947155Y-57263239D01*
X143330395Y-55880000D01*
X141947155Y-54496761D01*
X141621357Y-54664802D01*
X141420574Y-55056607D01*
X141300086Y-55480055D01*
X141264524Y-55918873D01*
X50499175Y-55918873D01*
X50505476Y-55841127D01*
X50454746Y-55403803D01*
X50319674Y-54984779D01*
X50148643Y-54664802D01*
X49822845Y-54496761D01*
X48439605Y-55880000D01*
X48080395Y-55880000D01*
X46697155Y-54496761D01*
X46380000Y-54660344D01*
X46380000Y-54000000D01*
X47040344Y-54000000D01*
X46876761Y-54317155D01*
G37*
X46876761Y-54317155D02*
X48260000Y-55700395D01*
X49643239Y-54317155D01*
X49479656Y-54000000D01*
X142290344Y-54000000D01*
X142126761Y-54317155D01*
X143510000Y-55700395D01*
X144893239Y-54317155D01*
X144729656Y-54000000D01*
X145390000Y-54000000D01*
X145390000Y-54660344D01*
X145072845Y-54496761D01*
X143689605Y-55880000D01*
X145072845Y-57263239D01*
X145390000Y-57099656D01*
X145390001Y-105460345D01*
X145072845Y-105296761D01*
X143689605Y-106680000D01*
X145072845Y-108063239D01*
X145390001Y-107899655D01*
X145390001Y-108560000D01*
X144729656Y-108560000D01*
X144893239Y-108242845D01*
X143510000Y-106859605D01*
X142126761Y-108242845D01*
X142290344Y-108560000D01*
X49479656Y-108560000D01*
X49643239Y-108242845D01*
X48260000Y-106859605D01*
X46876761Y-108242845D01*
X47040344Y-108560000D01*
X46380000Y-108560000D01*
X46380000Y-107899656D01*
X46697155Y-108063239D01*
X48080395Y-106680000D01*
X48439605Y-106680000D01*
X49822845Y-108063239D01*
X50148643Y-107895198D01*
X50349426Y-107503393D01*
X50469914Y-107079945D01*
X50499175Y-106718873D01*
X141264524Y-106718873D01*
X141315254Y-107156197D01*
X141450326Y-107575221D01*
X141621357Y-107895198D01*
X141947155Y-108063239D01*
X143330395Y-106680000D01*
X141947155Y-105296761D01*
X141621357Y-105464802D01*
X141420574Y-105856607D01*
X141300086Y-106280055D01*
X141264524Y-106718873D01*
X50499175Y-106718873D01*
X50505476Y-106641127D01*
X50454746Y-106203803D01*
X50319674Y-105784779D01*
X50148643Y-105464802D01*
X49822845Y-105296761D01*
X48439605Y-106680000D01*
X48080395Y-106680000D01*
X46697155Y-105296761D01*
X46380000Y-105460344D01*
X46380000Y-105117155D01*
X46876761Y-105117155D01*
X48260000Y-106500395D01*
X49643239Y-105117155D01*
X142126761Y-105117155D01*
X143510000Y-106500395D01*
X144893239Y-105117155D01*
X144725198Y-104791357D01*
X144333393Y-104590574D01*
X143909945Y-104470086D01*
X143471127Y-104434524D01*
X143033803Y-104485254D01*
X142614779Y-104620326D01*
X142294802Y-104791357D01*
X142126761Y-105117155D01*
X49643239Y-105117155D01*
X49475198Y-104791357D01*
X49083393Y-104590574D01*
X48659945Y-104470086D01*
X48221127Y-104434524D01*
X47783803Y-104485254D01*
X47364779Y-104620326D01*
X47044802Y-104791357D01*
X46876761Y-105117155D01*
X46380000Y-105117155D01*
X46380000Y-98800000D01*
X48830928Y-98800000D01*
X48843188Y-98924482D01*
X48879498Y-99044180D01*
X48938463Y-99154494D01*
X49017815Y-99251185D01*
X49114506Y-99330537D01*
X49224820Y-99389502D01*
X49344518Y-99425812D01*
X49469000Y-99438072D01*
X49983250Y-99435000D01*
X50142000Y-99276250D01*
X50142000Y-98127000D01*
X48992750Y-98127000D01*
X48834000Y-98285750D01*
X48830928Y-98800000D01*
X46380000Y-98800000D01*
X46380000Y-91579117D01*
X48515000Y-91579117D01*
X48515000Y-91920883D01*
X48581675Y-92256081D01*
X48712463Y-92571831D01*
X48902337Y-92855998D01*
X49144002Y-93097663D01*
X49240000Y-93161807D01*
X49240001Y-94999603D01*
X49154363Y-95085241D01*
X48997320Y-95320273D01*
X48889147Y-95581426D01*
X48834000Y-95858665D01*
X48834000Y-96141335D01*
X48889147Y-96418574D01*
X48997320Y-96679727D01*
X49034393Y-96735210D01*
X49017815Y-96748815D01*
X48938463Y-96845506D01*
X48879498Y-96955820D01*
X48843188Y-97075518D01*
X48830928Y-97200000D01*
X48834000Y-97714250D01*
X48992750Y-97873000D01*
X50142000Y-97873000D01*
X50142000Y-97853000D01*
X50396000Y-97853000D01*
X50396000Y-97873000D01*
X50416000Y-97873000D01*
X50416000Y-98127000D01*
X50396000Y-98127000D01*
X50396000Y-99276250D01*
X50554750Y-99435000D01*
X50990000Y-99437600D01*
X50990000Y-99950392D01*
X50985114Y-100000000D01*
X50990000Y-100049607D01*
X51004615Y-100197993D01*
X51062368Y-100388379D01*
X51156153Y-100563840D01*
X51282367Y-100717633D01*
X51320906Y-100749261D01*
X54120744Y-103549100D01*
X54152367Y-103587633D01*
X54306160Y-103713847D01*
X54481620Y-103807632D01*
X54672005Y-103865385D01*
X54870000Y-103884886D01*
X54919608Y-103880000D01*
X63535590Y-103880000D01*
X63536908Y-103881972D01*
X63758028Y-104103092D01*
X64018037Y-104276824D01*
X64306943Y-104396493D01*
X64613645Y-104457500D01*
X64926355Y-104457500D01*
X65233057Y-104396493D01*
X65521963Y-104276824D01*
X65781972Y-104103092D01*
X66003092Y-103881972D01*
X66042136Y-103823539D01*
X66064208Y-103856572D01*
X66285328Y-104077692D01*
X66545337Y-104251424D01*
X66834243Y-104371093D01*
X67140945Y-104432100D01*
X67453655Y-104432100D01*
X67760357Y-104371093D01*
X68049263Y-104251424D01*
X68309272Y-104077692D01*
X68530392Y-103856572D01*
X68567300Y-103801335D01*
X68604208Y-103856572D01*
X68825328Y-104077692D01*
X69085337Y-104251424D01*
X69374243Y-104371093D01*
X69680945Y-104432100D01*
X69993655Y-104432100D01*
X70300357Y-104371093D01*
X70589263Y-104251424D01*
X70849272Y-104077692D01*
X71070392Y-103856572D01*
X71107300Y-103801335D01*
X71144208Y-103856572D01*
X71365328Y-104077692D01*
X71625337Y-104251424D01*
X71914243Y-104371093D01*
X72220945Y-104432100D01*
X72533655Y-104432100D01*
X72840357Y-104371093D01*
X73129263Y-104251424D01*
X73389272Y-104077692D01*
X73610392Y-103856572D01*
X73647300Y-103801335D01*
X73684208Y-103856572D01*
X73905328Y-104077692D01*
X74165337Y-104251424D01*
X74454243Y-104371093D01*
X74760945Y-104432100D01*
X75073655Y-104432100D01*
X75380357Y-104371093D01*
X75669263Y-104251424D01*
X75929272Y-104077692D01*
X76150392Y-103856572D01*
X76187300Y-103801335D01*
X76224208Y-103856572D01*
X76445328Y-104077692D01*
X76705337Y-104251424D01*
X76994243Y-104371093D01*
X77300945Y-104432100D01*
X77613655Y-104432100D01*
X77920357Y-104371093D01*
X78209263Y-104251424D01*
X78469272Y-104077692D01*
X78690392Y-103856572D01*
X78727300Y-103801335D01*
X78764208Y-103856572D01*
X78985328Y-104077692D01*
X79245337Y-104251424D01*
X79534243Y-104371093D01*
X79840945Y-104432100D01*
X80153655Y-104432100D01*
X80460357Y-104371093D01*
X80749263Y-104251424D01*
X81009272Y-104077692D01*
X81230392Y-103856572D01*
X81267300Y-103801335D01*
X81304208Y-103856572D01*
X81525328Y-104077692D01*
X81785337Y-104251424D01*
X82074243Y-104371093D01*
X82380945Y-104432100D01*
X82693655Y-104432100D01*
X83000357Y-104371093D01*
X83289263Y-104251424D01*
X83549272Y-104077692D01*
X83770392Y-103856572D01*
X83807300Y-103801335D01*
X83844208Y-103856572D01*
X84065328Y-104077692D01*
X84325337Y-104251424D01*
X84614243Y-104371093D01*
X84920945Y-104432100D01*
X85233655Y-104432100D01*
X85540357Y-104371093D01*
X85829263Y-104251424D01*
X86089272Y-104077692D01*
X86310392Y-103856572D01*
X86347300Y-103801335D01*
X86384208Y-103856572D01*
X86605328Y-104077692D01*
X86865337Y-104251424D01*
X87154243Y-104371093D01*
X87460945Y-104432100D01*
X87773655Y-104432100D01*
X88080357Y-104371093D01*
X88369263Y-104251424D01*
X88629272Y-104077692D01*
X88850392Y-103856572D01*
X88887300Y-103801335D01*
X88924208Y-103856572D01*
X89145328Y-104077692D01*
X89405337Y-104251424D01*
X89694243Y-104371093D01*
X90000945Y-104432100D01*
X90313655Y-104432100D01*
X90620357Y-104371093D01*
X90909263Y-104251424D01*
X91169272Y-104077692D01*
X91390392Y-103856572D01*
X91427300Y-103801335D01*
X91464208Y-103856572D01*
X91685328Y-104077692D01*
X91945337Y-104251424D01*
X92234243Y-104371093D01*
X92540945Y-104432100D01*
X92853655Y-104432100D01*
X93160357Y-104371093D01*
X93449263Y-104251424D01*
X93709272Y-104077692D01*
X93930392Y-103856572D01*
X93967300Y-103801335D01*
X94004208Y-103856572D01*
X94225328Y-104077692D01*
X94485337Y-104251424D01*
X94774243Y-104371093D01*
X95080945Y-104432100D01*
X95393655Y-104432100D01*
X95700357Y-104371093D01*
X95989263Y-104251424D01*
X96249272Y-104077692D01*
X96470392Y-103856572D01*
X96507300Y-103801335D01*
X96544208Y-103856572D01*
X96765328Y-104077692D01*
X97025337Y-104251424D01*
X97314243Y-104371093D01*
X97620945Y-104432100D01*
X97933655Y-104432100D01*
X98240357Y-104371093D01*
X98529263Y-104251424D01*
X98789272Y-104077692D01*
X99010392Y-103856572D01*
X99047300Y-103801335D01*
X99084208Y-103856572D01*
X99305328Y-104077692D01*
X99565337Y-104251424D01*
X99854243Y-104371093D01*
X100160945Y-104432100D01*
X100473655Y-104432100D01*
X100780357Y-104371093D01*
X101069263Y-104251424D01*
X101329272Y-104077692D01*
X101550392Y-103856572D01*
X101587300Y-103801335D01*
X101624208Y-103856572D01*
X101845328Y-104077692D01*
X102105337Y-104251424D01*
X102394243Y-104371093D01*
X102700945Y-104432100D01*
X103013655Y-104432100D01*
X103320357Y-104371093D01*
X103609263Y-104251424D01*
X103869272Y-104077692D01*
X104090392Y-103856572D01*
X104127300Y-103801335D01*
X104164208Y-103856572D01*
X104385328Y-104077692D01*
X104645337Y-104251424D01*
X104934243Y-104371093D01*
X105240945Y-104432100D01*
X105553655Y-104432100D01*
X105860357Y-104371093D01*
X106149263Y-104251424D01*
X106409272Y-104077692D01*
X106630392Y-103856572D01*
X106667300Y-103801335D01*
X106704208Y-103856572D01*
X106925328Y-104077692D01*
X107185337Y-104251424D01*
X107474243Y-104371093D01*
X107780945Y-104432100D01*
X108093655Y-104432100D01*
X108400357Y-104371093D01*
X108689263Y-104251424D01*
X108949272Y-104077692D01*
X109170392Y-103856572D01*
X109207300Y-103801335D01*
X109244208Y-103856572D01*
X109465328Y-104077692D01*
X109725337Y-104251424D01*
X110014243Y-104371093D01*
X110320945Y-104432100D01*
X110633655Y-104432100D01*
X110940357Y-104371093D01*
X111229263Y-104251424D01*
X111489272Y-104077692D01*
X111710392Y-103856572D01*
X111747300Y-103801335D01*
X111784208Y-103856572D01*
X112005328Y-104077692D01*
X112265337Y-104251424D01*
X112554243Y-104371093D01*
X112860945Y-104432100D01*
X113173655Y-104432100D01*
X113480357Y-104371093D01*
X113769263Y-104251424D01*
X114029272Y-104077692D01*
X114250392Y-103856572D01*
X114287300Y-103801335D01*
X114324208Y-103856572D01*
X114545328Y-104077692D01*
X114805337Y-104251424D01*
X115094243Y-104371093D01*
X115400945Y-104432100D01*
X115713655Y-104432100D01*
X116020357Y-104371093D01*
X116309263Y-104251424D01*
X116569272Y-104077692D01*
X116790392Y-103856572D01*
X116827300Y-103801335D01*
X116864208Y-103856572D01*
X117085328Y-104077692D01*
X117345337Y-104251424D01*
X117634243Y-104371093D01*
X117940945Y-104432100D01*
X118253655Y-104432100D01*
X118560357Y-104371093D01*
X118849263Y-104251424D01*
X119109272Y-104077692D01*
X119330392Y-103856572D01*
X119367300Y-103801335D01*
X119404208Y-103856572D01*
X119625328Y-104077692D01*
X119885337Y-104251424D01*
X120174243Y-104371093D01*
X120480945Y-104432100D01*
X120793655Y-104432100D01*
X121100357Y-104371093D01*
X121389263Y-104251424D01*
X121649272Y-104077692D01*
X121870392Y-103856572D01*
X121907300Y-103801335D01*
X121944208Y-103856572D01*
X122165328Y-104077692D01*
X122425337Y-104251424D01*
X122714243Y-104371093D01*
X123020945Y-104432100D01*
X123333655Y-104432100D01*
X123640357Y-104371093D01*
X123929263Y-104251424D01*
X124189272Y-104077692D01*
X124410392Y-103856572D01*
X124447300Y-103801335D01*
X124484208Y-103856572D01*
X124705328Y-104077692D01*
X124965337Y-104251424D01*
X125254243Y-104371093D01*
X125560945Y-104432100D01*
X125873655Y-104432100D01*
X126180357Y-104371093D01*
X126469263Y-104251424D01*
X126729272Y-104077692D01*
X126950392Y-103856572D01*
X126987300Y-103801335D01*
X127024208Y-103856572D01*
X127245328Y-104077692D01*
X127505337Y-104251424D01*
X127794243Y-104371093D01*
X128100945Y-104432100D01*
X128413655Y-104432100D01*
X128720357Y-104371093D01*
X129009263Y-104251424D01*
X129269272Y-104077692D01*
X129490392Y-103856572D01*
X129527300Y-103801335D01*
X129564208Y-103856572D01*
X129785328Y-104077692D01*
X130045337Y-104251424D01*
X130334243Y-104371093D01*
X130640945Y-104432100D01*
X130953655Y-104432100D01*
X131260357Y-104371093D01*
X131549263Y-104251424D01*
X131809272Y-104077692D01*
X132030392Y-103856572D01*
X132067300Y-103801335D01*
X132104208Y-103856572D01*
X132325328Y-104077692D01*
X132585337Y-104251424D01*
X132874243Y-104371093D01*
X133180945Y-104432100D01*
X133493655Y-104432100D01*
X133800357Y-104371093D01*
X134089263Y-104251424D01*
X134349272Y-104077692D01*
X134570392Y-103856572D01*
X134607300Y-103801335D01*
X134644208Y-103856572D01*
X134865328Y-104077692D01*
X135125337Y-104251424D01*
X135414243Y-104371093D01*
X135720945Y-104432100D01*
X136033655Y-104432100D01*
X136340357Y-104371093D01*
X136629263Y-104251424D01*
X136889272Y-104077692D01*
X137110392Y-103856572D01*
X137147300Y-103801335D01*
X137184208Y-103856572D01*
X137405328Y-104077692D01*
X137665337Y-104251424D01*
X137954243Y-104371093D01*
X138260945Y-104432100D01*
X138573655Y-104432100D01*
X138880357Y-104371093D01*
X139169263Y-104251424D01*
X139429272Y-104077692D01*
X139650392Y-103856572D01*
X139824124Y-103596563D01*
X139943793Y-103307657D01*
X140004800Y-103000955D01*
X140004800Y-102688245D01*
X139943793Y-102381543D01*
X139824124Y-102092637D01*
X139650392Y-101832628D01*
X139429272Y-101611508D01*
X139374035Y-101574600D01*
X139429272Y-101537692D01*
X139650392Y-101316572D01*
X139687300Y-101261335D01*
X139724208Y-101316572D01*
X139945328Y-101537692D01*
X140205337Y-101711424D01*
X140494243Y-101831093D01*
X140800945Y-101892100D01*
X141113655Y-101892100D01*
X141420357Y-101831093D01*
X141709263Y-101711424D01*
X141969272Y-101537692D01*
X142190392Y-101316572D01*
X142364124Y-101056563D01*
X142483793Y-100767657D01*
X142544800Y-100460955D01*
X142544800Y-100148245D01*
X142483793Y-99841543D01*
X142364124Y-99552637D01*
X142190392Y-99292628D01*
X141969272Y-99071508D01*
X141914035Y-99034600D01*
X141969272Y-98997692D01*
X142190392Y-98776572D01*
X142364124Y-98516563D01*
X142483793Y-98227657D01*
X142544800Y-97920955D01*
X142544800Y-97608245D01*
X142483793Y-97301543D01*
X142364124Y-97012637D01*
X142190392Y-96752628D01*
X141969272Y-96531508D01*
X141914035Y-96494600D01*
X141969272Y-96457692D01*
X142190392Y-96236572D01*
X142364124Y-95976563D01*
X142483793Y-95687657D01*
X142544800Y-95380955D01*
X142544800Y-95068245D01*
X142483793Y-94761543D01*
X142364124Y-94472637D01*
X142190392Y-94212628D01*
X141969272Y-93991508D01*
X141914035Y-93954600D01*
X141969272Y-93917692D01*
X142190392Y-93696572D01*
X142364124Y-93436563D01*
X142483793Y-93147657D01*
X142544800Y-92840955D01*
X142544800Y-92528245D01*
X142483793Y-92221543D01*
X142364124Y-91932637D01*
X142190392Y-91672628D01*
X141969272Y-91451508D01*
X141914035Y-91414600D01*
X141969272Y-91377692D01*
X142190392Y-91156572D01*
X142364124Y-90896563D01*
X142483793Y-90607657D01*
X142544800Y-90300955D01*
X142544800Y-89988245D01*
X142483793Y-89681543D01*
X142364124Y-89392637D01*
X142190392Y-89132628D01*
X141969272Y-88911508D01*
X141914035Y-88874600D01*
X141969272Y-88837692D01*
X142190392Y-88616572D01*
X142364124Y-88356563D01*
X142483793Y-88067657D01*
X142544800Y-87760955D01*
X142544800Y-87448245D01*
X142483793Y-87141543D01*
X142364124Y-86852637D01*
X142190392Y-86592628D01*
X141969272Y-86371508D01*
X141914035Y-86334600D01*
X141969272Y-86297692D01*
X142190392Y-86076572D01*
X142364124Y-85816563D01*
X142483793Y-85527657D01*
X142544800Y-85220955D01*
X142544800Y-84908245D01*
X142483793Y-84601543D01*
X142364124Y-84312637D01*
X142190392Y-84052628D01*
X141969272Y-83831508D01*
X141914035Y-83794600D01*
X141969272Y-83757692D01*
X142190392Y-83536572D01*
X142364124Y-83276563D01*
X142483793Y-82987657D01*
X142544800Y-82680955D01*
X142544800Y-82368245D01*
X142483793Y-82061543D01*
X142364124Y-81772637D01*
X142190392Y-81512628D01*
X141969272Y-81291508D01*
X141914035Y-81254600D01*
X141969272Y-81217692D01*
X142190392Y-80996572D01*
X142364124Y-80736563D01*
X142483793Y-80447657D01*
X142544800Y-80140955D01*
X142544800Y-79828245D01*
X142483793Y-79521543D01*
X142364124Y-79232637D01*
X142190392Y-78972628D01*
X141969272Y-78751508D01*
X141914035Y-78714600D01*
X141969272Y-78677692D01*
X142190392Y-78456572D01*
X142364124Y-78196563D01*
X142483793Y-77907657D01*
X142544800Y-77600955D01*
X142544800Y-77288245D01*
X142483793Y-76981543D01*
X142364124Y-76692637D01*
X142190392Y-76432628D01*
X141969272Y-76211508D01*
X141914035Y-76174600D01*
X141969272Y-76137692D01*
X142190392Y-75916572D01*
X142364124Y-75656563D01*
X142483793Y-75367657D01*
X142544800Y-75060955D01*
X142544800Y-74748245D01*
X142483793Y-74441543D01*
X142364124Y-74152637D01*
X142190392Y-73892628D01*
X141969272Y-73671508D01*
X141914035Y-73634600D01*
X141969272Y-73597692D01*
X142190392Y-73376572D01*
X142364124Y-73116563D01*
X142483793Y-72827657D01*
X142544800Y-72520955D01*
X142544800Y-72208245D01*
X142483793Y-71901543D01*
X142364124Y-71612637D01*
X142190392Y-71352628D01*
X141969272Y-71131508D01*
X141914035Y-71094600D01*
X141969272Y-71057692D01*
X142190392Y-70836572D01*
X142364124Y-70576563D01*
X142483793Y-70287657D01*
X142544800Y-69980955D01*
X142544800Y-69668245D01*
X142483793Y-69361543D01*
X142364124Y-69072637D01*
X142190392Y-68812628D01*
X141969272Y-68591508D01*
X141914035Y-68554600D01*
X141969272Y-68517692D01*
X142190392Y-68296572D01*
X142364124Y-68036563D01*
X142483793Y-67747657D01*
X142544800Y-67440955D01*
X142544800Y-67128245D01*
X142483793Y-66821543D01*
X142364124Y-66532637D01*
X142190392Y-66272628D01*
X141969272Y-66051508D01*
X141914035Y-66014600D01*
X141969272Y-65977692D01*
X142190392Y-65756572D01*
X142364124Y-65496563D01*
X142483793Y-65207657D01*
X142544800Y-64900955D01*
X142544800Y-64588245D01*
X142483793Y-64281543D01*
X142364124Y-63992637D01*
X142190392Y-63732628D01*
X141969272Y-63511508D01*
X141914035Y-63474600D01*
X141969272Y-63437692D01*
X142190392Y-63216572D01*
X142364124Y-62956563D01*
X142483793Y-62667657D01*
X142544800Y-62360955D01*
X142544800Y-62048245D01*
X142483793Y-61741543D01*
X142364124Y-61452637D01*
X142190392Y-61192628D01*
X141969272Y-60971508D01*
X141709263Y-60797776D01*
X141420357Y-60678107D01*
X141113655Y-60617100D01*
X140800945Y-60617100D01*
X140494243Y-60678107D01*
X140205337Y-60797776D01*
X139945328Y-60971508D01*
X139724208Y-61192628D01*
X139687300Y-61247865D01*
X139650392Y-61192628D01*
X139429272Y-60971508D01*
X139374035Y-60934600D01*
X139429272Y-60897692D01*
X139650392Y-60676572D01*
X139824124Y-60416563D01*
X139943793Y-60127657D01*
X140004800Y-59820955D01*
X140004800Y-59508245D01*
X139943793Y-59201543D01*
X139824124Y-58912637D01*
X139650392Y-58652628D01*
X139429272Y-58431508D01*
X139169263Y-58257776D01*
X138880357Y-58138107D01*
X138573655Y-58077100D01*
X138260945Y-58077100D01*
X137954243Y-58138107D01*
X137665337Y-58257776D01*
X137405328Y-58431508D01*
X137184208Y-58652628D01*
X137147300Y-58707865D01*
X137110392Y-58652628D01*
X136889272Y-58431508D01*
X136629263Y-58257776D01*
X136340357Y-58138107D01*
X136033655Y-58077100D01*
X135720945Y-58077100D01*
X135414243Y-58138107D01*
X135125337Y-58257776D01*
X134865328Y-58431508D01*
X134644208Y-58652628D01*
X134607300Y-58707865D01*
X134570392Y-58652628D01*
X134349272Y-58431508D01*
X134089263Y-58257776D01*
X133800357Y-58138107D01*
X133493655Y-58077100D01*
X133180945Y-58077100D01*
X132874243Y-58138107D01*
X132585337Y-58257776D01*
X132325328Y-58431508D01*
X132104208Y-58652628D01*
X132067300Y-58707865D01*
X132030392Y-58652628D01*
X131809272Y-58431508D01*
X131549263Y-58257776D01*
X131260357Y-58138107D01*
X130953655Y-58077100D01*
X130640945Y-58077100D01*
X130334243Y-58138107D01*
X130045337Y-58257776D01*
X129785328Y-58431508D01*
X129564208Y-58652628D01*
X129527300Y-58707865D01*
X129490392Y-58652628D01*
X129269272Y-58431508D01*
X129009263Y-58257776D01*
X128720357Y-58138107D01*
X128413655Y-58077100D01*
X128100945Y-58077100D01*
X127794243Y-58138107D01*
X127505337Y-58257776D01*
X127245328Y-58431508D01*
X127024208Y-58652628D01*
X126987300Y-58707865D01*
X126950392Y-58652628D01*
X126729272Y-58431508D01*
X126469263Y-58257776D01*
X126180357Y-58138107D01*
X125873655Y-58077100D01*
X125560945Y-58077100D01*
X125254243Y-58138107D01*
X124965337Y-58257776D01*
X124705328Y-58431508D01*
X124484208Y-58652628D01*
X124447300Y-58707865D01*
X124410392Y-58652628D01*
X124189272Y-58431508D01*
X123929263Y-58257776D01*
X123640357Y-58138107D01*
X123333655Y-58077100D01*
X123020945Y-58077100D01*
X122714243Y-58138107D01*
X122425337Y-58257776D01*
X122165328Y-58431508D01*
X121944208Y-58652628D01*
X121907300Y-58707865D01*
X121870392Y-58652628D01*
X121649272Y-58431508D01*
X121389263Y-58257776D01*
X121100357Y-58138107D01*
X120793655Y-58077100D01*
X120480945Y-58077100D01*
X120174243Y-58138107D01*
X119885337Y-58257776D01*
X119625328Y-58431508D01*
X119404208Y-58652628D01*
X119367300Y-58707865D01*
X119330392Y-58652628D01*
X119109272Y-58431508D01*
X118849263Y-58257776D01*
X118560357Y-58138107D01*
X118253655Y-58077100D01*
X117940945Y-58077100D01*
X117634243Y-58138107D01*
X117345337Y-58257776D01*
X117085328Y-58431508D01*
X116864208Y-58652628D01*
X116827300Y-58707865D01*
X116790392Y-58652628D01*
X116569272Y-58431508D01*
X116309263Y-58257776D01*
X116020357Y-58138107D01*
X115713655Y-58077100D01*
X115400945Y-58077100D01*
X115094243Y-58138107D01*
X114805337Y-58257776D01*
X114545328Y-58431508D01*
X114324208Y-58652628D01*
X114287300Y-58707865D01*
X114250392Y-58652628D01*
X114029272Y-58431508D01*
X113769263Y-58257776D01*
X113480357Y-58138107D01*
X113173655Y-58077100D01*
X112860945Y-58077100D01*
X112554243Y-58138107D01*
X112265337Y-58257776D01*
X112005328Y-58431508D01*
X111784208Y-58652628D01*
X111747300Y-58707865D01*
X111710392Y-58652628D01*
X111489272Y-58431508D01*
X111229263Y-58257776D01*
X110940357Y-58138107D01*
X110633655Y-58077100D01*
X110320945Y-58077100D01*
X110014243Y-58138107D01*
X109725337Y-58257776D01*
X109465328Y-58431508D01*
X109244208Y-58652628D01*
X109207300Y-58707865D01*
X109170392Y-58652628D01*
X108949272Y-58431508D01*
X108689263Y-58257776D01*
X108400357Y-58138107D01*
X108093655Y-58077100D01*
X107780945Y-58077100D01*
X107474243Y-58138107D01*
X107185337Y-58257776D01*
X106925328Y-58431508D01*
X106704208Y-58652628D01*
X106667300Y-58707865D01*
X106630392Y-58652628D01*
X106409272Y-58431508D01*
X106149263Y-58257776D01*
X105860357Y-58138107D01*
X105553655Y-58077100D01*
X105240945Y-58077100D01*
X104934243Y-58138107D01*
X104645337Y-58257776D01*
X104385328Y-58431508D01*
X104164208Y-58652628D01*
X104127300Y-58707865D01*
X104090392Y-58652628D01*
X103869272Y-58431508D01*
X103609263Y-58257776D01*
X103320357Y-58138107D01*
X103013655Y-58077100D01*
X102700945Y-58077100D01*
X102394243Y-58138107D01*
X102105337Y-58257776D01*
X101845328Y-58431508D01*
X101624208Y-58652628D01*
X101587300Y-58707865D01*
X101550392Y-58652628D01*
X101329272Y-58431508D01*
X101069263Y-58257776D01*
X100780357Y-58138107D01*
X100473655Y-58077100D01*
X100160945Y-58077100D01*
X99854243Y-58138107D01*
X99565337Y-58257776D01*
X99305328Y-58431508D01*
X99084208Y-58652628D01*
X99047300Y-58707865D01*
X99010392Y-58652628D01*
X98789272Y-58431508D01*
X98529263Y-58257776D01*
X98240357Y-58138107D01*
X97933655Y-58077100D01*
X97620945Y-58077100D01*
X97314243Y-58138107D01*
X97025337Y-58257776D01*
X96765328Y-58431508D01*
X96544208Y-58652628D01*
X96507300Y-58707865D01*
X96470392Y-58652628D01*
X96249272Y-58431508D01*
X95989263Y-58257776D01*
X95700357Y-58138107D01*
X95393655Y-58077100D01*
X95080945Y-58077100D01*
X94774243Y-58138107D01*
X94485337Y-58257776D01*
X94225328Y-58431508D01*
X94004208Y-58652628D01*
X93967300Y-58707865D01*
X93930392Y-58652628D01*
X93709272Y-58431508D01*
X93449263Y-58257776D01*
X93160357Y-58138107D01*
X92853655Y-58077100D01*
X92540945Y-58077100D01*
X92234243Y-58138107D01*
X91945337Y-58257776D01*
X91685328Y-58431508D01*
X91464208Y-58652628D01*
X91427300Y-58707865D01*
X91390392Y-58652628D01*
X91169272Y-58431508D01*
X90909263Y-58257776D01*
X90620357Y-58138107D01*
X90313655Y-58077100D01*
X90000945Y-58077100D01*
X89694243Y-58138107D01*
X89405337Y-58257776D01*
X89145328Y-58431508D01*
X88924208Y-58652628D01*
X88887300Y-58707865D01*
X88850392Y-58652628D01*
X88629272Y-58431508D01*
X88369263Y-58257776D01*
X88080357Y-58138107D01*
X87773655Y-58077100D01*
X87460945Y-58077100D01*
X87154243Y-58138107D01*
X86865337Y-58257776D01*
X86605328Y-58431508D01*
X86384208Y-58652628D01*
X86347300Y-58707865D01*
X86310392Y-58652628D01*
X86089272Y-58431508D01*
X85829263Y-58257776D01*
X85540357Y-58138107D01*
X85233655Y-58077100D01*
X84920945Y-58077100D01*
X84614243Y-58138107D01*
X84325337Y-58257776D01*
X84065328Y-58431508D01*
X83844208Y-58652628D01*
X83807300Y-58707865D01*
X83770392Y-58652628D01*
X83549272Y-58431508D01*
X83289263Y-58257776D01*
X83000357Y-58138107D01*
X82693655Y-58077100D01*
X82380945Y-58077100D01*
X82074243Y-58138107D01*
X81785337Y-58257776D01*
X81525328Y-58431508D01*
X81304208Y-58652628D01*
X81267300Y-58707865D01*
X81230392Y-58652628D01*
X81009272Y-58431508D01*
X80749263Y-58257776D01*
X80460357Y-58138107D01*
X80153655Y-58077100D01*
X79840945Y-58077100D01*
X79534243Y-58138107D01*
X79245337Y-58257776D01*
X78985328Y-58431508D01*
X78764208Y-58652628D01*
X78727300Y-58707865D01*
X78690392Y-58652628D01*
X78469272Y-58431508D01*
X78209263Y-58257776D01*
X77920357Y-58138107D01*
X77613655Y-58077100D01*
X77300945Y-58077100D01*
X76994243Y-58138107D01*
X76705337Y-58257776D01*
X76445328Y-58431508D01*
X76224208Y-58652628D01*
X76187300Y-58707865D01*
X76150392Y-58652628D01*
X75929272Y-58431508D01*
X75669263Y-58257776D01*
X75380357Y-58138107D01*
X75073655Y-58077100D01*
X74760945Y-58077100D01*
X74454243Y-58138107D01*
X74165337Y-58257776D01*
X73905328Y-58431508D01*
X73684208Y-58652628D01*
X73647300Y-58707865D01*
X73610392Y-58652628D01*
X73389272Y-58431508D01*
X73129263Y-58257776D01*
X72840357Y-58138107D01*
X72533655Y-58077100D01*
X72220945Y-58077100D01*
X71914243Y-58138107D01*
X71625337Y-58257776D01*
X71365328Y-58431508D01*
X71144208Y-58652628D01*
X71107300Y-58707865D01*
X71070392Y-58652628D01*
X70849272Y-58431508D01*
X70589263Y-58257776D01*
X70300357Y-58138107D01*
X69993655Y-58077100D01*
X69680945Y-58077100D01*
X69374243Y-58138107D01*
X69085337Y-58257776D01*
X68825328Y-58431508D01*
X68604208Y-58652628D01*
X68567300Y-58707865D01*
X68530392Y-58652628D01*
X68309272Y-58431508D01*
X68049263Y-58257776D01*
X67760357Y-58138107D01*
X67453655Y-58077100D01*
X67140945Y-58077100D01*
X66834243Y-58138107D01*
X66545337Y-58257776D01*
X66285328Y-58431508D01*
X66064208Y-58652628D01*
X66025164Y-58711061D01*
X66003092Y-58678028D01*
X65781972Y-58456908D01*
X65521963Y-58283176D01*
X65233057Y-58163507D01*
X64926355Y-58102500D01*
X64613645Y-58102500D01*
X64306943Y-58163507D01*
X64018037Y-58283176D01*
X63758028Y-58456908D01*
X63536908Y-58678028D01*
X63363176Y-58938037D01*
X63243507Y-59226943D01*
X63182500Y-59533645D01*
X63182500Y-59846355D01*
X63243507Y-60153057D01*
X63363176Y-60441963D01*
X63536908Y-60701972D01*
X63758028Y-60923092D01*
X63813265Y-60960000D01*
X63758028Y-60996908D01*
X63536908Y-61218028D01*
X63363176Y-61478037D01*
X63243507Y-61766943D01*
X63182500Y-62073645D01*
X63182500Y-62386355D01*
X63243507Y-62693057D01*
X63363176Y-62981963D01*
X63536908Y-63241972D01*
X63758028Y-63463092D01*
X63888961Y-63550578D01*
X63848070Y-63668465D01*
X64770000Y-64590395D01*
X65691930Y-63668465D01*
X65651039Y-63550578D01*
X65781972Y-63463092D01*
X66003092Y-63241972D01*
X66042136Y-63183539D01*
X66064208Y-63216572D01*
X66285328Y-63437692D01*
X66340565Y-63474600D01*
X66285328Y-63511508D01*
X66064208Y-63732628D01*
X65965333Y-63880605D01*
X65871535Y-63848070D01*
X64949605Y-64770000D01*
X65871535Y-65691930D01*
X65992890Y-65649836D01*
X66064208Y-65756572D01*
X66285328Y-65977692D01*
X66340565Y-66014600D01*
X66285328Y-66051508D01*
X66064208Y-66272628D01*
X66027300Y-66327865D01*
X65990392Y-66272628D01*
X65769272Y-66051508D01*
X65655802Y-65975690D01*
X65691930Y-65871535D01*
X64770000Y-64949605D01*
X63848070Y-65871535D01*
X63879419Y-65961912D01*
X63745328Y-66051508D01*
X63524208Y-66272628D01*
X63350476Y-66532637D01*
X63230807Y-66821543D01*
X63169800Y-67128245D01*
X63169800Y-67440955D01*
X63230807Y-67747657D01*
X63350476Y-68036563D01*
X63524208Y-68296572D01*
X63745328Y-68517692D01*
X63800565Y-68554600D01*
X63745328Y-68591508D01*
X63524208Y-68812628D01*
X63350476Y-69072637D01*
X63230807Y-69361543D01*
X63169800Y-69668245D01*
X63169800Y-69980955D01*
X63230807Y-70287657D01*
X63350476Y-70576563D01*
X63524208Y-70836572D01*
X63745328Y-71057692D01*
X63800565Y-71094600D01*
X63745328Y-71131508D01*
X63524208Y-71352628D01*
X63350476Y-71612637D01*
X63230807Y-71901543D01*
X63169800Y-72208245D01*
X63169800Y-72520955D01*
X63230807Y-72827657D01*
X63350476Y-73116563D01*
X63524208Y-73376572D01*
X63745328Y-73597692D01*
X63800565Y-73634600D01*
X63745328Y-73671508D01*
X63524208Y-73892628D01*
X63350476Y-74152637D01*
X63230807Y-74441543D01*
X63169800Y-74748245D01*
X63169800Y-75060955D01*
X63230807Y-75367657D01*
X63350476Y-75656563D01*
X63524208Y-75916572D01*
X63745328Y-76137692D01*
X63800565Y-76174600D01*
X63745328Y-76211508D01*
X63524208Y-76432628D01*
X63350476Y-76692637D01*
X63230807Y-76981543D01*
X63169800Y-77288245D01*
X63169800Y-77600955D01*
X63230807Y-77907657D01*
X63350476Y-78196563D01*
X63524208Y-78456572D01*
X63745328Y-78677692D01*
X63800565Y-78714600D01*
X63745328Y-78751508D01*
X63524208Y-78972628D01*
X63350476Y-79232637D01*
X63230807Y-79521543D01*
X63169800Y-79828245D01*
X63169800Y-80140955D01*
X63230807Y-80447657D01*
X63350476Y-80736563D01*
X63524208Y-80996572D01*
X63745328Y-81217692D01*
X63800565Y-81254600D01*
X63745328Y-81291508D01*
X63524208Y-81512628D01*
X63350476Y-81772637D01*
X63230807Y-82061543D01*
X63169800Y-82368245D01*
X63169800Y-82680955D01*
X63230807Y-82987657D01*
X63350476Y-83276563D01*
X63524208Y-83536572D01*
X63745328Y-83757692D01*
X63800565Y-83794600D01*
X63745328Y-83831508D01*
X63524208Y-84052628D01*
X63350476Y-84312637D01*
X63230807Y-84601543D01*
X63169800Y-84908245D01*
X63169800Y-85220955D01*
X63230807Y-85527657D01*
X63350476Y-85816563D01*
X63524208Y-86076572D01*
X63745328Y-86297692D01*
X63800565Y-86334600D01*
X63745328Y-86371508D01*
X63524208Y-86592628D01*
X63350476Y-86852637D01*
X63230807Y-87141543D01*
X63169800Y-87448245D01*
X63169800Y-87760955D01*
X63230807Y-88067657D01*
X63350476Y-88356563D01*
X63524208Y-88616572D01*
X63745328Y-88837692D01*
X63800565Y-88874600D01*
X63745328Y-88911508D01*
X63524208Y-89132628D01*
X63350476Y-89392637D01*
X63230807Y-89681543D01*
X63169800Y-89988245D01*
X63169800Y-90300955D01*
X63230807Y-90607657D01*
X63350476Y-90896563D01*
X63524208Y-91156572D01*
X63745328Y-91377692D01*
X63800565Y-91414600D01*
X63745328Y-91451508D01*
X63524208Y-91672628D01*
X63350476Y-91932637D01*
X63230807Y-92221543D01*
X63169800Y-92528245D01*
X63169800Y-92840955D01*
X63230807Y-93147657D01*
X63350476Y-93436563D01*
X63524208Y-93696572D01*
X63745328Y-93917692D01*
X63825922Y-93971543D01*
X63758028Y-94016908D01*
X63536908Y-94238028D01*
X63363176Y-94498037D01*
X63243507Y-94786943D01*
X63182500Y-95093645D01*
X63182500Y-95406355D01*
X63243507Y-95713057D01*
X63363176Y-96001963D01*
X63536908Y-96261972D01*
X63758028Y-96483092D01*
X63888961Y-96570578D01*
X63848070Y-96688465D01*
X64770000Y-97610395D01*
X65691930Y-96688465D01*
X65651039Y-96570578D01*
X65781972Y-96483092D01*
X66003092Y-96261972D01*
X66040000Y-96206735D01*
X66076908Y-96261972D01*
X66298028Y-96483092D01*
X66327908Y-96503057D01*
X66285328Y-96531508D01*
X66064208Y-96752628D01*
X65965333Y-96900605D01*
X65871535Y-96868070D01*
X64949605Y-97790000D01*
X65871535Y-98711930D01*
X65992890Y-98669836D01*
X66064208Y-98776572D01*
X66285328Y-98997692D01*
X66340565Y-99034600D01*
X66285328Y-99071508D01*
X66064208Y-99292628D01*
X66025164Y-99351061D01*
X66003092Y-99318028D01*
X65781972Y-99096908D01*
X65651039Y-99009422D01*
X65691930Y-98891535D01*
X64770000Y-97969605D01*
X63848070Y-98891535D01*
X63888961Y-99009422D01*
X63758028Y-99096908D01*
X63536908Y-99318028D01*
X63535590Y-99320000D01*
X61463356Y-99320000D01*
X59997830Y-97854474D01*
X63176123Y-97854474D01*
X63219328Y-98164185D01*
X63322123Y-98459516D01*
X63408919Y-98621902D01*
X63668465Y-98711930D01*
X64590395Y-97790000D01*
X63668465Y-96868070D01*
X63408919Y-96958098D01*
X63272776Y-97239616D01*
X63194171Y-97542286D01*
X63176123Y-97854474D01*
X59997830Y-97854474D01*
X58153072Y-96009717D01*
X58153072Y-95200000D01*
X58140812Y-95075518D01*
X58104502Y-94955820D01*
X58045537Y-94845506D01*
X57966185Y-94748815D01*
X57869494Y-94669463D01*
X57759180Y-94610498D01*
X57725000Y-94600130D01*
X57725000Y-93488072D01*
X57850000Y-93488072D01*
X57974482Y-93475812D01*
X58094180Y-93439502D01*
X58204494Y-93380537D01*
X58301185Y-93301185D01*
X58380537Y-93204494D01*
X58439502Y-93094180D01*
X58475812Y-92974482D01*
X58488072Y-92850000D01*
X58488072Y-90650000D01*
X58475812Y-90525518D01*
X58439502Y-90405820D01*
X58380537Y-90295506D01*
X58301185Y-90198815D01*
X58204494Y-90119463D01*
X58094180Y-90060498D01*
X57974482Y-90024188D01*
X57850000Y-90011928D01*
X55650000Y-90011928D01*
X55525518Y-90024188D01*
X55405820Y-90060498D01*
X55295506Y-90119463D01*
X55198815Y-90198815D01*
X55119463Y-90295506D01*
X55060498Y-90405820D01*
X55024188Y-90525518D01*
X55011928Y-90650000D01*
X55011928Y-92850000D01*
X55024188Y-92974482D01*
X55060498Y-93094180D01*
X55119463Y-93204494D01*
X55198815Y-93301185D01*
X55295506Y-93380537D01*
X55405820Y-93439502D01*
X55525518Y-93475812D01*
X55650000Y-93488072D01*
X55705001Y-93488072D01*
X55705000Y-94600130D01*
X55670820Y-94610498D01*
X55560506Y-94669463D01*
X55463815Y-94748815D01*
X55384463Y-94845506D01*
X55325498Y-94955820D01*
X55289188Y-95075518D01*
X55276928Y-95200000D01*
X55276928Y-96800000D01*
X55289188Y-96924482D01*
X55325498Y-97044180D01*
X55384463Y-97154494D01*
X55463815Y-97251185D01*
X55476758Y-97261807D01*
X55357429Y-97513996D01*
X55288700Y-97788184D01*
X55274783Y-98070512D01*
X55316213Y-98350130D01*
X55411397Y-98616292D01*
X55478329Y-98741514D01*
X55722298Y-98813097D01*
X56535395Y-98000000D01*
X56521253Y-97985858D01*
X56700858Y-97806253D01*
X56715000Y-97820395D01*
X56729143Y-97806253D01*
X56908748Y-97985858D01*
X56894605Y-98000000D01*
X57707702Y-98813097D01*
X57951671Y-98741514D01*
X57976238Y-98689594D01*
X60295744Y-101009100D01*
X60327367Y-101047633D01*
X60481160Y-101173847D01*
X60636916Y-101257100D01*
X60656620Y-101267632D01*
X60847005Y-101325385D01*
X61045000Y-101344886D01*
X61094608Y-101340000D01*
X63535590Y-101340000D01*
X63536908Y-101341972D01*
X63758028Y-101563092D01*
X63813265Y-101600000D01*
X63758028Y-101636908D01*
X63536908Y-101858028D01*
X63535590Y-101860000D01*
X55288356Y-101860000D01*
X53010000Y-99581645D01*
X53010000Y-98992702D01*
X55901903Y-98992702D01*
X55973486Y-99236671D01*
X56228996Y-99357571D01*
X56503184Y-99426300D01*
X56785512Y-99440217D01*
X57065130Y-99398787D01*
X57331292Y-99303603D01*
X57456514Y-99236671D01*
X57528097Y-98992702D01*
X56715000Y-98179605D01*
X55901903Y-98992702D01*
X53010000Y-98992702D01*
X53010000Y-96649238D01*
X53014886Y-96599630D01*
X52995385Y-96401635D01*
X52937632Y-96211250D01*
X52920391Y-96178994D01*
X52843847Y-96035790D01*
X52717633Y-95881997D01*
X52679094Y-95850369D01*
X52149631Y-95320906D01*
X52118003Y-95282367D01*
X51964210Y-95156153D01*
X51788750Y-95062368D01*
X51598364Y-95004615D01*
X51449978Y-94990000D01*
X51400370Y-94985114D01*
X51350762Y-94990000D01*
X51288396Y-94990000D01*
X51260000Y-94961604D01*
X51260000Y-93161807D01*
X51355998Y-93097663D01*
X51597663Y-92855998D01*
X51787537Y-92571831D01*
X51918325Y-92256081D01*
X51985000Y-91920883D01*
X51985000Y-91579117D01*
X51918325Y-91243919D01*
X51787537Y-90928169D01*
X51597663Y-90644002D01*
X51355998Y-90402337D01*
X51071831Y-90212463D01*
X50756081Y-90081675D01*
X50420883Y-90015000D01*
X50079117Y-90015000D01*
X49743919Y-90081675D01*
X49428169Y-90212463D01*
X49144002Y-90402337D01*
X48902337Y-90644002D01*
X48712463Y-90928169D01*
X48581675Y-91243919D01*
X48515000Y-91579117D01*
X46380000Y-91579117D01*
X46380000Y-83030000D01*
X48511928Y-83030000D01*
X48511928Y-85230000D01*
X48524188Y-85354482D01*
X48560498Y-85474180D01*
X48619463Y-85584494D01*
X48698815Y-85681185D01*
X48795506Y-85760537D01*
X48905820Y-85819502D01*
X49025518Y-85855812D01*
X49150000Y-85868072D01*
X51350000Y-85868072D01*
X51474482Y-85855812D01*
X51594180Y-85819502D01*
X51704494Y-85760537D01*
X51801185Y-85681185D01*
X51880537Y-85584494D01*
X51939502Y-85474180D01*
X51975812Y-85354482D01*
X51988072Y-85230000D01*
X51988072Y-83820284D01*
X52889100Y-82919256D01*
X52927633Y-82887633D01*
X53053847Y-82733840D01*
X53147632Y-82558380D01*
X53205385Y-82367994D01*
X53220000Y-82219608D01*
X53224886Y-82170000D01*
X53220000Y-82120392D01*
X53220000Y-77109341D01*
X53279364Y-77049977D01*
X53296898Y-77107780D01*
X53355863Y-77218094D01*
X53435215Y-77314785D01*
X53531906Y-77394137D01*
X53642220Y-77453102D01*
X53761918Y-77489412D01*
X53886400Y-77501672D01*
X55613600Y-77501672D01*
X55705001Y-77492670D01*
X55705001Y-82741579D01*
X55644002Y-82782337D01*
X55402337Y-83024002D01*
X55212463Y-83308169D01*
X55081675Y-83623919D01*
X55015000Y-83959117D01*
X55015000Y-84300883D01*
X55081675Y-84636081D01*
X55212463Y-84951831D01*
X55402337Y-85235998D01*
X55644002Y-85477663D01*
X55928169Y-85667537D01*
X56243919Y-85798325D01*
X56579117Y-85865000D01*
X56920883Y-85865000D01*
X57256081Y-85798325D01*
X57571831Y-85667537D01*
X57855998Y-85477663D01*
X58097663Y-85235998D01*
X58287537Y-84951831D01*
X58418325Y-84636081D01*
X58485000Y-84300883D01*
X58485000Y-83959117D01*
X58418325Y-83623919D01*
X58287537Y-83308169D01*
X58097663Y-83024002D01*
X57855998Y-82782337D01*
X57725000Y-82694807D01*
X57725000Y-67862108D01*
X57729886Y-67812500D01*
X57710385Y-67614505D01*
X57652632Y-67424120D01*
X57558846Y-67248659D01*
X57464256Y-67133400D01*
X57432633Y-67094867D01*
X57394100Y-67063244D01*
X56248600Y-65917745D01*
X56248600Y-65692401D01*
X56191010Y-65402875D01*
X56078042Y-65130147D01*
X55914039Y-64884698D01*
X55863815Y-64834474D01*
X63176123Y-64834474D01*
X63219328Y-65144185D01*
X63322123Y-65439516D01*
X63408919Y-65601902D01*
X63668465Y-65691930D01*
X64590395Y-64770000D01*
X63668465Y-63848070D01*
X63408919Y-63938098D01*
X63272776Y-64219616D01*
X63194171Y-64522286D01*
X63176123Y-64834474D01*
X55863815Y-64834474D01*
X55705302Y-64675961D01*
X55459853Y-64511958D01*
X55187125Y-64398990D01*
X54897599Y-64341400D01*
X54602401Y-64341400D01*
X54312875Y-64398990D01*
X54040147Y-64511958D01*
X53794698Y-64675961D01*
X53640659Y-64830000D01*
X53319341Y-64830000D01*
X53165302Y-64675961D01*
X52919853Y-64511958D01*
X52647125Y-64398990D01*
X52357599Y-64341400D01*
X52062401Y-64341400D01*
X51772875Y-64398990D01*
X51500147Y-64511958D01*
X51254698Y-64675961D01*
X51045961Y-64884698D01*
X50881958Y-65130147D01*
X50768990Y-65402875D01*
X50711400Y-65692401D01*
X50711400Y-65987599D01*
X50768990Y-66277125D01*
X50881958Y-66549853D01*
X51045961Y-66795302D01*
X51254698Y-67004039D01*
X51420103Y-67114559D01*
X51321512Y-67173183D01*
X51103146Y-67369707D01*
X50927316Y-67605056D01*
X50800778Y-67870186D01*
X50755042Y-68020974D01*
X50876183Y-68253000D01*
X52083000Y-68253000D01*
X52083000Y-68233000D01*
X52337000Y-68233000D01*
X52337000Y-68253000D01*
X54623000Y-68253000D01*
X54623000Y-68233000D01*
X54877000Y-68233000D01*
X54877000Y-68253000D01*
X54897000Y-68253000D01*
X54897000Y-68507000D01*
X54877000Y-68507000D01*
X54877000Y-70793000D01*
X54897000Y-70793000D01*
X54897000Y-71047000D01*
X54877000Y-71047000D01*
X54877000Y-73333000D01*
X54897000Y-73333000D01*
X54897000Y-73587000D01*
X54877000Y-73587000D01*
X54877000Y-73607000D01*
X54623000Y-73607000D01*
X54623000Y-73587000D01*
X52337000Y-73587000D01*
X52337000Y-73607000D01*
X52083000Y-73607000D01*
X52083000Y-73587000D01*
X50876183Y-73587000D01*
X50755042Y-73819026D01*
X50800778Y-73969814D01*
X50927316Y-74234944D01*
X51103146Y-74470293D01*
X51321512Y-74666817D01*
X51420103Y-74725441D01*
X51254698Y-74835961D01*
X51045961Y-75044698D01*
X50881958Y-75290147D01*
X50768990Y-75562875D01*
X50711400Y-75852401D01*
X50711400Y-76147599D01*
X50768990Y-76437125D01*
X50881958Y-76709853D01*
X51045961Y-76955302D01*
X51200000Y-77109341D01*
X51200001Y-81751643D01*
X50559716Y-82391928D01*
X49150000Y-82391928D01*
X49025518Y-82404188D01*
X48905820Y-82440498D01*
X48795506Y-82499463D01*
X48698815Y-82578815D01*
X48619463Y-82675506D01*
X48560498Y-82785820D01*
X48524188Y-82905518D01*
X48511928Y-83030000D01*
X46380000Y-83030000D01*
X46380000Y-71279026D01*
X50755042Y-71279026D01*
X50800778Y-71429814D01*
X50927316Y-71694944D01*
X51103146Y-71930293D01*
X51321512Y-72126817D01*
X51427770Y-72190000D01*
X51321512Y-72253183D01*
X51103146Y-72449707D01*
X50927316Y-72685056D01*
X50800778Y-72950186D01*
X50755042Y-73100974D01*
X50876183Y-73333000D01*
X52083000Y-73333000D01*
X52083000Y-71047000D01*
X52337000Y-71047000D01*
X52337000Y-73333000D01*
X54623000Y-73333000D01*
X54623000Y-71047000D01*
X52337000Y-71047000D01*
X52083000Y-71047000D01*
X50876183Y-71047000D01*
X50755042Y-71279026D01*
X46380000Y-71279026D01*
X46380000Y-68739026D01*
X50755042Y-68739026D01*
X50800778Y-68889814D01*
X50927316Y-69154944D01*
X51103146Y-69390293D01*
X51321512Y-69586817D01*
X51427770Y-69650000D01*
X51321512Y-69713183D01*
X51103146Y-69909707D01*
X50927316Y-70145056D01*
X50800778Y-70410186D01*
X50755042Y-70560974D01*
X50876183Y-70793000D01*
X52083000Y-70793000D01*
X52083000Y-68507000D01*
X52337000Y-68507000D01*
X52337000Y-70793000D01*
X54623000Y-70793000D01*
X54623000Y-68507000D01*
X52337000Y-68507000D01*
X52083000Y-68507000D01*
X50876183Y-68507000D01*
X50755042Y-68739026D01*
X46380000Y-68739026D01*
X46380000Y-57442845D01*
X46876761Y-57442845D01*
X47044802Y-57768643D01*
X47436607Y-57969426D01*
X47860055Y-58089914D01*
X48298873Y-58125476D01*
X48736197Y-58074746D01*
X49155221Y-57939674D01*
X49475198Y-57768643D01*
X49643239Y-57442845D01*
X142126761Y-57442845D01*
X142294802Y-57768643D01*
X142686607Y-57969426D01*
X143110055Y-58089914D01*
X143548873Y-58125476D01*
X143986197Y-58074746D01*
X144405221Y-57939674D01*
X144725198Y-57768643D01*
X144893239Y-57442845D01*
X143510000Y-56059605D01*
X142126761Y-57442845D01*
X49643239Y-57442845D01*
X48260000Y-56059605D01*
X46876761Y-57442845D01*
X46380000Y-57442845D01*
X46380000Y-57099656D01*
X46697155Y-57263239D01*
X48080395Y-55880000D01*
X48439605Y-55880000D01*
X49822845Y-57263239D01*
X50148643Y-57095198D01*
X50349426Y-56703393D01*
X50469914Y-56279945D01*
X50499175Y-55918873D01*
X141264524Y-55918873D01*
X141315254Y-56356197D01*
X141450326Y-56775221D01*
X141621357Y-57095198D01*
X141947155Y-57263239D01*
X143330395Y-55880000D01*
X141947155Y-54496761D01*
X141621357Y-54664802D01*
X141420574Y-55056607D01*
X141300086Y-55480055D01*
X141264524Y-55918873D01*
X50499175Y-55918873D01*
X50505476Y-55841127D01*
X50454746Y-55403803D01*
X50319674Y-54984779D01*
X50148643Y-54664802D01*
X49822845Y-54496761D01*
X48439605Y-55880000D01*
X48080395Y-55880000D01*
X46697155Y-54496761D01*
X46380000Y-54660344D01*
X46380000Y-54000000D01*
X47040344Y-54000000D01*
X46876761Y-54317155D01*
M02*
