G04 #@! TF.GenerationSoftware,KiCad,Pcbnew,5.1.6-c6e7f7d~87~ubuntu20.04.1*
G04 #@! TF.CreationDate,2020-10-18T20:32:00-04:00*
G04 #@! TF.ProjectId,kosmo_proto,6b6f736d-6f5f-4707-926f-746f2e6b6963,rev?*
G04 #@! TF.SameCoordinates,Original*
G04 #@! TF.FileFunction,Copper,L2,Bot*
G04 #@! TF.FilePolarity,Positive*
%FSLAX46Y46*%
G04 Gerber Fmt 4.6, Leading zero omitted, Abs format (unit mm)*
G04 Created by KiCad (PCBNEW 5.1.6-c6e7f7d~87~ubuntu20.04.1) date 2020-10-18 20:32:00*
%MOMM*%
%LPD*%
G01*
G04 APERTURE LIST*
G04 #@! TA.AperFunction,ComponentPad*
%ADD10O,2.200000X2.200000*%
G04 #@! TD*
G04 #@! TA.AperFunction,ComponentPad*
%ADD11R,2.200000X2.200000*%
G04 #@! TD*
G04 #@! TA.AperFunction,ComponentPad*
%ADD12O,1.727200X1.727200*%
G04 #@! TD*
G04 #@! TA.AperFunction,ComponentPad*
%ADD13R,1.727200X1.727200*%
G04 #@! TD*
G04 #@! TA.AperFunction,ComponentPad*
%ADD14C,1.905000*%
G04 #@! TD*
G04 #@! TA.AperFunction,ComponentPad*
%ADD15C,1.600000*%
G04 #@! TD*
G04 #@! TA.AperFunction,ComponentPad*
%ADD16R,1.600000X1.600000*%
G04 #@! TD*
G04 #@! TA.AperFunction,Conductor*
%ADD17C,2.032000*%
G04 #@! TD*
G04 #@! TA.AperFunction,Conductor*
%ADD18C,0.750000*%
G04 #@! TD*
G04 #@! TA.AperFunction,Conductor*
%ADD19C,0.254000*%
G04 #@! TD*
G04 APERTURE END LIST*
D10*
X56750000Y-84130000D03*
D11*
X56750000Y-91750000D03*
D10*
X50250000Y-91750000D03*
D11*
X50250000Y-84130000D03*
D12*
X52210000Y-65840000D03*
X54750000Y-65840000D03*
X52210000Y-68380000D03*
X54750000Y-68380000D03*
X52210000Y-70920000D03*
X54750000Y-70920000D03*
X52210000Y-73460000D03*
X54750000Y-73460000D03*
X52210000Y-76000000D03*
D13*
X54750000Y-76000000D03*
D14*
X74917300Y-59664600D03*
X69837300Y-97764600D03*
X74917300Y-102844600D03*
X74917300Y-100304600D03*
X72377300Y-102844600D03*
X74917300Y-97764600D03*
X79997300Y-102844600D03*
X77457300Y-62204600D03*
X67297300Y-97764600D03*
X79997300Y-82524600D03*
X77457300Y-90144600D03*
X77457300Y-74904600D03*
X74917300Y-72364600D03*
X77457300Y-87604600D03*
X79997300Y-92684600D03*
X74917300Y-74904600D03*
X79997300Y-79984600D03*
X74917300Y-79984600D03*
X74917300Y-82524600D03*
X77457300Y-67284600D03*
X77457300Y-69824600D03*
X77457300Y-82524600D03*
X74917300Y-77444600D03*
X80010000Y-95250000D03*
X77457300Y-77444600D03*
X79997300Y-90144600D03*
X77457300Y-85064600D03*
X74917300Y-67284600D03*
X79997300Y-77444600D03*
X74917300Y-92684600D03*
X79997300Y-74904600D03*
X77457300Y-92684600D03*
X77470000Y-95250000D03*
X74917300Y-85064600D03*
X77457300Y-79984600D03*
X79997300Y-87604600D03*
X74917300Y-69824600D03*
X79997300Y-69824600D03*
X74917300Y-87604600D03*
X74930000Y-95250000D03*
X72377300Y-62204600D03*
X67297300Y-59664600D03*
X79997300Y-59664600D03*
X67297300Y-102844600D03*
X72377300Y-100304600D03*
X67297300Y-64744600D03*
X67297300Y-100304600D03*
X69837300Y-102844600D03*
X79997300Y-64744600D03*
X77457300Y-97764600D03*
X77457300Y-59664600D03*
X69837300Y-100304600D03*
X69837300Y-64744600D03*
X69837300Y-69824600D03*
X64757300Y-67284600D03*
X79997300Y-85064600D03*
X79997300Y-67284600D03*
X74917300Y-90144600D03*
X77457300Y-72364600D03*
X79997300Y-72364600D03*
X72377300Y-82524600D03*
X72377300Y-92684600D03*
X72377300Y-79984600D03*
X72390000Y-95250000D03*
X72377300Y-90144600D03*
X72377300Y-77444600D03*
X72377300Y-74904600D03*
X72377300Y-87604600D03*
X72377300Y-69824600D03*
X72377300Y-85064600D03*
X72377300Y-67284600D03*
X72377300Y-72364600D03*
X69837300Y-90144600D03*
X69837300Y-74904600D03*
X69837300Y-87604600D03*
X69837300Y-67284600D03*
X69837300Y-82524600D03*
X69837300Y-77444600D03*
X69837300Y-85064600D03*
X69837300Y-92684600D03*
X69850000Y-95250000D03*
X69837300Y-79984600D03*
X69837300Y-72364600D03*
X67297300Y-72364600D03*
X67297300Y-74904600D03*
X67297300Y-79984600D03*
X67297300Y-82524600D03*
X67297300Y-77444600D03*
X67297300Y-67284600D03*
X67297300Y-92684600D03*
X67297300Y-85064600D03*
X67297300Y-69824600D03*
X67297300Y-87604600D03*
X67310000Y-95250000D03*
X67297300Y-90144600D03*
X64757300Y-69824600D03*
X64757300Y-72364600D03*
X64757300Y-74904600D03*
X64757300Y-77444600D03*
X64757300Y-79984600D03*
X64757300Y-82524600D03*
X64757300Y-85064600D03*
X64757300Y-87604600D03*
X64757300Y-90144600D03*
X64757300Y-92684600D03*
X64770000Y-59690000D03*
X64770000Y-102870000D03*
X64770000Y-64770000D03*
X64770000Y-97790000D03*
X64770000Y-62230000D03*
X64770000Y-100330000D03*
X64770000Y-95250000D03*
X69837300Y-62204600D03*
X77457300Y-102844600D03*
X74917300Y-62204600D03*
X79997300Y-97764600D03*
X79997300Y-100304600D03*
X72377300Y-59664600D03*
D15*
X56715000Y-98000000D03*
D16*
X56715000Y-96000000D03*
D14*
X77457300Y-64744600D03*
D15*
X50269000Y-96000000D03*
D16*
X50269000Y-98000000D03*
D14*
X67297300Y-62204600D03*
X79997300Y-62204600D03*
X74917300Y-64744600D03*
X69837300Y-59664600D03*
X72377300Y-64744600D03*
X72377300Y-97764600D03*
X77457300Y-100304600D03*
X110477300Y-102844600D03*
X125717300Y-102844600D03*
X138417300Y-102844600D03*
X128257300Y-102844600D03*
X133337300Y-102844600D03*
X85077300Y-102844600D03*
X92697300Y-102844600D03*
X97777300Y-102844600D03*
X100317300Y-102844600D03*
X102857300Y-102844600D03*
X95237300Y-102844600D03*
X118097300Y-102844600D03*
X113017300Y-102844600D03*
X115557300Y-102844600D03*
X130797300Y-102844600D03*
X105397300Y-102844600D03*
X123177300Y-102844600D03*
X82537300Y-102844600D03*
X90157300Y-102844600D03*
X87617300Y-102844600D03*
X135877300Y-102844600D03*
X120637300Y-102844600D03*
X107937300Y-102844600D03*
X110477300Y-100304600D03*
X125717300Y-100304600D03*
X138417300Y-100304600D03*
X128257300Y-100304600D03*
X133337300Y-100304600D03*
X140957300Y-100304600D03*
X85077300Y-100304600D03*
X92697300Y-100304600D03*
X97777300Y-100304600D03*
X100317300Y-100304600D03*
X102857300Y-100304600D03*
X95237300Y-100304600D03*
X118097300Y-100304600D03*
X113017300Y-100304600D03*
X115557300Y-100304600D03*
X130797300Y-100304600D03*
X105397300Y-100304600D03*
X123177300Y-100304600D03*
X82537300Y-100304600D03*
X90157300Y-100304600D03*
X87617300Y-100304600D03*
X135877300Y-100304600D03*
X120637300Y-100304600D03*
X107937300Y-100304600D03*
X110477300Y-97764600D03*
X125717300Y-97764600D03*
X138417300Y-97764600D03*
X128257300Y-97764600D03*
X133337300Y-97764600D03*
X140957300Y-97764600D03*
X85077300Y-97764600D03*
X92697300Y-97764600D03*
X97777300Y-97764600D03*
X100317300Y-97764600D03*
X102857300Y-97764600D03*
X95237300Y-97764600D03*
X118097300Y-97764600D03*
X113017300Y-97764600D03*
X115557300Y-97764600D03*
X130797300Y-97764600D03*
X105397300Y-97764600D03*
X123177300Y-97764600D03*
X82537300Y-97764600D03*
X90157300Y-97764600D03*
X87617300Y-97764600D03*
X135877300Y-97764600D03*
X120637300Y-97764600D03*
X107937300Y-97764600D03*
X110477300Y-59664600D03*
X125717300Y-59664600D03*
X138417300Y-59664600D03*
X128257300Y-59664600D03*
X133337300Y-59664600D03*
X85077300Y-59664600D03*
X92697300Y-59664600D03*
X97777300Y-59664600D03*
X100317300Y-59664600D03*
X102857300Y-59664600D03*
X95237300Y-59664600D03*
X118097300Y-59664600D03*
X113017300Y-59664600D03*
X115557300Y-59664600D03*
X130797300Y-59664600D03*
X105397300Y-59664600D03*
X123177300Y-59664600D03*
X82537300Y-59664600D03*
X90157300Y-59664600D03*
X87617300Y-59664600D03*
X135877300Y-59664600D03*
X120637300Y-59664600D03*
X107937300Y-59664600D03*
X110477300Y-62204600D03*
X125717300Y-62204600D03*
X138417300Y-62204600D03*
X128257300Y-62204600D03*
X133337300Y-62204600D03*
X140957300Y-62204600D03*
X85077300Y-62204600D03*
X92697300Y-62204600D03*
X97777300Y-62204600D03*
X100317300Y-62204600D03*
X102857300Y-62204600D03*
X95237300Y-62204600D03*
X118097300Y-62204600D03*
X113017300Y-62204600D03*
X115557300Y-62204600D03*
X130797300Y-62204600D03*
X105397300Y-62204600D03*
X123177300Y-62204600D03*
X82537300Y-62204600D03*
X90157300Y-62204600D03*
X87617300Y-62204600D03*
X135877300Y-62204600D03*
X120637300Y-62204600D03*
X107937300Y-62204600D03*
X110477300Y-64744600D03*
X125717300Y-64744600D03*
X138417300Y-64744600D03*
X128257300Y-64744600D03*
X133337300Y-64744600D03*
X140957300Y-64744600D03*
X85077300Y-64744600D03*
X92697300Y-64744600D03*
X97777300Y-64744600D03*
X100317300Y-64744600D03*
X102857300Y-64744600D03*
X95237300Y-64744600D03*
X118097300Y-64744600D03*
X113017300Y-64744600D03*
X115557300Y-64744600D03*
X130797300Y-64744600D03*
X105397300Y-64744600D03*
X123177300Y-64744600D03*
X82537300Y-64744600D03*
X90157300Y-64744600D03*
X87617300Y-64744600D03*
X135877300Y-64744600D03*
X120637300Y-64744600D03*
X107937300Y-64744600D03*
X140957300Y-82524600D03*
X140957300Y-79984600D03*
X140957300Y-87604600D03*
X140957300Y-92684600D03*
X140957300Y-90144600D03*
X140957300Y-95224600D03*
X140957300Y-85064600D03*
X140957300Y-67284600D03*
X140957300Y-77444600D03*
X140957300Y-69824600D03*
X140957300Y-72364600D03*
X140957300Y-74904600D03*
X110477300Y-82524600D03*
X130797300Y-74904600D03*
X107937300Y-90144600D03*
X130797300Y-77444600D03*
X120637300Y-90144600D03*
X120637300Y-72364600D03*
X128257300Y-72364600D03*
X133337300Y-85064600D03*
X125717300Y-69824600D03*
X107937300Y-74904600D03*
X105397300Y-72364600D03*
X135877300Y-77444600D03*
X107937300Y-87604600D03*
X135877300Y-72364600D03*
X138417300Y-87604600D03*
X118097300Y-90144600D03*
X138417300Y-77444600D03*
X125717300Y-82524600D03*
X110477300Y-92684600D03*
X105397300Y-74904600D03*
X133337300Y-72364600D03*
X135877300Y-82524600D03*
X128257300Y-82524600D03*
X123177300Y-87604600D03*
X115557300Y-77444600D03*
X113017300Y-79984600D03*
X135877300Y-67284600D03*
X118097300Y-92684600D03*
X123177300Y-79984600D03*
X138417300Y-79984600D03*
X125717300Y-90144600D03*
X123177300Y-67284600D03*
X125717300Y-79984600D03*
X118097300Y-87604600D03*
X118097300Y-74904600D03*
X133337300Y-79984600D03*
X130797300Y-90144600D03*
X113030000Y-95250000D03*
X120637300Y-69824600D03*
X133337300Y-82524600D03*
X115557300Y-79984600D03*
X113017300Y-67284600D03*
X133337300Y-69824600D03*
X128257300Y-87604600D03*
X125717300Y-85064600D03*
X110477300Y-79984600D03*
X115570000Y-95250000D03*
X113017300Y-90144600D03*
X115557300Y-82524600D03*
X105397300Y-79984600D03*
X138417300Y-67284600D03*
X105397300Y-82524600D03*
X130797300Y-85064600D03*
X123190000Y-95250000D03*
X118097300Y-82524600D03*
X107937300Y-67284600D03*
X123177300Y-77444600D03*
X125730000Y-95250000D03*
X138417300Y-85064600D03*
X113017300Y-87604600D03*
X130797300Y-79984600D03*
X135877300Y-90144600D03*
X115557300Y-90144600D03*
X118097300Y-79984600D03*
X123177300Y-90144600D03*
X138417300Y-72364600D03*
X113017300Y-92684600D03*
X118097300Y-67284600D03*
X138417300Y-74904600D03*
X107937300Y-69824600D03*
X107937300Y-82524600D03*
X128257300Y-79984600D03*
X125717300Y-74904600D03*
X105397300Y-77444600D03*
X120637300Y-92684600D03*
X110490000Y-95250000D03*
X133337300Y-90144600D03*
X130797300Y-69824600D03*
X107937300Y-77444600D03*
X133337300Y-92684600D03*
X113017300Y-74904600D03*
X123177300Y-82524600D03*
X123177300Y-72364600D03*
X130797300Y-82524600D03*
X130797300Y-72364600D03*
X138430000Y-95250000D03*
X110477300Y-90144600D03*
X130797300Y-87604600D03*
X130810000Y-95250000D03*
X113017300Y-69824600D03*
X115557300Y-69824600D03*
X107937300Y-85064600D03*
X133337300Y-74904600D03*
X105397300Y-67284600D03*
X110477300Y-77444600D03*
X138417300Y-82524600D03*
X125717300Y-87604600D03*
X105397300Y-92684600D03*
X113017300Y-72364600D03*
X138417300Y-90144600D03*
X110477300Y-74904600D03*
X107937300Y-92684600D03*
X128257300Y-90144600D03*
X115557300Y-74904600D03*
X125717300Y-72364600D03*
X113017300Y-77444600D03*
X138417300Y-69824600D03*
X120637300Y-74904600D03*
X107950000Y-95250000D03*
X105397300Y-85064600D03*
X128257300Y-77444600D03*
X135877300Y-69824600D03*
X123177300Y-85064600D03*
X118097300Y-85064600D03*
X128257300Y-85064600D03*
X113017300Y-82524600D03*
X107937300Y-79984600D03*
X123177300Y-69824600D03*
X128270000Y-95250000D03*
X110477300Y-87604600D03*
X133350000Y-95250000D03*
X105397300Y-69824600D03*
X110477300Y-69824600D03*
X115557300Y-72364600D03*
X115557300Y-92684600D03*
X135877300Y-74904600D03*
X115557300Y-87604600D03*
X123177300Y-92684600D03*
X128257300Y-67284600D03*
X105397300Y-87604600D03*
X128257300Y-69824600D03*
X130797300Y-67284600D03*
X118097300Y-72364600D03*
X115557300Y-85064600D03*
X120637300Y-77444600D03*
X125717300Y-92684600D03*
X125717300Y-77444600D03*
X118097300Y-69824600D03*
X135877300Y-92684600D03*
X118097300Y-77444600D03*
X105410000Y-95250000D03*
X120637300Y-82524600D03*
X110477300Y-85064600D03*
X135877300Y-85064600D03*
X120637300Y-79984600D03*
X128257300Y-92684600D03*
X110477300Y-67284600D03*
X118110000Y-95250000D03*
X123177300Y-74904600D03*
X125717300Y-67284600D03*
X133337300Y-87604600D03*
X120637300Y-85064600D03*
X130797300Y-92684600D03*
X105397300Y-90144600D03*
X120650000Y-95250000D03*
X113017300Y-85064600D03*
X135877300Y-79984600D03*
X133337300Y-67284600D03*
X135877300Y-87604600D03*
X133337300Y-77444600D03*
X138417300Y-92684600D03*
X120637300Y-67284600D03*
X107937300Y-72364600D03*
X120637300Y-87604600D03*
X128257300Y-74904600D03*
X135890000Y-95250000D03*
X115557300Y-67284600D03*
X110477300Y-72364600D03*
X100317300Y-74904600D03*
X100317300Y-77444600D03*
X97777300Y-72364600D03*
X102857300Y-85064600D03*
X95237300Y-69824600D03*
X95237300Y-82524600D03*
X102857300Y-72364600D03*
X97777300Y-82524600D03*
X95237300Y-90144600D03*
X95237300Y-79984600D03*
X102857300Y-79984600D03*
X100317300Y-90144600D03*
X102857300Y-82524600D03*
X102857300Y-69824600D03*
X97777300Y-87604600D03*
X95237300Y-85064600D03*
X100317300Y-85064600D03*
X95250000Y-95250000D03*
X100317300Y-79984600D03*
X97777300Y-79984600D03*
X95237300Y-74904600D03*
X102857300Y-90144600D03*
X100317300Y-69824600D03*
X102857300Y-92684600D03*
X100317300Y-82524600D03*
X100317300Y-72364600D03*
X100317300Y-87604600D03*
X100330000Y-95250000D03*
X102857300Y-74904600D03*
X95237300Y-87604600D03*
X97777300Y-90144600D03*
X95237300Y-72364600D03*
X97777300Y-77444600D03*
X97777300Y-85064600D03*
X97790000Y-95250000D03*
X102870000Y-95250000D03*
X97777300Y-67284600D03*
X97777300Y-69824600D03*
X100317300Y-67284600D03*
X95237300Y-92684600D03*
X95237300Y-77444600D03*
X97777300Y-92684600D03*
X95237300Y-67284600D03*
X102857300Y-87604600D03*
X100317300Y-92684600D03*
X102857300Y-67284600D03*
X102857300Y-77444600D03*
X97777300Y-74904600D03*
X90157300Y-90144600D03*
X90157300Y-72364600D03*
X87617300Y-90144600D03*
X92697300Y-87604600D03*
X85077300Y-77444600D03*
X87617300Y-92684600D03*
X92697300Y-79984600D03*
X92697300Y-67284600D03*
X87617300Y-87604600D03*
X87617300Y-74904600D03*
X90157300Y-69824600D03*
X85077300Y-79984600D03*
X85090000Y-95250000D03*
X85077300Y-82524600D03*
X92710000Y-95250000D03*
X87617300Y-82524600D03*
X92697300Y-77444600D03*
X85077300Y-90144600D03*
X87617300Y-79984600D03*
X92697300Y-90144600D03*
X87617300Y-67284600D03*
X90157300Y-92684600D03*
X92697300Y-82524600D03*
X92697300Y-72364600D03*
X85077300Y-69824600D03*
X85077300Y-74904600D03*
X90157300Y-74904600D03*
X92697300Y-85064600D03*
X87617300Y-85064600D03*
X92697300Y-69824600D03*
X85077300Y-72364600D03*
X85077300Y-92684600D03*
X85077300Y-87604600D03*
X92697300Y-92684600D03*
X87617300Y-72364600D03*
X85077300Y-85064600D03*
X90157300Y-77444600D03*
X87617300Y-69824600D03*
X87617300Y-77444600D03*
X90157300Y-82524600D03*
X90157300Y-79984600D03*
X87630000Y-95250000D03*
X92697300Y-74904600D03*
X90157300Y-85064600D03*
X90170000Y-95250000D03*
X90157300Y-67284600D03*
X90157300Y-87604600D03*
X85077300Y-67284600D03*
X82537300Y-79984600D03*
X82550000Y-95250000D03*
X82537300Y-67284600D03*
X82537300Y-90144600D03*
X82537300Y-87604600D03*
X82537300Y-92684600D03*
X82537300Y-74904600D03*
X82537300Y-69824600D03*
X82537300Y-72364600D03*
X82537300Y-77444600D03*
X82537300Y-82524600D03*
X82537300Y-85064600D03*
D17*
X67297300Y-79984600D02*
X64820809Y-79984600D01*
X67297300Y-67284600D02*
X67297300Y-77444600D01*
X64770000Y-67310000D02*
X64770000Y-77470000D01*
X69850000Y-67310000D02*
X69850000Y-77470000D01*
X72390000Y-67310000D02*
X72390000Y-77470000D01*
X72390000Y-67310000D02*
X72390000Y-77470000D01*
X64770000Y-67310000D02*
X64770000Y-77470000D01*
X69850000Y-67310000D02*
X69850000Y-77470000D01*
X67297300Y-67284600D02*
X67297300Y-77444600D01*
X74930000Y-67310000D02*
X74930000Y-77470000D01*
X80010000Y-67310000D02*
X80010000Y-77470000D01*
X77457300Y-67284600D02*
X77457300Y-77444600D01*
X82550000Y-67310000D02*
X82550000Y-77470000D01*
X90170000Y-67310000D02*
X90170000Y-77470000D01*
X85090000Y-67310000D02*
X85090000Y-77470000D01*
X92710000Y-67310000D02*
X92710000Y-77470000D01*
X87617300Y-67284600D02*
X87617300Y-77444600D01*
X97777300Y-67284600D02*
X97777300Y-77444600D01*
X100330000Y-67310000D02*
X100330000Y-77470000D01*
X102870000Y-67310000D02*
X102870000Y-77470000D01*
X95250000Y-67310000D02*
X95250000Y-77470000D01*
X110490000Y-67310000D02*
X110490000Y-77470000D01*
X105410000Y-67310000D02*
X105410000Y-77470000D01*
X113030000Y-67310000D02*
X113030000Y-77470000D01*
X107937300Y-67284600D02*
X107937300Y-77444600D01*
X123190000Y-67310000D02*
X123190000Y-77470000D01*
X118097300Y-67284600D02*
X118097300Y-77444600D01*
X115570000Y-67310000D02*
X115570000Y-77470000D01*
X120650000Y-67310000D02*
X120650000Y-77470000D01*
X133350000Y-67310000D02*
X133350000Y-77470000D01*
X125730000Y-67310000D02*
X125730000Y-77470000D01*
X130810000Y-67310000D02*
X130810000Y-77470000D01*
X128257300Y-67284600D02*
X128257300Y-77444600D01*
X133350000Y-85090000D02*
X133350000Y-95250000D01*
X128257300Y-85064600D02*
X128257300Y-95224600D01*
X125730000Y-85090000D02*
X125730000Y-95250000D01*
X130810000Y-85090000D02*
X130810000Y-95250000D01*
X120650000Y-85090000D02*
X120650000Y-95250000D01*
X118097300Y-85064600D02*
X118097300Y-95224600D01*
X115570000Y-85090000D02*
X115570000Y-95250000D01*
X123190000Y-85090000D02*
X123190000Y-95250000D01*
X110490000Y-85090000D02*
X110490000Y-95250000D01*
X105410000Y-85090000D02*
X105410000Y-95250000D01*
X113030000Y-85090000D02*
X113030000Y-95250000D01*
X107937300Y-85064600D02*
X107937300Y-95224600D01*
X102870000Y-85090000D02*
X102870000Y-95250000D01*
X95250000Y-85090000D02*
X95250000Y-95250000D01*
X97777300Y-85064600D02*
X97777300Y-95224600D01*
X100330000Y-85090000D02*
X100330000Y-95250000D01*
X85090000Y-85090000D02*
X85090000Y-95250000D01*
X90170000Y-85090000D02*
X90170000Y-95250000D01*
X87617300Y-85064600D02*
X87617300Y-95224600D01*
X92710000Y-85090000D02*
X92710000Y-95250000D01*
X74930000Y-85090000D02*
X74930000Y-95250000D01*
X82550000Y-85090000D02*
X82550000Y-95250000D01*
X80010000Y-85090000D02*
X80010000Y-95250000D01*
X77457300Y-85064600D02*
X77457300Y-95224600D01*
X72390000Y-85090000D02*
X72390000Y-95250000D01*
X69850000Y-85090000D02*
X69850000Y-95250000D01*
X67297300Y-85064600D02*
X67297300Y-95224600D01*
X64770000Y-85090000D02*
X64770000Y-95250000D01*
X138430000Y-67310000D02*
X138430000Y-77470000D01*
X138417300Y-85064600D02*
X138417300Y-95224600D01*
X135890000Y-85090000D02*
X135890000Y-95250000D01*
X135890000Y-67310000D02*
X135890000Y-77470000D01*
X140970000Y-67310000D02*
X140970000Y-77470000D01*
X140970000Y-85090000D02*
X140970000Y-95250000D01*
X140957300Y-82524600D02*
X64757300Y-82524600D01*
X140957300Y-79984600D02*
X138417300Y-79984600D01*
X67297300Y-79984600D02*
X140957300Y-79984600D01*
X64770000Y-97790000D02*
X140970000Y-97790000D01*
X64795000Y-64773000D02*
X140995000Y-64773000D01*
X64770000Y-100330000D02*
X140970000Y-100330000D01*
X140970000Y-62230000D02*
X64770000Y-62230000D01*
D18*
X64540000Y-62000000D02*
X64770000Y-62230000D01*
X62000000Y-62000000D02*
X64540000Y-62000000D01*
X58575001Y-65424999D02*
X62000000Y-62000000D01*
X58575001Y-89924999D02*
X58575001Y-65424999D01*
X56750000Y-91750000D02*
X58575001Y-89924999D01*
D17*
X64770000Y-59690000D02*
X138430000Y-59690000D01*
X138430000Y-102870000D02*
X64770000Y-102870000D01*
D18*
X61310000Y-59690000D02*
X64770000Y-59690000D01*
X57000000Y-64000000D02*
X61310000Y-59690000D01*
X57000000Y-81160000D02*
X57000000Y-64000000D01*
X50250000Y-87910000D02*
X57000000Y-81160000D01*
X50250000Y-91750000D02*
X50250000Y-87910000D01*
D19*
G36*
X46876761Y-54317155D02*
G01*
X48260000Y-55700395D01*
X49643239Y-54317155D01*
X49479656Y-54000000D01*
X142290344Y-54000000D01*
X142126761Y-54317155D01*
X143510000Y-55700395D01*
X144893239Y-54317155D01*
X144729656Y-54000000D01*
X145390000Y-54000000D01*
X145390000Y-54660344D01*
X145072845Y-54496761D01*
X143689605Y-55880000D01*
X145072845Y-57263239D01*
X145390000Y-57099656D01*
X145390001Y-105460345D01*
X145072845Y-105296761D01*
X143689605Y-106680000D01*
X145072845Y-108063239D01*
X145390001Y-107899655D01*
X145390001Y-108560000D01*
X144729656Y-108560000D01*
X144893239Y-108242845D01*
X143510000Y-106859605D01*
X142126761Y-108242845D01*
X142290344Y-108560000D01*
X49479656Y-108560000D01*
X49643239Y-108242845D01*
X48260000Y-106859605D01*
X46876761Y-108242845D01*
X47040344Y-108560000D01*
X46380000Y-108560000D01*
X46380000Y-107899656D01*
X46697155Y-108063239D01*
X48080395Y-106680000D01*
X48439605Y-106680000D01*
X49822845Y-108063239D01*
X50148643Y-107895198D01*
X50349426Y-107503393D01*
X50469914Y-107079945D01*
X50499175Y-106718873D01*
X141264524Y-106718873D01*
X141315254Y-107156197D01*
X141450326Y-107575221D01*
X141621357Y-107895198D01*
X141947155Y-108063239D01*
X143330395Y-106680000D01*
X141947155Y-105296761D01*
X141621357Y-105464802D01*
X141420574Y-105856607D01*
X141300086Y-106280055D01*
X141264524Y-106718873D01*
X50499175Y-106718873D01*
X50505476Y-106641127D01*
X50454746Y-106203803D01*
X50319674Y-105784779D01*
X50148643Y-105464802D01*
X49822845Y-105296761D01*
X48439605Y-106680000D01*
X48080395Y-106680000D01*
X46697155Y-105296761D01*
X46380000Y-105460344D01*
X46380000Y-105117155D01*
X46876761Y-105117155D01*
X48260000Y-106500395D01*
X49643239Y-105117155D01*
X142126761Y-105117155D01*
X143510000Y-106500395D01*
X144893239Y-105117155D01*
X144725198Y-104791357D01*
X144333393Y-104590574D01*
X143909945Y-104470086D01*
X143471127Y-104434524D01*
X143033803Y-104485254D01*
X142614779Y-104620326D01*
X142294802Y-104791357D01*
X142126761Y-105117155D01*
X49643239Y-105117155D01*
X49475198Y-104791357D01*
X49083393Y-104590574D01*
X48659945Y-104470086D01*
X48221127Y-104434524D01*
X47783803Y-104485254D01*
X47364779Y-104620326D01*
X47044802Y-104791357D01*
X46876761Y-105117155D01*
X46380000Y-105117155D01*
X46380000Y-98800000D01*
X48830928Y-98800000D01*
X48843188Y-98924482D01*
X48879498Y-99044180D01*
X48938463Y-99154494D01*
X49017815Y-99251185D01*
X49114506Y-99330537D01*
X49224820Y-99389502D01*
X49344518Y-99425812D01*
X49469000Y-99438072D01*
X49983250Y-99435000D01*
X50142000Y-99276250D01*
X50142000Y-98127000D01*
X50396000Y-98127000D01*
X50396000Y-99276250D01*
X50554750Y-99435000D01*
X51069000Y-99438072D01*
X51193482Y-99425812D01*
X51313180Y-99389502D01*
X51423494Y-99330537D01*
X51520185Y-99251185D01*
X51599537Y-99154494D01*
X51658502Y-99044180D01*
X51674117Y-98992702D01*
X55901903Y-98992702D01*
X55973486Y-99236671D01*
X56228996Y-99357571D01*
X56503184Y-99426300D01*
X56785512Y-99440217D01*
X57065130Y-99398787D01*
X57331292Y-99303603D01*
X57456514Y-99236671D01*
X57528097Y-98992702D01*
X56715000Y-98179605D01*
X55901903Y-98992702D01*
X51674117Y-98992702D01*
X51694812Y-98924482D01*
X51707072Y-98800000D01*
X51704000Y-98285750D01*
X51545250Y-98127000D01*
X50396000Y-98127000D01*
X50142000Y-98127000D01*
X48992750Y-98127000D01*
X48834000Y-98285750D01*
X48830928Y-98800000D01*
X46380000Y-98800000D01*
X46380000Y-98070512D01*
X55274783Y-98070512D01*
X55316213Y-98350130D01*
X55411397Y-98616292D01*
X55478329Y-98741514D01*
X55722298Y-98813097D01*
X56535395Y-98000000D01*
X56521253Y-97985858D01*
X56700858Y-97806253D01*
X56715000Y-97820395D01*
X56729143Y-97806253D01*
X56908748Y-97985858D01*
X56894605Y-98000000D01*
X57707702Y-98813097D01*
X57951671Y-98741514D01*
X58072571Y-98486004D01*
X58141300Y-98211816D01*
X58155217Y-97929488D01*
X58144103Y-97854474D01*
X63176123Y-97854474D01*
X63219328Y-98164185D01*
X63322123Y-98459516D01*
X63408919Y-98621902D01*
X63668465Y-98711930D01*
X64590395Y-97790000D01*
X63668465Y-96868070D01*
X63408919Y-96958098D01*
X63272776Y-97239616D01*
X63194171Y-97542286D01*
X63176123Y-97854474D01*
X58144103Y-97854474D01*
X58113787Y-97649870D01*
X58018603Y-97383708D01*
X57953384Y-97261691D01*
X57966185Y-97251185D01*
X58045537Y-97154494D01*
X58104502Y-97044180D01*
X58140812Y-96924482D01*
X58153072Y-96800000D01*
X58153072Y-95200000D01*
X58140812Y-95075518D01*
X58104502Y-94955820D01*
X58045537Y-94845506D01*
X57966185Y-94748815D01*
X57869494Y-94669463D01*
X57759180Y-94610498D01*
X57639482Y-94574188D01*
X57515000Y-94561928D01*
X55915000Y-94561928D01*
X55790518Y-94574188D01*
X55670820Y-94610498D01*
X55560506Y-94669463D01*
X55463815Y-94748815D01*
X55384463Y-94845506D01*
X55325498Y-94955820D01*
X55289188Y-95075518D01*
X55276928Y-95200000D01*
X55276928Y-96800000D01*
X55289188Y-96924482D01*
X55325498Y-97044180D01*
X55384463Y-97154494D01*
X55463815Y-97251185D01*
X55476758Y-97261807D01*
X55357429Y-97513996D01*
X55288700Y-97788184D01*
X55274783Y-98070512D01*
X46380000Y-98070512D01*
X46380000Y-97200000D01*
X48830928Y-97200000D01*
X48834000Y-97714250D01*
X48992750Y-97873000D01*
X50142000Y-97873000D01*
X50142000Y-97853000D01*
X50396000Y-97853000D01*
X50396000Y-97873000D01*
X51545250Y-97873000D01*
X51704000Y-97714250D01*
X51707072Y-97200000D01*
X51694812Y-97075518D01*
X51658502Y-96955820D01*
X51599537Y-96845506D01*
X51520185Y-96748815D01*
X51503607Y-96735210D01*
X51540680Y-96679727D01*
X51648853Y-96418574D01*
X51704000Y-96141335D01*
X51704000Y-95858665D01*
X51648853Y-95581426D01*
X51540680Y-95320273D01*
X51383637Y-95085241D01*
X51183759Y-94885363D01*
X50948727Y-94728320D01*
X50687574Y-94620147D01*
X50410335Y-94565000D01*
X50127665Y-94565000D01*
X49850426Y-94620147D01*
X49589273Y-94728320D01*
X49354241Y-94885363D01*
X49154363Y-95085241D01*
X48997320Y-95320273D01*
X48889147Y-95581426D01*
X48834000Y-95858665D01*
X48834000Y-96141335D01*
X48889147Y-96418574D01*
X48997320Y-96679727D01*
X49034393Y-96735210D01*
X49017815Y-96748815D01*
X48938463Y-96845506D01*
X48879498Y-96955820D01*
X48843188Y-97075518D01*
X48830928Y-97200000D01*
X46380000Y-97200000D01*
X46380000Y-83030000D01*
X48511928Y-83030000D01*
X48511928Y-85230000D01*
X48524188Y-85354482D01*
X48560498Y-85474180D01*
X48619463Y-85584494D01*
X48698815Y-85681185D01*
X48795506Y-85760537D01*
X48905820Y-85819502D01*
X49025518Y-85855812D01*
X49150000Y-85868072D01*
X50863573Y-85868072D01*
X49570901Y-87160744D01*
X49532368Y-87192367D01*
X49500745Y-87230900D01*
X49500744Y-87230901D01*
X49406154Y-87346160D01*
X49312368Y-87521621D01*
X49254615Y-87712006D01*
X49235114Y-87910000D01*
X49240001Y-87959618D01*
X49240000Y-90338193D01*
X49144002Y-90402337D01*
X48902337Y-90644002D01*
X48712463Y-90928169D01*
X48581675Y-91243919D01*
X48515000Y-91579117D01*
X48515000Y-91920883D01*
X48581675Y-92256081D01*
X48712463Y-92571831D01*
X48902337Y-92855998D01*
X49144002Y-93097663D01*
X49428169Y-93287537D01*
X49743919Y-93418325D01*
X50079117Y-93485000D01*
X50420883Y-93485000D01*
X50756081Y-93418325D01*
X51071831Y-93287537D01*
X51355998Y-93097663D01*
X51597663Y-92855998D01*
X51787537Y-92571831D01*
X51918325Y-92256081D01*
X51985000Y-91920883D01*
X51985000Y-91579117D01*
X51918325Y-91243919D01*
X51787537Y-90928169D01*
X51597663Y-90644002D01*
X51355998Y-90402337D01*
X51260000Y-90338193D01*
X51260000Y-88328355D01*
X55060206Y-84528150D01*
X55081675Y-84636081D01*
X55212463Y-84951831D01*
X55402337Y-85235998D01*
X55644002Y-85477663D01*
X55928169Y-85667537D01*
X56243919Y-85798325D01*
X56579117Y-85865000D01*
X56920883Y-85865000D01*
X57256081Y-85798325D01*
X57565001Y-85670366D01*
X57565001Y-89506644D01*
X57059717Y-90011928D01*
X55650000Y-90011928D01*
X55525518Y-90024188D01*
X55405820Y-90060498D01*
X55295506Y-90119463D01*
X55198815Y-90198815D01*
X55119463Y-90295506D01*
X55060498Y-90405820D01*
X55024188Y-90525518D01*
X55011928Y-90650000D01*
X55011928Y-92850000D01*
X55024188Y-92974482D01*
X55060498Y-93094180D01*
X55119463Y-93204494D01*
X55198815Y-93301185D01*
X55295506Y-93380537D01*
X55405820Y-93439502D01*
X55525518Y-93475812D01*
X55650000Y-93488072D01*
X57850000Y-93488072D01*
X57974482Y-93475812D01*
X58094180Y-93439502D01*
X58204494Y-93380537D01*
X58301185Y-93301185D01*
X58380537Y-93204494D01*
X58439502Y-93094180D01*
X58475812Y-92974482D01*
X58488072Y-92850000D01*
X58488072Y-91440283D01*
X59254095Y-90674260D01*
X59292634Y-90642632D01*
X59418848Y-90488839D01*
X59512633Y-90313379D01*
X59570386Y-90122993D01*
X59585001Y-89974607D01*
X59585001Y-89974605D01*
X59589887Y-89925000D01*
X59585001Y-89875395D01*
X59585001Y-65843354D01*
X60593881Y-64834474D01*
X63176123Y-64834474D01*
X63219328Y-65144185D01*
X63322123Y-65439516D01*
X63408919Y-65601902D01*
X63668465Y-65691930D01*
X64590395Y-64770000D01*
X63668465Y-63848070D01*
X63408919Y-63938098D01*
X63272776Y-64219616D01*
X63194171Y-64522286D01*
X63176123Y-64834474D01*
X60593881Y-64834474D01*
X62418355Y-63010000D01*
X63314870Y-63010000D01*
X63390602Y-63151684D01*
X63596918Y-63403082D01*
X63848316Y-63609398D01*
X63865392Y-63618526D01*
X63848070Y-63668465D01*
X64643000Y-64463395D01*
X64643000Y-65076605D01*
X63848070Y-65871535D01*
X63865392Y-65921474D01*
X63848316Y-65930602D01*
X63596918Y-66136918D01*
X63390602Y-66388317D01*
X63237295Y-66675134D01*
X63142889Y-66986348D01*
X63119000Y-67228897D01*
X63119001Y-77551104D01*
X63142890Y-77793653D01*
X63237296Y-78104867D01*
X63390603Y-78391684D01*
X63596919Y-78643082D01*
X63724943Y-78748148D01*
X63647727Y-78811518D01*
X63441411Y-79062916D01*
X63351562Y-79231012D01*
X63350476Y-79232637D01*
X63349728Y-79234442D01*
X63288104Y-79349733D01*
X63250156Y-79474831D01*
X63230807Y-79521543D01*
X63220943Y-79571133D01*
X63193698Y-79660947D01*
X63184499Y-79754351D01*
X63169800Y-79828245D01*
X63169800Y-79903588D01*
X63161821Y-79984600D01*
X63169800Y-80065612D01*
X63169800Y-80140955D01*
X63184499Y-80214849D01*
X63193698Y-80308253D01*
X63220943Y-80398067D01*
X63230807Y-80447657D01*
X63250156Y-80494369D01*
X63288104Y-80619467D01*
X63349728Y-80734758D01*
X63350476Y-80736563D01*
X63351562Y-80738188D01*
X63441411Y-80906284D01*
X63647727Y-81157682D01*
X63734068Y-81228540D01*
X63584218Y-81351518D01*
X63377902Y-81602916D01*
X63224595Y-81889733D01*
X63130189Y-82200947D01*
X63098312Y-82524600D01*
X63130189Y-82848253D01*
X63224595Y-83159467D01*
X63377902Y-83446284D01*
X63584218Y-83697682D01*
X63724139Y-83812511D01*
X63596918Y-83916918D01*
X63390602Y-84168317D01*
X63237295Y-84455134D01*
X63142889Y-84766348D01*
X63119000Y-85008897D01*
X63119001Y-95331104D01*
X63142890Y-95573653D01*
X63237296Y-95884867D01*
X63390603Y-96171684D01*
X63596919Y-96423082D01*
X63848317Y-96629398D01*
X63865393Y-96638525D01*
X63848070Y-96688465D01*
X64643000Y-97483395D01*
X64643000Y-98096605D01*
X63848070Y-98891535D01*
X63865392Y-98941474D01*
X63848316Y-98950602D01*
X63596918Y-99156918D01*
X63390602Y-99408316D01*
X63237295Y-99695133D01*
X63142889Y-100006347D01*
X63111012Y-100330000D01*
X63142889Y-100653653D01*
X63237295Y-100964867D01*
X63390602Y-101251684D01*
X63596918Y-101503082D01*
X63715014Y-101600000D01*
X63596918Y-101696918D01*
X63390602Y-101948316D01*
X63237295Y-102235133D01*
X63142889Y-102546347D01*
X63111012Y-102870000D01*
X63142889Y-103193653D01*
X63237295Y-103504867D01*
X63390602Y-103791684D01*
X63596918Y-104043082D01*
X63848316Y-104249398D01*
X64135133Y-104402705D01*
X64446347Y-104497111D01*
X64688896Y-104521000D01*
X138511104Y-104521000D01*
X138753653Y-104497111D01*
X139064867Y-104402705D01*
X139318753Y-104267000D01*
X139700000Y-104267000D01*
X139724776Y-104264560D01*
X139748601Y-104257333D01*
X139770557Y-104245597D01*
X139789803Y-104229803D01*
X139805597Y-104210557D01*
X139817333Y-104188601D01*
X139824560Y-104164776D01*
X139827000Y-104140000D01*
X139827000Y-103758753D01*
X139962705Y-103504867D01*
X140057111Y-103193653D01*
X140088988Y-102870000D01*
X140057111Y-102546347D01*
X139962705Y-102235133D01*
X139827000Y-101981247D01*
X139827000Y-101981000D01*
X141051104Y-101981000D01*
X141293653Y-101957111D01*
X141604867Y-101862705D01*
X141891684Y-101709398D01*
X142143082Y-101503082D01*
X142349398Y-101251684D01*
X142502705Y-100964867D01*
X142597111Y-100653653D01*
X142628988Y-100330000D01*
X142597111Y-100006347D01*
X142502705Y-99695133D01*
X142349398Y-99408316D01*
X142143082Y-99156918D01*
X141958133Y-99005135D01*
X141969272Y-98997692D01*
X142190392Y-98776572D01*
X142364124Y-98516563D01*
X142483793Y-98227657D01*
X142544800Y-97920955D01*
X142544800Y-97608245D01*
X142483793Y-97301543D01*
X142364124Y-97012637D01*
X142190392Y-96752628D01*
X141988065Y-96550301D01*
X142143082Y-96423082D01*
X142349398Y-96171684D01*
X142502705Y-95884867D01*
X142597111Y-95573653D01*
X142621000Y-95331104D01*
X142621000Y-85008896D01*
X142597111Y-84766347D01*
X142502705Y-84455133D01*
X142349398Y-84168316D01*
X142143082Y-83916918D01*
X142003161Y-83802089D01*
X142130382Y-83697682D01*
X142336698Y-83446284D01*
X142490005Y-83159467D01*
X142584411Y-82848253D01*
X142616288Y-82524600D01*
X142584411Y-82200947D01*
X142490005Y-81889733D01*
X142336698Y-81602916D01*
X142130382Y-81351518D01*
X142012286Y-81254600D01*
X142130382Y-81157682D01*
X142336698Y-80906284D01*
X142490005Y-80619467D01*
X142584411Y-80308253D01*
X142616288Y-79984600D01*
X142584411Y-79660947D01*
X142490005Y-79349733D01*
X142336698Y-79062916D01*
X142130382Y-78811518D01*
X142034112Y-78732511D01*
X142143082Y-78643082D01*
X142349398Y-78391684D01*
X142502705Y-78104867D01*
X142597111Y-77793653D01*
X142621000Y-77551104D01*
X142621000Y-67228896D01*
X142597111Y-66986347D01*
X142502705Y-66675133D01*
X142349398Y-66388316D01*
X142143082Y-66136918D01*
X141958132Y-65985135D01*
X141969272Y-65977692D01*
X142190392Y-65756572D01*
X142364124Y-65496563D01*
X142483793Y-65207657D01*
X142544800Y-64900955D01*
X142544800Y-64588245D01*
X142483793Y-64281543D01*
X142364124Y-63992637D01*
X142190392Y-63732628D01*
X141988065Y-63530301D01*
X142143082Y-63403082D01*
X142349398Y-63151684D01*
X142502705Y-62864867D01*
X142597111Y-62553653D01*
X142628988Y-62230000D01*
X142597111Y-61906347D01*
X142502705Y-61595133D01*
X142349398Y-61308316D01*
X142143082Y-61056918D01*
X141891684Y-60850602D01*
X141604867Y-60697295D01*
X141293653Y-60602889D01*
X141051104Y-60579000D01*
X139827000Y-60579000D01*
X139827000Y-60578753D01*
X139962705Y-60324867D01*
X140057111Y-60013653D01*
X140088988Y-59690000D01*
X140057111Y-59366347D01*
X139962705Y-59055133D01*
X139827000Y-58801247D01*
X139827000Y-58420000D01*
X139824560Y-58395224D01*
X139817333Y-58371399D01*
X139805597Y-58349443D01*
X139789803Y-58330197D01*
X139770557Y-58314403D01*
X139748601Y-58302667D01*
X139724776Y-58295440D01*
X139700000Y-58293000D01*
X139318753Y-58293000D01*
X139064867Y-58157295D01*
X138753653Y-58062889D01*
X138511104Y-58039000D01*
X64688896Y-58039000D01*
X64446347Y-58062889D01*
X64135133Y-58157295D01*
X63848316Y-58310602D01*
X63596918Y-58516918D01*
X63463081Y-58680000D01*
X61359604Y-58680000D01*
X61309999Y-58675114D01*
X61260394Y-58680000D01*
X61260392Y-58680000D01*
X61112006Y-58694615D01*
X60921620Y-58752368D01*
X60746160Y-58846153D01*
X60592367Y-58972367D01*
X60560744Y-59010900D01*
X56320901Y-63250744D01*
X56282368Y-63282367D01*
X56250745Y-63320900D01*
X56250744Y-63320901D01*
X56156154Y-63436160D01*
X56062368Y-63611621D01*
X56004615Y-63802006D01*
X55985114Y-64000000D01*
X55990001Y-64049618D01*
X55990001Y-64998384D01*
X55914039Y-64884698D01*
X55705302Y-64675961D01*
X55459853Y-64511958D01*
X55187125Y-64398990D01*
X54897599Y-64341400D01*
X54602401Y-64341400D01*
X54312875Y-64398990D01*
X54040147Y-64511958D01*
X53794698Y-64675961D01*
X53585961Y-64884698D01*
X53480000Y-65043281D01*
X53374039Y-64884698D01*
X53165302Y-64675961D01*
X52919853Y-64511958D01*
X52647125Y-64398990D01*
X52357599Y-64341400D01*
X52062401Y-64341400D01*
X51772875Y-64398990D01*
X51500147Y-64511958D01*
X51254698Y-64675961D01*
X51045961Y-64884698D01*
X50881958Y-65130147D01*
X50768990Y-65402875D01*
X50711400Y-65692401D01*
X50711400Y-65987599D01*
X50768990Y-66277125D01*
X50881958Y-66549853D01*
X51045961Y-66795302D01*
X51254698Y-67004039D01*
X51420103Y-67114559D01*
X51321512Y-67173183D01*
X51103146Y-67369707D01*
X50927316Y-67605056D01*
X50800778Y-67870186D01*
X50755042Y-68020974D01*
X50876183Y-68253000D01*
X52083000Y-68253000D01*
X52083000Y-68233000D01*
X52337000Y-68233000D01*
X52337000Y-68253000D01*
X54623000Y-68253000D01*
X54623000Y-68233000D01*
X54877000Y-68233000D01*
X54877000Y-68253000D01*
X54897000Y-68253000D01*
X54897000Y-68507000D01*
X54877000Y-68507000D01*
X54877000Y-70793000D01*
X54897000Y-70793000D01*
X54897000Y-71047000D01*
X54877000Y-71047000D01*
X54877000Y-73333000D01*
X54897000Y-73333000D01*
X54897000Y-73587000D01*
X54877000Y-73587000D01*
X54877000Y-73607000D01*
X54623000Y-73607000D01*
X54623000Y-73587000D01*
X52337000Y-73587000D01*
X52337000Y-73607000D01*
X52083000Y-73607000D01*
X52083000Y-73587000D01*
X50876183Y-73587000D01*
X50755042Y-73819026D01*
X50800778Y-73969814D01*
X50927316Y-74234944D01*
X51103146Y-74470293D01*
X51321512Y-74666817D01*
X51420103Y-74725441D01*
X51254698Y-74835961D01*
X51045961Y-75044698D01*
X50881958Y-75290147D01*
X50768990Y-75562875D01*
X50711400Y-75852401D01*
X50711400Y-76147599D01*
X50768990Y-76437125D01*
X50881958Y-76709853D01*
X51045961Y-76955302D01*
X51254698Y-77164039D01*
X51500147Y-77328042D01*
X51772875Y-77441010D01*
X52062401Y-77498600D01*
X52357599Y-77498600D01*
X52647125Y-77441010D01*
X52919853Y-77328042D01*
X53165302Y-77164039D01*
X53279364Y-77049977D01*
X53296898Y-77107780D01*
X53355863Y-77218094D01*
X53435215Y-77314785D01*
X53531906Y-77394137D01*
X53642220Y-77453102D01*
X53761918Y-77489412D01*
X53886400Y-77501672D01*
X55613600Y-77501672D01*
X55738082Y-77489412D01*
X55857780Y-77453102D01*
X55968094Y-77394137D01*
X55990000Y-77376159D01*
X55990000Y-80741644D01*
X51988072Y-84743573D01*
X51988072Y-83030000D01*
X51975812Y-82905518D01*
X51939502Y-82785820D01*
X51880537Y-82675506D01*
X51801185Y-82578815D01*
X51704494Y-82499463D01*
X51594180Y-82440498D01*
X51474482Y-82404188D01*
X51350000Y-82391928D01*
X49150000Y-82391928D01*
X49025518Y-82404188D01*
X48905820Y-82440498D01*
X48795506Y-82499463D01*
X48698815Y-82578815D01*
X48619463Y-82675506D01*
X48560498Y-82785820D01*
X48524188Y-82905518D01*
X48511928Y-83030000D01*
X46380000Y-83030000D01*
X46380000Y-71279026D01*
X50755042Y-71279026D01*
X50800778Y-71429814D01*
X50927316Y-71694944D01*
X51103146Y-71930293D01*
X51321512Y-72126817D01*
X51427770Y-72190000D01*
X51321512Y-72253183D01*
X51103146Y-72449707D01*
X50927316Y-72685056D01*
X50800778Y-72950186D01*
X50755042Y-73100974D01*
X50876183Y-73333000D01*
X52083000Y-73333000D01*
X52083000Y-71047000D01*
X52337000Y-71047000D01*
X52337000Y-73333000D01*
X54623000Y-73333000D01*
X54623000Y-71047000D01*
X52337000Y-71047000D01*
X52083000Y-71047000D01*
X50876183Y-71047000D01*
X50755042Y-71279026D01*
X46380000Y-71279026D01*
X46380000Y-68739026D01*
X50755042Y-68739026D01*
X50800778Y-68889814D01*
X50927316Y-69154944D01*
X51103146Y-69390293D01*
X51321512Y-69586817D01*
X51427770Y-69650000D01*
X51321512Y-69713183D01*
X51103146Y-69909707D01*
X50927316Y-70145056D01*
X50800778Y-70410186D01*
X50755042Y-70560974D01*
X50876183Y-70793000D01*
X52083000Y-70793000D01*
X52083000Y-68507000D01*
X52337000Y-68507000D01*
X52337000Y-70793000D01*
X54623000Y-70793000D01*
X54623000Y-68507000D01*
X52337000Y-68507000D01*
X52083000Y-68507000D01*
X50876183Y-68507000D01*
X50755042Y-68739026D01*
X46380000Y-68739026D01*
X46380000Y-57442845D01*
X46876761Y-57442845D01*
X47044802Y-57768643D01*
X47436607Y-57969426D01*
X47860055Y-58089914D01*
X48298873Y-58125476D01*
X48736197Y-58074746D01*
X49155221Y-57939674D01*
X49475198Y-57768643D01*
X49643239Y-57442845D01*
X142126761Y-57442845D01*
X142294802Y-57768643D01*
X142686607Y-57969426D01*
X143110055Y-58089914D01*
X143548873Y-58125476D01*
X143986197Y-58074746D01*
X144405221Y-57939674D01*
X144725198Y-57768643D01*
X144893239Y-57442845D01*
X143510000Y-56059605D01*
X142126761Y-57442845D01*
X49643239Y-57442845D01*
X48260000Y-56059605D01*
X46876761Y-57442845D01*
X46380000Y-57442845D01*
X46380000Y-57099656D01*
X46697155Y-57263239D01*
X48080395Y-55880000D01*
X48439605Y-55880000D01*
X49822845Y-57263239D01*
X50148643Y-57095198D01*
X50349426Y-56703393D01*
X50469914Y-56279945D01*
X50499175Y-55918873D01*
X141264524Y-55918873D01*
X141315254Y-56356197D01*
X141450326Y-56775221D01*
X141621357Y-57095198D01*
X141947155Y-57263239D01*
X143330395Y-55880000D01*
X141947155Y-54496761D01*
X141621357Y-54664802D01*
X141420574Y-55056607D01*
X141300086Y-55480055D01*
X141264524Y-55918873D01*
X50499175Y-55918873D01*
X50505476Y-55841127D01*
X50454746Y-55403803D01*
X50319674Y-54984779D01*
X50148643Y-54664802D01*
X49822845Y-54496761D01*
X48439605Y-55880000D01*
X48080395Y-55880000D01*
X46697155Y-54496761D01*
X46380000Y-54660344D01*
X46380000Y-54000000D01*
X47040344Y-54000000D01*
X46876761Y-54317155D01*
G37*
X46876761Y-54317155D02*
X48260000Y-55700395D01*
X49643239Y-54317155D01*
X49479656Y-54000000D01*
X142290344Y-54000000D01*
X142126761Y-54317155D01*
X143510000Y-55700395D01*
X144893239Y-54317155D01*
X144729656Y-54000000D01*
X145390000Y-54000000D01*
X145390000Y-54660344D01*
X145072845Y-54496761D01*
X143689605Y-55880000D01*
X145072845Y-57263239D01*
X145390000Y-57099656D01*
X145390001Y-105460345D01*
X145072845Y-105296761D01*
X143689605Y-106680000D01*
X145072845Y-108063239D01*
X145390001Y-107899655D01*
X145390001Y-108560000D01*
X144729656Y-108560000D01*
X144893239Y-108242845D01*
X143510000Y-106859605D01*
X142126761Y-108242845D01*
X142290344Y-108560000D01*
X49479656Y-108560000D01*
X49643239Y-108242845D01*
X48260000Y-106859605D01*
X46876761Y-108242845D01*
X47040344Y-108560000D01*
X46380000Y-108560000D01*
X46380000Y-107899656D01*
X46697155Y-108063239D01*
X48080395Y-106680000D01*
X48439605Y-106680000D01*
X49822845Y-108063239D01*
X50148643Y-107895198D01*
X50349426Y-107503393D01*
X50469914Y-107079945D01*
X50499175Y-106718873D01*
X141264524Y-106718873D01*
X141315254Y-107156197D01*
X141450326Y-107575221D01*
X141621357Y-107895198D01*
X141947155Y-108063239D01*
X143330395Y-106680000D01*
X141947155Y-105296761D01*
X141621357Y-105464802D01*
X141420574Y-105856607D01*
X141300086Y-106280055D01*
X141264524Y-106718873D01*
X50499175Y-106718873D01*
X50505476Y-106641127D01*
X50454746Y-106203803D01*
X50319674Y-105784779D01*
X50148643Y-105464802D01*
X49822845Y-105296761D01*
X48439605Y-106680000D01*
X48080395Y-106680000D01*
X46697155Y-105296761D01*
X46380000Y-105460344D01*
X46380000Y-105117155D01*
X46876761Y-105117155D01*
X48260000Y-106500395D01*
X49643239Y-105117155D01*
X142126761Y-105117155D01*
X143510000Y-106500395D01*
X144893239Y-105117155D01*
X144725198Y-104791357D01*
X144333393Y-104590574D01*
X143909945Y-104470086D01*
X143471127Y-104434524D01*
X143033803Y-104485254D01*
X142614779Y-104620326D01*
X142294802Y-104791357D01*
X142126761Y-105117155D01*
X49643239Y-105117155D01*
X49475198Y-104791357D01*
X49083393Y-104590574D01*
X48659945Y-104470086D01*
X48221127Y-104434524D01*
X47783803Y-104485254D01*
X47364779Y-104620326D01*
X47044802Y-104791357D01*
X46876761Y-105117155D01*
X46380000Y-105117155D01*
X46380000Y-98800000D01*
X48830928Y-98800000D01*
X48843188Y-98924482D01*
X48879498Y-99044180D01*
X48938463Y-99154494D01*
X49017815Y-99251185D01*
X49114506Y-99330537D01*
X49224820Y-99389502D01*
X49344518Y-99425812D01*
X49469000Y-99438072D01*
X49983250Y-99435000D01*
X50142000Y-99276250D01*
X50142000Y-98127000D01*
X50396000Y-98127000D01*
X50396000Y-99276250D01*
X50554750Y-99435000D01*
X51069000Y-99438072D01*
X51193482Y-99425812D01*
X51313180Y-99389502D01*
X51423494Y-99330537D01*
X51520185Y-99251185D01*
X51599537Y-99154494D01*
X51658502Y-99044180D01*
X51674117Y-98992702D01*
X55901903Y-98992702D01*
X55973486Y-99236671D01*
X56228996Y-99357571D01*
X56503184Y-99426300D01*
X56785512Y-99440217D01*
X57065130Y-99398787D01*
X57331292Y-99303603D01*
X57456514Y-99236671D01*
X57528097Y-98992702D01*
X56715000Y-98179605D01*
X55901903Y-98992702D01*
X51674117Y-98992702D01*
X51694812Y-98924482D01*
X51707072Y-98800000D01*
X51704000Y-98285750D01*
X51545250Y-98127000D01*
X50396000Y-98127000D01*
X50142000Y-98127000D01*
X48992750Y-98127000D01*
X48834000Y-98285750D01*
X48830928Y-98800000D01*
X46380000Y-98800000D01*
X46380000Y-98070512D01*
X55274783Y-98070512D01*
X55316213Y-98350130D01*
X55411397Y-98616292D01*
X55478329Y-98741514D01*
X55722298Y-98813097D01*
X56535395Y-98000000D01*
X56521253Y-97985858D01*
X56700858Y-97806253D01*
X56715000Y-97820395D01*
X56729143Y-97806253D01*
X56908748Y-97985858D01*
X56894605Y-98000000D01*
X57707702Y-98813097D01*
X57951671Y-98741514D01*
X58072571Y-98486004D01*
X58141300Y-98211816D01*
X58155217Y-97929488D01*
X58144103Y-97854474D01*
X63176123Y-97854474D01*
X63219328Y-98164185D01*
X63322123Y-98459516D01*
X63408919Y-98621902D01*
X63668465Y-98711930D01*
X64590395Y-97790000D01*
X63668465Y-96868070D01*
X63408919Y-96958098D01*
X63272776Y-97239616D01*
X63194171Y-97542286D01*
X63176123Y-97854474D01*
X58144103Y-97854474D01*
X58113787Y-97649870D01*
X58018603Y-97383708D01*
X57953384Y-97261691D01*
X57966185Y-97251185D01*
X58045537Y-97154494D01*
X58104502Y-97044180D01*
X58140812Y-96924482D01*
X58153072Y-96800000D01*
X58153072Y-95200000D01*
X58140812Y-95075518D01*
X58104502Y-94955820D01*
X58045537Y-94845506D01*
X57966185Y-94748815D01*
X57869494Y-94669463D01*
X57759180Y-94610498D01*
X57639482Y-94574188D01*
X57515000Y-94561928D01*
X55915000Y-94561928D01*
X55790518Y-94574188D01*
X55670820Y-94610498D01*
X55560506Y-94669463D01*
X55463815Y-94748815D01*
X55384463Y-94845506D01*
X55325498Y-94955820D01*
X55289188Y-95075518D01*
X55276928Y-95200000D01*
X55276928Y-96800000D01*
X55289188Y-96924482D01*
X55325498Y-97044180D01*
X55384463Y-97154494D01*
X55463815Y-97251185D01*
X55476758Y-97261807D01*
X55357429Y-97513996D01*
X55288700Y-97788184D01*
X55274783Y-98070512D01*
X46380000Y-98070512D01*
X46380000Y-97200000D01*
X48830928Y-97200000D01*
X48834000Y-97714250D01*
X48992750Y-97873000D01*
X50142000Y-97873000D01*
X50142000Y-97853000D01*
X50396000Y-97853000D01*
X50396000Y-97873000D01*
X51545250Y-97873000D01*
X51704000Y-97714250D01*
X51707072Y-97200000D01*
X51694812Y-97075518D01*
X51658502Y-96955820D01*
X51599537Y-96845506D01*
X51520185Y-96748815D01*
X51503607Y-96735210D01*
X51540680Y-96679727D01*
X51648853Y-96418574D01*
X51704000Y-96141335D01*
X51704000Y-95858665D01*
X51648853Y-95581426D01*
X51540680Y-95320273D01*
X51383637Y-95085241D01*
X51183759Y-94885363D01*
X50948727Y-94728320D01*
X50687574Y-94620147D01*
X50410335Y-94565000D01*
X50127665Y-94565000D01*
X49850426Y-94620147D01*
X49589273Y-94728320D01*
X49354241Y-94885363D01*
X49154363Y-95085241D01*
X48997320Y-95320273D01*
X48889147Y-95581426D01*
X48834000Y-95858665D01*
X48834000Y-96141335D01*
X48889147Y-96418574D01*
X48997320Y-96679727D01*
X49034393Y-96735210D01*
X49017815Y-96748815D01*
X48938463Y-96845506D01*
X48879498Y-96955820D01*
X48843188Y-97075518D01*
X48830928Y-97200000D01*
X46380000Y-97200000D01*
X46380000Y-83030000D01*
X48511928Y-83030000D01*
X48511928Y-85230000D01*
X48524188Y-85354482D01*
X48560498Y-85474180D01*
X48619463Y-85584494D01*
X48698815Y-85681185D01*
X48795506Y-85760537D01*
X48905820Y-85819502D01*
X49025518Y-85855812D01*
X49150000Y-85868072D01*
X50863573Y-85868072D01*
X49570901Y-87160744D01*
X49532368Y-87192367D01*
X49500745Y-87230900D01*
X49500744Y-87230901D01*
X49406154Y-87346160D01*
X49312368Y-87521621D01*
X49254615Y-87712006D01*
X49235114Y-87910000D01*
X49240001Y-87959618D01*
X49240000Y-90338193D01*
X49144002Y-90402337D01*
X48902337Y-90644002D01*
X48712463Y-90928169D01*
X48581675Y-91243919D01*
X48515000Y-91579117D01*
X48515000Y-91920883D01*
X48581675Y-92256081D01*
X48712463Y-92571831D01*
X48902337Y-92855998D01*
X49144002Y-93097663D01*
X49428169Y-93287537D01*
X49743919Y-93418325D01*
X50079117Y-93485000D01*
X50420883Y-93485000D01*
X50756081Y-93418325D01*
X51071831Y-93287537D01*
X51355998Y-93097663D01*
X51597663Y-92855998D01*
X51787537Y-92571831D01*
X51918325Y-92256081D01*
X51985000Y-91920883D01*
X51985000Y-91579117D01*
X51918325Y-91243919D01*
X51787537Y-90928169D01*
X51597663Y-90644002D01*
X51355998Y-90402337D01*
X51260000Y-90338193D01*
X51260000Y-88328355D01*
X55060206Y-84528150D01*
X55081675Y-84636081D01*
X55212463Y-84951831D01*
X55402337Y-85235998D01*
X55644002Y-85477663D01*
X55928169Y-85667537D01*
X56243919Y-85798325D01*
X56579117Y-85865000D01*
X56920883Y-85865000D01*
X57256081Y-85798325D01*
X57565001Y-85670366D01*
X57565001Y-89506644D01*
X57059717Y-90011928D01*
X55650000Y-90011928D01*
X55525518Y-90024188D01*
X55405820Y-90060498D01*
X55295506Y-90119463D01*
X55198815Y-90198815D01*
X55119463Y-90295506D01*
X55060498Y-90405820D01*
X55024188Y-90525518D01*
X55011928Y-90650000D01*
X55011928Y-92850000D01*
X55024188Y-92974482D01*
X55060498Y-93094180D01*
X55119463Y-93204494D01*
X55198815Y-93301185D01*
X55295506Y-93380537D01*
X55405820Y-93439502D01*
X55525518Y-93475812D01*
X55650000Y-93488072D01*
X57850000Y-93488072D01*
X57974482Y-93475812D01*
X58094180Y-93439502D01*
X58204494Y-93380537D01*
X58301185Y-93301185D01*
X58380537Y-93204494D01*
X58439502Y-93094180D01*
X58475812Y-92974482D01*
X58488072Y-92850000D01*
X58488072Y-91440283D01*
X59254095Y-90674260D01*
X59292634Y-90642632D01*
X59418848Y-90488839D01*
X59512633Y-90313379D01*
X59570386Y-90122993D01*
X59585001Y-89974607D01*
X59585001Y-89974605D01*
X59589887Y-89925000D01*
X59585001Y-89875395D01*
X59585001Y-65843354D01*
X60593881Y-64834474D01*
X63176123Y-64834474D01*
X63219328Y-65144185D01*
X63322123Y-65439516D01*
X63408919Y-65601902D01*
X63668465Y-65691930D01*
X64590395Y-64770000D01*
X63668465Y-63848070D01*
X63408919Y-63938098D01*
X63272776Y-64219616D01*
X63194171Y-64522286D01*
X63176123Y-64834474D01*
X60593881Y-64834474D01*
X62418355Y-63010000D01*
X63314870Y-63010000D01*
X63390602Y-63151684D01*
X63596918Y-63403082D01*
X63848316Y-63609398D01*
X63865392Y-63618526D01*
X63848070Y-63668465D01*
X64643000Y-64463395D01*
X64643000Y-65076605D01*
X63848070Y-65871535D01*
X63865392Y-65921474D01*
X63848316Y-65930602D01*
X63596918Y-66136918D01*
X63390602Y-66388317D01*
X63237295Y-66675134D01*
X63142889Y-66986348D01*
X63119000Y-67228897D01*
X63119001Y-77551104D01*
X63142890Y-77793653D01*
X63237296Y-78104867D01*
X63390603Y-78391684D01*
X63596919Y-78643082D01*
X63724943Y-78748148D01*
X63647727Y-78811518D01*
X63441411Y-79062916D01*
X63351562Y-79231012D01*
X63350476Y-79232637D01*
X63349728Y-79234442D01*
X63288104Y-79349733D01*
X63250156Y-79474831D01*
X63230807Y-79521543D01*
X63220943Y-79571133D01*
X63193698Y-79660947D01*
X63184499Y-79754351D01*
X63169800Y-79828245D01*
X63169800Y-79903588D01*
X63161821Y-79984600D01*
X63169800Y-80065612D01*
X63169800Y-80140955D01*
X63184499Y-80214849D01*
X63193698Y-80308253D01*
X63220943Y-80398067D01*
X63230807Y-80447657D01*
X63250156Y-80494369D01*
X63288104Y-80619467D01*
X63349728Y-80734758D01*
X63350476Y-80736563D01*
X63351562Y-80738188D01*
X63441411Y-80906284D01*
X63647727Y-81157682D01*
X63734068Y-81228540D01*
X63584218Y-81351518D01*
X63377902Y-81602916D01*
X63224595Y-81889733D01*
X63130189Y-82200947D01*
X63098312Y-82524600D01*
X63130189Y-82848253D01*
X63224595Y-83159467D01*
X63377902Y-83446284D01*
X63584218Y-83697682D01*
X63724139Y-83812511D01*
X63596918Y-83916918D01*
X63390602Y-84168317D01*
X63237295Y-84455134D01*
X63142889Y-84766348D01*
X63119000Y-85008897D01*
X63119001Y-95331104D01*
X63142890Y-95573653D01*
X63237296Y-95884867D01*
X63390603Y-96171684D01*
X63596919Y-96423082D01*
X63848317Y-96629398D01*
X63865393Y-96638525D01*
X63848070Y-96688465D01*
X64643000Y-97483395D01*
X64643000Y-98096605D01*
X63848070Y-98891535D01*
X63865392Y-98941474D01*
X63848316Y-98950602D01*
X63596918Y-99156918D01*
X63390602Y-99408316D01*
X63237295Y-99695133D01*
X63142889Y-100006347D01*
X63111012Y-100330000D01*
X63142889Y-100653653D01*
X63237295Y-100964867D01*
X63390602Y-101251684D01*
X63596918Y-101503082D01*
X63715014Y-101600000D01*
X63596918Y-101696918D01*
X63390602Y-101948316D01*
X63237295Y-102235133D01*
X63142889Y-102546347D01*
X63111012Y-102870000D01*
X63142889Y-103193653D01*
X63237295Y-103504867D01*
X63390602Y-103791684D01*
X63596918Y-104043082D01*
X63848316Y-104249398D01*
X64135133Y-104402705D01*
X64446347Y-104497111D01*
X64688896Y-104521000D01*
X138511104Y-104521000D01*
X138753653Y-104497111D01*
X139064867Y-104402705D01*
X139318753Y-104267000D01*
X139700000Y-104267000D01*
X139724776Y-104264560D01*
X139748601Y-104257333D01*
X139770557Y-104245597D01*
X139789803Y-104229803D01*
X139805597Y-104210557D01*
X139817333Y-104188601D01*
X139824560Y-104164776D01*
X139827000Y-104140000D01*
X139827000Y-103758753D01*
X139962705Y-103504867D01*
X140057111Y-103193653D01*
X140088988Y-102870000D01*
X140057111Y-102546347D01*
X139962705Y-102235133D01*
X139827000Y-101981247D01*
X139827000Y-101981000D01*
X141051104Y-101981000D01*
X141293653Y-101957111D01*
X141604867Y-101862705D01*
X141891684Y-101709398D01*
X142143082Y-101503082D01*
X142349398Y-101251684D01*
X142502705Y-100964867D01*
X142597111Y-100653653D01*
X142628988Y-100330000D01*
X142597111Y-100006347D01*
X142502705Y-99695133D01*
X142349398Y-99408316D01*
X142143082Y-99156918D01*
X141958133Y-99005135D01*
X141969272Y-98997692D01*
X142190392Y-98776572D01*
X142364124Y-98516563D01*
X142483793Y-98227657D01*
X142544800Y-97920955D01*
X142544800Y-97608245D01*
X142483793Y-97301543D01*
X142364124Y-97012637D01*
X142190392Y-96752628D01*
X141988065Y-96550301D01*
X142143082Y-96423082D01*
X142349398Y-96171684D01*
X142502705Y-95884867D01*
X142597111Y-95573653D01*
X142621000Y-95331104D01*
X142621000Y-85008896D01*
X142597111Y-84766347D01*
X142502705Y-84455133D01*
X142349398Y-84168316D01*
X142143082Y-83916918D01*
X142003161Y-83802089D01*
X142130382Y-83697682D01*
X142336698Y-83446284D01*
X142490005Y-83159467D01*
X142584411Y-82848253D01*
X142616288Y-82524600D01*
X142584411Y-82200947D01*
X142490005Y-81889733D01*
X142336698Y-81602916D01*
X142130382Y-81351518D01*
X142012286Y-81254600D01*
X142130382Y-81157682D01*
X142336698Y-80906284D01*
X142490005Y-80619467D01*
X142584411Y-80308253D01*
X142616288Y-79984600D01*
X142584411Y-79660947D01*
X142490005Y-79349733D01*
X142336698Y-79062916D01*
X142130382Y-78811518D01*
X142034112Y-78732511D01*
X142143082Y-78643082D01*
X142349398Y-78391684D01*
X142502705Y-78104867D01*
X142597111Y-77793653D01*
X142621000Y-77551104D01*
X142621000Y-67228896D01*
X142597111Y-66986347D01*
X142502705Y-66675133D01*
X142349398Y-66388316D01*
X142143082Y-66136918D01*
X141958132Y-65985135D01*
X141969272Y-65977692D01*
X142190392Y-65756572D01*
X142364124Y-65496563D01*
X142483793Y-65207657D01*
X142544800Y-64900955D01*
X142544800Y-64588245D01*
X142483793Y-64281543D01*
X142364124Y-63992637D01*
X142190392Y-63732628D01*
X141988065Y-63530301D01*
X142143082Y-63403082D01*
X142349398Y-63151684D01*
X142502705Y-62864867D01*
X142597111Y-62553653D01*
X142628988Y-62230000D01*
X142597111Y-61906347D01*
X142502705Y-61595133D01*
X142349398Y-61308316D01*
X142143082Y-61056918D01*
X141891684Y-60850602D01*
X141604867Y-60697295D01*
X141293653Y-60602889D01*
X141051104Y-60579000D01*
X139827000Y-60579000D01*
X139827000Y-60578753D01*
X139962705Y-60324867D01*
X140057111Y-60013653D01*
X140088988Y-59690000D01*
X140057111Y-59366347D01*
X139962705Y-59055133D01*
X139827000Y-58801247D01*
X139827000Y-58420000D01*
X139824560Y-58395224D01*
X139817333Y-58371399D01*
X139805597Y-58349443D01*
X139789803Y-58330197D01*
X139770557Y-58314403D01*
X139748601Y-58302667D01*
X139724776Y-58295440D01*
X139700000Y-58293000D01*
X139318753Y-58293000D01*
X139064867Y-58157295D01*
X138753653Y-58062889D01*
X138511104Y-58039000D01*
X64688896Y-58039000D01*
X64446347Y-58062889D01*
X64135133Y-58157295D01*
X63848316Y-58310602D01*
X63596918Y-58516918D01*
X63463081Y-58680000D01*
X61359604Y-58680000D01*
X61309999Y-58675114D01*
X61260394Y-58680000D01*
X61260392Y-58680000D01*
X61112006Y-58694615D01*
X60921620Y-58752368D01*
X60746160Y-58846153D01*
X60592367Y-58972367D01*
X60560744Y-59010900D01*
X56320901Y-63250744D01*
X56282368Y-63282367D01*
X56250745Y-63320900D01*
X56250744Y-63320901D01*
X56156154Y-63436160D01*
X56062368Y-63611621D01*
X56004615Y-63802006D01*
X55985114Y-64000000D01*
X55990001Y-64049618D01*
X55990001Y-64998384D01*
X55914039Y-64884698D01*
X55705302Y-64675961D01*
X55459853Y-64511958D01*
X55187125Y-64398990D01*
X54897599Y-64341400D01*
X54602401Y-64341400D01*
X54312875Y-64398990D01*
X54040147Y-64511958D01*
X53794698Y-64675961D01*
X53585961Y-64884698D01*
X53480000Y-65043281D01*
X53374039Y-64884698D01*
X53165302Y-64675961D01*
X52919853Y-64511958D01*
X52647125Y-64398990D01*
X52357599Y-64341400D01*
X52062401Y-64341400D01*
X51772875Y-64398990D01*
X51500147Y-64511958D01*
X51254698Y-64675961D01*
X51045961Y-64884698D01*
X50881958Y-65130147D01*
X50768990Y-65402875D01*
X50711400Y-65692401D01*
X50711400Y-65987599D01*
X50768990Y-66277125D01*
X50881958Y-66549853D01*
X51045961Y-66795302D01*
X51254698Y-67004039D01*
X51420103Y-67114559D01*
X51321512Y-67173183D01*
X51103146Y-67369707D01*
X50927316Y-67605056D01*
X50800778Y-67870186D01*
X50755042Y-68020974D01*
X50876183Y-68253000D01*
X52083000Y-68253000D01*
X52083000Y-68233000D01*
X52337000Y-68233000D01*
X52337000Y-68253000D01*
X54623000Y-68253000D01*
X54623000Y-68233000D01*
X54877000Y-68233000D01*
X54877000Y-68253000D01*
X54897000Y-68253000D01*
X54897000Y-68507000D01*
X54877000Y-68507000D01*
X54877000Y-70793000D01*
X54897000Y-70793000D01*
X54897000Y-71047000D01*
X54877000Y-71047000D01*
X54877000Y-73333000D01*
X54897000Y-73333000D01*
X54897000Y-73587000D01*
X54877000Y-73587000D01*
X54877000Y-73607000D01*
X54623000Y-73607000D01*
X54623000Y-73587000D01*
X52337000Y-73587000D01*
X52337000Y-73607000D01*
X52083000Y-73607000D01*
X52083000Y-73587000D01*
X50876183Y-73587000D01*
X50755042Y-73819026D01*
X50800778Y-73969814D01*
X50927316Y-74234944D01*
X51103146Y-74470293D01*
X51321512Y-74666817D01*
X51420103Y-74725441D01*
X51254698Y-74835961D01*
X51045961Y-75044698D01*
X50881958Y-75290147D01*
X50768990Y-75562875D01*
X50711400Y-75852401D01*
X50711400Y-76147599D01*
X50768990Y-76437125D01*
X50881958Y-76709853D01*
X51045961Y-76955302D01*
X51254698Y-77164039D01*
X51500147Y-77328042D01*
X51772875Y-77441010D01*
X52062401Y-77498600D01*
X52357599Y-77498600D01*
X52647125Y-77441010D01*
X52919853Y-77328042D01*
X53165302Y-77164039D01*
X53279364Y-77049977D01*
X53296898Y-77107780D01*
X53355863Y-77218094D01*
X53435215Y-77314785D01*
X53531906Y-77394137D01*
X53642220Y-77453102D01*
X53761918Y-77489412D01*
X53886400Y-77501672D01*
X55613600Y-77501672D01*
X55738082Y-77489412D01*
X55857780Y-77453102D01*
X55968094Y-77394137D01*
X55990000Y-77376159D01*
X55990000Y-80741644D01*
X51988072Y-84743573D01*
X51988072Y-83030000D01*
X51975812Y-82905518D01*
X51939502Y-82785820D01*
X51880537Y-82675506D01*
X51801185Y-82578815D01*
X51704494Y-82499463D01*
X51594180Y-82440498D01*
X51474482Y-82404188D01*
X51350000Y-82391928D01*
X49150000Y-82391928D01*
X49025518Y-82404188D01*
X48905820Y-82440498D01*
X48795506Y-82499463D01*
X48698815Y-82578815D01*
X48619463Y-82675506D01*
X48560498Y-82785820D01*
X48524188Y-82905518D01*
X48511928Y-83030000D01*
X46380000Y-83030000D01*
X46380000Y-71279026D01*
X50755042Y-71279026D01*
X50800778Y-71429814D01*
X50927316Y-71694944D01*
X51103146Y-71930293D01*
X51321512Y-72126817D01*
X51427770Y-72190000D01*
X51321512Y-72253183D01*
X51103146Y-72449707D01*
X50927316Y-72685056D01*
X50800778Y-72950186D01*
X50755042Y-73100974D01*
X50876183Y-73333000D01*
X52083000Y-73333000D01*
X52083000Y-71047000D01*
X52337000Y-71047000D01*
X52337000Y-73333000D01*
X54623000Y-73333000D01*
X54623000Y-71047000D01*
X52337000Y-71047000D01*
X52083000Y-71047000D01*
X50876183Y-71047000D01*
X50755042Y-71279026D01*
X46380000Y-71279026D01*
X46380000Y-68739026D01*
X50755042Y-68739026D01*
X50800778Y-68889814D01*
X50927316Y-69154944D01*
X51103146Y-69390293D01*
X51321512Y-69586817D01*
X51427770Y-69650000D01*
X51321512Y-69713183D01*
X51103146Y-69909707D01*
X50927316Y-70145056D01*
X50800778Y-70410186D01*
X50755042Y-70560974D01*
X50876183Y-70793000D01*
X52083000Y-70793000D01*
X52083000Y-68507000D01*
X52337000Y-68507000D01*
X52337000Y-70793000D01*
X54623000Y-70793000D01*
X54623000Y-68507000D01*
X52337000Y-68507000D01*
X52083000Y-68507000D01*
X50876183Y-68507000D01*
X50755042Y-68739026D01*
X46380000Y-68739026D01*
X46380000Y-57442845D01*
X46876761Y-57442845D01*
X47044802Y-57768643D01*
X47436607Y-57969426D01*
X47860055Y-58089914D01*
X48298873Y-58125476D01*
X48736197Y-58074746D01*
X49155221Y-57939674D01*
X49475198Y-57768643D01*
X49643239Y-57442845D01*
X142126761Y-57442845D01*
X142294802Y-57768643D01*
X142686607Y-57969426D01*
X143110055Y-58089914D01*
X143548873Y-58125476D01*
X143986197Y-58074746D01*
X144405221Y-57939674D01*
X144725198Y-57768643D01*
X144893239Y-57442845D01*
X143510000Y-56059605D01*
X142126761Y-57442845D01*
X49643239Y-57442845D01*
X48260000Y-56059605D01*
X46876761Y-57442845D01*
X46380000Y-57442845D01*
X46380000Y-57099656D01*
X46697155Y-57263239D01*
X48080395Y-55880000D01*
X48439605Y-55880000D01*
X49822845Y-57263239D01*
X50148643Y-57095198D01*
X50349426Y-56703393D01*
X50469914Y-56279945D01*
X50499175Y-55918873D01*
X141264524Y-55918873D01*
X141315254Y-56356197D01*
X141450326Y-56775221D01*
X141621357Y-57095198D01*
X141947155Y-57263239D01*
X143330395Y-55880000D01*
X141947155Y-54496761D01*
X141621357Y-54664802D01*
X141420574Y-55056607D01*
X141300086Y-55480055D01*
X141264524Y-55918873D01*
X50499175Y-55918873D01*
X50505476Y-55841127D01*
X50454746Y-55403803D01*
X50319674Y-54984779D01*
X50148643Y-54664802D01*
X49822845Y-54496761D01*
X48439605Y-55880000D01*
X48080395Y-55880000D01*
X46697155Y-54496761D01*
X46380000Y-54660344D01*
X46380000Y-54000000D01*
X47040344Y-54000000D01*
X46876761Y-54317155D01*
M02*
