G04 #@! TF.GenerationSoftware,KiCad,Pcbnew,5.1.10-88a1d61d58~90~ubuntu20.04.1*
G04 #@! TF.CreationDate,2021-08-07T14:05:23-04:00*
G04 #@! TF.ProjectId,kosmo_proto,6b6f736d-6f5f-4707-926f-746f2e6b6963,rev?*
G04 #@! TF.SameCoordinates,Original*
G04 #@! TF.FileFunction,Copper,L1,Top*
G04 #@! TF.FilePolarity,Positive*
%FSLAX46Y46*%
G04 Gerber Fmt 4.6, Leading zero omitted, Abs format (unit mm)*
G04 Created by KiCad (PCBNEW 5.1.10-88a1d61d58~90~ubuntu20.04.1) date 2021-08-07 14:05:23*
%MOMM*%
%LPD*%
G01*
G04 APERTURE LIST*
G04 #@! TA.AperFunction,ComponentPad*
%ADD10C,1.600000*%
G04 #@! TD*
G04 #@! TA.AperFunction,ComponentPad*
%ADD11R,1.600000X1.600000*%
G04 #@! TD*
G04 #@! TA.AperFunction,ComponentPad*
%ADD12O,2.200000X2.200000*%
G04 #@! TD*
G04 #@! TA.AperFunction,ComponentPad*
%ADD13R,2.200000X2.200000*%
G04 #@! TD*
G04 #@! TA.AperFunction,ComponentPad*
%ADD14O,1.727200X1.727200*%
G04 #@! TD*
G04 #@! TA.AperFunction,ComponentPad*
%ADD15R,1.727200X1.727200*%
G04 #@! TD*
G04 #@! TA.AperFunction,ComponentPad*
%ADD16C,1.905000*%
G04 #@! TD*
G04 #@! TA.AperFunction,Conductor*
%ADD17C,0.750000*%
G04 #@! TD*
G04 #@! TA.AperFunction,Conductor*
%ADD18C,0.254000*%
G04 #@! TD*
G04 #@! TA.AperFunction,Conductor*
%ADD19C,0.100000*%
G04 #@! TD*
G04 APERTURE END LIST*
D10*
X49530000Y-95885000D03*
D11*
X49530000Y-98385000D03*
D10*
X57150000Y-98385000D03*
D11*
X57150000Y-95885000D03*
D12*
X56515000Y-84455000D03*
D13*
X56515000Y-92075000D03*
D12*
X50165000Y-92075000D03*
D13*
X50165000Y-84455000D03*
D14*
X52070000Y-66040000D03*
X54610000Y-66040000D03*
X52070000Y-68580000D03*
X54610000Y-68580000D03*
X52070000Y-71120000D03*
X54610000Y-71120000D03*
X52070000Y-73660000D03*
X54610000Y-73660000D03*
X52070000Y-76200000D03*
D15*
X54610000Y-76200000D03*
D16*
X74917300Y-59664600D03*
X69837300Y-97764600D03*
X74917300Y-102844600D03*
X74917300Y-100304600D03*
X72377300Y-102844600D03*
X74917300Y-97764600D03*
X79997300Y-102844600D03*
X77457300Y-62204600D03*
X67297300Y-97764600D03*
X79997300Y-82524600D03*
X77457300Y-90144600D03*
X77457300Y-74904600D03*
X74917300Y-72364600D03*
X77457300Y-87604600D03*
X79997300Y-92684600D03*
X74917300Y-74904600D03*
X79997300Y-79984600D03*
X74917300Y-79984600D03*
X74917300Y-82524600D03*
X77457300Y-67284600D03*
X77457300Y-69824600D03*
X77457300Y-82524600D03*
X74917300Y-77444600D03*
X80010000Y-95250000D03*
X77457300Y-77444600D03*
X79997300Y-90144600D03*
X77457300Y-85064600D03*
X74917300Y-67284600D03*
X79997300Y-77444600D03*
X74917300Y-92684600D03*
X79997300Y-74904600D03*
X77457300Y-92684600D03*
X77470000Y-95250000D03*
X74917300Y-85064600D03*
X77457300Y-79984600D03*
X79997300Y-87604600D03*
X74917300Y-69824600D03*
X79997300Y-69824600D03*
X74917300Y-87604600D03*
X74930000Y-95250000D03*
X72377300Y-62204600D03*
X67297300Y-59664600D03*
X79997300Y-59664600D03*
X67297300Y-102844600D03*
X72377300Y-100304600D03*
X67297300Y-64744600D03*
X67297300Y-100304600D03*
X69837300Y-102844600D03*
X79997300Y-64744600D03*
X77457300Y-97764600D03*
X77457300Y-59664600D03*
X69837300Y-100304600D03*
X69837300Y-64744600D03*
X69837300Y-69824600D03*
X64757300Y-67284600D03*
X79997300Y-85064600D03*
X79997300Y-67284600D03*
X74917300Y-90144600D03*
X77457300Y-72364600D03*
X79997300Y-72364600D03*
X72377300Y-82524600D03*
X72377300Y-92684600D03*
X72377300Y-79984600D03*
X72390000Y-95250000D03*
X72377300Y-90144600D03*
X72377300Y-77444600D03*
X72377300Y-74904600D03*
X72377300Y-87604600D03*
X72377300Y-69824600D03*
X72377300Y-85064600D03*
X72377300Y-67284600D03*
X72377300Y-72364600D03*
X69837300Y-90144600D03*
X69837300Y-74904600D03*
X69837300Y-87604600D03*
X69837300Y-67284600D03*
X69837300Y-82524600D03*
X69837300Y-77444600D03*
X69837300Y-85064600D03*
X69837300Y-92684600D03*
X69850000Y-95250000D03*
X69837300Y-79984600D03*
X69837300Y-72364600D03*
X67297300Y-72364600D03*
X67297300Y-74904600D03*
X67297300Y-79984600D03*
X67297300Y-82524600D03*
X67297300Y-77444600D03*
X67297300Y-67284600D03*
X67297300Y-92684600D03*
X67297300Y-85064600D03*
X67297300Y-69824600D03*
X67297300Y-87604600D03*
X67310000Y-95250000D03*
X67297300Y-90144600D03*
X64757300Y-69824600D03*
X64757300Y-72364600D03*
X64757300Y-74904600D03*
X64757300Y-77444600D03*
X64757300Y-79984600D03*
X64757300Y-82524600D03*
X64757300Y-85064600D03*
X64757300Y-87604600D03*
X64757300Y-90144600D03*
X64757300Y-92684600D03*
X64770000Y-59690000D03*
X64770000Y-102870000D03*
X64770000Y-64770000D03*
X64770000Y-97790000D03*
X64770000Y-62230000D03*
X64770000Y-100330000D03*
X64770000Y-95250000D03*
X69837300Y-62204600D03*
X77457300Y-102844600D03*
X74917300Y-62204600D03*
X79997300Y-97764600D03*
X79997300Y-100304600D03*
X72377300Y-59664600D03*
X77457300Y-64744600D03*
X67297300Y-62204600D03*
X79997300Y-62204600D03*
X74917300Y-64744600D03*
X69837300Y-59664600D03*
X72377300Y-64744600D03*
X72377300Y-97764600D03*
X77457300Y-100304600D03*
X110477300Y-102844600D03*
X125717300Y-102844600D03*
X138417300Y-102844600D03*
X128257300Y-102844600D03*
X133337300Y-102844600D03*
X85077300Y-102844600D03*
X92697300Y-102844600D03*
X97777300Y-102844600D03*
X100317300Y-102844600D03*
X102857300Y-102844600D03*
X95237300Y-102844600D03*
X118097300Y-102844600D03*
X113017300Y-102844600D03*
X115557300Y-102844600D03*
X130797300Y-102844600D03*
X105397300Y-102844600D03*
X123177300Y-102844600D03*
X82537300Y-102844600D03*
X90157300Y-102844600D03*
X87617300Y-102844600D03*
X135877300Y-102844600D03*
X120637300Y-102844600D03*
X107937300Y-102844600D03*
X110477300Y-100304600D03*
X125717300Y-100304600D03*
X138417300Y-100304600D03*
X128257300Y-100304600D03*
X133337300Y-100304600D03*
X140957300Y-100304600D03*
X85077300Y-100304600D03*
X92697300Y-100304600D03*
X97777300Y-100304600D03*
X100317300Y-100304600D03*
X102857300Y-100304600D03*
X95237300Y-100304600D03*
X118097300Y-100304600D03*
X113017300Y-100304600D03*
X115557300Y-100304600D03*
X130797300Y-100304600D03*
X105397300Y-100304600D03*
X123177300Y-100304600D03*
X82537300Y-100304600D03*
X90157300Y-100304600D03*
X87617300Y-100304600D03*
X135877300Y-100304600D03*
X120637300Y-100304600D03*
X107937300Y-100304600D03*
X110477300Y-97764600D03*
X125717300Y-97764600D03*
X138417300Y-97764600D03*
X128257300Y-97764600D03*
X133337300Y-97764600D03*
X140957300Y-97764600D03*
X85077300Y-97764600D03*
X92697300Y-97764600D03*
X97777300Y-97764600D03*
X100317300Y-97764600D03*
X102857300Y-97764600D03*
X95237300Y-97764600D03*
X118097300Y-97764600D03*
X113017300Y-97764600D03*
X115557300Y-97764600D03*
X130797300Y-97764600D03*
X105397300Y-97764600D03*
X123177300Y-97764600D03*
X82537300Y-97764600D03*
X90157300Y-97764600D03*
X87617300Y-97764600D03*
X135877300Y-97764600D03*
X120637300Y-97764600D03*
X107937300Y-97764600D03*
X110477300Y-59664600D03*
X125717300Y-59664600D03*
X138417300Y-59664600D03*
X128257300Y-59664600D03*
X133337300Y-59664600D03*
X85077300Y-59664600D03*
X92697300Y-59664600D03*
X97777300Y-59664600D03*
X100317300Y-59664600D03*
X102857300Y-59664600D03*
X95237300Y-59664600D03*
X118097300Y-59664600D03*
X113017300Y-59664600D03*
X115557300Y-59664600D03*
X130797300Y-59664600D03*
X105397300Y-59664600D03*
X123177300Y-59664600D03*
X82537300Y-59664600D03*
X90157300Y-59664600D03*
X87617300Y-59664600D03*
X135877300Y-59664600D03*
X120637300Y-59664600D03*
X107937300Y-59664600D03*
X110477300Y-62204600D03*
X125717300Y-62204600D03*
X138417300Y-62204600D03*
X128257300Y-62204600D03*
X133337300Y-62204600D03*
X140957300Y-62204600D03*
X85077300Y-62204600D03*
X92697300Y-62204600D03*
X97777300Y-62204600D03*
X100317300Y-62204600D03*
X102857300Y-62204600D03*
X95237300Y-62204600D03*
X118097300Y-62204600D03*
X113017300Y-62204600D03*
X115557300Y-62204600D03*
X130797300Y-62204600D03*
X105397300Y-62204600D03*
X123177300Y-62204600D03*
X82537300Y-62204600D03*
X90157300Y-62204600D03*
X87617300Y-62204600D03*
X135877300Y-62204600D03*
X120637300Y-62204600D03*
X107937300Y-62204600D03*
X110477300Y-64744600D03*
X125717300Y-64744600D03*
X138417300Y-64744600D03*
X128257300Y-64744600D03*
X133337300Y-64744600D03*
X140957300Y-64744600D03*
X85077300Y-64744600D03*
X92697300Y-64744600D03*
X97777300Y-64744600D03*
X100317300Y-64744600D03*
X102857300Y-64744600D03*
X95237300Y-64744600D03*
X118097300Y-64744600D03*
X113017300Y-64744600D03*
X115557300Y-64744600D03*
X130797300Y-64744600D03*
X105397300Y-64744600D03*
X123177300Y-64744600D03*
X82537300Y-64744600D03*
X90157300Y-64744600D03*
X87617300Y-64744600D03*
X135877300Y-64744600D03*
X120637300Y-64744600D03*
X107937300Y-64744600D03*
X140957300Y-82524600D03*
X140957300Y-79984600D03*
X140957300Y-87604600D03*
X140957300Y-92684600D03*
X140957300Y-90144600D03*
X140957300Y-95224600D03*
X140957300Y-85064600D03*
X140957300Y-67284600D03*
X140957300Y-77444600D03*
X140957300Y-69824600D03*
X140957300Y-72364600D03*
X140957300Y-74904600D03*
X110477300Y-82524600D03*
X130797300Y-74904600D03*
X107937300Y-90144600D03*
X130797300Y-77444600D03*
X120637300Y-90144600D03*
X120637300Y-72364600D03*
X128257300Y-72364600D03*
X133337300Y-85064600D03*
X125717300Y-69824600D03*
X107937300Y-74904600D03*
X105397300Y-72364600D03*
X135877300Y-77444600D03*
X107937300Y-87604600D03*
X135877300Y-72364600D03*
X138417300Y-87604600D03*
X118097300Y-90144600D03*
X138417300Y-77444600D03*
X125717300Y-82524600D03*
X110477300Y-92684600D03*
X105397300Y-74904600D03*
X133337300Y-72364600D03*
X135877300Y-82524600D03*
X128257300Y-82524600D03*
X123177300Y-87604600D03*
X115557300Y-77444600D03*
X113017300Y-79984600D03*
X135877300Y-67284600D03*
X118097300Y-92684600D03*
X123177300Y-79984600D03*
X138417300Y-79984600D03*
X125717300Y-90144600D03*
X123177300Y-67284600D03*
X125717300Y-79984600D03*
X118097300Y-87604600D03*
X118097300Y-74904600D03*
X133337300Y-79984600D03*
X130797300Y-90144600D03*
X113030000Y-95250000D03*
X120637300Y-69824600D03*
X133337300Y-82524600D03*
X115557300Y-79984600D03*
X113017300Y-67284600D03*
X133337300Y-69824600D03*
X128257300Y-87604600D03*
X125717300Y-85064600D03*
X110477300Y-79984600D03*
X115570000Y-95250000D03*
X113017300Y-90144600D03*
X115557300Y-82524600D03*
X105397300Y-79984600D03*
X138417300Y-67284600D03*
X105397300Y-82524600D03*
X130797300Y-85064600D03*
X123190000Y-95250000D03*
X118097300Y-82524600D03*
X107937300Y-67284600D03*
X123177300Y-77444600D03*
X125730000Y-95250000D03*
X138417300Y-85064600D03*
X113017300Y-87604600D03*
X130797300Y-79984600D03*
X135877300Y-90144600D03*
X115557300Y-90144600D03*
X118097300Y-79984600D03*
X123177300Y-90144600D03*
X138417300Y-72364600D03*
X113017300Y-92684600D03*
X118097300Y-67284600D03*
X138417300Y-74904600D03*
X107937300Y-69824600D03*
X107937300Y-82524600D03*
X128257300Y-79984600D03*
X125717300Y-74904600D03*
X105397300Y-77444600D03*
X120637300Y-92684600D03*
X110490000Y-95250000D03*
X133337300Y-90144600D03*
X130797300Y-69824600D03*
X107937300Y-77444600D03*
X133337300Y-92684600D03*
X113017300Y-74904600D03*
X123177300Y-82524600D03*
X123177300Y-72364600D03*
X130797300Y-82524600D03*
X130797300Y-72364600D03*
X138430000Y-95250000D03*
X110477300Y-90144600D03*
X130797300Y-87604600D03*
X130810000Y-95250000D03*
X113017300Y-69824600D03*
X115557300Y-69824600D03*
X107937300Y-85064600D03*
X133337300Y-74904600D03*
X105397300Y-67284600D03*
X110477300Y-77444600D03*
X138417300Y-82524600D03*
X125717300Y-87604600D03*
X105397300Y-92684600D03*
X113017300Y-72364600D03*
X138417300Y-90144600D03*
X110477300Y-74904600D03*
X107937300Y-92684600D03*
X128257300Y-90144600D03*
X115557300Y-74904600D03*
X125717300Y-72364600D03*
X113017300Y-77444600D03*
X138417300Y-69824600D03*
X120637300Y-74904600D03*
X107950000Y-95250000D03*
X105397300Y-85064600D03*
X128257300Y-77444600D03*
X135877300Y-69824600D03*
X123177300Y-85064600D03*
X118097300Y-85064600D03*
X128257300Y-85064600D03*
X113017300Y-82524600D03*
X107937300Y-79984600D03*
X123177300Y-69824600D03*
X128270000Y-95250000D03*
X110477300Y-87604600D03*
X133350000Y-95250000D03*
X105397300Y-69824600D03*
X110477300Y-69824600D03*
X115557300Y-72364600D03*
X115557300Y-92684600D03*
X135877300Y-74904600D03*
X115557300Y-87604600D03*
X123177300Y-92684600D03*
X128257300Y-67284600D03*
X105397300Y-87604600D03*
X128257300Y-69824600D03*
X130797300Y-67284600D03*
X118097300Y-72364600D03*
X115557300Y-85064600D03*
X120637300Y-77444600D03*
X125717300Y-92684600D03*
X125717300Y-77444600D03*
X118097300Y-69824600D03*
X135877300Y-92684600D03*
X118097300Y-77444600D03*
X105410000Y-95250000D03*
X120637300Y-82524600D03*
X110477300Y-85064600D03*
X135877300Y-85064600D03*
X120637300Y-79984600D03*
X128257300Y-92684600D03*
X110477300Y-67284600D03*
X118110000Y-95250000D03*
X123177300Y-74904600D03*
X125717300Y-67284600D03*
X133337300Y-87604600D03*
X120637300Y-85064600D03*
X130797300Y-92684600D03*
X105397300Y-90144600D03*
X120650000Y-95250000D03*
X113017300Y-85064600D03*
X135877300Y-79984600D03*
X133337300Y-67284600D03*
X135877300Y-87604600D03*
X133337300Y-77444600D03*
X138417300Y-92684600D03*
X120637300Y-67284600D03*
X107937300Y-72364600D03*
X120637300Y-87604600D03*
X128257300Y-74904600D03*
X135890000Y-95250000D03*
X115557300Y-67284600D03*
X110477300Y-72364600D03*
X100317300Y-74904600D03*
X100317300Y-77444600D03*
X97777300Y-72364600D03*
X102857300Y-85064600D03*
X95237300Y-69824600D03*
X95237300Y-82524600D03*
X102857300Y-72364600D03*
X97777300Y-82524600D03*
X95237300Y-90144600D03*
X95237300Y-79984600D03*
X102857300Y-79984600D03*
X100317300Y-90144600D03*
X102857300Y-82524600D03*
X102857300Y-69824600D03*
X97777300Y-87604600D03*
X95237300Y-85064600D03*
X100317300Y-85064600D03*
X95250000Y-95250000D03*
X100317300Y-79984600D03*
X97777300Y-79984600D03*
X95237300Y-74904600D03*
X102857300Y-90144600D03*
X100317300Y-69824600D03*
X102857300Y-92684600D03*
X100317300Y-82524600D03*
X100317300Y-72364600D03*
X100317300Y-87604600D03*
X100330000Y-95250000D03*
X102857300Y-74904600D03*
X95237300Y-87604600D03*
X97777300Y-90144600D03*
X95237300Y-72364600D03*
X97777300Y-77444600D03*
X97777300Y-85064600D03*
X97790000Y-95250000D03*
X102870000Y-95250000D03*
X97777300Y-67284600D03*
X97777300Y-69824600D03*
X100317300Y-67284600D03*
X95237300Y-92684600D03*
X95237300Y-77444600D03*
X97777300Y-92684600D03*
X95237300Y-67284600D03*
X102857300Y-87604600D03*
X100317300Y-92684600D03*
X102857300Y-67284600D03*
X102857300Y-77444600D03*
X97777300Y-74904600D03*
X90157300Y-90144600D03*
X90157300Y-72364600D03*
X87617300Y-90144600D03*
X92697300Y-87604600D03*
X85077300Y-77444600D03*
X87617300Y-92684600D03*
X92697300Y-79984600D03*
X92697300Y-67284600D03*
X87617300Y-87604600D03*
X87617300Y-74904600D03*
X90157300Y-69824600D03*
X85077300Y-79984600D03*
X85090000Y-95250000D03*
X85077300Y-82524600D03*
X92710000Y-95250000D03*
X87617300Y-82524600D03*
X92697300Y-77444600D03*
X85077300Y-90144600D03*
X87617300Y-79984600D03*
X92697300Y-90144600D03*
X87617300Y-67284600D03*
X90157300Y-92684600D03*
X92697300Y-82524600D03*
X92697300Y-72364600D03*
X85077300Y-69824600D03*
X85077300Y-74904600D03*
X90157300Y-74904600D03*
X92697300Y-85064600D03*
X87617300Y-85064600D03*
X92697300Y-69824600D03*
X85077300Y-72364600D03*
X85077300Y-92684600D03*
X85077300Y-87604600D03*
X92697300Y-92684600D03*
X87617300Y-72364600D03*
X85077300Y-85064600D03*
X90157300Y-77444600D03*
X87617300Y-69824600D03*
X87617300Y-77444600D03*
X90157300Y-82524600D03*
X90157300Y-79984600D03*
X87630000Y-95250000D03*
X92697300Y-74904600D03*
X90157300Y-85064600D03*
X90170000Y-95250000D03*
X90157300Y-67284600D03*
X90157300Y-87604600D03*
X85077300Y-67284600D03*
X82537300Y-79984600D03*
X82550000Y-95250000D03*
X82537300Y-67284600D03*
X82537300Y-90144600D03*
X82537300Y-87604600D03*
X82537300Y-92684600D03*
X82537300Y-74904600D03*
X82537300Y-69824600D03*
X82537300Y-72364600D03*
X82537300Y-77444600D03*
X82537300Y-82524600D03*
X82537300Y-85064600D03*
D17*
X61849000Y-65151000D02*
X64770000Y-62230000D01*
X61849000Y-86741000D02*
X61849000Y-65151000D01*
X56515000Y-92075000D02*
X61849000Y-86741000D01*
X56515000Y-95250000D02*
X57150000Y-95885000D01*
X56515000Y-92075000D02*
X56515000Y-95250000D01*
X61130002Y-100330000D02*
X64770000Y-100330000D01*
X57150000Y-96349998D02*
X61130002Y-100330000D01*
X57150000Y-95885000D02*
X57150000Y-96349998D01*
X60898990Y-63561010D02*
X64770000Y-59690000D01*
X60898990Y-82896644D02*
X60898990Y-63561010D01*
X51720634Y-92075000D02*
X60898990Y-82896644D01*
X50165000Y-92075000D02*
X51720634Y-92075000D01*
X50165000Y-95250000D02*
X49530000Y-95885000D01*
X50165000Y-92075000D02*
X50165000Y-95250000D01*
X56515000Y-102870000D02*
X64770000Y-102870000D01*
X49530000Y-95885000D02*
X56515000Y-102870000D01*
X52070000Y-66040000D02*
X54610000Y-66040000D01*
X56048601Y-83988601D02*
X56515000Y-84455000D01*
X56048601Y-67478601D02*
X56048601Y-83988601D01*
X54610000Y-66040000D02*
X56048601Y-67478601D01*
X54610000Y-76200000D02*
X52070000Y-76200000D01*
X52070000Y-82550000D02*
X50165000Y-84455000D01*
X52070000Y-76200000D02*
X52070000Y-82550000D01*
D18*
X145090001Y-107840000D02*
X46410000Y-107840000D01*
X46410000Y-107062845D01*
X47366761Y-107062845D01*
X47534802Y-107388643D01*
X47926607Y-107589426D01*
X48350055Y-107709914D01*
X48788873Y-107745476D01*
X49226197Y-107694746D01*
X49645221Y-107559674D01*
X49965198Y-107388643D01*
X50133239Y-107062845D01*
X141366761Y-107062845D01*
X141534802Y-107388643D01*
X141926607Y-107589426D01*
X142350055Y-107709914D01*
X142788873Y-107745476D01*
X143226197Y-107694746D01*
X143645221Y-107559674D01*
X143965198Y-107388643D01*
X144133239Y-107062845D01*
X142750000Y-105679605D01*
X141366761Y-107062845D01*
X50133239Y-107062845D01*
X48750000Y-105679605D01*
X47366761Y-107062845D01*
X46410000Y-107062845D01*
X46410000Y-105538873D01*
X46504524Y-105538873D01*
X46555254Y-105976197D01*
X46690326Y-106395221D01*
X46861357Y-106715198D01*
X47187155Y-106883239D01*
X48570395Y-105500000D01*
X48929605Y-105500000D01*
X50312845Y-106883239D01*
X50638643Y-106715198D01*
X50839426Y-106323393D01*
X50959914Y-105899945D01*
X50989175Y-105538873D01*
X140504524Y-105538873D01*
X140555254Y-105976197D01*
X140690326Y-106395221D01*
X140861357Y-106715198D01*
X141187155Y-106883239D01*
X142570395Y-105500000D01*
X142929605Y-105500000D01*
X144312845Y-106883239D01*
X144638643Y-106715198D01*
X144839426Y-106323393D01*
X144959914Y-105899945D01*
X144995476Y-105461127D01*
X144944746Y-105023803D01*
X144809674Y-104604779D01*
X144638643Y-104284802D01*
X144312845Y-104116761D01*
X142929605Y-105500000D01*
X142570395Y-105500000D01*
X141187155Y-104116761D01*
X140861357Y-104284802D01*
X140660574Y-104676607D01*
X140540086Y-105100055D01*
X140504524Y-105538873D01*
X50989175Y-105538873D01*
X50995476Y-105461127D01*
X50944746Y-105023803D01*
X50809674Y-104604779D01*
X50638643Y-104284802D01*
X50312845Y-104116761D01*
X48929605Y-105500000D01*
X48570395Y-105500000D01*
X47187155Y-104116761D01*
X46861357Y-104284802D01*
X46660574Y-104676607D01*
X46540086Y-105100055D01*
X46504524Y-105538873D01*
X46410000Y-105538873D01*
X46410000Y-103937155D01*
X47366761Y-103937155D01*
X48750000Y-105320395D01*
X50133239Y-103937155D01*
X49965198Y-103611357D01*
X49573393Y-103410574D01*
X49149945Y-103290086D01*
X48711127Y-103254524D01*
X48273803Y-103305254D01*
X47854779Y-103440326D01*
X47534802Y-103611357D01*
X47366761Y-103937155D01*
X46410000Y-103937155D01*
X46410000Y-99185000D01*
X48091928Y-99185000D01*
X48104188Y-99309482D01*
X48140498Y-99429180D01*
X48199463Y-99539494D01*
X48278815Y-99636185D01*
X48375506Y-99715537D01*
X48485820Y-99774502D01*
X48605518Y-99810812D01*
X48730000Y-99823072D01*
X49244250Y-99820000D01*
X49403000Y-99661250D01*
X49403000Y-98512000D01*
X48253750Y-98512000D01*
X48095000Y-98670750D01*
X48091928Y-99185000D01*
X46410000Y-99185000D01*
X46410000Y-97585000D01*
X48091928Y-97585000D01*
X48095000Y-98099250D01*
X48253750Y-98258000D01*
X49403000Y-98258000D01*
X49403000Y-98238000D01*
X49657000Y-98238000D01*
X49657000Y-98258000D01*
X49677000Y-98258000D01*
X49677000Y-98512000D01*
X49657000Y-98512000D01*
X49657000Y-99661250D01*
X49815750Y-99820000D01*
X50330000Y-99823072D01*
X50454482Y-99810812D01*
X50574180Y-99774502D01*
X50684494Y-99715537D01*
X50781185Y-99636185D01*
X50860537Y-99539494D01*
X50919502Y-99429180D01*
X50955812Y-99309482D01*
X50968072Y-99185000D01*
X50965466Y-98748822D01*
X55765744Y-103549100D01*
X55797367Y-103587633D01*
X55951160Y-103713847D01*
X56126620Y-103807632D01*
X56317005Y-103865385D01*
X56515000Y-103884886D01*
X56564608Y-103880000D01*
X63535590Y-103880000D01*
X63536908Y-103881972D01*
X63758028Y-104103092D01*
X64018037Y-104276824D01*
X64306943Y-104396493D01*
X64613645Y-104457500D01*
X64926355Y-104457500D01*
X65233057Y-104396493D01*
X65521963Y-104276824D01*
X65781972Y-104103092D01*
X66003092Y-103881972D01*
X66042136Y-103823539D01*
X66064208Y-103856572D01*
X66285328Y-104077692D01*
X66545337Y-104251424D01*
X66834243Y-104371093D01*
X67140945Y-104432100D01*
X67453655Y-104432100D01*
X67760357Y-104371093D01*
X68049263Y-104251424D01*
X68309272Y-104077692D01*
X68530392Y-103856572D01*
X68567300Y-103801335D01*
X68604208Y-103856572D01*
X68825328Y-104077692D01*
X69085337Y-104251424D01*
X69374243Y-104371093D01*
X69680945Y-104432100D01*
X69993655Y-104432100D01*
X70300357Y-104371093D01*
X70589263Y-104251424D01*
X70849272Y-104077692D01*
X71070392Y-103856572D01*
X71107300Y-103801335D01*
X71144208Y-103856572D01*
X71365328Y-104077692D01*
X71625337Y-104251424D01*
X71914243Y-104371093D01*
X72220945Y-104432100D01*
X72533655Y-104432100D01*
X72840357Y-104371093D01*
X73129263Y-104251424D01*
X73389272Y-104077692D01*
X73610392Y-103856572D01*
X73647300Y-103801335D01*
X73684208Y-103856572D01*
X73905328Y-104077692D01*
X74165337Y-104251424D01*
X74454243Y-104371093D01*
X74760945Y-104432100D01*
X75073655Y-104432100D01*
X75380357Y-104371093D01*
X75669263Y-104251424D01*
X75929272Y-104077692D01*
X76150392Y-103856572D01*
X76187300Y-103801335D01*
X76224208Y-103856572D01*
X76445328Y-104077692D01*
X76705337Y-104251424D01*
X76994243Y-104371093D01*
X77300945Y-104432100D01*
X77613655Y-104432100D01*
X77920357Y-104371093D01*
X78209263Y-104251424D01*
X78469272Y-104077692D01*
X78690392Y-103856572D01*
X78727300Y-103801335D01*
X78764208Y-103856572D01*
X78985328Y-104077692D01*
X79245337Y-104251424D01*
X79534243Y-104371093D01*
X79840945Y-104432100D01*
X80153655Y-104432100D01*
X80460357Y-104371093D01*
X80749263Y-104251424D01*
X81009272Y-104077692D01*
X81230392Y-103856572D01*
X81267300Y-103801335D01*
X81304208Y-103856572D01*
X81525328Y-104077692D01*
X81785337Y-104251424D01*
X82074243Y-104371093D01*
X82380945Y-104432100D01*
X82693655Y-104432100D01*
X83000357Y-104371093D01*
X83289263Y-104251424D01*
X83549272Y-104077692D01*
X83770392Y-103856572D01*
X83807300Y-103801335D01*
X83844208Y-103856572D01*
X84065328Y-104077692D01*
X84325337Y-104251424D01*
X84614243Y-104371093D01*
X84920945Y-104432100D01*
X85233655Y-104432100D01*
X85540357Y-104371093D01*
X85829263Y-104251424D01*
X86089272Y-104077692D01*
X86310392Y-103856572D01*
X86347300Y-103801335D01*
X86384208Y-103856572D01*
X86605328Y-104077692D01*
X86865337Y-104251424D01*
X87154243Y-104371093D01*
X87460945Y-104432100D01*
X87773655Y-104432100D01*
X88080357Y-104371093D01*
X88369263Y-104251424D01*
X88629272Y-104077692D01*
X88850392Y-103856572D01*
X88887300Y-103801335D01*
X88924208Y-103856572D01*
X89145328Y-104077692D01*
X89405337Y-104251424D01*
X89694243Y-104371093D01*
X90000945Y-104432100D01*
X90313655Y-104432100D01*
X90620357Y-104371093D01*
X90909263Y-104251424D01*
X91169272Y-104077692D01*
X91390392Y-103856572D01*
X91427300Y-103801335D01*
X91464208Y-103856572D01*
X91685328Y-104077692D01*
X91945337Y-104251424D01*
X92234243Y-104371093D01*
X92540945Y-104432100D01*
X92853655Y-104432100D01*
X93160357Y-104371093D01*
X93449263Y-104251424D01*
X93709272Y-104077692D01*
X93930392Y-103856572D01*
X93967300Y-103801335D01*
X94004208Y-103856572D01*
X94225328Y-104077692D01*
X94485337Y-104251424D01*
X94774243Y-104371093D01*
X95080945Y-104432100D01*
X95393655Y-104432100D01*
X95700357Y-104371093D01*
X95989263Y-104251424D01*
X96249272Y-104077692D01*
X96470392Y-103856572D01*
X96507300Y-103801335D01*
X96544208Y-103856572D01*
X96765328Y-104077692D01*
X97025337Y-104251424D01*
X97314243Y-104371093D01*
X97620945Y-104432100D01*
X97933655Y-104432100D01*
X98240357Y-104371093D01*
X98529263Y-104251424D01*
X98789272Y-104077692D01*
X99010392Y-103856572D01*
X99047300Y-103801335D01*
X99084208Y-103856572D01*
X99305328Y-104077692D01*
X99565337Y-104251424D01*
X99854243Y-104371093D01*
X100160945Y-104432100D01*
X100473655Y-104432100D01*
X100780357Y-104371093D01*
X101069263Y-104251424D01*
X101329272Y-104077692D01*
X101550392Y-103856572D01*
X101587300Y-103801335D01*
X101624208Y-103856572D01*
X101845328Y-104077692D01*
X102105337Y-104251424D01*
X102394243Y-104371093D01*
X102700945Y-104432100D01*
X103013655Y-104432100D01*
X103320357Y-104371093D01*
X103609263Y-104251424D01*
X103869272Y-104077692D01*
X104090392Y-103856572D01*
X104127300Y-103801335D01*
X104164208Y-103856572D01*
X104385328Y-104077692D01*
X104645337Y-104251424D01*
X104934243Y-104371093D01*
X105240945Y-104432100D01*
X105553655Y-104432100D01*
X105860357Y-104371093D01*
X106149263Y-104251424D01*
X106409272Y-104077692D01*
X106630392Y-103856572D01*
X106667300Y-103801335D01*
X106704208Y-103856572D01*
X106925328Y-104077692D01*
X107185337Y-104251424D01*
X107474243Y-104371093D01*
X107780945Y-104432100D01*
X108093655Y-104432100D01*
X108400357Y-104371093D01*
X108689263Y-104251424D01*
X108949272Y-104077692D01*
X109170392Y-103856572D01*
X109207300Y-103801335D01*
X109244208Y-103856572D01*
X109465328Y-104077692D01*
X109725337Y-104251424D01*
X110014243Y-104371093D01*
X110320945Y-104432100D01*
X110633655Y-104432100D01*
X110940357Y-104371093D01*
X111229263Y-104251424D01*
X111489272Y-104077692D01*
X111710392Y-103856572D01*
X111747300Y-103801335D01*
X111784208Y-103856572D01*
X112005328Y-104077692D01*
X112265337Y-104251424D01*
X112554243Y-104371093D01*
X112860945Y-104432100D01*
X113173655Y-104432100D01*
X113480357Y-104371093D01*
X113769263Y-104251424D01*
X114029272Y-104077692D01*
X114250392Y-103856572D01*
X114287300Y-103801335D01*
X114324208Y-103856572D01*
X114545328Y-104077692D01*
X114805337Y-104251424D01*
X115094243Y-104371093D01*
X115400945Y-104432100D01*
X115713655Y-104432100D01*
X116020357Y-104371093D01*
X116309263Y-104251424D01*
X116569272Y-104077692D01*
X116790392Y-103856572D01*
X116827300Y-103801335D01*
X116864208Y-103856572D01*
X117085328Y-104077692D01*
X117345337Y-104251424D01*
X117634243Y-104371093D01*
X117940945Y-104432100D01*
X118253655Y-104432100D01*
X118560357Y-104371093D01*
X118849263Y-104251424D01*
X119109272Y-104077692D01*
X119330392Y-103856572D01*
X119367300Y-103801335D01*
X119404208Y-103856572D01*
X119625328Y-104077692D01*
X119885337Y-104251424D01*
X120174243Y-104371093D01*
X120480945Y-104432100D01*
X120793655Y-104432100D01*
X121100357Y-104371093D01*
X121389263Y-104251424D01*
X121649272Y-104077692D01*
X121870392Y-103856572D01*
X121907300Y-103801335D01*
X121944208Y-103856572D01*
X122165328Y-104077692D01*
X122425337Y-104251424D01*
X122714243Y-104371093D01*
X123020945Y-104432100D01*
X123333655Y-104432100D01*
X123640357Y-104371093D01*
X123929263Y-104251424D01*
X124189272Y-104077692D01*
X124410392Y-103856572D01*
X124447300Y-103801335D01*
X124484208Y-103856572D01*
X124705328Y-104077692D01*
X124965337Y-104251424D01*
X125254243Y-104371093D01*
X125560945Y-104432100D01*
X125873655Y-104432100D01*
X126180357Y-104371093D01*
X126469263Y-104251424D01*
X126729272Y-104077692D01*
X126950392Y-103856572D01*
X126987300Y-103801335D01*
X127024208Y-103856572D01*
X127245328Y-104077692D01*
X127505337Y-104251424D01*
X127794243Y-104371093D01*
X128100945Y-104432100D01*
X128413655Y-104432100D01*
X128720357Y-104371093D01*
X129009263Y-104251424D01*
X129269272Y-104077692D01*
X129490392Y-103856572D01*
X129527300Y-103801335D01*
X129564208Y-103856572D01*
X129785328Y-104077692D01*
X130045337Y-104251424D01*
X130334243Y-104371093D01*
X130640945Y-104432100D01*
X130953655Y-104432100D01*
X131260357Y-104371093D01*
X131549263Y-104251424D01*
X131809272Y-104077692D01*
X132030392Y-103856572D01*
X132067300Y-103801335D01*
X132104208Y-103856572D01*
X132325328Y-104077692D01*
X132585337Y-104251424D01*
X132874243Y-104371093D01*
X133180945Y-104432100D01*
X133493655Y-104432100D01*
X133800357Y-104371093D01*
X134089263Y-104251424D01*
X134349272Y-104077692D01*
X134570392Y-103856572D01*
X134607300Y-103801335D01*
X134644208Y-103856572D01*
X134865328Y-104077692D01*
X135125337Y-104251424D01*
X135414243Y-104371093D01*
X135720945Y-104432100D01*
X136033655Y-104432100D01*
X136340357Y-104371093D01*
X136629263Y-104251424D01*
X136889272Y-104077692D01*
X137110392Y-103856572D01*
X137147300Y-103801335D01*
X137184208Y-103856572D01*
X137405328Y-104077692D01*
X137665337Y-104251424D01*
X137954243Y-104371093D01*
X138260945Y-104432100D01*
X138573655Y-104432100D01*
X138880357Y-104371093D01*
X139169263Y-104251424D01*
X139429272Y-104077692D01*
X139569809Y-103937155D01*
X141366761Y-103937155D01*
X142750000Y-105320395D01*
X144133239Y-103937155D01*
X143965198Y-103611357D01*
X143573393Y-103410574D01*
X143149945Y-103290086D01*
X142711127Y-103254524D01*
X142273803Y-103305254D01*
X141854779Y-103440326D01*
X141534802Y-103611357D01*
X141366761Y-103937155D01*
X139569809Y-103937155D01*
X139650392Y-103856572D01*
X139824124Y-103596563D01*
X139943793Y-103307657D01*
X140004800Y-103000955D01*
X140004800Y-102688245D01*
X139943793Y-102381543D01*
X139824124Y-102092637D01*
X139650392Y-101832628D01*
X139429272Y-101611508D01*
X139374035Y-101574600D01*
X139429272Y-101537692D01*
X139650392Y-101316572D01*
X139687300Y-101261335D01*
X139724208Y-101316572D01*
X139945328Y-101537692D01*
X140205337Y-101711424D01*
X140494243Y-101831093D01*
X140800945Y-101892100D01*
X141113655Y-101892100D01*
X141420357Y-101831093D01*
X141709263Y-101711424D01*
X141969272Y-101537692D01*
X142190392Y-101316572D01*
X142364124Y-101056563D01*
X142483793Y-100767657D01*
X142544800Y-100460955D01*
X142544800Y-100148245D01*
X142483793Y-99841543D01*
X142364124Y-99552637D01*
X142190392Y-99292628D01*
X141969272Y-99071508D01*
X141914035Y-99034600D01*
X141969272Y-98997692D01*
X142190392Y-98776572D01*
X142364124Y-98516563D01*
X142483793Y-98227657D01*
X142544800Y-97920955D01*
X142544800Y-97608245D01*
X142483793Y-97301543D01*
X142364124Y-97012637D01*
X142190392Y-96752628D01*
X141969272Y-96531508D01*
X141914035Y-96494600D01*
X141969272Y-96457692D01*
X142190392Y-96236572D01*
X142364124Y-95976563D01*
X142483793Y-95687657D01*
X142544800Y-95380955D01*
X142544800Y-95068245D01*
X142483793Y-94761543D01*
X142364124Y-94472637D01*
X142190392Y-94212628D01*
X141969272Y-93991508D01*
X141914035Y-93954600D01*
X141969272Y-93917692D01*
X142190392Y-93696572D01*
X142364124Y-93436563D01*
X142483793Y-93147657D01*
X142544800Y-92840955D01*
X142544800Y-92528245D01*
X142483793Y-92221543D01*
X142364124Y-91932637D01*
X142190392Y-91672628D01*
X141969272Y-91451508D01*
X141914035Y-91414600D01*
X141969272Y-91377692D01*
X142190392Y-91156572D01*
X142364124Y-90896563D01*
X142483793Y-90607657D01*
X142544800Y-90300955D01*
X142544800Y-89988245D01*
X142483793Y-89681543D01*
X142364124Y-89392637D01*
X142190392Y-89132628D01*
X141969272Y-88911508D01*
X141914035Y-88874600D01*
X141969272Y-88837692D01*
X142190392Y-88616572D01*
X142364124Y-88356563D01*
X142483793Y-88067657D01*
X142544800Y-87760955D01*
X142544800Y-87448245D01*
X142483793Y-87141543D01*
X142364124Y-86852637D01*
X142190392Y-86592628D01*
X141969272Y-86371508D01*
X141914035Y-86334600D01*
X141969272Y-86297692D01*
X142190392Y-86076572D01*
X142364124Y-85816563D01*
X142483793Y-85527657D01*
X142544800Y-85220955D01*
X142544800Y-84908245D01*
X142483793Y-84601543D01*
X142364124Y-84312637D01*
X142190392Y-84052628D01*
X141969272Y-83831508D01*
X141914035Y-83794600D01*
X141969272Y-83757692D01*
X142190392Y-83536572D01*
X142364124Y-83276563D01*
X142483793Y-82987657D01*
X142544800Y-82680955D01*
X142544800Y-82368245D01*
X142483793Y-82061543D01*
X142364124Y-81772637D01*
X142190392Y-81512628D01*
X141969272Y-81291508D01*
X141914035Y-81254600D01*
X141969272Y-81217692D01*
X142190392Y-80996572D01*
X142364124Y-80736563D01*
X142483793Y-80447657D01*
X142544800Y-80140955D01*
X142544800Y-79828245D01*
X142483793Y-79521543D01*
X142364124Y-79232637D01*
X142190392Y-78972628D01*
X141969272Y-78751508D01*
X141914035Y-78714600D01*
X141969272Y-78677692D01*
X142190392Y-78456572D01*
X142364124Y-78196563D01*
X142483793Y-77907657D01*
X142544800Y-77600955D01*
X142544800Y-77288245D01*
X142483793Y-76981543D01*
X142364124Y-76692637D01*
X142190392Y-76432628D01*
X141969272Y-76211508D01*
X141914035Y-76174600D01*
X141969272Y-76137692D01*
X142190392Y-75916572D01*
X142364124Y-75656563D01*
X142483793Y-75367657D01*
X142544800Y-75060955D01*
X142544800Y-74748245D01*
X142483793Y-74441543D01*
X142364124Y-74152637D01*
X142190392Y-73892628D01*
X141969272Y-73671508D01*
X141914035Y-73634600D01*
X141969272Y-73597692D01*
X142190392Y-73376572D01*
X142364124Y-73116563D01*
X142483793Y-72827657D01*
X142544800Y-72520955D01*
X142544800Y-72208245D01*
X142483793Y-71901543D01*
X142364124Y-71612637D01*
X142190392Y-71352628D01*
X141969272Y-71131508D01*
X141914035Y-71094600D01*
X141969272Y-71057692D01*
X142190392Y-70836572D01*
X142364124Y-70576563D01*
X142483793Y-70287657D01*
X142544800Y-69980955D01*
X142544800Y-69668245D01*
X142483793Y-69361543D01*
X142364124Y-69072637D01*
X142190392Y-68812628D01*
X141969272Y-68591508D01*
X141914035Y-68554600D01*
X141969272Y-68517692D01*
X142190392Y-68296572D01*
X142364124Y-68036563D01*
X142483793Y-67747657D01*
X142544800Y-67440955D01*
X142544800Y-67128245D01*
X142483793Y-66821543D01*
X142364124Y-66532637D01*
X142190392Y-66272628D01*
X141969272Y-66051508D01*
X141914035Y-66014600D01*
X141969272Y-65977692D01*
X142190392Y-65756572D01*
X142364124Y-65496563D01*
X142483793Y-65207657D01*
X142544800Y-64900955D01*
X142544800Y-64588245D01*
X142483793Y-64281543D01*
X142364124Y-63992637D01*
X142190392Y-63732628D01*
X141969272Y-63511508D01*
X141914035Y-63474600D01*
X141969272Y-63437692D01*
X142190392Y-63216572D01*
X142364124Y-62956563D01*
X142483793Y-62667657D01*
X142544800Y-62360955D01*
X142544800Y-62048245D01*
X142483793Y-61741543D01*
X142364124Y-61452637D01*
X142190392Y-61192628D01*
X141969272Y-60971508D01*
X141709263Y-60797776D01*
X141420357Y-60678107D01*
X141113655Y-60617100D01*
X140800945Y-60617100D01*
X140494243Y-60678107D01*
X140205337Y-60797776D01*
X139945328Y-60971508D01*
X139724208Y-61192628D01*
X139687300Y-61247865D01*
X139650392Y-61192628D01*
X139429272Y-60971508D01*
X139374035Y-60934600D01*
X139429272Y-60897692D01*
X139650392Y-60676572D01*
X139824124Y-60416563D01*
X139943793Y-60127657D01*
X140004800Y-59820955D01*
X140004800Y-59508245D01*
X139943793Y-59201543D01*
X139824124Y-58912637D01*
X139650392Y-58652628D01*
X139429272Y-58431508D01*
X139169263Y-58257776D01*
X138880357Y-58138107D01*
X138573655Y-58077100D01*
X138260945Y-58077100D01*
X137954243Y-58138107D01*
X137665337Y-58257776D01*
X137405328Y-58431508D01*
X137184208Y-58652628D01*
X137147300Y-58707865D01*
X137110392Y-58652628D01*
X136889272Y-58431508D01*
X136629263Y-58257776D01*
X136340357Y-58138107D01*
X136033655Y-58077100D01*
X135720945Y-58077100D01*
X135414243Y-58138107D01*
X135125337Y-58257776D01*
X134865328Y-58431508D01*
X134644208Y-58652628D01*
X134607300Y-58707865D01*
X134570392Y-58652628D01*
X134349272Y-58431508D01*
X134089263Y-58257776D01*
X133800357Y-58138107D01*
X133493655Y-58077100D01*
X133180945Y-58077100D01*
X132874243Y-58138107D01*
X132585337Y-58257776D01*
X132325328Y-58431508D01*
X132104208Y-58652628D01*
X132067300Y-58707865D01*
X132030392Y-58652628D01*
X131809272Y-58431508D01*
X131549263Y-58257776D01*
X131260357Y-58138107D01*
X130953655Y-58077100D01*
X130640945Y-58077100D01*
X130334243Y-58138107D01*
X130045337Y-58257776D01*
X129785328Y-58431508D01*
X129564208Y-58652628D01*
X129527300Y-58707865D01*
X129490392Y-58652628D01*
X129269272Y-58431508D01*
X129009263Y-58257776D01*
X128720357Y-58138107D01*
X128413655Y-58077100D01*
X128100945Y-58077100D01*
X127794243Y-58138107D01*
X127505337Y-58257776D01*
X127245328Y-58431508D01*
X127024208Y-58652628D01*
X126987300Y-58707865D01*
X126950392Y-58652628D01*
X126729272Y-58431508D01*
X126469263Y-58257776D01*
X126180357Y-58138107D01*
X125873655Y-58077100D01*
X125560945Y-58077100D01*
X125254243Y-58138107D01*
X124965337Y-58257776D01*
X124705328Y-58431508D01*
X124484208Y-58652628D01*
X124447300Y-58707865D01*
X124410392Y-58652628D01*
X124189272Y-58431508D01*
X123929263Y-58257776D01*
X123640357Y-58138107D01*
X123333655Y-58077100D01*
X123020945Y-58077100D01*
X122714243Y-58138107D01*
X122425337Y-58257776D01*
X122165328Y-58431508D01*
X121944208Y-58652628D01*
X121907300Y-58707865D01*
X121870392Y-58652628D01*
X121649272Y-58431508D01*
X121389263Y-58257776D01*
X121100357Y-58138107D01*
X120793655Y-58077100D01*
X120480945Y-58077100D01*
X120174243Y-58138107D01*
X119885337Y-58257776D01*
X119625328Y-58431508D01*
X119404208Y-58652628D01*
X119367300Y-58707865D01*
X119330392Y-58652628D01*
X119109272Y-58431508D01*
X118849263Y-58257776D01*
X118560357Y-58138107D01*
X118253655Y-58077100D01*
X117940945Y-58077100D01*
X117634243Y-58138107D01*
X117345337Y-58257776D01*
X117085328Y-58431508D01*
X116864208Y-58652628D01*
X116827300Y-58707865D01*
X116790392Y-58652628D01*
X116569272Y-58431508D01*
X116309263Y-58257776D01*
X116020357Y-58138107D01*
X115713655Y-58077100D01*
X115400945Y-58077100D01*
X115094243Y-58138107D01*
X114805337Y-58257776D01*
X114545328Y-58431508D01*
X114324208Y-58652628D01*
X114287300Y-58707865D01*
X114250392Y-58652628D01*
X114029272Y-58431508D01*
X113769263Y-58257776D01*
X113480357Y-58138107D01*
X113173655Y-58077100D01*
X112860945Y-58077100D01*
X112554243Y-58138107D01*
X112265337Y-58257776D01*
X112005328Y-58431508D01*
X111784208Y-58652628D01*
X111747300Y-58707865D01*
X111710392Y-58652628D01*
X111489272Y-58431508D01*
X111229263Y-58257776D01*
X110940357Y-58138107D01*
X110633655Y-58077100D01*
X110320945Y-58077100D01*
X110014243Y-58138107D01*
X109725337Y-58257776D01*
X109465328Y-58431508D01*
X109244208Y-58652628D01*
X109207300Y-58707865D01*
X109170392Y-58652628D01*
X108949272Y-58431508D01*
X108689263Y-58257776D01*
X108400357Y-58138107D01*
X108093655Y-58077100D01*
X107780945Y-58077100D01*
X107474243Y-58138107D01*
X107185337Y-58257776D01*
X106925328Y-58431508D01*
X106704208Y-58652628D01*
X106667300Y-58707865D01*
X106630392Y-58652628D01*
X106409272Y-58431508D01*
X106149263Y-58257776D01*
X105860357Y-58138107D01*
X105553655Y-58077100D01*
X105240945Y-58077100D01*
X104934243Y-58138107D01*
X104645337Y-58257776D01*
X104385328Y-58431508D01*
X104164208Y-58652628D01*
X104127300Y-58707865D01*
X104090392Y-58652628D01*
X103869272Y-58431508D01*
X103609263Y-58257776D01*
X103320357Y-58138107D01*
X103013655Y-58077100D01*
X102700945Y-58077100D01*
X102394243Y-58138107D01*
X102105337Y-58257776D01*
X101845328Y-58431508D01*
X101624208Y-58652628D01*
X101587300Y-58707865D01*
X101550392Y-58652628D01*
X101329272Y-58431508D01*
X101069263Y-58257776D01*
X100780357Y-58138107D01*
X100473655Y-58077100D01*
X100160945Y-58077100D01*
X99854243Y-58138107D01*
X99565337Y-58257776D01*
X99305328Y-58431508D01*
X99084208Y-58652628D01*
X99047300Y-58707865D01*
X99010392Y-58652628D01*
X98789272Y-58431508D01*
X98529263Y-58257776D01*
X98240357Y-58138107D01*
X97933655Y-58077100D01*
X97620945Y-58077100D01*
X97314243Y-58138107D01*
X97025337Y-58257776D01*
X96765328Y-58431508D01*
X96544208Y-58652628D01*
X96507300Y-58707865D01*
X96470392Y-58652628D01*
X96249272Y-58431508D01*
X95989263Y-58257776D01*
X95700357Y-58138107D01*
X95393655Y-58077100D01*
X95080945Y-58077100D01*
X94774243Y-58138107D01*
X94485337Y-58257776D01*
X94225328Y-58431508D01*
X94004208Y-58652628D01*
X93967300Y-58707865D01*
X93930392Y-58652628D01*
X93709272Y-58431508D01*
X93449263Y-58257776D01*
X93160357Y-58138107D01*
X92853655Y-58077100D01*
X92540945Y-58077100D01*
X92234243Y-58138107D01*
X91945337Y-58257776D01*
X91685328Y-58431508D01*
X91464208Y-58652628D01*
X91427300Y-58707865D01*
X91390392Y-58652628D01*
X91169272Y-58431508D01*
X90909263Y-58257776D01*
X90620357Y-58138107D01*
X90313655Y-58077100D01*
X90000945Y-58077100D01*
X89694243Y-58138107D01*
X89405337Y-58257776D01*
X89145328Y-58431508D01*
X88924208Y-58652628D01*
X88887300Y-58707865D01*
X88850392Y-58652628D01*
X88629272Y-58431508D01*
X88369263Y-58257776D01*
X88080357Y-58138107D01*
X87773655Y-58077100D01*
X87460945Y-58077100D01*
X87154243Y-58138107D01*
X86865337Y-58257776D01*
X86605328Y-58431508D01*
X86384208Y-58652628D01*
X86347300Y-58707865D01*
X86310392Y-58652628D01*
X86089272Y-58431508D01*
X85829263Y-58257776D01*
X85540357Y-58138107D01*
X85233655Y-58077100D01*
X84920945Y-58077100D01*
X84614243Y-58138107D01*
X84325337Y-58257776D01*
X84065328Y-58431508D01*
X83844208Y-58652628D01*
X83807300Y-58707865D01*
X83770392Y-58652628D01*
X83549272Y-58431508D01*
X83289263Y-58257776D01*
X83000357Y-58138107D01*
X82693655Y-58077100D01*
X82380945Y-58077100D01*
X82074243Y-58138107D01*
X81785337Y-58257776D01*
X81525328Y-58431508D01*
X81304208Y-58652628D01*
X81267300Y-58707865D01*
X81230392Y-58652628D01*
X81009272Y-58431508D01*
X80749263Y-58257776D01*
X80460357Y-58138107D01*
X80153655Y-58077100D01*
X79840945Y-58077100D01*
X79534243Y-58138107D01*
X79245337Y-58257776D01*
X78985328Y-58431508D01*
X78764208Y-58652628D01*
X78727300Y-58707865D01*
X78690392Y-58652628D01*
X78469272Y-58431508D01*
X78209263Y-58257776D01*
X77920357Y-58138107D01*
X77613655Y-58077100D01*
X77300945Y-58077100D01*
X76994243Y-58138107D01*
X76705337Y-58257776D01*
X76445328Y-58431508D01*
X76224208Y-58652628D01*
X76187300Y-58707865D01*
X76150392Y-58652628D01*
X75929272Y-58431508D01*
X75669263Y-58257776D01*
X75380357Y-58138107D01*
X75073655Y-58077100D01*
X74760945Y-58077100D01*
X74454243Y-58138107D01*
X74165337Y-58257776D01*
X73905328Y-58431508D01*
X73684208Y-58652628D01*
X73647300Y-58707865D01*
X73610392Y-58652628D01*
X73389272Y-58431508D01*
X73129263Y-58257776D01*
X72840357Y-58138107D01*
X72533655Y-58077100D01*
X72220945Y-58077100D01*
X71914243Y-58138107D01*
X71625337Y-58257776D01*
X71365328Y-58431508D01*
X71144208Y-58652628D01*
X71107300Y-58707865D01*
X71070392Y-58652628D01*
X70849272Y-58431508D01*
X70589263Y-58257776D01*
X70300357Y-58138107D01*
X69993655Y-58077100D01*
X69680945Y-58077100D01*
X69374243Y-58138107D01*
X69085337Y-58257776D01*
X68825328Y-58431508D01*
X68604208Y-58652628D01*
X68567300Y-58707865D01*
X68530392Y-58652628D01*
X68309272Y-58431508D01*
X68049263Y-58257776D01*
X67760357Y-58138107D01*
X67453655Y-58077100D01*
X67140945Y-58077100D01*
X66834243Y-58138107D01*
X66545337Y-58257776D01*
X66285328Y-58431508D01*
X66064208Y-58652628D01*
X66025164Y-58711061D01*
X66003092Y-58678028D01*
X65781972Y-58456908D01*
X65521963Y-58283176D01*
X65233057Y-58163507D01*
X64926355Y-58102500D01*
X64613645Y-58102500D01*
X64306943Y-58163507D01*
X64018037Y-58283176D01*
X63758028Y-58456908D01*
X63536908Y-58678028D01*
X63363176Y-58938037D01*
X63243507Y-59226943D01*
X63182500Y-59533645D01*
X63182500Y-59846355D01*
X63182963Y-59848681D01*
X60219891Y-62811754D01*
X60181358Y-62843377D01*
X60149735Y-62881910D01*
X60149734Y-62881911D01*
X60055144Y-62997170D01*
X59961358Y-63172631D01*
X59903605Y-63363016D01*
X59884104Y-63561010D01*
X59888991Y-63610628D01*
X59888990Y-82478288D01*
X58222320Y-84144959D01*
X58183325Y-83948919D01*
X58052537Y-83633169D01*
X57862663Y-83349002D01*
X57620998Y-83107337D01*
X57336831Y-82917463D01*
X57058601Y-82802216D01*
X57058601Y-67528205D01*
X57063487Y-67478600D01*
X57053104Y-67373183D01*
X57043986Y-67280607D01*
X56986233Y-67090221D01*
X56892448Y-66914761D01*
X56766234Y-66760968D01*
X56727695Y-66729340D01*
X56108600Y-66110245D01*
X56108600Y-65892401D01*
X56051010Y-65602875D01*
X55938042Y-65330147D01*
X55774039Y-65084698D01*
X55565302Y-64875961D01*
X55319853Y-64711958D01*
X55047125Y-64598990D01*
X54757599Y-64541400D01*
X54462401Y-64541400D01*
X54172875Y-64598990D01*
X53900147Y-64711958D01*
X53654698Y-64875961D01*
X53500659Y-65030000D01*
X53179341Y-65030000D01*
X53025302Y-64875961D01*
X52779853Y-64711958D01*
X52507125Y-64598990D01*
X52217599Y-64541400D01*
X51922401Y-64541400D01*
X51632875Y-64598990D01*
X51360147Y-64711958D01*
X51114698Y-64875961D01*
X50905961Y-65084698D01*
X50741958Y-65330147D01*
X50628990Y-65602875D01*
X50571400Y-65892401D01*
X50571400Y-66187599D01*
X50628990Y-66477125D01*
X50741958Y-66749853D01*
X50905961Y-66995302D01*
X51114698Y-67204039D01*
X51280103Y-67314559D01*
X51181512Y-67373183D01*
X50963146Y-67569707D01*
X50787316Y-67805056D01*
X50660778Y-68070186D01*
X50615042Y-68220974D01*
X50736183Y-68453000D01*
X51943000Y-68453000D01*
X51943000Y-68433000D01*
X52197000Y-68433000D01*
X52197000Y-68453000D01*
X54483000Y-68453000D01*
X54483000Y-68433000D01*
X54737000Y-68433000D01*
X54737000Y-68453000D01*
X54757000Y-68453000D01*
X54757000Y-68707000D01*
X54737000Y-68707000D01*
X54737000Y-70993000D01*
X54757000Y-70993000D01*
X54757000Y-71247000D01*
X54737000Y-71247000D01*
X54737000Y-73533000D01*
X54757000Y-73533000D01*
X54757000Y-73787000D01*
X54737000Y-73787000D01*
X54737000Y-73807000D01*
X54483000Y-73807000D01*
X54483000Y-73787000D01*
X52197000Y-73787000D01*
X52197000Y-73807000D01*
X51943000Y-73807000D01*
X51943000Y-73787000D01*
X50736183Y-73787000D01*
X50615042Y-74019026D01*
X50660778Y-74169814D01*
X50787316Y-74434944D01*
X50963146Y-74670293D01*
X51181512Y-74866817D01*
X51280103Y-74925441D01*
X51114698Y-75035961D01*
X50905961Y-75244698D01*
X50741958Y-75490147D01*
X50628990Y-75762875D01*
X50571400Y-76052401D01*
X50571400Y-76347599D01*
X50628990Y-76637125D01*
X50741958Y-76909853D01*
X50905961Y-77155302D01*
X51060000Y-77309341D01*
X51060001Y-82131643D01*
X50474716Y-82716928D01*
X49065000Y-82716928D01*
X48940518Y-82729188D01*
X48820820Y-82765498D01*
X48710506Y-82824463D01*
X48613815Y-82903815D01*
X48534463Y-83000506D01*
X48475498Y-83110820D01*
X48439188Y-83230518D01*
X48426928Y-83355000D01*
X48426928Y-85555000D01*
X48439188Y-85679482D01*
X48475498Y-85799180D01*
X48534463Y-85909494D01*
X48613815Y-86006185D01*
X48710506Y-86085537D01*
X48820820Y-86144502D01*
X48940518Y-86180812D01*
X49065000Y-86193072D01*
X51265000Y-86193072D01*
X51389482Y-86180812D01*
X51509180Y-86144502D01*
X51619494Y-86085537D01*
X51716185Y-86006185D01*
X51795537Y-85909494D01*
X51854502Y-85799180D01*
X51890812Y-85679482D01*
X51903072Y-85555000D01*
X51903072Y-84145284D01*
X52749100Y-83299256D01*
X52787633Y-83267633D01*
X52913847Y-83113840D01*
X53007632Y-82938380D01*
X53018117Y-82903815D01*
X53065385Y-82747995D01*
X53084886Y-82550000D01*
X53080000Y-82500392D01*
X53080000Y-77309341D01*
X53139364Y-77249977D01*
X53156898Y-77307780D01*
X53215863Y-77418094D01*
X53295215Y-77514785D01*
X53391906Y-77594137D01*
X53502220Y-77653102D01*
X53621918Y-77689412D01*
X53746400Y-77701672D01*
X55038602Y-77701672D01*
X55038602Y-83541668D01*
X54977463Y-83633169D01*
X54846675Y-83948919D01*
X54780000Y-84284117D01*
X54780000Y-84625883D01*
X54846675Y-84961081D01*
X54977463Y-85276831D01*
X55167337Y-85560998D01*
X55409002Y-85802663D01*
X55693169Y-85992537D01*
X56008919Y-86123325D01*
X56204959Y-86162320D01*
X51455470Y-90911809D01*
X51270998Y-90727337D01*
X50986831Y-90537463D01*
X50671081Y-90406675D01*
X50335883Y-90340000D01*
X49994117Y-90340000D01*
X49658919Y-90406675D01*
X49343169Y-90537463D01*
X49059002Y-90727337D01*
X48817337Y-90969002D01*
X48627463Y-91253169D01*
X48496675Y-91568919D01*
X48430000Y-91904117D01*
X48430000Y-92245883D01*
X48496675Y-92581081D01*
X48627463Y-92896831D01*
X48817337Y-93180998D01*
X49059002Y-93422663D01*
X49155000Y-93486807D01*
X49155001Y-94496479D01*
X49111426Y-94505147D01*
X48850273Y-94613320D01*
X48615241Y-94770363D01*
X48415363Y-94970241D01*
X48258320Y-95205273D01*
X48150147Y-95466426D01*
X48095000Y-95743665D01*
X48095000Y-96026335D01*
X48150147Y-96303574D01*
X48258320Y-96564727D01*
X48415363Y-96799759D01*
X48581943Y-96966339D01*
X48485820Y-96995498D01*
X48375506Y-97054463D01*
X48278815Y-97133815D01*
X48199463Y-97230506D01*
X48140498Y-97340820D01*
X48104188Y-97460518D01*
X48091928Y-97585000D01*
X46410000Y-97585000D01*
X46410000Y-71479026D01*
X50615042Y-71479026D01*
X50660778Y-71629814D01*
X50787316Y-71894944D01*
X50963146Y-72130293D01*
X51181512Y-72326817D01*
X51287770Y-72390000D01*
X51181512Y-72453183D01*
X50963146Y-72649707D01*
X50787316Y-72885056D01*
X50660778Y-73150186D01*
X50615042Y-73300974D01*
X50736183Y-73533000D01*
X51943000Y-73533000D01*
X51943000Y-71247000D01*
X52197000Y-71247000D01*
X52197000Y-73533000D01*
X54483000Y-73533000D01*
X54483000Y-71247000D01*
X52197000Y-71247000D01*
X51943000Y-71247000D01*
X50736183Y-71247000D01*
X50615042Y-71479026D01*
X46410000Y-71479026D01*
X46410000Y-68939026D01*
X50615042Y-68939026D01*
X50660778Y-69089814D01*
X50787316Y-69354944D01*
X50963146Y-69590293D01*
X51181512Y-69786817D01*
X51287770Y-69850000D01*
X51181512Y-69913183D01*
X50963146Y-70109707D01*
X50787316Y-70345056D01*
X50660778Y-70610186D01*
X50615042Y-70760974D01*
X50736183Y-70993000D01*
X51943000Y-70993000D01*
X51943000Y-68707000D01*
X52197000Y-68707000D01*
X52197000Y-70993000D01*
X54483000Y-70993000D01*
X54483000Y-68707000D01*
X52197000Y-68707000D01*
X51943000Y-68707000D01*
X50736183Y-68707000D01*
X50615042Y-68939026D01*
X46410000Y-68939026D01*
X46410000Y-58062845D01*
X47366761Y-58062845D01*
X47534802Y-58388643D01*
X47926607Y-58589426D01*
X48350055Y-58709914D01*
X48788873Y-58745476D01*
X49226197Y-58694746D01*
X49645221Y-58559674D01*
X49965198Y-58388643D01*
X50133239Y-58062845D01*
X141366761Y-58062845D01*
X141534802Y-58388643D01*
X141926607Y-58589426D01*
X142350055Y-58709914D01*
X142788873Y-58745476D01*
X143226197Y-58694746D01*
X143645221Y-58559674D01*
X143965198Y-58388643D01*
X144133239Y-58062845D01*
X142750000Y-56679605D01*
X141366761Y-58062845D01*
X50133239Y-58062845D01*
X48750000Y-56679605D01*
X47366761Y-58062845D01*
X46410000Y-58062845D01*
X46410000Y-56538873D01*
X46504524Y-56538873D01*
X46555254Y-56976197D01*
X46690326Y-57395221D01*
X46861357Y-57715198D01*
X47187155Y-57883239D01*
X48570395Y-56500000D01*
X48929605Y-56500000D01*
X50312845Y-57883239D01*
X50638643Y-57715198D01*
X50839426Y-57323393D01*
X50959914Y-56899945D01*
X50989175Y-56538873D01*
X140504524Y-56538873D01*
X140555254Y-56976197D01*
X140690326Y-57395221D01*
X140861357Y-57715198D01*
X141187155Y-57883239D01*
X142570395Y-56500000D01*
X142929605Y-56500000D01*
X144312845Y-57883239D01*
X144638643Y-57715198D01*
X144839426Y-57323393D01*
X144959914Y-56899945D01*
X144995476Y-56461127D01*
X144944746Y-56023803D01*
X144809674Y-55604779D01*
X144638643Y-55284802D01*
X144312845Y-55116761D01*
X142929605Y-56500000D01*
X142570395Y-56500000D01*
X141187155Y-55116761D01*
X140861357Y-55284802D01*
X140660574Y-55676607D01*
X140540086Y-56100055D01*
X140504524Y-56538873D01*
X50989175Y-56538873D01*
X50995476Y-56461127D01*
X50944746Y-56023803D01*
X50809674Y-55604779D01*
X50638643Y-55284802D01*
X50312845Y-55116761D01*
X48929605Y-56500000D01*
X48570395Y-56500000D01*
X47187155Y-55116761D01*
X46861357Y-55284802D01*
X46660574Y-55676607D01*
X46540086Y-56100055D01*
X46504524Y-56538873D01*
X46410000Y-56538873D01*
X46410000Y-54937155D01*
X47366761Y-54937155D01*
X48750000Y-56320395D01*
X50133239Y-54937155D01*
X141366761Y-54937155D01*
X142750000Y-56320395D01*
X144133239Y-54937155D01*
X143965198Y-54611357D01*
X143573393Y-54410574D01*
X143149945Y-54290086D01*
X142711127Y-54254524D01*
X142273803Y-54305254D01*
X141854779Y-54440326D01*
X141534802Y-54611357D01*
X141366761Y-54937155D01*
X50133239Y-54937155D01*
X49965198Y-54611357D01*
X49573393Y-54410574D01*
X49149945Y-54290086D01*
X48711127Y-54254524D01*
X48273803Y-54305254D01*
X47854779Y-54440326D01*
X47534802Y-54611357D01*
X47366761Y-54937155D01*
X46410000Y-54937155D01*
X46410000Y-54160000D01*
X145090000Y-54160000D01*
X145090001Y-107840000D01*
G04 #@! TA.AperFunction,Conductor*
D19*
G36*
X145090001Y-107840000D02*
G01*
X46410000Y-107840000D01*
X46410000Y-107062845D01*
X47366761Y-107062845D01*
X47534802Y-107388643D01*
X47926607Y-107589426D01*
X48350055Y-107709914D01*
X48788873Y-107745476D01*
X49226197Y-107694746D01*
X49645221Y-107559674D01*
X49965198Y-107388643D01*
X50133239Y-107062845D01*
X141366761Y-107062845D01*
X141534802Y-107388643D01*
X141926607Y-107589426D01*
X142350055Y-107709914D01*
X142788873Y-107745476D01*
X143226197Y-107694746D01*
X143645221Y-107559674D01*
X143965198Y-107388643D01*
X144133239Y-107062845D01*
X142750000Y-105679605D01*
X141366761Y-107062845D01*
X50133239Y-107062845D01*
X48750000Y-105679605D01*
X47366761Y-107062845D01*
X46410000Y-107062845D01*
X46410000Y-105538873D01*
X46504524Y-105538873D01*
X46555254Y-105976197D01*
X46690326Y-106395221D01*
X46861357Y-106715198D01*
X47187155Y-106883239D01*
X48570395Y-105500000D01*
X48929605Y-105500000D01*
X50312845Y-106883239D01*
X50638643Y-106715198D01*
X50839426Y-106323393D01*
X50959914Y-105899945D01*
X50989175Y-105538873D01*
X140504524Y-105538873D01*
X140555254Y-105976197D01*
X140690326Y-106395221D01*
X140861357Y-106715198D01*
X141187155Y-106883239D01*
X142570395Y-105500000D01*
X142929605Y-105500000D01*
X144312845Y-106883239D01*
X144638643Y-106715198D01*
X144839426Y-106323393D01*
X144959914Y-105899945D01*
X144995476Y-105461127D01*
X144944746Y-105023803D01*
X144809674Y-104604779D01*
X144638643Y-104284802D01*
X144312845Y-104116761D01*
X142929605Y-105500000D01*
X142570395Y-105500000D01*
X141187155Y-104116761D01*
X140861357Y-104284802D01*
X140660574Y-104676607D01*
X140540086Y-105100055D01*
X140504524Y-105538873D01*
X50989175Y-105538873D01*
X50995476Y-105461127D01*
X50944746Y-105023803D01*
X50809674Y-104604779D01*
X50638643Y-104284802D01*
X50312845Y-104116761D01*
X48929605Y-105500000D01*
X48570395Y-105500000D01*
X47187155Y-104116761D01*
X46861357Y-104284802D01*
X46660574Y-104676607D01*
X46540086Y-105100055D01*
X46504524Y-105538873D01*
X46410000Y-105538873D01*
X46410000Y-103937155D01*
X47366761Y-103937155D01*
X48750000Y-105320395D01*
X50133239Y-103937155D01*
X49965198Y-103611357D01*
X49573393Y-103410574D01*
X49149945Y-103290086D01*
X48711127Y-103254524D01*
X48273803Y-103305254D01*
X47854779Y-103440326D01*
X47534802Y-103611357D01*
X47366761Y-103937155D01*
X46410000Y-103937155D01*
X46410000Y-99185000D01*
X48091928Y-99185000D01*
X48104188Y-99309482D01*
X48140498Y-99429180D01*
X48199463Y-99539494D01*
X48278815Y-99636185D01*
X48375506Y-99715537D01*
X48485820Y-99774502D01*
X48605518Y-99810812D01*
X48730000Y-99823072D01*
X49244250Y-99820000D01*
X49403000Y-99661250D01*
X49403000Y-98512000D01*
X48253750Y-98512000D01*
X48095000Y-98670750D01*
X48091928Y-99185000D01*
X46410000Y-99185000D01*
X46410000Y-97585000D01*
X48091928Y-97585000D01*
X48095000Y-98099250D01*
X48253750Y-98258000D01*
X49403000Y-98258000D01*
X49403000Y-98238000D01*
X49657000Y-98238000D01*
X49657000Y-98258000D01*
X49677000Y-98258000D01*
X49677000Y-98512000D01*
X49657000Y-98512000D01*
X49657000Y-99661250D01*
X49815750Y-99820000D01*
X50330000Y-99823072D01*
X50454482Y-99810812D01*
X50574180Y-99774502D01*
X50684494Y-99715537D01*
X50781185Y-99636185D01*
X50860537Y-99539494D01*
X50919502Y-99429180D01*
X50955812Y-99309482D01*
X50968072Y-99185000D01*
X50965466Y-98748822D01*
X55765744Y-103549100D01*
X55797367Y-103587633D01*
X55951160Y-103713847D01*
X56126620Y-103807632D01*
X56317005Y-103865385D01*
X56515000Y-103884886D01*
X56564608Y-103880000D01*
X63535590Y-103880000D01*
X63536908Y-103881972D01*
X63758028Y-104103092D01*
X64018037Y-104276824D01*
X64306943Y-104396493D01*
X64613645Y-104457500D01*
X64926355Y-104457500D01*
X65233057Y-104396493D01*
X65521963Y-104276824D01*
X65781972Y-104103092D01*
X66003092Y-103881972D01*
X66042136Y-103823539D01*
X66064208Y-103856572D01*
X66285328Y-104077692D01*
X66545337Y-104251424D01*
X66834243Y-104371093D01*
X67140945Y-104432100D01*
X67453655Y-104432100D01*
X67760357Y-104371093D01*
X68049263Y-104251424D01*
X68309272Y-104077692D01*
X68530392Y-103856572D01*
X68567300Y-103801335D01*
X68604208Y-103856572D01*
X68825328Y-104077692D01*
X69085337Y-104251424D01*
X69374243Y-104371093D01*
X69680945Y-104432100D01*
X69993655Y-104432100D01*
X70300357Y-104371093D01*
X70589263Y-104251424D01*
X70849272Y-104077692D01*
X71070392Y-103856572D01*
X71107300Y-103801335D01*
X71144208Y-103856572D01*
X71365328Y-104077692D01*
X71625337Y-104251424D01*
X71914243Y-104371093D01*
X72220945Y-104432100D01*
X72533655Y-104432100D01*
X72840357Y-104371093D01*
X73129263Y-104251424D01*
X73389272Y-104077692D01*
X73610392Y-103856572D01*
X73647300Y-103801335D01*
X73684208Y-103856572D01*
X73905328Y-104077692D01*
X74165337Y-104251424D01*
X74454243Y-104371093D01*
X74760945Y-104432100D01*
X75073655Y-104432100D01*
X75380357Y-104371093D01*
X75669263Y-104251424D01*
X75929272Y-104077692D01*
X76150392Y-103856572D01*
X76187300Y-103801335D01*
X76224208Y-103856572D01*
X76445328Y-104077692D01*
X76705337Y-104251424D01*
X76994243Y-104371093D01*
X77300945Y-104432100D01*
X77613655Y-104432100D01*
X77920357Y-104371093D01*
X78209263Y-104251424D01*
X78469272Y-104077692D01*
X78690392Y-103856572D01*
X78727300Y-103801335D01*
X78764208Y-103856572D01*
X78985328Y-104077692D01*
X79245337Y-104251424D01*
X79534243Y-104371093D01*
X79840945Y-104432100D01*
X80153655Y-104432100D01*
X80460357Y-104371093D01*
X80749263Y-104251424D01*
X81009272Y-104077692D01*
X81230392Y-103856572D01*
X81267300Y-103801335D01*
X81304208Y-103856572D01*
X81525328Y-104077692D01*
X81785337Y-104251424D01*
X82074243Y-104371093D01*
X82380945Y-104432100D01*
X82693655Y-104432100D01*
X83000357Y-104371093D01*
X83289263Y-104251424D01*
X83549272Y-104077692D01*
X83770392Y-103856572D01*
X83807300Y-103801335D01*
X83844208Y-103856572D01*
X84065328Y-104077692D01*
X84325337Y-104251424D01*
X84614243Y-104371093D01*
X84920945Y-104432100D01*
X85233655Y-104432100D01*
X85540357Y-104371093D01*
X85829263Y-104251424D01*
X86089272Y-104077692D01*
X86310392Y-103856572D01*
X86347300Y-103801335D01*
X86384208Y-103856572D01*
X86605328Y-104077692D01*
X86865337Y-104251424D01*
X87154243Y-104371093D01*
X87460945Y-104432100D01*
X87773655Y-104432100D01*
X88080357Y-104371093D01*
X88369263Y-104251424D01*
X88629272Y-104077692D01*
X88850392Y-103856572D01*
X88887300Y-103801335D01*
X88924208Y-103856572D01*
X89145328Y-104077692D01*
X89405337Y-104251424D01*
X89694243Y-104371093D01*
X90000945Y-104432100D01*
X90313655Y-104432100D01*
X90620357Y-104371093D01*
X90909263Y-104251424D01*
X91169272Y-104077692D01*
X91390392Y-103856572D01*
X91427300Y-103801335D01*
X91464208Y-103856572D01*
X91685328Y-104077692D01*
X91945337Y-104251424D01*
X92234243Y-104371093D01*
X92540945Y-104432100D01*
X92853655Y-104432100D01*
X93160357Y-104371093D01*
X93449263Y-104251424D01*
X93709272Y-104077692D01*
X93930392Y-103856572D01*
X93967300Y-103801335D01*
X94004208Y-103856572D01*
X94225328Y-104077692D01*
X94485337Y-104251424D01*
X94774243Y-104371093D01*
X95080945Y-104432100D01*
X95393655Y-104432100D01*
X95700357Y-104371093D01*
X95989263Y-104251424D01*
X96249272Y-104077692D01*
X96470392Y-103856572D01*
X96507300Y-103801335D01*
X96544208Y-103856572D01*
X96765328Y-104077692D01*
X97025337Y-104251424D01*
X97314243Y-104371093D01*
X97620945Y-104432100D01*
X97933655Y-104432100D01*
X98240357Y-104371093D01*
X98529263Y-104251424D01*
X98789272Y-104077692D01*
X99010392Y-103856572D01*
X99047300Y-103801335D01*
X99084208Y-103856572D01*
X99305328Y-104077692D01*
X99565337Y-104251424D01*
X99854243Y-104371093D01*
X100160945Y-104432100D01*
X100473655Y-104432100D01*
X100780357Y-104371093D01*
X101069263Y-104251424D01*
X101329272Y-104077692D01*
X101550392Y-103856572D01*
X101587300Y-103801335D01*
X101624208Y-103856572D01*
X101845328Y-104077692D01*
X102105337Y-104251424D01*
X102394243Y-104371093D01*
X102700945Y-104432100D01*
X103013655Y-104432100D01*
X103320357Y-104371093D01*
X103609263Y-104251424D01*
X103869272Y-104077692D01*
X104090392Y-103856572D01*
X104127300Y-103801335D01*
X104164208Y-103856572D01*
X104385328Y-104077692D01*
X104645337Y-104251424D01*
X104934243Y-104371093D01*
X105240945Y-104432100D01*
X105553655Y-104432100D01*
X105860357Y-104371093D01*
X106149263Y-104251424D01*
X106409272Y-104077692D01*
X106630392Y-103856572D01*
X106667300Y-103801335D01*
X106704208Y-103856572D01*
X106925328Y-104077692D01*
X107185337Y-104251424D01*
X107474243Y-104371093D01*
X107780945Y-104432100D01*
X108093655Y-104432100D01*
X108400357Y-104371093D01*
X108689263Y-104251424D01*
X108949272Y-104077692D01*
X109170392Y-103856572D01*
X109207300Y-103801335D01*
X109244208Y-103856572D01*
X109465328Y-104077692D01*
X109725337Y-104251424D01*
X110014243Y-104371093D01*
X110320945Y-104432100D01*
X110633655Y-104432100D01*
X110940357Y-104371093D01*
X111229263Y-104251424D01*
X111489272Y-104077692D01*
X111710392Y-103856572D01*
X111747300Y-103801335D01*
X111784208Y-103856572D01*
X112005328Y-104077692D01*
X112265337Y-104251424D01*
X112554243Y-104371093D01*
X112860945Y-104432100D01*
X113173655Y-104432100D01*
X113480357Y-104371093D01*
X113769263Y-104251424D01*
X114029272Y-104077692D01*
X114250392Y-103856572D01*
X114287300Y-103801335D01*
X114324208Y-103856572D01*
X114545328Y-104077692D01*
X114805337Y-104251424D01*
X115094243Y-104371093D01*
X115400945Y-104432100D01*
X115713655Y-104432100D01*
X116020357Y-104371093D01*
X116309263Y-104251424D01*
X116569272Y-104077692D01*
X116790392Y-103856572D01*
X116827300Y-103801335D01*
X116864208Y-103856572D01*
X117085328Y-104077692D01*
X117345337Y-104251424D01*
X117634243Y-104371093D01*
X117940945Y-104432100D01*
X118253655Y-104432100D01*
X118560357Y-104371093D01*
X118849263Y-104251424D01*
X119109272Y-104077692D01*
X119330392Y-103856572D01*
X119367300Y-103801335D01*
X119404208Y-103856572D01*
X119625328Y-104077692D01*
X119885337Y-104251424D01*
X120174243Y-104371093D01*
X120480945Y-104432100D01*
X120793655Y-104432100D01*
X121100357Y-104371093D01*
X121389263Y-104251424D01*
X121649272Y-104077692D01*
X121870392Y-103856572D01*
X121907300Y-103801335D01*
X121944208Y-103856572D01*
X122165328Y-104077692D01*
X122425337Y-104251424D01*
X122714243Y-104371093D01*
X123020945Y-104432100D01*
X123333655Y-104432100D01*
X123640357Y-104371093D01*
X123929263Y-104251424D01*
X124189272Y-104077692D01*
X124410392Y-103856572D01*
X124447300Y-103801335D01*
X124484208Y-103856572D01*
X124705328Y-104077692D01*
X124965337Y-104251424D01*
X125254243Y-104371093D01*
X125560945Y-104432100D01*
X125873655Y-104432100D01*
X126180357Y-104371093D01*
X126469263Y-104251424D01*
X126729272Y-104077692D01*
X126950392Y-103856572D01*
X126987300Y-103801335D01*
X127024208Y-103856572D01*
X127245328Y-104077692D01*
X127505337Y-104251424D01*
X127794243Y-104371093D01*
X128100945Y-104432100D01*
X128413655Y-104432100D01*
X128720357Y-104371093D01*
X129009263Y-104251424D01*
X129269272Y-104077692D01*
X129490392Y-103856572D01*
X129527300Y-103801335D01*
X129564208Y-103856572D01*
X129785328Y-104077692D01*
X130045337Y-104251424D01*
X130334243Y-104371093D01*
X130640945Y-104432100D01*
X130953655Y-104432100D01*
X131260357Y-104371093D01*
X131549263Y-104251424D01*
X131809272Y-104077692D01*
X132030392Y-103856572D01*
X132067300Y-103801335D01*
X132104208Y-103856572D01*
X132325328Y-104077692D01*
X132585337Y-104251424D01*
X132874243Y-104371093D01*
X133180945Y-104432100D01*
X133493655Y-104432100D01*
X133800357Y-104371093D01*
X134089263Y-104251424D01*
X134349272Y-104077692D01*
X134570392Y-103856572D01*
X134607300Y-103801335D01*
X134644208Y-103856572D01*
X134865328Y-104077692D01*
X135125337Y-104251424D01*
X135414243Y-104371093D01*
X135720945Y-104432100D01*
X136033655Y-104432100D01*
X136340357Y-104371093D01*
X136629263Y-104251424D01*
X136889272Y-104077692D01*
X137110392Y-103856572D01*
X137147300Y-103801335D01*
X137184208Y-103856572D01*
X137405328Y-104077692D01*
X137665337Y-104251424D01*
X137954243Y-104371093D01*
X138260945Y-104432100D01*
X138573655Y-104432100D01*
X138880357Y-104371093D01*
X139169263Y-104251424D01*
X139429272Y-104077692D01*
X139569809Y-103937155D01*
X141366761Y-103937155D01*
X142750000Y-105320395D01*
X144133239Y-103937155D01*
X143965198Y-103611357D01*
X143573393Y-103410574D01*
X143149945Y-103290086D01*
X142711127Y-103254524D01*
X142273803Y-103305254D01*
X141854779Y-103440326D01*
X141534802Y-103611357D01*
X141366761Y-103937155D01*
X139569809Y-103937155D01*
X139650392Y-103856572D01*
X139824124Y-103596563D01*
X139943793Y-103307657D01*
X140004800Y-103000955D01*
X140004800Y-102688245D01*
X139943793Y-102381543D01*
X139824124Y-102092637D01*
X139650392Y-101832628D01*
X139429272Y-101611508D01*
X139374035Y-101574600D01*
X139429272Y-101537692D01*
X139650392Y-101316572D01*
X139687300Y-101261335D01*
X139724208Y-101316572D01*
X139945328Y-101537692D01*
X140205337Y-101711424D01*
X140494243Y-101831093D01*
X140800945Y-101892100D01*
X141113655Y-101892100D01*
X141420357Y-101831093D01*
X141709263Y-101711424D01*
X141969272Y-101537692D01*
X142190392Y-101316572D01*
X142364124Y-101056563D01*
X142483793Y-100767657D01*
X142544800Y-100460955D01*
X142544800Y-100148245D01*
X142483793Y-99841543D01*
X142364124Y-99552637D01*
X142190392Y-99292628D01*
X141969272Y-99071508D01*
X141914035Y-99034600D01*
X141969272Y-98997692D01*
X142190392Y-98776572D01*
X142364124Y-98516563D01*
X142483793Y-98227657D01*
X142544800Y-97920955D01*
X142544800Y-97608245D01*
X142483793Y-97301543D01*
X142364124Y-97012637D01*
X142190392Y-96752628D01*
X141969272Y-96531508D01*
X141914035Y-96494600D01*
X141969272Y-96457692D01*
X142190392Y-96236572D01*
X142364124Y-95976563D01*
X142483793Y-95687657D01*
X142544800Y-95380955D01*
X142544800Y-95068245D01*
X142483793Y-94761543D01*
X142364124Y-94472637D01*
X142190392Y-94212628D01*
X141969272Y-93991508D01*
X141914035Y-93954600D01*
X141969272Y-93917692D01*
X142190392Y-93696572D01*
X142364124Y-93436563D01*
X142483793Y-93147657D01*
X142544800Y-92840955D01*
X142544800Y-92528245D01*
X142483793Y-92221543D01*
X142364124Y-91932637D01*
X142190392Y-91672628D01*
X141969272Y-91451508D01*
X141914035Y-91414600D01*
X141969272Y-91377692D01*
X142190392Y-91156572D01*
X142364124Y-90896563D01*
X142483793Y-90607657D01*
X142544800Y-90300955D01*
X142544800Y-89988245D01*
X142483793Y-89681543D01*
X142364124Y-89392637D01*
X142190392Y-89132628D01*
X141969272Y-88911508D01*
X141914035Y-88874600D01*
X141969272Y-88837692D01*
X142190392Y-88616572D01*
X142364124Y-88356563D01*
X142483793Y-88067657D01*
X142544800Y-87760955D01*
X142544800Y-87448245D01*
X142483793Y-87141543D01*
X142364124Y-86852637D01*
X142190392Y-86592628D01*
X141969272Y-86371508D01*
X141914035Y-86334600D01*
X141969272Y-86297692D01*
X142190392Y-86076572D01*
X142364124Y-85816563D01*
X142483793Y-85527657D01*
X142544800Y-85220955D01*
X142544800Y-84908245D01*
X142483793Y-84601543D01*
X142364124Y-84312637D01*
X142190392Y-84052628D01*
X141969272Y-83831508D01*
X141914035Y-83794600D01*
X141969272Y-83757692D01*
X142190392Y-83536572D01*
X142364124Y-83276563D01*
X142483793Y-82987657D01*
X142544800Y-82680955D01*
X142544800Y-82368245D01*
X142483793Y-82061543D01*
X142364124Y-81772637D01*
X142190392Y-81512628D01*
X141969272Y-81291508D01*
X141914035Y-81254600D01*
X141969272Y-81217692D01*
X142190392Y-80996572D01*
X142364124Y-80736563D01*
X142483793Y-80447657D01*
X142544800Y-80140955D01*
X142544800Y-79828245D01*
X142483793Y-79521543D01*
X142364124Y-79232637D01*
X142190392Y-78972628D01*
X141969272Y-78751508D01*
X141914035Y-78714600D01*
X141969272Y-78677692D01*
X142190392Y-78456572D01*
X142364124Y-78196563D01*
X142483793Y-77907657D01*
X142544800Y-77600955D01*
X142544800Y-77288245D01*
X142483793Y-76981543D01*
X142364124Y-76692637D01*
X142190392Y-76432628D01*
X141969272Y-76211508D01*
X141914035Y-76174600D01*
X141969272Y-76137692D01*
X142190392Y-75916572D01*
X142364124Y-75656563D01*
X142483793Y-75367657D01*
X142544800Y-75060955D01*
X142544800Y-74748245D01*
X142483793Y-74441543D01*
X142364124Y-74152637D01*
X142190392Y-73892628D01*
X141969272Y-73671508D01*
X141914035Y-73634600D01*
X141969272Y-73597692D01*
X142190392Y-73376572D01*
X142364124Y-73116563D01*
X142483793Y-72827657D01*
X142544800Y-72520955D01*
X142544800Y-72208245D01*
X142483793Y-71901543D01*
X142364124Y-71612637D01*
X142190392Y-71352628D01*
X141969272Y-71131508D01*
X141914035Y-71094600D01*
X141969272Y-71057692D01*
X142190392Y-70836572D01*
X142364124Y-70576563D01*
X142483793Y-70287657D01*
X142544800Y-69980955D01*
X142544800Y-69668245D01*
X142483793Y-69361543D01*
X142364124Y-69072637D01*
X142190392Y-68812628D01*
X141969272Y-68591508D01*
X141914035Y-68554600D01*
X141969272Y-68517692D01*
X142190392Y-68296572D01*
X142364124Y-68036563D01*
X142483793Y-67747657D01*
X142544800Y-67440955D01*
X142544800Y-67128245D01*
X142483793Y-66821543D01*
X142364124Y-66532637D01*
X142190392Y-66272628D01*
X141969272Y-66051508D01*
X141914035Y-66014600D01*
X141969272Y-65977692D01*
X142190392Y-65756572D01*
X142364124Y-65496563D01*
X142483793Y-65207657D01*
X142544800Y-64900955D01*
X142544800Y-64588245D01*
X142483793Y-64281543D01*
X142364124Y-63992637D01*
X142190392Y-63732628D01*
X141969272Y-63511508D01*
X141914035Y-63474600D01*
X141969272Y-63437692D01*
X142190392Y-63216572D01*
X142364124Y-62956563D01*
X142483793Y-62667657D01*
X142544800Y-62360955D01*
X142544800Y-62048245D01*
X142483793Y-61741543D01*
X142364124Y-61452637D01*
X142190392Y-61192628D01*
X141969272Y-60971508D01*
X141709263Y-60797776D01*
X141420357Y-60678107D01*
X141113655Y-60617100D01*
X140800945Y-60617100D01*
X140494243Y-60678107D01*
X140205337Y-60797776D01*
X139945328Y-60971508D01*
X139724208Y-61192628D01*
X139687300Y-61247865D01*
X139650392Y-61192628D01*
X139429272Y-60971508D01*
X139374035Y-60934600D01*
X139429272Y-60897692D01*
X139650392Y-60676572D01*
X139824124Y-60416563D01*
X139943793Y-60127657D01*
X140004800Y-59820955D01*
X140004800Y-59508245D01*
X139943793Y-59201543D01*
X139824124Y-58912637D01*
X139650392Y-58652628D01*
X139429272Y-58431508D01*
X139169263Y-58257776D01*
X138880357Y-58138107D01*
X138573655Y-58077100D01*
X138260945Y-58077100D01*
X137954243Y-58138107D01*
X137665337Y-58257776D01*
X137405328Y-58431508D01*
X137184208Y-58652628D01*
X137147300Y-58707865D01*
X137110392Y-58652628D01*
X136889272Y-58431508D01*
X136629263Y-58257776D01*
X136340357Y-58138107D01*
X136033655Y-58077100D01*
X135720945Y-58077100D01*
X135414243Y-58138107D01*
X135125337Y-58257776D01*
X134865328Y-58431508D01*
X134644208Y-58652628D01*
X134607300Y-58707865D01*
X134570392Y-58652628D01*
X134349272Y-58431508D01*
X134089263Y-58257776D01*
X133800357Y-58138107D01*
X133493655Y-58077100D01*
X133180945Y-58077100D01*
X132874243Y-58138107D01*
X132585337Y-58257776D01*
X132325328Y-58431508D01*
X132104208Y-58652628D01*
X132067300Y-58707865D01*
X132030392Y-58652628D01*
X131809272Y-58431508D01*
X131549263Y-58257776D01*
X131260357Y-58138107D01*
X130953655Y-58077100D01*
X130640945Y-58077100D01*
X130334243Y-58138107D01*
X130045337Y-58257776D01*
X129785328Y-58431508D01*
X129564208Y-58652628D01*
X129527300Y-58707865D01*
X129490392Y-58652628D01*
X129269272Y-58431508D01*
X129009263Y-58257776D01*
X128720357Y-58138107D01*
X128413655Y-58077100D01*
X128100945Y-58077100D01*
X127794243Y-58138107D01*
X127505337Y-58257776D01*
X127245328Y-58431508D01*
X127024208Y-58652628D01*
X126987300Y-58707865D01*
X126950392Y-58652628D01*
X126729272Y-58431508D01*
X126469263Y-58257776D01*
X126180357Y-58138107D01*
X125873655Y-58077100D01*
X125560945Y-58077100D01*
X125254243Y-58138107D01*
X124965337Y-58257776D01*
X124705328Y-58431508D01*
X124484208Y-58652628D01*
X124447300Y-58707865D01*
X124410392Y-58652628D01*
X124189272Y-58431508D01*
X123929263Y-58257776D01*
X123640357Y-58138107D01*
X123333655Y-58077100D01*
X123020945Y-58077100D01*
X122714243Y-58138107D01*
X122425337Y-58257776D01*
X122165328Y-58431508D01*
X121944208Y-58652628D01*
X121907300Y-58707865D01*
X121870392Y-58652628D01*
X121649272Y-58431508D01*
X121389263Y-58257776D01*
X121100357Y-58138107D01*
X120793655Y-58077100D01*
X120480945Y-58077100D01*
X120174243Y-58138107D01*
X119885337Y-58257776D01*
X119625328Y-58431508D01*
X119404208Y-58652628D01*
X119367300Y-58707865D01*
X119330392Y-58652628D01*
X119109272Y-58431508D01*
X118849263Y-58257776D01*
X118560357Y-58138107D01*
X118253655Y-58077100D01*
X117940945Y-58077100D01*
X117634243Y-58138107D01*
X117345337Y-58257776D01*
X117085328Y-58431508D01*
X116864208Y-58652628D01*
X116827300Y-58707865D01*
X116790392Y-58652628D01*
X116569272Y-58431508D01*
X116309263Y-58257776D01*
X116020357Y-58138107D01*
X115713655Y-58077100D01*
X115400945Y-58077100D01*
X115094243Y-58138107D01*
X114805337Y-58257776D01*
X114545328Y-58431508D01*
X114324208Y-58652628D01*
X114287300Y-58707865D01*
X114250392Y-58652628D01*
X114029272Y-58431508D01*
X113769263Y-58257776D01*
X113480357Y-58138107D01*
X113173655Y-58077100D01*
X112860945Y-58077100D01*
X112554243Y-58138107D01*
X112265337Y-58257776D01*
X112005328Y-58431508D01*
X111784208Y-58652628D01*
X111747300Y-58707865D01*
X111710392Y-58652628D01*
X111489272Y-58431508D01*
X111229263Y-58257776D01*
X110940357Y-58138107D01*
X110633655Y-58077100D01*
X110320945Y-58077100D01*
X110014243Y-58138107D01*
X109725337Y-58257776D01*
X109465328Y-58431508D01*
X109244208Y-58652628D01*
X109207300Y-58707865D01*
X109170392Y-58652628D01*
X108949272Y-58431508D01*
X108689263Y-58257776D01*
X108400357Y-58138107D01*
X108093655Y-58077100D01*
X107780945Y-58077100D01*
X107474243Y-58138107D01*
X107185337Y-58257776D01*
X106925328Y-58431508D01*
X106704208Y-58652628D01*
X106667300Y-58707865D01*
X106630392Y-58652628D01*
X106409272Y-58431508D01*
X106149263Y-58257776D01*
X105860357Y-58138107D01*
X105553655Y-58077100D01*
X105240945Y-58077100D01*
X104934243Y-58138107D01*
X104645337Y-58257776D01*
X104385328Y-58431508D01*
X104164208Y-58652628D01*
X104127300Y-58707865D01*
X104090392Y-58652628D01*
X103869272Y-58431508D01*
X103609263Y-58257776D01*
X103320357Y-58138107D01*
X103013655Y-58077100D01*
X102700945Y-58077100D01*
X102394243Y-58138107D01*
X102105337Y-58257776D01*
X101845328Y-58431508D01*
X101624208Y-58652628D01*
X101587300Y-58707865D01*
X101550392Y-58652628D01*
X101329272Y-58431508D01*
X101069263Y-58257776D01*
X100780357Y-58138107D01*
X100473655Y-58077100D01*
X100160945Y-58077100D01*
X99854243Y-58138107D01*
X99565337Y-58257776D01*
X99305328Y-58431508D01*
X99084208Y-58652628D01*
X99047300Y-58707865D01*
X99010392Y-58652628D01*
X98789272Y-58431508D01*
X98529263Y-58257776D01*
X98240357Y-58138107D01*
X97933655Y-58077100D01*
X97620945Y-58077100D01*
X97314243Y-58138107D01*
X97025337Y-58257776D01*
X96765328Y-58431508D01*
X96544208Y-58652628D01*
X96507300Y-58707865D01*
X96470392Y-58652628D01*
X96249272Y-58431508D01*
X95989263Y-58257776D01*
X95700357Y-58138107D01*
X95393655Y-58077100D01*
X95080945Y-58077100D01*
X94774243Y-58138107D01*
X94485337Y-58257776D01*
X94225328Y-58431508D01*
X94004208Y-58652628D01*
X93967300Y-58707865D01*
X93930392Y-58652628D01*
X93709272Y-58431508D01*
X93449263Y-58257776D01*
X93160357Y-58138107D01*
X92853655Y-58077100D01*
X92540945Y-58077100D01*
X92234243Y-58138107D01*
X91945337Y-58257776D01*
X91685328Y-58431508D01*
X91464208Y-58652628D01*
X91427300Y-58707865D01*
X91390392Y-58652628D01*
X91169272Y-58431508D01*
X90909263Y-58257776D01*
X90620357Y-58138107D01*
X90313655Y-58077100D01*
X90000945Y-58077100D01*
X89694243Y-58138107D01*
X89405337Y-58257776D01*
X89145328Y-58431508D01*
X88924208Y-58652628D01*
X88887300Y-58707865D01*
X88850392Y-58652628D01*
X88629272Y-58431508D01*
X88369263Y-58257776D01*
X88080357Y-58138107D01*
X87773655Y-58077100D01*
X87460945Y-58077100D01*
X87154243Y-58138107D01*
X86865337Y-58257776D01*
X86605328Y-58431508D01*
X86384208Y-58652628D01*
X86347300Y-58707865D01*
X86310392Y-58652628D01*
X86089272Y-58431508D01*
X85829263Y-58257776D01*
X85540357Y-58138107D01*
X85233655Y-58077100D01*
X84920945Y-58077100D01*
X84614243Y-58138107D01*
X84325337Y-58257776D01*
X84065328Y-58431508D01*
X83844208Y-58652628D01*
X83807300Y-58707865D01*
X83770392Y-58652628D01*
X83549272Y-58431508D01*
X83289263Y-58257776D01*
X83000357Y-58138107D01*
X82693655Y-58077100D01*
X82380945Y-58077100D01*
X82074243Y-58138107D01*
X81785337Y-58257776D01*
X81525328Y-58431508D01*
X81304208Y-58652628D01*
X81267300Y-58707865D01*
X81230392Y-58652628D01*
X81009272Y-58431508D01*
X80749263Y-58257776D01*
X80460357Y-58138107D01*
X80153655Y-58077100D01*
X79840945Y-58077100D01*
X79534243Y-58138107D01*
X79245337Y-58257776D01*
X78985328Y-58431508D01*
X78764208Y-58652628D01*
X78727300Y-58707865D01*
X78690392Y-58652628D01*
X78469272Y-58431508D01*
X78209263Y-58257776D01*
X77920357Y-58138107D01*
X77613655Y-58077100D01*
X77300945Y-58077100D01*
X76994243Y-58138107D01*
X76705337Y-58257776D01*
X76445328Y-58431508D01*
X76224208Y-58652628D01*
X76187300Y-58707865D01*
X76150392Y-58652628D01*
X75929272Y-58431508D01*
X75669263Y-58257776D01*
X75380357Y-58138107D01*
X75073655Y-58077100D01*
X74760945Y-58077100D01*
X74454243Y-58138107D01*
X74165337Y-58257776D01*
X73905328Y-58431508D01*
X73684208Y-58652628D01*
X73647300Y-58707865D01*
X73610392Y-58652628D01*
X73389272Y-58431508D01*
X73129263Y-58257776D01*
X72840357Y-58138107D01*
X72533655Y-58077100D01*
X72220945Y-58077100D01*
X71914243Y-58138107D01*
X71625337Y-58257776D01*
X71365328Y-58431508D01*
X71144208Y-58652628D01*
X71107300Y-58707865D01*
X71070392Y-58652628D01*
X70849272Y-58431508D01*
X70589263Y-58257776D01*
X70300357Y-58138107D01*
X69993655Y-58077100D01*
X69680945Y-58077100D01*
X69374243Y-58138107D01*
X69085337Y-58257776D01*
X68825328Y-58431508D01*
X68604208Y-58652628D01*
X68567300Y-58707865D01*
X68530392Y-58652628D01*
X68309272Y-58431508D01*
X68049263Y-58257776D01*
X67760357Y-58138107D01*
X67453655Y-58077100D01*
X67140945Y-58077100D01*
X66834243Y-58138107D01*
X66545337Y-58257776D01*
X66285328Y-58431508D01*
X66064208Y-58652628D01*
X66025164Y-58711061D01*
X66003092Y-58678028D01*
X65781972Y-58456908D01*
X65521963Y-58283176D01*
X65233057Y-58163507D01*
X64926355Y-58102500D01*
X64613645Y-58102500D01*
X64306943Y-58163507D01*
X64018037Y-58283176D01*
X63758028Y-58456908D01*
X63536908Y-58678028D01*
X63363176Y-58938037D01*
X63243507Y-59226943D01*
X63182500Y-59533645D01*
X63182500Y-59846355D01*
X63182963Y-59848681D01*
X60219891Y-62811754D01*
X60181358Y-62843377D01*
X60149735Y-62881910D01*
X60149734Y-62881911D01*
X60055144Y-62997170D01*
X59961358Y-63172631D01*
X59903605Y-63363016D01*
X59884104Y-63561010D01*
X59888991Y-63610628D01*
X59888990Y-82478288D01*
X58222320Y-84144959D01*
X58183325Y-83948919D01*
X58052537Y-83633169D01*
X57862663Y-83349002D01*
X57620998Y-83107337D01*
X57336831Y-82917463D01*
X57058601Y-82802216D01*
X57058601Y-67528205D01*
X57063487Y-67478600D01*
X57053104Y-67373183D01*
X57043986Y-67280607D01*
X56986233Y-67090221D01*
X56892448Y-66914761D01*
X56766234Y-66760968D01*
X56727695Y-66729340D01*
X56108600Y-66110245D01*
X56108600Y-65892401D01*
X56051010Y-65602875D01*
X55938042Y-65330147D01*
X55774039Y-65084698D01*
X55565302Y-64875961D01*
X55319853Y-64711958D01*
X55047125Y-64598990D01*
X54757599Y-64541400D01*
X54462401Y-64541400D01*
X54172875Y-64598990D01*
X53900147Y-64711958D01*
X53654698Y-64875961D01*
X53500659Y-65030000D01*
X53179341Y-65030000D01*
X53025302Y-64875961D01*
X52779853Y-64711958D01*
X52507125Y-64598990D01*
X52217599Y-64541400D01*
X51922401Y-64541400D01*
X51632875Y-64598990D01*
X51360147Y-64711958D01*
X51114698Y-64875961D01*
X50905961Y-65084698D01*
X50741958Y-65330147D01*
X50628990Y-65602875D01*
X50571400Y-65892401D01*
X50571400Y-66187599D01*
X50628990Y-66477125D01*
X50741958Y-66749853D01*
X50905961Y-66995302D01*
X51114698Y-67204039D01*
X51280103Y-67314559D01*
X51181512Y-67373183D01*
X50963146Y-67569707D01*
X50787316Y-67805056D01*
X50660778Y-68070186D01*
X50615042Y-68220974D01*
X50736183Y-68453000D01*
X51943000Y-68453000D01*
X51943000Y-68433000D01*
X52197000Y-68433000D01*
X52197000Y-68453000D01*
X54483000Y-68453000D01*
X54483000Y-68433000D01*
X54737000Y-68433000D01*
X54737000Y-68453000D01*
X54757000Y-68453000D01*
X54757000Y-68707000D01*
X54737000Y-68707000D01*
X54737000Y-70993000D01*
X54757000Y-70993000D01*
X54757000Y-71247000D01*
X54737000Y-71247000D01*
X54737000Y-73533000D01*
X54757000Y-73533000D01*
X54757000Y-73787000D01*
X54737000Y-73787000D01*
X54737000Y-73807000D01*
X54483000Y-73807000D01*
X54483000Y-73787000D01*
X52197000Y-73787000D01*
X52197000Y-73807000D01*
X51943000Y-73807000D01*
X51943000Y-73787000D01*
X50736183Y-73787000D01*
X50615042Y-74019026D01*
X50660778Y-74169814D01*
X50787316Y-74434944D01*
X50963146Y-74670293D01*
X51181512Y-74866817D01*
X51280103Y-74925441D01*
X51114698Y-75035961D01*
X50905961Y-75244698D01*
X50741958Y-75490147D01*
X50628990Y-75762875D01*
X50571400Y-76052401D01*
X50571400Y-76347599D01*
X50628990Y-76637125D01*
X50741958Y-76909853D01*
X50905961Y-77155302D01*
X51060000Y-77309341D01*
X51060001Y-82131643D01*
X50474716Y-82716928D01*
X49065000Y-82716928D01*
X48940518Y-82729188D01*
X48820820Y-82765498D01*
X48710506Y-82824463D01*
X48613815Y-82903815D01*
X48534463Y-83000506D01*
X48475498Y-83110820D01*
X48439188Y-83230518D01*
X48426928Y-83355000D01*
X48426928Y-85555000D01*
X48439188Y-85679482D01*
X48475498Y-85799180D01*
X48534463Y-85909494D01*
X48613815Y-86006185D01*
X48710506Y-86085537D01*
X48820820Y-86144502D01*
X48940518Y-86180812D01*
X49065000Y-86193072D01*
X51265000Y-86193072D01*
X51389482Y-86180812D01*
X51509180Y-86144502D01*
X51619494Y-86085537D01*
X51716185Y-86006185D01*
X51795537Y-85909494D01*
X51854502Y-85799180D01*
X51890812Y-85679482D01*
X51903072Y-85555000D01*
X51903072Y-84145284D01*
X52749100Y-83299256D01*
X52787633Y-83267633D01*
X52913847Y-83113840D01*
X53007632Y-82938380D01*
X53018117Y-82903815D01*
X53065385Y-82747995D01*
X53084886Y-82550000D01*
X53080000Y-82500392D01*
X53080000Y-77309341D01*
X53139364Y-77249977D01*
X53156898Y-77307780D01*
X53215863Y-77418094D01*
X53295215Y-77514785D01*
X53391906Y-77594137D01*
X53502220Y-77653102D01*
X53621918Y-77689412D01*
X53746400Y-77701672D01*
X55038602Y-77701672D01*
X55038602Y-83541668D01*
X54977463Y-83633169D01*
X54846675Y-83948919D01*
X54780000Y-84284117D01*
X54780000Y-84625883D01*
X54846675Y-84961081D01*
X54977463Y-85276831D01*
X55167337Y-85560998D01*
X55409002Y-85802663D01*
X55693169Y-85992537D01*
X56008919Y-86123325D01*
X56204959Y-86162320D01*
X51455470Y-90911809D01*
X51270998Y-90727337D01*
X50986831Y-90537463D01*
X50671081Y-90406675D01*
X50335883Y-90340000D01*
X49994117Y-90340000D01*
X49658919Y-90406675D01*
X49343169Y-90537463D01*
X49059002Y-90727337D01*
X48817337Y-90969002D01*
X48627463Y-91253169D01*
X48496675Y-91568919D01*
X48430000Y-91904117D01*
X48430000Y-92245883D01*
X48496675Y-92581081D01*
X48627463Y-92896831D01*
X48817337Y-93180998D01*
X49059002Y-93422663D01*
X49155000Y-93486807D01*
X49155001Y-94496479D01*
X49111426Y-94505147D01*
X48850273Y-94613320D01*
X48615241Y-94770363D01*
X48415363Y-94970241D01*
X48258320Y-95205273D01*
X48150147Y-95466426D01*
X48095000Y-95743665D01*
X48095000Y-96026335D01*
X48150147Y-96303574D01*
X48258320Y-96564727D01*
X48415363Y-96799759D01*
X48581943Y-96966339D01*
X48485820Y-96995498D01*
X48375506Y-97054463D01*
X48278815Y-97133815D01*
X48199463Y-97230506D01*
X48140498Y-97340820D01*
X48104188Y-97460518D01*
X48091928Y-97585000D01*
X46410000Y-97585000D01*
X46410000Y-71479026D01*
X50615042Y-71479026D01*
X50660778Y-71629814D01*
X50787316Y-71894944D01*
X50963146Y-72130293D01*
X51181512Y-72326817D01*
X51287770Y-72390000D01*
X51181512Y-72453183D01*
X50963146Y-72649707D01*
X50787316Y-72885056D01*
X50660778Y-73150186D01*
X50615042Y-73300974D01*
X50736183Y-73533000D01*
X51943000Y-73533000D01*
X51943000Y-71247000D01*
X52197000Y-71247000D01*
X52197000Y-73533000D01*
X54483000Y-73533000D01*
X54483000Y-71247000D01*
X52197000Y-71247000D01*
X51943000Y-71247000D01*
X50736183Y-71247000D01*
X50615042Y-71479026D01*
X46410000Y-71479026D01*
X46410000Y-68939026D01*
X50615042Y-68939026D01*
X50660778Y-69089814D01*
X50787316Y-69354944D01*
X50963146Y-69590293D01*
X51181512Y-69786817D01*
X51287770Y-69850000D01*
X51181512Y-69913183D01*
X50963146Y-70109707D01*
X50787316Y-70345056D01*
X50660778Y-70610186D01*
X50615042Y-70760974D01*
X50736183Y-70993000D01*
X51943000Y-70993000D01*
X51943000Y-68707000D01*
X52197000Y-68707000D01*
X52197000Y-70993000D01*
X54483000Y-70993000D01*
X54483000Y-68707000D01*
X52197000Y-68707000D01*
X51943000Y-68707000D01*
X50736183Y-68707000D01*
X50615042Y-68939026D01*
X46410000Y-68939026D01*
X46410000Y-58062845D01*
X47366761Y-58062845D01*
X47534802Y-58388643D01*
X47926607Y-58589426D01*
X48350055Y-58709914D01*
X48788873Y-58745476D01*
X49226197Y-58694746D01*
X49645221Y-58559674D01*
X49965198Y-58388643D01*
X50133239Y-58062845D01*
X141366761Y-58062845D01*
X141534802Y-58388643D01*
X141926607Y-58589426D01*
X142350055Y-58709914D01*
X142788873Y-58745476D01*
X143226197Y-58694746D01*
X143645221Y-58559674D01*
X143965198Y-58388643D01*
X144133239Y-58062845D01*
X142750000Y-56679605D01*
X141366761Y-58062845D01*
X50133239Y-58062845D01*
X48750000Y-56679605D01*
X47366761Y-58062845D01*
X46410000Y-58062845D01*
X46410000Y-56538873D01*
X46504524Y-56538873D01*
X46555254Y-56976197D01*
X46690326Y-57395221D01*
X46861357Y-57715198D01*
X47187155Y-57883239D01*
X48570395Y-56500000D01*
X48929605Y-56500000D01*
X50312845Y-57883239D01*
X50638643Y-57715198D01*
X50839426Y-57323393D01*
X50959914Y-56899945D01*
X50989175Y-56538873D01*
X140504524Y-56538873D01*
X140555254Y-56976197D01*
X140690326Y-57395221D01*
X140861357Y-57715198D01*
X141187155Y-57883239D01*
X142570395Y-56500000D01*
X142929605Y-56500000D01*
X144312845Y-57883239D01*
X144638643Y-57715198D01*
X144839426Y-57323393D01*
X144959914Y-56899945D01*
X144995476Y-56461127D01*
X144944746Y-56023803D01*
X144809674Y-55604779D01*
X144638643Y-55284802D01*
X144312845Y-55116761D01*
X142929605Y-56500000D01*
X142570395Y-56500000D01*
X141187155Y-55116761D01*
X140861357Y-55284802D01*
X140660574Y-55676607D01*
X140540086Y-56100055D01*
X140504524Y-56538873D01*
X50989175Y-56538873D01*
X50995476Y-56461127D01*
X50944746Y-56023803D01*
X50809674Y-55604779D01*
X50638643Y-55284802D01*
X50312845Y-55116761D01*
X48929605Y-56500000D01*
X48570395Y-56500000D01*
X47187155Y-55116761D01*
X46861357Y-55284802D01*
X46660574Y-55676607D01*
X46540086Y-56100055D01*
X46504524Y-56538873D01*
X46410000Y-56538873D01*
X46410000Y-54937155D01*
X47366761Y-54937155D01*
X48750000Y-56320395D01*
X50133239Y-54937155D01*
X141366761Y-54937155D01*
X142750000Y-56320395D01*
X144133239Y-54937155D01*
X143965198Y-54611357D01*
X143573393Y-54410574D01*
X143149945Y-54290086D01*
X142711127Y-54254524D01*
X142273803Y-54305254D01*
X141854779Y-54440326D01*
X141534802Y-54611357D01*
X141366761Y-54937155D01*
X50133239Y-54937155D01*
X49965198Y-54611357D01*
X49573393Y-54410574D01*
X49149945Y-54290086D01*
X48711127Y-54254524D01*
X48273803Y-54305254D01*
X47854779Y-54440326D01*
X47534802Y-54611357D01*
X47366761Y-54937155D01*
X46410000Y-54937155D01*
X46410000Y-54160000D01*
X145090000Y-54160000D01*
X145090001Y-107840000D01*
G37*
G04 #@! TD.AperFunction*
D18*
X60839000Y-86322645D02*
X56824717Y-90336928D01*
X55415000Y-90336928D01*
X55290518Y-90349188D01*
X55170820Y-90385498D01*
X55060506Y-90444463D01*
X54963815Y-90523815D01*
X54884463Y-90620506D01*
X54825498Y-90730820D01*
X54789188Y-90850518D01*
X54776928Y-90975000D01*
X54776928Y-93175000D01*
X54789188Y-93299482D01*
X54825498Y-93419180D01*
X54884463Y-93529494D01*
X54963815Y-93626185D01*
X55060506Y-93705537D01*
X55170820Y-93764502D01*
X55290518Y-93800812D01*
X55415000Y-93813072D01*
X55505001Y-93813072D01*
X55505001Y-95200383D01*
X55500114Y-95250000D01*
X55519615Y-95447994D01*
X55577368Y-95638379D01*
X55633645Y-95743665D01*
X55671154Y-95813840D01*
X55711928Y-95863524D01*
X55711928Y-96685000D01*
X55724188Y-96809482D01*
X55760498Y-96929180D01*
X55819463Y-97039494D01*
X55898815Y-97136185D01*
X55995506Y-97215537D01*
X56105820Y-97274502D01*
X56225518Y-97310812D01*
X56350000Y-97323072D01*
X56357215Y-97323072D01*
X56336903Y-97392298D01*
X57150000Y-98205395D01*
X57164143Y-98191253D01*
X57343748Y-98370858D01*
X57329605Y-98385000D01*
X58142702Y-99198097D01*
X58386671Y-99126514D01*
X58422481Y-99050834D01*
X60380746Y-101009100D01*
X60412369Y-101047633D01*
X60566162Y-101173847D01*
X60721918Y-101257100D01*
X60741622Y-101267632D01*
X60932007Y-101325385D01*
X61130002Y-101344886D01*
X61179610Y-101340000D01*
X63535590Y-101340000D01*
X63536908Y-101341972D01*
X63758028Y-101563092D01*
X63813265Y-101600000D01*
X63758028Y-101636908D01*
X63536908Y-101858028D01*
X63535590Y-101860000D01*
X56933356Y-101860000D01*
X54451058Y-99377702D01*
X56336903Y-99377702D01*
X56408486Y-99621671D01*
X56663996Y-99742571D01*
X56938184Y-99811300D01*
X57220512Y-99825217D01*
X57500130Y-99783787D01*
X57766292Y-99688603D01*
X57891514Y-99621671D01*
X57963097Y-99377702D01*
X57150000Y-98564605D01*
X56336903Y-99377702D01*
X54451058Y-99377702D01*
X53528868Y-98455512D01*
X55709783Y-98455512D01*
X55751213Y-98735130D01*
X55846397Y-99001292D01*
X55913329Y-99126514D01*
X56157298Y-99198097D01*
X56970395Y-98385000D01*
X56157298Y-97571903D01*
X55913329Y-97643486D01*
X55792429Y-97898996D01*
X55723700Y-98173184D01*
X55709783Y-98455512D01*
X53528868Y-98455512D01*
X50965000Y-95891645D01*
X50965000Y-95867268D01*
X51008847Y-95813840D01*
X51102632Y-95638380D01*
X51145634Y-95496621D01*
X51160385Y-95447995D01*
X51179886Y-95250000D01*
X51175000Y-95200392D01*
X51175000Y-93486807D01*
X51270998Y-93422663D01*
X51512663Y-93180998D01*
X51576807Y-93085000D01*
X51671026Y-93085000D01*
X51720634Y-93089886D01*
X51918628Y-93070385D01*
X52109014Y-93012632D01*
X52284474Y-92918847D01*
X52438267Y-92792633D01*
X52469895Y-92754094D01*
X60839000Y-84384990D01*
X60839000Y-86322645D01*
G04 #@! TA.AperFunction,Conductor*
D19*
G36*
X60839000Y-86322645D02*
G01*
X56824717Y-90336928D01*
X55415000Y-90336928D01*
X55290518Y-90349188D01*
X55170820Y-90385498D01*
X55060506Y-90444463D01*
X54963815Y-90523815D01*
X54884463Y-90620506D01*
X54825498Y-90730820D01*
X54789188Y-90850518D01*
X54776928Y-90975000D01*
X54776928Y-93175000D01*
X54789188Y-93299482D01*
X54825498Y-93419180D01*
X54884463Y-93529494D01*
X54963815Y-93626185D01*
X55060506Y-93705537D01*
X55170820Y-93764502D01*
X55290518Y-93800812D01*
X55415000Y-93813072D01*
X55505001Y-93813072D01*
X55505001Y-95200383D01*
X55500114Y-95250000D01*
X55519615Y-95447994D01*
X55577368Y-95638379D01*
X55633645Y-95743665D01*
X55671154Y-95813840D01*
X55711928Y-95863524D01*
X55711928Y-96685000D01*
X55724188Y-96809482D01*
X55760498Y-96929180D01*
X55819463Y-97039494D01*
X55898815Y-97136185D01*
X55995506Y-97215537D01*
X56105820Y-97274502D01*
X56225518Y-97310812D01*
X56350000Y-97323072D01*
X56357215Y-97323072D01*
X56336903Y-97392298D01*
X57150000Y-98205395D01*
X57164143Y-98191253D01*
X57343748Y-98370858D01*
X57329605Y-98385000D01*
X58142702Y-99198097D01*
X58386671Y-99126514D01*
X58422481Y-99050834D01*
X60380746Y-101009100D01*
X60412369Y-101047633D01*
X60566162Y-101173847D01*
X60721918Y-101257100D01*
X60741622Y-101267632D01*
X60932007Y-101325385D01*
X61130002Y-101344886D01*
X61179610Y-101340000D01*
X63535590Y-101340000D01*
X63536908Y-101341972D01*
X63758028Y-101563092D01*
X63813265Y-101600000D01*
X63758028Y-101636908D01*
X63536908Y-101858028D01*
X63535590Y-101860000D01*
X56933356Y-101860000D01*
X54451058Y-99377702D01*
X56336903Y-99377702D01*
X56408486Y-99621671D01*
X56663996Y-99742571D01*
X56938184Y-99811300D01*
X57220512Y-99825217D01*
X57500130Y-99783787D01*
X57766292Y-99688603D01*
X57891514Y-99621671D01*
X57963097Y-99377702D01*
X57150000Y-98564605D01*
X56336903Y-99377702D01*
X54451058Y-99377702D01*
X53528868Y-98455512D01*
X55709783Y-98455512D01*
X55751213Y-98735130D01*
X55846397Y-99001292D01*
X55913329Y-99126514D01*
X56157298Y-99198097D01*
X56970395Y-98385000D01*
X56157298Y-97571903D01*
X55913329Y-97643486D01*
X55792429Y-97898996D01*
X55723700Y-98173184D01*
X55709783Y-98455512D01*
X53528868Y-98455512D01*
X50965000Y-95891645D01*
X50965000Y-95867268D01*
X51008847Y-95813840D01*
X51102632Y-95638380D01*
X51145634Y-95496621D01*
X51160385Y-95447995D01*
X51179886Y-95250000D01*
X51175000Y-95200392D01*
X51175000Y-93486807D01*
X51270998Y-93422663D01*
X51512663Y-93180998D01*
X51576807Y-93085000D01*
X51671026Y-93085000D01*
X51720634Y-93089886D01*
X51918628Y-93070385D01*
X52109014Y-93012632D01*
X52284474Y-92918847D01*
X52438267Y-92792633D01*
X52469895Y-92754094D01*
X60839000Y-84384990D01*
X60839000Y-86322645D01*
G37*
G04 #@! TD.AperFunction*
D18*
X66064208Y-63216572D02*
X66285328Y-63437692D01*
X66340565Y-63474600D01*
X66285328Y-63511508D01*
X66064208Y-63732628D01*
X65965333Y-63880605D01*
X65871535Y-63848070D01*
X64949605Y-64770000D01*
X65871535Y-65691930D01*
X65992890Y-65649836D01*
X66064208Y-65756572D01*
X66285328Y-65977692D01*
X66340565Y-66014600D01*
X66285328Y-66051508D01*
X66064208Y-66272628D01*
X66027300Y-66327865D01*
X65990392Y-66272628D01*
X65769272Y-66051508D01*
X65655802Y-65975690D01*
X65691930Y-65871535D01*
X64770000Y-64949605D01*
X63848070Y-65871535D01*
X63879419Y-65961912D01*
X63745328Y-66051508D01*
X63524208Y-66272628D01*
X63350476Y-66532637D01*
X63230807Y-66821543D01*
X63169800Y-67128245D01*
X63169800Y-67440955D01*
X63230807Y-67747657D01*
X63350476Y-68036563D01*
X63524208Y-68296572D01*
X63745328Y-68517692D01*
X63800565Y-68554600D01*
X63745328Y-68591508D01*
X63524208Y-68812628D01*
X63350476Y-69072637D01*
X63230807Y-69361543D01*
X63169800Y-69668245D01*
X63169800Y-69980955D01*
X63230807Y-70287657D01*
X63350476Y-70576563D01*
X63524208Y-70836572D01*
X63745328Y-71057692D01*
X63800565Y-71094600D01*
X63745328Y-71131508D01*
X63524208Y-71352628D01*
X63350476Y-71612637D01*
X63230807Y-71901543D01*
X63169800Y-72208245D01*
X63169800Y-72520955D01*
X63230807Y-72827657D01*
X63350476Y-73116563D01*
X63524208Y-73376572D01*
X63745328Y-73597692D01*
X63800565Y-73634600D01*
X63745328Y-73671508D01*
X63524208Y-73892628D01*
X63350476Y-74152637D01*
X63230807Y-74441543D01*
X63169800Y-74748245D01*
X63169800Y-75060955D01*
X63230807Y-75367657D01*
X63350476Y-75656563D01*
X63524208Y-75916572D01*
X63745328Y-76137692D01*
X63800565Y-76174600D01*
X63745328Y-76211508D01*
X63524208Y-76432628D01*
X63350476Y-76692637D01*
X63230807Y-76981543D01*
X63169800Y-77288245D01*
X63169800Y-77600955D01*
X63230807Y-77907657D01*
X63350476Y-78196563D01*
X63524208Y-78456572D01*
X63745328Y-78677692D01*
X63800565Y-78714600D01*
X63745328Y-78751508D01*
X63524208Y-78972628D01*
X63350476Y-79232637D01*
X63230807Y-79521543D01*
X63169800Y-79828245D01*
X63169800Y-80140955D01*
X63230807Y-80447657D01*
X63350476Y-80736563D01*
X63524208Y-80996572D01*
X63745328Y-81217692D01*
X63800565Y-81254600D01*
X63745328Y-81291508D01*
X63524208Y-81512628D01*
X63350476Y-81772637D01*
X63230807Y-82061543D01*
X63169800Y-82368245D01*
X63169800Y-82680955D01*
X63230807Y-82987657D01*
X63350476Y-83276563D01*
X63524208Y-83536572D01*
X63745328Y-83757692D01*
X63800565Y-83794600D01*
X63745328Y-83831508D01*
X63524208Y-84052628D01*
X63350476Y-84312637D01*
X63230807Y-84601543D01*
X63169800Y-84908245D01*
X63169800Y-85220955D01*
X63230807Y-85527657D01*
X63350476Y-85816563D01*
X63524208Y-86076572D01*
X63745328Y-86297692D01*
X63800565Y-86334600D01*
X63745328Y-86371508D01*
X63524208Y-86592628D01*
X63350476Y-86852637D01*
X63230807Y-87141543D01*
X63169800Y-87448245D01*
X63169800Y-87760955D01*
X63230807Y-88067657D01*
X63350476Y-88356563D01*
X63524208Y-88616572D01*
X63745328Y-88837692D01*
X63800565Y-88874600D01*
X63745328Y-88911508D01*
X63524208Y-89132628D01*
X63350476Y-89392637D01*
X63230807Y-89681543D01*
X63169800Y-89988245D01*
X63169800Y-90300955D01*
X63230807Y-90607657D01*
X63350476Y-90896563D01*
X63524208Y-91156572D01*
X63745328Y-91377692D01*
X63800565Y-91414600D01*
X63745328Y-91451508D01*
X63524208Y-91672628D01*
X63350476Y-91932637D01*
X63230807Y-92221543D01*
X63169800Y-92528245D01*
X63169800Y-92840955D01*
X63230807Y-93147657D01*
X63350476Y-93436563D01*
X63524208Y-93696572D01*
X63745328Y-93917692D01*
X63825922Y-93971543D01*
X63758028Y-94016908D01*
X63536908Y-94238028D01*
X63363176Y-94498037D01*
X63243507Y-94786943D01*
X63182500Y-95093645D01*
X63182500Y-95406355D01*
X63243507Y-95713057D01*
X63363176Y-96001963D01*
X63536908Y-96261972D01*
X63758028Y-96483092D01*
X63888961Y-96570578D01*
X63848070Y-96688465D01*
X64770000Y-97610395D01*
X65691930Y-96688465D01*
X65651039Y-96570578D01*
X65781972Y-96483092D01*
X66003092Y-96261972D01*
X66040000Y-96206735D01*
X66076908Y-96261972D01*
X66298028Y-96483092D01*
X66327908Y-96503057D01*
X66285328Y-96531508D01*
X66064208Y-96752628D01*
X65965333Y-96900605D01*
X65871535Y-96868070D01*
X64949605Y-97790000D01*
X65871535Y-98711930D01*
X65992890Y-98669836D01*
X66064208Y-98776572D01*
X66285328Y-98997692D01*
X66340565Y-99034600D01*
X66285328Y-99071508D01*
X66064208Y-99292628D01*
X66025164Y-99351061D01*
X66003092Y-99318028D01*
X65781972Y-99096908D01*
X65651039Y-99009422D01*
X65691930Y-98891535D01*
X64770000Y-97969605D01*
X63848070Y-98891535D01*
X63888961Y-99009422D01*
X63758028Y-99096908D01*
X63536908Y-99318028D01*
X63535590Y-99320000D01*
X61548358Y-99320000D01*
X60082832Y-97854474D01*
X63176123Y-97854474D01*
X63219328Y-98164185D01*
X63322123Y-98459516D01*
X63408919Y-98621902D01*
X63668465Y-98711930D01*
X64590395Y-97790000D01*
X63668465Y-96868070D01*
X63408919Y-96958098D01*
X63272776Y-97239616D01*
X63194171Y-97542286D01*
X63176123Y-97854474D01*
X60082832Y-97854474D01*
X58588072Y-96359715D01*
X58588072Y-95085000D01*
X58575812Y-94960518D01*
X58539502Y-94840820D01*
X58480537Y-94730506D01*
X58401185Y-94633815D01*
X58304494Y-94554463D01*
X58194180Y-94495498D01*
X58074482Y-94459188D01*
X57950000Y-94446928D01*
X57525000Y-94446928D01*
X57525000Y-93813072D01*
X57615000Y-93813072D01*
X57739482Y-93800812D01*
X57859180Y-93764502D01*
X57969494Y-93705537D01*
X58066185Y-93626185D01*
X58145537Y-93529494D01*
X58204502Y-93419180D01*
X58240812Y-93299482D01*
X58253072Y-93175000D01*
X58253072Y-91765283D01*
X62528094Y-87490261D01*
X62566633Y-87458633D01*
X62692847Y-87304840D01*
X62786632Y-87129380D01*
X62844385Y-86938994D01*
X62859000Y-86790608D01*
X62859000Y-86790606D01*
X62863886Y-86741001D01*
X62859000Y-86691396D01*
X62859000Y-65569355D01*
X63236070Y-65192285D01*
X63322123Y-65439516D01*
X63408919Y-65601902D01*
X63668465Y-65691930D01*
X64590395Y-64770000D01*
X64576253Y-64755858D01*
X64755858Y-64576253D01*
X64770000Y-64590395D01*
X65691930Y-63668465D01*
X65651039Y-63550578D01*
X65781972Y-63463092D01*
X66003092Y-63241972D01*
X66042136Y-63183539D01*
X66064208Y-63216572D01*
G04 #@! TA.AperFunction,Conductor*
D19*
G36*
X66064208Y-63216572D02*
G01*
X66285328Y-63437692D01*
X66340565Y-63474600D01*
X66285328Y-63511508D01*
X66064208Y-63732628D01*
X65965333Y-63880605D01*
X65871535Y-63848070D01*
X64949605Y-64770000D01*
X65871535Y-65691930D01*
X65992890Y-65649836D01*
X66064208Y-65756572D01*
X66285328Y-65977692D01*
X66340565Y-66014600D01*
X66285328Y-66051508D01*
X66064208Y-66272628D01*
X66027300Y-66327865D01*
X65990392Y-66272628D01*
X65769272Y-66051508D01*
X65655802Y-65975690D01*
X65691930Y-65871535D01*
X64770000Y-64949605D01*
X63848070Y-65871535D01*
X63879419Y-65961912D01*
X63745328Y-66051508D01*
X63524208Y-66272628D01*
X63350476Y-66532637D01*
X63230807Y-66821543D01*
X63169800Y-67128245D01*
X63169800Y-67440955D01*
X63230807Y-67747657D01*
X63350476Y-68036563D01*
X63524208Y-68296572D01*
X63745328Y-68517692D01*
X63800565Y-68554600D01*
X63745328Y-68591508D01*
X63524208Y-68812628D01*
X63350476Y-69072637D01*
X63230807Y-69361543D01*
X63169800Y-69668245D01*
X63169800Y-69980955D01*
X63230807Y-70287657D01*
X63350476Y-70576563D01*
X63524208Y-70836572D01*
X63745328Y-71057692D01*
X63800565Y-71094600D01*
X63745328Y-71131508D01*
X63524208Y-71352628D01*
X63350476Y-71612637D01*
X63230807Y-71901543D01*
X63169800Y-72208245D01*
X63169800Y-72520955D01*
X63230807Y-72827657D01*
X63350476Y-73116563D01*
X63524208Y-73376572D01*
X63745328Y-73597692D01*
X63800565Y-73634600D01*
X63745328Y-73671508D01*
X63524208Y-73892628D01*
X63350476Y-74152637D01*
X63230807Y-74441543D01*
X63169800Y-74748245D01*
X63169800Y-75060955D01*
X63230807Y-75367657D01*
X63350476Y-75656563D01*
X63524208Y-75916572D01*
X63745328Y-76137692D01*
X63800565Y-76174600D01*
X63745328Y-76211508D01*
X63524208Y-76432628D01*
X63350476Y-76692637D01*
X63230807Y-76981543D01*
X63169800Y-77288245D01*
X63169800Y-77600955D01*
X63230807Y-77907657D01*
X63350476Y-78196563D01*
X63524208Y-78456572D01*
X63745328Y-78677692D01*
X63800565Y-78714600D01*
X63745328Y-78751508D01*
X63524208Y-78972628D01*
X63350476Y-79232637D01*
X63230807Y-79521543D01*
X63169800Y-79828245D01*
X63169800Y-80140955D01*
X63230807Y-80447657D01*
X63350476Y-80736563D01*
X63524208Y-80996572D01*
X63745328Y-81217692D01*
X63800565Y-81254600D01*
X63745328Y-81291508D01*
X63524208Y-81512628D01*
X63350476Y-81772637D01*
X63230807Y-82061543D01*
X63169800Y-82368245D01*
X63169800Y-82680955D01*
X63230807Y-82987657D01*
X63350476Y-83276563D01*
X63524208Y-83536572D01*
X63745328Y-83757692D01*
X63800565Y-83794600D01*
X63745328Y-83831508D01*
X63524208Y-84052628D01*
X63350476Y-84312637D01*
X63230807Y-84601543D01*
X63169800Y-84908245D01*
X63169800Y-85220955D01*
X63230807Y-85527657D01*
X63350476Y-85816563D01*
X63524208Y-86076572D01*
X63745328Y-86297692D01*
X63800565Y-86334600D01*
X63745328Y-86371508D01*
X63524208Y-86592628D01*
X63350476Y-86852637D01*
X63230807Y-87141543D01*
X63169800Y-87448245D01*
X63169800Y-87760955D01*
X63230807Y-88067657D01*
X63350476Y-88356563D01*
X63524208Y-88616572D01*
X63745328Y-88837692D01*
X63800565Y-88874600D01*
X63745328Y-88911508D01*
X63524208Y-89132628D01*
X63350476Y-89392637D01*
X63230807Y-89681543D01*
X63169800Y-89988245D01*
X63169800Y-90300955D01*
X63230807Y-90607657D01*
X63350476Y-90896563D01*
X63524208Y-91156572D01*
X63745328Y-91377692D01*
X63800565Y-91414600D01*
X63745328Y-91451508D01*
X63524208Y-91672628D01*
X63350476Y-91932637D01*
X63230807Y-92221543D01*
X63169800Y-92528245D01*
X63169800Y-92840955D01*
X63230807Y-93147657D01*
X63350476Y-93436563D01*
X63524208Y-93696572D01*
X63745328Y-93917692D01*
X63825922Y-93971543D01*
X63758028Y-94016908D01*
X63536908Y-94238028D01*
X63363176Y-94498037D01*
X63243507Y-94786943D01*
X63182500Y-95093645D01*
X63182500Y-95406355D01*
X63243507Y-95713057D01*
X63363176Y-96001963D01*
X63536908Y-96261972D01*
X63758028Y-96483092D01*
X63888961Y-96570578D01*
X63848070Y-96688465D01*
X64770000Y-97610395D01*
X65691930Y-96688465D01*
X65651039Y-96570578D01*
X65781972Y-96483092D01*
X66003092Y-96261972D01*
X66040000Y-96206735D01*
X66076908Y-96261972D01*
X66298028Y-96483092D01*
X66327908Y-96503057D01*
X66285328Y-96531508D01*
X66064208Y-96752628D01*
X65965333Y-96900605D01*
X65871535Y-96868070D01*
X64949605Y-97790000D01*
X65871535Y-98711930D01*
X65992890Y-98669836D01*
X66064208Y-98776572D01*
X66285328Y-98997692D01*
X66340565Y-99034600D01*
X66285328Y-99071508D01*
X66064208Y-99292628D01*
X66025164Y-99351061D01*
X66003092Y-99318028D01*
X65781972Y-99096908D01*
X65651039Y-99009422D01*
X65691930Y-98891535D01*
X64770000Y-97969605D01*
X63848070Y-98891535D01*
X63888961Y-99009422D01*
X63758028Y-99096908D01*
X63536908Y-99318028D01*
X63535590Y-99320000D01*
X61548358Y-99320000D01*
X60082832Y-97854474D01*
X63176123Y-97854474D01*
X63219328Y-98164185D01*
X63322123Y-98459516D01*
X63408919Y-98621902D01*
X63668465Y-98711930D01*
X64590395Y-97790000D01*
X63668465Y-96868070D01*
X63408919Y-96958098D01*
X63272776Y-97239616D01*
X63194171Y-97542286D01*
X63176123Y-97854474D01*
X60082832Y-97854474D01*
X58588072Y-96359715D01*
X58588072Y-95085000D01*
X58575812Y-94960518D01*
X58539502Y-94840820D01*
X58480537Y-94730506D01*
X58401185Y-94633815D01*
X58304494Y-94554463D01*
X58194180Y-94495498D01*
X58074482Y-94459188D01*
X57950000Y-94446928D01*
X57525000Y-94446928D01*
X57525000Y-93813072D01*
X57615000Y-93813072D01*
X57739482Y-93800812D01*
X57859180Y-93764502D01*
X57969494Y-93705537D01*
X58066185Y-93626185D01*
X58145537Y-93529494D01*
X58204502Y-93419180D01*
X58240812Y-93299482D01*
X58253072Y-93175000D01*
X58253072Y-91765283D01*
X62528094Y-87490261D01*
X62566633Y-87458633D01*
X62692847Y-87304840D01*
X62786632Y-87129380D01*
X62844385Y-86938994D01*
X62859000Y-86790608D01*
X62859000Y-86790606D01*
X62863886Y-86741001D01*
X62859000Y-86691396D01*
X62859000Y-65569355D01*
X63236070Y-65192285D01*
X63322123Y-65439516D01*
X63408919Y-65601902D01*
X63668465Y-65691930D01*
X64590395Y-64770000D01*
X64576253Y-64755858D01*
X64755858Y-64576253D01*
X64770000Y-64590395D01*
X65691930Y-63668465D01*
X65651039Y-63550578D01*
X65781972Y-63463092D01*
X66003092Y-63241972D01*
X66042136Y-63183539D01*
X66064208Y-63216572D01*
G37*
G04 #@! TD.AperFunction*
M02*
