M48
; DRILL file {KiCad 5.1.5-52549c5~84~ubuntu18.04.1} date Sun 05 Jul 2020 07:32:45 AM EDT
; FORMAT={-:-/ absolute / inch / decimal}
; #@! TF.CreationDate,2020-07-05T07:32:45-04:00
; #@! TF.GenerationSoftware,Kicad,Pcbnew,5.1.5-52549c5~84~ubuntu18.04.1
; #@! TF.FileFunction,Plated,1,2,PTH
FMAT,2
INCH
T1C0.0315
T2C0.0320
T3C0.0394
T4C0.0400
%
G90
G05
T1
X2.2329Y-3.7795
X2.2329Y-3.8583
X1.9791Y-3.7783
X1.9791Y-3.857
T2
X4.65Y-2.45
X3.85Y-3.85
X4.2495Y-3.549
X4.65Y-4.05
X4.7495Y-3.249
X4.1495Y-2.649
X5.25Y-2.45
X5.05Y-3.75
X2.95Y-2.45
X3.35Y-2.35
X4.8495Y-3.649
X5.5495Y-2.649
X4.9495Y-2.749
X3.7495Y-3.549
X3.55Y-2.35
X5.25Y-2.35
X3.15Y-3.75
X3.75Y-3.85
X4.4495Y-2.949
X5.1495Y-3.649
X3.1495Y-3.049
X3.5495Y-2.649
X5.0495Y-3.649
X4.0495Y-3.249
X4.7495Y-3.449
X2.951Y-2.5501
X4.6495Y-3.049
X4.85Y-3.95
X3.451Y-2.5501
X3.6495Y-3.249
X3.75Y-4.05
X4.85Y-2.35
X3.051Y-2.5501
X4.1495Y-2.949
X5.0495Y-3.349
X3.45Y-4.05
X4.5495Y-3.249
X5.2495Y-3.249
X3.7495Y-3.249
X4.0495Y-3.449
X5.15Y-3.85
X5.1495Y-3.549
X2.75Y-3.75
X2.6495Y-3.649
X4.4495Y-2.749
X4.45Y-2.35
X3.55Y-3.95
X2.75Y-3.85
X2.6495Y-3.249
X3.0495Y-3.549
X4.2495Y-3.449
X4.35Y-4.05
X2.7495Y-2.949
X3.1495Y-3.349
X2.8495Y-2.649
X5.45Y-2.45
X4.25Y-4.05
X4.551Y-2.5501
X4.7495Y-3.549
X4.55Y-3.85
X4.85Y-2.45
X3.6495Y-3.349
X4.5495Y-3.149
X5.55Y-3.95
X4.0495Y-3.149
X3.1495Y-3.649
X4.55Y-2.45
X3.3495Y-3.449
X5.5495Y-3.349
X3.35Y-2.45
X5.4495Y-2.849
X4.7495Y-2.649
X4.6495Y-3.549
X3.1495Y-3.449
X3.5495Y-3.549
X4.6495Y-2.849
X2.5495Y-2.849
X3.8495Y-3.049
X3.5495Y-3.049
X3.8495Y-2.849
X3.85Y-3.95
X4.5495Y-3.549
X5.4495Y-2.949
X3.6495Y-3.149
X3.7495Y-2.949
X5.3495Y-3.149
X4.6495Y-3.249
X3.25Y-2.45
X5.1495Y-3.349
X3.75Y-2.35
X3.15Y-3.85
X3.4495Y-2.949
X3.5495Y-3.349
X5.0495Y-3.549
X3.7495Y-3.049
X3.2495Y-3.549
X2.7495Y-3.049
X2.65Y-3.85
X2.5495Y-3.449
X4.25Y-2.35
X3.0495Y-3.649
X3.0495Y-2.849
X4.7495Y-3.649
X4.1495Y-3.349
X2.6495Y-3.449
X5.5495Y-3.649
X4.6495Y-2.749
X3.05Y-3.85
X5.551Y-2.5501
X5.251Y-2.5501
X5.3495Y-2.649
X3.6495Y-3.049
X4.4495Y-3.549
X3.95Y-4.05
X2.6495Y-2.949
X4.15Y-3.75
X4.3495Y-3.549
X4.8495Y-2.749
X5.45Y-3.95
X4.6495Y-2.649
X3.0495Y-3.049
X3.7495Y-3.449
X5.25Y-4.05
X2.85Y-3.85
X4.3495Y-2.849
X4.95Y-4.05
X5.5495Y-2.949
X4.5495Y-3.049
X4.2495Y-3.049
X4.55Y-4.05
X4.8495Y-2.849
X2.8495Y-2.949
X4.7495Y-3.349
X4.7495Y-3.149
X2.9495Y-3.349
X4.0495Y-2.649
X4.2495Y-2.849
X5.1495Y-3.249
X3.75Y-2.45
X5.35Y-3.95
X2.5495Y-3.149
X4.0495Y-2.949
X3.5495Y-3.449
X4.65Y-3.75
X3.0495Y-3.349
X3.4495Y-2.749
X3.9495Y-2.749
X5.3495Y-2.949
X5.35Y-4.05
X3.0495Y-2.649
X4.351Y-2.5501
X3.25Y-3.85
X4.55Y-2.35
X4.05Y-2.45
X3.15Y-3.95
X4.25Y-3.85
X3.9495Y-2.849
X4.35Y-2.35
X4.9495Y-3.449
X3.95Y-2.35
X2.5495Y-2.749
X4.55Y-3.75
X3.1495Y-2.849
X5.0495Y-2.749
X2.7495Y-3.449
X2.65Y-3.75
X3.2495Y-2.849
X5.3495Y-2.849
X4.35Y-3.95
X3.25Y-2.35
X2.85Y-2.35
X5.1495Y-2.949
X3.3495Y-3.149
X2.851Y-2.5501
X3.651Y-2.5501
X4.75Y-4.05
X4.3495Y-2.749
X4.8495Y-2.949
X5.4495Y-2.649
X3.8495Y-3.249
X4.35Y-3.75
X2.6495Y-3.149
X5.4495Y-3.649
X3.55Y-3.85
X5.15Y-4.05
X3.3495Y-2.949
X4.5495Y-3.449
X2.751Y-2.5501
X5.2495Y-3.449
X2.85Y-3.95
X3.7495Y-3.349
X3.65Y-4.05
X2.8495Y-3.349
X2.65Y-4.05
X2.55Y-3.95
X2.9495Y-2.849
X4.75Y-3.95
X5.1495Y-3.149
X4.6495Y-2.949
X5.05Y-2.35
X3.95Y-3.85
X4.4495Y-3.349
X4.9495Y-3.349
X3.8495Y-3.349
X2.9495Y-3.549
X5.5495Y-3.549
X4.65Y-2.35
X3.55Y-2.45
X5.0495Y-3.149
X2.55Y-3.85
X3.3495Y-3.049
X5.45Y-4.05
X4.5495Y-2.649
X3.9495Y-3.149
X5.2495Y-3.549
X3.1495Y-3.149
X3.5495Y-2.749
X3.9495Y-3.549
X4.9495Y-3.049
X4.85Y-3.75
X3.2495Y-3.149
X3.35Y-4.05
X5.15Y-2.45
X2.55Y-4.05
X2.7495Y-2.749
X4.95Y-3.95
X3.1495Y-2.749
X5.05Y-2.45
X3.4495Y-3.549
X5.55Y-3.85
X2.5495Y-3.049
X5.45Y-3.75
X3.7495Y-2.749
X3.7495Y-2.649
X4.95Y-2.35
X2.7495Y-3.649
X2.6495Y-2.649
X3.4495Y-3.449
X4.4495Y-3.649
X3.5495Y-3.649
X4.4495Y-3.149
X3.1495Y-3.249
X3.1495Y-2.949
X4.4495Y-3.449
X5.25Y-3.95
X3.0495Y-3.249
X2.7495Y-3.549
X4.55Y-3.95
X5.5495Y-2.749
X5.5495Y-2.849
X3.35Y-3.95
X2.95Y-3.75
X2.75Y-2.35
X2.5495Y-3.649
X3.4495Y-3.149
X3.95Y-2.45
X5.05Y-3.95
X4.9495Y-2.949
X4.1495Y-3.049
X3.25Y-3.95
X3.351Y-2.5501
X4.25Y-2.45
X4.8495Y-3.549
X5.351Y-2.5501
X3.9495Y-3.349
X4.051Y-2.5501
X4.2495Y-3.349
X4.5495Y-3.649
X3.0495Y-3.449
X3.45Y-3.85
X5.0495Y-3.249
X3.85Y-4.05
X4.2495Y-2.649
X3.6495Y-2.749
X5.15Y-3.95
X4.3495Y-3.149
X3.251Y-2.5501
X3.3495Y-2.749
X4.75Y-2.45
X2.8495Y-3.049
X2.55Y-3.75
X2.95Y-3.95
X4.35Y-3.85
X3.7495Y-2.849
X3.3495Y-3.349
X5.2495Y-2.949
X4.6495Y-3.449
X3.9495Y-3.049
X3.15Y-2.45
X3.4495Y-3.649
X4.8495Y-2.649
X4.2495Y-2.949
X3.8495Y-3.149
X4.45Y-3.85
X2.8495Y-2.749
X5.4495Y-3.249
X5.3495Y-3.249
X3.0495Y-3.149
X4.6495Y-3.349
X3.8495Y-2.949
X4.4495Y-2.649
X3.25Y-3.75
X3.6495Y-2.949
X5.4495Y-3.349
X4.8495Y-3.149
X4.05Y-2.35
X3.7495Y-3.649
X2.7495Y-3.249
X2.5495Y-3.349
X2.55Y-2.35
X4.1495Y-2.749
X2.9495Y-3.449
X4.8495Y-3.049
X2.6495Y-2.749
X3.05Y-2.35
X4.4495Y-2.849
X3.5495Y-3.249
X3.05Y-4.05
X3.05Y-3.75
X4.85Y-4.05
X3.65Y-2.35
X3.35Y-3.85
X4.9495Y-3.549
X5.151Y-2.5501
X5.4495Y-3.049
X3.4495Y-3.249
X4.1495Y-2.849
X3.95Y-3.75
X4.3495Y-3.649
X4.1495Y-3.149
X2.6495Y-2.849
X4.15Y-2.35
X4.9495Y-2.649
X2.95Y-4.05
X2.8495Y-3.649
X2.75Y-4.05
X2.65Y-2.45
X5.3495Y-3.349
X4.2495Y-3.649
X3.15Y-2.35
X5.05Y-4.05
X4.4495Y-3.049
X5.5495Y-3.149
X5.5495Y-3.749
X4.75Y-3.85
X3.3495Y-3.249
X4.9495Y-3.649
X4.751Y-2.5501
X3.6495Y-3.449
X4.2495Y-3.249
X3.9495Y-2.649
X3.3495Y-2.849
X5.1495Y-2.849
X4.75Y-2.35
X4.15Y-2.45
X4.1495Y-3.649
X4.6495Y-3.149
X5.35Y-2.35
X3.65Y-2.45
X4.15Y-3.85
X3.2495Y-2.749
X4.25Y-3.75
X4.0495Y-3.549
X2.9495Y-3.249
X5.2495Y-2.649
X3.85Y-2.35
X3.25Y-4.05
X4.85Y-3.85
X3.45Y-2.35
X5.5495Y-3.449
X3.9495Y-3.249
X4.75Y-3.75
X3.2495Y-2.649
X5.2495Y-3.049
X3.7495Y-3.149
X2.8495Y-3.549
X2.5495Y-2.649
X4.9495Y-3.149
X5.5495Y-3.049
X4.6495Y-3.649
X4.15Y-4.05
X4.65Y-3.95
X2.9495Y-3.649
X4.0495Y-2.749
X5.2495Y-3.349
X3.2495Y-3.649
X3.6495Y-2.849
X4.5495Y-2.749
X4.2495Y-3.149
X4.8495Y-3.349
X4.3495Y-3.249
X4.651Y-2.5501
X4.0495Y-2.849
X5.451Y-2.5501
X5.0495Y-2.849
X4.251Y-2.5501
X5.1495Y-2.649
X2.7495Y-3.149
X4.151Y-2.5501
X2.8495Y-3.149
X3.8495Y-3.449
X2.6495Y-3.049
X3.0495Y-2.949
X4.7495Y-2.749
X3.5495Y-3.149
X5.05Y-3.85
X4.05Y-3.75
X4.45Y-3.95
X4.7495Y-3.049
X2.75Y-2.45
X3.1495Y-2.649
X4.3495Y-2.949
X2.85Y-4.05
X3.9495Y-3.649
X3.75Y-3.95
X5.25Y-3.75
X5.35Y-3.85
X4.05Y-4.05
X3.4495Y-3.349
X5.4495Y-3.549
X3.75Y-3.75
X3.45Y-2.45
X4.05Y-3.95
X2.9495Y-2.949
X5.0495Y-3.449
X4.5495Y-2.849
X3.6495Y-3.649
X3.551Y-2.5501
X2.9495Y-2.749
X5.25Y-3.85
X3.5495Y-2.849
X2.5495Y-2.949
X3.55Y-4.05
X5.3495Y-3.549
X4.0495Y-3.349
X3.8495Y-3.649
X5.35Y-3.75
X3.6495Y-2.649
X5.4495Y-3.449
X3.4495Y-2.649
X4.1495Y-3.249
X3.95Y-3.95
X3.3495Y-2.649
X4.3495Y-3.349
X4.45Y-4.05
X4.45Y-3.75
X5.0495Y-2.649
X4.9495Y-2.849
X4.95Y-3.85
X3.0495Y-2.749
X4.2495Y-2.749
X2.8495Y-2.849
X2.6495Y-3.349
X3.55Y-3.75
X2.85Y-3.75
X4.05Y-3.85
X2.7495Y-3.349
X2.5495Y-3.549
X4.951Y-2.5501
X2.95Y-3.85
X4.15Y-3.95
X4.8495Y-3.249
X2.65Y-2.35
X4.1495Y-3.549
X4.3495Y-2.649
X5.1495Y-3.449
X5.3495Y-3.049
X5.4495Y-2.749
X5.0495Y-2.949
X2.7495Y-2.849
X5.15Y-3.75
X4.45Y-2.45
X2.85Y-2.45
X3.3495Y-3.649
X4.7495Y-2.949
X5.45Y-3.85
X5.0495Y-3.049
X4.65Y-3.85
X3.3495Y-3.549
X3.8495Y-2.649
X5.2495Y-3.149
X2.651Y-2.5501
X4.35Y-2.45
X5.3495Y-3.449
X4.3495Y-3.049
X5.35Y-2.45
X3.2495Y-2.949
X3.8495Y-3.549
X3.4495Y-2.849
X2.95Y-2.35
X3.9495Y-2.949
X5.2495Y-2.849
X2.9495Y-3.049
X2.55Y-2.45
X4.1495Y-3.449
X5.051Y-2.5501
X4.8495Y-3.449
X2.8495Y-3.449
X3.85Y-2.45
X3.2495Y-3.249
X3.85Y-3.75
X4.0495Y-3.049
X5.2495Y-3.649
X3.45Y-3.95
X4.4495Y-3.249
X5.3495Y-2.749
X2.9495Y-3.149
X2.5495Y-3.249
X2.551Y-2.5501
X4.25Y-3.95
X3.65Y-3.85
X2.9495Y-2.649
X3.4495Y-3.049
X3.851Y-2.5501
X4.0495Y-3.649
X5.1495Y-2.749
X4.451Y-2.5501
X3.2495Y-3.449
X3.2495Y-3.049
X3.45Y-3.75
X5.2495Y-2.749
X3.65Y-3.75
X5.5495Y-3.249
X3.9495Y-3.449
X4.5495Y-3.349
X5.15Y-2.35
X4.851Y-2.5501
X2.75Y-3.95
X2.65Y-3.95
X2.8495Y-3.249
X5.45Y-2.35
X4.7495Y-2.849
X2.7495Y-2.649
X2.6495Y-3.549
X3.05Y-3.95
X4.3495Y-3.449
X3.2495Y-3.349
X3.6495Y-3.549
X3.35Y-3.75
X4.95Y-2.45
X4.5495Y-2.949
X4.9495Y-3.249
X3.65Y-3.95
X3.751Y-2.5501
X3.8495Y-2.749
X5.55Y-2.45
X4.95Y-3.75
X3.15Y-4.05
X5.3495Y-3.649
X3.5495Y-2.949
X5.1495Y-3.049
X3.1495Y-3.549
X3.951Y-2.5501
X3.151Y-2.5501
X5.4495Y-3.149
X3.05Y-2.45
T3
X1.9791Y-3.3649
X1.9791Y-3.5617
X2.2441Y-3.3661
X2.2441Y-3.563
T4
X2.0569Y-2.6075
X2.0569Y-2.7075
X2.0569Y-2.8075
X2.0569Y-2.9075
X2.0569Y-3.0075
X2.1569Y-2.6075
X2.1569Y-2.7075
X2.1569Y-2.8075
X2.1569Y-2.9075
X2.1569Y-3.0075
T0
M30
