M48
; DRILL file {KiCad 5.1.6-c6e7f7d~87~ubuntu20.04.1} date Sun Oct 18 20:32:05 2020
; FORMAT={-:-/ absolute / inch / decimal}
; #@! TF.CreationDate,2020-10-18T20:32:05-04:00
; #@! TF.GenerationSoftware,Kicad,Pcbnew,5.1.6-c6e7f7d~87~ubuntu20.04.1
; #@! TF.FileFunction,Plated,1,2,PTH
FMAT,2
INCH
T1C0.0315
T2C0.0320
T3C0.0400
T4C0.0433
%
G90
G05
T1
X2.2329Y-3.7795
X2.2329Y-3.8583
X1.9791Y-3.7795
X1.9791Y-3.8583
T2
X2.6495Y-3.649
X3.0495Y-2.749
X3.5495Y-3.949
X4.1495Y-2.649
X3.4495Y-2.949
X3.2495Y-3.149
X4.6495Y-4.049
X4.4495Y-3.849
X5.2495Y-2.449
X4.2495Y-3.549
X3.8495Y-3.449
X3.4495Y-3.349
X2.7495Y-2.349
X4.4495Y-3.149
X4.6495Y-3.049
X4.3495Y-2.849
X3.8495Y-2.749
X2.7495Y-2.449
X2.6495Y-3.249
X2.5495Y-2.949
X2.55Y-3.95
X3.35Y-3.75
X3.2495Y-3.549
X2.9495Y-3.849
X3.6495Y-2.449
X4.3495Y-3.449
X4.8495Y-3.149
X4.4495Y-3.649
X4.9495Y-2.849
X4.3495Y-3.349
X3.7495Y-3.049
X3.0495Y-3.149
X3.4495Y-3.249
X4.0495Y-3.949
X4.0495Y-2.449
X4.3495Y-2.749
X3.3495Y-3.049
X2.7495Y-3.349
X3.0495Y-3.449
X4.8495Y-2.449
X5.0495Y-2.349
X4.4495Y-2.449
X4.0495Y-2.949
X2.8495Y-3.949
X3.3495Y-4.049
X3.6495Y-3.849
X5.2495Y-2.549
X5.5495Y-3.049
X5.2495Y-3.249
X5.1495Y-2.749
X4.1495Y-3.949
X4.1495Y-2.949
X3.5495Y-2.649
X4.0495Y-3.849
X4.9495Y-2.449
X2.55Y-2.35
X2.5495Y-3.449
X4.0495Y-2.349
X5.0495Y-3.249
X4.9495Y-3.049
X5.0495Y-2.949
X3.85Y-3.75
X3.1495Y-4.049
X5.2495Y-3.949
X4.3495Y-3.149
X5.1495Y-3.249
X4.2495Y-3.149
X2.5495Y-3.249
X2.7495Y-4.049
X4.2495Y-2.549
X4.6495Y-3.149
X4.2495Y-3.649
X3.6495Y-3.949
X5.3495Y-3.849
X4.1495Y-2.849
X3.5495Y-2.849
X2.7495Y-2.549
X2.6495Y-2.449
X4.1495Y-2.349
X5.5495Y-3.449
X3.8495Y-3.249
X4.2495Y-4.049
X2.55Y-2.45
X4.3495Y-2.349
X5.3495Y-2.849
X3.9495Y-2.849
X2.9495Y-3.149
X2.9495Y-3.449
X3.5495Y-2.349
X4.9495Y-2.549
X5.5495Y-3.749
X5.1495Y-3.549
X4.7495Y-3.649
X4.7495Y-2.949
X4.0495Y-3.149
X3.6495Y-2.849
X4.4495Y-3.949
X5.4495Y-3.049
X4.6495Y-3.249
X5.0495Y-2.749
X3.6495Y-2.949
X4.7495Y-2.349
X5.0495Y-3.049
X4.5495Y-3.349
X3.1495Y-2.949
X5.2495Y-2.749
X4.4495Y-2.949
X4.6495Y-3.349
X2.6495Y-3.949
X2.75Y-3.75
X4.3495Y-3.849
X5.1495Y-3.149
X4.4495Y-2.849
X3.2495Y-3.849
X5.1495Y-2.549
X5.2495Y-3.349
X3.8495Y-3.149
X4.0495Y-3.049
X3.2495Y-2.449
X3.6495Y-3.649
X4.4495Y-2.349
X3.7495Y-2.749
X2.8495Y-2.949
X3.4495Y-4.049
X4.5495Y-3.249
X4.3495Y-3.549
X5.2495Y-2.649
X3.9495Y-2.749
X2.5495Y-2.649
X4.7495Y-2.449
X4.6495Y-3.449
X5.0495Y-3.149
X4.65Y-3.75
X2.8495Y-3.249
X3.4495Y-2.649
X3.2495Y-3.349
X2.9495Y-2.349
X4.1495Y-3.249
X4.4495Y-2.749
X4.8495Y-3.649
X5.4495Y-3.649
X3.5495Y-3.249
X5.2495Y-3.449
X2.9495Y-3.949
X3.1495Y-2.749
X3.5495Y-2.549
X3.9495Y-2.549
X5.1495Y-2.949
X4.1495Y-3.549
X4.0495Y-2.749
X3.6495Y-3.349
X5.3495Y-3.949
X4.7495Y-2.549
X4.95Y-3.75
X5.4495Y-3.249
X4.5495Y-4.049
X2.7495Y-2.749
X5.1495Y-3.849
X4.6495Y-2.549
X4.7495Y-3.549
X3.9495Y-3.349
X3.3495Y-2.849
X2.8495Y-3.849
X3.0495Y-2.549
X4.6495Y-3.649
X4.7495Y-3.249
X3.9495Y-3.049
X3.7495Y-3.649
X3.1495Y-3.149
X3.2495Y-3.649
X4.8495Y-4.049
X2.5495Y-3.649
X4.9495Y-4.049
X5.0495Y-3.849
X3.5495Y-2.449
X4.9495Y-3.549
X5.4495Y-2.949
X4.7495Y-3.149
X3.7495Y-2.649
X3.1495Y-3.849
X3.3495Y-3.549
X3.2495Y-2.849
X2.8495Y-2.349
X4.6495Y-3.949
X4.5495Y-3.649
X3.6495Y-3.149
X3.5495Y-3.049
X3.3495Y-3.849
X2.7495Y-2.949
X3.1495Y-3.049
X2.6495Y-3.549
X3.3495Y-2.349
X5.1495Y-2.449
X3.8495Y-3.549
X2.6495Y-2.549
X3.8495Y-4.049
X2.8495Y-3.049
X3.3495Y-2.549
X5.5495Y-2.849
X5.2495Y-3.649
X2.6495Y-2.649
X3.2495Y-3.949
X5.2495Y-2.949
X4.7495Y-3.449
X3.8495Y-3.349
X3.0495Y-4.049
X3.4495Y-3.449
X3.3495Y-2.649
X3.7495Y-4.049
X3.0495Y-2.349
X4.6495Y-3.849
X5.0495Y-2.449
X2.9495Y-2.549
X4.6495Y-2.349
X4.5495Y-3.049
X5.3495Y-3.649
X4.5495Y-2.649
X3.8495Y-2.649
X2.6495Y-3.149
X2.9495Y-2.649
X3.3495Y-3.149
X3.2495Y-2.649
X3.3495Y-3.949
X3.3495Y-2.449
X4.4495Y-3.549
X5.05Y-3.75
X5.4495Y-2.849
X4.5495Y-2.949
X3.65Y-3.75
X2.9495Y-3.249
X3.9495Y-3.949
X3.9495Y-2.449
X4.2495Y-3.449
X4.1495Y-2.749
X3.6495Y-3.449
X2.8495Y-2.749
X2.8495Y-2.649
X5.4495Y-2.349
X4.6495Y-2.449
X3.95Y-3.75
X5.2495Y-4.049
X2.6495Y-3.449
X5.3495Y-2.349
X5.0495Y-2.549
X5.5495Y-2.649
X4.7495Y-2.749
X5.2495Y-3.549
X4.0495Y-3.249
X3.0495Y-3.049
X5.1495Y-3.949
X4.3495Y-3.649
X3.1495Y-3.349
X3.55Y-3.75
X3.9495Y-3.849
X4.3495Y-2.449
X4.8495Y-3.349
X2.5495Y-3.349
X3.9495Y-2.349
X5.3495Y-3.249
X4.9495Y-3.649
X2.9495Y-3.349
X3.0495Y-3.249
X5.0495Y-3.949
X4.9495Y-3.349
X4.8495Y-2.849
X4.4495Y-3.249
X2.7495Y-3.149
X4.5495Y-3.549
X4.3495Y-2.949
X3.4495Y-3.849
X4.0495Y-2.649
X4.2495Y-2.949
X4.0495Y-3.549
X3.5495Y-3.549
X2.6495Y-3.049
X2.9495Y-2.449
X5.1495Y-2.349
X5.5495Y-3.149
X4.0495Y-2.849
X4.7495Y-4.049
X2.55Y-3.85
X4.2495Y-3.849
X5.4495Y-2.649
X3.9495Y-3.249
X2.9495Y-4.049
X2.9495Y-2.749
X3.2495Y-2.349
X4.3495Y-2.549
X5.5495Y-3.549
X5.2495Y-3.149
X4.1495Y-3.049
X5.4495Y-2.749
X3.7495Y-3.149
X3.6495Y-3.249
X2.9495Y-2.849
X4.6495Y-3.549
X4.85Y-3.75
X4.1495Y-3.449
X4.2495Y-2.849
X2.6495Y-4.049
X3.45Y-3.75
X3.0495Y-2.649
X2.8495Y-3.449
X4.1495Y-3.349
X4.8495Y-3.049
X4.6495Y-2.849
X3.0495Y-2.449
X3.7495Y-2.549
X4.4495Y-2.649
X2.5495Y-3.149
X2.7495Y-3.649
X4.2495Y-3.949
X4.4495Y-3.449
X4.1495Y-3.649
X4.8495Y-3.849
X4.5495Y-2.549
X5.0495Y-2.849
X3.9495Y-3.149
X3.0495Y-3.349
X3.3495Y-3.449
X4.0495Y-3.349
X3.5495Y-4.049
X5.45Y-3.75
X5.3495Y-3.149
X5.0495Y-4.049
X2.8495Y-2.449
X2.7495Y-3.049
X5.3495Y-2.449
X4.9495Y-3.149
X4.2495Y-3.249
X4.3495Y-2.649
X3.9495Y-3.649
X3.6495Y-3.549
X3.2495Y-3.249
X5.15Y-3.75
X4.5495Y-3.449
X5.2495Y-3.049
X3.4495Y-3.049
X2.7495Y-2.649
X4.9495Y-2.649
X2.9495Y-2.949
X3.8495Y-2.349
X3.2495Y-2.549
X4.2495Y-3.349
X2.55Y-3.75
X3.6495Y-2.649
X3.0495Y-2.849
X2.7495Y-3.849
X2.55Y-2.55
X3.8495Y-2.549
X4.3495Y-3.249
X5.1495Y-3.649
X3.3495Y-2.949
X3.4495Y-3.949
X5.3495Y-2.549
X4.3495Y-3.049
X4.4495Y-4.049
X2.5495Y-3.549
X4.5495Y-3.849
X5.5495Y-2.449
X5.1495Y-3.049
X4.4495Y-3.349
X3.7495Y-3.349
X2.7495Y-3.949
X3.6495Y-2.749
X2.8495Y-4.049
X2.8495Y-2.549
X2.95Y-3.75
X5.3495Y-2.649
X4.15Y-3.75
X3.9495Y-2.949
X3.9495Y-2.649
X2.5495Y-3.049
X3.2495Y-3.449
X4.1495Y-4.049
X3.8495Y-2.449
X5.25Y-3.75
X3.1495Y-2.649
X2.7495Y-3.549
X3.1495Y-3.249
X4.3495Y-4.049
X5.4495Y-3.849
X5.4495Y-3.149
X4.6495Y-2.649
X5.3495Y-3.349
X3.8495Y-3.649
X2.5495Y-2.849
X3.6495Y-3.049
X3.2495Y-2.749
X3.7495Y-3.949
X4.5495Y-2.849
X3.4495Y-3.649
X3.3495Y-3.349
X3.1495Y-3.549
X5.5495Y-3.849
X3.0495Y-2.949
X5.2495Y-2.349
X4.5495Y-2.449
X3.7495Y-3.449
X3.6495Y-4.049
X2.8495Y-3.549
X3.8495Y-3.849
X5.5495Y-2.549
X5.5495Y-2.749
X4.2495Y-3.049
X4.8495Y-3.949
X5.2495Y-2.849
X3.8495Y-3.049
X3.5495Y-3.449
X4.0495Y-4.049
X3.0495Y-3.849
X5.4495Y-3.949
X3.7495Y-3.849
X5.4495Y-2.449
X3.1495Y-2.449
X3.7495Y-2.349
X4.8495Y-3.449
X4.6495Y-2.749
X5.35Y-3.75
X4.05Y-3.75
X3.5495Y-2.749
X3.25Y-3.75
X5.5495Y-3.949
X4.55Y-3.75
X4.8495Y-2.749
X4.8495Y-3.549
X5.0495Y-3.549
X3.3495Y-3.249
X3.8495Y-3.949
X4.7495Y-3.849
X5.3495Y-3.049
X3.4495Y-3.549
X3.0495Y-3.649
X5.5495Y-3.649
X4.3495Y-3.949
X2.6495Y-3.349
X2.8495Y-3.349
X4.9495Y-2.349
X3.7495Y-2.449
X5.4495Y-3.449
X3.9495Y-3.449
X2.6495Y-2.949
X2.6495Y-2.849
X2.6495Y-2.749
X3.4495Y-2.349
X5.4495Y-2.549
X5.5495Y-3.349
X4.45Y-3.75
X4.35Y-3.75
X3.9495Y-3.549
X3.3495Y-2.749
X4.5495Y-3.949
X4.9495Y-3.249
X4.2495Y-2.649
X5.1495Y-2.649
X2.8495Y-3.149
X3.5495Y-3.349
X2.6495Y-2.349
X4.2495Y-2.349
X4.5495Y-3.149
X5.3495Y-2.749
X2.65Y-3.75
X4.7495Y-3.049
X2.9495Y-3.549
X5.0495Y-3.449
X4.8495Y-3.249
X5.0495Y-3.349
X2.55Y-4.05
X5.3495Y-3.549
X5.4495Y-3.549
X3.5495Y-3.849
X4.9495Y-2.749
X5.1495Y-2.849
X3.7495Y-2.949
X3.8495Y-2.949
X4.5495Y-2.349
X5.5495Y-3.249
X3.7495Y-3.249
X5.3495Y-4.049
X4.1495Y-3.149
X5.3495Y-3.449
X4.0495Y-3.649
X3.0495Y-3.549
X2.85Y-3.75
X4.8495Y-2.349
X4.2495Y-2.449
X4.6495Y-2.949
X4.9495Y-2.949
X4.4495Y-3.049
X3.7495Y-3.549
X2.8495Y-3.649
X3.5495Y-3.649
X5.1495Y-3.349
X5.0495Y-2.649
X4.7495Y-2.649
X3.5495Y-3.149
X4.25Y-3.75
X2.9495Y-3.649
X3.1495Y-3.449
X3.5495Y-2.949
X3.4495Y-2.549
X3.1495Y-2.349
X3.1495Y-2.849
X4.0495Y-2.549
X4.75Y-3.75
X2.8495Y-2.849
X4.7495Y-3.949
X5.4495Y-3.349
X4.9495Y-3.449
X5.1495Y-4.049
X3.1495Y-2.549
X4.1495Y-3.849
X4.4495Y-2.549
X4.7495Y-2.849
X3.75Y-3.75
X3.15Y-3.75
X3.3495Y-3.649
X3.0495Y-3.949
X2.7495Y-2.849
X4.9495Y-3.849
X3.8495Y-2.849
X3.2495Y-2.949
X3.2495Y-4.049
X4.1495Y-2.549
X3.4495Y-2.849
X5.4495Y-4.049
X2.7495Y-3.249
X3.1495Y-3.649
X4.9495Y-3.949
X5.2495Y-3.849
X3.4495Y-2.449
X4.8495Y-2.649
X4.2495Y-2.749
X5.0495Y-3.649
X4.0495Y-3.449
X3.1495Y-3.949
X3.4495Y-3.149
X3.2495Y-3.049
X2.6495Y-3.849
X3.05Y-3.75
X5.1495Y-3.449
X5.3495Y-2.949
X3.4495Y-2.749
X4.8495Y-2.949
X2.7495Y-3.449
X2.5495Y-2.749
X3.6495Y-2.349
X4.1495Y-2.449
X4.8495Y-2.549
X4.5495Y-2.749
X3.7495Y-2.849
X3.9495Y-4.049
X3.6495Y-2.549
X5.5495Y-2.949
X4.7495Y-3.349
X2.9495Y-3.049
T3
X2.0555Y-2.5921
X2.0555Y-2.6921
X2.0555Y-2.7921
X2.0555Y-2.8921
X2.0555Y-2.9921
X2.1555Y-2.5921
X2.1555Y-2.6921
X2.1555Y-2.7921
X2.1555Y-2.8921
X2.1555Y-2.9921
T4
X2.2343Y-3.3122
X2.2343Y-3.6122
X1.9783Y-3.3122
X1.9783Y-3.6122
T0
M30
