G04 #@! TF.GenerationSoftware,KiCad,Pcbnew,5.1.10-88a1d61d58~90~ubuntu20.04.1*
G04 #@! TF.CreationDate,2021-08-07T14:05:23-04:00*
G04 #@! TF.ProjectId,kosmo_proto,6b6f736d-6f5f-4707-926f-746f2e6b6963,rev?*
G04 #@! TF.SameCoordinates,Original*
G04 #@! TF.FileFunction,Legend,Bot*
G04 #@! TF.FilePolarity,Positive*
%FSLAX46Y46*%
G04 Gerber Fmt 4.6, Leading zero omitted, Abs format (unit mm)*
G04 Created by KiCad (PCBNEW 5.1.10-88a1d61d58~90~ubuntu20.04.1) date 2021-08-07 14:05:23*
%MOMM*%
%LPD*%
G01*
G04 APERTURE LIST*
%ADD10C,0.150000*%
%ADD11C,0.300000*%
%ADD12C,0.120000*%
%ADD13C,0.010000*%
G04 APERTURE END LIST*
D10*
X108591904Y-106497380D02*
X108925238Y-106021190D01*
X109163333Y-106497380D02*
X109163333Y-105497380D01*
X108782380Y-105497380D01*
X108687142Y-105545000D01*
X108639523Y-105592619D01*
X108591904Y-105687857D01*
X108591904Y-105830714D01*
X108639523Y-105925952D01*
X108687142Y-105973571D01*
X108782380Y-106021190D01*
X109163333Y-106021190D01*
X108163333Y-106497380D02*
X108163333Y-105830714D01*
X108163333Y-105497380D02*
X108210952Y-105545000D01*
X108163333Y-105592619D01*
X108115714Y-105545000D01*
X108163333Y-105497380D01*
X108163333Y-105592619D01*
X107258571Y-106449761D02*
X107353809Y-106497380D01*
X107544285Y-106497380D01*
X107639523Y-106449761D01*
X107687142Y-106402142D01*
X107734761Y-106306904D01*
X107734761Y-106021190D01*
X107687142Y-105925952D01*
X107639523Y-105878333D01*
X107544285Y-105830714D01*
X107353809Y-105830714D01*
X107258571Y-105878333D01*
X106830000Y-106497380D02*
X106830000Y-105497380D01*
X106401428Y-106497380D02*
X106401428Y-105973571D01*
X106449047Y-105878333D01*
X106544285Y-105830714D01*
X106687142Y-105830714D01*
X106782380Y-105878333D01*
X106830000Y-105925952D01*
X105163333Y-106497380D02*
X105163333Y-105497380D01*
X105163333Y-105973571D02*
X104591904Y-105973571D01*
X104591904Y-106497380D02*
X104591904Y-105497380D01*
X103972857Y-106497380D02*
X104068095Y-106449761D01*
X104115714Y-106402142D01*
X104163333Y-106306904D01*
X104163333Y-106021190D01*
X104115714Y-105925952D01*
X104068095Y-105878333D01*
X103972857Y-105830714D01*
X103830000Y-105830714D01*
X103734761Y-105878333D01*
X103687142Y-105925952D01*
X103639523Y-106021190D01*
X103639523Y-106306904D01*
X103687142Y-106402142D01*
X103734761Y-106449761D01*
X103830000Y-106497380D01*
X103972857Y-106497380D01*
X103068095Y-106497380D02*
X103163333Y-106449761D01*
X103210952Y-106354523D01*
X103210952Y-105497380D01*
X102687142Y-106497380D02*
X102687142Y-105830714D01*
X102687142Y-105925952D02*
X102639523Y-105878333D01*
X102544285Y-105830714D01*
X102401428Y-105830714D01*
X102306190Y-105878333D01*
X102258571Y-105973571D01*
X102258571Y-106497380D01*
X102258571Y-105973571D02*
X102210952Y-105878333D01*
X102115714Y-105830714D01*
X101972857Y-105830714D01*
X101877619Y-105878333D01*
X101830000Y-105973571D01*
X101830000Y-106497380D01*
X100972857Y-106449761D02*
X101068095Y-106497380D01*
X101258571Y-106497380D01*
X101353809Y-106449761D01*
X101401428Y-106354523D01*
X101401428Y-105973571D01*
X101353809Y-105878333D01*
X101258571Y-105830714D01*
X101068095Y-105830714D01*
X100972857Y-105878333D01*
X100925238Y-105973571D01*
X100925238Y-106068809D01*
X101401428Y-106164047D01*
X100544285Y-106449761D02*
X100449047Y-106497380D01*
X100258571Y-106497380D01*
X100163333Y-106449761D01*
X100115714Y-106354523D01*
X100115714Y-106306904D01*
X100163333Y-106211666D01*
X100258571Y-106164047D01*
X100401428Y-106164047D01*
X100496666Y-106116428D01*
X100544285Y-106021190D01*
X100544285Y-105973571D01*
X100496666Y-105878333D01*
X100401428Y-105830714D01*
X100258571Y-105830714D01*
X100163333Y-105878333D01*
X98210952Y-105449761D02*
X99068095Y-106735476D01*
X96544285Y-106402142D02*
X96591904Y-106449761D01*
X96734761Y-106497380D01*
X96830000Y-106497380D01*
X96972857Y-106449761D01*
X97068095Y-106354523D01*
X97115714Y-106259285D01*
X97163333Y-106068809D01*
X97163333Y-105925952D01*
X97115714Y-105735476D01*
X97068095Y-105640238D01*
X96972857Y-105545000D01*
X96830000Y-105497380D01*
X96734761Y-105497380D01*
X96591904Y-105545000D01*
X96544285Y-105592619D01*
X95544285Y-106402142D02*
X95591904Y-106449761D01*
X95734761Y-106497380D01*
X95830000Y-106497380D01*
X95972857Y-106449761D01*
X96068095Y-106354523D01*
X96115714Y-106259285D01*
X96163333Y-106068809D01*
X96163333Y-105925952D01*
X96115714Y-105735476D01*
X96068095Y-105640238D01*
X95972857Y-105545000D01*
X95830000Y-105497380D01*
X95734761Y-105497380D01*
X95591904Y-105545000D01*
X95544285Y-105592619D01*
X94925238Y-105497380D02*
X94830000Y-105497380D01*
X94734761Y-105545000D01*
X94687142Y-105592619D01*
X94639523Y-105687857D01*
X94591904Y-105878333D01*
X94591904Y-106116428D01*
X94639523Y-106306904D01*
X94687142Y-106402142D01*
X94734761Y-106449761D01*
X94830000Y-106497380D01*
X94925238Y-106497380D01*
X95020476Y-106449761D01*
X95068095Y-106402142D01*
X95115714Y-106306904D01*
X95163333Y-106116428D01*
X95163333Y-105878333D01*
X95115714Y-105687857D01*
X95068095Y-105592619D01*
X95020476Y-105545000D01*
X94925238Y-105497380D01*
X92877619Y-106497380D02*
X93449047Y-106497380D01*
X93163333Y-106497380D02*
X93163333Y-105497380D01*
X93258571Y-105640238D01*
X93353809Y-105735476D01*
X93449047Y-105783095D01*
X92449047Y-106402142D02*
X92401428Y-106449761D01*
X92449047Y-106497380D01*
X92496666Y-106449761D01*
X92449047Y-106402142D01*
X92449047Y-106497380D01*
X91782380Y-105497380D02*
X91687142Y-105497380D01*
X91591904Y-105545000D01*
X91544285Y-105592619D01*
X91496666Y-105687857D01*
X91449047Y-105878333D01*
X91449047Y-106116428D01*
X91496666Y-106306904D01*
X91544285Y-106402142D01*
X91591904Y-106449761D01*
X91687142Y-106497380D01*
X91782380Y-106497380D01*
X91877619Y-106449761D01*
X91925238Y-106402142D01*
X91972857Y-106306904D01*
X92020476Y-106116428D01*
X92020476Y-105878333D01*
X91972857Y-105687857D01*
X91925238Y-105592619D01*
X91877619Y-105545000D01*
X91782380Y-105497380D01*
D11*
X115647142Y-55737142D02*
X114980476Y-55737142D01*
X114694761Y-56784761D02*
X115647142Y-56784761D01*
X115647142Y-54784761D01*
X114694761Y-54784761D01*
X112980476Y-55451428D02*
X112980476Y-56784761D01*
X113837619Y-55451428D02*
X113837619Y-56499047D01*
X113742380Y-56689523D01*
X113551904Y-56784761D01*
X113266190Y-56784761D01*
X113075714Y-56689523D01*
X112980476Y-56594285D01*
X112028095Y-56784761D02*
X112028095Y-55451428D01*
X112028095Y-55832380D02*
X111932857Y-55641904D01*
X111837619Y-55546666D01*
X111647142Y-55451428D01*
X111456666Y-55451428D01*
X110504285Y-56784761D02*
X110694761Y-56689523D01*
X110790000Y-56594285D01*
X110885238Y-56403809D01*
X110885238Y-55832380D01*
X110790000Y-55641904D01*
X110694761Y-55546666D01*
X110504285Y-55451428D01*
X110218571Y-55451428D01*
X110028095Y-55546666D01*
X109932857Y-55641904D01*
X109837619Y-55832380D01*
X109837619Y-56403809D01*
X109932857Y-56594285D01*
X110028095Y-56689523D01*
X110218571Y-56784761D01*
X110504285Y-56784761D01*
X107551904Y-54689523D02*
X109266190Y-57260952D01*
X106885238Y-56784761D02*
X106885238Y-54784761D01*
X105742380Y-56784761D02*
X106599523Y-55641904D01*
X105742380Y-54784761D02*
X106885238Y-55927619D01*
X104599523Y-56784761D02*
X104790000Y-56689523D01*
X104885238Y-56594285D01*
X104980476Y-56403809D01*
X104980476Y-55832380D01*
X104885238Y-55641904D01*
X104790000Y-55546666D01*
X104599523Y-55451428D01*
X104313809Y-55451428D01*
X104123333Y-55546666D01*
X104028095Y-55641904D01*
X103932857Y-55832380D01*
X103932857Y-56403809D01*
X104028095Y-56594285D01*
X104123333Y-56689523D01*
X104313809Y-56784761D01*
X104599523Y-56784761D01*
X103170952Y-56689523D02*
X102980476Y-56784761D01*
X102599523Y-56784761D01*
X102409047Y-56689523D01*
X102313809Y-56499047D01*
X102313809Y-56403809D01*
X102409047Y-56213333D01*
X102599523Y-56118095D01*
X102885238Y-56118095D01*
X103075714Y-56022857D01*
X103170952Y-55832380D01*
X103170952Y-55737142D01*
X103075714Y-55546666D01*
X102885238Y-55451428D01*
X102599523Y-55451428D01*
X102409047Y-55546666D01*
X101456666Y-56784761D02*
X101456666Y-55451428D01*
X101456666Y-55641904D02*
X101361428Y-55546666D01*
X101170952Y-55451428D01*
X100885238Y-55451428D01*
X100694761Y-55546666D01*
X100599523Y-55737142D01*
X100599523Y-56784761D01*
X100599523Y-55737142D02*
X100504285Y-55546666D01*
X100313809Y-55451428D01*
X100028095Y-55451428D01*
X99837619Y-55546666D01*
X99742380Y-55737142D01*
X99742380Y-56784761D01*
X98504285Y-56784761D02*
X98694761Y-56689523D01*
X98790000Y-56594285D01*
X98885238Y-56403809D01*
X98885238Y-55832380D01*
X98790000Y-55641904D01*
X98694761Y-55546666D01*
X98504285Y-55451428D01*
X98218571Y-55451428D01*
X98028095Y-55546666D01*
X97932857Y-55641904D01*
X97837619Y-55832380D01*
X97837619Y-56403809D01*
X97932857Y-56594285D01*
X98028095Y-56689523D01*
X98218571Y-56784761D01*
X98504285Y-56784761D01*
X95456666Y-56784761D02*
X95456666Y-54784761D01*
X94694761Y-54784761D01*
X94504285Y-54880000D01*
X94409047Y-54975238D01*
X94313809Y-55165714D01*
X94313809Y-55451428D01*
X94409047Y-55641904D01*
X94504285Y-55737142D01*
X94694761Y-55832380D01*
X95456666Y-55832380D01*
X93456666Y-56784761D02*
X93456666Y-55451428D01*
X93456666Y-55832380D02*
X93361428Y-55641904D01*
X93266190Y-55546666D01*
X93075714Y-55451428D01*
X92885238Y-55451428D01*
X91932857Y-56784761D02*
X92123333Y-56689523D01*
X92218571Y-56594285D01*
X92313809Y-56403809D01*
X92313809Y-55832380D01*
X92218571Y-55641904D01*
X92123333Y-55546666D01*
X91932857Y-55451428D01*
X91647142Y-55451428D01*
X91456666Y-55546666D01*
X91361428Y-55641904D01*
X91266190Y-55832380D01*
X91266190Y-56403809D01*
X91361428Y-56594285D01*
X91456666Y-56689523D01*
X91647142Y-56784761D01*
X91932857Y-56784761D01*
X90694761Y-55451428D02*
X89932857Y-55451428D01*
X90409047Y-54784761D02*
X90409047Y-56499047D01*
X90313809Y-56689523D01*
X90123333Y-56784761D01*
X89932857Y-56784761D01*
X88980476Y-56784761D02*
X89170952Y-56689523D01*
X89266190Y-56594285D01*
X89361428Y-56403809D01*
X89361428Y-55832380D01*
X89266190Y-55641904D01*
X89170952Y-55546666D01*
X88980476Y-55451428D01*
X88694761Y-55451428D01*
X88504285Y-55546666D01*
X88409047Y-55641904D01*
X88313809Y-55832380D01*
X88313809Y-56403809D01*
X88409047Y-56594285D01*
X88504285Y-56689523D01*
X88694761Y-56784761D01*
X88980476Y-56784761D01*
X87456666Y-56784761D02*
X87456666Y-54784761D01*
X87456666Y-55546666D02*
X87266190Y-55451428D01*
X86885238Y-55451428D01*
X86694761Y-55546666D01*
X86599523Y-55641904D01*
X86504285Y-55832380D01*
X86504285Y-56403809D01*
X86599523Y-56594285D01*
X86694761Y-56689523D01*
X86885238Y-56784761D01*
X87266190Y-56784761D01*
X87456666Y-56689523D01*
X85361428Y-56784761D02*
X85551904Y-56689523D01*
X85647142Y-56594285D01*
X85742380Y-56403809D01*
X85742380Y-55832380D01*
X85647142Y-55641904D01*
X85551904Y-55546666D01*
X85361428Y-55451428D01*
X85075714Y-55451428D01*
X84885238Y-55546666D01*
X84790000Y-55641904D01*
X84694761Y-55832380D01*
X84694761Y-56403809D01*
X84790000Y-56594285D01*
X84885238Y-56689523D01*
X85075714Y-56784761D01*
X85361428Y-56784761D01*
X82980476Y-56784761D02*
X82980476Y-55737142D01*
X83075714Y-55546666D01*
X83266190Y-55451428D01*
X83647142Y-55451428D01*
X83837619Y-55546666D01*
X82980476Y-56689523D02*
X83170952Y-56784761D01*
X83647142Y-56784761D01*
X83837619Y-56689523D01*
X83932857Y-56499047D01*
X83932857Y-56308571D01*
X83837619Y-56118095D01*
X83647142Y-56022857D01*
X83170952Y-56022857D01*
X82980476Y-55927619D01*
X82028095Y-56784761D02*
X82028095Y-55451428D01*
X82028095Y-55832380D02*
X81932857Y-55641904D01*
X81837619Y-55546666D01*
X81647142Y-55451428D01*
X81456666Y-55451428D01*
X79932857Y-56784761D02*
X79932857Y-54784761D01*
X79932857Y-56689523D02*
X80123333Y-56784761D01*
X80504285Y-56784761D01*
X80694761Y-56689523D01*
X80790000Y-56594285D01*
X80885238Y-56403809D01*
X80885238Y-55832380D01*
X80790000Y-55641904D01*
X80694761Y-55546666D01*
X80504285Y-55451428D01*
X80123333Y-55451428D01*
X79932857Y-55546666D01*
D10*
X152647619Y-77380952D02*
X152647619Y-76904761D01*
X152171428Y-76857142D01*
X152219047Y-76904761D01*
X152266666Y-77000000D01*
X152266666Y-77238095D01*
X152219047Y-77333333D01*
X152171428Y-77380952D01*
X152076190Y-77428571D01*
X151838095Y-77428571D01*
X151742857Y-77380952D01*
X151695238Y-77333333D01*
X151647619Y-77238095D01*
X151647619Y-77000000D01*
X151695238Y-76904761D01*
X151742857Y-76857142D01*
X152647619Y-78333333D02*
X152647619Y-77857142D01*
X152171428Y-77809523D01*
X152219047Y-77857142D01*
X152266666Y-77952380D01*
X152266666Y-78190476D01*
X152219047Y-78285714D01*
X152171428Y-78333333D01*
X152076190Y-78380952D01*
X151838095Y-78380952D01*
X151742857Y-78333333D01*
X151695238Y-78285714D01*
X151647619Y-78190476D01*
X151647619Y-77952380D01*
X151695238Y-77857142D01*
X151742857Y-77809523D01*
X151742857Y-78809523D02*
X151695238Y-78857142D01*
X151647619Y-78809523D01*
X151695238Y-78761904D01*
X151742857Y-78809523D01*
X151647619Y-78809523D01*
X152647619Y-79476190D02*
X152647619Y-79571428D01*
X152600000Y-79666666D01*
X152552380Y-79714285D01*
X152457142Y-79761904D01*
X152266666Y-79809523D01*
X152028571Y-79809523D01*
X151838095Y-79761904D01*
X151742857Y-79714285D01*
X151695238Y-79666666D01*
X151647619Y-79571428D01*
X151647619Y-79476190D01*
X151695238Y-79380952D01*
X151742857Y-79333333D01*
X151838095Y-79285714D01*
X152028571Y-79238095D01*
X152266666Y-79238095D01*
X152457142Y-79285714D01*
X152552380Y-79333333D01*
X152600000Y-79380952D01*
X152647619Y-79476190D01*
X152647619Y-80428571D02*
X152647619Y-80523809D01*
X152600000Y-80619047D01*
X152552380Y-80666666D01*
X152457142Y-80714285D01*
X152266666Y-80761904D01*
X152028571Y-80761904D01*
X151838095Y-80714285D01*
X151742857Y-80666666D01*
X151695238Y-80619047D01*
X151647619Y-80523809D01*
X151647619Y-80428571D01*
X151695238Y-80333333D01*
X151742857Y-80285714D01*
X151838095Y-80238095D01*
X152028571Y-80190476D01*
X152266666Y-80190476D01*
X152457142Y-80238095D01*
X152552380Y-80285714D01*
X152600000Y-80333333D01*
X152647619Y-80428571D01*
X152647619Y-81380952D02*
X152647619Y-81476190D01*
X152600000Y-81571428D01*
X152552380Y-81619047D01*
X152457142Y-81666666D01*
X152266666Y-81714285D01*
X152028571Y-81714285D01*
X151838095Y-81666666D01*
X151742857Y-81619047D01*
X151695238Y-81571428D01*
X151647619Y-81476190D01*
X151647619Y-81380952D01*
X151695238Y-81285714D01*
X151742857Y-81238095D01*
X151838095Y-81190476D01*
X152028571Y-81142857D01*
X152266666Y-81142857D01*
X152457142Y-81190476D01*
X152552380Y-81238095D01*
X152600000Y-81285714D01*
X152647619Y-81380952D01*
X151647619Y-82904761D02*
X152314285Y-82904761D01*
X152219047Y-82904761D02*
X152266666Y-82952380D01*
X152314285Y-83047619D01*
X152314285Y-83190476D01*
X152266666Y-83285714D01*
X152171428Y-83333333D01*
X151647619Y-83333333D01*
X152171428Y-83333333D02*
X152266666Y-83380952D01*
X152314285Y-83476190D01*
X152314285Y-83619047D01*
X152266666Y-83714285D01*
X152171428Y-83761904D01*
X151647619Y-83761904D01*
X151647619Y-84238095D02*
X152314285Y-84238095D01*
X152219047Y-84238095D02*
X152266666Y-84285714D01*
X152314285Y-84380952D01*
X152314285Y-84523809D01*
X152266666Y-84619047D01*
X152171428Y-84666666D01*
X151647619Y-84666666D01*
X152171428Y-84666666D02*
X152266666Y-84714285D01*
X152314285Y-84809523D01*
X152314285Y-84952380D01*
X152266666Y-85047619D01*
X152171428Y-85095238D01*
X151647619Y-85095238D01*
D12*
X150830000Y-53500000D02*
X150830000Y-108500000D01*
X145750000Y-53500000D02*
X151416421Y-53500000D01*
X145750000Y-108500000D02*
X151416421Y-108500000D01*
X150830000Y-108500000D02*
X150243579Y-107373496D01*
X150830000Y-108500000D02*
X151416421Y-107373496D01*
X150830000Y-53500000D02*
X150243579Y-54626504D01*
X150830000Y-53500000D02*
X151416421Y-54626504D01*
D10*
X91702380Y-47602380D02*
X91130952Y-47602380D01*
X91416666Y-47602380D02*
X91416666Y-46602380D01*
X91321428Y-46745238D01*
X91226190Y-46840476D01*
X91130952Y-46888095D01*
X92321428Y-46602380D02*
X92416666Y-46602380D01*
X92511904Y-46650000D01*
X92559523Y-46697619D01*
X92607142Y-46792857D01*
X92654761Y-46983333D01*
X92654761Y-47221428D01*
X92607142Y-47411904D01*
X92559523Y-47507142D01*
X92511904Y-47554761D01*
X92416666Y-47602380D01*
X92321428Y-47602380D01*
X92226190Y-47554761D01*
X92178571Y-47507142D01*
X92130952Y-47411904D01*
X92083333Y-47221428D01*
X92083333Y-46983333D01*
X92130952Y-46792857D01*
X92178571Y-46697619D01*
X92226190Y-46650000D01*
X92321428Y-46602380D01*
X93273809Y-46602380D02*
X93369047Y-46602380D01*
X93464285Y-46650000D01*
X93511904Y-46697619D01*
X93559523Y-46792857D01*
X93607142Y-46983333D01*
X93607142Y-47221428D01*
X93559523Y-47411904D01*
X93511904Y-47507142D01*
X93464285Y-47554761D01*
X93369047Y-47602380D01*
X93273809Y-47602380D01*
X93178571Y-47554761D01*
X93130952Y-47507142D01*
X93083333Y-47411904D01*
X93035714Y-47221428D01*
X93035714Y-46983333D01*
X93083333Y-46792857D01*
X93130952Y-46697619D01*
X93178571Y-46650000D01*
X93273809Y-46602380D01*
X94035714Y-47507142D02*
X94083333Y-47554761D01*
X94035714Y-47602380D01*
X93988095Y-47554761D01*
X94035714Y-47507142D01*
X94035714Y-47602380D01*
X94702380Y-46602380D02*
X94797619Y-46602380D01*
X94892857Y-46650000D01*
X94940476Y-46697619D01*
X94988095Y-46792857D01*
X95035714Y-46983333D01*
X95035714Y-47221428D01*
X94988095Y-47411904D01*
X94940476Y-47507142D01*
X94892857Y-47554761D01*
X94797619Y-47602380D01*
X94702380Y-47602380D01*
X94607142Y-47554761D01*
X94559523Y-47507142D01*
X94511904Y-47411904D01*
X94464285Y-47221428D01*
X94464285Y-46983333D01*
X94511904Y-46792857D01*
X94559523Y-46697619D01*
X94607142Y-46650000D01*
X94702380Y-46602380D01*
X95654761Y-46602380D02*
X95750000Y-46602380D01*
X95845238Y-46650000D01*
X95892857Y-46697619D01*
X95940476Y-46792857D01*
X95988095Y-46983333D01*
X95988095Y-47221428D01*
X95940476Y-47411904D01*
X95892857Y-47507142D01*
X95845238Y-47554761D01*
X95750000Y-47602380D01*
X95654761Y-47602380D01*
X95559523Y-47554761D01*
X95511904Y-47507142D01*
X95464285Y-47411904D01*
X95416666Y-47221428D01*
X95416666Y-46983333D01*
X95464285Y-46792857D01*
X95511904Y-46697619D01*
X95559523Y-46650000D01*
X95654761Y-46602380D01*
X96607142Y-46602380D02*
X96702380Y-46602380D01*
X96797619Y-46650000D01*
X96845238Y-46697619D01*
X96892857Y-46792857D01*
X96940476Y-46983333D01*
X96940476Y-47221428D01*
X96892857Y-47411904D01*
X96845238Y-47507142D01*
X96797619Y-47554761D01*
X96702380Y-47602380D01*
X96607142Y-47602380D01*
X96511904Y-47554761D01*
X96464285Y-47507142D01*
X96416666Y-47411904D01*
X96369047Y-47221428D01*
X96369047Y-46983333D01*
X96416666Y-46792857D01*
X96464285Y-46697619D01*
X96511904Y-46650000D01*
X96607142Y-46602380D01*
X98130952Y-47602380D02*
X98130952Y-46935714D01*
X98130952Y-47030952D02*
X98178571Y-46983333D01*
X98273809Y-46935714D01*
X98416666Y-46935714D01*
X98511904Y-46983333D01*
X98559523Y-47078571D01*
X98559523Y-47602380D01*
X98559523Y-47078571D02*
X98607142Y-46983333D01*
X98702380Y-46935714D01*
X98845238Y-46935714D01*
X98940476Y-46983333D01*
X98988095Y-47078571D01*
X98988095Y-47602380D01*
X99464285Y-47602380D02*
X99464285Y-46935714D01*
X99464285Y-47030952D02*
X99511904Y-46983333D01*
X99607142Y-46935714D01*
X99750000Y-46935714D01*
X99845238Y-46983333D01*
X99892857Y-47078571D01*
X99892857Y-47602380D01*
X99892857Y-47078571D02*
X99940476Y-46983333D01*
X100035714Y-46935714D01*
X100178571Y-46935714D01*
X100273809Y-46983333D01*
X100321428Y-47078571D01*
X100321428Y-47602380D01*
D12*
X45750000Y-48420000D02*
X145750000Y-48420000D01*
X45750000Y-53500000D02*
X45750000Y-47833579D01*
X145750000Y-53500000D02*
X145750000Y-47833579D01*
X145750000Y-48420000D02*
X144623496Y-49006421D01*
X145750000Y-48420000D02*
X144623496Y-47833579D01*
X45750000Y-48420000D02*
X46876504Y-49006421D01*
X45750000Y-48420000D02*
X46876504Y-47833579D01*
D13*
G36*
X86512773Y-105481931D02*
G01*
X86470769Y-105486934D01*
X86433025Y-105498478D01*
X86394716Y-105515825D01*
X86319993Y-105565297D01*
X86260026Y-105633531D01*
X86214302Y-105721398D01*
X86182307Y-105829774D01*
X86170471Y-105897751D01*
X86159874Y-105997665D01*
X86158714Y-106086263D01*
X86167165Y-106175882D01*
X86175157Y-106225525D01*
X86204291Y-106338776D01*
X86247638Y-106433824D01*
X86304331Y-106509322D01*
X86373501Y-106563925D01*
X86403315Y-106579108D01*
X86463862Y-106597679D01*
X86536880Y-106608302D01*
X86610364Y-106609829D01*
X86661034Y-106603808D01*
X86709990Y-106590858D01*
X86750027Y-106572212D01*
X86790911Y-106542565D01*
X86819311Y-106517832D01*
X86877912Y-106449466D01*
X86922025Y-106362902D01*
X86928904Y-106338601D01*
X86664800Y-106338601D01*
X86653938Y-106369175D01*
X86625545Y-106389928D01*
X86585910Y-106399855D01*
X86541323Y-106397952D01*
X86498072Y-106383217D01*
X86476409Y-106368675D01*
X86449015Y-106336715D01*
X86424767Y-106293891D01*
X86417849Y-106276600D01*
X86405329Y-106225195D01*
X86395813Y-106157683D01*
X86389929Y-106083248D01*
X86388304Y-106011071D01*
X86391566Y-105950335D01*
X86394280Y-105931828D01*
X86404768Y-105875806D01*
X86534784Y-106099429D01*
X86574177Y-106167917D01*
X86608773Y-106229468D01*
X86636645Y-106280539D01*
X86655866Y-106317584D01*
X86664509Y-106337058D01*
X86664800Y-106338601D01*
X86928904Y-106338601D01*
X86951944Y-106257214D01*
X86967962Y-106131477D01*
X86970123Y-106067739D01*
X86744795Y-106067739D01*
X86743520Y-106107215D01*
X86742209Y-106137082D01*
X86740422Y-106158238D01*
X86736626Y-106168919D01*
X86729288Y-106167365D01*
X86716873Y-106151815D01*
X86697849Y-106120506D01*
X86670681Y-106071679D01*
X86633835Y-106003571D01*
X86602299Y-105945028D01*
X86563909Y-105873152D01*
X86536593Y-105819876D01*
X86518926Y-105781689D01*
X86509482Y-105755078D01*
X86506835Y-105736532D01*
X86509561Y-105722540D01*
X86510795Y-105719603D01*
X86534153Y-105696078D01*
X86571913Y-105689219D01*
X86618967Y-105699429D01*
X86641144Y-105709351D01*
X86678260Y-105742188D01*
X86707830Y-105796958D01*
X86729207Y-105871148D01*
X86741744Y-105962246D01*
X86744795Y-106067739D01*
X86970123Y-106067739D01*
X86971055Y-106040275D01*
X86963953Y-105901791D01*
X86941469Y-105783140D01*
X86903439Y-105683820D01*
X86849700Y-105603329D01*
X86818470Y-105571407D01*
X86762906Y-105527979D01*
X86706688Y-105500457D01*
X86641632Y-105485882D01*
X86569550Y-105481401D01*
X86512773Y-105481931D01*
G37*
X86512773Y-105481931D02*
X86470769Y-105486934D01*
X86433025Y-105498478D01*
X86394716Y-105515825D01*
X86319993Y-105565297D01*
X86260026Y-105633531D01*
X86214302Y-105721398D01*
X86182307Y-105829774D01*
X86170471Y-105897751D01*
X86159874Y-105997665D01*
X86158714Y-106086263D01*
X86167165Y-106175882D01*
X86175157Y-106225525D01*
X86204291Y-106338776D01*
X86247638Y-106433824D01*
X86304331Y-106509322D01*
X86373501Y-106563925D01*
X86403315Y-106579108D01*
X86463862Y-106597679D01*
X86536880Y-106608302D01*
X86610364Y-106609829D01*
X86661034Y-106603808D01*
X86709990Y-106590858D01*
X86750027Y-106572212D01*
X86790911Y-106542565D01*
X86819311Y-106517832D01*
X86877912Y-106449466D01*
X86922025Y-106362902D01*
X86928904Y-106338601D01*
X86664800Y-106338601D01*
X86653938Y-106369175D01*
X86625545Y-106389928D01*
X86585910Y-106399855D01*
X86541323Y-106397952D01*
X86498072Y-106383217D01*
X86476409Y-106368675D01*
X86449015Y-106336715D01*
X86424767Y-106293891D01*
X86417849Y-106276600D01*
X86405329Y-106225195D01*
X86395813Y-106157683D01*
X86389929Y-106083248D01*
X86388304Y-106011071D01*
X86391566Y-105950335D01*
X86394280Y-105931828D01*
X86404768Y-105875806D01*
X86534784Y-106099429D01*
X86574177Y-106167917D01*
X86608773Y-106229468D01*
X86636645Y-106280539D01*
X86655866Y-106317584D01*
X86664509Y-106337058D01*
X86664800Y-106338601D01*
X86928904Y-106338601D01*
X86951944Y-106257214D01*
X86967962Y-106131477D01*
X86970123Y-106067739D01*
X86744795Y-106067739D01*
X86743520Y-106107215D01*
X86742209Y-106137082D01*
X86740422Y-106158238D01*
X86736626Y-106168919D01*
X86729288Y-106167365D01*
X86716873Y-106151815D01*
X86697849Y-106120506D01*
X86670681Y-106071679D01*
X86633835Y-106003571D01*
X86602299Y-105945028D01*
X86563909Y-105873152D01*
X86536593Y-105819876D01*
X86518926Y-105781689D01*
X86509482Y-105755078D01*
X86506835Y-105736532D01*
X86509561Y-105722540D01*
X86510795Y-105719603D01*
X86534153Y-105696078D01*
X86571913Y-105689219D01*
X86618967Y-105699429D01*
X86641144Y-105709351D01*
X86678260Y-105742188D01*
X86707830Y-105796958D01*
X86729207Y-105871148D01*
X86741744Y-105962246D01*
X86744795Y-106067739D01*
X86970123Y-106067739D01*
X86971055Y-106040275D01*
X86963953Y-105901791D01*
X86941469Y-105783140D01*
X86903439Y-105683820D01*
X86849700Y-105603329D01*
X86818470Y-105571407D01*
X86762906Y-105527979D01*
X86706688Y-105500457D01*
X86641632Y-105485882D01*
X86569550Y-105481401D01*
X86512773Y-105481931D01*
G36*
X88286656Y-105753766D02*
G01*
X88220446Y-105779780D01*
X88166870Y-105817962D01*
X88136712Y-105857068D01*
X88133898Y-105872345D01*
X88145896Y-105888071D01*
X88176558Y-105908818D01*
X88184053Y-105913260D01*
X88219393Y-105932589D01*
X88240197Y-105939044D01*
X88252935Y-105934032D01*
X88257200Y-105929159D01*
X88288891Y-105898773D01*
X88328044Y-105875905D01*
X88362479Y-105867200D01*
X88415360Y-105878297D01*
X88455702Y-105910362D01*
X88482142Y-105961551D01*
X88493316Y-106030023D01*
X88493600Y-106044375D01*
X88485117Y-106112938D01*
X88461803Y-106166678D01*
X88426860Y-106203597D01*
X88383489Y-106221699D01*
X88334894Y-106218987D01*
X88284276Y-106193464D01*
X88271331Y-106182979D01*
X88225978Y-106143158D01*
X88175639Y-106165858D01*
X88144859Y-106182995D01*
X88127059Y-106199212D01*
X88125300Y-106204061D01*
X88135288Y-106224577D01*
X88161112Y-106252609D01*
X88196566Y-106283056D01*
X88235442Y-106310816D01*
X88271533Y-106330785D01*
X88285896Y-106336065D01*
X88376472Y-106349520D01*
X88462229Y-106338109D01*
X88516420Y-106316957D01*
X88583689Y-106269991D01*
X88632873Y-106206324D01*
X88662549Y-106128424D01*
X88671400Y-106048051D01*
X88660331Y-105962766D01*
X88628988Y-105885248D01*
X88580171Y-105820151D01*
X88516677Y-105772128D01*
X88500659Y-105764153D01*
X88432807Y-105744409D01*
X88359458Y-105741461D01*
X88286656Y-105753766D01*
G37*
X88286656Y-105753766D02*
X88220446Y-105779780D01*
X88166870Y-105817962D01*
X88136712Y-105857068D01*
X88133898Y-105872345D01*
X88145896Y-105888071D01*
X88176558Y-105908818D01*
X88184053Y-105913260D01*
X88219393Y-105932589D01*
X88240197Y-105939044D01*
X88252935Y-105934032D01*
X88257200Y-105929159D01*
X88288891Y-105898773D01*
X88328044Y-105875905D01*
X88362479Y-105867200D01*
X88415360Y-105878297D01*
X88455702Y-105910362D01*
X88482142Y-105961551D01*
X88493316Y-106030023D01*
X88493600Y-106044375D01*
X88485117Y-106112938D01*
X88461803Y-106166678D01*
X88426860Y-106203597D01*
X88383489Y-106221699D01*
X88334894Y-106218987D01*
X88284276Y-106193464D01*
X88271331Y-106182979D01*
X88225978Y-106143158D01*
X88175639Y-106165858D01*
X88144859Y-106182995D01*
X88127059Y-106199212D01*
X88125300Y-106204061D01*
X88135288Y-106224577D01*
X88161112Y-106252609D01*
X88196566Y-106283056D01*
X88235442Y-106310816D01*
X88271533Y-106330785D01*
X88285896Y-106336065D01*
X88376472Y-106349520D01*
X88462229Y-106338109D01*
X88516420Y-106316957D01*
X88583689Y-106269991D01*
X88632873Y-106206324D01*
X88662549Y-106128424D01*
X88671400Y-106048051D01*
X88660331Y-105962766D01*
X88628988Y-105885248D01*
X88580171Y-105820151D01*
X88516677Y-105772128D01*
X88500659Y-105764153D01*
X88432807Y-105744409D01*
X88359458Y-105741461D01*
X88286656Y-105753766D01*
G36*
X88855550Y-105754217D02*
G01*
X88805174Y-105774451D01*
X88757213Y-105804500D01*
X88720677Y-105838199D01*
X88709774Y-105853988D01*
X88705363Y-105869799D01*
X88714368Y-105884178D01*
X88740892Y-105902194D01*
X88755592Y-105910587D01*
X88814176Y-105943330D01*
X88857530Y-105905265D01*
X88904480Y-105875037D01*
X88951378Y-105869135D01*
X89000442Y-105885651D01*
X89035520Y-105914724D01*
X89056367Y-105959706D01*
X89063867Y-106023153D01*
X89062705Y-106065596D01*
X89058433Y-106113062D01*
X89050886Y-106143800D01*
X89036750Y-106166486D01*
X89016567Y-106186374D01*
X88967657Y-106216954D01*
X88917913Y-106222157D01*
X88867538Y-106201987D01*
X88844054Y-106184053D01*
X88799924Y-106145306D01*
X88748362Y-106171611D01*
X88717513Y-106189622D01*
X88699091Y-106204767D01*
X88696800Y-106209278D01*
X88705643Y-106223151D01*
X88728553Y-106247441D01*
X88753199Y-106270285D01*
X88827244Y-106320039D01*
X88907537Y-106345821D01*
X88991259Y-106347212D01*
X89075593Y-106323795D01*
X89085152Y-106319517D01*
X89154268Y-106275122D01*
X89203302Y-106215507D01*
X89232407Y-106140378D01*
X89241738Y-106049443D01*
X89240875Y-106021925D01*
X89234793Y-105963566D01*
X89222014Y-105918208D01*
X89199056Y-105873659D01*
X89198067Y-105872034D01*
X89146633Y-105810914D01*
X89080138Y-105768130D01*
X89002366Y-105744981D01*
X88917098Y-105742769D01*
X88855550Y-105754217D01*
G37*
X88855550Y-105754217D02*
X88805174Y-105774451D01*
X88757213Y-105804500D01*
X88720677Y-105838199D01*
X88709774Y-105853988D01*
X88705363Y-105869799D01*
X88714368Y-105884178D01*
X88740892Y-105902194D01*
X88755592Y-105910587D01*
X88814176Y-105943330D01*
X88857530Y-105905265D01*
X88904480Y-105875037D01*
X88951378Y-105869135D01*
X89000442Y-105885651D01*
X89035520Y-105914724D01*
X89056367Y-105959706D01*
X89063867Y-106023153D01*
X89062705Y-106065596D01*
X89058433Y-106113062D01*
X89050886Y-106143800D01*
X89036750Y-106166486D01*
X89016567Y-106186374D01*
X88967657Y-106216954D01*
X88917913Y-106222157D01*
X88867538Y-106201987D01*
X88844054Y-106184053D01*
X88799924Y-106145306D01*
X88748362Y-106171611D01*
X88717513Y-106189622D01*
X88699091Y-106204767D01*
X88696800Y-106209278D01*
X88705643Y-106223151D01*
X88728553Y-106247441D01*
X88753199Y-106270285D01*
X88827244Y-106320039D01*
X88907537Y-106345821D01*
X88991259Y-106347212D01*
X89075593Y-106323795D01*
X89085152Y-106319517D01*
X89154268Y-106275122D01*
X89203302Y-106215507D01*
X89232407Y-106140378D01*
X89241738Y-106049443D01*
X89240875Y-106021925D01*
X89234793Y-105963566D01*
X89222014Y-105918208D01*
X89199056Y-105873659D01*
X89198067Y-105872034D01*
X89146633Y-105810914D01*
X89080138Y-105768130D01*
X89002366Y-105744981D01*
X88917098Y-105742769D01*
X88855550Y-105754217D01*
G36*
X86370658Y-105077531D02*
G01*
X86222667Y-105117007D01*
X86084795Y-105176564D01*
X86039192Y-105202410D01*
X85968644Y-105252506D01*
X85893715Y-105317971D01*
X85821284Y-105391837D01*
X85758230Y-105467138D01*
X85715027Y-105530650D01*
X85650150Y-105664749D01*
X85605803Y-105807906D01*
X85582049Y-105956248D01*
X85578954Y-106105904D01*
X85596579Y-106253000D01*
X85634990Y-106393665D01*
X85694250Y-106524028D01*
X85698524Y-106531531D01*
X85779490Y-106648106D01*
X85880463Y-106754737D01*
X85996898Y-106847989D01*
X86124251Y-106924425D01*
X86257976Y-106980612D01*
X86314636Y-106997266D01*
X86398958Y-107013947D01*
X86493542Y-107024750D01*
X86588517Y-107029053D01*
X86674009Y-107026231D01*
X86708756Y-107022166D01*
X86864324Y-106985392D01*
X87011730Y-106925057D01*
X87148133Y-106842420D01*
X87194707Y-106806879D01*
X87306017Y-106701142D01*
X87397274Y-106581998D01*
X87468137Y-106452055D01*
X87518264Y-106313925D01*
X87547315Y-106170215D01*
X87552661Y-106067494D01*
X87382479Y-106067494D01*
X87366142Y-106204738D01*
X87326242Y-106337949D01*
X87271374Y-106450111D01*
X87230300Y-106508736D01*
X87174347Y-106573654D01*
X87110372Y-106638009D01*
X87045228Y-106694948D01*
X86985770Y-106737615D01*
X86981012Y-106740473D01*
X86852559Y-106801765D01*
X86716852Y-106839295D01*
X86576508Y-106852705D01*
X86434140Y-106841639D01*
X86358115Y-106825561D01*
X86246998Y-106786297D01*
X86136679Y-106728176D01*
X86034437Y-106655898D01*
X85947552Y-106574163D01*
X85921856Y-106543860D01*
X85845295Y-106427864D01*
X85791454Y-106304146D01*
X85759889Y-106175403D01*
X85750156Y-106044334D01*
X85761811Y-105913638D01*
X85794411Y-105786013D01*
X85847512Y-105664158D01*
X85920669Y-105550771D01*
X86013439Y-105448550D01*
X86115447Y-105366882D01*
X86232887Y-105301625D01*
X86360584Y-105257757D01*
X86494746Y-105235504D01*
X86631582Y-105235095D01*
X86767300Y-105256757D01*
X86898109Y-105300717D01*
X86934721Y-105317737D01*
X87028196Y-105375798D01*
X87118850Y-105453657D01*
X87201948Y-105545785D01*
X87272754Y-105646654D01*
X87326530Y-105750733D01*
X87342997Y-105794367D01*
X87374887Y-105929581D01*
X87382479Y-106067494D01*
X87552661Y-106067494D01*
X87554949Y-106023538D01*
X87540825Y-105876501D01*
X87504603Y-105731716D01*
X87445942Y-105591791D01*
X87369730Y-105466598D01*
X87286400Y-105367101D01*
X87186130Y-105275760D01*
X87074608Y-105196553D01*
X86957522Y-105133457D01*
X86840560Y-105090449D01*
X86826544Y-105086762D01*
X86677477Y-105061692D01*
X86523888Y-105058854D01*
X86370658Y-105077531D01*
G37*
X86370658Y-105077531D02*
X86222667Y-105117007D01*
X86084795Y-105176564D01*
X86039192Y-105202410D01*
X85968644Y-105252506D01*
X85893715Y-105317971D01*
X85821284Y-105391837D01*
X85758230Y-105467138D01*
X85715027Y-105530650D01*
X85650150Y-105664749D01*
X85605803Y-105807906D01*
X85582049Y-105956248D01*
X85578954Y-106105904D01*
X85596579Y-106253000D01*
X85634990Y-106393665D01*
X85694250Y-106524028D01*
X85698524Y-106531531D01*
X85779490Y-106648106D01*
X85880463Y-106754737D01*
X85996898Y-106847989D01*
X86124251Y-106924425D01*
X86257976Y-106980612D01*
X86314636Y-106997266D01*
X86398958Y-107013947D01*
X86493542Y-107024750D01*
X86588517Y-107029053D01*
X86674009Y-107026231D01*
X86708756Y-107022166D01*
X86864324Y-106985392D01*
X87011730Y-106925057D01*
X87148133Y-106842420D01*
X87194707Y-106806879D01*
X87306017Y-106701142D01*
X87397274Y-106581998D01*
X87468137Y-106452055D01*
X87518264Y-106313925D01*
X87547315Y-106170215D01*
X87552661Y-106067494D01*
X87382479Y-106067494D01*
X87366142Y-106204738D01*
X87326242Y-106337949D01*
X87271374Y-106450111D01*
X87230300Y-106508736D01*
X87174347Y-106573654D01*
X87110372Y-106638009D01*
X87045228Y-106694948D01*
X86985770Y-106737615D01*
X86981012Y-106740473D01*
X86852559Y-106801765D01*
X86716852Y-106839295D01*
X86576508Y-106852705D01*
X86434140Y-106841639D01*
X86358115Y-106825561D01*
X86246998Y-106786297D01*
X86136679Y-106728176D01*
X86034437Y-106655898D01*
X85947552Y-106574163D01*
X85921856Y-106543860D01*
X85845295Y-106427864D01*
X85791454Y-106304146D01*
X85759889Y-106175403D01*
X85750156Y-106044334D01*
X85761811Y-105913638D01*
X85794411Y-105786013D01*
X85847512Y-105664158D01*
X85920669Y-105550771D01*
X86013439Y-105448550D01*
X86115447Y-105366882D01*
X86232887Y-105301625D01*
X86360584Y-105257757D01*
X86494746Y-105235504D01*
X86631582Y-105235095D01*
X86767300Y-105256757D01*
X86898109Y-105300717D01*
X86934721Y-105317737D01*
X87028196Y-105375798D01*
X87118850Y-105453657D01*
X87201948Y-105545785D01*
X87272754Y-105646654D01*
X87326530Y-105750733D01*
X87342997Y-105794367D01*
X87374887Y-105929581D01*
X87382479Y-106067494D01*
X87552661Y-106067494D01*
X87554949Y-106023538D01*
X87540825Y-105876501D01*
X87504603Y-105731716D01*
X87445942Y-105591791D01*
X87369730Y-105466598D01*
X87286400Y-105367101D01*
X87186130Y-105275760D01*
X87074608Y-105196553D01*
X86957522Y-105133457D01*
X86840560Y-105090449D01*
X86826544Y-105086762D01*
X86677477Y-105061692D01*
X86523888Y-105058854D01*
X86370658Y-105077531D01*
G36*
X88504746Y-105072141D02*
G01*
X88357529Y-105109471D01*
X88218928Y-105168060D01*
X88091264Y-105246685D01*
X87976859Y-105344123D01*
X87878033Y-105459152D01*
X87797108Y-105590548D01*
X87788762Y-105607251D01*
X87755913Y-105679241D01*
X87732018Y-105744786D01*
X87715800Y-105810394D01*
X87705980Y-105882574D01*
X87701283Y-105967836D01*
X87700368Y-106057700D01*
X87700942Y-106135622D01*
X87702661Y-106194207D01*
X87706228Y-106239515D01*
X87712346Y-106277605D01*
X87721716Y-106314537D01*
X87734968Y-106356150D01*
X87794008Y-106493252D01*
X87874460Y-106620388D01*
X87973424Y-106734913D01*
X88088002Y-106834183D01*
X88215293Y-106915556D01*
X88352399Y-106976387D01*
X88444939Y-107003550D01*
X88524617Y-107017603D01*
X88616480Y-107026399D01*
X88710173Y-107029451D01*
X88795341Y-107026272D01*
X88833824Y-107021843D01*
X88972346Y-106988550D01*
X89108724Y-106932837D01*
X89237406Y-106857453D01*
X89352837Y-106765149D01*
X89353524Y-106764508D01*
X89462260Y-106646557D01*
X89549061Y-106517513D01*
X89613277Y-106379262D01*
X89654256Y-106233696D01*
X89671348Y-106082702D01*
X89669105Y-106036141D01*
X89490691Y-106036141D01*
X89489253Y-106122857D01*
X89481598Y-106199733D01*
X89472747Y-106241850D01*
X89424247Y-106370548D01*
X89354728Y-106490444D01*
X89267244Y-106597860D01*
X89164850Y-106689115D01*
X89050601Y-106760530D01*
X89036367Y-106767531D01*
X88979478Y-106792432D01*
X88921295Y-106814158D01*
X88872278Y-106828893D01*
X88861900Y-106831192D01*
X88818085Y-106839910D01*
X88781348Y-106847480D01*
X88766650Y-106850678D01*
X88734464Y-106853602D01*
X88685102Y-106853122D01*
X88626479Y-106849785D01*
X88566512Y-106844141D01*
X88513115Y-106836740D01*
X88485304Y-106831157D01*
X88374804Y-106794147D01*
X88265042Y-106738706D01*
X88162768Y-106669194D01*
X88074732Y-106589970D01*
X88029365Y-106536697D01*
X87962969Y-106439429D01*
X87915990Y-106347352D01*
X87885996Y-106253100D01*
X87870555Y-106149304D01*
X87867071Y-106045000D01*
X87868397Y-105974075D01*
X87872324Y-105919759D01*
X87880095Y-105873298D01*
X87892956Y-105825937D01*
X87902263Y-105797471D01*
X87961057Y-105661980D01*
X88039810Y-105541662D01*
X88137146Y-105437907D01*
X88251686Y-105352106D01*
X88382054Y-105285652D01*
X88425025Y-105269352D01*
X88497649Y-105250819D01*
X88585979Y-105238937D01*
X88681066Y-105234244D01*
X88773964Y-105237281D01*
X88834886Y-105244627D01*
X88957072Y-105277717D01*
X89074058Y-105333455D01*
X89182875Y-105409187D01*
X89280555Y-105502260D01*
X89364130Y-105610020D01*
X89430632Y-105729814D01*
X89460190Y-105803700D01*
X89475911Y-105867888D01*
X89486161Y-105948260D01*
X89490691Y-106036141D01*
X89669105Y-106036141D01*
X89663902Y-105928168D01*
X89657122Y-105883314D01*
X89619352Y-105731886D01*
X89560539Y-105593197D01*
X89479535Y-105465129D01*
X89375194Y-105345561D01*
X89355836Y-105326675D01*
X89238262Y-105228557D01*
X89114495Y-105154000D01*
X88981011Y-105101303D01*
X88834289Y-105068767D01*
X88815743Y-105066153D01*
X88658258Y-105057294D01*
X88504746Y-105072141D01*
G37*
X88504746Y-105072141D02*
X88357529Y-105109471D01*
X88218928Y-105168060D01*
X88091264Y-105246685D01*
X87976859Y-105344123D01*
X87878033Y-105459152D01*
X87797108Y-105590548D01*
X87788762Y-105607251D01*
X87755913Y-105679241D01*
X87732018Y-105744786D01*
X87715800Y-105810394D01*
X87705980Y-105882574D01*
X87701283Y-105967836D01*
X87700368Y-106057700D01*
X87700942Y-106135622D01*
X87702661Y-106194207D01*
X87706228Y-106239515D01*
X87712346Y-106277605D01*
X87721716Y-106314537D01*
X87734968Y-106356150D01*
X87794008Y-106493252D01*
X87874460Y-106620388D01*
X87973424Y-106734913D01*
X88088002Y-106834183D01*
X88215293Y-106915556D01*
X88352399Y-106976387D01*
X88444939Y-107003550D01*
X88524617Y-107017603D01*
X88616480Y-107026399D01*
X88710173Y-107029451D01*
X88795341Y-107026272D01*
X88833824Y-107021843D01*
X88972346Y-106988550D01*
X89108724Y-106932837D01*
X89237406Y-106857453D01*
X89352837Y-106765149D01*
X89353524Y-106764508D01*
X89462260Y-106646557D01*
X89549061Y-106517513D01*
X89613277Y-106379262D01*
X89654256Y-106233696D01*
X89671348Y-106082702D01*
X89669105Y-106036141D01*
X89490691Y-106036141D01*
X89489253Y-106122857D01*
X89481598Y-106199733D01*
X89472747Y-106241850D01*
X89424247Y-106370548D01*
X89354728Y-106490444D01*
X89267244Y-106597860D01*
X89164850Y-106689115D01*
X89050601Y-106760530D01*
X89036367Y-106767531D01*
X88979478Y-106792432D01*
X88921295Y-106814158D01*
X88872278Y-106828893D01*
X88861900Y-106831192D01*
X88818085Y-106839910D01*
X88781348Y-106847480D01*
X88766650Y-106850678D01*
X88734464Y-106853602D01*
X88685102Y-106853122D01*
X88626479Y-106849785D01*
X88566512Y-106844141D01*
X88513115Y-106836740D01*
X88485304Y-106831157D01*
X88374804Y-106794147D01*
X88265042Y-106738706D01*
X88162768Y-106669194D01*
X88074732Y-106589970D01*
X88029365Y-106536697D01*
X87962969Y-106439429D01*
X87915990Y-106347352D01*
X87885996Y-106253100D01*
X87870555Y-106149304D01*
X87867071Y-106045000D01*
X87868397Y-105974075D01*
X87872324Y-105919759D01*
X87880095Y-105873298D01*
X87892956Y-105825937D01*
X87902263Y-105797471D01*
X87961057Y-105661980D01*
X88039810Y-105541662D01*
X88137146Y-105437907D01*
X88251686Y-105352106D01*
X88382054Y-105285652D01*
X88425025Y-105269352D01*
X88497649Y-105250819D01*
X88585979Y-105238937D01*
X88681066Y-105234244D01*
X88773964Y-105237281D01*
X88834886Y-105244627D01*
X88957072Y-105277717D01*
X89074058Y-105333455D01*
X89182875Y-105409187D01*
X89280555Y-105502260D01*
X89364130Y-105610020D01*
X89430632Y-105729814D01*
X89460190Y-105803700D01*
X89475911Y-105867888D01*
X89486161Y-105948260D01*
X89490691Y-106036141D01*
X89669105Y-106036141D01*
X89663902Y-105928168D01*
X89657122Y-105883314D01*
X89619352Y-105731886D01*
X89560539Y-105593197D01*
X89479535Y-105465129D01*
X89375194Y-105345561D01*
X89355836Y-105326675D01*
X89238262Y-105228557D01*
X89114495Y-105154000D01*
X88981011Y-105101303D01*
X88834289Y-105068767D01*
X88815743Y-105066153D01*
X88658258Y-105057294D01*
X88504746Y-105072141D01*
G36*
X54207635Y-55841239D02*
G01*
X54160452Y-55841842D01*
X54105599Y-55842408D01*
X54044904Y-55842924D01*
X53980192Y-55843380D01*
X53913290Y-55843765D01*
X53846025Y-55844067D01*
X53780222Y-55844275D01*
X53717707Y-55844378D01*
X53694888Y-55844387D01*
X53399346Y-55844393D01*
X53399346Y-56148243D01*
X54135233Y-56148243D01*
X54135233Y-59210486D01*
X53688953Y-59210486D01*
X53688953Y-56585207D01*
X53796962Y-56583930D01*
X53904972Y-56582654D01*
X53906251Y-56479351D01*
X53907531Y-56376048D01*
X53653249Y-56377277D01*
X53398968Y-56378505D01*
X53396972Y-59514337D01*
X54424841Y-59514337D01*
X54424841Y-55838097D01*
X54207635Y-55841239D01*
G37*
X54207635Y-55841239D02*
X54160452Y-55841842D01*
X54105599Y-55842408D01*
X54044904Y-55842924D01*
X53980192Y-55843380D01*
X53913290Y-55843765D01*
X53846025Y-55844067D01*
X53780222Y-55844275D01*
X53717707Y-55844378D01*
X53694888Y-55844387D01*
X53399346Y-55844393D01*
X53399346Y-56148243D01*
X54135233Y-56148243D01*
X54135233Y-59210486D01*
X53688953Y-59210486D01*
X53688953Y-56585207D01*
X53796962Y-56583930D01*
X53904972Y-56582654D01*
X53906251Y-56479351D01*
X53907531Y-56376048D01*
X53653249Y-56377277D01*
X53398968Y-56378505D01*
X53396972Y-59514337D01*
X54424841Y-59514337D01*
X54424841Y-55838097D01*
X54207635Y-55841239D01*
G36*
X55207018Y-55840811D02*
G01*
X54693084Y-55842019D01*
X54690698Y-59514337D01*
X55720953Y-59514337D01*
X55720953Y-56148243D01*
X55426598Y-56148243D01*
X55426598Y-59210486D01*
X54985065Y-59210486D01*
X54985065Y-56148243D01*
X55426598Y-56148243D01*
X55720953Y-56148243D01*
X55720953Y-55839603D01*
X55207018Y-55840811D01*
G37*
X55207018Y-55840811D02*
X54693084Y-55842019D01*
X54690698Y-59514337D01*
X55720953Y-59514337D01*
X55720953Y-56148243D01*
X55426598Y-56148243D01*
X55426598Y-59210486D01*
X54985065Y-59210486D01*
X54985065Y-56148243D01*
X55426598Y-56148243D01*
X55720953Y-56148243D01*
X55720953Y-55839603D01*
X55207018Y-55840811D01*
G36*
X56726277Y-57526253D02*
G01*
X56725084Y-59208112D01*
X55986822Y-59210544D01*
X55986822Y-59514337D01*
X57017065Y-59514337D01*
X57017065Y-55844393D01*
X56727471Y-55844393D01*
X56726277Y-57526253D01*
G37*
X56726277Y-57526253D02*
X56725084Y-59208112D01*
X55986822Y-59210544D01*
X55986822Y-59514337D01*
X57017065Y-59514337D01*
X57017065Y-55844393D01*
X56727471Y-55844393D01*
X56726277Y-57526253D01*
G36*
X57282922Y-59514337D02*
G01*
X57572542Y-59514337D01*
X57572542Y-59210486D01*
X58018822Y-59210486D01*
X58018822Y-59514337D01*
X58313189Y-59514337D01*
X58311997Y-57678178D01*
X58311003Y-56148243D01*
X58018822Y-56148243D01*
X58018822Y-59006431D01*
X57574916Y-59003963D01*
X57572526Y-56148243D01*
X58018822Y-56148243D01*
X58311003Y-56148243D01*
X58310804Y-55842019D01*
X57285308Y-55842019D01*
X57282922Y-59514337D01*
G37*
X57282922Y-59514337D02*
X57572542Y-59514337D01*
X57572542Y-59210486D01*
X58018822Y-59210486D01*
X58018822Y-59514337D01*
X58313189Y-59514337D01*
X58311997Y-57678178D01*
X58311003Y-56148243D01*
X58018822Y-56148243D01*
X58018822Y-59006431D01*
X57574916Y-59003963D01*
X57572526Y-56148243D01*
X58018822Y-56148243D01*
X58311003Y-56148243D01*
X58310804Y-55842019D01*
X57285308Y-55842019D01*
X57282922Y-59514337D01*
G36*
X58579046Y-59514337D02*
G01*
X58868654Y-59514337D01*
X58868654Y-56148243D01*
X59314934Y-56148243D01*
X59314934Y-59514337D01*
X59604542Y-59514337D01*
X59605693Y-57831290D01*
X59605780Y-57703744D01*
X59605866Y-57577851D01*
X59605950Y-57453988D01*
X59606032Y-57332537D01*
X59606111Y-57213877D01*
X59606188Y-57098388D01*
X59606262Y-56986449D01*
X59606334Y-56878440D01*
X59606402Y-56774742D01*
X59606466Y-56675733D01*
X59606527Y-56581794D01*
X59606584Y-56493304D01*
X59606637Y-56410643D01*
X59606685Y-56334192D01*
X59606729Y-56264328D01*
X59606767Y-56201433D01*
X59606800Y-56145887D01*
X59606828Y-56098068D01*
X59606851Y-56058356D01*
X59606867Y-56027133D01*
X59606877Y-56004776D01*
X59606880Y-55995131D01*
X59606916Y-55842019D01*
X58579046Y-55841681D01*
X58579046Y-59514337D01*
G37*
X58579046Y-59514337D02*
X58868654Y-59514337D01*
X58868654Y-56148243D01*
X59314934Y-56148243D01*
X59314934Y-59514337D01*
X59604542Y-59514337D01*
X59605693Y-57831290D01*
X59605780Y-57703744D01*
X59605866Y-57577851D01*
X59605950Y-57453988D01*
X59606032Y-57332537D01*
X59606111Y-57213877D01*
X59606188Y-57098388D01*
X59606262Y-56986449D01*
X59606334Y-56878440D01*
X59606402Y-56774742D01*
X59606466Y-56675733D01*
X59606527Y-56581794D01*
X59606584Y-56493304D01*
X59606637Y-56410643D01*
X59606685Y-56334192D01*
X59606729Y-56264328D01*
X59606767Y-56201433D01*
X59606800Y-56145887D01*
X59606828Y-56098068D01*
X59606851Y-56058356D01*
X59606867Y-56027133D01*
X59606877Y-56004776D01*
X59606880Y-55995131D01*
X59606916Y-55842019D01*
X58579046Y-55841681D01*
X58579046Y-59514337D01*
G36*
X59875159Y-59514337D02*
G01*
X60164766Y-59514337D01*
X60164766Y-59210486D01*
X60611046Y-59210486D01*
X60611046Y-59514337D01*
X60900654Y-59514337D01*
X60900750Y-59363598D01*
X60900758Y-59347438D01*
X60900769Y-59322161D01*
X60900782Y-59288146D01*
X60900796Y-59245772D01*
X60900813Y-59195418D01*
X60900832Y-59137463D01*
X60900852Y-59072284D01*
X60900874Y-59000262D01*
X60900897Y-58921774D01*
X60900922Y-58837200D01*
X60900948Y-58746918D01*
X60900975Y-58651307D01*
X60901004Y-58550746D01*
X60901033Y-58445614D01*
X60901063Y-58336288D01*
X60901094Y-58223149D01*
X60901125Y-58106575D01*
X60901157Y-57986944D01*
X60901189Y-57864636D01*
X60901222Y-57740029D01*
X60901254Y-57613501D01*
X60901276Y-57527439D01*
X60901629Y-56148243D01*
X60611046Y-56148243D01*
X60611046Y-59006431D01*
X60167140Y-59003963D01*
X60165945Y-57576103D01*
X60164751Y-56148243D01*
X60611046Y-56148243D01*
X60901629Y-56148243D01*
X60901708Y-55842019D01*
X60388433Y-55841850D01*
X59875159Y-55841681D01*
X59875159Y-59514337D01*
G37*
X59875159Y-59514337D02*
X60164766Y-59514337D01*
X60164766Y-59210486D01*
X60611046Y-59210486D01*
X60611046Y-59514337D01*
X60900654Y-59514337D01*
X60900750Y-59363598D01*
X60900758Y-59347438D01*
X60900769Y-59322161D01*
X60900782Y-59288146D01*
X60900796Y-59245772D01*
X60900813Y-59195418D01*
X60900832Y-59137463D01*
X60900852Y-59072284D01*
X60900874Y-59000262D01*
X60900897Y-58921774D01*
X60900922Y-58837200D01*
X60900948Y-58746918D01*
X60900975Y-58651307D01*
X60901004Y-58550746D01*
X60901033Y-58445614D01*
X60901063Y-58336288D01*
X60901094Y-58223149D01*
X60901125Y-58106575D01*
X60901157Y-57986944D01*
X60901189Y-57864636D01*
X60901222Y-57740029D01*
X60901254Y-57613501D01*
X60901276Y-57527439D01*
X60901629Y-56148243D01*
X60611046Y-56148243D01*
X60611046Y-59006431D01*
X60167140Y-59003963D01*
X60165945Y-57576103D01*
X60164751Y-56148243D01*
X60611046Y-56148243D01*
X60901629Y-56148243D01*
X60901708Y-55842019D01*
X60388433Y-55841850D01*
X59875159Y-55841681D01*
X59875159Y-59514337D01*
G36*
X53399346Y-60169514D02*
G01*
X53764916Y-60169514D01*
X53764916Y-63535608D01*
X54059271Y-63535608D01*
X54059271Y-60169514D01*
X54424841Y-60169514D01*
X54424841Y-59865664D01*
X53399346Y-59865664D01*
X53399346Y-60169514D01*
G37*
X53399346Y-60169514D02*
X53764916Y-60169514D01*
X53764916Y-63535608D01*
X54059271Y-63535608D01*
X54059271Y-60169514D01*
X54424841Y-60169514D01*
X54424841Y-59865664D01*
X53399346Y-59865664D01*
X53399346Y-60169514D01*
G36*
X55986822Y-60810391D02*
G01*
X56725084Y-60812823D01*
X56726279Y-62174215D01*
X56727474Y-63535608D01*
X57017065Y-63535608D01*
X57017065Y-60407145D01*
X56726652Y-60407145D01*
X56726600Y-60438558D01*
X56726417Y-60464763D01*
X56726110Y-60484618D01*
X56725686Y-60496976D01*
X56725297Y-60500632D01*
X56722801Y-60502086D01*
X56716080Y-60503301D01*
X56704463Y-60504294D01*
X56687281Y-60505083D01*
X56663865Y-60505686D01*
X56633546Y-60506121D01*
X56595654Y-60506406D01*
X56549520Y-60506559D01*
X56502093Y-60506598D01*
X56281177Y-60506598D01*
X56281177Y-60169420D01*
X56503131Y-60170654D01*
X56725084Y-60171888D01*
X56726335Y-60333277D01*
X56726566Y-60371670D01*
X56726652Y-60407145D01*
X57017065Y-60407145D01*
X57017065Y-59865664D01*
X55986822Y-59865664D01*
X55986822Y-60810391D01*
G37*
X55986822Y-60810391D02*
X56725084Y-60812823D01*
X56726279Y-62174215D01*
X56727474Y-63535608D01*
X57017065Y-63535608D01*
X57017065Y-60407145D01*
X56726652Y-60407145D01*
X56726600Y-60438558D01*
X56726417Y-60464763D01*
X56726110Y-60484618D01*
X56725686Y-60496976D01*
X56725297Y-60500632D01*
X56722801Y-60502086D01*
X56716080Y-60503301D01*
X56704463Y-60504294D01*
X56687281Y-60505083D01*
X56663865Y-60505686D01*
X56633546Y-60506121D01*
X56595654Y-60506406D01*
X56549520Y-60506559D01*
X56502093Y-60506598D01*
X56281177Y-60506598D01*
X56281177Y-60169420D01*
X56503131Y-60170654D01*
X56725084Y-60171888D01*
X56726335Y-60333277D01*
X56726566Y-60371670D01*
X56726652Y-60407145D01*
X57017065Y-60407145D01*
X57017065Y-59865664D01*
X55986822Y-59865664D01*
X55986822Y-60810391D01*
G36*
X57282934Y-60169514D02*
G01*
X57653252Y-60169514D01*
X57653252Y-63535608D01*
X57942860Y-63535608D01*
X57942860Y-60169514D01*
X58313177Y-60169514D01*
X58313177Y-59865664D01*
X57282934Y-59865664D01*
X57282934Y-60169514D01*
G37*
X57282934Y-60169514D02*
X57653252Y-60169514D01*
X57653252Y-63535608D01*
X57942860Y-63535608D01*
X57942860Y-60169514D01*
X58313177Y-60169514D01*
X58313177Y-59865664D01*
X57282934Y-59865664D01*
X57282934Y-60169514D01*
G36*
X55431346Y-63231757D02*
G01*
X54985065Y-63231757D01*
X54985065Y-59865664D01*
X54695458Y-59865664D01*
X54694306Y-61548711D01*
X54694219Y-61676256D01*
X54694134Y-61802150D01*
X54694050Y-61926012D01*
X54693968Y-62047463D01*
X54693889Y-62166124D01*
X54693811Y-62281613D01*
X54693737Y-62393552D01*
X54693666Y-62501560D01*
X54693598Y-62605259D01*
X54693533Y-62704267D01*
X54693472Y-62798207D01*
X54693415Y-62886696D01*
X54693363Y-62969357D01*
X54693315Y-63045809D01*
X54693271Y-63115672D01*
X54693232Y-63178567D01*
X54693199Y-63234114D01*
X54693171Y-63281933D01*
X54693149Y-63321644D01*
X54693133Y-63352868D01*
X54693122Y-63375225D01*
X54693119Y-63384869D01*
X54693084Y-63537982D01*
X55207018Y-63538151D01*
X55720953Y-63538320D01*
X55720953Y-59865664D01*
X55431346Y-59865664D01*
X55431346Y-63231757D01*
G37*
X55431346Y-63231757D02*
X54985065Y-63231757D01*
X54985065Y-59865664D01*
X54695458Y-59865664D01*
X54694306Y-61548711D01*
X54694219Y-61676256D01*
X54694134Y-61802150D01*
X54694050Y-61926012D01*
X54693968Y-62047463D01*
X54693889Y-62166124D01*
X54693811Y-62281613D01*
X54693737Y-62393552D01*
X54693666Y-62501560D01*
X54693598Y-62605259D01*
X54693533Y-62704267D01*
X54693472Y-62798207D01*
X54693415Y-62886696D01*
X54693363Y-62969357D01*
X54693315Y-63045809D01*
X54693271Y-63115672D01*
X54693232Y-63178567D01*
X54693199Y-63234114D01*
X54693171Y-63281933D01*
X54693149Y-63321644D01*
X54693133Y-63352868D01*
X54693122Y-63375225D01*
X54693119Y-63384869D01*
X54693084Y-63537982D01*
X55207018Y-63538151D01*
X55720953Y-63538320D01*
X55720953Y-59865664D01*
X55431346Y-59865664D01*
X55431346Y-63231757D01*
G36*
X59314934Y-63231757D02*
G01*
X58868654Y-63231757D01*
X58868654Y-59865664D01*
X58579046Y-59865664D01*
X58579046Y-63538296D01*
X59092150Y-63538296D01*
X59161105Y-63538273D01*
X59227352Y-63538206D01*
X59290278Y-63538099D01*
X59349272Y-63537953D01*
X59403720Y-63537773D01*
X59453009Y-63537561D01*
X59496526Y-63537320D01*
X59533660Y-63537054D01*
X59563796Y-63536765D01*
X59586322Y-63536456D01*
X59600625Y-63536131D01*
X59606093Y-63535791D01*
X59606130Y-63535765D01*
X59606189Y-63530888D01*
X59606239Y-63516840D01*
X59606280Y-63493945D01*
X59606312Y-63462527D01*
X59606335Y-63422909D01*
X59606350Y-63375416D01*
X59606356Y-63320372D01*
X59606354Y-63258100D01*
X59606344Y-63188926D01*
X59606326Y-63113172D01*
X59606300Y-63031163D01*
X59606266Y-62943223D01*
X59606224Y-62849675D01*
X59606175Y-62750845D01*
X59606118Y-62647055D01*
X59606055Y-62538630D01*
X59605983Y-62425894D01*
X59605905Y-62309171D01*
X59605820Y-62188785D01*
X59605728Y-62065060D01*
X59605630Y-61938320D01*
X59605524Y-61808888D01*
X59605432Y-61699449D01*
X59603857Y-59865664D01*
X59314934Y-59865664D01*
X59314934Y-63231757D01*
G37*
X59314934Y-63231757D02*
X58868654Y-63231757D01*
X58868654Y-59865664D01*
X58579046Y-59865664D01*
X58579046Y-63538296D01*
X59092150Y-63538296D01*
X59161105Y-63538273D01*
X59227352Y-63538206D01*
X59290278Y-63538099D01*
X59349272Y-63537953D01*
X59403720Y-63537773D01*
X59453009Y-63537561D01*
X59496526Y-63537320D01*
X59533660Y-63537054D01*
X59563796Y-63536765D01*
X59586322Y-63536456D01*
X59600625Y-63536131D01*
X59606093Y-63535791D01*
X59606130Y-63535765D01*
X59606189Y-63530888D01*
X59606239Y-63516840D01*
X59606280Y-63493945D01*
X59606312Y-63462527D01*
X59606335Y-63422909D01*
X59606350Y-63375416D01*
X59606356Y-63320372D01*
X59606354Y-63258100D01*
X59606344Y-63188926D01*
X59606326Y-63113172D01*
X59606300Y-63031163D01*
X59606266Y-62943223D01*
X59606224Y-62849675D01*
X59606175Y-62750845D01*
X59606118Y-62647055D01*
X59606055Y-62538630D01*
X59605983Y-62425894D01*
X59605905Y-62309171D01*
X59605820Y-62188785D01*
X59605728Y-62065060D01*
X59605630Y-61938320D01*
X59605524Y-61808888D01*
X59605432Y-61699449D01*
X59603857Y-59865664D01*
X59314934Y-59865664D01*
X59314934Y-63231757D01*
G36*
X59875159Y-63540355D02*
G01*
X60387115Y-63540355D01*
X60456045Y-63540327D01*
X60522304Y-63540243D01*
X60585275Y-63540108D01*
X60644340Y-63539926D01*
X60698882Y-63539700D01*
X60748284Y-63539434D01*
X60791929Y-63539132D01*
X60829199Y-63538798D01*
X60859479Y-63538435D01*
X60882149Y-63538048D01*
X60896594Y-63537640D01*
X60902196Y-63537215D01*
X60902237Y-63537190D01*
X60902463Y-63532268D01*
X60902686Y-63518174D01*
X60902904Y-63495234D01*
X60903116Y-63463770D01*
X60903323Y-63424108D01*
X60903523Y-63376571D01*
X60903716Y-63321483D01*
X60903902Y-63259169D01*
X60904080Y-63189953D01*
X60904249Y-63114158D01*
X60904408Y-63032109D01*
X60904558Y-62944131D01*
X60904698Y-62850547D01*
X60904826Y-62751681D01*
X60904943Y-62647857D01*
X60905049Y-62539400D01*
X60905141Y-62426634D01*
X60905221Y-62309882D01*
X60905286Y-62189470D01*
X60905338Y-62065721D01*
X60905375Y-61938959D01*
X60905396Y-61809508D01*
X60905402Y-61699844D01*
X60905402Y-60169514D01*
X60611046Y-60169514D01*
X60611046Y-63231757D01*
X60164766Y-63231757D01*
X60164766Y-60169514D01*
X60611046Y-60169514D01*
X60905402Y-60169514D01*
X60905402Y-59865664D01*
X59875159Y-59865664D01*
X59875159Y-63540355D01*
G37*
X59875159Y-63540355D02*
X60387115Y-63540355D01*
X60456045Y-63540327D01*
X60522304Y-63540243D01*
X60585275Y-63540108D01*
X60644340Y-63539926D01*
X60698882Y-63539700D01*
X60748284Y-63539434D01*
X60791929Y-63539132D01*
X60829199Y-63538798D01*
X60859479Y-63538435D01*
X60882149Y-63538048D01*
X60896594Y-63537640D01*
X60902196Y-63537215D01*
X60902237Y-63537190D01*
X60902463Y-63532268D01*
X60902686Y-63518174D01*
X60902904Y-63495234D01*
X60903116Y-63463770D01*
X60903323Y-63424108D01*
X60903523Y-63376571D01*
X60903716Y-63321483D01*
X60903902Y-63259169D01*
X60904080Y-63189953D01*
X60904249Y-63114158D01*
X60904408Y-63032109D01*
X60904558Y-62944131D01*
X60904698Y-62850547D01*
X60904826Y-62751681D01*
X60904943Y-62647857D01*
X60905049Y-62539400D01*
X60905141Y-62426634D01*
X60905221Y-62309882D01*
X60905286Y-62189470D01*
X60905338Y-62065721D01*
X60905375Y-61938959D01*
X60905396Y-61809508D01*
X60905402Y-61699844D01*
X60905402Y-60169514D01*
X60611046Y-60169514D01*
X60611046Y-63231757D01*
X60164766Y-63231757D01*
X60164766Y-60169514D01*
X60611046Y-60169514D01*
X60905402Y-60169514D01*
X60905402Y-59865664D01*
X59875159Y-59865664D01*
X59875159Y-63540355D01*
G36*
X57019165Y-53690550D02*
G01*
X56857940Y-53695813D01*
X56702217Y-53705206D01*
X56694224Y-53705815D01*
X56455888Y-53728902D01*
X56219477Y-53761245D01*
X55985211Y-53802762D01*
X55753310Y-53853373D01*
X55523994Y-53912997D01*
X55297483Y-53981552D01*
X55073997Y-54058958D01*
X54853755Y-54145134D01*
X54636978Y-54239999D01*
X54423886Y-54343471D01*
X54214698Y-54455471D01*
X54009635Y-54575916D01*
X53808916Y-54704727D01*
X53617738Y-54838200D01*
X53432320Y-54978792D01*
X53251741Y-55127330D01*
X53076515Y-55283303D01*
X52907158Y-55446202D01*
X52744185Y-55615518D01*
X52588112Y-55790743D01*
X52439454Y-55971365D01*
X52339637Y-56101336D01*
X52201307Y-56294701D01*
X52070949Y-56493100D01*
X51948683Y-56696252D01*
X51834630Y-56903874D01*
X51728912Y-57115686D01*
X51631649Y-57331406D01*
X51542962Y-57550753D01*
X51462972Y-57773446D01*
X51391801Y-57999202D01*
X51329568Y-58227742D01*
X51276395Y-58458783D01*
X51236688Y-58666879D01*
X51215762Y-58795971D01*
X51197822Y-58923771D01*
X51182568Y-59052844D01*
X51169702Y-59185754D01*
X51158925Y-59325063D01*
X51157527Y-59345795D01*
X51155950Y-59375934D01*
X51154609Y-59414219D01*
X51153506Y-59459320D01*
X51152639Y-59509906D01*
X51152011Y-59564648D01*
X51151619Y-59622216D01*
X51151466Y-59681279D01*
X51151550Y-59740507D01*
X51151871Y-59798570D01*
X51152431Y-59854139D01*
X51153229Y-59905882D01*
X51154264Y-59952470D01*
X51155538Y-59992573D01*
X51157049Y-60024861D01*
X51157483Y-60031832D01*
X51173447Y-60232307D01*
X51194353Y-60425964D01*
X51220420Y-60614224D01*
X51251863Y-60798503D01*
X51288900Y-60980222D01*
X51327229Y-61142891D01*
X51390193Y-61374806D01*
X51461890Y-61603027D01*
X51542252Y-61827429D01*
X51631212Y-62047886D01*
X51728703Y-62264270D01*
X51834657Y-62476455D01*
X51949006Y-62684315D01*
X52071684Y-62887723D01*
X52202622Y-63086553D01*
X52341754Y-63280679D01*
X52489012Y-63469974D01*
X52644329Y-63654311D01*
X52698078Y-63714852D01*
X52721971Y-63740893D01*
X52751526Y-63772263D01*
X52785598Y-63807807D01*
X52823038Y-63846370D01*
X52862701Y-63886796D01*
X52903438Y-63927931D01*
X52944103Y-63968620D01*
X52983550Y-64007709D01*
X53020631Y-64044041D01*
X53054198Y-64076462D01*
X53083107Y-64103818D01*
X53097869Y-64117439D01*
X53279223Y-64276230D01*
X53465643Y-64427037D01*
X53656939Y-64569779D01*
X53852918Y-64704377D01*
X54053389Y-64830753D01*
X54258159Y-64948827D01*
X54467037Y-65058520D01*
X54679831Y-65159753D01*
X54896349Y-65252447D01*
X55116399Y-65336523D01*
X55339789Y-65411900D01*
X55566328Y-65478502D01*
X55795824Y-65536247D01*
X56028084Y-65585057D01*
X56262917Y-65624853D01*
X56500132Y-65655556D01*
X56739535Y-65677087D01*
X56900747Y-65686327D01*
X56930172Y-65687361D01*
X56967177Y-65688234D01*
X57010073Y-65688941D01*
X57057176Y-65689478D01*
X57106799Y-65689838D01*
X57157255Y-65690016D01*
X57206858Y-65690005D01*
X57253922Y-65689802D01*
X57296760Y-65689400D01*
X57333686Y-65688793D01*
X57363013Y-65687976D01*
X57366018Y-65687861D01*
X57606614Y-65673605D01*
X57845293Y-65650165D01*
X58081843Y-65617619D01*
X58316053Y-65576047D01*
X58547710Y-65525527D01*
X58776604Y-65466137D01*
X59002523Y-65397957D01*
X59225255Y-65321066D01*
X59444589Y-65235542D01*
X59660312Y-65141464D01*
X59872214Y-65038911D01*
X60080082Y-64927962D01*
X60283705Y-64808695D01*
X60482871Y-64681189D01*
X60677369Y-64545523D01*
X60866986Y-64401776D01*
X60907775Y-64369277D01*
X61065826Y-64237372D01*
X61222001Y-64097431D01*
X61374805Y-63950908D01*
X61522740Y-63799256D01*
X61664312Y-63643926D01*
X61715084Y-63585458D01*
X61863030Y-63405535D01*
X62004152Y-63219185D01*
X62138185Y-63026849D01*
X62264862Y-62828965D01*
X62383920Y-62625976D01*
X62495091Y-62418320D01*
X62598110Y-62206437D01*
X62692711Y-61990769D01*
X62723860Y-61914281D01*
X62807533Y-61691944D01*
X62882122Y-61467112D01*
X62947617Y-61240065D01*
X63004010Y-61011086D01*
X63051292Y-60780456D01*
X63089453Y-60548457D01*
X63118486Y-60315370D01*
X63138380Y-60081476D01*
X63149127Y-59847058D01*
X63150191Y-59690000D01*
X63086841Y-59690000D01*
X63086762Y-59761995D01*
X63086487Y-59825805D01*
X63085956Y-59882738D01*
X63085108Y-59934104D01*
X63083884Y-59981212D01*
X63082225Y-60025370D01*
X63080069Y-60067888D01*
X63077357Y-60110074D01*
X63074030Y-60153239D01*
X63070027Y-60198689D01*
X63065289Y-60247736D01*
X63059755Y-60301687D01*
X63058177Y-60316692D01*
X63028678Y-60551147D01*
X62989938Y-60783690D01*
X62942065Y-61014066D01*
X62885167Y-61242021D01*
X62819351Y-61467300D01*
X62744728Y-61689650D01*
X62661404Y-61908816D01*
X62569487Y-62124543D01*
X62469086Y-62336579D01*
X62360309Y-62544669D01*
X62243264Y-62748557D01*
X62118060Y-62947991D01*
X61984803Y-63142716D01*
X61843604Y-63332477D01*
X61698993Y-63511754D01*
X61654897Y-63563775D01*
X61612343Y-63612779D01*
X61569983Y-63660224D01*
X61526466Y-63707570D01*
X61480443Y-63756279D01*
X61430565Y-63807808D01*
X61375481Y-63863619D01*
X61351965Y-63887193D01*
X61255960Y-63981636D01*
X61163294Y-64069486D01*
X61072270Y-64152200D01*
X60981188Y-64231233D01*
X60888350Y-64308040D01*
X60792059Y-64384079D01*
X60690615Y-64460804D01*
X60636325Y-64500685D01*
X60455262Y-64626998D01*
X60267534Y-64747324D01*
X60074021Y-64861233D01*
X59875599Y-64968295D01*
X59673147Y-65068079D01*
X59467543Y-65160155D01*
X59259666Y-65244092D01*
X59050393Y-65319462D01*
X58840603Y-65385832D01*
X58814056Y-65393570D01*
X58642451Y-65440691D01*
X58473454Y-65482106D01*
X58305467Y-65518079D01*
X58136895Y-65548874D01*
X57966138Y-65574758D01*
X57791600Y-65595995D01*
X57611683Y-65612850D01*
X57424791Y-65625587D01*
X57411121Y-65626347D01*
X57390218Y-65627117D01*
X57361005Y-65627645D01*
X57324665Y-65627946D01*
X57282378Y-65628035D01*
X57235327Y-65627926D01*
X57184694Y-65627634D01*
X57131661Y-65627174D01*
X57077410Y-65626561D01*
X57023122Y-65625810D01*
X56969980Y-65624936D01*
X56919166Y-65623953D01*
X56871861Y-65622876D01*
X56829248Y-65621720D01*
X56792509Y-65620500D01*
X56762824Y-65619231D01*
X56741701Y-65617952D01*
X56633694Y-65609003D01*
X56532548Y-65599211D01*
X56435641Y-65588261D01*
X56340352Y-65575833D01*
X56244061Y-65561609D01*
X56148243Y-65545970D01*
X55916736Y-65501810D01*
X55687472Y-65448486D01*
X55460735Y-65386127D01*
X55236807Y-65314860D01*
X55015971Y-65234812D01*
X54798511Y-65146111D01*
X54584709Y-65048884D01*
X54374847Y-64943259D01*
X54169210Y-64829364D01*
X53968079Y-64707325D01*
X53771738Y-64577271D01*
X53580469Y-64439329D01*
X53425458Y-64318686D01*
X53269837Y-64188724D01*
X53116764Y-64051723D01*
X52967846Y-63909236D01*
X52824690Y-63762818D01*
X52688904Y-63614024D01*
X52647443Y-63566361D01*
X52495689Y-63382570D01*
X52351766Y-63193459D01*
X52215770Y-62999186D01*
X52087798Y-62799914D01*
X51967950Y-62595803D01*
X51856321Y-62387014D01*
X51753010Y-62173707D01*
X51658115Y-61956043D01*
X51634968Y-61899096D01*
X51551019Y-61676786D01*
X51476136Y-61451801D01*
X51410375Y-61224376D01*
X51353792Y-60994742D01*
X51306443Y-60763134D01*
X51268386Y-60529784D01*
X51239676Y-60294925D01*
X51234622Y-60243103D01*
X51230154Y-60194274D01*
X51226341Y-60150319D01*
X51223132Y-60109936D01*
X51220476Y-60071823D01*
X51218323Y-60034677D01*
X51216621Y-59997195D01*
X51215319Y-59958076D01*
X51214368Y-59916017D01*
X51213716Y-59869715D01*
X51213312Y-59817867D01*
X51213106Y-59759173D01*
X51213047Y-59692328D01*
X51213046Y-59690000D01*
X51213102Y-59622868D01*
X51213303Y-59563929D01*
X51213699Y-59511879D01*
X51214343Y-59465417D01*
X51215283Y-59423240D01*
X51216572Y-59384046D01*
X51218260Y-59346532D01*
X51220398Y-59309395D01*
X51223037Y-59271334D01*
X51226227Y-59231045D01*
X51230020Y-59187227D01*
X51234466Y-59138577D01*
X51234622Y-59136897D01*
X51261199Y-58902402D01*
X51297077Y-58669476D01*
X51342150Y-58438409D01*
X51396310Y-58209491D01*
X51459451Y-57983011D01*
X51531464Y-57759261D01*
X51612244Y-57538528D01*
X51701683Y-57321104D01*
X51799673Y-57107278D01*
X51906108Y-56897339D01*
X52020881Y-56691578D01*
X52143885Y-56490284D01*
X52275011Y-56293747D01*
X52297144Y-56262187D01*
X52436871Y-56072538D01*
X52584283Y-55888386D01*
X52739169Y-55709956D01*
X52901318Y-55537469D01*
X53070520Y-55371151D01*
X53246563Y-55211224D01*
X53429238Y-55057912D01*
X53446822Y-55043785D01*
X53628929Y-54904030D01*
X53817520Y-54770989D01*
X54012099Y-54644940D01*
X54212169Y-54526163D01*
X54417233Y-54414936D01*
X54626794Y-54311537D01*
X54840355Y-54216246D01*
X55057420Y-54129340D01*
X55118000Y-54106824D01*
X55329833Y-54033944D01*
X55543795Y-53969431D01*
X55760442Y-53913167D01*
X55980335Y-53865034D01*
X56204030Y-53824914D01*
X56432086Y-53792688D01*
X56665062Y-53768237D01*
X56746448Y-53761602D01*
X56784668Y-53759230D01*
X56831052Y-53757214D01*
X56884274Y-53755555D01*
X56943011Y-53754251D01*
X57005936Y-53753303D01*
X57071726Y-53752712D01*
X57139054Y-53752476D01*
X57206598Y-53752596D01*
X57273030Y-53753073D01*
X57337027Y-53753905D01*
X57397263Y-53755094D01*
X57452415Y-53756639D01*
X57501156Y-53758539D01*
X57542161Y-53760796D01*
X57553551Y-53761602D01*
X57759753Y-53780167D01*
X57959598Y-53804275D01*
X58154624Y-53834193D01*
X58346369Y-53870189D01*
X58536371Y-53912529D01*
X58726167Y-53961480D01*
X58762948Y-53971724D01*
X58987104Y-54039797D01*
X59208637Y-54116878D01*
X59427155Y-54202762D01*
X59642266Y-54297243D01*
X59853578Y-54400115D01*
X60060698Y-54511172D01*
X60263234Y-54630208D01*
X60460794Y-54757017D01*
X60652986Y-54891392D01*
X60839416Y-55033129D01*
X60940376Y-55114994D01*
X61048738Y-55207412D01*
X61158320Y-55305694D01*
X61267323Y-55408092D01*
X61373947Y-55512858D01*
X61476394Y-55618242D01*
X61572865Y-55722497D01*
X61619957Y-55775552D01*
X61772386Y-55957095D01*
X61917096Y-56144015D01*
X62053973Y-56336053D01*
X62182906Y-56532953D01*
X62303781Y-56734456D01*
X62416487Y-56940306D01*
X62520910Y-57150245D01*
X62616938Y-57364015D01*
X62704458Y-57581361D01*
X62783358Y-57802023D01*
X62853526Y-58025745D01*
X62914848Y-58252270D01*
X62967212Y-58481339D01*
X63010506Y-58712697D01*
X63044617Y-58946084D01*
X63058177Y-59063309D01*
X63063928Y-59118751D01*
X63068867Y-59168947D01*
X63073056Y-59215208D01*
X63076553Y-59258841D01*
X63079419Y-59301156D01*
X63081714Y-59343462D01*
X63083497Y-59387067D01*
X63084828Y-59433281D01*
X63085768Y-59483413D01*
X63086376Y-59538772D01*
X63086712Y-59600666D01*
X63086836Y-59670405D01*
X63086841Y-59690000D01*
X63150191Y-59690000D01*
X63150718Y-59612398D01*
X63143144Y-59377775D01*
X63126396Y-59143473D01*
X63100465Y-58909772D01*
X63065342Y-58676955D01*
X63021019Y-58445303D01*
X62967485Y-58215097D01*
X62904732Y-57986619D01*
X62854107Y-57824168D01*
X62775476Y-57599150D01*
X62688134Y-57377823D01*
X62592207Y-57160403D01*
X62487820Y-56947104D01*
X62375099Y-56738141D01*
X62254168Y-56533728D01*
X62125154Y-56334079D01*
X61988181Y-56139409D01*
X61843375Y-55949934D01*
X61690860Y-55765866D01*
X61577317Y-55637869D01*
X61555071Y-55613959D01*
X61527125Y-55584667D01*
X61494650Y-55551165D01*
X61458819Y-55514623D01*
X61420801Y-55476214D01*
X61381769Y-55437109D01*
X61342894Y-55398479D01*
X61305347Y-55361495D01*
X61270301Y-55327330D01*
X61238925Y-55297154D01*
X61212392Y-55272139D01*
X61202131Y-55262683D01*
X61022114Y-55104787D01*
X60836591Y-54954540D01*
X60645778Y-54812064D01*
X60449891Y-54677480D01*
X60249147Y-54550908D01*
X60043761Y-54432471D01*
X59833950Y-54322289D01*
X59619929Y-54220483D01*
X59401916Y-54127174D01*
X59180126Y-54042484D01*
X58954776Y-53966534D01*
X58811682Y-53923402D01*
X58580731Y-53861848D01*
X58347674Y-53809552D01*
X58112551Y-53766520D01*
X57875401Y-53732760D01*
X57662747Y-53710525D01*
X57507684Y-53699405D01*
X57346854Y-53692360D01*
X57183076Y-53689404D01*
X57019165Y-53690550D01*
G37*
X57019165Y-53690550D02*
X56857940Y-53695813D01*
X56702217Y-53705206D01*
X56694224Y-53705815D01*
X56455888Y-53728902D01*
X56219477Y-53761245D01*
X55985211Y-53802762D01*
X55753310Y-53853373D01*
X55523994Y-53912997D01*
X55297483Y-53981552D01*
X55073997Y-54058958D01*
X54853755Y-54145134D01*
X54636978Y-54239999D01*
X54423886Y-54343471D01*
X54214698Y-54455471D01*
X54009635Y-54575916D01*
X53808916Y-54704727D01*
X53617738Y-54838200D01*
X53432320Y-54978792D01*
X53251741Y-55127330D01*
X53076515Y-55283303D01*
X52907158Y-55446202D01*
X52744185Y-55615518D01*
X52588112Y-55790743D01*
X52439454Y-55971365D01*
X52339637Y-56101336D01*
X52201307Y-56294701D01*
X52070949Y-56493100D01*
X51948683Y-56696252D01*
X51834630Y-56903874D01*
X51728912Y-57115686D01*
X51631649Y-57331406D01*
X51542962Y-57550753D01*
X51462972Y-57773446D01*
X51391801Y-57999202D01*
X51329568Y-58227742D01*
X51276395Y-58458783D01*
X51236688Y-58666879D01*
X51215762Y-58795971D01*
X51197822Y-58923771D01*
X51182568Y-59052844D01*
X51169702Y-59185754D01*
X51158925Y-59325063D01*
X51157527Y-59345795D01*
X51155950Y-59375934D01*
X51154609Y-59414219D01*
X51153506Y-59459320D01*
X51152639Y-59509906D01*
X51152011Y-59564648D01*
X51151619Y-59622216D01*
X51151466Y-59681279D01*
X51151550Y-59740507D01*
X51151871Y-59798570D01*
X51152431Y-59854139D01*
X51153229Y-59905882D01*
X51154264Y-59952470D01*
X51155538Y-59992573D01*
X51157049Y-60024861D01*
X51157483Y-60031832D01*
X51173447Y-60232307D01*
X51194353Y-60425964D01*
X51220420Y-60614224D01*
X51251863Y-60798503D01*
X51288900Y-60980222D01*
X51327229Y-61142891D01*
X51390193Y-61374806D01*
X51461890Y-61603027D01*
X51542252Y-61827429D01*
X51631212Y-62047886D01*
X51728703Y-62264270D01*
X51834657Y-62476455D01*
X51949006Y-62684315D01*
X52071684Y-62887723D01*
X52202622Y-63086553D01*
X52341754Y-63280679D01*
X52489012Y-63469974D01*
X52644329Y-63654311D01*
X52698078Y-63714852D01*
X52721971Y-63740893D01*
X52751526Y-63772263D01*
X52785598Y-63807807D01*
X52823038Y-63846370D01*
X52862701Y-63886796D01*
X52903438Y-63927931D01*
X52944103Y-63968620D01*
X52983550Y-64007709D01*
X53020631Y-64044041D01*
X53054198Y-64076462D01*
X53083107Y-64103818D01*
X53097869Y-64117439D01*
X53279223Y-64276230D01*
X53465643Y-64427037D01*
X53656939Y-64569779D01*
X53852918Y-64704377D01*
X54053389Y-64830753D01*
X54258159Y-64948827D01*
X54467037Y-65058520D01*
X54679831Y-65159753D01*
X54896349Y-65252447D01*
X55116399Y-65336523D01*
X55339789Y-65411900D01*
X55566328Y-65478502D01*
X55795824Y-65536247D01*
X56028084Y-65585057D01*
X56262917Y-65624853D01*
X56500132Y-65655556D01*
X56739535Y-65677087D01*
X56900747Y-65686327D01*
X56930172Y-65687361D01*
X56967177Y-65688234D01*
X57010073Y-65688941D01*
X57057176Y-65689478D01*
X57106799Y-65689838D01*
X57157255Y-65690016D01*
X57206858Y-65690005D01*
X57253922Y-65689802D01*
X57296760Y-65689400D01*
X57333686Y-65688793D01*
X57363013Y-65687976D01*
X57366018Y-65687861D01*
X57606614Y-65673605D01*
X57845293Y-65650165D01*
X58081843Y-65617619D01*
X58316053Y-65576047D01*
X58547710Y-65525527D01*
X58776604Y-65466137D01*
X59002523Y-65397957D01*
X59225255Y-65321066D01*
X59444589Y-65235542D01*
X59660312Y-65141464D01*
X59872214Y-65038911D01*
X60080082Y-64927962D01*
X60283705Y-64808695D01*
X60482871Y-64681189D01*
X60677369Y-64545523D01*
X60866986Y-64401776D01*
X60907775Y-64369277D01*
X61065826Y-64237372D01*
X61222001Y-64097431D01*
X61374805Y-63950908D01*
X61522740Y-63799256D01*
X61664312Y-63643926D01*
X61715084Y-63585458D01*
X61863030Y-63405535D01*
X62004152Y-63219185D01*
X62138185Y-63026849D01*
X62264862Y-62828965D01*
X62383920Y-62625976D01*
X62495091Y-62418320D01*
X62598110Y-62206437D01*
X62692711Y-61990769D01*
X62723860Y-61914281D01*
X62807533Y-61691944D01*
X62882122Y-61467112D01*
X62947617Y-61240065D01*
X63004010Y-61011086D01*
X63051292Y-60780456D01*
X63089453Y-60548457D01*
X63118486Y-60315370D01*
X63138380Y-60081476D01*
X63149127Y-59847058D01*
X63150191Y-59690000D01*
X63086841Y-59690000D01*
X63086762Y-59761995D01*
X63086487Y-59825805D01*
X63085956Y-59882738D01*
X63085108Y-59934104D01*
X63083884Y-59981212D01*
X63082225Y-60025370D01*
X63080069Y-60067888D01*
X63077357Y-60110074D01*
X63074030Y-60153239D01*
X63070027Y-60198689D01*
X63065289Y-60247736D01*
X63059755Y-60301687D01*
X63058177Y-60316692D01*
X63028678Y-60551147D01*
X62989938Y-60783690D01*
X62942065Y-61014066D01*
X62885167Y-61242021D01*
X62819351Y-61467300D01*
X62744728Y-61689650D01*
X62661404Y-61908816D01*
X62569487Y-62124543D01*
X62469086Y-62336579D01*
X62360309Y-62544669D01*
X62243264Y-62748557D01*
X62118060Y-62947991D01*
X61984803Y-63142716D01*
X61843604Y-63332477D01*
X61698993Y-63511754D01*
X61654897Y-63563775D01*
X61612343Y-63612779D01*
X61569983Y-63660224D01*
X61526466Y-63707570D01*
X61480443Y-63756279D01*
X61430565Y-63807808D01*
X61375481Y-63863619D01*
X61351965Y-63887193D01*
X61255960Y-63981636D01*
X61163294Y-64069486D01*
X61072270Y-64152200D01*
X60981188Y-64231233D01*
X60888350Y-64308040D01*
X60792059Y-64384079D01*
X60690615Y-64460804D01*
X60636325Y-64500685D01*
X60455262Y-64626998D01*
X60267534Y-64747324D01*
X60074021Y-64861233D01*
X59875599Y-64968295D01*
X59673147Y-65068079D01*
X59467543Y-65160155D01*
X59259666Y-65244092D01*
X59050393Y-65319462D01*
X58840603Y-65385832D01*
X58814056Y-65393570D01*
X58642451Y-65440691D01*
X58473454Y-65482106D01*
X58305467Y-65518079D01*
X58136895Y-65548874D01*
X57966138Y-65574758D01*
X57791600Y-65595995D01*
X57611683Y-65612850D01*
X57424791Y-65625587D01*
X57411121Y-65626347D01*
X57390218Y-65627117D01*
X57361005Y-65627645D01*
X57324665Y-65627946D01*
X57282378Y-65628035D01*
X57235327Y-65627926D01*
X57184694Y-65627634D01*
X57131661Y-65627174D01*
X57077410Y-65626561D01*
X57023122Y-65625810D01*
X56969980Y-65624936D01*
X56919166Y-65623953D01*
X56871861Y-65622876D01*
X56829248Y-65621720D01*
X56792509Y-65620500D01*
X56762824Y-65619231D01*
X56741701Y-65617952D01*
X56633694Y-65609003D01*
X56532548Y-65599211D01*
X56435641Y-65588261D01*
X56340352Y-65575833D01*
X56244061Y-65561609D01*
X56148243Y-65545970D01*
X55916736Y-65501810D01*
X55687472Y-65448486D01*
X55460735Y-65386127D01*
X55236807Y-65314860D01*
X55015971Y-65234812D01*
X54798511Y-65146111D01*
X54584709Y-65048884D01*
X54374847Y-64943259D01*
X54169210Y-64829364D01*
X53968079Y-64707325D01*
X53771738Y-64577271D01*
X53580469Y-64439329D01*
X53425458Y-64318686D01*
X53269837Y-64188724D01*
X53116764Y-64051723D01*
X52967846Y-63909236D01*
X52824690Y-63762818D01*
X52688904Y-63614024D01*
X52647443Y-63566361D01*
X52495689Y-63382570D01*
X52351766Y-63193459D01*
X52215770Y-62999186D01*
X52087798Y-62799914D01*
X51967950Y-62595803D01*
X51856321Y-62387014D01*
X51753010Y-62173707D01*
X51658115Y-61956043D01*
X51634968Y-61899096D01*
X51551019Y-61676786D01*
X51476136Y-61451801D01*
X51410375Y-61224376D01*
X51353792Y-60994742D01*
X51306443Y-60763134D01*
X51268386Y-60529784D01*
X51239676Y-60294925D01*
X51234622Y-60243103D01*
X51230154Y-60194274D01*
X51226341Y-60150319D01*
X51223132Y-60109936D01*
X51220476Y-60071823D01*
X51218323Y-60034677D01*
X51216621Y-59997195D01*
X51215319Y-59958076D01*
X51214368Y-59916017D01*
X51213716Y-59869715D01*
X51213312Y-59817867D01*
X51213106Y-59759173D01*
X51213047Y-59692328D01*
X51213046Y-59690000D01*
X51213102Y-59622868D01*
X51213303Y-59563929D01*
X51213699Y-59511879D01*
X51214343Y-59465417D01*
X51215283Y-59423240D01*
X51216572Y-59384046D01*
X51218260Y-59346532D01*
X51220398Y-59309395D01*
X51223037Y-59271334D01*
X51226227Y-59231045D01*
X51230020Y-59187227D01*
X51234466Y-59138577D01*
X51234622Y-59136897D01*
X51261199Y-58902402D01*
X51297077Y-58669476D01*
X51342150Y-58438409D01*
X51396310Y-58209491D01*
X51459451Y-57983011D01*
X51531464Y-57759261D01*
X51612244Y-57538528D01*
X51701683Y-57321104D01*
X51799673Y-57107278D01*
X51906108Y-56897339D01*
X52020881Y-56691578D01*
X52143885Y-56490284D01*
X52275011Y-56293747D01*
X52297144Y-56262187D01*
X52436871Y-56072538D01*
X52584283Y-55888386D01*
X52739169Y-55709956D01*
X52901318Y-55537469D01*
X53070520Y-55371151D01*
X53246563Y-55211224D01*
X53429238Y-55057912D01*
X53446822Y-55043785D01*
X53628929Y-54904030D01*
X53817520Y-54770989D01*
X54012099Y-54644940D01*
X54212169Y-54526163D01*
X54417233Y-54414936D01*
X54626794Y-54311537D01*
X54840355Y-54216246D01*
X55057420Y-54129340D01*
X55118000Y-54106824D01*
X55329833Y-54033944D01*
X55543795Y-53969431D01*
X55760442Y-53913167D01*
X55980335Y-53865034D01*
X56204030Y-53824914D01*
X56432086Y-53792688D01*
X56665062Y-53768237D01*
X56746448Y-53761602D01*
X56784668Y-53759230D01*
X56831052Y-53757214D01*
X56884274Y-53755555D01*
X56943011Y-53754251D01*
X57005936Y-53753303D01*
X57071726Y-53752712D01*
X57139054Y-53752476D01*
X57206598Y-53752596D01*
X57273030Y-53753073D01*
X57337027Y-53753905D01*
X57397263Y-53755094D01*
X57452415Y-53756639D01*
X57501156Y-53758539D01*
X57542161Y-53760796D01*
X57553551Y-53761602D01*
X57759753Y-53780167D01*
X57959598Y-53804275D01*
X58154624Y-53834193D01*
X58346369Y-53870189D01*
X58536371Y-53912529D01*
X58726167Y-53961480D01*
X58762948Y-53971724D01*
X58987104Y-54039797D01*
X59208637Y-54116878D01*
X59427155Y-54202762D01*
X59642266Y-54297243D01*
X59853578Y-54400115D01*
X60060698Y-54511172D01*
X60263234Y-54630208D01*
X60460794Y-54757017D01*
X60652986Y-54891392D01*
X60839416Y-55033129D01*
X60940376Y-55114994D01*
X61048738Y-55207412D01*
X61158320Y-55305694D01*
X61267323Y-55408092D01*
X61373947Y-55512858D01*
X61476394Y-55618242D01*
X61572865Y-55722497D01*
X61619957Y-55775552D01*
X61772386Y-55957095D01*
X61917096Y-56144015D01*
X62053973Y-56336053D01*
X62182906Y-56532953D01*
X62303781Y-56734456D01*
X62416487Y-56940306D01*
X62520910Y-57150245D01*
X62616938Y-57364015D01*
X62704458Y-57581361D01*
X62783358Y-57802023D01*
X62853526Y-58025745D01*
X62914848Y-58252270D01*
X62967212Y-58481339D01*
X63010506Y-58712697D01*
X63044617Y-58946084D01*
X63058177Y-59063309D01*
X63063928Y-59118751D01*
X63068867Y-59168947D01*
X63073056Y-59215208D01*
X63076553Y-59258841D01*
X63079419Y-59301156D01*
X63081714Y-59343462D01*
X63083497Y-59387067D01*
X63084828Y-59433281D01*
X63085768Y-59483413D01*
X63086376Y-59538772D01*
X63086712Y-59600666D01*
X63086836Y-59670405D01*
X63086841Y-59690000D01*
X63150191Y-59690000D01*
X63150718Y-59612398D01*
X63143144Y-59377775D01*
X63126396Y-59143473D01*
X63100465Y-58909772D01*
X63065342Y-58676955D01*
X63021019Y-58445303D01*
X62967485Y-58215097D01*
X62904732Y-57986619D01*
X62854107Y-57824168D01*
X62775476Y-57599150D01*
X62688134Y-57377823D01*
X62592207Y-57160403D01*
X62487820Y-56947104D01*
X62375099Y-56738141D01*
X62254168Y-56533728D01*
X62125154Y-56334079D01*
X61988181Y-56139409D01*
X61843375Y-55949934D01*
X61690860Y-55765866D01*
X61577317Y-55637869D01*
X61555071Y-55613959D01*
X61527125Y-55584667D01*
X61494650Y-55551165D01*
X61458819Y-55514623D01*
X61420801Y-55476214D01*
X61381769Y-55437109D01*
X61342894Y-55398479D01*
X61305347Y-55361495D01*
X61270301Y-55327330D01*
X61238925Y-55297154D01*
X61212392Y-55272139D01*
X61202131Y-55262683D01*
X61022114Y-55104787D01*
X60836591Y-54954540D01*
X60645778Y-54812064D01*
X60449891Y-54677480D01*
X60249147Y-54550908D01*
X60043761Y-54432471D01*
X59833950Y-54322289D01*
X59619929Y-54220483D01*
X59401916Y-54127174D01*
X59180126Y-54042484D01*
X58954776Y-53966534D01*
X58811682Y-53923402D01*
X58580731Y-53861848D01*
X58347674Y-53809552D01*
X58112551Y-53766520D01*
X57875401Y-53732760D01*
X57662747Y-53710525D01*
X57507684Y-53699405D01*
X57346854Y-53692360D01*
X57183076Y-53689404D01*
X57019165Y-53690550D01*
M02*
